<?xml version="1.0" standalone="no"?>
<!DOCTYPE svg PUBLIC "-//W3C//DTD SVG 1.1//EN" "http://www.w3.org/Graphics/SVG/1.1/DTD/svg11.dtd" >
<svg xmlns="http://www.w3.org/2000/svg" xmlns:xlink="http://www.w3.org/1999/xlink" version="1.1">
<metadata>
Created by FontForge 20201107 at Sat Feb 25 09:18:04 2023
 By 
Copyright (c) 2022, RandomMaerks (Bao Nguyen) || For more information, send an email to rmforbusuness@gmail.com
</metadata>
<defs>
<font id="Cygre-Bold" horiz-adv-x="236" >
  <font-face 
    font-family="Cygre"
    font-weight="700"
    font-stretch="normal"
    units-per-em="1000"
    panose-1="2 0 8 3 0 0 0 0 0 0"
    ascent="800"
    descent="-200"
    x-height="500"
    cap-height="700"
    bbox="-147 -334 1411 1272"
    underline-thickness="50"
    underline-position="-100"
    unicode-range="U+0020-25CF"
  />
<missing-glyph horiz-adv-x="364" 
d="M33 0v666h265v-666h-265zM66 33h199v600h-199v-600z" />
    <glyph glyph-name="f_i" unicode="fi" horiz-adv-x="633" 
d="M333 629q-36 0 -57 -22t-21 -59v-48h327l-116 -120h-211v-380h-130v380h-98v120h98v78q0 73 54.5 122.5t134.5 49.5h75v-121h-56zM439 644.5q0 33.5 22.5 56t56 22.5t56 -22.5t22.5 -56t-22.5 -56.5t-56 -23t-56 23t-22.5 56.5zM453 0v497l129 3v-500h-129z" />
    <glyph glyph-name="f_l" unicode="fl" horiz-adv-x="651" 
d="M333 629q-36 0 -57 -22t-21 -59v-48h154v-120h-154v-380h-130v380h-98v120h98v78q0 73 54.5 122.5t134.5 49.5h284l-116 -121h-149zM469 0v747l129 3v-750h-129z" />
    <glyph glyph-name="f_f_i" unicode="ffi" horiz-adv-x="1011" 
d="M333 629q-36 0 -57 -22t-21 -59v-48h168v-120h-168v-380h-130v380h-98v120h98v78q0 73 54.5 122.5t134.5 49.5h75v-121h-56zM715 629q-36 0 -57 -22t-21 -59v-48h324l-113 -120h-211v-380h-130v380h-84v120h84v78q0 73 54.5 122.5t134.5 49.5h74v-121h-55zM817 644.5
q0 33.5 23 56t56.5 22.5t56 -22.5t22.5 -56t-22.5 -56.5t-56 -23t-56.5 23t-23 56.5zM831 0v500h130v-500h-130z" />
    <glyph glyph-name="f_f_l" unicode="ffl" horiz-adv-x="1047" 
d="M333 629q-36 0 -57 -22t-21 -59v-48h167v-120h-167v-380h-130v380h-98v120h98v78q0 73 54.5 122.5t134.5 49.5h75v-121h-56zM728 629q-36 0 -57 -22t-21 -59v-48h154v-120h-154v-380h-130v380h-98v120h98v78q0 73 54.5 122.5t134.5 49.5h285l-114 -121h-152zM864 0v750
h130v-750h-130z" />
    <glyph glyph-name="f_f" unicode="ff" horiz-adv-x="823" 
d="M333 629q-36 0 -57 -22t-21 -59v-48h154v-120h-154v-380h-130v380h-98v120h98v78q0 73 54.5 122.5t134.5 49.5h75v-121h-56zM715 629q-36 0 -57 -22t-21 -59v-48h153v-120h-153v-380h-130v380h-98v120h98v78q0 73 54.5 122.5t134.5 49.5h74v-121h-55z" />
    <glyph glyph-name=".notdef" horiz-adv-x="364" 
d="M33 0v666h265v-666h-265zM66 33h199v600h-199v-600z" />
    <glyph glyph-name=".null" horiz-adv-x="0" 
 />
    <glyph glyph-name="nonmarkingreturn" horiz-adv-x="333" 
 />
    <glyph glyph-name="space" unicode=" " horiz-adv-x="270" 
 />
    <glyph glyph-name="exclam" unicode="!" horiz-adv-x="235" 
d="M173 227h-116l-14 473h143zM29 72q0 39 24.5 65t61.5 26q39 0 65 -26t26 -65q0 -38 -25 -63.5t-63.5 -25.5t-63.5 25.5t-25 63.5z" />
    <glyph glyph-name="quotedbl" unicode="&#x22;" horiz-adv-x="410" 
d="M265 770l117 -33l-59 -241l-112 31zM82 770l117 -33l-59 -241l-112 31z" />
    <glyph glyph-name="numbersign" unicode="#" horiz-adv-x="723" 
d="M697 543v-127h-670v127h670zM697 307v-127h-670v127h670zM430 0h-143l267 700h143zM170 0h-143l267 700h143z" />
    <glyph glyph-name="dollar" unicode="$" horiz-adv-x="473" 
d="M219 299q-92 13 -139 53t-47 105q0 70 54 115.5t137 45.5q72 0 131 -36.5t86 -96.5l-126 -38q-12 27 -36 42.5t-54 15.5q-27 0 -44.5 -12.5t-17.5 -32.5q0 -36 84 -49q94 -13 144 -54.5t50 -105.5q0 -69 -53.5 -113t-135.5 -44q-74 0 -133 36t-86 97l126 38
q12 -30 36 -47.5t54 -17.5q26 0 44 13.5t18 34.5q0 20 -22 32t-70 19zM179 596v104h117v-104h-117zM179 118h117v-118h-117v118z" />
    <glyph glyph-name="percent" unicode="%" horiz-adv-x="1001" 
d="M687 192.5q0 -37.5 25 -62t60.5 -24.5t60.5 24.5t25 62t-25 61.5t-60.5 24t-60.5 -24t-25 -61.5zM570 192.5q0 87.5 59 144.5t143.5 57t143.5 -57t59 -144.5t-59 -145t-143.5 -57.5t-143.5 57.5t-59 145zM143 507.5q0 -37.5 25 -61.5t61 -24t61 24t25 61.5t-25 62
t-61 24.5t-61 -24.5t-25 -62zM27 507.5q0 87.5 58.5 145t143.5 57.5t143.5 -57.5t58.5 -145t-58.5 -144.5t-143.5 -57t-143.5 57t-58.5 144.5zM429 0h-143l287 700h143z" />
    <glyph glyph-name="ampersand" unicode="&#x26;" horiz-adv-x="684" 
d="M253 612q25 0 42 -15t17 -37q0 -40 -43 -76l-36 -31l-17 22q-34 39 -34 69q0 28 21 48t50 20zM256 725q-82 0 -137.5 -51t-55.5 -125q0 -78 71 -153l22 -24l-49 -43q-36 -28 -56 -68t-20 -85q0 -85 64.5 -141.5t162.5 -56.5q101 0 158 63l36 39l107 -115l86 80l-104 110
l92 86l-89 90l-90 -85l-134 137l35 29q35 27 55 69.5t20 86.5q0 69 -49 113t-125 44zM237 295l125 -127l-32 -32q-29 -29 -74 -29q-37 0 -63 25t-26 61q0 37 32 66z" />
    <glyph glyph-name="quotesingle" unicode="'" horiz-adv-x="227" 
d="M82 770l117 -33l-59 -241l-112 31z" />
    <glyph glyph-name="parenleft" unicode="(" horiz-adv-x="325" 
d="M33 253v213q0 110 59 190t153 108l44 -126q-55 -15 -90.5 -65t-35.5 -120v-187q0 -73 38.5 -124.5t97.5 -63.5l-43 -126q-98 24 -160.5 105.5t-62.5 195.5z" />
    <glyph glyph-name="parenright" unicode=")" horiz-adv-x="325" 
d="M292 463v-213q0 -110 -58.5 -190t-152.5 -108l-44 126q55 15 90.5 65t35.5 120v187q0 73 -38.5 124.5t-97.5 63.5l43 126q97 -24 159.5 -105.5t62.5 -195.5z" />
    <glyph glyph-name="asterisk" unicode="*" horiz-adv-x="508" 
d="M195 800h119l-8 -147l139 52l37 -114l-143 -39l93 -115l-97 -70l-81 123l-81 -123l-97 70l94 115l-143 39l37 114l137 -53z" />
    <glyph glyph-name="plus" unicode="+" horiz-adv-x="418" 
d="M152 449h115v-126h125v-113h-125v-126h-115v126h-125v113h125v126z" />
    <glyph glyph-name="comma" unicode="," horiz-adv-x="241" 
d="M76 147l132 -24l-62 -281l-106 18z" />
    <glyph glyph-name="hyphen" unicode="-" horiz-adv-x="418" 
d="M392 323v-113h-365v113h365z" />
    <glyph glyph-name="period" unicode="." horiz-adv-x="241" 
d="M32 72q0 39 24.5 65t61.5 26q39 0 65.5 -26t26.5 -65q0 -38 -25.5 -63.5t-63.5 -25.5t-63.5 25.5t-25.5 63.5z" />
    <glyph glyph-name="slash" unicode="/" horiz-adv-x="465" 
d="M171 0h-144l267 700h144z" />
    <glyph glyph-name="zero" unicode="0" horiz-adv-x="648" 
d="M163 323q0 -92 47 -151.5t114 -59.5t114 59.5t47 151.5v53q0 92 -47 151.5t-114 59.5t-114 -59.5t-47 -151.5v-53zM33 323v53q0 148 84.5 244.5t206.5 96.5t206.5 -96.5t84.5 -244.5v-53q0 -148 -84.5 -244.5t-206.5 -96.5t-206.5 96.5t-84.5 244.5z" />
    <glyph glyph-name="one" unicode="1" horiz-adv-x="439" 
d="M386 700v-700h-129v552l-157 -113l-73 104l222 157h137z" />
    <glyph glyph-name="two" unicode="2" horiz-adv-x="571" 
d="M538 470q0 105 -72.5 173t-176.5 68q-99 0 -163.5 -56t-92.5 -145l128 -37q32 108 128 108q50 0 84.5 -31t34.5 -80q0 -18 -9 -36.5t-19 -31t-33 -32t-33.5 -27t-39.5 -27.5l-232 -168v-148h496v127h-320l164 119q156 109 156 224z" />
    <glyph glyph-name="three" unicode="3" horiz-adv-x="571" 
d="M374 423l164 129v148h-496v-127h344l-174 -139l25 -90q80 0 125.5 -33.5t45.5 -91.5q0 -44 -34 -72t-89 -28q-51 0 -85.5 26.5t-45.5 74.5l-121 -41q25 -87 92.5 -138.5t161.5 -51.5q111 0 181 63t70 164q0 83 -45 139.5t-119 67.5z" />
    <glyph glyph-name="four" unicode="4" horiz-adv-x="615" 
d="M163 310h192v229zM485 700v-390h104v-127h-104v-183h-130v183h-328v144l311 373h147z" />
    <glyph glyph-name="five" unicode="5" horiz-adv-x="571" 
d="M173 422v151h345v127h-475v-364l130 -33q53 59 121 59q49 0 81.5 -34.5t32.5 -87.5q0 -54 -35 -87.5t-90 -33.5q-47 0 -79.5 25t-42.5 70l-128 -42q25 -85 92 -134t159 -49q111 0 182.5 70t71.5 180q0 102 -60.5 173t-147.5 71q-40 0 -82 -16t-75 -45z" />
    <glyph glyph-name="six" unicode="6" horiz-adv-x="610" 
d="M491 519q-50 68 -151 68q-75 0 -122.5 -57.5t-54.5 -153.5q25 48 74 76t108 28q97 0 164.5 -71.5t67.5 -174.5q0 -109 -75 -180.5t-188 -71.5q-78 0 -141.5 35t-96.5 96q-43 78 -43 201q0 182 87 292.5t228 110.5q69 0 127.5 -28t91.5 -77zM173 237q0 -52 42.5 -88.5
t101.5 -36.5q56 0 93 34t37 86q0 51 -38.5 84.5t-97.5 33.5t-98.5 -32.5t-39.5 -80.5z" />
    <glyph glyph-name="seven" unicode="7" horiz-adv-x="541" 
d="M283 0l232 563v137h-488v-127h354l-240 -573h142z" />
    <glyph glyph-name="eight" unicode="8" horiz-adv-x="598" 
d="M163 203q0 -40 39 -65.5t97 -25.5t97 25.5t39 65.5q0 41 -39.5 68t-96.5 27t-96.5 -27t-39.5 -68zM53 522q0 84 71 140t175 56t175 -56t71 -140q0 -51 -29 -94t-79 -67q59 -25 93.5 -72t34.5 -105q0 -87 -76.5 -144.5t-189.5 -57.5t-189.5 57.5t-76.5 144.5
q0 58 34.5 105t93.5 72q-50 24 -79 67t-29 94zM299 422q49 0 82.5 23.5t33.5 58.5q0 37 -33.5 60.5t-82.5 23.5t-82.5 -23.5t-33.5 -60.5q0 -35 33.5 -58.5t82.5 -23.5z" />
    <glyph glyph-name="nine" unicode="9" horiz-adv-x="610" 
d="M119 180q50 -68 151 -68q75 0 122.5 57.5t54.5 153.5q-25 -48 -74 -76t-108 -28q-97 0 -164.5 71.5t-67.5 174.5q0 109 75 180.5t188 71.5q78 0 141.5 -35t96.5 -96q43 -78 43 -201q0 -182 -87 -292.5t-228 -110.5q-69 0 -127.5 28t-91.5 77zM437 462q0 52 -42.5 88.5
t-101.5 36.5q-56 0 -93 -34t-37 -86q0 -51 38.5 -84.5t97.5 -33.5t98.5 32.5t39.5 80.5z" />
    <glyph glyph-name="colon" unicode=":" horiz-adv-x="241" 
d="M32 408q0 39 24.5 65t61.5 26q39 0 65.5 -26t26.5 -65q0 -38 -25.5 -63.5t-63.5 -25.5t-63.5 25.5t-25.5 63.5zM32 72q0 39 24.5 65t61.5 26q39 0 65.5 -26t26.5 -65q0 -38 -25.5 -63.5t-63.5 -25.5t-63.5 25.5t-25.5 63.5z" />
    <glyph glyph-name="semicolon" unicode=";" horiz-adv-x="241" 
d="M32 408q0 39 24.5 65t61.5 26q39 0 65.5 -26t26.5 -65q0 -38 -25.5 -63.5t-63.5 -25.5t-63.5 25.5t-25.5 63.5zM72 147l136 -24l-66 -281l-102 18z" />
    <glyph glyph-name="less" unicode="&#x3c;" horiz-adv-x="506" 
d="M473 165v-136l-440 153v171l440 153v-136l-326 -101z" />
    <glyph glyph-name="equal" unicode="=" horiz-adv-x="418" 
d="M392 229v-113h-365v113h365zM392 433v-114h-365v114h365z" />
    <glyph glyph-name="greater" unicode="&#x3e;" horiz-adv-x="506" 
d="M33 370v136l440 -153v-171l-440 -153v136l327 100z" />
    <glyph glyph-name="question" unicode="?" horiz-adv-x="551" 
d="M191 73.5q0 38.5 25 64t63 25.5t64 -26t26 -65q0 -38 -25.5 -63.5t-64 -25.5t-63.5 26t-25 64.5zM511 483q0 99 -66.5 163.5t-167.5 64.5q-87 0 -148 -51t-89 -140l121 -44q30 105 117 105q45 0 74 -27.5t29 -71.5q0 -59 -76 -107l-91 -48l45 -108l100 53
q71 33 111.5 86.5t40.5 124.5z" />
    <glyph glyph-name="at" unicode="@" horiz-adv-x="793" 
d="M461 351q0 31 -20.5 51.5t-51.5 20.5t-51.5 -20.5t-20.5 -51.5t20.5 -51.5t51.5 -20.5t51.5 20.5t20.5 51.5zM493 351q0 -73 -39 -121t-98 -48q-60 0 -101.5 49t-41.5 120t41.5 120t101.5 49q59 0 98 -48t39 -121zM773 373q0 -91 -45 -144.5t-121 -53.5q-59 0 -102.5 29
t-43.5 66v230h104v-183q0 -49 44 -49q29 0 45 25t16 70q0 110 -78.5 185t-193.5 75q-117 0 -196 -78t-79 -196t80 -197.5t203 -79.5q97 0 179 52l46 -84q-102 -65 -229 -65q-108 0 -195.5 49t-137 135t-49.5 191.5t49.5 192t136 135.5t192.5 49q103 0 189.5 -47t136 -128
t49.5 -179z" />
    <glyph glyph-name="A" unicode="A" horiz-adv-x="785" 
d="M198 283h392v-122h-392v122zM178 0h-149l278 700h170l280 -700h-149l-214 566z" />
    <glyph glyph-name="B" unicode="B" horiz-adv-x="654" 
d="M394 572h-211v-159h215q34 0 57 25t23 61q0 32 -23.5 52.5t-60.5 20.5zM398 289h-215v-161h221q36 0 60 21.5t24 53.5q0 37 -26 61.5t-64 24.5zM416 0h-363v700h353q87 0 144.5 -51.5t57.5 -130.5q0 -52 -24 -96t-66 -68q47 -24 73.5 -68.5t26.5 -99.5q0 -79 -58 -132.5
t-144 -53.5z" />
    <glyph glyph-name="C" unicode="C" horiz-adv-x="778" 
d="M33 351q0 104 48 188.5t131.5 132.5t184.5 48q112 0 204 -60.5t139 -165.5l-130 -47q-29 67 -86 105t-128 38q-98 0 -165.5 -68t-67.5 -171t67.5 -171t165.5 -68q73 0 131 40.5t87 111.5l131 -46q-46 -109 -139.5 -172.5t-208.5 -63.5q-101 0 -184.5 48t-131.5 132.5
t-48 188.5z" />
    <glyph glyph-name="D" unicode="D" horiz-adv-x="704" 
d="M329 0h-276v700h276q94 0 172 -44t124 -124.5t46 -180.5q0 -76 -27 -141.5t-73 -111.5t-109 -72t-133 -26zM319 574h-136v-448h136q93 0 158 63t65 162q0 98 -65 160.5t-158 62.5z" />
    <glyph glyph-name="E" unicode="E" horiz-adv-x="579" 
d="M183 415h336v-128h-336v-159h360v-128h-490v700h490v-128h-360v-157z" />
    <glyph glyph-name="F" unicode="F" horiz-adv-x="577" 
d="M183 415h336v-128h-336v-287h-130v700h490v-128h-360v-157z" />
    <glyph glyph-name="G" unicode="G" horiz-adv-x="788" 
d="M163 351q0 -104 67.5 -171.5t163.5 -67.5q83 0 144 47.5t75 123.5h-257v117h396q3 -21 3 -63q0 -101 -48.5 -182.5t-131 -127t-181.5 -45.5q-74 0 -140 27.5t-115 75.5t-77.5 117.5t-28.5 148.5t28.5 148.5t77.5 117.5t115 75.5t140 27.5q105 0 191.5 -53.5t130.5 -146.5
l-116 -60q-29 61 -84 95.5t-122 34.5q-96 0 -163.5 -67.5t-67.5 -171.5z" />
    <glyph glyph-name="H" unicode="H" horiz-adv-x="693" 
d="M53 0v700h130v-285h327v285h130v-700h-130v287h-327v-287h-130z" />
    <glyph glyph-name="I" unicode="I" 
d="M183 0h-130v700h130v-700z" />
    <glyph glyph-name="J" unicode="J" horiz-adv-x="634" 
d="M33 189l121 47q18 -57 56 -87t93 -30q66 0 107.5 41.5t41.5 116.5v423h130v-433q0 -121 -80.5 -199.5t-198.5 -78.5q-99 0 -170 53t-100 147z" />
    <glyph glyph-name="K" unicode="K" horiz-adv-x="659" 
d="M53 0v700h130v-286h31l251 286h168l-308 -351l308 -349h-168l-251 281h-31v-281h-130z" />
    <glyph glyph-name="L" unicode="L" horiz-adv-x="569" 
d="M183 128h360v-128h-490v700h130v-572z" />
    <glyph glyph-name="M" unicode="M" horiz-adv-x="836" 
d="M47 0v700h151l220 -419l220 419h151v-700h-129v489l-199 -382h-85l-200 382v-489h-129z" />
    <glyph glyph-name="N" unicode="N" horiz-adv-x="693" 
d="M53 0v700h150l307 -494v494h130v-700h-150l-307 497v-497h-130z" />
    <glyph glyph-name="O" unicode="O" horiz-adv-x="788" 
d="M163 353q0 -106 67 -173.5t164 -67.5t164 67.5t67 173.5q0 104 -67 170.5t-164 66.5t-164 -66.5t-67 -170.5zM33 353q0 106 49 190.5t131 130.5t181 46t181 -46t131 -130.5t49 -190.5q0 -80 -28.5 -149.5t-77.5 -118t-115 -76t-140 -27.5t-140 27.5t-115 76t-77.5 118
t-28.5 149.5z" />
    <glyph glyph-name="P" unicode="P" horiz-adv-x="637" 
d="M346 572h-163v-232h163q56 0 94 34t38 84q0 49 -37.5 81.5t-94.5 32.5zM346 212h-163v-212h-130v700h303q108 0 180 -69t72 -173q0 -103 -76.5 -174.5t-185.5 -71.5z" />
    <glyph glyph-name="Q" unicode="Q" horiz-adv-x="788" 
d="M163 353q0 -106 67 -173.5t164 -67.5t164 67.5t67 173.5q0 104 -67 170.5t-164 66.5t-164 -66.5t-67 -170.5zM33 353q0 106 49 190.5t131 130.5t181 46t181 -46t131 -130.5t49 -190.5q0 -80 -28.5 -149.5t-77.5 -118t-115 -76t-140 -27.5t-140 27.5t-115 76t-77.5 118
t-28.5 149.5zM673 -30l-335 335l89 95l334 -335z" />
    <glyph glyph-name="R" unicode="R" horiz-adv-x="641" 
d="M352 572h-169v-199h169q51 0 85.5 29t34.5 72q0 42 -34 70t-86 28zM426 260l182 -260h-150l-174 247h-101v-247h-130v700h309q108 0 177 -63t69 -166q0 -82 -51 -140.5t-131 -70.5z" />
    <glyph glyph-name="S" unicode="S" horiz-adv-x="587" 
d="M284 286q-118 21 -180.5 77.5t-62.5 141.5q0 91 67 149.5t170 58.5q91 0 164 -47t105 -126l-125 -46q-19 44 -56.5 69.5t-83.5 25.5q-47 0 -76.5 -23t-29.5 -59q0 -34 31 -55t101 -34q117 -22 181.5 -80.5t64.5 -142.5q0 -90 -69.5 -148t-177.5 -58q-91 0 -166 45.5
t-108 122.5l126 60q19 -49 58 -76.5t87 -27.5q50 0 82 24t32 60q0 34 -32.5 55.5t-101.5 33.5z" />
    <glyph glyph-name="T" unicode="T" horiz-adv-x="607" 
d="M582 700v-128h-213v-572h-130v572h-214v128h557z" />
    <glyph glyph-name="U" unicode="U" horiz-adv-x="690" 
d="M345 -11q-124 0 -208 82.5t-84 208.5v420h130v-410q0 -80 45.5 -125.5t116.5 -45.5t116.5 45.5t45.5 125.5v410h130v-420q0 -126 -84 -208.5t-208 -82.5z" />
    <glyph glyph-name="V" unicode="V" horiz-adv-x="785" 
d="M608 700h149l-275 -700h-177l-276 700h149l214 -553z" />
    <glyph glyph-name="W" unicode="W" horiz-adv-x="1042" 
d="M871 700h143l-171 -700h-188l-134 511l-121 -511h-188l-183 700h142l140 -544l138 544h145l147 -544z" />
    <glyph glyph-name="X" unicode="X" horiz-adv-x="714" 
d="M688 0h-157l-173 276l-173 -276h-158l223 348l-223 352h158l173 -280l173 280h157l-222 -352z" />
    <glyph glyph-name="Y" unicode="Y" horiz-adv-x="683" 
d="M287 0h130v227l241 473h-152l-154 -316l-173 316h-153l261 -473v-227z" />
    <glyph glyph-name="Z" unicode="Z" horiz-adv-x="628" 
d="M588 0v127h-395l395 423v150h-548v-127h395l-395 -417v-156h548z" />
    <glyph glyph-name="bracketleft" unicode="[" horiz-adv-x="346" 
d="M183 74h130v-121h-260v804h260v-128h-130v-555z" />
    <glyph glyph-name="backslash" unicode="\" horiz-adv-x="465" 
d="M294 0l-267 700h144l267 -700h-144z" />
    <glyph glyph-name="bracketright" unicode="]" horiz-adv-x="346" 
d="M163 636h-130v121h260v-804h-260v128h130v555z" />
    <glyph glyph-name="asciicircum" unicode="^" horiz-adv-x="467" 
d="M217 750l-187 -135l54 -77l150 109l150 -109l54 77l-187 135h-34z" />
    <glyph glyph-name="underscore" unicode="_" horiz-adv-x="468" 
d="M442 83v-100h-415v100h415z" />
    <glyph glyph-name="grave" unicode="`" horiz-adv-x="298" 
d="M31 653l61 79l176 -146l-57 -74z" />
    <glyph glyph-name="a" unicode="a" horiz-adv-x="520" 
d="M337 208l-110 -14q-64 -8 -64 -47q0 -21 17.5 -32.5t49.5 -11.5q48 0 77.5 25t29.5 66h35q0 -88 -52 -146.5t-131 -58.5q-68 0 -112 41.5t-44 106t44 107t120 52.5l140 17v7q0 30 -26.5 51.5t-63.5 21.5q-34 0 -60 -17.5t-34 -45.5l-124 40q21 63 80 102t133 39
q91 0 158 -55t67 -130v-326h-130v208z" />
    <glyph glyph-name="b" unicode="b" horiz-adv-x="638" 
d="M53 0v750h130v-750h-130zM183 251q0 -63 42 -104.5t104 -41.5t104 41.5t42 104.5t-42 104.5t-104 41.5t-104 -41.5t-42 -104.5zM137 251q0 116 66 192.5t164 76.5q100 0 169 -77t69 -192t-69 -192t-169 -77q-98 0 -164 76.5t-66 192.5z" />
    <glyph glyph-name="c" unicode="c" horiz-adv-x="590" 
d="M163 251q0 -64 41 -105t100 -41q44 0 79 21.5t53 59.5l119 -56q-34 -68 -101.5 -108t-149.5 -40q-113 0 -192 76t-79 193t79 193t192 76q84 0 152 -41t101 -112l-119 -56q-17 40 -53 63t-81 23q-59 0 -100 -41t-41 -105z" />
    <glyph glyph-name="d" unicode="d" horiz-adv-x="638" 
d="M585 0h-130v750h130v-750zM455 251q0 63 -42 104.5t-104 41.5t-104 -41.5t-42 -104.5t42 -104.5t104 -41.5t104 41.5t42 104.5zM501 251q0 -116 -66 -192.5t-164 -76.5q-100 0 -169 77t-69 192t69 192t169 77q98 0 164 -76.5t66 -192.5z" />
    <glyph glyph-name="e" unicode="e" horiz-adv-x="594" 
d="M428 306q-8 44 -44.5 69t-85.5 25q-48 0 -82.5 -24.5t-44.5 -69.5h257zM171 197q10 -45 45.5 -70t83.5 -25q38 0 69.5 16t46.5 44l119 -45q-32 -62 -95 -98.5t-139 -36.5q-114 0 -191 77t-77 193q0 115 75 191.5t186 76.5t189 -77t78 -191q0 -23 -7 -55h-383z" />
    <glyph glyph-name="f" unicode="f" horiz-adv-x="435" 
d="M333 629q-36 0 -57 -22t-21 -59v-48h154v-120h-154v-380h-130v380h-98v120h98v78q0 73 54.5 122.5t134.5 49.5h75v-121h-56z" />
    <glyph glyph-name="g" unicode="g" horiz-adv-x="598" 
d="M468 271q0 -105 -61 -174.5t-151 -69.5q-94 0 -158.5 70t-64.5 174t65 175.5t159 71.5q89 0 150 -71t61 -176zM415 269q0 52 -36.5 85.5t-89.5 33.5t-89.5 -33.5t-36.5 -85.5t36.5 -85.5t89.5 -33.5t89.5 33.5t36.5 85.5zM415 7v493h130v-493q0 -106 -70.5 -171
t-182.5 -65q-84 0 -151 39t-101 107l111 74q19 -41 55 -64t80 -23q55 0 92 29t37 74z" />
    <glyph glyph-name="h" unicode="h" horiz-adv-x="567" 
d="M53 0v750h130v-750h-130zM385 0v283q0 49 -27 77t-70 28t-74 -31t-31 -74h-51q0 96 56.5 162t141.5 66q79 0 132 -53.5t53 -144.5v-313h-130z" />
    <glyph glyph-name="i" unicode="i" horiz-adv-x="231" 
d="M37 644.5q0 33.5 22.5 56t56 22.5t56 -22.5t22.5 -56t-22.5 -56.5t-56 -23t-56 23t-22.5 56.5zM51 0v500h129v-500h-129z" />
    <glyph glyph-name="j" unicode="j" horiz-adv-x="231" 
d="M37 644.5q0 33.5 22.5 56t56 22.5t56 -22.5t22.5 -56t-22.5 -56.5t-56 -23t-56 23t-22.5 56.5zM-21 -82q34 0 53 24.5t19 62.5v495h129v-536q0 -70 -49.5 -122t-127.5 -52h-49v128h25z" />
    <glyph glyph-name="k" unicode="k" horiz-adv-x="562" 
d="M53 0v750h130v-435h27l162 185h166l-216 -250l216 -250h-166l-162 182h-27v-182h-130z" />
    <glyph glyph-name="l" unicode="l" 
d="M53 0v750h130v-750h-130z" />
    <glyph glyph-name="m" unicode="m" horiz-adv-x="832" 
d="M650 0v296q0 43 -22.5 67.5t-57.5 24.5q-37 0 -62.5 -27t-25.5 -65h-51q0 92 51.5 153.5t129.5 61.5q72 0 120 -50t48 -135v-326h-130zM53 0v500h130v-500h-130zM351 0v296q0 43 -22.5 67.5t-57.5 24.5q-36 0 -62 -27t-26 -65h-51q0 92 52 153.5t129 61.5q73 0 120.5 -50
t47.5 -135v-326h-130z" />
    <glyph glyph-name="n" unicode="n" horiz-adv-x="567" 
d="M53 0v500h130v-500h-130zM385 0v283q0 49 -27 77t-70 28t-74 -31t-31 -74h-51q0 96 56.5 162t141.5 66q79 0 132 -53.5t53 -144.5v-313h-130z" />
    <glyph glyph-name="o" unicode="o" horiz-adv-x="618" 
d="M163 251q0 -64 42.5 -105t103.5 -41t103.5 41t42.5 105t-42.5 105t-103.5 41t-103.5 -41t-42.5 -105zM33 251q0 117 80 193t196 76t196 -76t80 -193t-80 -193t-196 -76t-196 76t-80 193z" />
    <glyph glyph-name="p" unicode="p" horiz-adv-x="638" 
d="M53 500h130v-700h-130v700zM183 250q0 -63 42 -104.5t104 -41.5t104 41.5t42 104.5t-42 104.5t-104 41.5t-104 -41.5t-42 -104.5zM137 250q0 116 66 192.5t164 76.5q100 0 169 -77t69 -192t-69 -192t-169 -77q-98 0 -164 76.5t-66 192.5z" />
    <glyph glyph-name="q" unicode="q" horiz-adv-x="638" 
d="M585 500v-700h-130v700h130zM455 250q0 63 -42 104.5t-104 41.5t-104 -41.5t-42 -104.5t42 -104.5t104 -41.5t104 41.5t42 104.5zM501 250q0 -116 -66 -192.5t-164 -76.5q-100 0 -169 77t-69 192t69 192t169 77q98 0 164 -76.5t66 -192.5z" />
    <glyph glyph-name="r" unicode="r" horiz-adv-x="373" 
d="M53 0v500h130v-500h-130zM325 378q-59 0 -100.5 -32.5t-41.5 -79.5h-51q0 103 54.5 172.5t134.5 69.5h28v-130h-24z" />
    <glyph glyph-name="s" unicode="s" horiz-adv-x="487" 
d="M237 193q-194 27 -194 157q0 71 52.5 117t134.5 46q71 0 129.5 -37t84.5 -98l-126 -38q-11 28 -34 44t-51 16q-27 0 -44 -12.5t-17 -32t21 -31.5t67 -19q93 -12 143.5 -53.5t50.5 -104.5q0 -69 -55.5 -113.5t-139.5 -44.5q-76 0 -137.5 36t-88.5 97l125 40q13 -31 39 -49
t59 -18q29 0 48.5 13.5t19.5 33.5t-20.5 32t-66.5 19z" />
    <glyph glyph-name="t" unicode="t" horiz-adv-x="415" 
d="M316 121h73v-121h-92q-85 0 -133.5 42t-48.5 116v222h-88v120h88v139l130 28v-167h144v-120h-144v-192q0 -31 18.5 -49t52.5 -18z" />
    <glyph glyph-name="u" unicode="u" horiz-adv-x="547" 
d="M495 500v-500h-130v500h130zM183 500v-296q0 -43 24.5 -67.5t62.5 -24.5q40 0 67.5 25t27.5 60h51q0 -88 -54 -148t-134 -60q-75 0 -125 50t-50 135v326h130z" />
    <glyph glyph-name="v" unicode="v" horiz-adv-x="593" 
d="M429 500h136l-183 -500h-170l-183 500h135l131 -384z" />
    <glyph glyph-name="w" unicode="w" horiz-adv-x="886" 
d="M722 500h136l-141 -500h-175l-99 332l-92 -332h-175l-147 500h135l104 -377l109 377h132l112 -377z" />
    <glyph glyph-name="x" unicode="x" horiz-adv-x="576" 
d="M550 0h-151l-111 178l-110 -178h-151l166 250l-166 250h151l110 -178l111 178h151l-167 -250z" />
    <glyph glyph-name="y" unicode="y" horiz-adv-x="593" 
d="M426 500l-129 -347l-130 347h-138l194 -487l-79 -213h138l283 700h-139z" />
    <glyph glyph-name="z" unicode="z" horiz-adv-x="488" 
d="M455 0v114h-276l276 251v135h-422v-114h256l-256 -251v-135h422z" />
    <glyph glyph-name="braceleft" unicode="{" horiz-adv-x="372" 
d="M87 506q0 95 57 164.5t148 93.5l44 -126q-56 -15 -91 -63t-35 -116q0 -85 -60 -103q32 -9 46 -31t14 -65q0 -71 38.5 -120.5t97.5 -61.5l-43 -126q-95 20 -155.5 89t-60.5 165q0 87 -77 87v127q38 0 57.5 24t19.5 62z" />
    <glyph glyph-name="bar" unicode="|" 
d="M53 -200v1000h130v-1000h-130z" />
    <glyph glyph-name="braceright" unicode="}" horiz-adv-x="372" 
d="M286 210q0 -95 -57 -164.5t-148 -93.5l-44 126q55 15 90.5 63t35.5 116q0 85 60 103q-32 9 -46 31t-14 65q0 71 -38.5 120.5t-97.5 61.5l43 126q94 -20 155 -89t61 -165q0 -87 76 -87v-127q-37 0 -56.5 -24t-19.5 -62z" />
    <glyph glyph-name="asciitilde" unicode="~" horiz-adv-x="477" 
d="M162 365q-51 0 -82 -36t-40 -101l84 -18q11 65 45 65q19 0 47 -25q55 -46 101 -46q50 0 80.5 36t39.5 101l-84 18q-11 -62 -49 -62q-22 0 -48 24q-28 24 -48.5 34t-45.5 10z" />
    <glyph glyph-name="exclamdown" unicode="&#xa1;" horiz-adv-x="235" 
d="M62 363h116l14 -474h-143zM206 517q0 -39 -24.5 -65t-61.5 -26q-39 0 -65 26t-26 65q0 38 25 63.5t63.5 25.5t63.5 -25.5t25 -63.5z" />
    <glyph glyph-name="cent" unicode="&#xa2;" horiz-adv-x="590" 
d="M245 596v104h117v-104h-117zM245 118h117v-118h-117v118zM163 360q0 -64 41 -105t100 -41q44 0 79 21t53 59l119 -55q-34 -69 -101.5 -108.5t-149.5 -39.5q-113 0 -192 76t-79 192.5t79 193t192 76.5q84 0 152 -41.5t101 -111.5l-119 -56q-17 40 -53 63t-81 23
q-59 0 -100 -41t-41 -105z" />
    <glyph glyph-name="sterling" unicode="&#xa3;" horiz-adv-x="606" 
d="M580 127v-127h-553v127h103v149h-83v127h83v96q0 97 66 160.5t164 63.5q80 0 138 -41t82 -114l-125 -44q-23 69 -95 69q-44 0 -72 -27.5t-28 -76.5v-86h202v-127h-202v-149h320z" />
    <glyph glyph-name="currency" unicode="&#xa4;" horiz-adv-x="395" 
d="M28 397l51 51l37 -39q36 26 82 26q44 0 81 -25l38 39l52 -53l-38 -38q25 -34 25 -81q0 -46 -26 -82l39 -38l-51 -51l-37 39q-37 -26 -82.5 -26t-80.5 25l-38 -38l-53 52l39 39q-25 33 -25 80q0 46 26 82zM129 277q0 -30 20 -49.5t49.5 -19.5t49 19.5t19.5 49.5
t-19.5 49.5t-49 19.5t-49.5 -19.5t-20 -49.5z" />
    <glyph glyph-name="yen" unicode="&#xa5;" horiz-adv-x="639" 
d="M509 161h-365v-87h365v87zM509 295h-365v-87h365v87zM263 0h129v331l222 369h-152l-134 -237l-149 237h-153l237 -369v-331z" />
    <glyph glyph-name="brokenbar" unicode="&#xa6;" 
d="M183 399h-130v401h130v-401zM183 221v-421h-130v421h130z" />
    <glyph glyph-name="section" unicode="&#xa7;" horiz-adv-x="473" 
d="M253 302q-47 7 -68.5 20t-21.5 34q0 17 16.5 29t41.5 14q47 -7 68.5 -20t21.5 -34q0 -17 -16 -28.5t-42 -14.5zM124 427q-43 -15 -67 -43t-24 -63q0 -104 185 -130q49 -7 71 -19.5t22 -32.5q0 -19 -18 -31.5t-44 -12.5q-30 0 -54 17.5t-36 47.5l-126 -38q27 -61 86 -97
t133 -36q83 0 136 43.5t53 111.5q0 85 -90 129q42 15 66 42t24 62q0 102 -187 133q-49 9 -70 20.5t-21 31.5q0 19 18 31.5t44 12.5q30 0 54 -17.5t36 -47.5l126 38q-27 61 -86 97t-133 36q-83 0 -136 -43.5t-53 -111.5q0 -86 91 -130z" />
    <glyph glyph-name="dieresis" unicode="&#xa8;" horiz-adv-x="468" 
d="M279 623q0 33 22.5 56t56 23t56 -23t22.5 -56t-22.5 -56t-56 -23t-56 23t-22.5 56zM32 623q0 33 22.5 56t56 23t56.5 -23t23 -56t-23 -56t-56.5 -23t-56 23t-22.5 56z" />
    <glyph glyph-name="copyright" unicode="&#xa9;" horiz-adv-x="788" 
d="M312 351q0 -37 23.5 -61t57.5 -24q26 0 46 14.5t31 40.5l77 -31q-21 -50 -62 -79t-91 -29q-69 0 -116.5 48t-47.5 121t47.5 121t116.5 48q51 0 93 -28t62 -75l-78 -32q-10 24 -31 37.5t-47 13.5q-34 0 -57.5 -24t-23.5 -61zM129 353q0 -123 77 -202t188 -79t188 79
t77 202q0 121 -77 199t-188 78t-188 -78t-77 -199zM40 353q0 160 102.5 263.5t251.5 103.5t251.5 -103.5t102.5 -263.5q0 -161 -102.5 -266t-251.5 -105t-251.5 105t-102.5 266z" />
    <glyph glyph-name="ordfeminine" unicode="&#xaa;" horiz-adv-x="358" 
d="M235 700h83v-278h-83v278zM328 350v-87h-298v87h298zM113 561q0 -28 18 -47t45 -19q25 0 42 19t17 47t-17 47t-42 19q-27 0 -45 -19t-18 -47zM30 561q0 62 35 105.5t85 43.5q53 0 87 -42t34 -107t-34 -107t-87 -42q-50 0 -85 43.5t-35 105.5z" />
    <glyph glyph-name="guillemotleft" unicode="&#xab;" horiz-adv-x="593" 
d="M560 187v-145l-250 140v171l250 139v-144l-147 -79zM283 187v-145l-250 140v171l250 139v-144l-146 -79z" />
    <glyph glyph-name="logicalnot" unicode="&#xac;" horiz-adv-x="478" 
d="M452 367v-217h-123v103h-302v114h425z" />
    <glyph glyph-name="uni00AD" unicode="&#xad;" horiz-adv-x="361" 
d="M335 323v-113h-308v113h308z" />
    <glyph glyph-name="registered" unicode="&#xae;" horiz-adv-x="788" 
d="M425 438h-108v-78h108q19 0 32.5 12t13.5 30q0 16 -13 26t-33 10zM448 296l100 -108h-97l-96 102h-38v-102h-77v325h202q46 0 76 -32t30 -80q0 -38 -29 -68.5t-71 -36.5zM129 353q0 -123 77 -202t188 -79t188 79t77 202q0 121 -77 199t-188 78t-188 -78t-77 -199zM40 353
q0 160 102.5 263.5t251.5 103.5t251.5 -103.5t102.5 -263.5q0 -161 -102.5 -266t-251.5 -105t-251.5 105t-102.5 266z" />
    <glyph glyph-name="macron" unicode="&#xaf;" horiz-adv-x="385" 
d="M359 700v-100h-332v100h332z" />
    <glyph glyph-name="degree" unicode="&#xb0;" horiz-adv-x="444" 
d="M143 514.5q0 -34.5 23 -57t56 -22.5t56 22.5t23 57t-23 57t-56 22.5t-56 -22.5t-23 -57zM27 514.5q0 84.5 56.5 140t138.5 55.5t139 -55.5t57 -140t-57 -140t-139 -55.5t-138.5 55.5t-56.5 140z" />
    <glyph glyph-name="plusminus" unicode="&#xb1;" horiz-adv-x="418" 
d="M392 43v-113h-365v113h365zM152 476h115v-126h125v-114h-125v-126h-115v126h-125v114h125v126z" />
    <glyph glyph-name="uni00B2" unicode="&#xb2;" horiz-adv-x="337" 
d="M309 717q0 56 -40.5 92.5t-98.5 36.5q-55 0 -90.5 -30t-51.5 -78l96 -33q11 38 41 38q14 0 24 -10t10 -25q0 -12 -13 -24.5t-26 -20t-35 -18.5l-95 -48v-118h280v99h-149l41 21q107 51 107 118z" />
    <glyph glyph-name="uni00B3" unicode="&#xb3;" horiz-adv-x="351" 
d="M224 682l92 49v111h-272v-92h173l-74 -47l24 -66q46 0 46 -32q0 -13 -10 -21t-26 -8q-34 0 -41 37l-108 -19q15 -56 56 -88.5t99 -32.5q61 0 100.5 32t39.5 81q0 42 -27.5 68.5t-71.5 27.5z" />
    <glyph glyph-name="acute" unicode="&#xb4;" horiz-adv-x="291" 
d="M264 672l-60 78l-176 -146l56 -74z" />
    <glyph glyph-name="mu" unicode="&#xb5;" horiz-adv-x="597" 
d="M544 500v-500h-129v500h129zM53 500h130v-700h-130v700zM461 237q0 -106 -46 -177t-114 -71q-70 0 -119.5 72.5t-49.5 175.5h51q0 -52 35.5 -88.5t86.5 -36.5q49 0 79.5 34.5t30.5 90.5h46z" />
    <glyph glyph-name="paragraph" unicode="&#xb6;" horiz-adv-x="609" 
d="M556 0h-83v700h83v-700zM262 332q-88 0 -148.5 54.5t-60.5 134.5q0 76 57 127.5t142 51.5h157v-700h-130v332h-17z" />
    <glyph glyph-name="periodcentered" unicode="&#xb7;" horiz-adv-x="241" 
d="M35 366q0 38 24 63t59 25q38 0 63 -25t25 -63q0 -36 -24 -60.5t-61 -24.5t-61.5 24.5t-24.5 60.5z" />
    <glyph glyph-name="cedilla" unicode="&#xb8;" horiz-adv-x="350" 
d="M157 -75q28 32 66 32q41 0 69.5 -37t28.5 -89q0 -60 -40.5 -99t-104.5 -39q-54 0 -94.5 28t-54.5 75l97 35q4 -18 17.5 -28t32.5 -10q20 0 32 11.5t12 29.5q0 17 -9 28t-22 11q-17 0 -30 -16l-100 33v132h100v-97z" />
    <glyph glyph-name="uni00B9" unicode="&#xb9;" horiz-adv-x="269" 
d="M241 841v-361h-103v243l-53 -42l-57 74l108 86h105z" />
    <glyph glyph-name="ordmasculine" unicode="&#xba;" horiz-adv-x="358" 
d="M328 350v-87h-298v87h298zM113 561q0 -29 19.5 -47.5t46.5 -18.5t46.5 18.5t19.5 47.5t-19.5 47.5t-46.5 18.5t-46.5 -18.5t-19.5 -47.5zM30 561q0 65 43 107t106 42t106 -42t43 -107t-43 -107t-106 -42t-106 42t-43 107z" />
    <glyph glyph-name="guillemotright" unicode="&#xbb;" horiz-adv-x="593" 
d="M33 348v144l250 -139v-171l-250 -140v145l147 78zM310 348v144l250 -139v-171l-250 -140v145l147 78z" />
    <glyph glyph-name="onequarter" unicode="&#xbc;" horiz-adv-x="818" 
d="M571 146h60v85zM734 353v-207h43v-86h-43v-69h-103v69h-160v99l147 194h116zM303 0h-144l287 700h144zM241 691v-361h-103v243l-53 -42l-57 74l108 86h105z" />
    <glyph glyph-name="onehalf" unicode="&#xbd;" horiz-adv-x="793" 
d="M752 228q0 56 -40.5 92.5t-98.5 36.5q-55 0 -90.5 -30t-51.5 -77l96 -34q11 38 41 38q14 0 24 -9.5t10 -25.5q0 -12 -13 -24t-26 -19.5t-35 -18.5l-95 -48v-119h280v100h-149l41 21q107 50 107 117zM303 0h-144l287 700h144zM241 691v-361h-103v243l-53 -42l-57 74
l108 86h105z" />
    <glyph glyph-name="threequarters" unicode="&#xbe;" horiz-adv-x="876" 
d="M629 146h60v85zM792 353v-207h43v-86h-43v-69h-103v69h-160v99l147 194h116zM361 0h-144l287 700h144zM224 532l92 49v111h-272v-92h173l-74 -47l24 -66q46 0 46 -32q0 -13 -10 -21t-26 -8q-34 0 -41 37l-108 -19q15 -56 56 -88.5t99 -32.5q61 0 100.5 32t39.5 81
q0 42 -27.5 68.5t-71.5 27.5z" />
    <glyph glyph-name="questiondown" unicode="&#xbf;" horiz-adv-x="551" 
d="M360 516.5q0 -38.5 -25 -64t-63 -25.5t-64 26t-26 65q0 38 25.5 63.5t64 25.5t63.5 -26t25 -64.5zM40 107q0 -99 66.5 -163.5t167.5 -64.5q87 0 148 51t89 140l-121 44q-30 -105 -117 -105q-45 0 -74 27.5t-29 71.5q0 64 76 106l91 49l-45 108l-100 -53
q-71 -32 -111.5 -86t-40.5 -125z" />
    <glyph glyph-name="Agrave" unicode="&#xc0;" horiz-adv-x="785" 
d="M235 932l87 78l163 -159l-84 -74zM198 283h392v-122h-392v122zM178 0h-149l278 700h170l280 -700h-149l-214 566z" />
    <glyph glyph-name="Aacute" unicode="&#xc1;" horiz-adv-x="785" 
d="M545 932l-87 85l-156 -166l70 -74zM198 283h392v-122h-392v122zM178 0h-149l278 700h170l280 -700h-149l-214 566z" />
    <glyph glyph-name="Acircumflex" unicode="&#xc2;" horiz-adv-x="785" 
d="M377 982l-174 -135l55 -77l136 109l136 -109l55 77l-174 135h-34zM198 283h392v-122h-392v122zM178 0h-149l278 700h170l280 -700h-149l-214 566z" />
    <glyph glyph-name="Atilde" unicode="&#xc3;" horiz-adv-x="785" 
d="M318 938q-52 0 -82.5 -36t-40.5 -101l84 -18q11 66 45 66q19 0 47 -26q55 -46 101 -46q50 0 81 36t40 101l-84 18q-12 -63 -49 -63q-23 0 -49 25q-28 24 -48.5 34t-44.5 10zM198 283h392v-122h-392v122zM178 0h-149l278 700h170l280 -700h-149l-214 566z" />
    <glyph glyph-name="Adieresis" unicode="&#xc4;" horiz-adv-x="785" 
d="M431 855.5q0 33.5 22.5 56.5t56 23t56 -23t22.5 -56.5t-22.5 -56t-56 -22.5t-56 22.5t-22.5 56zM197.5 855.5q0.5 33.5 23 56.5t56 23t56 -23t22.5 -56.5t-22.5 -56t-56 -22.5t-56.5 22.5t-22.5 56zM198 283h392v-122h-392v122zM178 0h-149l278 700h170l280 -700h-149
l-214 566z" />
    <glyph glyph-name="Aring" unicode="&#xc5;" horiz-adv-x="785" 
d="M344 912q0 -22 14.5 -36t35.5 -14t35.5 14t14.5 36t-14.5 36t-35.5 14t-35.5 -14t-14.5 -36zM259 912.5q0 58.5 39 96.5t96 38t96 -38t39 -96.5t-39 -97t-96 -38.5t-96 38.5t-39 97zM198 283h392v-122h-392v122zM178 0h-149l278 700h170l280 -700h-149l-214 566z" />
    <glyph glyph-name="AE" unicode="&#xc6;" horiz-adv-x="1013" 
d="M620 415h336v-128h-336v-159h360v-128h-489v700h489v-128h-360v-157zM234 301h282v-128h-282v128zM170 0h-144l361 700h104v-134h-23z" />
    <glyph glyph-name="Ccedilla" unicode="&#xc7;" horiz-adv-x="778" 
d="M433 -75q28 32 66 32q41 0 69.5 -37t28.5 -89q0 -61 -40 -99.5t-105 -38.5q-53 0 -93.5 28t-55.5 75l98 36q4 -19 17 -29t33 -10t32 11.5t12 29.5q0 17 -9 28t-23 11q-17 0 -30 -15l-100 32v132h100v-97zM33 351q0 104 48 188.5t131.5 132.5t184.5 48q112 0 204 -60.5
t139 -165.5l-130 -47q-29 67 -86 105t-128 38q-98 0 -165.5 -68t-67.5 -171t67.5 -171t165.5 -68q73 0 131 40.5t87 111.5l131 -46q-46 -109 -139.5 -172.5t-208.5 -63.5q-101 0 -184.5 48t-131.5 132.5t-48 188.5z" />
    <glyph glyph-name="Egrave" unicode="&#xc8;" horiz-adv-x="579" 
d="M146 932l87 78l163 -159l-84 -74zM183 415h336v-128h-336v-159h360v-128h-490v700h490v-128h-360v-157z" />
    <glyph glyph-name="Eacute" unicode="&#xc9;" horiz-adv-x="579" 
d="M456 932l-87 85l-156 -166l70 -74zM183 415h336v-128h-336v-159h360v-128h-490v700h490v-128h-360v-157z" />
    <glyph glyph-name="Ecircumflex" unicode="&#xca;" horiz-adv-x="579" 
d="M288 982l-174 -135l55 -77l136 109l136 -109l55 77l-174 135h-34zM183 415h336v-128h-336v-159h360v-128h-490v700h490v-128h-360v-157z" />
    <glyph glyph-name="Edieresis" unicode="&#xcb;" horiz-adv-x="579" 
d="M342 855.5q0 33.5 22.5 56.5t56 23t56 -23t22.5 -56.5t-22.5 -56t-56 -22.5t-56 22.5t-22.5 56zM108.5 855.5q0.5 33.5 23 56.5t56 23t56 -23t22.5 -56.5t-22.5 -56t-56 -22.5t-56.5 22.5t-22.5 56zM183 415h336v-128h-336v-159h360v-128h-490v700h490v-128h-360v-157z
" />
    <glyph glyph-name="Igrave" unicode="&#xcc;" 
d="M-41 932l87 78l163 -159l-84 -74zM183 0h-130v700h130v-700z" />
    <glyph glyph-name="Iacute" unicode="&#xcd;" 
d="M269 932l-87 85l-156 -166l70 -74zM183 0h-130v700h130v-700z" />
    <glyph glyph-name="Icircumflex" unicode="&#xce;" 
d="M101 982l-174 -135l55 -77l136 109l136 -109l55 77l-174 135h-34zM183 0h-130v700h130v-700z" />
    <glyph glyph-name="Idieresis" unicode="&#xcf;" 
d="M155 855.5q0 33.5 22.5 56.5t56 23t56 -23t22.5 -56.5t-22.5 -56t-56 -22.5t-56 22.5t-22.5 56zM-78.5 855.5q0.5 33.5 23 56.5t56 23t56 -23t22.5 -56.5t-22.5 -56t-56 -22.5t-56.5 22.5t-22.5 56zM183 0h-130v700h130v-700z" />
    <glyph glyph-name="Eth" unicode="&#xd0;" horiz-adv-x="711" 
d="M349 415v-113h-349v113h349zM336 0h-269v700h269q93 0 171 -44t124.5 -124.5t46.5 -180.5q0 -76 -27 -141.5t-73.5 -111.5t-109 -72t-132.5 -26zM326 574h-130v-448h130q93 0 157.5 63t64.5 162q0 98 -64.5 160.5t-157.5 62.5z" />
    <glyph glyph-name="Ntilde" unicode="&#xd1;" horiz-adv-x="693" 
d="M276 938q-52 0 -82.5 -36t-40.5 -101l84 -18q11 66 45 66q19 0 47 -26q55 -46 101 -46q50 0 81 36t40 101l-84 18q-12 -63 -49 -63q-23 0 -49 25q-28 24 -48.5 34t-44.5 10zM53 0v700h150l307 -494v494h130v-700h-150l-307 497v-497h-130z" />
    <glyph glyph-name="Ograve" unicode="&#xd2;" horiz-adv-x="788" 
d="M235 932l87 78l163 -159l-84 -74zM163 353q0 -106 67 -173.5t164 -67.5t164 67.5t67 173.5q0 104 -67 170.5t-164 66.5t-164 -66.5t-67 -170.5zM33 353q0 106 49 190.5t131 130.5t181 46t181 -46t131 -130.5t49 -190.5q0 -80 -28.5 -149.5t-77.5 -118t-115 -76
t-140 -27.5t-140 27.5t-115 76t-77.5 118t-28.5 149.5z" />
    <glyph glyph-name="Oacute" unicode="&#xd3;" horiz-adv-x="788" 
d="M545 932l-87 85l-156 -166l70 -74zM163 353q0 -106 67 -173.5t164 -67.5t164 67.5t67 173.5q0 104 -67 170.5t-164 66.5t-164 -66.5t-67 -170.5zM33 353q0 106 49 190.5t131 130.5t181 46t181 -46t131 -130.5t49 -190.5q0 -80 -28.5 -149.5t-77.5 -118t-115 -76
t-140 -27.5t-140 27.5t-115 76t-77.5 118t-28.5 149.5z" />
    <glyph glyph-name="Ocircumflex" unicode="&#xd4;" horiz-adv-x="788" 
d="M377 982l-174 -135l55 -77l136 109l136 -109l55 77l-174 135h-34zM163 353q0 -106 67 -173.5t164 -67.5t164 67.5t67 173.5q0 104 -67 170.5t-164 66.5t-164 -66.5t-67 -170.5zM33 353q0 106 49 190.5t131 130.5t181 46t181 -46t131 -130.5t49 -190.5q0 -80 -28.5 -149.5
t-77.5 -118t-115 -76t-140 -27.5t-140 27.5t-115 76t-77.5 118t-28.5 149.5z" />
    <glyph glyph-name="Otilde" unicode="&#xd5;" horiz-adv-x="788" 
d="M318 938q-52 0 -82.5 -36t-40.5 -101l84 -18q11 66 45 66q19 0 47 -26q55 -46 101 -46q50 0 81 36t40 101l-84 18q-12 -63 -49 -63q-23 0 -49 25q-28 24 -48.5 34t-44.5 10zM163 353q0 -106 67 -173.5t164 -67.5t164 67.5t67 173.5q0 104 -67 170.5t-164 66.5t-164 -66.5
t-67 -170.5zM33 353q0 106 49 190.5t131 130.5t181 46t181 -46t131 -130.5t49 -190.5q0 -80 -28.5 -149.5t-77.5 -118t-115 -76t-140 -27.5t-140 27.5t-115 76t-77.5 118t-28.5 149.5z" />
    <glyph glyph-name="Odieresis" unicode="&#xd6;" horiz-adv-x="788" 
d="M431 855.5q0 33.5 22.5 56.5t56 23t56 -23t22.5 -56.5t-22.5 -56t-56 -22.5t-56 22.5t-22.5 56zM197.5 855.5q0.5 33.5 23 56.5t56 23t56 -23t22.5 -56.5t-22.5 -56t-56 -22.5t-56.5 22.5t-22.5 56zM163 353q0 -106 67 -173.5t164 -67.5t164 67.5t67 173.5
q0 104 -67 170.5t-164 66.5t-164 -66.5t-67 -170.5zM33 353q0 106 49 190.5t131 130.5t181 46t181 -46t131 -130.5t49 -190.5q0 -80 -28.5 -149.5t-77.5 -118t-115 -76t-140 -27.5t-140 27.5t-115 76t-77.5 118t-28.5 149.5z" />
    <glyph glyph-name="multiply" unicode="&#xd7;" horiz-adv-x="418" 
d="M38 357l81 82l91 -93l90 92l80 -80l-91 -91l92 -91l-81 -81l-91 93l-91 -93l-80 80l92 91z" />
    <glyph glyph-name="Oslash" unicode="&#xd8;" horiz-adv-x="788" 
d="M763 618l-637 -637l-101 101l637 637zM163 353q0 -106 67 -173.5t164 -67.5t164 67.5t67 173.5q0 104 -67 170.5t-164 66.5t-164 -66.5t-67 -170.5zM33 353q0 106 49 190.5t131 130.5t181 46t181 -46t131 -130.5t49 -190.5q0 -80 -28.5 -149.5t-77.5 -118t-115 -76
t-140 -27.5t-140 27.5t-115 76t-77.5 118t-28.5 149.5z" />
    <glyph glyph-name="Ugrave" unicode="&#xd9;" horiz-adv-x="690" 
d="M186 932l87 78l163 -159l-84 -74zM345 -11q-124 0 -208 82.5t-84 208.5v420h130v-410q0 -80 45.5 -125.5t116.5 -45.5t116.5 45.5t45.5 125.5v410h130v-420q0 -126 -84 -208.5t-208 -82.5z" />
    <glyph glyph-name="Uacute" unicode="&#xda;" horiz-adv-x="690" 
d="M496 932l-87 85l-156 -166l70 -74zM345 -11q-124 0 -208 82.5t-84 208.5v420h130v-410q0 -80 45.5 -125.5t116.5 -45.5t116.5 45.5t45.5 125.5v410h130v-420q0 -126 -84 -208.5t-208 -82.5z" />
    <glyph glyph-name="Ucircumflex" unicode="&#xdb;" horiz-adv-x="690" 
d="M328 982l-174 -135l55 -77l136 109l136 -109l55 77l-174 135h-34zM345 -11q-124 0 -208 82.5t-84 208.5v420h130v-410q0 -80 45.5 -125.5t116.5 -45.5t116.5 45.5t45.5 125.5v410h130v-420q0 -126 -84 -208.5t-208 -82.5z" />
    <glyph glyph-name="Udieresis" unicode="&#xdc;" horiz-adv-x="690" 
d="M382 855.5q0 33.5 22.5 56.5t56 23t56 -23t22.5 -56.5t-22.5 -56t-56 -22.5t-56 22.5t-22.5 56zM148.5 855.5q0.5 33.5 23 56.5t56 23t56 -23t22.5 -56.5t-22.5 -56t-56 -22.5t-56.5 22.5t-22.5 56zM345 -11q-124 0 -208 82.5t-84 208.5v420h130v-410q0 -80 45.5 -125.5
t116.5 -45.5t116.5 45.5t45.5 125.5v410h130v-420q0 -126 -84 -208.5t-208 -82.5z" />
    <glyph glyph-name="Yacute" unicode="&#xdd;" horiz-adv-x="683" 
d="M500 932l-87 85l-156 -166l70 -74zM287 0h130v227l241 473h-152l-154 -316l-173 316h-153l261 -473v-227z" />
    <glyph glyph-name="Thorn" unicode="&#xde;" horiz-adv-x="641" 
d="M183 472v-232h163q56 0 94 34t38 84q0 49 -37.5 81.5t-94.5 32.5h-163zM183 112v-112h-130v700h130v-100h173q108 0 180 -69t72 -173q0 -103 -76.5 -174.5t-185.5 -71.5h-163z" />
    <glyph glyph-name="germandbls" unicode="&#xdf;" horiz-adv-x="680" 
d="M494 392q63 -14 105 -72.5t42 -132.5q0 -86 -60 -142t-153 -56q-72 0 -125.5 39.5t-72.5 106.5l121 42q6 -27 26.5 -42.5t49.5 -15.5q38 0 61 26t23 69q0 50 -36.5 81.5t-93.5 31.5h-68v126h68q39 0 63.5 24.5t24.5 63.5q0 41 -32 66t-84 25q-80 0 -125 -50.5t-45 -139.5
v-442h-130v452q0 135 86 221.5t221 86.5q107 0 173 -57.5t66 -151.5q0 -114 -105 -159z" />
    <glyph glyph-name="agrave" unicode="&#xe0;" horiz-adv-x="520" 
d="M87 723l87 78l163 -159l-84 -74zM337 208l-110 -14q-64 -8 -64 -47q0 -21 17.5 -32.5t49.5 -11.5q48 0 77.5 25t29.5 66h35q0 -88 -52 -146.5t-131 -58.5q-68 0 -112 41.5t-44 106t44 107t120 52.5l140 17v7q0 30 -26.5 51.5t-63.5 21.5q-34 0 -60 -17.5t-34 -45.5
l-124 40q21 63 80 102t133 39q91 0 158 -55t67 -130v-326h-130v208z" />
    <glyph glyph-name="aacute" unicode="&#xe1;" horiz-adv-x="520" 
d="M397 723l-87 85l-156 -166l70 -74zM337 208l-110 -14q-64 -8 -64 -47q0 -21 17.5 -32.5t49.5 -11.5q48 0 77.5 25t29.5 66h35q0 -88 -52 -146.5t-131 -58.5q-68 0 -112 41.5t-44 106t44 107t120 52.5l140 17v7q0 30 -26.5 51.5t-63.5 21.5q-34 0 -60 -17.5t-34 -45.5
l-124 40q21 63 80 102t133 39q91 0 158 -55t67 -130v-326h-130v208z" />
    <glyph glyph-name="acircumflex" unicode="&#xe2;" horiz-adv-x="520" 
d="M229 773l-174 -135l55 -77l136 109l136 -109l55 77l-174 135h-34zM337 208l-110 -14q-64 -8 -64 -47q0 -21 17.5 -32.5t49.5 -11.5q48 0 77.5 25t29.5 66h35q0 -88 -52 -146.5t-131 -58.5q-68 0 -112 41.5t-44 106t44 107t120 52.5l140 17v7q0 30 -26.5 51.5t-63.5 21.5
q-34 0 -60 -17.5t-34 -45.5l-124 40q21 63 80 102t133 39q91 0 158 -55t67 -130v-326h-130v208z" />
    <glyph glyph-name="atilde" unicode="&#xe3;" horiz-adv-x="520" 
d="M170 729q-52 0 -82.5 -36t-40.5 -101l84 -18q11 66 45 66q19 0 47 -26q55 -46 101 -46q50 0 81 36t40 101l-84 18q-12 -63 -49 -63q-23 0 -49 25q-28 24 -48.5 34t-44.5 10zM337 208l-110 -14q-64 -8 -64 -47q0 -21 17.5 -32.5t49.5 -11.5q48 0 77.5 25t29.5 66h35
q0 -88 -52 -146.5t-131 -58.5q-68 0 -112 41.5t-44 106t44 107t120 52.5l140 17v7q0 30 -26.5 51.5t-63.5 21.5q-34 0 -60 -17.5t-34 -45.5l-124 40q21 63 80 102t133 39q91 0 158 -55t67 -130v-326h-130v208z" />
    <glyph glyph-name="adieresis" unicode="&#xe4;" horiz-adv-x="520" 
d="M283 646.5q0 33.5 22.5 56.5t56 23t56 -23t22.5 -56.5t-22.5 -56t-56 -22.5t-56 22.5t-22.5 56zM49.5 646.5q0.5 33.5 23 56.5t56 23t56 -23t22.5 -56.5t-22.5 -56t-56 -22.5t-56.5 22.5t-22.5 56zM337 208l-110 -14q-64 -8 -64 -47q0 -21 17.5 -32.5t49.5 -11.5
q48 0 77.5 25t29.5 66h35q0 -88 -52 -146.5t-131 -58.5q-68 0 -112 41.5t-44 106t44 107t120 52.5l140 17v7q0 30 -26.5 51.5t-63.5 21.5q-34 0 -60 -17.5t-34 -45.5l-124 40q21 63 80 102t133 39q91 0 158 -55t67 -130v-326h-130v208z" />
    <glyph glyph-name="aring" unicode="&#xe5;" horiz-adv-x="520" 
d="M196 703q0 -22 14.5 -36t35.5 -14t35.5 14t14.5 36t-14.5 36t-35.5 14t-35.5 -14t-14.5 -36zM111 703.5q0 58.5 39 96.5t96 38t96 -38t39 -96.5t-39 -97t-96 -38.5t-96 38.5t-39 97zM337 208l-110 -14q-64 -8 -64 -47q0 -21 17.5 -32.5t49.5 -11.5q48 0 77.5 25t29.5 66
h35q0 -88 -52 -146.5t-131 -58.5q-68 0 -112 41.5t-44 106t44 107t120 52.5l140 17v7q0 30 -26.5 51.5t-63.5 21.5q-34 0 -60 -17.5t-34 -45.5l-124 40q21 63 80 102t133 39q91 0 158 -55t67 -130v-326h-130v208z" />
    <glyph glyph-name="ae" unicode="&#xe6;" horiz-adv-x="904" 
d="M337 207l-110 -13q-64 -8 -64 -47q0 -21 18.5 -32.5t49.5 -11.5q47 0 76.5 25.5t29.5 65.5v13zM481 197q10 -43 45.5 -69t84.5 -26q37 0 68.5 16t47.5 44l119 -45q-33 -62 -95.5 -98.5t-136.5 -36.5q-109 0 -181.5 76.5t-72.5 193.5q0 116 71 192t177 76q110 0 186.5 -78
t76.5 -193q0 -21 -7 -52h-383zM739 306q-9 42 -45.5 68t-85.5 26q-47 0 -81.5 -25.5t-45.5 -68.5h258zM209 -11q-77 0 -126.5 43t-49.5 111q0 61 43.5 100.5t120.5 48.5l140 17v13q0 29 -26 50t-63 21q-34 0 -59.5 -17t-32.5 -46l-127 40q20 62 75.5 101.5t124.5 39.5
q81 0 138.5 -54t57.5 -131v-112q0 -98 -61 -161.5t-155 -63.5z" />
    <glyph glyph-name="ccedilla" unicode="&#xe7;" horiz-adv-x="590" 
d="M338 -75q28 32 66 32q41 0 69.5 -37t28.5 -89q0 -61 -40 -99.5t-105 -38.5q-53 0 -93.5 28t-55.5 75l98 36q4 -19 17 -29t33 -10t32 11.5t12 29.5q0 17 -9 28t-23 11q-17 0 -30 -15l-100 32v132h100v-97zM163 251q0 -64 41 -105t100 -41q44 0 79 21.5t53 59.5l119 -56
q-34 -68 -101.5 -108t-149.5 -40q-113 0 -192 76t-79 193t79 193t192 76q84 0 152 -41t101 -112l-119 -56q-17 40 -53 63t-81 23q-59 0 -100 -41t-41 -105z" />
    <glyph glyph-name="egrave" unicode="&#xe8;" horiz-adv-x="594" 
d="M130 723l87 78l163 -159l-84 -74zM428 306q-8 44 -44.5 69t-85.5 25q-48 0 -82.5 -24.5t-44.5 -69.5h257zM171 197q10 -45 45.5 -70t83.5 -25q38 0 69.5 16t46.5 44l119 -45q-32 -62 -95 -98.5t-139 -36.5q-114 0 -191 77t-77 193q0 115 75 191.5t186 76.5t189 -77
t78 -191q0 -23 -7 -55h-383z" />
    <glyph glyph-name="eacute" unicode="&#xe9;" horiz-adv-x="594" 
d="M440 723l-87 85l-156 -166l70 -74zM428 306q-8 44 -44.5 69t-85.5 25q-48 0 -82.5 -24.5t-44.5 -69.5h257zM171 197q10 -45 45.5 -70t83.5 -25q38 0 69.5 16t46.5 44l119 -45q-32 -62 -95 -98.5t-139 -36.5q-114 0 -191 77t-77 193q0 115 75 191.5t186 76.5t189 -77
t78 -191q0 -23 -7 -55h-383z" />
    <glyph glyph-name="ecircumflex" unicode="&#xea;" horiz-adv-x="594" 
d="M272 773l-174 -135l55 -77l136 109l136 -109l55 77l-174 135h-34zM428 306q-8 44 -44.5 69t-85.5 25q-48 0 -82.5 -24.5t-44.5 -69.5h257zM171 197q10 -45 45.5 -70t83.5 -25q38 0 69.5 16t46.5 44l119 -45q-32 -62 -95 -98.5t-139 -36.5q-114 0 -191 77t-77 193
q0 115 75 191.5t186 76.5t189 -77t78 -191q0 -23 -7 -55h-383z" />
    <glyph glyph-name="edieresis" unicode="&#xeb;" horiz-adv-x="594" 
d="M326 646.5q0 33.5 22.5 56.5t56 23t56 -23t22.5 -56.5t-22.5 -56t-56 -22.5t-56 22.5t-22.5 56zM92.5 646.5q0.5 33.5 23 56.5t56 23t56 -23t22.5 -56.5t-22.5 -56t-56 -22.5t-56.5 22.5t-22.5 56zM428 306q-8 44 -44.5 69t-85.5 25q-48 0 -82.5 -24.5t-44.5 -69.5h257z
M171 197q10 -45 45.5 -70t83.5 -25q38 0 69.5 16t46.5 44l119 -45q-32 -62 -95 -98.5t-139 -36.5q-114 0 -191 77t-77 193q0 115 75 191.5t186 76.5t189 -77t78 -191q0 -23 -7 -55h-383z" />
    <glyph glyph-name="igrave" unicode="&#xec;" 
d="M-41 723l87 78l163 -159l-84 -74zM53 0v500h130v-500h-130z" />
    <glyph glyph-name="iacute" unicode="&#xed;" 
d="M269 723l-87 85l-156 -166l70 -74zM53 0v500h130v-500h-130z" />
    <glyph glyph-name="icircumflex" unicode="&#xee;" 
d="M101 773l-174 -135l55 -77l136 109l136 -109l55 77l-174 135h-34zM53 0v500h130v-500h-130z" />
    <glyph glyph-name="idieresis" unicode="&#xef;" 
d="M155 646.5q0 33.5 22.5 56.5t56 23t56 -23t22.5 -56.5t-22.5 -56t-56 -22.5t-56 22.5t-22.5 56zM-78.5 646.5q0.5 33.5 23 56.5t56 23t56 -23t22.5 -56.5t-22.5 -56t-56 -22.5t-56.5 22.5t-22.5 56zM53 0v500h130v-500h-130z" />
    <glyph glyph-name="eth" unicode="&#xf0;" horiz-adv-x="610" 
d="M505 762l-261 -203l58 -68l259 200zM437 230q0 -49 -42 -83.5t-101 -34.5q-56 0 -93.5 32t-37.5 81t38.5 80.5t97.5 31.5q60 0 99 -30.5t39 -76.5zM213 643q105 -16 165 -85t69 -182q-25 36 -74 56.5t-108 20.5q-97 0 -164.5 -67.5t-67.5 -165.5q0 -102 75 -170t189 -68
q77 0 140.5 35t97.5 96q42 77 42 202q0 192 -87.5 312.5t-239.5 137.5z" />
    <glyph glyph-name="ntilde" unicode="&#xf1;" horiz-adv-x="567" 
d="M207 729q-52 0 -82.5 -36t-40.5 -101l84 -18q11 66 45 66q19 0 47 -26q55 -46 101 -46q50 0 81 36t40 101l-84 18q-12 -63 -49 -63q-23 0 -49 25q-28 24 -48.5 34t-44.5 10zM53 0v500h130v-500h-130zM385 0v283q0 49 -27 77t-70 28t-74 -31t-31 -74h-51q0 96 56.5 162
t141.5 66q79 0 132 -53.5t53 -144.5v-313h-130z" />
    <glyph glyph-name="ograve" unicode="&#xf2;" horiz-adv-x="618" 
d="M149 723l87 78l163 -159l-84 -74zM163 251q0 -64 42.5 -105t103.5 -41t103.5 41t42.5 105t-42.5 105t-103.5 41t-103.5 -41t-42.5 -105zM33 251q0 117 80 193t196 76t196 -76t80 -193t-80 -193t-196 -76t-196 76t-80 193z" />
    <glyph glyph-name="oacute" unicode="&#xf3;" horiz-adv-x="618" 
d="M459 723l-87 85l-156 -166l70 -74zM163 251q0 -64 42.5 -105t103.5 -41t103.5 41t42.5 105t-42.5 105t-103.5 41t-103.5 -41t-42.5 -105zM33 251q0 117 80 193t196 76t196 -76t80 -193t-80 -193t-196 -76t-196 76t-80 193z" />
    <glyph glyph-name="ocircumflex" unicode="&#xf4;" horiz-adv-x="618" 
d="M291 773l-174 -135l55 -77l136 109l136 -109l55 77l-174 135h-34zM163 251q0 -64 42.5 -105t103.5 -41t103.5 41t42.5 105t-42.5 105t-103.5 41t-103.5 -41t-42.5 -105zM33 251q0 117 80 193t196 76t196 -76t80 -193t-80 -193t-196 -76t-196 76t-80 193z" />
    <glyph glyph-name="otilde" unicode="&#xf5;" horiz-adv-x="618" 
d="M232 729q-52 0 -82.5 -36t-40.5 -101l84 -18q11 66 45 66q19 0 47 -26q55 -46 101 -46q50 0 81 36t40 101l-84 18q-12 -63 -49 -63q-23 0 -49 25q-28 24 -48.5 34t-44.5 10zM163 251q0 -64 42.5 -105t103.5 -41t103.5 41t42.5 105t-42.5 105t-103.5 41t-103.5 -41
t-42.5 -105zM33 251q0 117 80 193t196 76t196 -76t80 -193t-80 -193t-196 -76t-196 76t-80 193z" />
    <glyph glyph-name="odieresis" unicode="&#xf6;" horiz-adv-x="618" 
d="M345 646.5q0 33.5 22.5 56.5t56 23t56 -23t22.5 -56.5t-22.5 -56t-56 -22.5t-56 22.5t-22.5 56zM111.5 646.5q0.5 33.5 23 56.5t56 23t56 -23t22.5 -56.5t-22.5 -56t-56 -22.5t-56.5 22.5t-22.5 56zM163 251q0 -64 42.5 -105t103.5 -41t103.5 41t42.5 105t-42.5 105
t-103.5 41t-103.5 -41t-42.5 -105zM33 251q0 117 80 193t196 76t196 -76t80 -193t-80 -193t-196 -76t-196 76t-80 193z" />
    <glyph glyph-name="divide" unicode="&#xf7;" horiz-adv-x="418" 
d="M123 455q0 39 24.5 64.5t61.5 25.5q39 0 65.5 -25.5t26.5 -64.5t-25.5 -64t-63.5 -25t-63.5 25t-25.5 64zM123 73q0 39 24.5 65t61.5 26q39 0 65.5 -26t26.5 -65q0 -38 -25.5 -63.5t-63.5 -25.5t-63.5 25.5t-25.5 63.5zM392 323v-113h-365v113h365z" />
    <glyph glyph-name="oslash" unicode="&#xf8;" horiz-adv-x="618" 
d="M519 537l75 -75l-495 -495l-75 75zM156 251q0 -67 44.5 -109.5t108.5 -43t108.5 42.5t44.5 110t-44.5 110t-108.5 43t-108.5 -43t-44.5 -110zM33 251q0 117 80 193t196 76t196 -76t80 -193t-80 -193t-196 -76t-196 76t-80 193z" />
    <glyph glyph-name="ugrave" unicode="&#xf9;" horiz-adv-x="547" 
d="M110 723l87 78l163 -159l-84 -74zM495 500v-500h-130v500h130zM183 500v-296q0 -43 24.5 -67.5t62.5 -24.5q40 0 67.5 25t27.5 60h51q0 -88 -54 -148t-134 -60q-75 0 -125 50t-50 135v326h130z" />
    <glyph glyph-name="uacute" unicode="&#xfa;" horiz-adv-x="547" 
d="M420 723l-87 85l-156 -166l70 -74zM495 500v-500h-130v500h130zM183 500v-296q0 -43 24.5 -67.5t62.5 -24.5q40 0 67.5 25t27.5 60h51q0 -88 -54 -148t-134 -60q-75 0 -125 50t-50 135v326h130z" />
    <glyph glyph-name="ucircumflex" unicode="&#xfb;" horiz-adv-x="547" 
d="M252 773l-174 -135l55 -77l136 109l136 -109l55 77l-174 135h-34zM495 500v-500h-130v500h130zM183 500v-296q0 -43 24.5 -67.5t62.5 -24.5q40 0 67.5 25t27.5 60h51q0 -88 -54 -148t-134 -60q-75 0 -125 50t-50 135v326h130z" />
    <glyph glyph-name="udieresis" unicode="&#xfc;" horiz-adv-x="547" 
d="M306 646.5q0 33.5 22.5 56.5t56 23t56 -23t22.5 -56.5t-22.5 -56t-56 -22.5t-56 22.5t-22.5 56zM72.5 646.5q0.5 33.5 23 56.5t56 23t56 -23t22.5 -56.5t-22.5 -56t-56 -22.5t-56.5 22.5t-22.5 56zM495 500v-500h-130v500h130zM183 500v-296q0 -43 24.5 -67.5t62.5 -24.5
q40 0 67.5 25t27.5 60h51q0 -88 -54 -148t-134 -60q-75 0 -125 50t-50 135v326h130z" />
    <glyph glyph-name="yacute" unicode="&#xfd;" horiz-adv-x="593" 
d="M447 723l-87 85l-156 -166l70 -74zM426 500l-129 -347l-130 347h-138l194 -487l-79 -213h138l283 700h-139z" />
    <glyph glyph-name="thorn" unicode="&#xfe;" horiz-adv-x="638" 
d="M53 -200v950h130v-950h-130zM183 251q0 -63 42 -104.5t104 -41.5t104 41.5t42 104.5t-42 104.5t-104 41.5t-104 -41.5t-42 -104.5zM137 251q0 116 66 192.5t164 76.5q100 0 169 -77t69 -192t-69 -192t-169 -77q-98 0 -164 76.5t-66 192.5z" />
    <glyph glyph-name="ydieresis" unicode="&#xff;" horiz-adv-x="593" 
d="M333 646.5q0 33.5 22.5 56.5t56 23t56 -23t22.5 -56.5t-22.5 -56t-56 -22.5t-56 22.5t-22.5 56zM99.5 646.5q0.5 33.5 23 56.5t56 23t56 -23t22.5 -56.5t-22.5 -56t-56 -22.5t-56.5 22.5t-22.5 56zM426 500l-129 -347l-130 347h-138l194 -487l-79 -213h138l283 700h-139z
" />
    <glyph glyph-name="Amacron" unicode="&#x100;" horiz-adv-x="785" 
d="M564 887v-100h-332v100h332zM198 283h392v-122h-392v122zM178 0h-149l278 700h170l280 -700h-149l-214 566z" />
    <glyph glyph-name="amacron" unicode="&#x101;" horiz-adv-x="520" 
d="M416 678v-100h-332v100h332zM337 208l-110 -14q-64 -8 -64 -47q0 -21 17.5 -32.5t49.5 -11.5q48 0 77.5 25t29.5 66h35q0 -88 -52 -146.5t-131 -58.5q-68 0 -112 41.5t-44 106t44 107t120 52.5l140 17v7q0 30 -26.5 51.5t-63.5 21.5q-34 0 -60 -17.5t-34 -45.5l-124 40
q21 63 80 102t133 39q91 0 158 -55t67 -130v-326h-130v208z" />
    <glyph glyph-name="Abreve" unicode="&#x102;" horiz-adv-x="785" 
d="M393 781q-79 0 -134.5 51.5t-55.5 124.5h100q0 -37 26 -60.5t65 -23.5q40 0 68.5 24.5t28.5 59.5h100q0 -71 -59 -123.5t-139 -52.5zM198 283h392v-122h-392v122zM178 0h-149l278 700h170l280 -700h-149l-214 566z" />
    <glyph glyph-name="abreve" unicode="&#x103;" horiz-adv-x="520" 
d="M245 572q-79 0 -134.5 51.5t-55.5 124.5h100q0 -37 26 -60.5t65 -23.5q40 0 68.5 24.5t28.5 59.5h100q0 -71 -59 -123.5t-139 -52.5zM337 208l-110 -14q-64 -8 -64 -47q0 -21 17.5 -32.5t49.5 -11.5q48 0 77.5 25t29.5 66h35q0 -88 -52 -146.5t-131 -58.5
q-68 0 -112 41.5t-44 106t44 107t120 52.5l140 17v7q0 30 -26.5 51.5t-63.5 21.5q-34 0 -60 -17.5t-34 -45.5l-124 40q21 63 80 102t133 39q91 0 158 -55t67 -130v-326h-130v208z" />
    <glyph glyph-name="Aogonek" unicode="&#x104;" horiz-adv-x="785" 
d="M636 -25v31h91v-55l-64 -43q-39 -26 -39 -60q0 -18 10.5 -29.5t27.5 -11.5q34 0 42 35l89 -18q-13 -50 -47.5 -79t-82.5 -29q-59 0 -96 33.5t-37 85.5q0 35 17.5 62t63.5 61zM198 283h392v-122h-392v122zM178 0h-149l278 700h170l280 -700h-149l-214 566z" />
    <glyph glyph-name="aogonek" unicode="&#x105;" horiz-adv-x="520" 
d="M358 -25v31h91v-55l-64 -43q-39 -26 -39 -60q0 -18 10.5 -29.5t27.5 -11.5q34 0 42 35l89 -18q-13 -50 -47.5 -79t-82.5 -29q-59 0 -96 33.5t-37 85.5q0 35 17.5 62t63.5 61zM337 208l-110 -14q-64 -8 -64 -47q0 -21 17.5 -32.5t49.5 -11.5q48 0 77.5 25t29.5 66h35
q0 -88 -52 -146.5t-131 -58.5q-68 0 -112 41.5t-44 106t44 107t120 52.5l140 17v7q0 30 -26.5 51.5t-63.5 21.5q-34 0 -60 -17.5t-34 -45.5l-124 40q21 63 80 102t133 39q91 0 158 -55t67 -130v-326h-130v208z" />
    <glyph glyph-name="Cacute" unicode="&#x106;" horiz-adv-x="778" 
d="M545 932l-87 85l-156 -166l70 -74zM33 351q0 104 48 188.5t131.5 132.5t184.5 48q112 0 204 -60.5t139 -165.5l-130 -47q-29 67 -86 105t-128 38q-98 0 -165.5 -68t-67.5 -171t67.5 -171t165.5 -68q73 0 131 40.5t87 111.5l131 -46q-46 -109 -139.5 -172.5t-208.5 -63.5
q-101 0 -184.5 48t-131.5 132.5t-48 188.5z" />
    <glyph glyph-name="cacute" unicode="&#x107;" horiz-adv-x="590" 
d="M456 723l-87 85l-156 -166l70 -74zM163 251q0 -64 41 -105t100 -41q44 0 79 21.5t53 59.5l119 -56q-34 -68 -101.5 -108t-149.5 -40q-113 0 -192 76t-79 193t79 193t192 76q84 0 152 -41t101 -112l-119 -56q-17 40 -53 63t-81 23q-59 0 -100 -41t-41 -105z" />
    <glyph glyph-name="Ccircumflex" unicode="&#x108;" horiz-adv-x="778" 
d="M377 982l-174 -135l55 -77l136 109l136 -109l55 77l-174 135h-34zM33 351q0 104 48 188.5t131.5 132.5t184.5 48q112 0 204 -60.5t139 -165.5l-130 -47q-29 67 -86 105t-128 38q-98 0 -165.5 -68t-67.5 -171t67.5 -171t165.5 -68q73 0 131 40.5t87 111.5l131 -46
q-46 -109 -139.5 -172.5t-208.5 -63.5q-101 0 -184.5 48t-131.5 132.5t-48 188.5z" />
    <glyph glyph-name="ccircumflex" unicode="&#x109;" horiz-adv-x="590" 
d="M288 773l-174 -135l55 -77l136 109l136 -109l55 77l-174 135h-34zM163 251q0 -64 41 -105t100 -41q44 0 79 21.5t53 59.5l119 -56q-34 -68 -101.5 -108t-149.5 -40q-113 0 -192 76t-79 193t79 193t192 76q84 0 152 -41t101 -112l-119 -56q-17 40 -53 63t-81 23
q-59 0 -100 -41t-41 -105z" />
    <glyph glyph-name="Cdotaccent" unicode="&#x10a;" horiz-adv-x="778" 
d="M315 855.5q0 33.5 23 56.5t56 23t56 -23t23 -56.5t-23 -56t-56 -22.5t-56 22.5t-23 56zM33 351q0 104 48 188.5t131.5 132.5t184.5 48q112 0 204 -60.5t139 -165.5l-130 -47q-29 67 -86 105t-128 38q-98 0 -165.5 -68t-67.5 -171t67.5 -171t165.5 -68q73 0 131 40.5
t87 111.5l131 -46q-46 -109 -139.5 -172.5t-208.5 -63.5q-101 0 -184.5 48t-131.5 132.5t-48 188.5z" />
    <glyph glyph-name="cdotaccent" unicode="&#x10b;" horiz-adv-x="590" 
d="M226 646.5q0 33.5 23 56.5t56 23t56 -23t23 -56.5t-23 -56t-56 -22.5t-56 22.5t-23 56zM163 251q0 -64 41 -105t100 -41q44 0 79 21.5t53 59.5l119 -56q-34 -68 -101.5 -108t-149.5 -40q-113 0 -192 76t-79 193t79 193t192 76q84 0 152 -41t101 -112l-119 -56
q-17 40 -53 63t-81 23q-59 0 -100 -41t-41 -105z" />
    <glyph glyph-name="Ccaron" unicode="&#x10c;" horiz-adv-x="778" 
d="M411 770l174 136l-55 76l-136 -108l-136 108l-55 -76l174 -136h34zM33 351q0 104 48 188.5t131.5 132.5t184.5 48q112 0 204 -60.5t139 -165.5l-130 -47q-29 67 -86 105t-128 38q-98 0 -165.5 -68t-67.5 -171t67.5 -171t165.5 -68q73 0 131 40.5t87 111.5l131 -46
q-46 -109 -139.5 -172.5t-208.5 -63.5q-101 0 -184.5 48t-131.5 132.5t-48 188.5z" />
    <glyph glyph-name="ccaron" unicode="&#x10d;" horiz-adv-x="590" 
d="M322 561l174 136l-55 76l-136 -108l-136 108l-55 -76l174 -136h34zM163 251q0 -64 41 -105t100 -41q44 0 79 21.5t53 59.5l119 -56q-34 -68 -101.5 -108t-149.5 -40q-113 0 -192 76t-79 193t79 193t192 76q84 0 152 -41t101 -112l-119 -56q-17 40 -53 63t-81 23
q-59 0 -100 -41t-41 -105z" />
    <glyph glyph-name="Dcaron" unicode="&#x10e;" horiz-adv-x="704" 
d="M351 770l174 136l-55 76l-136 -108l-136 108l-55 -76l174 -136h34zM329 0h-276v700h276q94 0 172 -44t124 -124.5t46 -180.5q0 -76 -27 -141.5t-73 -111.5t-109 -72t-133 -26zM319 574h-136v-448h136q93 0 158 63t65 162q0 98 -65 160.5t-158 62.5z" />
    <glyph glyph-name="dcaron" unicode="&#x10f;" horiz-adv-x="820" 
d="M689 819l117 -33l-60 -241l-111 31zM585 0h-130v750h130v-750zM455 251q0 63 -42 104.5t-104 41.5t-104 -41.5t-42 -104.5t42 -104.5t104 -41.5t104 41.5t42 104.5zM501 251q0 -116 -66 -192.5t-164 -76.5q-100 0 -169 77t-69 192t69 192t169 77q98 0 164 -76.5
t66 -192.5z" />
    <glyph glyph-name="Dcroat" unicode="&#x110;" horiz-adv-x="711" 
d="M349 415v-113h-349v113h349zM336 0h-269v700h269q93 0 171 -44t124.5 -124.5t46.5 -180.5q0 -76 -27 -141.5t-73.5 -111.5t-109 -72t-132.5 -26zM326 574h-130v-448h130q93 0 157.5 63t64.5 162q0 98 -64.5 160.5t-157.5 62.5z" />
    <glyph glyph-name="dcroat" unicode="&#x111;" horiz-adv-x="668" 
d="M501 251q0 -116 -66 -192.5t-164 -76.5q-100 0 -169 77t-69 192t69 192t169 77q98 0 164 -76.5t66 -192.5zM455 251q0 63 -42 104.5t-104 41.5t-104 -41.5t-42 -104.5t42 -104.5t104 -41.5t104 41.5t42 104.5zM585 0h-130v576h-202v114h202v60h130v-60h83v-114h-83v-576z
" />
    <glyph glyph-name="Emacron" unicode="&#x112;" horiz-adv-x="579" 
d="M475 887v-100h-332v100h332zM183 415h336v-128h-336v-159h360v-128h-490v700h490v-128h-360v-157z" />
    <glyph glyph-name="emacron" unicode="&#x113;" horiz-adv-x="594" 
d="M459 678v-100h-332v100h332zM428 306q-8 44 -44.5 69t-85.5 25q-48 0 -82.5 -24.5t-44.5 -69.5h257zM171 197q10 -45 45.5 -70t83.5 -25q38 0 69.5 16t46.5 44l119 -45q-32 -62 -95 -98.5t-139 -36.5q-114 0 -191 77t-77 193q0 115 75 191.5t186 76.5t189 -77t78 -191
q0 -23 -7 -55h-383z" />
    <glyph glyph-name="Ebreve" unicode="&#x114;" horiz-adv-x="579" 
d="M304 781q-79 0 -134.5 51.5t-55.5 124.5h100q0 -37 26 -60.5t65 -23.5q40 0 68.5 24.5t28.5 59.5h100q0 -71 -59 -123.5t-139 -52.5zM183 415h336v-128h-336v-159h360v-128h-490v700h490v-128h-360v-157z" />
    <glyph glyph-name="ebreve" unicode="&#x115;" horiz-adv-x="594" 
d="M288 572q-79 0 -134.5 51.5t-55.5 124.5h100q0 -37 26 -60.5t65 -23.5q40 0 68.5 24.5t28.5 59.5h100q0 -71 -59 -123.5t-139 -52.5zM428 306q-8 44 -44.5 69t-85.5 25q-48 0 -82.5 -24.5t-44.5 -69.5h257zM171 197q10 -45 45.5 -70t83.5 -25q38 0 69.5 16t46.5 44
l119 -45q-32 -62 -95 -98.5t-139 -36.5q-114 0 -191 77t-77 193q0 115 75 191.5t186 76.5t189 -77t78 -191q0 -23 -7 -55h-383z" />
    <glyph glyph-name="Edotaccent" unicode="&#x116;" horiz-adv-x="579" 
d="M226 855.5q0 33.5 23 56.5t56 23t56 -23t23 -56.5t-23 -56t-56 -22.5t-56 22.5t-23 56zM183 415h336v-128h-336v-159h360v-128h-490v700h490v-128h-360v-157z" />
    <glyph glyph-name="edotaccent" unicode="&#x117;" horiz-adv-x="594" 
d="M210 646.5q0 33.5 23 56.5t56 23t56 -23t23 -56.5t-23 -56t-56 -22.5t-56 22.5t-23 56zM428 306q-8 44 -44.5 69t-85.5 25q-48 0 -82.5 -24.5t-44.5 -69.5h257zM171 197q10 -45 45.5 -70t83.5 -25q38 0 69.5 16t46.5 44l119 -45q-32 -62 -95 -98.5t-139 -36.5
q-114 0 -191 77t-77 193q0 115 75 191.5t186 76.5t189 -77t78 -191q0 -23 -7 -55h-383z" />
    <glyph glyph-name="Eogonek" unicode="&#x118;" horiz-adv-x="579" 
d="M444 -25v31h91v-55l-64 -43q-39 -26 -39 -60q0 -18 10.5 -29.5t27.5 -11.5q34 0 42 35l89 -18q-13 -50 -47.5 -79t-82.5 -29q-59 0 -96 33.5t-37 85.5q0 35 17.5 62t63.5 61zM183 415h336v-128h-336v-159h360v-128h-490v700h490v-128h-360v-157z" />
    <glyph glyph-name="eogonek" unicode="&#x119;" horiz-adv-x="594" 
d="M246 -25v31h91v-55l-64 -43q-39 -26 -39 -60q0 -18 10.5 -29.5t27.5 -11.5q34 0 42 35l89 -18q-13 -50 -47.5 -79t-82.5 -29q-59 0 -96 33.5t-37 85.5q0 35 17.5 62t63.5 61zM428 306q-8 44 -44.5 69t-85.5 25q-48 0 -82.5 -24.5t-44.5 -69.5h257zM171 197
q10 -45 45.5 -70t83.5 -25q38 0 69.5 16t46.5 44l119 -45q-32 -62 -95 -98.5t-139 -36.5q-114 0 -191 77t-77 193q0 115 75 191.5t186 76.5t189 -77t78 -191q0 -23 -7 -55h-383z" />
    <glyph glyph-name="Ecaron" unicode="&#x11a;" horiz-adv-x="579" 
d="M322 770l174 136l-55 76l-136 -108l-136 108l-55 -76l174 -136h34zM183 415h336v-128h-336v-159h360v-128h-490v700h490v-128h-360v-157z" />
    <glyph glyph-name="ecaron" unicode="&#x11b;" horiz-adv-x="594" 
d="M306 561l174 136l-55 76l-136 -108l-136 108l-55 -76l174 -136h34zM428 306q-8 44 -44.5 69t-85.5 25q-48 0 -82.5 -24.5t-44.5 -69.5h257zM171 197q10 -45 45.5 -70t83.5 -25q38 0 69.5 16t46.5 44l119 -45q-32 -62 -95 -98.5t-139 -36.5q-114 0 -191 77t-77 193
q0 115 75 191.5t186 76.5t189 -77t78 -191q0 -23 -7 -55h-383z" />
    <glyph glyph-name="Gcircumflex" unicode="&#x11c;" horiz-adv-x="788" 
d="M377 982l-174 -135l55 -77l136 109l136 -109l55 77l-174 135h-34zM163 351q0 -104 67.5 -171.5t163.5 -67.5q83 0 144 47.5t75 123.5h-257v117h396q3 -21 3 -63q0 -101 -48.5 -182.5t-131 -127t-181.5 -45.5q-74 0 -140 27.5t-115 75.5t-77.5 117.5t-28.5 148.5
t28.5 148.5t77.5 117.5t115 75.5t140 27.5q105 0 191.5 -53.5t130.5 -146.5l-116 -60q-29 61 -84 95.5t-122 34.5q-96 0 -163.5 -67.5t-67.5 -171.5z" />
    <glyph glyph-name="gcircumflex" unicode="&#x11d;" horiz-adv-x="598" 
d="M271 773l-174 -135l55 -77l136 109l136 -109l55 77l-174 135h-34zM468 271q0 -105 -61 -174.5t-151 -69.5q-94 0 -158.5 70t-64.5 174t65 175.5t159 71.5q89 0 150 -71t61 -176zM415 269q0 52 -36.5 85.5t-89.5 33.5t-89.5 -33.5t-36.5 -85.5t36.5 -85.5t89.5 -33.5
t89.5 33.5t36.5 85.5zM415 7v493h130v-493q0 -106 -70.5 -171t-182.5 -65q-84 0 -151 39t-101 107l111 74q19 -41 55 -64t80 -23q55 0 92 29t37 74z" />
    <glyph glyph-name="Gbreve" unicode="&#x11e;" horiz-adv-x="788" 
d="M393 781q-79 0 -134.5 51.5t-55.5 124.5h100q0 -37 26 -60.5t65 -23.5q40 0 68.5 24.5t28.5 59.5h100q0 -71 -59 -123.5t-139 -52.5zM163 351q0 -104 67.5 -171.5t163.5 -67.5q83 0 144 47.5t75 123.5h-257v117h396q3 -21 3 -63q0 -101 -48.5 -182.5t-131 -127
t-181.5 -45.5q-74 0 -140 27.5t-115 75.5t-77.5 117.5t-28.5 148.5t28.5 148.5t77.5 117.5t115 75.5t140 27.5q105 0 191.5 -53.5t130.5 -146.5l-116 -60q-29 61 -84 95.5t-122 34.5q-96 0 -163.5 -67.5t-67.5 -171.5z" />
    <glyph glyph-name="gbreve" unicode="&#x11f;" horiz-adv-x="598" 
d="M287 572q-79 0 -134.5 51.5t-55.5 124.5h100q0 -37 26 -60.5t65 -23.5q40 0 68.5 24.5t28.5 59.5h100q0 -71 -59 -123.5t-139 -52.5zM468 271q0 -105 -61 -174.5t-151 -69.5q-94 0 -158.5 70t-64.5 174t65 175.5t159 71.5q89 0 150 -71t61 -176zM415 269q0 52 -36.5 85.5
t-89.5 33.5t-89.5 -33.5t-36.5 -85.5t36.5 -85.5t89.5 -33.5t89.5 33.5t36.5 85.5zM415 7v493h130v-493q0 -106 -70.5 -171t-182.5 -65q-84 0 -151 39t-101 107l111 74q19 -41 55 -64t80 -23q55 0 92 29t37 74z" />
    <glyph glyph-name="Gdotaccent" unicode="&#x120;" horiz-adv-x="788" 
d="M315 855.5q0 33.5 23 56.5t56 23t56 -23t23 -56.5t-23 -56t-56 -22.5t-56 22.5t-23 56zM163 351q0 -104 67.5 -171.5t163.5 -67.5q83 0 144 47.5t75 123.5h-257v117h396q3 -21 3 -63q0 -101 -48.5 -182.5t-131 -127t-181.5 -45.5q-74 0 -140 27.5t-115 75.5t-77.5 117.5
t-28.5 148.5t28.5 148.5t77.5 117.5t115 75.5t140 27.5q105 0 191.5 -53.5t130.5 -146.5l-116 -60q-29 61 -84 95.5t-122 34.5q-96 0 -163.5 -67.5t-67.5 -171.5z" />
    <glyph glyph-name="gdotaccent" unicode="&#x121;" horiz-adv-x="598" 
d="M209 646.5q0 33.5 23 56.5t56 23t56 -23t23 -56.5t-23 -56t-56 -22.5t-56 22.5t-23 56zM468 271q0 -105 -61 -174.5t-151 -69.5q-94 0 -158.5 70t-64.5 174t65 175.5t159 71.5q89 0 150 -71t61 -176zM415 269q0 52 -36.5 85.5t-89.5 33.5t-89.5 -33.5t-36.5 -85.5
t36.5 -85.5t89.5 -33.5t89.5 33.5t36.5 85.5zM415 7v493h130v-493q0 -106 -70.5 -171t-182.5 -65q-84 0 -151 39t-101 107l111 74q19 -41 55 -64t80 -23q55 0 92 29t37 74z" />
    <glyph glyph-name="uni0122" unicode="&#x122;" horiz-adv-x="788" 
d="M435 -259q0 -30 -21 -52.5t-53 -22.5t-54 21.5t-22 52.5q0 27 15 49l115 164l47 -36l-75 -105q22 -9 35 -28.5t13 -42.5zM163 351q0 -104 67.5 -171.5t163.5 -67.5q83 0 144 47.5t75 123.5h-257v117h396q3 -21 3 -63q0 -101 -48.5 -182.5t-131 -127t-181.5 -45.5
q-74 0 -140 27.5t-115 75.5t-77.5 117.5t-28.5 148.5t28.5 148.5t77.5 117.5t115 75.5t140 27.5q105 0 191.5 -53.5t130.5 -146.5l-116 -60q-29 61 -84 95.5t-122 34.5q-96 0 -163.5 -67.5t-67.5 -171.5z" />
    <glyph glyph-name="uni0123" unicode="&#x123;" horiz-adv-x="598" 
d="M361 643q0 -30 -20.5 -52.5t-52.5 -22.5t-54.5 21.5t-22.5 52.5q0 27 15 49l115 164l47 -36l-75 -105q22 -9 35 -28.5t13 -42.5zM468 271q0 -105 -61 -174.5t-151 -69.5q-94 0 -158.5 70t-64.5 174t65 175.5t159 71.5q89 0 150 -71t61 -176zM415 269q0 52 -36.5 85.5
t-89.5 33.5t-89.5 -33.5t-36.5 -85.5t36.5 -85.5t89.5 -33.5t89.5 33.5t36.5 85.5zM415 7v493h130v-493q0 -106 -70.5 -171t-182.5 -65q-84 0 -151 39t-101 107l111 74q19 -41 55 -64t80 -23q55 0 92 29t37 74z" />
    <glyph glyph-name="Hcircumflex" unicode="&#x124;" horiz-adv-x="693" 
d="M331 982l-174 -135l55 -77l136 109l136 -109l55 77l-174 135h-34zM53 0v700h130v-285h327v285h130v-700h-130v287h-327v-287h-130z" />
    <glyph glyph-name="hcircumflex" unicode="&#x125;" horiz-adv-x="567" 
d="M100 1005l-174 -135l55 -77l136 109l136 -109l55 77l-174 135h-34zM53 0v750h130v-750h-130zM385 0v283q0 49 -27 77t-70 28t-74 -31t-31 -74h-51q0 96 56.5 162t141.5 66q79 0 132 -53.5t53 -144.5v-313h-130z" />
    <glyph glyph-name="Hbar" unicode="&#x126;" horiz-adv-x="693" 
d="M693 602v-113h-53v-489h-130v280h-327v-280h-130v489h-53v113h53v98h130v-98h327v98h130v-98h53zM183 489v-81h327v81h-327z" />
    <glyph glyph-name="hbar" unicode="&#x127;" horiz-adv-x="574" 
d="M60 0v569h-60v114h60v67h130v-67h219v-114h-219v-569h-130zM391 0v283q0 49 -27 77t-70 28t-73.5 -31t-30.5 -74h-52q0 96 57 162t141 66q80 0 132.5 -53.5t52.5 -144.5v-313h-130z" />
    <glyph glyph-name="Itilde" unicode="&#x128;" 
d="M42 938q-52 0 -82.5 -36t-40.5 -101l84 -18q11 66 45 66q19 0 47 -26q55 -46 101 -46q50 0 81 36t40 101l-84 18q-12 -63 -49 -63q-23 0 -49 25q-28 24 -48.5 34t-44.5 10zM183 0h-130v700h130v-700z" />
    <glyph glyph-name="itilde" unicode="&#x129;" 
d="M42 729q-52 0 -82.5 -36t-40.5 -101l84 -18q11 66 45 66q19 0 47 -26q55 -46 101 -46q50 0 81 36t40 101l-84 18q-12 -63 -49 -63q-23 0 -49 25q-28 24 -48.5 34t-44.5 10zM53 0v500h130v-500h-130z" />
    <glyph glyph-name="Imacron" unicode="&#x12a;" 
d="M288 887v-100h-332v100h332zM183 0h-130v700h130v-700z" />
    <glyph glyph-name="imacron" unicode="&#x12b;" 
d="M288 678v-100h-332v100h332zM53 0v500h130v-500h-130z" />
    <glyph glyph-name="Ibreve" unicode="&#x12c;" 
d="M117 781q-79 0 -134.5 51.5t-55.5 124.5h100q0 -37 26 -60.5t65 -23.5q40 0 68.5 24.5t28.5 59.5h100q0 -71 -59 -123.5t-139 -52.5zM183 0h-130v700h130v-700z" />
    <glyph glyph-name="ibreve" unicode="&#x12d;" 
d="M117 572q-79 0 -134.5 51.5t-55.5 124.5h100q0 -37 26 -60.5t65 -23.5q40 0 68.5 24.5t28.5 59.5h100q0 -71 -59 -123.5t-139 -52.5zM53 0v500h130v-500h-130z" />
    <glyph glyph-name="Iogonek" unicode="&#x12e;" 
d="M73 -25v31h91v-55l-64 -43q-39 -26 -39 -60q0 -18 10.5 -29.5t27.5 -11.5q34 0 42 35l89 -18q-13 -50 -47.5 -79t-82.5 -29q-59 0 -96 33.5t-37 85.5q0 35 17.5 62t63.5 61zM183 0h-130v700h130v-700z" />
    <glyph glyph-name="iogonek" unicode="&#x12f;" horiz-adv-x="231" 
d="M71 -25v31h91v-55l-64 -43q-39 -26 -39 -60q0 -18 10.5 -29.5t27.5 -11.5q34 0 42 35l89 -18q-13 -50 -47.5 -79t-82.5 -29q-59 0 -96 33.5t-37 85.5q0 35 17.5 62t63.5 61zM37 644.5q0 33.5 22.5 56t56 22.5t56 -22.5t22.5 -56t-22.5 -56.5t-56 -23t-56 23t-22.5 56.5z
M51 0v500h129v-500h-129z" />
    <glyph glyph-name="Idotaccent" unicode="&#x130;" 
d="M39 855.5q0 33.5 23 56.5t56 23t56 -23t23 -56.5t-23 -56t-56 -22.5t-56 22.5t-23 56zM183 0h-130v700h130v-700z" />
    <glyph glyph-name="dotlessi" unicode="&#x131;" 
d="M53 0v500h130v-500h-130z" />
    <glyph glyph-name="IJ" unicode="&#x132;" horiz-adv-x="871" 
d="M269 189l121 47q18 -57 56 -87t93 -30q66 0 107.5 41.5t41.5 116.5v423h130v-433q0 -121 -80.5 -199.5t-198.5 -78.5q-99 0 -170 53t-100 147zM183 0h-130v700h130v-700z" />
    <glyph glyph-name="ij" unicode="&#x133;" horiz-adv-x="462" 
d="M268 644.5q0 33.5 22.5 56t56 22.5t56 -22.5t22.5 -56t-22.5 -56.5t-56 -23t-56 23t-22.5 56.5zM210 -82q34 0 53 24.5t19 62.5v495h129v-536q0 -70 -49.5 -122t-127.5 -52h-49v128h25zM37 644.5q0 33.5 22.5 56t56 22.5t56 -22.5t22.5 -56t-22.5 -56.5t-56 -23t-56 23
t-22.5 56.5zM51 0v500h129v-500h-129z" />
    <glyph glyph-name="Jcircumflex" unicode="&#x134;" horiz-adv-x="634" 
d="M497 982l-174 -135l55 -77l136 109l136 -109l55 77l-174 135h-34zM33 189l121 47q18 -57 56 -87t93 -30q66 0 107.5 41.5t41.5 116.5v423h130v-433q0 -121 -80.5 -199.5t-198.5 -78.5q-99 0 -170 53t-100 147z" />
    <glyph glyph-name="jcircumflex" unicode="&#x135;" horiz-adv-x="231" 
d="M99 772l-174 -135l55 -77l136 109l136 -109l55 77l-174 135h-34zM-21 -82q34 0 53 24.5t19 62.5v495h129v-536q0 -70 -49.5 -122t-127.5 -52h-49v128h25z" />
    <glyph glyph-name="uni0136" unicode="&#x136;" horiz-adv-x="659" 
d="M345 -259q0 -30 -21 -52.5t-53 -22.5t-54 21.5t-22 52.5q0 27 15 49l115 164l47 -36l-75 -105q22 -9 35 -28.5t13 -42.5zM53 0v700h130v-286h31l251 286h168l-308 -351l308 -349h-168l-251 281h-31v-281h-130z" />
    <glyph glyph-name="uni0137" unicode="&#x137;" horiz-adv-x="562" 
d="M322 -259q0 -30 -21 -52.5t-53 -22.5t-54 21.5t-22 52.5q0 27 15 49l115 164l47 -36l-75 -105q22 -9 35 -28.5t13 -42.5zM53 0v750h130v-435h27l162 185h166l-216 -250l216 -250h-166l-162 182h-27v-182h-130z" />
    <glyph glyph-name="kgreenlandic" unicode="&#x138;" horiz-adv-x="562" 
d="M53 0v500h130v-185h27l162 185h166l-216 -250l216 -250h-166l-162 182h-27v-182h-130z" />
    <glyph glyph-name="Lacute" unicode="&#x139;" horiz-adv-x="569" 
d="M269 932l-87 85l-156 -166l70 -74zM183 128h360v-128h-490v700h130v-572z" />
    <glyph glyph-name="lacute" unicode="&#x13a;" 
d="M268 955l-87 85l-156 -166l70 -74zM53 0v750h130v-750h-130z" />
    <glyph glyph-name="uni013B" unicode="&#x13b;" horiz-adv-x="569" 
d="M342 -259q0 -30 -21 -52.5t-53 -22.5t-54 21.5t-22 52.5q0 27 15 49l115 164l47 -36l-75 -105q22 -9 35 -28.5t13 -42.5zM183 128h360v-128h-490v700h130v-572z" />
    <glyph glyph-name="uni013C" unicode="&#x13c;" 
d="M159 -259q0 -30 -21 -52.5t-53 -22.5t-54 21.5t-22 52.5q0 27 15 49l115 164l47 -36l-75 -105q22 -9 35 -28.5t13 -42.5zM53 0v750h130v-750h-130z" />
    <glyph glyph-name="Lcaron" unicode="&#x13d;" horiz-adv-x="569" 
d="M369 741l117 -33l-60 -241l-111 31zM183 128h360v-128h-490v700h130v-572z" />
    <glyph glyph-name="lcaron" unicode="&#x13e;" horiz-adv-x="399" 
d="M285 819l117 -33l-60 -241l-111 31zM53 0v750h130v-750h-130z" />
    <glyph glyph-name="Ldot" unicode="&#x13f;" horiz-adv-x="569" 
d="M292 359q0 38 24 63t59 25q38 0 63 -25t25 -63q0 -36 -24 -60.5t-61 -24.5t-61.5 24.5t-24.5 60.5zM183 128h360v-128h-490v700h130v-572z" />
    <glyph glyph-name="ldot" unicode="&#x140;" horiz-adv-x="478" 
d="M271 366q0 38 24 63t59 25q38 0 63 -25t25 -63q0 -36 -24 -60.5t-61 -24.5t-61.5 24.5t-24.5 60.5zM53 0v750h130v-750h-130z" />
    <glyph glyph-name="Lslash" unicode="&#x141;" horiz-adv-x="572" 
d="M328 458l22 -111l-331 -67l-21 111zM186 128h361v-128h-490v700h129v-572z" />
    <glyph glyph-name="lslash" unicode="&#x142;" horiz-adv-x="300" 
d="M275 464l22 -112l-271 -46l-22 113zM83 0v750h130v-750h-130z" />
    <glyph glyph-name="Nacute" unicode="&#x143;" horiz-adv-x="693" 
d="M503 932l-87 85l-156 -166l70 -74zM53 0v700h150l307 -494v494h130v-700h-150l-307 497v-497h-130z" />
    <glyph glyph-name="nacute" unicode="&#x144;" horiz-adv-x="567" 
d="M434 723l-87 85l-156 -166l70 -74zM53 0v500h130v-500h-130zM385 0v283q0 49 -27 77t-70 28t-74 -31t-31 -74h-51q0 96 56.5 162t141.5 66q79 0 132 -53.5t53 -144.5v-313h-130z" />
    <glyph glyph-name="uni0145" unicode="&#x145;" horiz-adv-x="693" 
d="M402 -259q0 -30 -21 -52.5t-53 -22.5t-54 21.5t-22 52.5q0 27 15 49l115 164l47 -36l-75 -105q22 -9 35 -28.5t13 -42.5zM53 0v700h150l307 -494v494h130v-700h-150l-307 497v-497h-130z" />
    <glyph glyph-name="uni0146" unicode="&#x146;" horiz-adv-x="567" 
d="M335 -259q0 -30 -21 -52.5t-53 -22.5t-54 21.5t-22 52.5q0 27 15 49l115 164l47 -36l-75 -105q22 -9 35 -28.5t13 -42.5zM53 0v500h130v-500h-130zM385 0v283q0 49 -27 77t-70 28t-74 -31t-31 -74h-51q0 96 56.5 162t141.5 66q79 0 132 -53.5t53 -144.5v-313h-130z" />
    <glyph glyph-name="Ncaron" unicode="&#x147;" horiz-adv-x="693" 
d="M369 770l174 136l-55 76l-136 -108l-136 108l-55 -76l174 -136h34zM53 0v700h150l307 -494v494h130v-700h-150l-307 497v-497h-130z" />
    <glyph glyph-name="ncaron" unicode="&#x148;" horiz-adv-x="567" 
d="M300 561l174 136l-55 76l-136 -108l-136 108l-55 -76l174 -136h34zM53 0v500h130v-500h-130zM385 0v283q0 49 -27 77t-70 28t-74 -31t-31 -74h-51q0 96 56.5 162t141.5 66q79 0 132 -53.5t53 -144.5v-313h-130z" />
    <glyph glyph-name="napostrophe" unicode="&#x149;" horiz-adv-x="766" 
d="M252 0v500h130v-500h-130zM584 0v283q0 49 -27 77t-70 28t-74 -31t-31 -74h-51q0 96 56.5 162t141.5 66q79 0 132 -53.5t53 -144.5v-313h-130zM82 770l117 -33l-59 -241l-112 31z" />
    <glyph glyph-name="Eng" unicode="&#x14a;" horiz-adv-x="661" 
d="M53 0v700h130v-700h-130zM390 -42q43 0 65.5 27t22.5 70v375q0 70 -38.5 110.5t-99.5 40.5q-65 0 -111 -44.5t-46 -106.5h-51q0 74 32.5 138.5t90.5 103.5t128 39q95 0 160 -73t65 -185v-412q0 -87 -58 -149t-150 -62h-72v128h62z" />
    <glyph glyph-name="eng" unicode="&#x14b;" horiz-adv-x="567" 
d="M53 0v500h130v-500h-130zM385 20v263q0 48 -27.5 76.5t-71.5 28.5q-42 0 -72.5 -31t-30.5 -74h-51q0 93 58 160.5t140 67.5q78 0 131.5 -54.5t53.5 -136.5v-321q0 -73 -51 -123.5t-127 -50.5h-66v121h49q31 0 48 20.5t17 53.5z" />
    <glyph glyph-name="Omacron" unicode="&#x14c;" horiz-adv-x="788" 
d="M564 887v-100h-332v100h332zM163 353q0 -106 67 -173.5t164 -67.5t164 67.5t67 173.5q0 104 -67 170.5t-164 66.5t-164 -66.5t-67 -170.5zM33 353q0 106 49 190.5t131 130.5t181 46t181 -46t131 -130.5t49 -190.5q0 -80 -28.5 -149.5t-77.5 -118t-115 -76t-140 -27.5
t-140 27.5t-115 76t-77.5 118t-28.5 149.5z" />
    <glyph glyph-name="omacron" unicode="&#x14d;" horiz-adv-x="618" 
d="M478 678v-100h-332v100h332zM163 251q0 -64 42.5 -105t103.5 -41t103.5 41t42.5 105t-42.5 105t-103.5 41t-103.5 -41t-42.5 -105zM33 251q0 117 80 193t196 76t196 -76t80 -193t-80 -193t-196 -76t-196 76t-80 193z" />
    <glyph glyph-name="Obreve" unicode="&#x14e;" horiz-adv-x="788" 
d="M393 781q-79 0 -134.5 51.5t-55.5 124.5h100q0 -37 26 -60.5t65 -23.5q40 0 68.5 24.5t28.5 59.5h100q0 -71 -59 -123.5t-139 -52.5zM163 353q0 -106 67 -173.5t164 -67.5t164 67.5t67 173.5q0 104 -67 170.5t-164 66.5t-164 -66.5t-67 -170.5zM33 353q0 106 49 190.5
t131 130.5t181 46t181 -46t131 -130.5t49 -190.5q0 -80 -28.5 -149.5t-77.5 -118t-115 -76t-140 -27.5t-140 27.5t-115 76t-77.5 118t-28.5 149.5z" />
    <glyph glyph-name="obreve" unicode="&#x14f;" horiz-adv-x="618" 
d="M307 572q-79 0 -134.5 51.5t-55.5 124.5h100q0 -37 26 -60.5t65 -23.5q40 0 68.5 24.5t28.5 59.5h100q0 -71 -59 -123.5t-139 -52.5zM163 251q0 -64 42.5 -105t103.5 -41t103.5 41t42.5 105t-42.5 105t-103.5 41t-103.5 -41t-42.5 -105zM33 251q0 117 80 193t196 76
t196 -76t80 -193t-80 -193t-196 -76t-196 76t-80 193z" />
    <glyph glyph-name="Ohungarumlaut" unicode="&#x150;" horiz-adv-x="788" 
d="M627 918l-60 79l-168 -160l48 -60zM401 918l-61 79l-167 -160l48 -60zM163 353q0 -106 67 -173.5t164 -67.5t164 67.5t67 173.5q0 104 -67 170.5t-164 66.5t-164 -66.5t-67 -170.5zM33 353q0 106 49 190.5t131 130.5t181 46t181 -46t131 -130.5t49 -190.5
q0 -80 -28.5 -149.5t-77.5 -118t-115 -76t-140 -27.5t-140 27.5t-115 76t-77.5 118t-28.5 149.5z" />
    <glyph glyph-name="ohungarumlaut" unicode="&#x151;" horiz-adv-x="618" 
d="M541 709l-60 79l-168 -160l48 -60zM315 709l-61 79l-167 -160l48 -60zM163 251q0 -64 42.5 -105t103.5 -41t103.5 41t42.5 105t-42.5 105t-103.5 41t-103.5 -41t-42.5 -105zM33 251q0 117 80 193t196 76t196 -76t80 -193t-80 -193t-196 -76t-196 76t-80 193z" />
    <glyph glyph-name="OE" unicode="&#x152;" horiz-adv-x="1174" 
d="M755 415h362v-128h-362v-159h386v-128h-516v700h516v-128h-386v-157zM163 353q0 -103 66 -172t165 -69t165 69t66 172q0 102 -66 169.5t-165 67.5t-165 -67.5t-66 -169.5zM33 353q0 103 45.5 187t125 132t176.5 48q144 0 241 -105t97 -262q0 -104 -44 -189t-121.5 -133.5
t-172.5 -48.5q-97 0 -176.5 48.5t-125 133.5t-45.5 189z" />
    <glyph glyph-name="oe" unicode="&#x153;" horiz-adv-x="1030" 
d="M864 307q-9 42 -47 67.5t-90 25.5q-50 0 -86 -25t-47 -68h270zM594 197q11 -43 48 -69t88 -26q40 0 73 16t49 44l119 -45q-32 -62 -95.5 -98.5t-137.5 -36.5q-109 0 -182 76.5t-73 193.5q0 116 71.5 192t177.5 76q111 0 188 -78t77 -193q0 -21 -6 -52h-397zM163 251
q0 -63 42 -104.5t104 -41.5t104 41.5t42 104.5t-42 104.5t-104 41.5t-104 -41.5t-42 -104.5zM33 251q0 115 77 192t189 77q109 0 182.5 -76.5t73.5 -192.5t-73.5 -192.5t-182.5 -76.5q-112 0 -189 77t-77 192z" />
    <glyph glyph-name="Racute" unicode="&#x154;" horiz-adv-x="641" 
d="M469 932l-87 85l-156 -166l70 -74zM352 572h-169v-199h169q51 0 85.5 29t34.5 72q0 42 -34 70t-86 28zM426 260l182 -260h-150l-174 247h-101v-247h-130v700h309q108 0 177 -63t69 -166q0 -82 -51 -140.5t-131 -70.5z" />
    <glyph glyph-name="racute" unicode="&#x155;" horiz-adv-x="373" 
d="M371 723l-87 85l-156 -166l70 -74zM53 0v500h130v-500h-130zM325 378q-59 0 -100.5 -32.5t-41.5 -79.5h-51q0 103 54.5 172.5t134.5 69.5h28v-130h-24z" />
    <glyph glyph-name="uni0156" unicode="&#x156;" horiz-adv-x="641" 
d="M355 -259q0 -30 -21 -52.5t-53 -22.5t-54 21.5t-22 52.5q0 27 15 49l115 164l47 -36l-75 -105q22 -9 35 -28.5t13 -42.5zM352 572h-169v-199h169q51 0 85.5 29t34.5 72q0 42 -34 70t-86 28zM426 260l182 -260h-150l-174 247h-101v-247h-130v700h309q108 0 177 -63
t69 -166q0 -82 -51 -140.5t-131 -70.5z" />
    <glyph glyph-name="uni0157" unicode="&#x157;" horiz-adv-x="373" 
d="M160 -259q0 -30 -21 -52.5t-53 -22.5t-54 21.5t-22 52.5q0 27 15 49l115 164l47 -36l-75 -105q22 -9 35 -28.5t13 -42.5zM53 0v500h130v-500h-130zM325 378q-59 0 -100.5 -32.5t-41.5 -79.5h-51q0 103 54.5 172.5t134.5 69.5h28v-130h-24z" />
    <glyph glyph-name="Rcaron" unicode="&#x158;" horiz-adv-x="641" 
d="M335 770l174 136l-55 76l-136 -108l-136 108l-55 -76l174 -136h34zM352 572h-169v-199h169q51 0 85.5 29t34.5 72q0 42 -34 70t-86 28zM426 260l182 -260h-150l-174 247h-101v-247h-130v700h309q108 0 177 -63t69 -166q0 -82 -51 -140.5t-131 -70.5z" />
    <glyph glyph-name="rcaron" unicode="&#x159;" horiz-adv-x="373" 
d="M237 561l174 136l-55 76l-136 -108l-136 108l-55 -76l174 -136h34zM53 0v500h130v-500h-130zM325 378q-59 0 -100.5 -32.5t-41.5 -79.5h-51q0 103 54.5 172.5t134.5 69.5h28v-130h-24z" />
    <glyph glyph-name="Sacute" unicode="&#x15a;" horiz-adv-x="587" 
d="M429 932l-87 85l-156 -166l70 -74zM284 286q-118 21 -180.5 77.5t-62.5 141.5q0 91 67 149.5t170 58.5q91 0 164 -47t105 -126l-125 -46q-19 44 -56.5 69.5t-83.5 25.5q-47 0 -76.5 -23t-29.5 -59q0 -34 31 -55t101 -34q117 -22 181.5 -80.5t64.5 -142.5
q0 -90 -69.5 -148t-177.5 -58q-91 0 -166 45.5t-108 122.5l126 60q19 -49 58 -76.5t87 -27.5q50 0 82 24t32 60q0 34 -32.5 55.5t-101.5 33.5z" />
    <glyph glyph-name="sacute" unicode="&#x15b;" horiz-adv-x="487" 
d="M400 723l-87 85l-156 -166l70 -74zM237 193q-194 27 -194 157q0 71 52.5 117t134.5 46q71 0 129.5 -37t84.5 -98l-126 -38q-11 28 -34 44t-51 16q-27 0 -44 -12.5t-17 -32t21 -31.5t67 -19q93 -12 143.5 -53.5t50.5 -104.5q0 -69 -55.5 -113.5t-139.5 -44.5
q-76 0 -137.5 36t-88.5 97l125 40q13 -31 39 -49t59 -18q29 0 48.5 13.5t19.5 33.5t-20.5 32t-66.5 19z" />
    <glyph glyph-name="Scircumflex" unicode="&#x15c;" horiz-adv-x="587" 
d="M261 982l-174 -135l55 -77l136 109l136 -109l55 77l-174 135h-34zM284 286q-118 21 -180.5 77.5t-62.5 141.5q0 91 67 149.5t170 58.5q91 0 164 -47t105 -126l-125 -46q-19 44 -56.5 69.5t-83.5 25.5q-47 0 -76.5 -23t-29.5 -59q0 -34 31 -55t101 -34
q117 -22 181.5 -80.5t64.5 -142.5q0 -90 -69.5 -148t-177.5 -58q-91 0 -166 45.5t-108 122.5l126 60q19 -49 58 -76.5t87 -27.5q50 0 82 24t32 60q0 34 -32.5 55.5t-101.5 33.5z" />
    <glyph glyph-name="scircumflex" unicode="&#x15d;" horiz-adv-x="487" 
d="M232 773l-174 -135l55 -77l136 109l136 -109l55 77l-174 135h-34zM237 193q-194 27 -194 157q0 71 52.5 117t134.5 46q71 0 129.5 -37t84.5 -98l-126 -38q-11 28 -34 44t-51 16q-27 0 -44 -12.5t-17 -32t21 -31.5t67 -19q93 -12 143.5 -53.5t50.5 -104.5
q0 -69 -55.5 -113.5t-139.5 -44.5q-76 0 -137.5 36t-88.5 97l125 40q13 -31 39 -49t59 -18q29 0 48.5 13.5t19.5 33.5t-20.5 32t-66.5 19z" />
    <glyph glyph-name="Scedilla" unicode="&#x15e;" horiz-adv-x="587" 
d="M345 -75q28 32 66 32q41 0 69.5 -37t28.5 -89q0 -61 -40 -99.5t-105 -38.5q-53 0 -93.5 28t-55.5 75l98 36q4 -19 17 -29t33 -10t32 11.5t12 29.5q0 17 -9 28t-23 11q-17 0 -30 -15l-100 32v132h100v-97zM284 286q-118 21 -180.5 77.5t-62.5 141.5q0 91 67 149.5
t170 58.5q91 0 164 -47t105 -126l-125 -46q-19 44 -56.5 69.5t-83.5 25.5q-47 0 -76.5 -23t-29.5 -59q0 -34 31 -55t101 -34q117 -22 181.5 -80.5t64.5 -142.5q0 -90 -69.5 -148t-177.5 -58q-91 0 -166 45.5t-108 122.5l126 60q19 -49 58 -76.5t87 -27.5q50 0 82 24t32 60
q0 34 -32.5 55.5t-101.5 33.5z" />
    <glyph glyph-name="scedilla" unicode="&#x15f;" horiz-adv-x="487" 
d="M295 -75q28 32 66 32q41 0 69.5 -37t28.5 -89q0 -61 -40 -99.5t-105 -38.5q-53 0 -93.5 28t-55.5 75l98 36q4 -19 17 -29t33 -10t32 11.5t12 29.5q0 17 -9 28t-23 11q-17 0 -30 -15l-100 32v132h100v-97zM237 193q-194 27 -194 157q0 71 52.5 117t134.5 46
q71 0 129.5 -37t84.5 -98l-126 -38q-11 28 -34 44t-51 16q-27 0 -44 -12.5t-17 -32t21 -31.5t67 -19q93 -12 143.5 -53.5t50.5 -104.5q0 -69 -55.5 -113.5t-139.5 -44.5q-76 0 -137.5 36t-88.5 97l125 40q13 -31 39 -49t59 -18q29 0 48.5 13.5t19.5 33.5t-20.5 32t-66.5 19z
" />
    <glyph glyph-name="Scaron" unicode="&#x160;" horiz-adv-x="587" 
d="M295 770l174 136l-55 76l-136 -108l-136 108l-55 -76l174 -136h34zM284 286q-118 21 -180.5 77.5t-62.5 141.5q0 91 67 149.5t170 58.5q91 0 164 -47t105 -126l-125 -46q-19 44 -56.5 69.5t-83.5 25.5q-47 0 -76.5 -23t-29.5 -59q0 -34 31 -55t101 -34
q117 -22 181.5 -80.5t64.5 -142.5q0 -90 -69.5 -148t-177.5 -58q-91 0 -166 45.5t-108 122.5l126 60q19 -49 58 -76.5t87 -27.5q50 0 82 24t32 60q0 34 -32.5 55.5t-101.5 33.5z" />
    <glyph glyph-name="scaron" unicode="&#x161;" horiz-adv-x="487" 
d="M266 561l174 136l-55 76l-136 -108l-136 108l-55 -76l174 -136h34zM237 193q-194 27 -194 157q0 71 52.5 117t134.5 46q71 0 129.5 -37t84.5 -98l-126 -38q-11 28 -34 44t-51 16q-27 0 -44 -12.5t-17 -32t21 -31.5t67 -19q93 -12 143.5 -53.5t50.5 -104.5
q0 -69 -55.5 -113.5t-139.5 -44.5q-76 0 -137.5 36t-88.5 97l125 40q13 -31 39 -49t59 -18q29 0 48.5 13.5t19.5 33.5t-20.5 32t-66.5 19z" />
    <glyph glyph-name="uni0162" unicode="&#x162;" horiz-adv-x="607" 
d="M339 -75q28 32 66 32q41 0 69.5 -37t28.5 -89q0 -61 -40 -99.5t-105 -38.5q-53 0 -93.5 28t-55.5 75l98 36q4 -19 17 -29t33 -10t32 11.5t12 29.5q0 17 -9 28t-23 11q-17 0 -30 -15l-100 32v132h100v-97zM582 700v-128h-213v-572h-130v572h-214v128h557z" />
    <glyph glyph-name="uni0163" unicode="&#x163;" horiz-adv-x="415" 
d="M325 -75q28 32 66 32q41 0 69.5 -37t28.5 -89q0 -61 -40 -99.5t-105 -38.5q-53 0 -93.5 28t-55.5 75l98 36q4 -19 17 -29t33 -10t32 11.5t12 29.5q0 17 -9 28t-23 11q-17 0 -30 -15l-100 32v132h100v-97zM316 121h73v-121h-92q-85 0 -133.5 42t-48.5 116v222h-88v120h88
v139l130 28v-167h144v-120h-144v-192q0 -31 18.5 -49t52.5 -18z" />
    <glyph glyph-name="Tcaron" unicode="&#x164;" horiz-adv-x="607" 
d="M321 773l174 136l-55 76l-136 -108l-136 108l-55 -76l174 -136h34zM582 700v-128h-213v-572h-130v572h-214v128h557z" />
    <glyph glyph-name="tcaron" unicode="&#x165;" horiz-adv-x="415" 
d="M372 819l117 -33l-60 -241l-111 31zM316 121h73v-121h-92q-85 0 -133.5 42t-48.5 116v222h-88v120h88v139l130 28v-167h144v-120h-144v-192q0 -31 18.5 -49t52.5 -18z" />
    <glyph glyph-name="Tbar" unicode="&#x166;" horiz-adv-x="607" 
d="M495 380v-127h-388v127h388zM582 700v-128h-213v-572h-130v572h-214v128h557z" />
    <glyph glyph-name="tbar" unicode="&#x167;" horiz-adv-x="415" 
d="M387 320v-100h-357v100h357zM316 121h73v-121h-92q-85 0 -133.5 40.5t-48.5 110.5v242h-88v107h88v139l130 28v-167h144v-107h-144v-218q0 -25 18.5 -39.5t52.5 -14.5z" />
    <glyph glyph-name="Utilde" unicode="&#x168;" horiz-adv-x="690" 
d="M269 938q-52 0 -82.5 -36t-40.5 -101l84 -18q11 66 45 66q19 0 47 -26q55 -46 101 -46q50 0 81 36t40 101l-84 18q-12 -63 -49 -63q-23 0 -49 25q-28 24 -48.5 34t-44.5 10zM345 -11q-124 0 -208 82.5t-84 208.5v420h130v-410q0 -80 45.5 -125.5t116.5 -45.5t116.5 45.5
t45.5 125.5v410h130v-420q0 -126 -84 -208.5t-208 -82.5z" />
    <glyph glyph-name="utilde" unicode="&#x169;" horiz-adv-x="547" 
d="M193 729q-52 0 -82.5 -36t-40.5 -101l84 -18q11 66 45 66q19 0 47 -26q55 -46 101 -46q50 0 81 36t40 101l-84 18q-12 -63 -49 -63q-23 0 -49 25q-28 24 -48.5 34t-44.5 10zM495 500v-500h-130v500h130zM183 500v-296q0 -43 24.5 -67.5t62.5 -24.5q40 0 67.5 25t27.5 60
h51q0 -88 -54 -148t-134 -60q-75 0 -125 50t-50 135v326h130z" />
    <glyph glyph-name="Umacron" unicode="&#x16a;" horiz-adv-x="690" 
d="M515 887v-100h-332v100h332zM345 -11q-124 0 -208 82.5t-84 208.5v420h130v-410q0 -80 45.5 -125.5t116.5 -45.5t116.5 45.5t45.5 125.5v410h130v-420q0 -126 -84 -208.5t-208 -82.5z" />
    <glyph glyph-name="umacron" unicode="&#x16b;" horiz-adv-x="547" 
d="M439 678v-100h-332v100h332zM495 500v-500h-130v500h130zM183 500v-296q0 -43 24.5 -67.5t62.5 -24.5q40 0 67.5 25t27.5 60h51q0 -88 -54 -148t-134 -60q-75 0 -125 50t-50 135v326h130z" />
    <glyph glyph-name="Ubreve" unicode="&#x16c;" horiz-adv-x="690" 
d="M344 781q-79 0 -134.5 51.5t-55.5 124.5h100q0 -37 26 -60.5t65 -23.5q40 0 68.5 24.5t28.5 59.5h100q0 -71 -59 -123.5t-139 -52.5zM345 -11q-124 0 -208 82.5t-84 208.5v420h130v-410q0 -80 45.5 -125.5t116.5 -45.5t116.5 45.5t45.5 125.5v410h130v-420
q0 -126 -84 -208.5t-208 -82.5z" />
    <glyph glyph-name="ubreve" unicode="&#x16d;" horiz-adv-x="547" 
d="M268 572q-79 0 -134.5 51.5t-55.5 124.5h100q0 -37 26 -60.5t65 -23.5q40 0 68.5 24.5t28.5 59.5h100q0 -71 -59 -123.5t-139 -52.5zM495 500v-500h-130v500h130zM183 500v-296q0 -43 24.5 -67.5t62.5 -24.5q40 0 67.5 25t27.5 60h51q0 -88 -54 -148t-134 -60
q-75 0 -125 50t-50 135v326h130z" />
    <glyph glyph-name="Uring" unicode="&#x16e;" horiz-adv-x="690" 
d="M295 912q0 -22 14.5 -36t35.5 -14t35.5 14t14.5 36t-14.5 36t-35.5 14t-35.5 -14t-14.5 -36zM210 912.5q0 58.5 39 96.5t96 38t96 -38t39 -96.5t-39 -97t-96 -38.5t-96 38.5t-39 97zM345 -11q-124 0 -208 82.5t-84 208.5v420h130v-410q0 -80 45.5 -125.5t116.5 -45.5
t116.5 45.5t45.5 125.5v410h130v-420q0 -126 -84 -208.5t-208 -82.5z" />
    <glyph glyph-name="uring" unicode="&#x16f;" horiz-adv-x="547" 
d="M219 703q0 -22 14.5 -36t35.5 -14t35.5 14t14.5 36t-14.5 36t-35.5 14t-35.5 -14t-14.5 -36zM134 703.5q0 58.5 39 96.5t96 38t96 -38t39 -96.5t-39 -97t-96 -38.5t-96 38.5t-39 97zM495 500v-500h-130v500h130zM183 500v-296q0 -43 24.5 -67.5t62.5 -24.5q40 0 67.5 25
t27.5 60h51q0 -88 -54 -148t-134 -60q-75 0 -125 50t-50 135v326h130z" />
    <glyph glyph-name="Uhungarumlaut" unicode="&#x170;" horiz-adv-x="690" 
d="M578 918l-60 79l-168 -160l48 -60zM352 918l-61 79l-167 -160l48 -60zM345 -11q-124 0 -208 82.5t-84 208.5v420h130v-410q0 -80 45.5 -125.5t116.5 -45.5t116.5 45.5t45.5 125.5v410h130v-420q0 -126 -84 -208.5t-208 -82.5z" />
    <glyph glyph-name="uhungarumlaut" unicode="&#x171;" horiz-adv-x="547" 
d="M502 709l-60 79l-168 -160l48 -60zM276 709l-61 79l-167 -160l48 -60zM495 500v-500h-130v500h130zM183 500v-296q0 -43 24.5 -67.5t62.5 -24.5q40 0 67.5 25t27.5 60h51q0 -88 -54 -148t-134 -60q-75 0 -125 50t-50 135v326h130z" />
    <glyph glyph-name="Uogonek" unicode="&#x172;" horiz-adv-x="690" 
d="M299 -25v31h91v-55l-64 -43q-39 -26 -39 -60q0 -18 10.5 -29.5t27.5 -11.5q34 0 42 35l89 -18q-13 -50 -47.5 -79t-82.5 -29q-59 0 -96 33.5t-37 85.5q0 35 17.5 62t63.5 61zM345 -11q-124 0 -208 82.5t-84 208.5v420h130v-410q0 -80 45.5 -125.5t116.5 -45.5t116.5 45.5
t45.5 125.5v410h130v-420q0 -126 -84 -208.5t-208 -82.5z" />
    <glyph glyph-name="uogonek" unicode="&#x173;" horiz-adv-x="547" 
d="M393 -25v31h91v-55l-64 -43q-39 -26 -39 -60q0 -18 10.5 -29.5t27.5 -11.5q34 0 42 35l89 -18q-13 -50 -47.5 -79t-82.5 -29q-59 0 -96 33.5t-37 85.5q0 35 17.5 62t63.5 61zM495 500v-500h-130v500h130zM183 500v-296q0 -43 24.5 -67.5t62.5 -24.5q40 0 67.5 25t27.5 60
h51q0 -88 -54 -148t-134 -60q-75 0 -125 50t-50 135v326h130z" />
    <glyph glyph-name="Wcircumflex" unicode="&#x174;" horiz-adv-x="1042" 
d="M501 982l-174 -135l55 -77l136 109l136 -109l55 77l-174 135h-34zM871 700h143l-171 -700h-188l-134 511l-121 -511h-188l-183 700h142l140 -544l138 544h145l147 -544z" />
    <glyph glyph-name="wcircumflex" unicode="&#x175;" horiz-adv-x="886" 
d="M424 773l-174 -135l55 -77l136 109l136 -109l55 77l-174 135h-34zM722 500h136l-141 -500h-175l-99 332l-92 -332h-175l-147 500h135l104 -377l109 377h132l112 -377z" />
    <glyph glyph-name="Ycircumflex" unicode="&#x176;" horiz-adv-x="683" 
d="M332 982l-174 -135l55 -77l136 109l136 -109l55 77l-174 135h-34zM287 0h130v227l241 473h-152l-154 -316l-173 316h-153l261 -473v-227z" />
    <glyph glyph-name="ycircumflex" unicode="&#x177;" horiz-adv-x="593" 
d="M279 773l-174 -135l55 -77l136 109l136 -109l55 77l-174 135h-34zM426 500l-129 -347l-130 347h-138l194 -487l-79 -213h138l283 700h-139z" />
    <glyph glyph-name="Ydieresis" unicode="&#x178;" horiz-adv-x="683" 
d="M386 855.5q0 33.5 22.5 56.5t56 23t56 -23t22.5 -56.5t-22.5 -56t-56 -22.5t-56 22.5t-22.5 56zM152.5 855.5q0.5 33.5 23 56.5t56 23t56 -23t22.5 -56.5t-22.5 -56t-56 -22.5t-56.5 22.5t-22.5 56zM287 0h130v227l241 473h-152l-154 -316l-173 316h-153l261 -473v-227z
" />
    <glyph glyph-name="Zacute" unicode="&#x179;" horiz-adv-x="628" 
d="M466 932l-87 85l-156 -166l70 -74zM588 0v127h-395l395 423v150h-548v-127h395l-395 -417v-156h548z" />
    <glyph glyph-name="zacute" unicode="&#x17a;" horiz-adv-x="488" 
d="M401 723l-87 85l-156 -166l70 -74zM455 0v114h-276l276 251v135h-422v-114h256l-256 -251v-135h422z" />
    <glyph glyph-name="Zdotaccent" unicode="&#x17b;" horiz-adv-x="628" 
d="M236 855.5q0 33.5 23 56.5t56 23t56 -23t23 -56.5t-23 -56t-56 -22.5t-56 22.5t-23 56zM588 0v127h-395l395 423v150h-548v-127h395l-395 -417v-156h548z" />
    <glyph glyph-name="zdotaccent" unicode="&#x17c;" horiz-adv-x="488" 
d="M171 646.5q0 33.5 23 56.5t56 23t56 -23t23 -56.5t-23 -56t-56 -22.5t-56 22.5t-23 56zM455 0v114h-276l276 251v135h-422v-114h256l-256 -251v-135h422z" />
    <glyph glyph-name="Zcaron" unicode="&#x17d;" horiz-adv-x="628" 
d="M332 770l174 136l-55 76l-136 -108l-136 108l-55 -76l174 -136h34zM588 0v127h-395l395 423v150h-548v-127h395l-395 -417v-156h548z" />
    <glyph glyph-name="zcaron" unicode="&#x17e;" horiz-adv-x="488" 
d="M267 561l174 136l-55 76l-136 -108l-136 108l-55 -76l174 -136h34zM455 0v114h-276l276 251v135h-422v-114h256l-256 -251v-135h422z" />
    <glyph glyph-name="Ohorn" unicode="&#x1a0;" horiz-adv-x="803" 
d="M569 578v83h60q49 0 49 42q0 26 -27 46l71 60q50 -31 50 -99q0 -55 -34.5 -93.5t-82.5 -38.5h-86zM163 353q0 -106 67 -173.5t164 -67.5t164 67.5t67 173.5q0 104 -67 170.5t-164 66.5t-164 -66.5t-67 -170.5zM33 353q0 106 49 190.5t131 130.5t181 46t181 -46
t131 -130.5t49 -190.5q0 -80 -28.5 -149.5t-77.5 -118t-115 -76t-140 -27.5t-140 27.5t-115 76t-77.5 118t-28.5 149.5z" />
    <glyph glyph-name="ohorn" unicode="&#x1a1;" horiz-adv-x="676" 
d="M468 370v83h60q49 0 49 42q0 26 -27 46l71 60q50 -31 50 -99q0 -55 -34.5 -93.5t-82.5 -38.5h-86zM163 251q0 -64 42.5 -105t103.5 -41t103.5 41t42.5 105t-42.5 105t-103.5 41t-103.5 -41t-42.5 -105zM33 251q0 117 80 193t196 76t196 -76t80 -193t-80 -193t-196 -76
t-196 76t-80 193z" />
    <glyph glyph-name="Uhorn" unicode="&#x1af;" horiz-adv-x="783" 
d="M589 578v83h60q49 0 49 42q0 26 -27 46l71 60q50 -31 50 -99q0 -55 -34.5 -93.5t-82.5 -38.5h-86zM345 -11q-124 0 -208 82.5t-84 208.5v420h130v-410q0 -80 45.5 -125.5t116.5 -45.5t116.5 45.5t45.5 125.5v410h130v-420q0 -126 -84 -208.5t-208 -82.5z" />
    <glyph glyph-name="uhorn" unicode="&#x1b0;" horiz-adv-x="658" 
d="M458 370v83h60q49 0 49 42q0 26 -27 46l71 60q50 -31 50 -99q0 -55 -34.5 -93.5t-82.5 -38.5h-86zM495 500v-500h-130v500h130zM183 500v-296q0 -43 24.5 -67.5t62.5 -24.5q40 0 67.5 25t27.5 60h51q0 -88 -54 -148t-134 -60q-75 0 -125 50t-50 135v326h130z" />
    <glyph glyph-name="uni0237" unicode="&#x237;" horiz-adv-x="231" 
d="M-21 -82q34 0 53 24.5t19 62.5v495h129v-536q0 -70 -49.5 -122t-127.5 -52h-49v128h25z" />
    <glyph glyph-name="uni02BC" unicode="&#x2bc;" horiz-adv-x="198" 
d="M82 770l117 -33l-59 -241l-112 31z" />
    <glyph glyph-name="gravecomb" unicode="&#x300;" horiz-adv-x="264" 
d="M0 655l87 78l163 -159l-84 -74z" />
    <glyph glyph-name="acutecomb" unicode="&#x301;" horiz-adv-x="264" 
d="M256 655l-87 85l-156 -166l70 -74z" />
    <glyph glyph-name="uni0302" unicode="&#x302;" horiz-adv-x="388" 
d="M177 705l-174 -135l55 -77l136 109l136 -109l55 77l-174 135h-34z" />
    <glyph glyph-name="tildecomb" unicode="&#x303;" horiz-adv-x="404" 
d="M126 661q-52 0 -82.5 -36t-40.5 -101l84 -18q11 66 45 66q19 0 47 -26q55 -46 101 -46q50 0 81 36t40 101l-84 18q-12 -63 -49 -63q-23 0 -49 25q-28 24 -48.5 34t-44.5 10z" />
    <glyph glyph-name="uni0304" unicode="&#x304;" horiz-adv-x="352" 
d="M342 610v-100h-332v100h332z" />
    <glyph glyph-name="uni0306" unicode="&#x306;" horiz-adv-x="338" 
d="M165 504q-79 0 -134.5 51.5t-55.5 124.5h100q0 -37 26 -60.5t65 -23.5q40 0 68.5 24.5t28.5 59.5h100q0 -71 -59 -123.5t-139 -52.5z" />
    <glyph glyph-name="uni0307" unicode="&#x307;" horiz-adv-x="170" 
d="M6 578.5q0 33.5 23 56.5t56 23t56 -23t23 -56.5t-23 -56t-56 -22.5t-56 22.5t-23 56z" />
    <glyph glyph-name="uni0308" unicode="&#x308;" horiz-adv-x="390" 
d="M233 578.5q0 33.5 22.5 56.5t56 23t56 -23t22.5 -56.5t-22.5 -56t-56 -22.5t-56 22.5t-22.5 56zM-0.5 578.5q0.5 33.5 23 56.5t56 23t56 -23t22.5 -56.5t-22.5 -56t-56 -22.5t-56.5 22.5t-22.5 56z" />
    <glyph glyph-name="hookabovecomb" unicode="&#x309;" horiz-adv-x="260" 
d="M134 483l-53 72l52 34q33 20 33 50q0 20 -13 32.5t-33 12.5q-37 0 -45 -36l-83 22q13 47 47.5 74t82.5 27q59 0 96 -37t37 -95q0 -40 -20 -68.5t-64 -61.5z" />
    <glyph glyph-name="uni030A" unicode="&#x30a;" horiz-adv-x="298" 
d="M99 635q0 -22 14.5 -36t35.5 -14t35.5 14t14.5 36t-14.5 36t-35.5 14t-35.5 -14t-14.5 -36zM14 635.5q0 58.5 39 96.5t96 38t96 -38t39 -96.5t-39 -97t-96 -38.5t-96 38.5t-39 97z" />
    <glyph glyph-name="uni030B" unicode="&#x30b;" horiz-adv-x="424" 
d="M438 641l-60 79l-168 -160l48 -60zM212 641l-61 79l-167 -160l48 -60z" />
    <glyph glyph-name="uni030C" unicode="&#x30c;" horiz-adv-x="388" 
d="M211 493l174 136l-55 76l-136 -108l-136 108l-55 -76l174 -136h34z" />
    <glyph glyph-name="uni0312" unicode="&#x312;" horiz-adv-x="170" 
d="M162 575q0 -30 -20.5 -52.5t-52.5 -22.5t-54.5 21.5t-22.5 52.5q0 27 15 49l115 164l47 -36l-75 -105q22 -9 35 -28.5t13 -42.5z" />
    <glyph glyph-name="uni0313" unicode="&#x313;" horiz-adv-x="170" 
d="M39 712q0 30 21 52.5t53 22.5t54 -21.5t22 -52.5q0 -27 -15 -49l-115 -164l-47 36l75 105q-22 9 -35 28.5t-13 42.5z" />
    <glyph glyph-name="uni0315" unicode="&#x315;" horiz-adv-x="170" 
d="M119 743l117 -33l-60 -241l-111 31z" />
    <glyph glyph-name="uni031B" unicode="&#x31b;" horiz-adv-x="247" 
d="M46 442v83h60q49 0 49 42q0 26 -27 46l71 60q50 -31 50 -99q0 -55 -34.5 -93.5t-82.5 -38.5h-86z" />
    <glyph glyph-name="dotbelowcomb" unicode="&#x323;" horiz-adv-x="170" 
d="M6 -149.5q0 33.5 23 56t56 22.5t56 -22.5t23 -56t-23 -56.5t-56 -23t-56 23t-23 56.5z" />
    <glyph glyph-name="uni0326" unicode="&#x326;" horiz-adv-x="170" 
d="M117 -259q0 -30 -21 -52.5t-53 -22.5t-54 21.5t-22 52.5q0 27 15 49l115 164l47 -36l-75 -105q22 -9 35 -28.5t13 -42.5z" />
    <glyph glyph-name="uni0327" unicode="&#x327;" horiz-adv-x="243" 
d="M110 -75q28 32 66 32q41 0 69.5 -37t28.5 -89q0 -61 -40 -99.5t-105 -38.5q-53 0 -93.5 28t-55.5 75l98 36q4 -19 17 -29t33 -10t32 11.5t12 29.5q0 17 -9 28t-23 11q-17 0 -30 -15l-100 32v132h100v-97z" />
    <glyph glyph-name="uni0328" unicode="&#x328;" horiz-adv-x="247" 
d="M94 -25v31h91v-55l-64 -43q-39 -26 -39 -60q0 -18 10.5 -29.5t27.5 -11.5q34 0 42 35l89 -18q-13 -50 -47.5 -79t-82.5 -29q-59 0 -96 33.5t-37 85.5q0 35 17.5 62t63.5 61z" />
    <glyph glyph-name="uni0400" unicode="&#x400;" horiz-adv-x="579" 
d="M126 932l87 78l163 -159l-84 -74zM183 415h336v-128h-336v-159h360v-128h-490v700h490v-128h-360v-157z" />
    <glyph glyph-name="uni0401" unicode="&#x401;" horiz-adv-x="579" 
d="M322 855.5q0 33.5 22.5 56.5t56 23t56 -23t22.5 -56.5t-22.5 -56t-56 -22.5t-56 22.5t-22.5 56zM88.5 855.5q0.5 33.5 23 56.5t56 23t56 -23t22.5 -56.5t-22.5 -56t-56 -22.5t-56.5 22.5t-22.5 56zM183 415h336v-128h-336v-159h360v-128h-490v700h490v-128h-360v-157z
" />
    <glyph glyph-name="uni0402" unicode="&#x402;" horiz-adv-x="756" 
d="M494 415q93 0 158 -61t65 -149t-61 -146.5t-152 -58.5h-78v128h68q40 0 66.5 22t26.5 55q0 35 -26.5 58.5t-66.5 23.5h-185v-287h-130v573h-152v127h564v-127h-282v-158h185z" />
    <glyph glyph-name="uni0403" unicode="&#x403;" horiz-adv-x="583" 
d="M456 932l-87 85l-156 -166l70 -74zM53 0h130v579h370v121h-500v-700z" />
    <glyph glyph-name="uni0404" unicode="&#x404;" horiz-adv-x="778" 
d="M542 416v-127h-482v127h482zM33 351q0 104 48 188.5t131.5 132.5t184.5 48q112 0 204 -57t139 -156l-130 -47q-29 61 -86 95.5t-128 34.5q-98 0 -165.5 -68t-67.5 -171t67.5 -171t165.5 -68q73 0 131 37t87 102l131 -46q-46 -103 -139.5 -163t-208.5 -60
q-101 0 -184.5 48t-131.5 132.5t-48 188.5z" />
    <glyph glyph-name="uni0405" unicode="&#x405;" horiz-adv-x="540" 
d="M254 286q-106 21 -163.5 77t-57.5 138q0 93 62 152.5t158 59.5q86 0 155 -50.5t99 -135.5l-126 -33q-16 43 -49 68t-74 25q-40 0 -66 -23.5t-26 -60.5q0 -32 27 -52t88 -33q107 -22 166.5 -80t59.5 -141q0 -91 -62 -149.5t-159 -58.5q-85 0 -153.5 47t-99.5 126l126 46
q16 -43 49 -68t73 -25q41 0 67 24t26 60q0 33 -29 54t-91 33z" />
    <glyph glyph-name="uni0406" unicode="&#x406;" 
d="M183 0h-130v700h130v-700z" />
    <glyph glyph-name="uni0407" unicode="&#x407;" 
d="M155 855.5q0 33.5 22.5 56.5t56 23t56 -23t22.5 -56.5t-22.5 -56t-56 -22.5t-56 22.5t-22.5 56zM-78.5 855.5q0.5 33.5 23 56.5t56 23t56 -23t22.5 -56.5t-22.5 -56t-56 -22.5t-56.5 22.5t-22.5 56zM183 0h-130v700h130v-700z" />
    <glyph glyph-name="uni0408" unicode="&#x408;" horiz-adv-x="634" 
d="M33 189l121 47q18 -57 56 -87t93 -30q66 0 107.5 41.5t41.5 116.5v423h130v-433q0 -121 -80.5 -199.5t-198.5 -78.5q-99 0 -170 53t-100 147z" />
    <glyph glyph-name="uni0409" unicode="&#x409;" horiz-adv-x="1179" 
d="M57 121h-25v-121h42q113 0 183.5 72.5t70.5 171.5v335h207v-579h383q94 0 156.5 63.5t62.5 158.5q0 92 -67 155.5t-162 63.5h-243v259h-466v-428q0 -66 -37 -108.5t-105 -42.5zM665 313h243q42 0 70.5 -26t28.5 -65q0 -41 -28.5 -67.5t-70.5 -26.5h-243v185z" />
    <glyph glyph-name="uni040A" unicode="&#x40a;" horiz-adv-x="1031" 
d="M560 700h-130v-700h349q91 0 151.5 61.5t60.5 153.5q0 89 -64.5 151t-157.5 62h-209v272zM769 128h-209v172h209q39 0 66 -24.5t27 -60.5q0 -37 -26.5 -62t-66.5 -25zM440 425h-257v275h-130v-700h130v297h257v128z" />
    <glyph glyph-name="uni040B" unicode="&#x40b;" horiz-adv-x="699" 
d="M657 192v-192h-130v192q0 40 -28.5 67.5t-70.5 27.5h-119v-287h-130v573h-152v127h534v-127h-252v-158h119q96 0 162.5 -65t66.5 -158z" />
    <glyph glyph-name="uni040C" unicode="&#x40c;" horiz-adv-x="659" 
d="M473 932l-87 85l-156 -166l70 -74zM53 0v700h130v-286h31l251 286h168l-308 -351l308 -349h-168l-251 281h-31v-281h-130z" />
    <glyph glyph-name="uni040D" unicode="&#x40d;" horiz-adv-x="693" 
d="M186 932l87 78l163 -159l-84 -74zM640 0h-130v497l-307 -497h-150v700h130v-494l307 494h150v-700z" />
    <glyph glyph-name="uni040E" unicode="&#x40e;" horiz-adv-x="673" 
d="M343 781q-79 0 -134.5 51.5t-55.5 124.5h100q0 -37 26 -60.5t65 -23.5q40 0 68.5 24.5t28.5 59.5h100q0 -71 -59 -123.5t-139 -52.5zM166 0h149l327 700h-152l-139 -327l-167 327h-153l246 -445z" />
    <glyph glyph-name="uni040F" unicode="&#x40f;" horiz-adv-x="719" 
d="M667 0v700h-130v-579h-354v579h-130v-700h239v-175h144v175h231z" />
    <glyph glyph-name="uni0410" unicode="&#x410;" horiz-adv-x="785" 
d="M198 283h392v-122h-392v122zM178 0h-149l278 700h170l280 -700h-149l-214 566z" />
    <glyph glyph-name="uni0411" unicode="&#x411;" horiz-adv-x="684" 
d="M419 421q94 0 160 -61.5t66 -150.5q0 -90 -61.5 -149.5t-154.5 -59.5h-376v700h482v-127h-352v-152h236zM419 128q41 0 68.5 23t27.5 58q0 36 -27.5 60t-68.5 24h-236v-165h236z" />
    <glyph glyph-name="uni0412" unicode="&#x412;" horiz-adv-x="654" 
d="M394 572h-211v-159h215q34 0 57 25t23 61q0 32 -23.5 52.5t-60.5 20.5zM398 289h-215v-161h221q36 0 60 21.5t24 53.5q0 37 -26 61.5t-64 24.5zM416 0h-363v700h353q87 0 144.5 -51.5t57.5 -130.5q0 -52 -24 -96t-66 -68q47 -24 73.5 -68.5t26.5 -99.5q0 -79 -58 -132.5
t-144 -53.5z" />
    <glyph glyph-name="uni0413" unicode="&#x413;" horiz-adv-x="583" 
d="M53 0h130v579h370v121h-500v-700z" />
    <glyph glyph-name="uni0414" unicode="&#x414;" horiz-adv-x="793" 
d="M27 121v-237h129v116h481v-116h130v237h-740zM61 121h-34l15 -90h29q118 0 192.5 71t74.5 169v301h211v-571h130v699h-470v-415q0 -71 -38.5 -117.5t-109.5 -46.5z" />
    <glyph glyph-name="uni0415" unicode="&#x415;" horiz-adv-x="579" 
d="M183 415h336v-128h-336v-159h360v-128h-490v700h490v-128h-360v-157z" />
    <glyph glyph-name="uni0416" unicode="&#x416;" horiz-adv-x="1006" 
d="M438 700h130v-283h64l200 283h146l-247 -348l247 -352h-146l-200 284h-64v-284h-130v284h-63l-206 -284h-140l246 349l-246 351h140l206 -283h63v283z" />
    <glyph glyph-name="uni0417" unicode="&#x417;" horiz-adv-x="562" 
d="M52 571q32 68 94 107.5t138 39.5q96 0 160.5 -56t64.5 -139q0 -49 -24 -90.5t-67 -64.5q51 -26 81 -75t30 -105q0 -89 -69.5 -147.5t-174.5 -58.5q-84 0 -151 40.5t-101 111.5l124 63q16 -43 50.5 -67.5t77.5 -24.5q49 0 81.5 29t32.5 71q0 40 -28.5 67t-70.5 27h-101
v122h101q34 0 56.5 23.5t22.5 58.5q0 39 -28 65.5t-70 26.5q-37 0 -66 -21t-45 -57z" />
    <glyph glyph-name="uni0418" unicode="&#x418;" horiz-adv-x="693" 
d="M640 0h-130v497l-307 -497h-150v700h130v-494l307 494h150v-700z" />
    <glyph glyph-name="uni0419" unicode="&#x419;" horiz-adv-x="693" 
d="M351 781q-79 0 -134.5 51.5t-55.5 124.5h100q0 -37 26 -60.5t65 -23.5q40 0 68.5 24.5t28.5 59.5h100q0 -71 -59 -123.5t-139 -52.5zM640 0h-130v497l-307 -497h-150v700h130v-494l307 494h150v-700z" />
    <glyph glyph-name="uni041A" unicode="&#x41a;" horiz-adv-x="659" 
d="M53 0v700h130v-286h31l251 286h168l-308 -351l308 -349h-168l-251 281h-31v-281h-130z" />
    <glyph glyph-name="uni041B" unicode="&#x41b;" horiz-adv-x="718" 
d="M57 121h-25v-121h42q113 0 183.5 72.5t70.5 171.5v335h207v-579h130v700h-466v-428q0 -66 -37 -108.5t-105 -42.5z" />
    <glyph glyph-name="uni041C" unicode="&#x41c;" horiz-adv-x="836" 
d="M47 0v700h151l220 -419l220 419h151v-700h-129v489l-199 -382h-85l-200 382v-489h-129z" />
    <glyph glyph-name="uni041D" unicode="&#x41d;" horiz-adv-x="693" 
d="M53 0v700h130v-285h327v285h130v-700h-130v287h-327v-287h-130z" />
    <glyph glyph-name="uni041E" unicode="&#x41e;" horiz-adv-x="788" 
d="M163 353q0 -106 67 -173.5t164 -67.5t164 67.5t67 173.5q0 104 -67 170.5t-164 66.5t-164 -66.5t-67 -170.5zM33 353q0 106 49 190.5t131 130.5t181 46t181 -46t131 -130.5t49 -190.5q0 -80 -28.5 -149.5t-77.5 -118t-115 -76t-140 -27.5t-140 27.5t-115 76t-77.5 118
t-28.5 149.5z" />
    <glyph glyph-name="uni041F" unicode="&#x41f;" horiz-adv-x="706" 
d="M53 700v-700h130v579h340v-579h130v700h-600z" />
    <glyph glyph-name="uni0420" unicode="&#x420;" horiz-adv-x="637" 
d="M346 572h-163v-232h163q56 0 94 34t38 84q0 49 -37.5 81.5t-94.5 32.5zM346 212h-163v-212h-130v700h303q108 0 180 -69t72 -173q0 -103 -76.5 -174.5t-185.5 -71.5z" />
    <glyph glyph-name="uni0421" unicode="&#x421;" horiz-adv-x="778" 
d="M33 351q0 104 48 188.5t131.5 132.5t184.5 48q112 0 204 -60.5t139 -165.5l-130 -47q-29 67 -86 105t-128 38q-98 0 -165.5 -68t-67.5 -171t67.5 -171t165.5 -68q73 0 131 40.5t87 111.5l131 -46q-46 -109 -139.5 -172.5t-208.5 -63.5q-101 0 -184.5 48t-131.5 132.5
t-48 188.5z" />
    <glyph glyph-name="uni0422" unicode="&#x422;" horiz-adv-x="607" 
d="M582 700v-128h-213v-572h-130v572h-214v128h557z" />
    <glyph glyph-name="uni0423" unicode="&#x423;" horiz-adv-x="673" 
d="M166 0h149l327 700h-152l-139 -327l-167 327h-153l246 -445z" />
    <glyph glyph-name="uni0424" unicode="&#x424;" horiz-adv-x="801" 
d="M335 0v750h130v-750h-130zM163 385q0 -73 64.5 -117t173 -44t173 44t64.5 117q0 71 -64.5 114t-173 43t-173 -43t-64.5 -114zM33 385q0 125 101 202.5t267 77.5t266.5 -77.5t100.5 -202.5q0 -126 -100.5 -205t-266.5 -79t-267 79t-101 205z" />
    <glyph glyph-name="uni0425" unicode="&#x425;" horiz-adv-x="714" 
d="M688 0h-157l-173 276l-173 -276h-158l223 348l-223 352h158l173 -280l173 280h157l-222 -352z" />
    <glyph glyph-name="uni0426" unicode="&#x426;" horiz-adv-x="746" 
d="M620 128v572h-130v-572h-307v572h-130v-700h534v-129h130v257h-97z" />
    <glyph glyph-name="uni0427" unicode="&#x427;" horiz-adv-x="654" 
d="M601 700v-700h-130v700h130zM183 700v-220q0 -69 39 -108.5t102 -39.5q61 0 104 37.5t43 90.5h52q0 -106 -69.5 -178.5t-171.5 -72.5q-99 0 -164 65.5t-65 175.5v250h130z" />
    <glyph glyph-name="uni0428" unicode="&#x428;" horiz-adv-x="966" 
d="M913 0v700h-130v-572h-233v572h-130v-572h-237v572h-130v-700h860z" />
    <glyph glyph-name="uni0429" unicode="&#x429;" horiz-adv-x="1033" 
d="M913 128v572h-130v-572h-233v572h-130v-572h-237v572h-130v-700h820v-129h130v257h-90z" />
    <glyph glyph-name="uni042A" unicode="&#x42a;" horiz-adv-x="806" 
d="M531 128q45 0 75.5 25.5t30.5 65.5t-30.5 67t-75.5 27h-199v-185h199zM332 700v-259h199q99 0 167.5 -64.5t68.5 -157.5q0 -94 -64.5 -156.5t-161.5 -62.5h-339v573h-172v127h302z" />
    <glyph glyph-name="uni042B" unicode="&#x42b;" horiz-adv-x="855" 
d="M802 0h-130v700h130v-700zM183 700v-259h179q96 0 162.5 -63.5t66.5 -155.5q0 -95 -62.5 -158.5t-156.5 -63.5h-319v700h130zM362 128q43 0 71 26.5t28 67.5q0 39 -28.5 65t-70.5 26h-179v-185h179z" />
    <glyph glyph-name="uni042C" unicode="&#x42c;" horiz-adv-x="690" 
d="M183 700v-259h243q95 0 161.5 -63.5t66.5 -155.5q0 -95 -62 -158.5t-156 -63.5h-383v700h130zM426 128q42 0 70.5 26.5t28.5 67.5q0 39 -28.5 65t-70.5 26h-243v-185h243z" />
    <glyph glyph-name="uni042D" unicode="&#x42d;" horiz-adv-x="778" 
d="M236 286v127h482v-127h-482zM745 351q0 -104 -48 -188.5t-131.5 -132.5t-184.5 -48q-112 0 -204 57t-139 156l130 47q29 -61 86 -95.5t128 -34.5q98 0 165.5 68t67.5 171t-67.5 171t-165.5 68q-73 0 -131 -37t-87 -102l-131 46q46 103 139.5 163t208.5 60
q101 0 184.5 -48t131.5 -132.5t48 -188.5z" />
    <glyph glyph-name="uni042E" unicode="&#x42e;" horiz-adv-x="1091" 
d="M460 353q0 104 67 170.5t164 66.5t164 -66.5t67 -170.5q0 -106 -67 -173.5t-164 -67.5t-164 67.5t-67 173.5zM330 353q0 -80 28.5 -149.5t77 -118t115 -76t140 -27.5t140 27.5t115 76t77 118t28.5 149.5q0 106 -48.5 190.5t-130.5 130.5t-181 46t-181.5 -46t-131 -130.5
t-48.5 -190.5zM373 415h-190v285h-130v-700h130v287h190v128z" />
    <glyph glyph-name="uni042F" unicode="&#x42f;" horiz-adv-x="641" 
d="M296 572q-52 0 -86 -28t-34 -70q0 -43 34.5 -72t85.5 -29h169v199h-169zM222 260q-80 12 -131 70.5t-51 140.5q0 103 69 166t177 63h309v-700h-130v247h-101l-174 -247h-150z" />
    <glyph glyph-name="uni0430" unicode="&#x430;" horiz-adv-x="520" 
d="M337 208l-110 -14q-64 -8 -64 -47q0 -21 17.5 -32.5t49.5 -11.5q48 0 77.5 25t29.5 66h35q0 -88 -52 -146.5t-131 -58.5q-68 0 -112 41.5t-44 106t44 107t120 52.5l140 17v7q0 30 -26 51.5t-63 21.5q-33 0 -58.5 -17.5t-32.5 -45.5l-124 40q20 63 78.5 102t132.5 39
q90 0 156.5 -55t66.5 -130v-326h-130v208z" />
    <glyph glyph-name="uni0431" unicode="&#x431;" horiz-adv-x="610" 
d="M551 661q-55 -52 -207 -72q-77 -11 -122.5 -67t-51.5 -153q26 48 77.5 77t110.5 29q93 0 156 -69t63 -171q0 -109 -74.5 -181t-187.5 -72q-77 0 -139 35t-95 97q-41 77 -41 203q0 172 74 269t210 116q122 16 163 53zM180 237q0 -52 40.5 -88.5t97.5 -36.5q55 0 92 34
t37 86q0 51 -38 84.5t-96 33.5q-57 0 -95 -32t-38 -81z" />
    <glyph glyph-name="uni0432" unicode="&#x432;" horiz-adv-x="584" 
d="M356 386h-173v-86h180q20 0 34 11.5t14 27.5q0 21 -15.5 34t-39.5 13zM366 202h-183v-88h183q23 0 39 13t16 31q0 19 -15.5 31.5t-39.5 12.5zM376 0h-323v500h313q75 0 125 -38.5t50 -96.5q0 -33 -17.5 -60.5t-48.5 -41.5q35 -18 55.5 -51.5t20.5 -73.5q0 -59 -50 -98.5
t-125 -39.5z" />
    <glyph glyph-name="uni0433" unicode="&#x433;" horiz-adv-x="453" 
d="M53 0h130v379h237v121h-367v-500z" />
    <glyph glyph-name="uni0434" unicode="&#x434;" horiz-adv-x="641" 
d="M27 121v-237h129v116h329v-116h130v237h-588zM51 121h-19v-81h29q96 0 156.5 51.5t60.5 122.5v158h137v-371h130v499h-396v-272q0 -46 -25.5 -76.5t-72.5 -30.5z" />
    <glyph glyph-name="uni0435" unicode="&#x435;" horiz-adv-x="594" 
d="M431 303q-9 43 -45 68.5t-86 25.5q-48 0 -82.5 -25t-44.5 -69h258zM173 193q10 -44 45.5 -69t84.5 -25q37 0 68.5 16t47.5 44l119 -46q-32 -61 -95.5 -97.5t-139.5 -36.5q-114 0 -190.5 76.5t-76.5 192.5t75 192.5t185 76.5q112 0 189.5 -77t77.5 -191q0 -24 -6 -56h-384
z" />
    <glyph glyph-name="uni0436" unicode="&#x436;" horiz-adv-x="843" 
d="M357 500h130v-188h36l149 188h143l-196 -250l196 -250h-143l-149 185h-36v-185h-130v188h-37l-148 -188h-144l197 250l-197 250h144l148 -185h37v185z" />
    <glyph glyph-name="uni0437" unicode="&#x437;" horiz-adv-x="491" 
d="M52 401q27 55 81 86t120 31q83 0 139 -45t56 -112q0 -34 -16.5 -63.5t-45.5 -46.5q33 -18 52.5 -51t19.5 -71q0 -63 -58 -105t-146 -42q-74 0 -132.5 32.5t-88.5 89.5l124 56q12 -25 37.5 -39.5t56.5 -14.5q33 0 55 14.5t22 35.5q0 20 -17 33.5t-43 13.5h-78v94h78
q21 0 35.5 12t14.5 29q0 23 -19.5 38t-48.5 15q-24 0 -43.5 -12t-29.5 -32z" />
    <glyph glyph-name="uni0438" unicode="&#x438;" horiz-adv-x="606" 
d="M553 0h-130v337l-220 -337h-150v500h130v-327l221 327h149v-500z" />
    <glyph glyph-name="uni0439" unicode="&#x439;" horiz-adv-x="606" 
d="M305 572q-79 0 -134.5 51.5t-55.5 124.5h100q0 -37 26 -60.5t65 -23.5q40 0 68.5 24.5t28.5 59.5h100q0 -71 -59 -123.5t-139 -52.5zM553 0h-130v337l-220 -337h-150v500h130v-327l221 327h149v-500z" />
    <glyph glyph-name="uni043A" unicode="&#x43a;" horiz-adv-x="562" 
d="M53 0v500h130v-185h27l162 185h166l-216 -250l216 -250h-166l-162 182h-27v-182h-130z" />
    <glyph glyph-name="uni043B" unicode="&#x43b;" horiz-adv-x="577" 
d="M57 128h-26v-128h36q84 0 137.5 55.5t53.5 132.5v184h137v-372h130v500h-397v-298q0 -33 -18.5 -53.5t-52.5 -20.5z" />
    <glyph glyph-name="uni043C" unicode="&#x43c;" horiz-adv-x="729" 
d="M53 0v500h145l167 -272l166 272h145v-500h-130v322l-145 -248h-72l-146 248v-322h-130z" />
    <glyph glyph-name="uni043D" unicode="&#x43d;" horiz-adv-x="600" 
d="M53 0v500h130v-188h234v188h130v-500h-130v190h-234v-190h-130z" />
    <glyph glyph-name="uni043E" unicode="&#x43e;" horiz-adv-x="618" 
d="M163 251q0 -64 42.5 -105t103.5 -41t103.5 41t42.5 105t-42.5 105t-103.5 41t-103.5 -41t-42.5 -105zM33 251q0 117 80 193t196 76t196 -76t80 -193t-80 -193t-196 -76t-196 76t-80 193z" />
    <glyph glyph-name="uni043F" unicode="&#x43f;" horiz-adv-x="569" 
d="M517 500v-500h-130v379h-204v-379h-130v500h464z" />
    <glyph glyph-name="uni0440" unicode="&#x440;" horiz-adv-x="638" 
d="M53 500h130v-700h-130v700zM183 250q0 -63 42 -104.5t104 -41.5t104 41.5t42 104.5t-42 104.5t-104 41.5t-104 -41.5t-42 -104.5zM137 250q0 116 66 192.5t164 76.5q100 0 169 -77t69 -192t-69 -192t-169 -77q-98 0 -164 76.5t-66 192.5z" />
    <glyph glyph-name="uni0441" unicode="&#x441;" horiz-adv-x="590" 
d="M163 251q0 -64 41 -105t100 -41q44 0 79 21.5t53 59.5l119 -56q-34 -68 -101.5 -108t-149.5 -40q-113 0 -192 76t-79 193t79 193t192 76q84 0 152 -41t101 -112l-119 -56q-17 40 -53 63t-81 23q-59 0 -100 -41t-41 -105z" />
    <glyph glyph-name="uni0442" unicode="&#x442;" horiz-adv-x="496" 
d="M467 500v-121h-154v-379h-130v379h-153v121h437z" />
    <glyph glyph-name="uni0443" unicode="&#x443;" horiz-adv-x="593" 
d="M426 500l-129 -347l-130 347h-138l194 -487l-79 -213h138l283 700h-139z" />
    <glyph glyph-name="uni0444" unicode="&#x444;" horiz-adv-x="671" 
d="M272 -190v870h123v-870h-123zM163 251q0 -64 50 -105t122.5 -41t122.5 41t50 105t-50 105t-122.5 41t-122.5 -41t-50 -105zM33 251q0 117 88 193t215 76t214.5 -76t87.5 -193t-87.5 -193t-214.5 -76t-215 76t-88 193z" />
    <glyph glyph-name="uni0445" unicode="&#x445;" horiz-adv-x="576" 
d="M550 0h-151l-111 178l-110 -178h-151l166 250l-166 250h151l110 -178l111 178h151l-167 -250z" />
    <glyph glyph-name="uni0446" unicode="&#x446;" horiz-adv-x="625" 
d="M53 0v500h130v-379h220v379h130v-379h62v-237h-130v116h-412z" />
    <glyph glyph-name="uni0447" unicode="&#x447;" horiz-adv-x="547" 
d="M495 500v-500h-130v500h130zM183 500v-153q0 -43 24.5 -67t62.5 -24q40 0 67.5 24.5t27.5 59.5h51q0 -88 -54 -148t-134 -60q-75 0 -125 50t-50 135v183h130z" />
    <glyph glyph-name="uni0448" unicode="&#x448;" horiz-adv-x="856" 
d="M803 0v500h-130v-379h-180v379h-130v-379h-180v379h-130v-500h750z" />
    <glyph glyph-name="uni0449" unicode="&#x449;" horiz-adv-x="918" 
d="M803 121v379h-130v-379h-180v379h-130v-379h-180v379h-130v-500h692v-116h130v237h-72z" />
    <glyph glyph-name="uni044A" unicode="&#x44a;" horiz-adv-x="646" 
d="M440 344q74 0 123.5 -51t49.5 -124q0 -71 -49.5 -120t-123.5 -49h-281v373h-126v127h256v-156h151zM430 216h-141v-88h141q23 0 38.5 12t15.5 29q0 20 -15.5 33.5t-38.5 13.5z" />
    <glyph glyph-name="uni044B" unicode="&#x44b;" horiz-adv-x="784" 
d="M601 0v500h130v-500h-130zM346 216h-170v-89h170q24 0 39.5 12.5t15.5 30.5q0 20 -16 33t-39 13zM356 337q74 0 124.5 -49t50.5 -120t-50.5 -119.5t-124.5 -48.5h-309v500h129v-163h180z" />
    <glyph glyph-name="uni044C" unicode="&#x44c;" horiz-adv-x="591" 
d="M372 216h-189v-89h189q24 0 40 12.5t16 30.5q0 20 -16 33t-40 13zM382 337q75 0 125.5 -49t50.5 -120t-50.5 -119.5t-125.5 -48.5h-329v500h130v-163h199z" />
    <glyph glyph-name="uni044D" unicode="&#x44d;" horiz-adv-x="590" 
d="M201 199v101h322v-101h-322zM428 251q0 67 -41.5 110t-103.5 43q-41 0 -76 -20t-53 -54l-119 55q34 62 100.5 98.5t145.5 36.5q118 0 197 -76.5t79 -192.5t-79 -192.5t-197 -76.5q-80 0 -147 38t-101 102l119 55q18 -36 53 -57.5t78 -21.5q62 0 103.5 43t41.5 110z" />
    <glyph glyph-name="uni044E" unicode="&#x44e;" horiz-adv-x="868" 
d="M420 251q0 64 41 105t101 41t101.5 -41t41.5 -105t-41.5 -105t-101.5 -41t-101 41t-41 105zM290 251q0 -117 79 -193t193.5 -76t193.5 76t79 193t-79 193t-193.5 76t-193.5 -76t-79 -193zM310 315h-127v185h-130v-500h130v187h127v128z" />
    <glyph glyph-name="uni044F" unicode="&#x44f;" horiz-adv-x="551" 
d="M231 281h137v91h-137q-26 0 -42.5 -13t-16.5 -32q0 -20 16.5 -33t42.5 -13zM290 166l-108 -166h-149l124 180q-55 10 -89.5 52t-34.5 98q0 72 53 121t131 49h281v-500h-130v166h-78z" />
    <glyph glyph-name="uni0450" unicode="&#x450;" horiz-adv-x="594" 
d="M142 723l87 78l163 -159l-84 -74zM431 303q-9 43 -45 68.5t-86 25.5q-48 0 -82.5 -25t-44.5 -69h258zM173 193q10 -44 45.5 -69t84.5 -25q37 0 68.5 16t47.5 44l119 -46q-32 -61 -95.5 -97.5t-139.5 -36.5q-114 0 -190.5 76.5t-76.5 192.5t75 192.5t185 76.5
q112 0 189.5 -77t77.5 -191q0 -24 -6 -56h-384z" />
    <glyph glyph-name="uni0451" unicode="&#x451;" horiz-adv-x="594" 
d="M338 646.5q0 33.5 22.5 56.5t56 23t56 -23t22.5 -56.5t-22.5 -56t-56 -22.5t-56 22.5t-22.5 56zM104.5 646.5q0.5 33.5 23 56.5t56 23t56 -23t22.5 -56.5t-22.5 -56t-56 -22.5t-56.5 22.5t-22.5 56zM431 303q-9 43 -45 68.5t-86 25.5q-48 0 -82.5 -25t-44.5 -69h258z
M173 193q10 -44 45.5 -69t84.5 -25q37 0 68.5 16t47.5 44l119 -46q-32 -61 -95.5 -97.5t-139.5 -36.5q-114 0 -190.5 76.5t-76.5 192.5t75 192.5t185 76.5q112 0 189.5 -77t77.5 -191q0 -24 -6 -56h-384z" />
    <glyph glyph-name="uni0452" unicode="&#x452;" horiz-adv-x="574" 
d="M60 0v569h-60v114h60v67h130v-67h219v-114h-219v-569h-130zM391 42v241q0 49 -27 77t-70 28t-73.5 -31t-30.5 -74h-52q0 96 57 162t141 66q80 0 132.5 -53.5t52.5 -144.5v-282q0 -92 -51.5 -145t-139.5 -54h-66v128h49q38 0 58 23t20 59z" />
    <glyph glyph-name="uni0453" unicode="&#x453;" horiz-adv-x="453" 
d="M394 723l-87 85l-156 -166l70 -74zM53 0h130v379h237v121h-367v-500z" />
    <glyph glyph-name="uni0454" unicode="&#x454;" horiz-adv-x="590" 
d="M390 303v-101h-322v101h322zM163 251q0 -67 41.5 -109.5t103.5 -42.5q41 -1 75.5 19t52.5 54l119 -55q-34 -62 -100.5 -98.5t-145.5 -36.5q-117 0 -196.5 76.5t-79.5 192.5t79.5 192.5t196.5 76.5q81 0 148 -38t100 -102l-119 -55q-17 36 -52.5 57.5t-78.5 21.5
q-62 0 -103 -43t-41 -110z" />
    <glyph glyph-name="uni0455" unicode="&#x455;" horiz-adv-x="473" 
d="M219 194q-91 13 -137.5 53t-46.5 105q0 70 53 115.5t136 45.5q71 0 130 -36.5t85 -96.5l-126 -38q-11 27 -34.5 42.5t-53.5 15.5q-26 0 -43.5 -12.5t-17.5 -32.5q0 -37 83 -49q94 -13 144 -54.5t50 -105.5q0 -69 -53.5 -113t-135.5 -44q-74 0 -133 36t-86 97l126 38
q12 -30 36 -47.5t54 -17.5q26 0 44 13.5t18 34.5q0 20 -22 32t-70 19z" />
    <glyph glyph-name="uni0456" unicode="&#x456;" horiz-adv-x="231" 
d="M37 644.5q0 33.5 22.5 56t56 22.5t56 -22.5t22.5 -56t-22.5 -56.5t-56 -23t-56 23t-22.5 56.5zM51 0v500h129v-500h-129z" />
    <glyph glyph-name="uni0457" unicode="&#x457;" 
d="M155 646.5q0 33.5 22.5 56.5t56 23t56 -23t22.5 -56.5t-22.5 -56t-56 -22.5t-56 22.5t-22.5 56zM-78.5 646.5q0.5 33.5 23 56.5t56 23t56 -23t22.5 -56.5t-22.5 -56t-56 -22.5t-56.5 22.5t-22.5 56zM53 0v500h130v-500h-130z" />
    <glyph glyph-name="uni0458" unicode="&#x458;" horiz-adv-x="231" 
d="M37 644.5q0 33.5 22.5 56t56 22.5t56 -22.5t22.5 -56t-22.5 -56.5t-56 -23t-56 23t-22.5 56.5zM-21 -82q34 0 53 24.5t19 62.5v495h129v-536q0 -70 -49.5 -122t-127.5 -52h-49v128h25z" />
    <glyph glyph-name="uni0459" unicode="&#x459;" horiz-adv-x="935" 
d="M57 128h-26v-128h36q84 0 137.5 55.5t53.5 132.5v184h137v-372h329q74 0 124.5 48.5t50.5 119.5t-50.5 120t-124.5 49h-199v163h-397v-298q0 -33 -18.5 -53.5t-52.5 -20.5zM714 216q23 0 39 -13t16 -33q0 -18 -15.5 -30.5t-39.5 -12.5h-189v89h189z" />
    <glyph glyph-name="uni045A" unicode="&#x45a;" horiz-adv-x="857" 
d="M639 209q22 0 37 -12t15 -30q0 -17 -15 -28.5t-37 -11.5h-153v82h153zM649 330h-163v170h-129v-500h292q73 0 122.5 47.5t49.5 117.5t-49.5 117.5t-122.5 47.5zM380 316h-197v184h-130v-500h130v188h197v128z" />
    <glyph glyph-name="uni045B" unicode="&#x45b;" horiz-adv-x="574" 
d="M60 0v569h-60v114h60v67h130v-67h219v-114h-219v-569h-130zM391 0v283q0 49 -27 77t-70 28t-73.5 -31t-30.5 -74h-52q0 96 57 162t141 66q80 0 132.5 -53.5t52.5 -144.5v-313h-130z" />
    <glyph glyph-name="uni045C" unicode="&#x45c;" horiz-adv-x="562" 
d="M424 723l-87 85l-156 -166l70 -74zM53 0v500h130v-185h27l162 185h166l-216 -250l216 -250h-166l-162 182h-27v-182h-130z" />
    <glyph glyph-name="uni045D" unicode="&#x45d;" horiz-adv-x="606" 
d="M147 723l87 78l163 -159l-84 -74zM553 0h-130v337l-220 -337h-150v500h130v-327l221 327h149v-500z" />
    <glyph glyph-name="uni045E" unicode="&#x45e;" horiz-adv-x="593" 
d="M295 572q-79 0 -134.5 51.5t-55.5 124.5h100q0 -37 26 -60.5t65 -23.5q40 0 68.5 24.5t28.5 59.5h100q0 -71 -59 -123.5t-139 -52.5zM426 500l-129 -347l-130 347h-138l194 -487l-79 -213h138l283 700h-139z" />
    <glyph glyph-name="uni045F" unicode="&#x45f;" horiz-adv-x="596" 
d="M53 0v500h130v-379h230v379h130v-500h-175v-165h-130v165h-185z" />
    <glyph glyph-name="uni1EA0" unicode="&#x1ea0;" horiz-adv-x="785" 
d="M324 -149.5q0 33.5 23 56t56 22.5t56 -22.5t23 -56t-23 -56.5t-56 -23t-56 23t-23 56.5zM198 283h392v-122h-392v122zM178 0h-149l278 700h170l280 -700h-149l-214 566z" />
    <glyph glyph-name="uni1EA1" unicode="&#x1ea1;" horiz-adv-x="520" 
d="M178 -149.5q0 33.5 23 56t56 22.5t56 -22.5t23 -56t-23 -56.5t-56 -23t-56 23t-23 56.5zM337 208l-110 -14q-64 -8 -64 -47q0 -21 17.5 -32.5t49.5 -11.5q48 0 77.5 25t29.5 66h35q0 -88 -52 -146.5t-131 -58.5q-68 0 -112 41.5t-44 106t44 107t120 52.5l140 17v7
q0 30 -26.5 51.5t-63.5 21.5q-34 0 -60 -17.5t-34 -45.5l-124 40q21 63 80 102t133 39q91 0 158 -55t67 -130v-326h-130v208z" />
    <glyph glyph-name="uni1EA2" unicode="&#x1ea2;" horiz-adv-x="785" 
d="M401 760l-53 72l52 34q33 20 33 50q0 20 -13 32.5t-33 12.5q-37 0 -45 -36l-83 22q13 47 47.5 74t82.5 27q59 0 96 -37t37 -95q0 -40 -20 -68.5t-64 -61.5zM198 283h392v-122h-392v122zM178 0h-149l278 700h170l280 -700h-149l-214 566z" />
    <glyph glyph-name="uni1EA3" unicode="&#x1ea3;" horiz-adv-x="520" 
d="M253 551l-53 72l52 34q33 20 33 50q0 20 -13 32.5t-33 12.5q-37 0 -45 -36l-83 22q13 47 47.5 74t82.5 27q59 0 96 -37t37 -95q0 -40 -20 -68.5t-64 -61.5zM337 208l-110 -14q-64 -8 -64 -47q0 -21 17.5 -32.5t49.5 -11.5q48 0 77.5 25t29.5 66h35q0 -88 -52 -146.5
t-131 -58.5q-68 0 -112 41.5t-44 106t44 107t120 52.5l140 17v7q0 30 -26.5 51.5t-63.5 21.5q-34 0 -60 -17.5t-34 -45.5l-124 40q21 63 80 102t133 39q91 0 158 -55t67 -130v-326h-130v208z" />
    <glyph glyph-name="uni1EA4" unicode="&#x1ea4;" horiz-adv-x="785" 
d="M754 1120l-87 85l-156 -166l70 -74zM377 982l-174 -135l55 -77l136 109l136 -109l55 77l-174 135h-34zM198 283h392v-122h-392v122zM178 0h-149l278 700h170l280 -700h-149l-214 566z" />
    <glyph glyph-name="uni1EA5" unicode="&#x1ea5;" horiz-adv-x="520" 
d="M603 918l-87 85l-156 -166l70 -74zM229 773l-174 -135l55 -77l136 109l136 -109l55 77l-174 135h-34zM337 208l-110 -14q-64 -8 -64 -47q0 -21 17.5 -32.5t49.5 -11.5q48 0 77.5 25t29.5 66h35q0 -88 -52 -146.5t-131 -58.5q-68 0 -112 41.5t-44 106t44 107t120 52.5
l140 17v7q0 30 -26.5 51.5t-63.5 21.5q-34 0 -60 -17.5t-34 -45.5l-124 40q21 63 80 102t133 39q91 0 158 -55t67 -130v-326h-130v208z" />
    <glyph glyph-name="uni1EA6" unicode="&#x1ea6;" horiz-adv-x="785" 
d="M444 1120l87 78l163 -159l-84 -74zM377 982l-174 -135l55 -77l136 109l136 -109l55 77l-174 135h-34zM198 283h392v-122h-392v122zM178 0h-149l278 700h170l280 -700h-149l-214 566z" />
    <glyph glyph-name="uni1EA7" unicode="&#x1ea7;" horiz-adv-x="520" 
d="M293 898l87 78l163 -159l-84 -74zM229 773l-174 -135l55 -77l136 109l136 -109l55 77l-174 135h-34zM337 208l-110 -14q-64 -8 -64 -47q0 -21 17.5 -32.5t49.5 -11.5q48 0 77.5 25t29.5 66h35q0 -88 -52 -146.5t-131 -58.5q-68 0 -112 41.5t-44 106t44 107t120 52.5
l140 17v7q0 30 -26.5 51.5t-63.5 21.5q-34 0 -60 -17.5t-34 -45.5l-124 40q21 63 80 102t133 39q91 0 158 -55t67 -130v-326h-130v208z" />
    <glyph glyph-name="uni1EA8" unicode="&#x1ea8;" horiz-adv-x="785" 
d="M610 948l-53 72l52 34q33 20 33 50q0 20 -13 32.5t-33 12.5q-37 0 -45 -36l-83 22q13 47 47.5 74t82.5 27q59 0 96 -37t37 -95q0 -40 -20 -68.5t-64 -61.5zM377 982l-174 -135l55 -77l136 109l136 -109l55 77l-174 135h-34zM198 283h392v-122h-392v122zM178 0h-149
l278 700h170l280 -700h-149l-214 566z" />
    <glyph glyph-name="uni1EA9" unicode="&#x1ea9;" horiz-adv-x="520" 
d="M459 746l-53 72l52 34q33 20 33 50q0 20 -13 32.5t-33 12.5q-37 0 -45 -36l-83 22q13 47 47.5 74t82.5 27q59 0 96 -37t37 -95q0 -40 -20 -68.5t-64 -61.5zM229 773l-174 -135l55 -77l136 109l136 -109l55 77l-174 135h-34zM337 208l-110 -14q-64 -8 -64 -47
q0 -21 17.5 -32.5t49.5 -11.5q48 0 77.5 25t29.5 66h35q0 -88 -52 -146.5t-131 -58.5q-68 0 -112 41.5t-44 106t44 107t120 52.5l140 17v7q0 30 -26.5 51.5t-63.5 21.5q-34 0 -60 -17.5t-34 -45.5l-124 40q21 63 80 102t133 39q91 0 158 -55t67 -130v-326h-130v208z" />
    <glyph glyph-name="uni1EAA" unicode="&#x1eaa;" horiz-adv-x="785" 
d="M312 1188q-52 0 -82.5 -36t-40.5 -101l84 -18q11 66 45 66q19 0 47 -26q55 -46 101 -46q50 0 81 36t40 101l-84 18q-12 -63 -49 -63q-23 0 -49 25q-28 24 -48.5 34t-44.5 10zM377 982l-174 -135l55 -77l136 109l136 -109l55 77l-174 135h-34zM198 283h392v-122h-392v122z
M178 0h-149l278 700h170l280 -700h-149l-214 566z" />
    <glyph glyph-name="uni1EAB" unicode="&#x1eab;" horiz-adv-x="520" 
d="M170 989q-52 0 -82.5 -36t-40.5 -101l84 -18q11 66 45 66q19 0 47 -26q55 -46 101 -46q50 0 81 36t40 101l-84 18q-12 -63 -49 -63q-23 0 -49 25q-28 24 -48.5 34t-44.5 10zM229 773l-174 -135l55 -77l136 109l136 -109l55 77l-174 135h-34zM337 208l-110 -14
q-64 -8 -64 -47q0 -21 17.5 -32.5t49.5 -11.5q48 0 77.5 25t29.5 66h35q0 -88 -52 -146.5t-131 -58.5q-68 0 -112 41.5t-44 106t44 107t120 52.5l140 17v7q0 30 -26.5 51.5t-63.5 21.5q-34 0 -60 -17.5t-34 -45.5l-124 40q21 63 80 102t133 39q91 0 158 -55t67 -130v-326
h-130v208z" />
    <glyph glyph-name="uni1EAC" unicode="&#x1eac;" horiz-adv-x="785" 
d="M377 983l-174 -135l55 -77l136 109l136 -109l55 77l-174 135h-34zM324 -149.5q0 33.5 23 56t56 22.5t56 -22.5t23 -56t-23 -56.5t-56 -23t-56 23t-23 56.5zM198 283h392v-122h-392v122zM178 0h-149l278 700h170l280 -700h-149l-214 566z" />
    <glyph glyph-name="uni1EAD" unicode="&#x1ead;" horiz-adv-x="520" 
d="M229 777l-174 -135l55 -77l136 109l136 -109l55 77l-174 135h-34zM178 -149.5q0 33.5 23 56t56 22.5t56 -22.5t23 -56t-23 -56.5t-56 -23t-56 23t-23 56.5zM337 208l-110 -14q-64 -8 -64 -47q0 -21 17.5 -32.5t49.5 -11.5q48 0 77.5 25t29.5 66h35q0 -88 -52 -146.5
t-131 -58.5q-68 0 -112 41.5t-44 106t44 107t120 52.5l140 17v7q0 30 -26.5 51.5t-63.5 21.5q-34 0 -60 -17.5t-34 -45.5l-124 40q21 63 80 102t133 39q91 0 158 -55t67 -130v-326h-130v208z" />
    <glyph glyph-name="uni1EAE" unicode="&#x1eae;" horiz-adv-x="785" 
d="M546 1156l-87 85l-156 -166l70 -74zM393 781q-79 0 -134.5 51.5t-55.5 124.5h100q0 -37 26 -60.5t65 -23.5q40 0 68.5 24.5t28.5 59.5h100q0 -71 -59 -123.5t-139 -52.5zM198 283h392v-122h-392v122zM178 0h-149l278 700h170l280 -700h-149l-214 566z" />
    <glyph glyph-name="uni1EAF" unicode="&#x1eaf;" horiz-adv-x="520" 
d="M397 932l-87 85l-156 -166l70 -74zM245 572q-79 0 -134.5 51.5t-55.5 124.5h100q0 -37 26 -60.5t65 -23.5q40 0 68.5 24.5t28.5 59.5h100q0 -71 -59 -123.5t-139 -52.5zM337 208l-110 -14q-64 -8 -64 -47q0 -21 17.5 -32.5t49.5 -11.5q48 0 77.5 25t29.5 66h35
q0 -88 -52 -146.5t-131 -58.5q-68 0 -112 41.5t-44 106t44 107t120 52.5l140 17v7q0 30 -26.5 51.5t-63.5 21.5q-34 0 -60 -17.5t-34 -45.5l-124 40q21 63 80 102t133 39q91 0 158 -55t67 -130v-326h-130v208z" />
    <glyph glyph-name="uni1EB0" unicode="&#x1eb0;" horiz-adv-x="785" 
d="M236 1156l87 78l163 -159l-84 -74zM393 781q-79 0 -134.5 51.5t-55.5 124.5h100q0 -37 26 -60.5t65 -23.5q40 0 68.5 24.5t28.5 59.5h100q0 -71 -59 -123.5t-139 -52.5zM198 283h392v-122h-392v122zM178 0h-149l278 700h170l280 -700h-149l-214 566z" />
    <glyph glyph-name="uni1EB1" unicode="&#x1eb1;" horiz-adv-x="520" 
d="M87 932l87 78l163 -159l-84 -74zM245 572q-79 0 -134.5 51.5t-55.5 124.5h100q0 -37 26 -60.5t65 -23.5q40 0 68.5 24.5t28.5 59.5h100q0 -71 -59 -123.5t-139 -52.5zM337 208l-110 -14q-64 -8 -64 -47q0 -21 17.5 -32.5t49.5 -11.5q48 0 77.5 25t29.5 66h35
q0 -88 -52 -146.5t-131 -58.5q-68 0 -112 41.5t-44 106t44 107t120 52.5l140 17v7q0 30 -26.5 51.5t-63.5 21.5q-34 0 -60 -17.5t-34 -45.5l-124 40q21 63 80 102t133 39q91 0 158 -55t67 -130v-326h-130v208z" />
    <glyph glyph-name="uni1EB2" unicode="&#x1eb2;" horiz-adv-x="785" 
d="M402 984l-53 72l52 34q33 20 33 50q0 20 -13 32.5t-33 12.5q-37 0 -45 -36l-83 22q13 47 47.5 74t82.5 27q59 0 96 -37t37 -95q0 -40 -20 -68.5t-64 -61.5zM393 781q-79 0 -134.5 51.5t-55.5 124.5h100q0 -37 26 -60.5t65 -23.5q40 0 68.5 24.5t28.5 59.5h100
q0 -71 -59 -123.5t-139 -52.5zM198 283h392v-122h-392v122zM178 0h-149l278 700h170l280 -700h-149l-214 566z" />
    <glyph glyph-name="uni1EB3" unicode="&#x1eb3;" horiz-adv-x="520" 
d="M253 760l-53 72l52 34q33 20 33 50q0 20 -13 32.5t-33 12.5q-37 0 -45 -36l-83 22q13 47 47.5 74t82.5 27q59 0 96 -37t37 -95q0 -40 -20 -68.5t-64 -61.5zM245 572q-79 0 -134.5 51.5t-55.5 124.5h100q0 -37 26 -60.5t65 -23.5q40 0 68.5 24.5t28.5 59.5h100
q0 -71 -59 -123.5t-139 -52.5zM337 208l-110 -14q-64 -8 -64 -47q0 -21 17.5 -32.5t49.5 -11.5q48 0 77.5 25t29.5 66h35q0 -88 -52 -146.5t-131 -58.5q-68 0 -112 41.5t-44 106t44 107t120 52.5l140 17v7q0 30 -26.5 51.5t-63.5 21.5q-34 0 -60 -17.5t-34 -45.5l-124 40
q21 63 80 102t133 39q91 0 158 -55t67 -130v-326h-130v208z" />
    <glyph glyph-name="uni1EB4" unicode="&#x1eb4;" horiz-adv-x="785" 
d="M319 1162q-52 0 -82.5 -36t-40.5 -101l84 -18q11 66 45 66q19 0 47 -26q55 -46 101 -46q50 0 81 36t40 101l-84 18q-12 -63 -49 -63q-23 0 -49 25q-28 24 -48.5 34t-44.5 10zM393 781q-79 0 -134.5 51.5t-55.5 124.5h100q0 -37 26 -60.5t65 -23.5q40 0 68.5 24.5
t28.5 59.5h100q0 -71 -59 -123.5t-139 -52.5zM198 283h392v-122h-392v122zM178 0h-149l278 700h170l280 -700h-149l-214 566z" />
    <glyph glyph-name="uni1EB5" unicode="&#x1eb5;" horiz-adv-x="520" 
d="M170 938q-52 0 -82.5 -36t-40.5 -101l84 -18q11 66 45 66q19 0 47 -26q55 -46 101 -46q50 0 81 36t40 101l-84 18q-12 -63 -49 -63q-23 0 -49 25q-28 24 -48.5 34t-44.5 10zM245 572q-79 0 -134.5 51.5t-55.5 124.5h100q0 -37 26 -60.5t65 -23.5q40 0 68.5 24.5
t28.5 59.5h100q0 -71 -59 -123.5t-139 -52.5zM337 208l-110 -14q-64 -8 -64 -47q0 -21 17.5 -32.5t49.5 -11.5q48 0 77.5 25t29.5 66h35q0 -88 -52 -146.5t-131 -58.5q-68 0 -112 41.5t-44 106t44 107t120 52.5l140 17v7q0 30 -26.5 51.5t-63.5 21.5q-34 0 -60 -17.5
t-34 -45.5l-124 40q21 63 80 102t133 39q91 0 158 -55t67 -130v-326h-130v208z" />
    <glyph glyph-name="uni1EB6" unicode="&#x1eb6;" horiz-adv-x="785" 
d="M388 780q-79 0 -134.5 51.5t-55.5 124.5h100q0 -37 26 -60.5t65 -23.5q40 0 68.5 24.5t28.5 59.5h100q0 -71 -59 -123.5t-139 -52.5zM324 -149.5q0 33.5 23 56t56 22.5t56 -22.5t23 -56t-23 -56.5t-56 -23t-56 23t-23 56.5zM198 283h392v-122h-392v122zM178 0h-149
l278 700h170l280 -700h-149l-214 566z" />
    <glyph glyph-name="uni1EB7" unicode="&#x1eb7;" horiz-adv-x="520" 
d="M243 580q-79 0 -134.5 51.5t-55.5 124.5h100q0 -37 26 -60.5t65 -23.5q40 0 68.5 24.5t28.5 59.5h100q0 -71 -59 -123.5t-139 -52.5zM178 -149.5q0 33.5 23 56t56 22.5t56 -22.5t23 -56t-23 -56.5t-56 -23t-56 23t-23 56.5zM337 208l-110 -14q-64 -8 -64 -47
q0 -21 17.5 -32.5t49.5 -11.5q48 0 77.5 25t29.5 66h35q0 -88 -52 -146.5t-131 -58.5q-68 0 -112 41.5t-44 106t44 107t120 52.5l140 17v7q0 30 -26.5 51.5t-63.5 21.5q-34 0 -60 -17.5t-34 -45.5l-124 40q21 63 80 102t133 39q91 0 158 -55t67 -130v-326h-130v208z" />
    <glyph glyph-name="uni1EB8" unicode="&#x1eb8;" horiz-adv-x="579" 
d="M235 -149.5q0 33.5 23 56t56 22.5t56 -22.5t23 -56t-23 -56.5t-56 -23t-56 23t-23 56.5zM183 415h336v-128h-336v-159h360v-128h-490v700h490v-128h-360v-157z" />
    <glyph glyph-name="uni1EB9" unicode="&#x1eb9;" horiz-adv-x="594" 
d="M213 -149.5q0 33.5 23 56t56 22.5t56 -22.5t23 -56t-23 -56.5t-56 -23t-56 23t-23 56.5zM428 306q-8 44 -44.5 69t-85.5 25q-48 0 -82.5 -24.5t-44.5 -69.5h257zM171 197q10 -45 45.5 -70t83.5 -25q38 0 69.5 16t46.5 44l119 -45q-32 -62 -95 -98.5t-139 -36.5
q-114 0 -191 77t-77 193q0 115 75 191.5t186 76.5t189 -77t78 -191q0 -23 -7 -55h-383z" />
    <glyph glyph-name="uni1EBA" unicode="&#x1eba;" horiz-adv-x="579" 
d="M312 760l-53 72l52 34q33 20 33 50q0 20 -13 32.5t-33 12.5q-37 0 -45 -36l-83 22q13 47 47.5 74t82.5 27q59 0 96 -37t37 -95q0 -40 -20 -68.5t-64 -61.5zM183 415h336v-128h-336v-159h360v-128h-490v700h490v-128h-360v-157z" />
    <glyph glyph-name="uni1EBB" unicode="&#x1ebb;" horiz-adv-x="594" 
d="M296 551l-53 72l52 34q33 20 33 50q0 20 -13 32.5t-33 12.5q-37 0 -45 -36l-83 22q13 47 47.5 74t82.5 27q59 0 96 -37t37 -95q0 -40 -20 -68.5t-64 -61.5zM428 306q-8 44 -44.5 69t-85.5 25q-48 0 -82.5 -24.5t-44.5 -69.5h257zM171 197q10 -45 45.5 -70t83.5 -25
q38 0 69.5 16t46.5 44l119 -45q-32 -62 -95 -98.5t-139 -36.5q-114 0 -191 77t-77 193q0 115 75 191.5t186 76.5t189 -77t78 -191q0 -23 -7 -55h-383z" />
    <glyph glyph-name="uni1EBC" unicode="&#x1ebc;" horiz-adv-x="579" 
d="M229 938q-52 0 -82.5 -36t-40.5 -101l84 -18q11 66 45 66q19 0 47 -26q55 -46 101 -46q50 0 81 36t40 101l-84 18q-12 -63 -49 -63q-23 0 -49 25q-28 24 -48.5 34t-44.5 10zM183 415h336v-128h-336v-159h360v-128h-490v700h490v-128h-360v-157z" />
    <glyph glyph-name="uni1EBD" unicode="&#x1ebd;" horiz-adv-x="594" 
d="M213 729q-52 0 -82.5 -36t-40.5 -101l84 -18q11 66 45 66q19 0 47 -26q55 -46 101 -46q50 0 81 36t40 101l-84 18q-12 -63 -49 -63q-23 0 -49 25q-28 24 -48.5 34t-44.5 10zM428 306q-8 44 -44.5 69t-85.5 25q-48 0 -82.5 -24.5t-44.5 -69.5h257zM171 197
q10 -45 45.5 -70t83.5 -25q38 0 69.5 16t46.5 44l119 -45q-32 -62 -95 -98.5t-139 -36.5q-114 0 -191 77t-77 193q0 115 75 191.5t186 76.5t189 -77t78 -191q0 -23 -7 -55h-383z" />
    <glyph glyph-name="uni1EBE" unicode="&#x1ebe;" horiz-adv-x="579" 
d="M665 1098l-87 85l-156 -166l70 -74zM288 982l-174 -135l55 -77l136 109l136 -109l55 77l-174 135h-34zM183 415h336v-128h-336v-159h360v-128h-490v700h490v-128h-360v-157z" />
    <glyph glyph-name="uni1EBF" unicode="&#x1ebf;" horiz-adv-x="594" 
d="M634 915l-87 85l-156 -166l70 -74zM272 773l-174 -135l55 -77l136 109l136 -109l55 77l-174 135h-34zM428 306q-8 44 -44.5 69t-85.5 25q-48 0 -82.5 -24.5t-44.5 -69.5h257zM171 197q10 -45 45.5 -70t83.5 -25q38 0 69.5 16t46.5 44l119 -45q-32 -62 -95 -98.5
t-139 -36.5q-114 0 -191 77t-77 193q0 115 75 191.5t186 76.5t189 -77t78 -191q0 -23 -7 -55h-383z" />
    <glyph glyph-name="uni1EC0" unicode="&#x1ec0;" horiz-adv-x="579" 
d="M355 1098l87 78l163 -159l-84 -74zM288 982l-174 -135l55 -77l136 109l136 -109l55 77l-174 135h-34zM183 415h336v-128h-336v-159h360v-128h-490v700h490v-128h-360v-157z" />
    <glyph glyph-name="uni1EC1" unicode="&#x1ec1;" horiz-adv-x="594" 
d="M324 915l87 78l163 -159l-84 -74zM272 773l-174 -135l55 -77l136 109l136 -109l55 77l-174 135h-34zM428 306q-8 44 -44.5 69t-85.5 25q-48 0 -82.5 -24.5t-44.5 -69.5h257zM171 197q10 -45 45.5 -70t83.5 -25q38 0 69.5 16t46.5 44l119 -45q-32 -62 -95 -98.5
t-139 -36.5q-114 0 -191 77t-77 193q0 115 75 191.5t186 76.5t189 -77t78 -191q0 -23 -7 -55h-383z" />
    <glyph glyph-name="uni1EC2" unicode="&#x1ec2;" horiz-adv-x="579" 
d="M521 926l-53 72l52 34q33 20 33 50q0 20 -13 32.5t-33 12.5q-37 0 -45 -36l-83 22q13 47 47.5 74t82.5 27q59 0 96 -37t37 -95q0 -40 -20 -68.5t-64 -61.5zM288 982l-174 -135l55 -77l136 109l136 -109l55 77l-174 135h-34zM183 415h336v-128h-336v-159h360v-128h-490
v700h490v-128h-360v-157z" />
    <glyph glyph-name="uni1EC3" unicode="&#x1ec3;" horiz-adv-x="594" 
d="M490 743l-53 72l52 34q33 20 33 50q0 20 -13 32.5t-33 12.5q-37 0 -45 -36l-83 22q13 47 47.5 74t82.5 27q59 0 96 -37t37 -95q0 -40 -20 -68.5t-64 -61.5zM272 773l-174 -135l55 -77l136 109l136 -109l55 77l-174 135h-34zM428 306q-8 44 -44.5 69t-85.5 25
q-48 0 -82.5 -24.5t-44.5 -69.5h257zM171 197q10 -45 45.5 -70t83.5 -25q38 0 69.5 16t46.5 44l119 -45q-32 -62 -95 -98.5t-139 -36.5q-114 0 -191 77t-77 193q0 115 75 191.5t186 76.5t189 -77t78 -191q0 -23 -7 -55h-383z" />
    <glyph glyph-name="uni1EC4" unicode="&#x1ec4;" horiz-adv-x="579" 
d="M209 1188q-52 0 -82.5 -36t-40.5 -101l84 -18q11 66 45 66q19 0 47 -26q55 -46 101 -46q50 0 81 36t40 101l-84 18q-12 -63 -49 -63q-23 0 -49 25q-28 24 -48.5 34t-44.5 10zM288 982l-174 -135l55 -77l136 109l136 -109l55 77l-174 135h-34zM183 415h336v-128h-336v-159
h360v-128h-490v700h490v-128h-360v-157z" />
    <glyph glyph-name="uni1EC5" unicode="&#x1ec5;" horiz-adv-x="594" 
d="M220 989q-52 0 -82.5 -36t-40.5 -101l84 -18q11 66 45 66q19 0 47 -26q55 -46 101 -46q50 0 81 36t40 101l-84 18q-12 -63 -49 -63q-23 0 -49 25q-28 24 -48.5 34t-44.5 10zM272 773l-174 -135l55 -77l136 109l136 -109l55 77l-174 135h-34zM428 306q-8 44 -44.5 69
t-85.5 25q-48 0 -82.5 -24.5t-44.5 -69.5h257zM171 197q10 -45 45.5 -70t83.5 -25q38 0 69.5 16t46.5 44l119 -45q-32 -62 -95 -98.5t-139 -36.5q-114 0 -191 77t-77 193q0 115 75 191.5t186 76.5t189 -77t78 -191q0 -23 -7 -55h-383z" />
    <glyph glyph-name="uni1EC6" unicode="&#x1ec6;" horiz-adv-x="579" 
d="M288 983l-174 -135l55 -77l136 109l136 -109l55 77l-174 135h-34zM235 -149.5q0 33.5 23 56t56 22.5t56 -22.5t23 -56t-23 -56.5t-56 -23t-56 23t-23 56.5zM183 415h336v-128h-336v-159h360v-128h-490v700h490v-128h-360v-157z" />
    <glyph glyph-name="uni1EC7" unicode="&#x1ec7;" horiz-adv-x="594" 
d="M271 777l-174 -135l55 -77l136 109l136 -109l55 77l-174 135h-34zM213 -149.5q0 33.5 23 56t56 22.5t56 -22.5t23 -56t-23 -56.5t-56 -23t-56 23t-23 56.5zM428 306q-8 44 -44.5 69t-85.5 25q-48 0 -82.5 -24.5t-44.5 -69.5h257zM171 197q10 -45 45.5 -70t83.5 -25
q38 0 69.5 16t46.5 44l119 -45q-32 -62 -95 -98.5t-139 -36.5q-114 0 -191 77t-77 193q0 115 75 191.5t186 76.5t189 -77t78 -191q0 -23 -7 -55h-383z" />
    <glyph glyph-name="uni1EC8" unicode="&#x1ec8;" 
d="M125 760l-53 72l52 34q33 20 33 50q0 20 -13 32.5t-33 12.5q-37 0 -45 -36l-83 22q13 47 47.5 74t82.5 27q59 0 96 -37t37 -95q0 -40 -20 -68.5t-64 -61.5zM183 0h-130v700h130v-700z" />
    <glyph glyph-name="uni1EC9" unicode="&#x1ec9;" 
d="M125 551l-53 72l52 34q33 20 33 50q0 20 -13 32.5t-33 12.5q-37 0 -45 -36l-83 22q13 47 47.5 74t82.5 27q59 0 96 -37t37 -95q0 -40 -20 -68.5t-64 -61.5zM53 0v500h130v-500h-130z" />
    <glyph glyph-name="uni1ECA" unicode="&#x1eca;" 
d="M39 -149.5q0 33.5 23 56t56 22.5t56 -22.5t23 -56t-23 -56.5t-56 -23t-56 23t-23 56.5zM183 0h-130v700h130v-700z" />
    <glyph glyph-name="uni1ECB" unicode="&#x1ecb;" horiz-adv-x="231" 
d="M37 -149.5q0 33.5 23 56t56 22.5t56 -22.5t23 -56t-23 -56.5t-56 -23t-56 23t-23 56.5zM37 644.5q0 33.5 22.5 56t56 22.5t56 -22.5t22.5 -56t-22.5 -56.5t-56 -23t-56 23t-22.5 56.5zM51 0v500h129v-500h-129z" />
    <glyph glyph-name="uni1ECC" unicode="&#x1ecc;" horiz-adv-x="788" 
d="M315 -149.5q0 33.5 23 56t56 22.5t56 -22.5t23 -56t-23 -56.5t-56 -23t-56 23t-23 56.5zM163 353q0 -106 67 -173.5t164 -67.5t164 67.5t67 173.5q0 104 -67 170.5t-164 66.5t-164 -66.5t-67 -170.5zM33 353q0 106 49 190.5t131 130.5t181 46t181 -46t131 -130.5
t49 -190.5q0 -80 -28.5 -149.5t-77.5 -118t-115 -76t-140 -27.5t-140 27.5t-115 76t-77.5 118t-28.5 149.5z" />
    <glyph glyph-name="uni1ECD" unicode="&#x1ecd;" horiz-adv-x="618" 
d="M228 -149.5q0 33.5 23 56t56 22.5t56 -22.5t23 -56t-23 -56.5t-56 -23t-56 23t-23 56.5zM163 251q0 -64 42.5 -105t103.5 -41t103.5 41t42.5 105t-42.5 105t-103.5 41t-103.5 -41t-42.5 -105zM33 251q0 117 80 193t196 76t196 -76t80 -193t-80 -193t-196 -76t-196 76
t-80 193z" />
    <glyph glyph-name="uni1ECE" unicode="&#x1ece;" horiz-adv-x="788" 
d="M401 760l-53 72l52 34q33 20 33 50q0 20 -13 32.5t-33 12.5q-37 0 -45 -36l-83 22q13 47 47.5 74t82.5 27q59 0 96 -37t37 -95q0 -40 -20 -68.5t-64 -61.5zM163 353q0 -106 67 -173.5t164 -67.5t164 67.5t67 173.5q0 104 -67 170.5t-164 66.5t-164 -66.5t-67 -170.5z
M33 353q0 106 49 190.5t131 130.5t181 46t181 -46t131 -130.5t49 -190.5q0 -80 -28.5 -149.5t-77.5 -118t-115 -76t-140 -27.5t-140 27.5t-115 76t-77.5 118t-28.5 149.5z" />
    <glyph glyph-name="uni1ECF" unicode="&#x1ecf;" horiz-adv-x="618" 
d="M315 551l-53 72l52 34q33 20 33 50q0 20 -13 32.5t-33 12.5q-37 0 -45 -36l-83 22q13 47 47.5 74t82.5 27q59 0 96 -37t37 -95q0 -40 -20 -68.5t-64 -61.5zM163 251q0 -64 42.5 -105t103.5 -41t103.5 41t42.5 105t-42.5 105t-103.5 41t-103.5 -41t-42.5 -105zM33 251
q0 117 80 193t196 76t196 -76t80 -193t-80 -193t-196 -76t-196 76t-80 193z" />
    <glyph glyph-name="uni1ED0" unicode="&#x1ed0;" horiz-adv-x="788" 
d="M774 1105l-87 85l-156 -166l70 -74zM377 982l-174 -135l55 -77l136 109l136 -109l55 77l-174 135h-34zM163 353q0 -106 67 -173.5t164 -67.5t164 67.5t67 173.5q0 104 -67 170.5t-164 66.5t-164 -66.5t-67 -170.5zM33 353q0 106 49 190.5t131 130.5t181 46t181 -46
t131 -130.5t49 -190.5q0 -80 -28.5 -149.5t-77.5 -118t-115 -76t-140 -27.5t-140 27.5t-115 76t-77.5 118t-28.5 149.5z" />
    <glyph glyph-name="uni1ED1" unicode="&#x1ed1;" horiz-adv-x="618" 
d="M650 913l-87 85l-156 -166l70 -74zM291 773l-174 -135l55 -77l136 109l136 -109l55 77l-174 135h-34zM163 251q0 -64 42.5 -105t103.5 -41t103.5 41t42.5 105t-42.5 105t-103.5 41t-103.5 -41t-42.5 -105zM33 251q0 117 80 193t196 76t196 -76t80 -193t-80 -193t-196 -76
t-196 76t-80 193z" />
    <glyph glyph-name="uni1ED2" unicode="&#x1ed2;" horiz-adv-x="788" 
d="M464 1105l87 78l163 -159l-84 -74zM377 982l-174 -135l55 -77l136 109l136 -109l55 77l-174 135h-34zM163 353q0 -106 67 -173.5t164 -67.5t164 67.5t67 173.5q0 104 -67 170.5t-164 66.5t-164 -66.5t-67 -170.5zM33 353q0 106 49 190.5t131 130.5t181 46t181 -46
t131 -130.5t49 -190.5q0 -80 -28.5 -149.5t-77.5 -118t-115 -76t-140 -27.5t-140 27.5t-115 76t-77.5 118t-28.5 149.5z" />
    <glyph glyph-name="uni1ED3" unicode="&#x1ed3;" horiz-adv-x="618" 
d="M340 913l87 78l163 -159l-84 -74zM291 773l-174 -135l55 -77l136 109l136 -109l55 77l-174 135h-34zM163 251q0 -64 42.5 -105t103.5 -41t103.5 41t42.5 105t-42.5 105t-103.5 41t-103.5 -41t-42.5 -105zM33 251q0 117 80 193t196 76t196 -76t80 -193t-80 -193t-196 -76
t-196 76t-80 193z" />
    <glyph glyph-name="uni1ED4" unicode="&#x1ed4;" horiz-adv-x="788" 
d="M630 933l-53 72l52 34q33 20 33 50q0 20 -13 32.5t-33 12.5q-37 0 -45 -36l-83 22q13 47 47.5 74t82.5 27q59 0 96 -37t37 -95q0 -40 -20 -68.5t-64 -61.5zM377 982l-174 -135l55 -77l136 109l136 -109l55 77l-174 135h-34zM163 353q0 -106 67 -173.5t164 -67.5t164 67.5
t67 173.5q0 104 -67 170.5t-164 66.5t-164 -66.5t-67 -170.5zM33 353q0 106 49 190.5t131 130.5t181 46t181 -46t131 -130.5t49 -190.5q0 -80 -28.5 -149.5t-77.5 -118t-115 -76t-140 -27.5t-140 27.5t-115 76t-77.5 118t-28.5 149.5z" />
    <glyph glyph-name="uni1ED5" unicode="&#x1ed5;" horiz-adv-x="618" 
d="M506 741l-53 72l52 34q33 20 33 50q0 20 -13 32.5t-33 12.5q-37 0 -45 -36l-83 22q13 47 47.5 74t82.5 27q59 0 96 -37t37 -95q0 -40 -20 -68.5t-64 -61.5zM291 773l-174 -135l55 -77l136 109l136 -109l55 77l-174 135h-34zM163 251q0 -64 42.5 -105t103.5 -41t103.5 41
t42.5 105t-42.5 105t-103.5 41t-103.5 -41t-42.5 -105zM33 251q0 117 80 193t196 76t196 -76t80 -193t-80 -193t-196 -76t-196 76t-80 193z" />
    <glyph glyph-name="uni1ED6" unicode="&#x1ed6;" horiz-adv-x="788" 
d="M318 1188q-52 0 -82.5 -36t-40.5 -101l84 -18q11 66 45 66q19 0 47 -26q55 -46 101 -46q50 0 81 36t40 101l-84 18q-12 -63 -49 -63q-23 0 -49 25q-28 24 -48.5 34t-44.5 10zM377 982l-174 -135l55 -77l136 109l136 -109l55 77l-174 135h-34zM163 353q0 -106 67 -173.5
t164 -67.5t164 67.5t67 173.5q0 104 -67 170.5t-164 66.5t-164 -66.5t-67 -170.5zM33 353q0 106 49 190.5t131 130.5t181 46t181 -46t131 -130.5t49 -190.5q0 -80 -28.5 -149.5t-77.5 -118t-115 -76t-140 -27.5t-140 27.5t-115 76t-77.5 118t-28.5 149.5z" />
    <glyph glyph-name="uni1ED7" unicode="&#x1ed7;" horiz-adv-x="618" 
d="M232 989q-52 0 -82.5 -36t-40.5 -101l84 -18q11 66 45 66q19 0 47 -26q55 -46 101 -46q50 0 81 36t40 101l-84 18q-12 -63 -49 -63q-23 0 -49 25q-28 24 -48.5 34t-44.5 10zM291 773l-174 -135l55 -77l136 109l136 -109l55 77l-174 135h-34zM163 251q0 -64 42.5 -105
t103.5 -41t103.5 41t42.5 105t-42.5 105t-103.5 41t-103.5 -41t-42.5 -105zM33 251q0 117 80 193t196 76t196 -76t80 -193t-80 -193t-196 -76t-196 76t-80 193z" />
    <glyph glyph-name="uni1ED8" unicode="&#x1ed8;" horiz-adv-x="788" 
d="M377 983l-174 -135l55 -77l136 109l136 -109l55 77l-174 135h-34zM315 -149.5q0 33.5 23 56t56 22.5t56 -22.5t23 -56t-23 -56.5t-56 -23t-56 23t-23 56.5zM163 353q0 -106 67 -173.5t164 -67.5t164 67.5t67 173.5q0 104 -67 170.5t-164 66.5t-164 -66.5t-67 -170.5z
M33 353q0 106 49 190.5t131 130.5t181 46t181 -46t131 -130.5t49 -190.5q0 -80 -28.5 -149.5t-77.5 -118t-115 -76t-140 -27.5t-140 27.5t-115 76t-77.5 118t-28.5 149.5z" />
    <glyph glyph-name="uni1ED9" unicode="&#x1ed9;" horiz-adv-x="618" 
d="M291 777l-174 -135l55 -77l136 109l136 -109l55 77l-174 135h-34zM228 -149.5q0 33.5 23 56t56 22.5t56 -22.5t23 -56t-23 -56.5t-56 -23t-56 23t-23 56.5zM163 251q0 -64 42.5 -105t103.5 -41t103.5 41t42.5 105t-42.5 105t-103.5 41t-103.5 -41t-42.5 -105zM33 251
q0 117 80 193t196 76t196 -76t80 -193t-80 -193t-196 -76t-196 76t-80 193z" />
    <glyph glyph-name="uni1EDA" unicode="&#x1eda;" horiz-adv-x="803" 
d="M545 932l-87 85l-156 -166l70 -74zM569 578v83h60q49 0 49 42q0 26 -27 46l71 60q50 -31 50 -99q0 -55 -34.5 -93.5t-82.5 -38.5h-86zM163 353q0 -106 67 -173.5t164 -67.5t164 67.5t67 173.5q0 104 -67 170.5t-164 66.5t-164 -66.5t-67 -170.5zM33 353q0 106 49 190.5
t131 130.5t181 46t181 -46t131 -130.5t49 -190.5q0 -80 -28.5 -149.5t-77.5 -118t-115 -76t-140 -27.5t-140 27.5t-115 76t-77.5 118t-28.5 149.5z" />
    <glyph glyph-name="uni1EDB" unicode="&#x1edb;" horiz-adv-x="676" 
d="M459 723l-87 85l-156 -166l70 -74zM468 370v83h60q49 0 49 42q0 26 -27 46l71 60q50 -31 50 -99q0 -55 -34.5 -93.5t-82.5 -38.5h-86zM163 251q0 -64 42.5 -105t103.5 -41t103.5 41t42.5 105t-42.5 105t-103.5 41t-103.5 -41t-42.5 -105zM33 251q0 117 80 193t196 76
t196 -76t80 -193t-80 -193t-196 -76t-196 76t-80 193z" />
    <glyph glyph-name="uni1EDC" unicode="&#x1edc;" horiz-adv-x="803" 
d="M235 932l87 78l163 -159l-84 -74zM569 578v83h60q49 0 49 42q0 26 -27 46l71 60q50 -31 50 -99q0 -55 -34.5 -93.5t-82.5 -38.5h-86zM163 353q0 -106 67 -173.5t164 -67.5t164 67.5t67 173.5q0 104 -67 170.5t-164 66.5t-164 -66.5t-67 -170.5zM33 353q0 106 49 190.5
t131 130.5t181 46t181 -46t131 -130.5t49 -190.5q0 -80 -28.5 -149.5t-77.5 -118t-115 -76t-140 -27.5t-140 27.5t-115 76t-77.5 118t-28.5 149.5z" />
    <glyph glyph-name="uni1EDD" unicode="&#x1edd;" horiz-adv-x="676" 
d="M149 723l87 78l163 -159l-84 -74zM468 370v83h60q49 0 49 42q0 26 -27 46l71 60q50 -31 50 -99q0 -55 -34.5 -93.5t-82.5 -38.5h-86zM163 251q0 -64 42.5 -105t103.5 -41t103.5 41t42.5 105t-42.5 105t-103.5 41t-103.5 -41t-42.5 -105zM33 251q0 117 80 193t196 76
t196 -76t80 -193t-80 -193t-196 -76t-196 76t-80 193z" />
    <glyph glyph-name="uni1EDE" unicode="&#x1ede;" horiz-adv-x="803" 
d="M401 760l-53 72l52 34q33 20 33 50q0 20 -13 32.5t-33 12.5q-37 0 -45 -36l-83 22q13 47 47.5 74t82.5 27q59 0 96 -37t37 -95q0 -40 -20 -68.5t-64 -61.5zM569 578v83h60q49 0 49 42q0 26 -27 46l71 60q50 -31 50 -99q0 -55 -34.5 -93.5t-82.5 -38.5h-86zM163 353
q0 -106 67 -173.5t164 -67.5t164 67.5t67 173.5q0 104 -67 170.5t-164 66.5t-164 -66.5t-67 -170.5zM33 353q0 106 49 190.5t131 130.5t181 46t181 -46t131 -130.5t49 -190.5q0 -80 -28.5 -149.5t-77.5 -118t-115 -76t-140 -27.5t-140 27.5t-115 76t-77.5 118t-28.5 149.5z
" />
    <glyph glyph-name="uni1EDF" unicode="&#x1edf;" horiz-adv-x="676" 
d="M315 551l-53 72l52 34q33 20 33 50q0 20 -13 32.5t-33 12.5q-37 0 -45 -36l-83 22q13 47 47.5 74t82.5 27q59 0 96 -37t37 -95q0 -40 -20 -68.5t-64 -61.5zM468 370v83h60q49 0 49 42q0 26 -27 46l71 60q50 -31 50 -99q0 -55 -34.5 -93.5t-82.5 -38.5h-86zM163 251
q0 -64 42.5 -105t103.5 -41t103.5 41t42.5 105t-42.5 105t-103.5 41t-103.5 -41t-42.5 -105zM33 251q0 117 80 193t196 76t196 -76t80 -193t-80 -193t-196 -76t-196 76t-80 193z" />
    <glyph glyph-name="uni1EE0" unicode="&#x1ee0;" horiz-adv-x="803" 
d="M318 938q-52 0 -82.5 -36t-40.5 -101l84 -18q11 66 45 66q19 0 47 -26q55 -46 101 -46q50 0 81 36t40 101l-84 18q-12 -63 -49 -63q-23 0 -49 25q-28 24 -48.5 34t-44.5 10zM569 578v83h60q49 0 49 42q0 26 -27 46l71 60q50 -31 50 -99q0 -55 -34.5 -93.5t-82.5 -38.5
h-86zM163 353q0 -106 67 -173.5t164 -67.5t164 67.5t67 173.5q0 104 -67 170.5t-164 66.5t-164 -66.5t-67 -170.5zM33 353q0 106 49 190.5t131 130.5t181 46t181 -46t131 -130.5t49 -190.5q0 -80 -28.5 -149.5t-77.5 -118t-115 -76t-140 -27.5t-140 27.5t-115 76t-77.5 118
t-28.5 149.5z" />
    <glyph glyph-name="uni1EE1" unicode="&#x1ee1;" horiz-adv-x="676" 
d="M232 729q-52 0 -82.5 -36t-40.5 -101l84 -18q11 66 45 66q19 0 47 -26q55 -46 101 -46q50 0 81 36t40 101l-84 18q-12 -63 -49 -63q-23 0 -49 25q-28 24 -48.5 34t-44.5 10zM468 370v83h60q49 0 49 42q0 26 -27 46l71 60q50 -31 50 -99q0 -55 -34.5 -93.5t-82.5 -38.5
h-86zM163 251q0 -64 42.5 -105t103.5 -41t103.5 41t42.5 105t-42.5 105t-103.5 41t-103.5 -41t-42.5 -105zM33 251q0 117 80 193t196 76t196 -76t80 -193t-80 -193t-196 -76t-196 76t-80 193z" />
    <glyph glyph-name="uni1EE2" unicode="&#x1ee2;" horiz-adv-x="803" 
d="M315 -149.5q0 33.5 23 56t56 22.5t56 -22.5t23 -56t-23 -56.5t-56 -23t-56 23t-23 56.5zM569 578v83h60q49 0 49 42q0 26 -27 46l71 60q50 -31 50 -99q0 -55 -34.5 -93.5t-82.5 -38.5h-86zM163 353q0 -106 67 -173.5t164 -67.5t164 67.5t67 173.5q0 104 -67 170.5
t-164 66.5t-164 -66.5t-67 -170.5zM33 353q0 106 49 190.5t131 130.5t181 46t181 -46t131 -130.5t49 -190.5q0 -80 -28.5 -149.5t-77.5 -118t-115 -76t-140 -27.5t-140 27.5t-115 76t-77.5 118t-28.5 149.5z" />
    <glyph glyph-name="uni1EE3" unicode="&#x1ee3;" horiz-adv-x="676" 
d="M228 -149.5q0 33.5 23 56t56 22.5t56 -22.5t23 -56t-23 -56.5t-56 -23t-56 23t-23 56.5zM468 370v83h60q49 0 49 42q0 26 -27 46l71 60q50 -31 50 -99q0 -55 -34.5 -93.5t-82.5 -38.5h-86zM163 251q0 -64 42.5 -105t103.5 -41t103.5 41t42.5 105t-42.5 105t-103.5 41
t-103.5 -41t-42.5 -105zM33 251q0 117 80 193t196 76t196 -76t80 -193t-80 -193t-196 -76t-196 76t-80 193z" />
    <glyph glyph-name="uni1EE4" unicode="&#x1ee4;" horiz-adv-x="690" 
d="M265 -149.5q0 33.5 23 56t56 22.5t56 -22.5t23 -56t-23 -56.5t-56 -23t-56 23t-23 56.5zM345 -11q-124 0 -208 82.5t-84 208.5v420h130v-410q0 -80 45.5 -125.5t116.5 -45.5t116.5 45.5t45.5 125.5v410h130v-420q0 -126 -84 -208.5t-208 -82.5z" />
    <glyph glyph-name="uni1EE5" unicode="&#x1ee5;" horiz-adv-x="547" 
d="M192 -149.5q0 33.5 23 56t56 22.5t56 -22.5t23 -56t-23 -56.5t-56 -23t-56 23t-23 56.5zM495 500v-500h-130v500h130zM183 500v-296q0 -43 24.5 -67.5t62.5 -24.5q40 0 67.5 25t27.5 60h51q0 -88 -54 -148t-134 -60q-75 0 -125 50t-50 135v326h130z" />
    <glyph glyph-name="uni1EE6" unicode="&#x1ee6;" horiz-adv-x="690" 
d="M352 760l-53 72l52 34q33 20 33 50q0 20 -13 32.5t-33 12.5q-37 0 -45 -36l-83 22q13 47 47.5 74t82.5 27q59 0 96 -37t37 -95q0 -40 -20 -68.5t-64 -61.5zM345 -11q-124 0 -208 82.5t-84 208.5v420h130v-410q0 -80 45.5 -125.5t116.5 -45.5t116.5 45.5t45.5 125.5v410
h130v-420q0 -126 -84 -208.5t-208 -82.5z" />
    <glyph glyph-name="uni1EE7" unicode="&#x1ee7;" horiz-adv-x="547" 
d="M276 551l-53 72l52 34q33 20 33 50q0 20 -13 32.5t-33 12.5q-37 0 -45 -36l-83 22q13 47 47.5 74t82.5 27q59 0 96 -37t37 -95q0 -40 -20 -68.5t-64 -61.5zM495 500v-500h-130v500h130zM183 500v-296q0 -43 24.5 -67.5t62.5 -24.5q40 0 67.5 25t27.5 60h51
q0 -88 -54 -148t-134 -60q-75 0 -125 50t-50 135v326h130z" />
    <glyph glyph-name="uni1EE8" unicode="&#x1ee8;" horiz-adv-x="783" 
d="M496 932l-87 85l-156 -166l70 -74zM589 578v83h60q49 0 49 42q0 26 -27 46l71 60q50 -31 50 -99q0 -55 -34.5 -93.5t-82.5 -38.5h-86zM345 -11q-124 0 -208 82.5t-84 208.5v420h130v-410q0 -80 45.5 -125.5t116.5 -45.5t116.5 45.5t45.5 125.5v410h130v-420
q0 -126 -84 -208.5t-208 -82.5z" />
    <glyph glyph-name="uni1EE9" unicode="&#x1ee9;" horiz-adv-x="658" 
d="M420 723l-87 85l-156 -166l70 -74zM458 370v83h60q49 0 49 42q0 26 -27 46l71 60q50 -31 50 -99q0 -55 -34.5 -93.5t-82.5 -38.5h-86zM495 500v-500h-130v500h130zM183 500v-296q0 -43 24.5 -67.5t62.5 -24.5q40 0 67.5 25t27.5 60h51q0 -88 -54 -148t-134 -60
q-75 0 -125 50t-50 135v326h130z" />
    <glyph glyph-name="uni1EEA" unicode="&#x1eea;" horiz-adv-x="783" 
d="M186 932l87 78l163 -159l-84 -74zM589 578v83h60q49 0 49 42q0 26 -27 46l71 60q50 -31 50 -99q0 -55 -34.5 -93.5t-82.5 -38.5h-86zM345 -11q-124 0 -208 82.5t-84 208.5v420h130v-410q0 -80 45.5 -125.5t116.5 -45.5t116.5 45.5t45.5 125.5v410h130v-420
q0 -126 -84 -208.5t-208 -82.5z" />
    <glyph glyph-name="uni1EEB" unicode="&#x1eeb;" horiz-adv-x="658" 
d="M110 723l87 78l163 -159l-84 -74zM458 370v83h60q49 0 49 42q0 26 -27 46l71 60q50 -31 50 -99q0 -55 -34.5 -93.5t-82.5 -38.5h-86zM495 500v-500h-130v500h130zM183 500v-296q0 -43 24.5 -67.5t62.5 -24.5q40 0 67.5 25t27.5 60h51q0 -88 -54 -148t-134 -60
q-75 0 -125 50t-50 135v326h130z" />
    <glyph glyph-name="uni1EEC" unicode="&#x1eec;" horiz-adv-x="783" 
d="M352 760l-53 72l52 34q33 20 33 50q0 20 -13 32.5t-33 12.5q-37 0 -45 -36l-83 22q13 47 47.5 74t82.5 27q59 0 96 -37t37 -95q0 -40 -20 -68.5t-64 -61.5zM589 578v83h60q49 0 49 42q0 26 -27 46l71 60q50 -31 50 -99q0 -55 -34.5 -93.5t-82.5 -38.5h-86zM345 -11
q-124 0 -208 82.5t-84 208.5v420h130v-410q0 -80 45.5 -125.5t116.5 -45.5t116.5 45.5t45.5 125.5v410h130v-420q0 -126 -84 -208.5t-208 -82.5z" />
    <glyph glyph-name="uni1EED" unicode="&#x1eed;" horiz-adv-x="658" 
d="M276 551l-53 72l52 34q33 20 33 50q0 20 -13 32.5t-33 12.5q-37 0 -45 -36l-83 22q13 47 47.5 74t82.5 27q59 0 96 -37t37 -95q0 -40 -20 -68.5t-64 -61.5zM458 370v83h60q49 0 49 42q0 26 -27 46l71 60q50 -31 50 -99q0 -55 -34.5 -93.5t-82.5 -38.5h-86zM495 500v-500
h-130v500h130zM183 500v-296q0 -43 24.5 -67.5t62.5 -24.5q40 0 67.5 25t27.5 60h51q0 -88 -54 -148t-134 -60q-75 0 -125 50t-50 135v326h130z" />
    <glyph glyph-name="uni1EEE" unicode="&#x1eee;" horiz-adv-x="783" 
d="M269 938q-52 0 -82.5 -36t-40.5 -101l84 -18q11 66 45 66q19 0 47 -26q55 -46 101 -46q50 0 81 36t40 101l-84 18q-12 -63 -49 -63q-23 0 -49 25q-28 24 -48.5 34t-44.5 10zM589 578v83h60q49 0 49 42q0 26 -27 46l71 60q50 -31 50 -99q0 -55 -34.5 -93.5t-82.5 -38.5
h-86zM345 -11q-124 0 -208 82.5t-84 208.5v420h130v-410q0 -80 45.5 -125.5t116.5 -45.5t116.5 45.5t45.5 125.5v410h130v-420q0 -126 -84 -208.5t-208 -82.5z" />
    <glyph glyph-name="uni1EEF" unicode="&#x1eef;" horiz-adv-x="658" 
d="M193 729q-52 0 -82.5 -36t-40.5 -101l84 -18q11 66 45 66q19 0 47 -26q55 -46 101 -46q50 0 81 36t40 101l-84 18q-12 -63 -49 -63q-23 0 -49 25q-28 24 -48.5 34t-44.5 10zM458 370v83h60q49 0 49 42q0 26 -27 46l71 60q50 -31 50 -99q0 -55 -34.5 -93.5t-82.5 -38.5
h-86zM495 500v-500h-130v500h130zM183 500v-296q0 -43 24.5 -67.5t62.5 -24.5q40 0 67.5 25t27.5 60h51q0 -88 -54 -148t-134 -60q-75 0 -125 50t-50 135v326h130z" />
    <glyph glyph-name="uni1EF0" unicode="&#x1ef0;" horiz-adv-x="783" 
d="M265 -149.5q0 33.5 23 56t56 22.5t56 -22.5t23 -56t-23 -56.5t-56 -23t-56 23t-23 56.5zM589 578v83h60q49 0 49 42q0 26 -27 46l71 60q50 -31 50 -99q0 -55 -34.5 -93.5t-82.5 -38.5h-86zM345 -11q-124 0 -208 82.5t-84 208.5v420h130v-410q0 -80 45.5 -125.5
t116.5 -45.5t116.5 45.5t45.5 125.5v410h130v-420q0 -126 -84 -208.5t-208 -82.5z" />
    <glyph glyph-name="uni1EF1" unicode="&#x1ef1;" horiz-adv-x="658" 
d="M192 -149.5q0 33.5 23 56t56 22.5t56 -22.5t23 -56t-23 -56.5t-56 -23t-56 23t-23 56.5zM458 370v83h60q49 0 49 42q0 26 -27 46l71 60q50 -31 50 -99q0 -55 -34.5 -93.5t-82.5 -38.5h-86zM495 500v-500h-130v500h130zM183 500v-296q0 -43 24.5 -67.5t62.5 -24.5
q40 0 67.5 25t27.5 60h51q0 -88 -54 -148t-134 -60q-75 0 -125 50t-50 135v326h130z" />
    <glyph glyph-name="Ygrave" unicode="&#x1ef2;" horiz-adv-x="683" 
d="M190 932l87 78l163 -159l-84 -74zM287 0h130v227l241 473h-152l-154 -316l-173 316h-153l261 -473v-227z" />
    <glyph glyph-name="ygrave" unicode="&#x1ef3;" horiz-adv-x="593" 
d="M137 723l87 78l163 -159l-84 -74zM426 500l-129 -347l-130 347h-138l194 -487l-79 -213h138l283 700h-139z" />
    <glyph glyph-name="uni1EF4" unicode="&#x1ef4;" horiz-adv-x="683" 
d="M274 -149.5q0 33.5 23 56t56 22.5t56 -22.5t23 -56t-23 -56.5t-56 -23t-56 23t-23 56.5zM287 0h130v227l241 473h-152l-154 -316l-173 316h-153l261 -473v-227z" />
    <glyph glyph-name="uni1EF5" unicode="&#x1ef5;" horiz-adv-x="593" 
d="M388 -149.5q0 33.5 23 56t56 22.5t56 -22.5t23 -56t-23 -56.5t-56 -23t-56 23t-23 56.5zM426 500l-129 -347l-130 347h-138l194 -487l-79 -213h138l283 700h-139z" />
    <glyph glyph-name="uni1EF6" unicode="&#x1ef6;" horiz-adv-x="683" 
d="M356 760l-53 72l52 34q33 20 33 50q0 20 -13 32.5t-33 12.5q-37 0 -45 -36l-83 22q13 47 47.5 74t82.5 27q59 0 96 -37t37 -95q0 -40 -20 -68.5t-64 -61.5zM287 0h130v227l241 473h-152l-154 -316l-173 316h-153l261 -473v-227z" />
    <glyph glyph-name="uni1EF7" unicode="&#x1ef7;" horiz-adv-x="593" 
d="M303 551l-53 72l52 34q33 20 33 50q0 20 -13 32.5t-33 12.5q-37 0 -45 -36l-83 22q13 47 47.5 74t82.5 27q59 0 96 -37t37 -95q0 -40 -20 -68.5t-64 -61.5zM426 500l-129 -347l-130 347h-138l194 -487l-79 -213h138l283 700h-139z" />
    <glyph glyph-name="uni1EF8" unicode="&#x1ef8;" horiz-adv-x="683" 
d="M273 938q-52 0 -82.5 -36t-40.5 -101l84 -18q11 66 45 66q19 0 47 -26q55 -46 101 -46q50 0 81 36t40 101l-84 18q-12 -63 -49 -63q-23 0 -49 25q-28 24 -48.5 34t-44.5 10zM287 0h130v227l241 473h-152l-154 -316l-173 316h-153l261 -473v-227z" />
    <glyph glyph-name="uni1EF9" unicode="&#x1ef9;" horiz-adv-x="593" 
d="M220 729q-52 0 -82.5 -36t-40.5 -101l84 -18q11 66 45 66q19 0 47 -26q55 -46 101 -46q50 0 81 36t40 101l-84 18q-12 -63 -49 -63q-23 0 -49 25q-28 24 -48.5 34t-44.5 10zM426 500l-129 -347l-130 347h-138l194 -487l-79 -213h138l283 700h-139z" />
    <glyph glyph-name="uni2010" unicode="&#x2010;" horiz-adv-x="361" 
d="M335 323v-113h-308v113h308z" />
    <glyph glyph-name="endash" unicode="&#x2013;" horiz-adv-x="548" 
d="M522 323v-113h-495v113h495z" />
    <glyph glyph-name="emdash" unicode="&#x2014;" horiz-adv-x="874" 
d="M848 323v-113h-821v113h821z" />
    <glyph glyph-name="quoteleft" unicode="&#x2018;" horiz-adv-x="242" 
d="M208 713q-45 -10 -75 -42.5t-30 -73.5q11 11 35 11q33 0 56 -24t23 -58t-25 -56.5t-61 -22.5q-50 0 -80 46q-21 34 -21 84q0 64 42 124.5t100 79.5z" />
    <glyph glyph-name="quoteright" unicode="&#x2019;" horiz-adv-x="242" 
d="M38 515q46 9 75.5 42t29.5 73q-10 -10 -34 -10q-33 0 -56 24t-23 58t24.5 56.5t61.5 22.5q50 0 79 -47q22 -33 22 -84q0 -64 -42.5 -124.5t-100.5 -78.5z" />
    <glyph glyph-name="quotesinglbase" unicode="&#x201a;" horiz-adv-x="242" 
d="M38 -112q46 9 75.5 42t29.5 73q-10 -10 -34 -10q-33 0 -56 23.5t-23 57.5t24.5 56.5t61.5 22.5q50 0 79 -46q22 -33 22 -84q0 -64 -42.5 -124.5t-100.5 -78.5z" />
    <glyph glyph-name="quotereversed" unicode="&#x201b;" horiz-adv-x="242" 
d="M208 515l-36 -68q-58 18 -100 78.5t-42 124.5q0 51 21 84q30 47 80 47q36 0 61 -22.5t25 -56.5t-23 -58t-56 -24q-24 0 -35 10q0 -40 30 -73t75 -42z" />
    <glyph glyph-name="quotedblleft" unicode="&#x201c;" horiz-adv-x="459" 
d="M425 713q-46 -10 -75.5 -42.5t-29.5 -73.5q10 11 35 11q33 0 55.5 -24t22.5 -58t-24.5 -56.5t-61.5 -22.5q-50 0 -79 46q-21 34 -21 84q0 64 42 124.5t100 79.5zM208 713q-45 -10 -75 -42.5t-30 -73.5q11 11 35 11q33 0 56 -24t23 -58t-25 -56.5t-61 -22.5q-50 0 -80 46
q-21 34 -21 84q0 64 42 124.5t100 79.5z" />
    <glyph glyph-name="quotedblright" unicode="&#x201d;" horiz-adv-x="459" 
d="M38 515q46 9 75.5 42t29.5 73q-10 -10 -34 -10q-33 0 -56 24t-23 58t24.5 56.5t61.5 22.5q50 0 79 -47q22 -33 22 -84q0 -64 -42.5 -124.5t-100.5 -78.5zM255 515q45 9 75 42t30 73q-10 -10 -35 -10q-33 0 -55.5 24t-22.5 58t24.5 56.5t61.5 22.5q50 0 79 -47
q21 -33 21 -84q0 -64 -42 -124.5t-100 -78.5z" />
    <glyph glyph-name="quotedblbase" unicode="&#x201e;" horiz-adv-x="459" 
d="M38 -112q46 9 75.5 42t29.5 73q-10 -10 -34 -10q-33 0 -56 24t-23 58t24.5 56t61.5 22q50 0 79 -46q22 -33 22 -84q0 -64 -42.5 -124.5t-100.5 -78.5zM255 -112q45 9 75 42t30 73q-10 -10 -35 -10q-33 0 -55.5 24t-22.5 58t24.5 56t61.5 22q50 0 79 -46q21 -33 21 -84
q0 -64 -42 -124.5t-100 -78.5z" />
    <glyph glyph-name="uni201F" unicode="&#x201f;" horiz-adv-x="459" 
d="M425 515l-36 -68q-58 18 -100 78.5t-42 124.5q0 51 21 84q29 47 79 47q37 0 61.5 -22.5t24.5 -56.5t-22.5 -58t-55.5 -24q-25 0 -35 10q0 -40 29.5 -73t75.5 -42zM208 515l-36 -68q-58 18 -100 78.5t-42 124.5q0 51 21 84q30 47 80 47q36 0 61 -22.5t25 -56.5t-23 -58
t-56 -24q-24 0 -35 10q0 -40 30 -73t75 -42z" />
    <glyph glyph-name="dagger" unicode="&#x2020;" horiz-adv-x="391" 
d="M115 647h163l-16 -142h100v-120h-100v-385h-130v385h-102v120h102z" />
    <glyph glyph-name="daggerdbl" unicode="&#x2021;" horiz-adv-x="391" 
d="M115 647h163l-17 -142h100v-120h-100v-123h101v-120h-101l15 -142h-163l17 142h-100v120h100v123h-101v120h101z" />
    <glyph glyph-name="bullet" unicode="&#x2022;" horiz-adv-x="241" 
d="M32 282q0 39 24.5 65t61.5 26q39 0 65.5 -26t26.5 -65q0 -38 -25.5 -63.5t-63.5 -25.5t-63.5 25.5t-25.5 63.5z" />
    <glyph glyph-name="uni2023" unicode="&#x2023;" horiz-adv-x="241" 
d="M45 393l165 -111l-165 -109v220z" />
    <glyph glyph-name="ellipsis" unicode="&#x2026;" horiz-adv-x="725" 
d="M516 72q0 39 24.5 65t61.5 26q39 0 65.5 -26t26.5 -65q0 -38 -25.5 -63.5t-63.5 -25.5t-63.5 25.5t-25.5 63.5zM274 72q0 39 24.5 65t61.5 26q39 0 65.5 -26t26.5 -65q0 -38 -25.5 -63.5t-63.5 -25.5t-63.5 25.5t-25.5 63.5zM32 72q0 39 24.5 65t61.5 26q39 0 65.5 -26
t26.5 -65q0 -38 -25.5 -63.5t-63.5 -25.5t-63.5 25.5t-25.5 63.5z" />
    <glyph glyph-name="perthousand" unicode="&#x2030;" horiz-adv-x="1438" 
d="M1123 192.5q0 -37.5 25 -62t61 -24.5t61 24.5t25 62t-25 61.5t-61 24t-61 -24t-25 -61.5zM1007 192.5q0 87.5 58.5 144.5t143.5 57t143.5 -57t58.5 -144.5t-58.5 -145t-143.5 -57.5t-143.5 57.5t-58.5 145zM687 192.5q0 -37.5 25 -62t60.5 -24.5t60.5 24.5t25 62
t-25 61.5t-60.5 24t-60.5 -24t-25 -61.5zM570 192.5q0 87.5 59 144.5t143.5 57t143.5 -57t59 -144.5t-59 -145t-143.5 -57.5t-143.5 57.5t-59 145zM143 507.5q0 -37.5 25 -61.5t61 -24t61 24t25 61.5t-25 62t-61 24.5t-61 -24.5t-25 -62zM27 507.5q0 87.5 58.5 145
t143.5 57.5t143.5 -57.5t58.5 -145t-58.5 -144.5t-143.5 -57t-143.5 57t-58.5 144.5zM429 0h-143l287 700h143z" />
    <glyph glyph-name="minute" unicode="&#x2032;" horiz-adv-x="227" 
d="M82 770l117 -33l-59 -241l-112 31z" />
    <glyph glyph-name="second" unicode="&#x2033;" horiz-adv-x="413" 
d="M269 770l116 -33l-59 -241l-111 31zM82 770l117 -33l-59 -241l-112 31z" />
    <glyph glyph-name="uni2034" unicode="&#x2034;" horiz-adv-x="600" 
d="M455 770l117 -33l-59 -241l-112 31zM269 770l116 -33l-59 -241l-111 31zM82 770l117 -33l-59 -241l-112 31z" />
    <glyph glyph-name="uni2035" unicode="&#x2035;" horiz-adv-x="227" 
d="M145 770l54 -243l-112 -31l-59 241z" />
    <glyph glyph-name="uni2036" unicode="&#x2036;" horiz-adv-x="413" 
d="M145 770l54 -243l-112 -31l-59 241zM331 770l54 -243l-111 -31l-59 241z" />
    <glyph glyph-name="uni2037" unicode="&#x2037;" horiz-adv-x="600" 
d="M145 770l54 -243l-112 -31l-59 241zM331 770l54 -243l-111 -31l-59 241zM518 770l54 -243l-112 -31l-59 241z" />
    <glyph glyph-name="fractionslash" unicode="&#x2044;" horiz-adv-x="137" 
d="M-3 0h-144l287 700h144z" />
    <glyph glyph-name="uni2070" unicode="&#x2070;" horiz-adv-x="348" 
d="M132 620q0 -20 12.5 -33t31.5 -13q17 0 29 13t12 33v79q0 21 -12 34.5t-29 13.5q-19 0 -31.5 -13.5t-12.5 -34.5v-79zM28 614v92q0 63 43 103.5t105 40.5q60 0 102 -40.5t42 -103.5v-92q0 -62 -42 -102.5t-102 -40.5q-62 0 -105 40.5t-43 102.5z" />
    <glyph glyph-name="uni2074" unicode="&#x2074;" horiz-adv-x="362" 
d="M128 635h60v84zM291 841v-206h43v-86h-43v-70h-103v70h-160v98l147 194h116z" />
    <glyph glyph-name="uni2075" unicode="&#x2075;" horiz-adv-x="348" 
d="M132 699v51h174v92h-278v-181l104 -32q20 23 44 23q18 0 29.5 -13t11.5 -32q0 -17 -12 -28t-31 -11q-37 0 -45 34l-101 -25q15 -49 55 -77.5t94 -28.5q62 0 102.5 38.5t40.5 97.5q0 51 -30.5 86.5t-75.5 35.5q-47 0 -82 -30z" />
    <glyph glyph-name="uni2076" unicode="&#x2076;" horiz-adv-x="350" 
d="M255 733q-20 28 -58 28q-30 0 -49.5 -24.5t-22.5 -67.5q11 21 33.5 33.5t49.5 12.5q44 0 75.5 -34.5t31.5 -83.5q0 -54 -39.5 -90t-99.5 -36q-70 0 -110 51q-38 49 -38 129q0 89 45.5 144t118.5 55q45 0 79.5 -20.5t50.5 -58.5zM138 598q0 -16 12 -27t29 -11t28.5 10
t11.5 25q0 16 -12 26t-30 10q-17 0 -28 -9.5t-11 -23.5z" />
    <glyph glyph-name="uni2077" unicode="&#x2077;" horiz-adv-x="325" 
d="M192 479l106 257v105h-270v-92h171l-118 -270h111z" />
    <glyph glyph-name="uni2078" unicode="&#x2078;" horiz-adv-x="345" 
d="M132 591q0 -13 11.5 -22t29.5 -9t29.5 9t11.5 22t-11.5 22t-29.5 9t-29.5 -9t-11.5 -22zM41 746q0 44 38.5 74t93.5 30t93.5 -30t38.5 -74q0 -27 -15 -48.5t-43 -33.5q34 -11 52.5 -33.5t18.5 -51.5q0 -46 -42 -77t-103 -31t-103 31t-42 77q0 29 18.5 51.5t52.5 33.5
q-28 12 -43 33.5t-15 48.5zM173 704q12 0 20.5 8.5t8.5 20.5t-8 19.5t-21 7.5t-21 -7.5t-8 -19.5t8.5 -20.5t20.5 -8.5z" />
    <glyph glyph-name="uni2079" unicode="&#x2079;" horiz-adv-x="350" 
d="M96 588q20 -28 58 -28q30 0 49.5 24.5t22.5 67.5q-12 -21 -34.5 -33.5t-48.5 -12.5q-45 0 -76.5 34.5t-31.5 83.5q0 54 40 90t100 36q70 0 109 -51q38 -49 38 -129q0 -89 -45.5 -144t-118.5 -55q-45 0 -79 20.5t-51 57.5zM213 723q0 16 -12 26.5t-30 10.5q-17 0 -28 -9.5
t-11 -24.5q0 -16 12 -26t30 -10q17 0 28 9t11 24z" />
    <glyph glyph-name="uni2080" unicode="&#x2080;" horiz-adv-x="348" 
d="M132 -12q0 -20 12.5 -33t31.5 -13q17 0 29 13t12 33v80q0 20 -12 33.5t-29 13.5q-19 0 -31.5 -13.5t-12.5 -33.5v-80zM28 -18v92q0 63 43 103.5t105 40.5q60 0 102 -40.5t42 -103.5v-92q0 -62 -42 -102.5t-102 -40.5q-62 0 -105 40.5t-43 102.5z" />
    <glyph glyph-name="uni2081" unicode="&#x2081;" horiz-adv-x="269" 
d="M241 210v-362h-103v243l-53 -42l-57 75l108 86h105z" />
    <glyph glyph-name="uni2082" unicode="&#x2082;" horiz-adv-x="337" 
d="M309 85q0 56 -40.5 92.5t-98.5 36.5q-55 0 -90.5 -30t-51.5 -77l96 -34q11 38 41 38q14 0 24 -9.5t10 -25.5q0 -12 -13 -24t-26 -19.5t-35 -18.5l-95 -48v-119h280v100h-149l41 21q107 50 107 117z" />
    <glyph glyph-name="uni2083" unicode="&#x2083;" horiz-adv-x="351" 
d="M224 51l92 48v112h-272v-93h173l-74 -46l24 -67q46 0 46 -31q0 -13 -10 -21t-26 -8q-34 0 -41 36l-108 -19q15 -55 56 -88t99 -33q61 0 100.5 32.5t39.5 81.5q0 41 -27.5 68t-71.5 28z" />
    <glyph glyph-name="uni2084" unicode="&#x2084;" horiz-adv-x="362" 
d="M128 3h60v85zM291 210v-207h43v-86h-43v-69h-103v69h-160v99l147 194h116z" />
    <glyph glyph-name="uni2085" unicode="&#x2085;" horiz-adv-x="348" 
d="M132 67v51h174v93h-278v-181l104 -32q20 22 44 22q18 0 29.5 -13t11.5 -32q0 -17 -12 -28t-31 -11q-37 0 -45 34l-101 -25q15 -49 55 -77t94 -28q62 0 102.5 38t40.5 97q0 52 -30.5 87t-75.5 35q-47 0 -82 -30z" />
    <glyph glyph-name="uni2086" unicode="&#x2086;" horiz-adv-x="350" 
d="M255 101q-20 28 -58 28q-30 0 -49.5 -24.5t-22.5 -67.5q11 21 33.5 33.5t49.5 12.5q44 0 75.5 -34.5t31.5 -83.5q0 -54 -39.5 -90t-99.5 -36q-70 0 -110 51q-38 49 -38 129q0 89 45.5 144t118.5 55q45 0 79.5 -20.5t50.5 -57.5zM138 -34q0 -16 12 -26.5t29 -10.5
t28.5 9.5t11.5 24.5q0 16 -12 26t-30 10q-17 0 -28 -9t-11 -24z" />
    <glyph glyph-name="uni2087" unicode="&#x2087;" horiz-adv-x="325" 
d="M192 -152l106 257v105h-270v-93h171l-118 -269h111z" />
    <glyph glyph-name="uni2088" unicode="&#x2088;" horiz-adv-x="345" 
d="M132 -40.5q0 -13.5 11.5 -22t29.5 -8.5t29.5 8.5t11.5 22t-11.5 22t-29.5 8.5t-29.5 -8.5t-11.5 -22zM41 114q0 44 38.5 74t93.5 30t93.5 -30t38.5 -74q0 -27 -15 -48.5t-43 -33.5q34 -11 52.5 -33.5t18.5 -51.5q0 -46 -42 -77t-103 -31t-103 31t-42 77q0 29 18.5 51.5
t52.5 33.5q-28 12 -43 33.5t-15 48.5zM173 72q12 0 20.5 8.5t8.5 20.5t-8 20t-21 8t-21 -8t-8 -20t8.5 -20.5t20.5 -8.5z" />
    <glyph glyph-name="uni2089" unicode="&#x2089;" horiz-adv-x="350" 
d="M96 -44q20 -28 58 -28q30 0 49.5 24.5t22.5 67.5q-12 -21 -34.5 -33.5t-48.5 -12.5q-45 0 -76.5 34.5t-31.5 83.5q0 54 40 90t100 36q70 0 109 -51q38 -49 38 -129q0 -89 -45.5 -144t-118.5 -55q-45 0 -79 20.5t-51 58.5zM213 91q0 16 -12 27t-30 11q-17 0 -28 -10
t-11 -25q0 -16 12 -26t30 -10q17 0 28 9.5t11 23.5z" />
    <glyph glyph-name="dong" unicode="&#x20ab;" horiz-adv-x="668" 
d="M645 -63v-101h-618v101h618zM501 251q0 -116 -66 -192.5t-164 -76.5q-100 0 -169 77t-69 192t69 192t169 77q98 0 164 -76.5t66 -192.5zM455 251q0 63 -42 104.5t-104 41.5t-104 -41.5t-42 -104.5t42 -104.5t104 -41.5t104 41.5t42 104.5zM585 0h-130v576h-202v114h202
v60h130v-60h83v-114h-83v-576z" />
    <glyph glyph-name="Euro" unicode="&#x20ac;" horiz-adv-x="851" 
d="M542 316v-74h-509v74h509zM542 473v-81h-509v81h509zM113 351q0 104 48 188.5t130.5 132.5t182.5 48q104 0 189.5 -50t129.5 -136l-110 -67q-28 58 -84.5 90.5t-125.5 32.5q-97 0 -163.5 -68t-66.5 -171t66.5 -171t162.5 -68q72 0 129.5 35t85.5 97l111 -66
q-42 -90 -129.5 -143t-194.5 -53q-100 0 -182.5 48t-130.5 132.5t-48 188.5z" />
    <glyph glyph-name="uni20B4" unicode="&#x20b4;" horiz-adv-x="587" 
d="M562 323v-74h-354q-26 -21 -26 -54q0 -37 28.5 -59.5t72.5 -22.5q48 0 87 27.5t58 76.5l126 -60q-33 -76 -107.5 -122t-166.5 -46q-102 0 -167.5 54.5t-65.5 139.5q0 37 17 66h-37v74h535zM519 459h43v-73h-535v73h349q22 19 22 51q0 36 -26 57.5t-68 21.5
q-45 0 -82.5 -25.5t-56.5 -69.5l-124 46q32 79 105 126t162 47q99 0 162 -54.5t63 -139.5q0 -34 -14 -60z" />
    <glyph glyph-name="uni20B8" unicode="&#x20b8;" horiz-adv-x="607" 
d="M25 579v121h557v-121h-557zM582 510v-128h-213v-382h-130v382h-214v128h557z" />
    <glyph glyph-name="uni20BD" unicode="&#x20bd;" horiz-adv-x="637" 
d="M389 292h-149v-62h152v-100h-152v-130h-130v130h-83v100h83v63h-83v114h83v293h289q90 0 149.5 -59.5t59.5 -149.5q0 -83 -63.5 -141t-155.5 -58zM389 572h-149v-165h149q38 0 63.5 24t25.5 60q0 35 -25.5 58t-63.5 23z" />
    <glyph glyph-name="uni2103" unicode="&#x2103;" horiz-adv-x="1222" 
d="M477 351q0 104 48 188.5t131.5 132.5t184.5 48q112 0 204 -60.5t139 -165.5l-130 -47q-29 67 -86 105t-128 38q-98 0 -165.5 -68t-67.5 -171t67.5 -171t165.5 -68q73 0 131 40.5t87 111.5l131 -46q-46 -109 -139.5 -172.5t-208.5 -63.5q-101 0 -184.5 48t-131.5 132.5
t-48 188.5zM143 514.5q0 -34.5 23 -57t56 -22.5t56 22.5t23 57t-23 57t-56 22.5t-56 -22.5t-23 -57zM27 514.5q0 84.5 56.5 140t138.5 55.5t139 -55.5t57 -140t-57 -140t-139 -55.5t-138.5 55.5t-56.5 140z" />
    <glyph glyph-name="uni2109" unicode="&#x2109;" horiz-adv-x="1022" 
d="M627 415h336v-128h-336v-287h-130v700h490v-128h-360v-157zM143 514.5q0 -34.5 23 -57t56 -22.5t56 22.5t23 57t-23 57t-56 22.5t-56 -22.5t-23 -57zM27 514.5q0 84.5 56.5 140t138.5 55.5t139 -55.5t57 -140t-57 -140t-139 -55.5t-138.5 55.5t-56.5 140z" />
    <glyph glyph-name="trademark" unicode="&#x2122;" horiz-adv-x="528" 
d="M216 700v-54h-66v-191h-57v191h-63v54h186zM246 455v245h70l55 -124l56 124h71v-245h-58v145l-48 -105h-41l-48 105v-145h-57z" />
    <glyph glyph-name="estimated" unicode="&#x212e;" horiz-adv-x="598" 
d="M184 519v-137h231v139q-47 36 -116 36t-115 -38zM184 186q48 -41 120 -41q61 0 110.5 30t74.5 83l60 -28q-34 -68 -99.5 -108t-145.5 -40q-113 0 -192 76t-79 193t77.5 193t188.5 76t188.5 -73.5t77.5 -185.5q0 -13 -2 -40h-379v-135z" />
    <glyph glyph-name="arrowleft" unicode="&#x2190;" horiz-adv-x="785" 
d="M326 665l80 -80l-160 -160h503v-113h-502l159 -159l-80 -80l-289 296z" />
    <glyph glyph-name="arrowup" unicode="&#x2191;" horiz-adv-x="664" 
d="M628 436l-79 -81l-160 161v-503h-114v502l-159 -160l-79 81l296 289z" />
    <glyph glyph-name="arrowright" unicode="&#x2192;" horiz-adv-x="785" 
d="M460 67l-81 80l160 160h-502v114h501l-159 159l81 79l289 -296z" />
    <glyph glyph-name="arrowdown" unicode="&#x2193;" horiz-adv-x="664" 
d="M37 297l79 80l160 -160v503h114v-502l159 159l79 -80l-296 -290z" />
    <glyph glyph-name="arrowboth" unicode="&#x2194;" horiz-adv-x="949" 
d="M623 67l-80 80l159 159h-454l158 -158l-80 -80l-289 296l289 296l80 -80l-159 -159h454l-158 159l80 79l289 -296z" />
    <glyph glyph-name="arrowupdn" unicode="&#x2195;" horiz-adv-x="665" 
d="M37 215l79 81l160 -160v454l-159 -158l-80 80l296 289l296 -289l-79 -80l-160 159v-454l159 159l79 -81l-295 -289z" />
    <glyph glyph-name="uni2196" unicode="&#x2196;" horiz-adv-x="620" 
d="M455 625l1 -113h-227l356 -355l-81 -80l-354 354v-224h-113l4 414z" />
    <glyph glyph-name="uni2197" unicode="&#x2197;" horiz-adv-x="620" 
d="M585 207h-113v226l-355 -355l-80 79l354 355h-225l1 113l413 -4z" />
    <glyph glyph-name="uni2198" unicode="&#x2198;" horiz-adv-x="620" 
d="M166 107v113h226l-355 355l80 81l355 -355v225l113 -1l-5 -413z" />
    <glyph glyph-name="uni2199" unicode="&#x2199;" horiz-adv-x="620" 
d="M37 526h112v-227l356 356l80 -80l-355 -355h226l-1 -113l-414 5z" />
    <glyph glyph-name="approxequal" unicode="&#x2248;" horiz-adv-x="477" 
d="M162 265q-51 0 -82 -36t-40 -101l84 -18q11 65 45 65q19 0 47 -25q55 -46 101 -46q50 0 80.5 36t39.5 101l-84 18q-11 -62 -49 -62q-22 0 -48 24q-28 24 -48.5 34t-45.5 10zM162 451q-51 0 -82 -36t-40 -100l84 -18q11 64 45 64q19 0 47 -25q55 -45 101 -45q50 0 80.5 36
t39.5 100l-84 18q-11 -61 -49 -61q-22 0 -48 23q-28 25 -48.5 34.5t-45.5 9.5z" />
    <glyph glyph-name="notequal" unicode="&#x2260;" horiz-adv-x="418" 
d="M177 3h-130l192 538h130zM392 229v-113h-365v113h365zM392 433v-114h-365v114h365z" />
    <glyph glyph-name="lessequal" unicode="&#x2264;" horiz-adv-x="506" 
d="M473 17v-101h-446v101h446zM473 185v-136l-440 153v170l440 154v-136l-326 -101z" />
    <glyph glyph-name="greaterequal" unicode="&#x2265;" horiz-adv-x="506" 
d="M473 17v-101h-446v101h446zM33 390v136l440 -154v-170l-440 -153v136l327 100z" />
    <glyph glyph-name="filledbox" unicode="&#x25a0;" horiz-adv-x="820" 
d="M60 700h700v-700h-700v700z" />
    <glyph glyph-name="H22073" unicode="&#x25a1;" horiz-adv-x="820" 
d="M190 570v-440h440v440h-440zM60 700h700v-700h-700v700z" />
    <glyph glyph-name="H18543" unicode="&#x25aa;" horiz-adv-x="520" 
d="M60 570h400v-400h-400v400z" />
    <glyph glyph-name="H18551" unicode="&#x25ab;" horiz-adv-x="520" 
d="M176 454v-168h168v168h-168zM53 577h414v-414h-414v414z" />
    <glyph glyph-name="triagup" unicode="&#x25b2;" horiz-adv-x="820" 
d="M410 700l350 -700h-700z" />
    <glyph glyph-name="uni25B3" unicode="&#x25b3;" horiz-adv-x="820" 
d="M410 700l350 -700h-700zM410 477l-183 -374h366z" />
    <glyph glyph-name="uni25B6" unicode="&#x25b6;" horiz-adv-x="820" 
d="M760 350l-700 -350v700z" />
    <glyph glyph-name="uni25B7" unicode="&#x25b7;" horiz-adv-x="820" 
d="M760 350l-700 -350v700zM537 350l-374 183v-366z" />
    <glyph glyph-name="triagdn" unicode="&#x25bc;" horiz-adv-x="820" 
d="M410 0l-350 700h700z" />
    <glyph glyph-name="uni25BD" unicode="&#x25bd;" horiz-adv-x="820" 
d="M410 0l-350 700h700zM410 223l183 374h-366z" />
    <glyph glyph-name="uni25C0" unicode="&#x25c0;" horiz-adv-x="820" 
d="M60 350l700 350v-700z" />
    <glyph glyph-name="uni25C1" unicode="&#x25c1;" horiz-adv-x="820" 
d="M60 350l700 350v-700zM283 350l374 -183v366z" />
    <glyph glyph-name="uni25C6" unicode="&#x25c6;" horiz-adv-x="820" 
d="M53 350l357 357l357 -357l-357 -357z" />
    <glyph glyph-name="uni25C7" unicode="&#x25c7;" horiz-adv-x="820" 
d="M213 350l197 -197l197 197l-197 197zM53 350l357 357l357 -357l-357 -357z" />
    <glyph glyph-name="lozenge" unicode="&#x25ca;" horiz-adv-x="620" 
d="M190 350l120 -201l120 201l-120 201zM53 350l219 357h76l219 -357l-219 -357h-76z" />
    <glyph glyph-name="circle" unicode="&#x25cb;" horiz-adv-x="820" 
d="M203 350q0 -86 60.5 -146.5t146.5 -60.5t146.5 60.5t60.5 146.5t-60.5 146.5t-146.5 60.5t-146.5 -60.5t-60.5 -146.5zM53 350q0 148 104.5 252.5t252.5 104.5t252.5 -104.5t104.5 -252.5t-104.5 -252.5t-252.5 -104.5t-252.5 104.5t-104.5 252.5z" />
    <glyph glyph-name="H18533" unicode="&#x25cf;" horiz-adv-x="820" 
d="M53 350q0 148 104.5 252.5t252.5 104.5t252.5 -104.5t104.5 -252.5t-104.5 -252.5t-252.5 -104.5t-252.5 104.5t-104.5 252.5z" />
    <glyph glyph-name="zero.dnom" horiz-adv-x="348" 
d="M132 138q0 -20 12.5 -33t31.5 -13q17 0 29 13t12 33v80q0 20 -12 33.5t-29 13.5q-19 0 -31.5 -13.5t-12.5 -33.5v-80zM28 132v92q0 63 43 103.5t105 40.5q60 0 102 -40.5t42 -103.5v-92q0 -62 -42 -102.5t-102 -40.5q-62 0 -105 40.5t-43 102.5z" />
    <glyph glyph-name="one.dnom" horiz-adv-x="269" 
d="M241 360v-362h-103v243l-53 -42l-57 75l108 86h105z" />
    <glyph glyph-name="two.dnom" horiz-adv-x="337" 
d="M309 235q0 56 -40.5 92.5t-98.5 36.5q-55 0 -90.5 -30t-51.5 -77l96 -34q11 38 41 38q14 0 24 -9.5t10 -25.5q0 -12 -13 -24t-26 -19.5t-35 -18.5l-95 -48v-119h280v100h-149l41 21q107 50 107 117z" />
    <glyph glyph-name="three.dnom" horiz-adv-x="351" 
d="M224 201l92 48v112h-272v-93h173l-74 -46l24 -67q46 0 46 -31q0 -13 -10 -21t-26 -8q-34 0 -41 36l-108 -19q15 -55 56 -88t99 -33q61 0 100.5 32.5t39.5 81.5q0 41 -27.5 68t-71.5 28z" />
    <glyph glyph-name="four.dnom" horiz-adv-x="362" 
d="M128 153h60v85zM291 360v-207h43v-86h-43v-69h-103v69h-160v99l147 194h116z" />
    <glyph glyph-name="five.dnom" horiz-adv-x="348" 
d="M132 217v51h174v93h-278v-181l104 -32q20 22 44 22q18 0 29.5 -13t11.5 -32q0 -17 -12 -28t-31 -11q-37 0 -45 34l-101 -25q15 -49 55 -77t94 -28q62 0 102.5 38t40.5 97q0 52 -30.5 87t-75.5 35q-47 0 -82 -30z" />
    <glyph glyph-name="six.dnom" horiz-adv-x="350" 
d="M255 251q-20 28 -58 28q-30 0 -49.5 -24.5t-22.5 -67.5q11 21 33.5 33.5t49.5 12.5q44 0 75.5 -34.5t31.5 -83.5q0 -54 -39.5 -90t-99.5 -36q-70 0 -110 51q-38 49 -38 129q0 89 45.5 144t118.5 55q45 0 79.5 -20.5t50.5 -57.5zM138 116q0 -16 12 -26.5t29 -10.5
t28.5 9.5t11.5 24.5q0 16 -12 26t-30 10q-17 0 -28 -9t-11 -24z" />
    <glyph glyph-name="seven.dnom" horiz-adv-x="325" 
d="M192 -2l106 257v105h-270v-93h171l-118 -269h111z" />
    <glyph glyph-name="eight.dnom" horiz-adv-x="345" 
d="M132 109.5q0 -13.5 11.5 -22t29.5 -8.5t29.5 8.5t11.5 22t-11.5 22t-29.5 8.5t-29.5 -8.5t-11.5 -22zM41 264q0 44 38.5 74t93.5 30t93.5 -30t38.5 -74q0 -27 -15 -48.5t-43 -33.5q34 -11 52.5 -33.5t18.5 -51.5q0 -46 -42 -77t-103 -31t-103 31t-42 77q0 29 18.5 51.5
t52.5 33.5q-28 12 -43 33.5t-15 48.5zM173 222q12 0 20.5 8.5t8.5 20.5t-8 20t-21 8t-21 -8t-8 -20t8.5 -20.5t20.5 -8.5z" />
    <glyph glyph-name="nine.dnom" horiz-adv-x="350" 
d="M96 106q20 -28 58 -28q30 0 49.5 24.5t22.5 67.5q-12 -21 -34.5 -33.5t-48.5 -12.5q-45 0 -76.5 34.5t-31.5 83.5q0 54 40 90t100 36q70 0 109 -51q38 -49 38 -129q0 -89 -45.5 -144t-118.5 -55q-45 0 -79 20.5t-51 58.5zM213 241q0 16 -12 27t-30 11q-17 0 -28 -10
t-11 -25q0 -16 12 -26t30 -10q17 0 28 9.5t11 23.5z" />
    <glyph glyph-name="zero.numr" horiz-adv-x="348" 
d="M132 470q0 -20 12.5 -33t31.5 -13q17 0 29 13t12 33v79q0 21 -12 34.5t-29 13.5q-19 0 -31.5 -13.5t-12.5 -34.5v-79zM28 464v92q0 63 43 103.5t105 40.5q60 0 102 -40.5t42 -103.5v-92q0 -62 -42 -102.5t-102 -40.5q-62 0 -105 40.5t-43 102.5z" />
    <glyph glyph-name="one.numr" horiz-adv-x="269" 
d="M241 691v-361h-103v243l-53 -42l-57 74l108 86h105z" />
    <glyph glyph-name="two.numr" horiz-adv-x="337" 
d="M309 567q0 56 -40.5 92.5t-98.5 36.5q-55 0 -90.5 -30t-51.5 -78l96 -33q11 38 41 38q14 0 24 -10t10 -25q0 -12 -13 -24.5t-26 -20t-35 -18.5l-95 -48v-118h280v99h-149l41 21q107 51 107 118z" />
    <glyph glyph-name="three.numr" horiz-adv-x="351" 
d="M224 532l92 49v111h-272v-92h173l-74 -47l24 -66q46 0 46 -32q0 -13 -10 -21t-26 -8q-34 0 -41 37l-108 -19q15 -56 56 -88.5t99 -32.5q61 0 100.5 32t39.5 81q0 42 -27.5 68.5t-71.5 27.5z" />
    <glyph glyph-name="four.numr" horiz-adv-x="362" 
d="M128 485h60v84zM291 691v-206h43v-86h-43v-70h-103v70h-160v98l147 194h116z" />
    <glyph glyph-name="five.numr" horiz-adv-x="348" 
d="M132 549v51h174v92h-278v-181l104 -32q20 23 44 23q18 0 29.5 -13t11.5 -32q0 -17 -12 -28t-31 -11q-37 0 -45 34l-101 -25q15 -49 55 -77.5t94 -28.5q62 0 102.5 38.5t40.5 97.5q0 51 -30.5 86.5t-75.5 35.5q-47 0 -82 -30z" />
    <glyph glyph-name="six.numr" horiz-adv-x="350" 
d="M255 583q-20 28 -58 28q-30 0 -49.5 -24.5t-22.5 -67.5q11 21 33.5 33.5t49.5 12.5q44 0 75.5 -34.5t31.5 -83.5q0 -54 -39.5 -90t-99.5 -36q-70 0 -110 51q-38 49 -38 129q0 89 45.5 144t118.5 55q45 0 79.5 -20.5t50.5 -58.5zM138 448q0 -16 12 -27t29 -11t28.5 10
t11.5 25q0 16 -12 26t-30 10q-17 0 -28 -9.5t-11 -23.5z" />
    <glyph glyph-name="seven.numr" horiz-adv-x="325" 
d="M192 329l106 257v105h-270v-92h171l-118 -270h111z" />
    <glyph glyph-name="eight.numr" horiz-adv-x="345" 
d="M132 441q0 -13 11.5 -22t29.5 -9t29.5 9t11.5 22t-11.5 22t-29.5 9t-29.5 -9t-11.5 -22zM41 596q0 44 38.5 74t93.5 30t93.5 -30t38.5 -74q0 -27 -15 -48.5t-43 -33.5q34 -11 52.5 -33.5t18.5 -51.5q0 -46 -42 -77t-103 -31t-103 31t-42 77q0 29 18.5 51.5t52.5 33.5
q-28 12 -43 33.5t-15 48.5zM173 554q12 0 20.5 8.5t8.5 20.5t-8 19.5t-21 7.5t-21 -7.5t-8 -19.5t8.5 -20.5t20.5 -8.5z" />
    <glyph glyph-name="nine.numr" horiz-adv-x="350" 
d="M96 438q20 -28 58 -28q30 0 49.5 24.5t22.5 67.5q-12 -21 -34.5 -33.5t-48.5 -12.5q-45 0 -76.5 34.5t-31.5 83.5q0 54 40 90t100 36q70 0 109 -51q38 -49 38 -129q0 -89 -45.5 -144t-118.5 -55q-45 0 -79 20.5t-51 57.5zM213 573q0 16 -12 26.5t-30 10.5q-17 0 -28 -9.5
t-11 -24.5q0 -16 12 -26t30 -10q17 0 28 9t11 24z" />
    <glyph glyph-name="zero.tabl" horiz-adv-x="610" 
d="M163 303q0 -84 41 -137.5t100 -53.5t100 53.5t41 137.5v93q0 84 -41 137.5t-100 53.5t-100 -53.5t-41 -137.5v-93zM34 303v93q0 139 78.5 230t192 91t192 -91t78.5 -230v-93q0 -139 -78.5 -230t-192 -91t-192 91t-78.5 230z" />
    <glyph glyph-name="one.tabl" horiz-adv-x="610" 
d="M566 127v-127h-522v127h207v425l-147 -113l-73 104l213 157h137v-573h185z" />
    <glyph glyph-name="two.tabl" horiz-adv-x="610" 
d="M574 457q0 110 -77 182t-188 72q-106 0 -174.5 -60t-97.5 -154l127 -37q37 121 145 121q56 0 95.5 -35t39.5 -89q0 -20 -10.5 -39t-34 -38.5t-41 -31.5t-51.5 -33q-9 -5 -14 -8l-248 -159v-148h529v127h-352l180 111q30 18 57.5 39.5t54.5 49.5t43.5 62t16.5 68z" />
    <glyph glyph-name="three.tabl" horiz-adv-x="610" 
d="M381 423l193 129v148h-529v-127h377l-190 -139l25 -90q88 0 137.5 -33.5t49.5 -91.5q0 -44 -38.5 -72t-101.5 -28q-56 0 -95 26.5t-51 74.5l-121 -41q26 -87 98 -138.5t171 -51.5q119 0 193.5 63t74.5 164q0 83 -53 139.5t-140 67.5z" />
    <glyph glyph-name="four.tabl" horiz-adv-x="610" 
d="M168 310h178v222zM476 700v-390h91v-127h-91v-183h-130v183h-315v144l299 373h146z" />
    <glyph glyph-name="five.tabl" horiz-adv-x="610" 
d="M180 422v151h364v127h-494v-364l130 -33q59 59 133 59q52 0 86.5 -34.5t34.5 -87.5q0 -54 -36.5 -87.5t-95.5 -33.5q-52 0 -87.5 25t-46.5 70l-128 -42q26 -85 96.5 -134t166.5 -49q115 0 188 70t73 180q0 102 -62.5 173t-152.5 71q-43 0 -88.5 -16t-80.5 -45z" />
    <glyph glyph-name="six.tabl" horiz-adv-x="610" 
d="M491 519q-50 68 -151 68q-75 0 -122.5 -57.5t-54.5 -153.5q25 48 74 76t108 28q97 0 164.5 -71.5t67.5 -174.5q0 -109 -75 -180.5t-188 -71.5q-78 0 -141.5 35t-96.5 96q-43 78 -43 201q0 182 87 292.5t228 110.5q69 0 127.5 -28t91.5 -77zM173 237q0 -52 42.5 -88.5
t101.5 -36.5q56 0 93 34t37 86q0 51 -38.5 84.5t-97.5 33.5t-98.5 -32.5t-39.5 -80.5z" />
    <glyph glyph-name="seven.tabl" horiz-adv-x="610" 
d="M314 0l264 563v137h-548v-127h415l-274 -573h143z" />
    <glyph glyph-name="eight.tabl" horiz-adv-x="610" 
d="M169 203q0 -40 39 -65.5t97 -25.5t97 25.5t39 65.5q0 41 -39.5 68t-96.5 27t-96.5 -27t-39.5 -68zM59 522q0 84 71 140t175 56t175 -56t71 -140q0 -51 -29 -94t-79 -67q59 -25 93.5 -72t34.5 -105q0 -87 -76.5 -144.5t-189.5 -57.5t-189.5 57.5t-76.5 144.5
q0 58 34.5 105t93.5 72q-50 24 -79 67t-29 94zM305 422q49 0 82.5 23.5t33.5 58.5q0 37 -33.5 60.5t-82.5 23.5t-82.5 -23.5t-33.5 -60.5q0 -35 33.5 -58.5t82.5 -23.5z" />
    <glyph glyph-name="nine.tabl" horiz-adv-x="610" 
d="M119 180q50 -68 151 -68q75 0 122.5 57.5t54.5 153.5q-25 -48 -74 -76t-108 -28q-97 0 -164.5 71.5t-67.5 174.5q0 109 75 180.5t188 71.5q78 0 141.5 -35t96.5 -96q43 -78 43 -201q0 -182 -87 -292.5t-228 -110.5q-69 0 -127.5 28t-91.5 77zM437 462q0 52 -42.5 88.5
t-101.5 36.5q-56 0 -93 -34t-37 -86q0 -51 38.5 -84.5t97.5 -33.5t98.5 32.5t39.5 80.5z" />
    <glyph glyph-name="zero.slsh" horiz-adv-x="648" 
d="M70 172l444 444l68 -109l-436 -436zM163 323q0 -92 47 -151.5t114 -59.5t114 59.5t47 151.5v53q0 92 -47 151.5t-114 59.5t-114 -59.5t-47 -151.5v-53zM33 323v53q0 148 84.5 244.5t206.5 96.5t206.5 -96.5t84.5 -244.5v-53q0 -148 -84.5 -244.5t-206.5 -96.5
t-206.5 96.5t-84.5 244.5z" />
    <glyph glyph-name="a.ss01" horiz-adv-x="638" 
d="M585 0h-130v500h130v-500zM455 251q0 63 -42 104.5t-104 41.5t-104 -41.5t-42 -104.5t42 -104.5t104 -41.5t104 41.5t42 104.5zM501 251q0 -116 -66 -192.5t-164 -76.5q-100 0 -169 77t-69 192t69 192t169 77q98 0 164 -76.5t66 -192.5z" />
    <glyph glyph-name="agrave.ss01" horiz-adv-x="638" 
d="M144 723l87 78l163 -159l-84 -74zM585 0h-130v500h130v-500zM455 251q0 63 -42 104.5t-104 41.5t-104 -41.5t-42 -104.5t42 -104.5t104 -41.5t104 41.5t42 104.5zM501 251q0 -116 -66 -192.5t-164 -76.5q-100 0 -169 77t-69 192t69 192t169 77q98 0 164 -76.5t66 -192.5z
" />
    <glyph glyph-name="aacute.ss01" horiz-adv-x="638" 
d="M454 723l-87 85l-156 -166l70 -74zM585 0h-130v500h130v-500zM455 251q0 63 -42 104.5t-104 41.5t-104 -41.5t-42 -104.5t42 -104.5t104 -41.5t104 41.5t42 104.5zM501 251q0 -116 -66 -192.5t-164 -76.5q-100 0 -169 77t-69 192t69 192t169 77q98 0 164 -76.5t66 -192.5
z" />
    <glyph glyph-name="acircumflex.ss01" horiz-adv-x="638" 
d="M286 773l-174 -135l55 -77l136 109l136 -109l55 77l-174 135h-34zM585 0h-130v500h130v-500zM455 251q0 63 -42 104.5t-104 41.5t-104 -41.5t-42 -104.5t42 -104.5t104 -41.5t104 41.5t42 104.5zM501 251q0 -116 -66 -192.5t-164 -76.5q-100 0 -169 77t-69 192t69 192
t169 77q98 0 164 -76.5t66 -192.5z" />
    <glyph glyph-name="atilde.ss01" horiz-adv-x="638" 
d="M227 729q-52 0 -82.5 -36t-40.5 -101l84 -18q11 66 45 66q19 0 47 -26q55 -46 101 -46q50 0 81 36t40 101l-84 18q-12 -63 -49 -63q-23 0 -49 25q-28 24 -48.5 34t-44.5 10zM585 0h-130v500h130v-500zM455 251q0 63 -42 104.5t-104 41.5t-104 -41.5t-42 -104.5t42 -104.5
t104 -41.5t104 41.5t42 104.5zM501 251q0 -116 -66 -192.5t-164 -76.5q-100 0 -169 77t-69 192t69 192t169 77q98 0 164 -76.5t66 -192.5z" />
    <glyph glyph-name="adieresis.ss01" horiz-adv-x="638" 
d="M340 646.5q0 33.5 22.5 56.5t56 23t56 -23t22.5 -56.5t-22.5 -56t-56 -22.5t-56 22.5t-22.5 56zM106.5 646.5q0.5 33.5 23 56.5t56 23t56 -23t22.5 -56.5t-22.5 -56t-56 -22.5t-56.5 22.5t-22.5 56zM585 0h-130v500h130v-500zM455 251q0 63 -42 104.5t-104 41.5
t-104 -41.5t-42 -104.5t42 -104.5t104 -41.5t104 41.5t42 104.5zM501 251q0 -116 -66 -192.5t-164 -76.5q-100 0 -169 77t-69 192t69 192t169 77q98 0 164 -76.5t66 -192.5z" />
    <glyph glyph-name="aring.ss01" horiz-adv-x="638" 
d="M253 703q0 -22 14.5 -36t35.5 -14t35.5 14t14.5 36t-14.5 36t-35.5 14t-35.5 -14t-14.5 -36zM168 703.5q0 58.5 39 96.5t96 38t96 -38t39 -96.5t-39 -97t-96 -38.5t-96 38.5t-39 97zM585 0h-130v500h130v-500zM455 251q0 63 -42 104.5t-104 41.5t-104 -41.5t-42 -104.5
t42 -104.5t104 -41.5t104 41.5t42 104.5zM501 251q0 -116 -66 -192.5t-164 -76.5q-100 0 -169 77t-69 192t69 192t169 77q98 0 164 -76.5t66 -192.5z" />
    <glyph glyph-name="ae.ss01" horiz-adv-x="1046" 
d="M880 296q-8 43 -44 70.5t-86 27.5q-48 0 -82.5 -26.5t-44.5 -71.5h257zM623 193q10 -44 45.5 -71t83.5 -27q38 0 69.5 16.5t46.5 44.5l119 -46q-29 -62 -87 -98.5t-125 -36.5q-100 0 -166.5 77t-66.5 194q0 115 65 191t164 76q101 0 171.5 -78t70.5 -192q0 -17 -5 -50
h-385zM585 0h-130v500h130v-500zM455 251q0 62 -42 104t-104 42t-104 -42t-42 -104t42 -104t104 -42t104 42t42 104zM501 251q0 -115 -66 -192t-165 -77q-101 0 -169 77.5t-68 191.5t68 191.5t169 77.5q99 0 165 -77t66 -192z" />
    <glyph glyph-name="amacron.ss01" horiz-adv-x="638" 
d="M473 678v-100h-332v100h332zM585 0h-130v500h130v-500zM455 251q0 63 -42 104.5t-104 41.5t-104 -41.5t-42 -104.5t42 -104.5t104 -41.5t104 41.5t42 104.5zM501 251q0 -116 -66 -192.5t-164 -76.5q-100 0 -169 77t-69 192t69 192t169 77q98 0 164 -76.5t66 -192.5z" />
    <glyph glyph-name="abreve.ss01" horiz-adv-x="638" 
d="M302 572q-79 0 -134.5 51.5t-55.5 124.5h100q0 -37 26 -60.5t65 -23.5q40 0 68.5 24.5t28.5 59.5h100q0 -71 -59 -123.5t-139 -52.5zM585 0h-130v500h130v-500zM455 251q0 63 -42 104.5t-104 41.5t-104 -41.5t-42 -104.5t42 -104.5t104 -41.5t104 41.5t42 104.5zM501 251
q0 -116 -66 -192.5t-164 -76.5q-100 0 -169 77t-69 192t69 192t169 77q98 0 164 -76.5t66 -192.5z" />
    <glyph glyph-name="aogonek.ss01" horiz-adv-x="638" 
d="M458 -25v31h91v-55l-64 -43q-39 -26 -39 -60q0 -18 10.5 -29.5t27.5 -11.5q34 0 42 35l89 -18q-13 -50 -47.5 -79t-82.5 -29q-59 0 -96 33.5t-37 85.5q0 35 17.5 62t63.5 61zM585 0h-130v500h130v-500zM455 251q0 63 -42 104.5t-104 41.5t-104 -41.5t-42 -104.5
t42 -104.5t104 -41.5t104 41.5t42 104.5zM501 251q0 -116 -66 -192.5t-164 -76.5q-100 0 -169 77t-69 192t69 192t169 77q98 0 164 -76.5t66 -192.5z" />
    <glyph glyph-name="uni1EA1.ss01" horiz-adv-x="638" 
d="M235 -149.5q0 33.5 23 56t56 22.5t56 -22.5t23 -56t-23 -56.5t-56 -23t-56 23t-23 56.5zM585 0h-130v500h130v-500zM455 251q0 63 -42 104.5t-104 41.5t-104 -41.5t-42 -104.5t42 -104.5t104 -41.5t104 41.5t42 104.5zM501 251q0 -116 -66 -192.5t-164 -76.5
q-100 0 -169 77t-69 192t69 192t169 77q98 0 164 -76.5t66 -192.5z" />
    <glyph glyph-name="uni1EA3.ss01" horiz-adv-x="638" 
d="M310 551l-53 72l52 34q33 20 33 50q0 20 -13 32.5t-33 12.5q-37 0 -45 -36l-83 22q13 47 47.5 74t82.5 27q59 0 96 -37t37 -95q0 -40 -20 -68.5t-64 -61.5zM585 0h-130v500h130v-500zM455 251q0 63 -42 104.5t-104 41.5t-104 -41.5t-42 -104.5t42 -104.5t104 -41.5
t104 41.5t42 104.5zM501 251q0 -116 -66 -192.5t-164 -76.5q-100 0 -169 77t-69 192t69 192t169 77q98 0 164 -76.5t66 -192.5z" />
    <glyph glyph-name="uni1EA5.ss01" horiz-adv-x="638" 
d="M664 883l-87 85l-156 -166l70 -74zM286 773l-174 -135l55 -77l136 109l136 -109l55 77l-174 135h-34zM585 0h-130v500h130v-500zM455 251q0 63 -42 104.5t-104 41.5t-104 -41.5t-42 -104.5t42 -104.5t104 -41.5t104 41.5t42 104.5zM501 251q0 -116 -66 -192.5t-164 -76.5
q-100 0 -169 77t-69 192t69 192t169 77q98 0 164 -76.5t66 -192.5z" />
    <glyph glyph-name="uni1EA7.ss01" horiz-adv-x="638" 
d="M354 883l87 78l163 -159l-84 -74zM286 773l-174 -135l55 -77l136 109l136 -109l55 77l-174 135h-34zM585 0h-130v500h130v-500zM455 251q0 63 -42 104.5t-104 41.5t-104 -41.5t-42 -104.5t42 -104.5t104 -41.5t104 41.5t42 104.5zM501 251q0 -116 -66 -192.5t-164 -76.5
q-100 0 -169 77t-69 192t69 192t169 77q98 0 164 -76.5t66 -192.5z" />
    <glyph glyph-name="uni1EA9.ss01" horiz-adv-x="638" 
d="M520 711l-53 72l52 34q33 20 33 50q0 20 -13 32.5t-33 12.5q-37 0 -45 -36l-83 22q13 47 47.5 74t82.5 27q59 0 96 -37t37 -95q0 -40 -20 -68.5t-64 -61.5zM286 773l-174 -135l55 -77l136 109l136 -109l55 77l-174 135h-34zM585 0h-130v500h130v-500zM455 251
q0 63 -42 104.5t-104 41.5t-104 -41.5t-42 -104.5t42 -104.5t104 -41.5t104 41.5t42 104.5zM501 251q0 -116 -66 -192.5t-164 -76.5q-100 0 -169 77t-69 192t69 192t169 77q98 0 164 -76.5t66 -192.5z" />
    <glyph glyph-name="uni1EAB.ss01" horiz-adv-x="638" 
d="M227 1001q-52 0 -82.5 -36t-40.5 -101l84 -18q11 66 45 66q19 0 47 -26q55 -46 101 -46q50 0 81 36t40 101l-84 18q-12 -63 -49 -63q-23 0 -49 25q-28 24 -48.5 34t-44.5 10zM286 773l-174 -135l55 -77l136 109l136 -109l55 77l-174 135h-34zM585 0h-130v500h130v-500z
M455 251q0 63 -42 104.5t-104 41.5t-104 -41.5t-42 -104.5t42 -104.5t104 -41.5t104 41.5t42 104.5zM501 251q0 -116 -66 -192.5t-164 -76.5q-100 0 -169 77t-69 192t69 192t169 77q98 0 164 -76.5t66 -192.5z" />
    <glyph glyph-name="uni1EAD.ss01" horiz-adv-x="638" 
d="M286 773l-174 -135l55 -77l136 109l136 -109l55 77l-174 135h-34zM235 -149.5q0 33.5 23 56t56 22.5t56 -22.5t23 -56t-23 -56.5t-56 -23t-56 23t-23 56.5zM585 0h-130v500h130v-500zM455 251q0 63 -42 104.5t-104 41.5t-104 -41.5t-42 -104.5t42 -104.5t104 -41.5
t104 41.5t42 104.5zM501 251q0 -116 -66 -192.5t-164 -76.5q-100 0 -169 77t-69 192t69 192t169 77q98 0 164 -76.5t66 -192.5z" />
    <glyph glyph-name="uni1EAF.ss01" horiz-adv-x="638" 
d="M468 934l-87 85l-156 -166l70 -74zM302 572q-79 0 -134.5 51.5t-55.5 124.5h100q0 -37 26 -60.5t65 -23.5q40 0 68.5 24.5t28.5 59.5h100q0 -71 -59 -123.5t-139 -52.5zM585 0h-130v500h130v-500zM455 251q0 63 -42 104.5t-104 41.5t-104 -41.5t-42 -104.5t42 -104.5
t104 -41.5t104 41.5t42 104.5zM501 251q0 -116 -66 -192.5t-164 -76.5q-100 0 -169 77t-69 192t69 192t169 77q98 0 164 -76.5t66 -192.5z" />
    <glyph glyph-name="uni1EB1.ss01" horiz-adv-x="638" 
d="M132 934l87 78l163 -159l-84 -74zM302 572q-79 0 -134.5 51.5t-55.5 124.5h100q0 -37 26 -60.5t65 -23.5q40 0 68.5 24.5t28.5 59.5h100q0 -71 -59 -123.5t-139 -52.5zM585 0h-130v500h130v-500zM455 251q0 63 -42 104.5t-104 41.5t-104 -41.5t-42 -104.5t42 -104.5
t104 -41.5t104 41.5t42 104.5zM501 251q0 -116 -66 -192.5t-164 -76.5q-100 0 -169 77t-69 192t69 192t169 77q98 0 164 -76.5t66 -192.5z" />
    <glyph glyph-name="uni1EB3.ss01" horiz-adv-x="638" 
d="M311 765l-53 72l52 34q33 20 33 50q0 20 -13 32.5t-33 12.5q-37 0 -45 -36l-83 22q13 47 47.5 74t82.5 27q59 0 96 -37t37 -95q0 -40 -20 -68.5t-64 -61.5zM302 572q-79 0 -134.5 51.5t-55.5 124.5h100q0 -37 26 -60.5t65 -23.5q40 0 68.5 24.5t28.5 59.5h100
q0 -71 -59 -123.5t-139 -52.5zM585 0h-130v500h130v-500zM455 251q0 63 -42 104.5t-104 41.5t-104 -41.5t-42 -104.5t42 -104.5t104 -41.5t104 41.5t42 104.5zM501 251q0 -116 -66 -192.5t-164 -76.5q-100 0 -169 77t-69 192t69 192t169 77q98 0 164 -76.5t66 -192.5z" />
    <glyph glyph-name="uni1EB5.ss01" horiz-adv-x="638" 
d="M228 940q-52 0 -82.5 -36t-40.5 -101l84 -18q11 66 45 66q19 0 47 -26q55 -46 101 -46q50 0 81 36t40 101l-84 18q-12 -63 -49 -63q-23 0 -49 25q-28 24 -48.5 34t-44.5 10zM302 572q-79 0 -134.5 51.5t-55.5 124.5h100q0 -37 26 -60.5t65 -23.5q40 0 68.5 24.5
t28.5 59.5h100q0 -71 -59 -123.5t-139 -52.5zM585 0h-130v500h130v-500zM455 251q0 63 -42 104.5t-104 41.5t-104 -41.5t-42 -104.5t42 -104.5t104 -41.5t104 41.5t42 104.5zM501 251q0 -116 -66 -192.5t-164 -76.5q-100 0 -169 77t-69 192t69 192t169 77q98 0 164 -76.5
t66 -192.5z" />
    <glyph glyph-name="uni1EB7.ss01" horiz-adv-x="638" 
d="M302 572q-79 0 -134.5 51.5t-55.5 124.5h100q0 -37 26 -60.5t65 -23.5q40 0 68.5 24.5t28.5 59.5h100q0 -71 -59 -123.5t-139 -52.5zM235 -149.5q0 33.5 23 56t56 22.5t56 -22.5t23 -56t-23 -56.5t-56 -23t-56 23t-23 56.5zM585 0h-130v500h130v-500zM455 251
q0 63 -42 104.5t-104 41.5t-104 -41.5t-42 -104.5t42 -104.5t104 -41.5t104 41.5t42 104.5zM501 251q0 -116 -66 -192.5t-164 -76.5q-100 0 -169 77t-69 192t69 192t169 77q98 0 164 -76.5t66 -192.5z" />
    <glyph glyph-name="G.ss02" horiz-adv-x="797" 
d="M163 351q0 -103 66.5 -171t164.5 -68q82 0 143.5 47t75.5 124h-257v117h398v-400h-129v105q-44 -58 -109.5 -90.5t-141.5 -32.5q-144 0 -242.5 105.5t-98.5 263.5q0 104 48 189t130.5 132.5t182.5 47.5q105 0 191.5 -53.5t130.5 -146.5l-116 -60q-29 61 -84 95.5
t-122 34.5q-98 0 -164.5 -68t-66.5 -171z" />
    <glyph glyph-name="Gcircumflex.ss02" horiz-adv-x="797" 
d="M377 982l-174 -135l55 -77l136 109l136 -109l55 77l-174 135h-34zM163 351q0 -103 66.5 -171t164.5 -68q82 0 143.5 47t75.5 124h-257v117h398v-400h-129v105q-44 -58 -109.5 -90.5t-141.5 -32.5q-144 0 -242.5 105.5t-98.5 263.5q0 104 48 189t130.5 132.5t182.5 47.5
q105 0 191.5 -53.5t130.5 -146.5l-116 -60q-29 61 -84 95.5t-122 34.5q-98 0 -164.5 -68t-66.5 -171z" />
    <glyph glyph-name="Gbreve.ss02" horiz-adv-x="797" 
d="M393 781q-79 0 -134.5 51.5t-55.5 124.5h100q0 -37 26 -60.5t65 -23.5q40 0 68.5 24.5t28.5 59.5h100q0 -71 -59 -123.5t-139 -52.5zM163 351q0 -103 66.5 -171t164.5 -68q82 0 143.5 47t75.5 124h-257v117h398v-400h-129v105q-44 -58 -109.5 -90.5t-141.5 -32.5
q-144 0 -242.5 105.5t-98.5 263.5q0 104 48 189t130.5 132.5t182.5 47.5q105 0 191.5 -53.5t130.5 -146.5l-116 -60q-29 61 -84 95.5t-122 34.5q-98 0 -164.5 -68t-66.5 -171z" />
    <glyph glyph-name="Gdotaccent.ss02" horiz-adv-x="797" 
d="M315 855.5q0 33.5 23 56.5t56 23t56 -23t23 -56.5t-23 -56t-56 -22.5t-56 22.5t-23 56zM163 351q0 -103 66.5 -171t164.5 -68q82 0 143.5 47t75.5 124h-257v117h398v-400h-129v105q-44 -58 -109.5 -90.5t-141.5 -32.5q-144 0 -242.5 105.5t-98.5 263.5q0 104 48 189
t130.5 132.5t182.5 47.5q105 0 191.5 -53.5t130.5 -146.5l-116 -60q-29 61 -84 95.5t-122 34.5q-98 0 -164.5 -68t-66.5 -171z" />
    <glyph glyph-name="uni0122.ss02" horiz-adv-x="797" 
d="M435 -259q0 -30 -21 -52.5t-53 -22.5t-54 21.5t-22 52.5q0 27 15 49l115 164l47 -36l-75 -105q22 -9 35 -28.5t13 -42.5zM163 351q0 -103 66.5 -171t164.5 -68q82 0 143.5 47t75.5 124h-257v117h398v-400h-129v105q-44 -58 -109.5 -90.5t-141.5 -32.5
q-144 0 -242.5 105.5t-98.5 263.5q0 104 48 189t130.5 132.5t182.5 47.5q105 0 191.5 -53.5t130.5 -146.5l-116 -60q-29 61 -84 95.5t-122 34.5q-98 0 -164.5 -68t-66.5 -171z" />
    </font>
</defs>
</svg>
