<?xml version="1.0" standalone="no"?>
<!DOCTYPE svg PUBLIC "-//W3C//DTD SVG 1.1//EN" "http://www.w3.org/Graphics/SVG/1.1/DTD/svg11.dtd" >
<svg xmlns="http://www.w3.org/2000/svg" xmlns:xlink="http://www.w3.org/1999/xlink" version="1.1">
<metadata>
Created by FontForge 20201107 at Sat Feb 25 09:16:43 2023
 By 
Copyright (c) 2022, RandomMaerks (Bao Nguyen) || For more information, send an email to rmforbusuness@gmail.com
</metadata>
<defs>
<font id="Cygre-Regular" horiz-adv-x="638" >
  <font-face 
    font-family="Cygre"
    font-weight="400"
    font-stretch="normal"
    units-per-em="1000"
    panose-1="2 0 5 3 0 0 0 0 0 0"
    ascent="800"
    descent="-200"
    x-height="500"
    cap-height="700"
    bbox="-149 -272 1256 1219"
    underline-thickness="50"
    underline-position="-100"
    unicode-range="U+0020-25CF"
  />
<missing-glyph horiz-adv-x="364" 
d="M33 0v666h265v-666h-265zM66 33h199v600h-199v-600z" />
    <glyph glyph-name="f_i" unicode="fi" horiz-adv-x="570" 
d="M314 674q-41 0 -65.5 -26t-24.5 -70v-78h290l-50 -74h-240v-426h-80v426h-115v74h115v95q0 63 47 109t112 46h63v-76h-52zM420 636q0 23 15.5 38.5t38 15.5t38.5 -15.5t16 -38.5t-16 -38.5t-38.5 -15.5t-38 15.5t-15.5 38.5zM434 0v492l80 8v-500h-80z" />
    <glyph glyph-name="f_l" unicode="fl" horiz-adv-x="602" 
d="M314 674q-41 0 -65.5 -26t-24.5 -70v-78h162v-74h-162v-426h-80v426h-115v74h115v95q0 63 47 109t112 46h241l-50 -76h-180zM464 0v742l80 8v-750h-80z" />
    <glyph glyph-name="f_f_i" unicode="ffi" horiz-adv-x="932" 
d="M314 674q-41 0 -65.5 -26t-24.5 -70v-78h167v-74h-167v-426h-80v426h-115v74h115v95q0 63 47 109t112 46h63v-76h-52zM671 674q-41 0 -65.5 -26t-24.5 -70v-78h295l-44 -74h-251v-426h-80v426h-110v74h110v95q0 63 47 109t112 46h63v-76h-52zM782 636q0 23 15.5 38.5
t38 15.5t38.5 -15.5t16 -38.5t-16 -38.5t-38.5 -15.5t-38 15.5t-15.5 38.5zM796 0v489l80 11v-500h-80z" />
    <glyph glyph-name="f_f_l" unicode="ffl" horiz-adv-x="964" 
d="M314 674q-41 0 -65.5 -26t-24.5 -70v-78h167v-74h-167v-426h-80v426h-115v74h115v95q0 63 47 109t112 46h63v-76h-52zM676 674q-41 0 -65.5 -26t-24.5 -70v-78h162v-74h-162v-426h-80v426h-115v74h115v95q0 63 47 109t112 46h241l-43 -75zM826 0v749l80 1v-750h-80z" />
    <glyph glyph-name="f_f" unicode="ff" horiz-adv-x="774" 
d="M314 674q-41 0 -65.5 -26t-24.5 -70v-78h162v-74h-162v-426h-80v426h-115v74h115v95q0 63 47 109t112 46h63v-76h-52zM671 674q-41 0 -65.5 -26t-24.5 -70v-78h162v-74h-162v-426h-80v426h-115v74h115v95q0 63 47 109t112 46h63v-76h-52z" />
    <glyph glyph-name=".notdef" horiz-adv-x="364" 
d="M33 0v666h265v-666h-265zM66 33h199v600h-199v-600z" />
    <glyph glyph-name=".null" horiz-adv-x="0" 
 />
    <glyph glyph-name="nonmarkingreturn" horiz-adv-x="333" 
 />
    <glyph glyph-name="space" unicode=" " horiz-adv-x="270" 
 />
    <glyph glyph-name="exclam" unicode="!" horiz-adv-x="194" 
d="M134 198h-75l-5 502h85zM33 52q0 27 18 45.5t45 18.5q28 0 46.5 -18.5t18.5 -45.5q0 -28 -18 -46t-45.5 -18t-46 18t-18.5 46z" />
    <glyph glyph-name="quotedbl" unicode="&#x22;" horiz-adv-x="329" 
d="M223 758l75 -21l-59 -229l-70 19zM85 758l75 -21l-59 -229l-70 19z" />
    <glyph glyph-name="numbersign" unicode="#" horiz-adv-x="686" 
d="M658 510v-77h-629v77h629zM658 290v-77h-629v77h629zM378 0h-89l279 700h90zM118 0h-89l279 700h90z" />
    <glyph glyph-name="dollar" unicode="$" horiz-adv-x="449" 
d="M212 322q-174 31 -174 148q0 63 49 105.5t124 42.5q66 0 121 -36t80 -97l-76 -26q-17 40 -50 62.5t-74 22.5t-67.5 -20.5t-26.5 -51.5q0 -29 26.5 -47t85.5 -30q182 -33 182 -153q0 -64 -49 -106t-124 -42q-67 0 -122 36t-79 97l76 26q16 -41 49 -64.5t74 -23.5t68 21.5
t27 53.5q0 31 -29 50.5t-91 31.5zM187 596v104h75v-104h-75zM187 118h75v-118h-75v118z" />
    <glyph glyph-name="percent" unicode="%" horiz-adv-x="877" 
d="M560 171.5q0 -46.5 31 -76.5t75.5 -30t75.5 30t31 76.5t-31 76.5t-75.5 30t-75.5 -30t-31 -76.5zM485 171.5q0 78.5 53 130t129 51.5t128.5 -51.5t52.5 -130t-52.5 -130t-128.5 -51.5t-129 51.5t-53 130zM104 528.5q0 -46.5 31 -76.5t75.5 -30t75.5 30t31 76.5t-31 76.5
t-75.5 30t-75.5 -30t-31 -76.5zM29 528.5q0 78.5 52.5 130t128.5 51.5t129 -51.5t53 -130t-53 -130t-129 -51.5t-128.5 51.5t-52.5 130zM340 0h-90l287 700h90z" />
    <glyph glyph-name="ampersand" unicode="&#x26;" horiz-adv-x="655" 
d="M240 647q36 0 58.5 -21.5t22.5 -54.5q0 -52 -56 -103l-53 -47l-26 32q-27 33 -36.5 53t-9.5 44q0 40 29.5 68.5t70.5 28.5zM241 720q-74 0 -126 -49t-52 -120q1 -75 69 -148l29 -31l-66 -64q-64 -54 -64 -135q1 -81 60.5 -136t148 -55t144.5 59l54 57l112 -118l54 50
l-111 118l101 100l-56 56l-99 -99l-173 167l55 49q36 30 56.5 71t20.5 82q0 63 -44.5 104.5t-112.5 41.5zM213 320l170 -166l-49 -51q-41 -41 -97 -41q-52 0 -87.5 33.5t-35.5 81.5q0 49 43 87z" />
    <glyph glyph-name="quotesingle" unicode="'" horiz-adv-x="191" 
d="M85 758l75 -21l-59 -229l-70 19z" />
    <glyph glyph-name="parenleft" unicode="(" horiz-adv-x="282" 
d="M38 253v213q0 108 48 187t126 107l32 -76q-56 -19 -91 -79t-35 -144v-203q0 -88 38 -149.5t98 -76.5l-31 -76q-81 24 -133 104.5t-52 192.5z" />
    <glyph glyph-name="parenright" unicode=")" horiz-adv-x="282" 
d="M245 463v-213q0 -108 -48.5 -187t-126.5 -107l-31 76q55 19 90.5 79t35.5 144v203q0 88 -38.5 149.5t-97.5 76.5l30 76q82 -24 134 -104.5t52 -192.5z" />
    <glyph glyph-name="asterisk" unicode="*" horiz-adv-x="487" 
d="M206 800h76l-4 -165l157 54l23 -73l-158 -48l100 -132l-62 -45l-94 135l-95 -135l-62 45l100 132l-158 48l23 73l156 -55z" />
    <glyph glyph-name="plus" unicode="+" horiz-adv-x="377" 
d="M152 426h74v-124h122v-72h-122v-124h-74v124h-123v72h123v124z" />
    <glyph glyph-name="comma" unicode="," horiz-adv-x="197" 
d="M83 106l81 -17l-60 -244l-68 14z" />
    <glyph glyph-name="hyphen" unicode="-" horiz-adv-x="377" 
d="M348 302v-72h-319v72h319z" />
    <glyph glyph-name="period" unicode="." horiz-adv-x="197" 
d="M34 52q0 27 18 45.5t46 18.5q27 0 45.5 -18.5t18.5 -45.5q0 -28 -18 -46t-45.5 -18t-46 18t-18.5 46z" />
    <glyph glyph-name="slash" unicode="/" horiz-adv-x="427" 
d="M118 0h-89l279 700h90z" />
    <glyph glyph-name="zero" unicode="0" horiz-adv-x="648" 
d="M118 323q0 -114 60 -187.5t146 -73.5t146 73.5t60 187.5v53q0 114 -60 187.5t-146 73.5t-146 -73.5t-60 -187.5v-53zM38 323v53q0 148 83 244.5t203 96.5t203 -96.5t83 -244.5v-53q0 -148 -83 -244.5t-203 -96.5t-203.5 96.5t-82.5 244.5z" />
    <glyph glyph-name="one" unicode="1" horiz-adv-x="371" 
d="M314 700v-700h-80v606l-157 -122l-48 64l201 152h84z" />
    <glyph glyph-name="two" unicode="2" horiz-adv-x="571" 
d="M534 474q0 103 -71.5 170t-173.5 67q-98 0 -161 -56t-90 -145l78 -24q43 145 173 145q69 0 117 -44t48 -113q0 -22 -10.5 -45t-22.5 -39t-37.5 -39t-38 -33t-42.5 -33l-257 -191v-94h488v77h-382l211 158q32 25 56 46t53.5 53t45.5 68t16 72z" />
    <glyph glyph-name="three" unicode="3" horiz-adv-x="571" 
d="M336 428l198 178v94h-488v-77h398l-215 -197l25 -57q95 0 147.5 -43.5t52.5 -119.5q0 -60 -47.5 -98.5t-121.5 -38.5q-67 0 -112.5 34.5t-59.5 96.5l-75 -26q23 -83 89 -134t157 -51q110 0 180 61.5t70 157.5q0 90 -54 148.5t-144 71.5z" />
    <glyph glyph-name="four" unicode="4" horiz-adv-x="594" 
d="M111 285h263v312zM454 700v-415h112v-77h-112v-208h-80v208h-345v90l332 402h93z" />
    <glyph glyph-name="five" unicode="5" horiz-adv-x="571" 
d="M128 410v213h386v77h-466v-347l80 -25q35 40 79.5 62t89.5 22q68 0 112.5 -48.5t44.5 -123.5q0 -76 -48 -123.5t-124 -47.5q-64 0 -108 34t-58 94l-78 -25q24 -85 90 -134t156 -49q109 0 179.5 69.5t70.5 177.5q0 105 -65 178.5t-158 73.5q-48 0 -96.5 -21t-86.5 -57z
" />
    <glyph glyph-name="six" unicode="6" horiz-adv-x="610" 
d="M510 557q-28 39 -71.5 59.5t-97.5 20.5q-95 0 -155 -76t-68 -202q29 56 86.5 88.5t125.5 32.5q103 0 172.5 -71.5t69.5 -176.5q0 -107 -73.5 -178.5t-184.5 -71.5q-76 0 -138.5 34.5t-95.5 95.5q-42 79 -43 202q1 182 86.5 292.5t223.5 110.5q69 0 126 -28t89 -77z
M128 237q0 -72 55.5 -123.5t133.5 -51.5q76 0 125.5 48.5t49.5 121.5t-50.5 120.5t-129.5 47.5t-132 -46.5t-52 -116.5z" />
    <glyph glyph-name="seven" unicode="7" horiz-adv-x="520" 
d="M244 0l248 613v87h-463v-77h383l-257 -623h89z" />
    <glyph glyph-name="eight" unicode="8" horiz-adv-x="598" 
d="M118 189q0 -55 52 -91t129 -36t129 36t52 91q0 58 -52.5 96t-128.5 38t-128.5 -38t-52.5 -96zM58 523q0 85 69.5 140t171.5 55t171.5 -55t69.5 -140q0 -52 -31 -95t-85 -67q63 -25 99.5 -72t36.5 -107q0 -86 -75.5 -143t-185.5 -57t-185.5 57t-75.5 143q0 60 36.5 107
t99.5 72q-54 24 -85 67t-31 95zM299 397q68 0 114.5 33.5t46.5 86.5q0 52 -46.5 86.5t-114.5 34.5t-114.5 -34.5t-46.5 -86.5q0 -53 46.5 -86.5t114.5 -33.5z" />
    <glyph glyph-name="nine" unicode="9" horiz-adv-x="610" 
d="M100 142q28 -39 71.5 -59.5t97.5 -20.5q95 0 155 76t68 202q-29 -56 -86.5 -88.5t-125.5 -32.5q-103 0 -173 71.5t-70 176.5q1 107 74.5 178.5t184.5 71.5q76 0 138.5 -34.5t95.5 -95.5q42 -79 42 -202q0 -182 -85.5 -292.5t-223.5 -110.5q-69 0 -126 28t-89 77zM482 462
q0 72 -55.5 123.5t-133.5 51.5q-76 0 -126 -48.5t-50 -121.5q1 -73 51.5 -120.5t129.5 -47.5t131.5 46.5t52.5 116.5z" />
    <glyph glyph-name="colon" unicode=":" horiz-adv-x="197" 
d="M34 396q0 28 18 46.5t46 18.5q27 0 45.5 -18.5t18.5 -46.5q0 -27 -18 -45.5t-45.5 -18.5t-46 18.5t-18.5 45.5zM34 52q0 27 18 45.5t46 18.5q27 0 45.5 -18.5t18.5 -45.5q0 -28 -18 -46t-45.5 -18t-46 18t-18.5 46z" />
    <glyph glyph-name="semicolon" unicode=";" horiz-adv-x="197" 
d="M34 396q0 28 18 46.5t46 18.5q27 0 45.5 -18.5t18.5 -46.5q0 -27 -18 -45.5t-45.5 -18.5t-46 18.5t-18.5 45.5zM75 106l89 -17l-68 -244l-60 14z" />
    <glyph glyph-name="less" unicode="&#x3c;" horiz-adv-x="502" 
d="M465 138v-86l-427 165v104l427 165v-86l-353 -130z" />
    <glyph glyph-name="equal" unicode="=" horiz-adv-x="377" 
d="M348 216v-72h-319v72h319zM348 398v-72h-319v72h319z" />
    <glyph glyph-name="greater" unicode="&#x3e;" horiz-adv-x="502" 
d="M38 400v86l427 -165v-104l-427 -165v86l352 130z" />
    <glyph glyph-name="question" unicode="?" horiz-adv-x="551" 
d="M216 51.5q0 27.5 18.5 46t45.5 18.5q28 0 46 -18.5t18 -46t-18 -45.5t-45.5 -18t-46 18t-18.5 45.5zM511 485q0 99 -67 162.5t-166 63.5q-90 0 -150.5 -52.5t-87.5 -138.5l76 -27q41 138 163 138q64 0 108 -41t44 -105q0 -42 -26.5 -78t-70.5 -74l-98 -71l37 -65l100 73
q58 41 98 95.5t40 119.5z" />
    <glyph glyph-name="at" unicode="@" horiz-adv-x="793" 
d="M490 351q0 43 -29 72t-72 29t-72 -29t-29 -72t29 -72t72 -29t72 29t29 72zM518 351q0 -73 -42 -121t-105 -48q-65 0 -109 49t-44 120t44 120t109 49q63 0 105 -48t42 -121zM760 372q0 -88 -40 -140t-107 -52q-50 0 -86.5 26.5t-36.5 63.5v230h70v-200q0 -28 14 -42.5
t39 -14.5q37 0 57 31t20 88q0 123 -84 206.5t-208 83.5q-126 0 -211 -86t-85 -216q0 -129 85.5 -216t214.5 -87q103 0 187 60l35 -57q-99 -71 -225 -71q-103 1 -187 49t-132 133.5t-48 189.5t48 189.5t132 133.5t186 48q100 0 183.5 -46t131 -126.5t47.5 -177.5z" />
    <glyph glyph-name="A" unicode="A" horiz-adv-x="763" 
d="M174 265h413v-76h-413v76zM122 0h-91l299 700h104l299 -700h-91l-260 616z" />
    <glyph glyph-name="B" unicode="B" horiz-adv-x="650" 
d="M391 622h-253v-233h260q50 0 84 37t34 91q0 46 -35.5 75.5t-89.5 29.5zM398 313h-260v-235h263q53 0 89 31t36 77q0 55 -36.5 91t-91.5 36zM412 0h-354v700h344q83 0 138.5 -50t55.5 -126q0 -55 -26.5 -100t-71.5 -70q50 -25 79 -71t29 -103q0 -77 -56 -128.5t-138 -51.5
z" />
    <glyph glyph-name="C" unicode="C" horiz-adv-x="778" 
d="M37.5 351q0.5 105 48.5 190t130.5 132t181.5 47q111 0 201 -58.5t137 -159.5l-77 -30q-36 78 -106 123t-155 45q-118 0 -199 -81.5t-81 -207t81 -207.5t199 -82q87 0 158.5 47.5t106.5 129.5l77 -29q-44 -105 -136.5 -166.5t-205.5 -61.5q-99 0 -181.5 47t-131 132
t-48 190z" />
    <glyph glyph-name="D" unicode="D" horiz-adv-x="700" 
d="M316 0h-258v700h258q146 0 246.5 -98.5t100.5 -250.5t-100.5 -251.5t-246.5 -99.5zM306 623h-168v-546h168q116 0 196.5 77t80.5 197q0 119 -80.5 195.5t-196.5 76.5z" />
    <glyph glyph-name="E" unicode="E" horiz-adv-x="561" 
d="M138 390h360v-78h-360v-234h384v-78h-464v700h464v-78h-384v-232z" />
    <glyph glyph-name="F" unicode="F" horiz-adv-x="560" 
d="M138 390h360v-78h-360v-312h-80v700h464v-78h-384v-232z" />
    <glyph glyph-name="G" unicode="G" horiz-adv-x="788" 
d="M118 351q0 -126 80 -207.5t196 -81.5q108 0 186 67.5t86 175.5h-298v75h381q1 -15 1 -43q0 -101 -48 -182.5t-129 -127t-179 -45.5q-73 0 -138.5 27.5t-113.5 75.5t-76 117.5t-28 148.5t28 148.5t76 117.5t113.5 75.5t138.5 27.5q104 0 189.5 -56t129.5 -152l-72 -35
q-34 76 -100.5 119.5t-146.5 43.5q-116 0 -196 -81.5t-80 -207.5z" />
    <glyph glyph-name="H" unicode="H" horiz-adv-x="685" 
d="M58 0v700h80v-310h410v310h80v-700h-80v312h-410v-312h-80z" />
    <glyph glyph-name="I" unicode="I" horiz-adv-x="195" 
d="M138 0h-80v700h80v-700z" />
    <glyph glyph-name="J" unicode="J" horiz-adv-x="598" 
d="M38 165l73 29q20 -61 64 -93t109 -32q78 0 127.5 48.5t49.5 134.5v448h80v-458q0 -110 -74 -181.5t-183 -71.5q-91 0 -155.5 46.5t-90.5 129.5z" />
    <glyph glyph-name="K" unicode="K" horiz-adv-x="613" 
d="M58 0v700h80v-312h34l304 312h107l-340 -352l340 -348h-107l-304 306h-34v-306h-80z" />
    <glyph glyph-name="L" unicode="L" horiz-adv-x="551" 
d="M138 78h384v-78h-464v700h80v-622z" />
    <glyph glyph-name="M" unicode="M" horiz-adv-x="836" 
d="M55 0v700h97l266 -485l266 485h97v-700h-80v572l-253 -460h-60l-253 460v-572h-80z" />
    <glyph glyph-name="N" unicode="N" horiz-adv-x="685" 
d="M58 0v700h95l395 -577v577h80v-700h-96l-394 584v-584h-80z" />
    <glyph glyph-name="O" unicode="O" horiz-adv-x="788" 
d="M118 353q0 -128 80 -209.5t196 -81.5t196 81.5t80 209.5q0 125 -80 206t-196 81t-196 -81t-80 -206zM38 353q0 79 28 148t76 116.5t113.5 75t138.5 27.5t138.5 -27.5t113.5 -75t76 -116.5t28 -148q0 -80 -28 -149.5t-76 -118t-113.5 -76t-138.5 -27.5t-138.5 27.5
t-113.5 76t-76 118t-28 149.5z" />
    <glyph glyph-name="P" unicode="P" horiz-adv-x="625" 
d="M342 622h-204v-307h204q74 0 124 44.5t50 110.5t-50 109t-124 43zM342 237h-204v-237h-80v700h294q104 0 174 -65.5t70 -164.5q0 -97 -74 -165t-180 -68z" />
    <glyph glyph-name="Q" unicode="Q" horiz-adv-x="788" 
d="M118 353q0 -128 80 -209.5t196 -81.5t196 81.5t80 209.5q0 125 -80 206t-196 81t-196 -81t-80 -206zM38 353q0 79 28 148t76 116.5t113.5 75t138.5 27.5t138.5 -27.5t113.5 -75t76 -116.5t28 -148q0 -80 -28 -149.5t-76 -118t-113.5 -76t-138.5 -27.5t-138.5 27.5
t-113.5 76t-76 118t-28 149.5zM698 -18l-330 331l54 57l331 -330z" />
    <glyph glyph-name="R" unicode="R" horiz-adv-x="633" 
d="M356 622h-218v-282h218q67 0 112 41t45 102q0 60 -44.5 99.5t-112.5 39.5zM384 268l212 -268h-97l-208 262h-153v-262h-80v700h308q99 0 164.5 -61.5t65.5 -156.5q0 -88 -61 -149t-151 -65z" />
    <glyph glyph-name="S" unicode="S" horiz-adv-x="579" 
d="M288 311q-241 49 -241 206q-1 85 63.5 140.5t164.5 55.5q86 0 156.5 -47t100.5 -126l-73 -30q-24 58 -73 91.5t-109 33.5q-65 0 -107 -32.5t-42 -83.5q0 -47 41 -77t132 -49q118 -24 179.5 -77.5t61.5 -130.5q0 -84 -67.5 -140t-170.5 -56q-89 0 -162 48t-104 129l75 36
q25 -63 75 -99t114 -36q67 0 112 34t45 86q0 46 -41.5 76t-129.5 48z" />
    <glyph glyph-name="T" unicode="T" horiz-adv-x="596" 
d="M568 700v-78h-230v-622h-80v622h-230v78h540z" />
    <glyph glyph-name="U" unicode="U" horiz-adv-x="690" 
d="M345 -11q-122 0 -204.5 80t-82.5 203v428h80v-418q0 -100 57.5 -156.5t149.5 -56.5t149.5 56.5t57.5 156.5v418h80v-428q0 -123 -82.5 -203t-204.5 -80z" />
    <glyph glyph-name="V" unicode="V" horiz-adv-x="763" 
d="M642 700h91l-298 -700h-106l-298 700h91l259 -610z" />
    <glyph glyph-name="W" unicode="W" horiz-adv-x="1029" 
d="M910 700h88l-204 -700h-106l-174 578l-168 -578h-106l-209 700h88l176 -602l178 602h83l182 -602z" />
    <glyph glyph-name="X" unicode="X" horiz-adv-x="703" 
d="M673 0h-99l-222 294l-222 -294h-100l259 346l-259 354h100l222 -303l222 303h99l-259 -354z" />
    <glyph glyph-name="Y" unicode="Y" horiz-adv-x="666" 
d="M303 0h80v235l254 465h-94l-200 -370l-218 370h-95l273 -465v-235z" />
    <glyph glyph-name="Z" unicode="Z" horiz-adv-x="628" 
d="M588 0v77h-458l458 531v92h-548v-77h458l-458 -525v-98h548z" />
    <glyph glyph-name="bracketleft" unicode="[" horiz-adv-x="305" 
d="M138 33h130v-75h-210v794h210v-78h-130v-641z" />
    <glyph glyph-name="backslash" unicode="\" horiz-adv-x="427" 
d="M308 0l-279 700h89l280 -700h-90z" />
    <glyph glyph-name="bracketright" unicode="]" horiz-adv-x="305" 
d="M168 677h-130v75h210v-794h-210v78h130v641z" />
    <glyph glyph-name="asciicircum" unicode="^" horiz-adv-x="418" 
d="M196 750l-166 -152l46 -48l133 124l133 -124l46 48l-166 152h-26z" />
    <glyph glyph-name="underscore" unicode="_" horiz-adv-x="427" 
d="M398 50v-67h-369v67h369z" />
    <glyph glyph-name="grave" unicode="`" horiz-adv-x="277" 
d="M32 679l46 52l167 -156l-41 -48z" />
    <glyph glyph-name="a" unicode="a" horiz-adv-x="499" 
d="M362 231l-143 -17q-101 -12 -101 -77q0 -34 28 -54.5t75 -20.5q64 0 102.5 38t38.5 100h35q0 -91 -56 -151t-140 -60q-71 0 -117.5 40.5t-46.5 104.5q1 62 44.5 101.5t120.5 48.5l160 18v20q0 46 -36 80t-88 34q-47 0 -83 -25t-47 -65l-74 24q19 63 74 102t125 39
q85 0 147 -53.5t62 -127.5v-330h-80v231z" />
    <glyph glyph-name="b" unicode="b" 
d="M58 0v750h80v-750h-80zM138 251q0 -83 55.5 -137t135.5 -54t135.5 54t55.5 137t-55.5 137t-135.5 54t-135.5 -54t-55.5 -137zM100 251q0 116 71 192.5t175 76.5q107 0 180.5 -76.5t73.5 -192.5t-73.5 -192.5t-180.5 -76.5q-104 0 -175 76.5t-71 192.5z" />
    <glyph glyph-name="c" unicode="c" horiz-adv-x="586" 
d="M118 251q0 -84 54 -137.5t132 -53.5q56 0 101 27t69 76l73 -33q-33 -68 -98 -108t-145 -40q-112 0 -189 76t-77 193t77 193t189 76q81 0 147 -41t98 -112l-73 -33q-23 51 -69 79.5t-103 28.5q-78 0 -132 -53.5t-54 -137.5z" />
    <glyph glyph-name="d" unicode="d" 
d="M580 0h-80v750h80v-750zM500 251q0 83 -55.5 137t-135.5 54t-135.5 -54t-55.5 -137t55.5 -137t135.5 -54t135.5 54t55.5 137zM538 251q0 -116 -71 -192.5t-175 -76.5q-107 0 -180.5 76.5t-73.5 192.5t73.5 192.5t180.5 76.5q104 0 175 -76.5t71 -192.5z" />
    <glyph glyph-name="e" unicode="e" horiz-adv-x="596" 
d="M478 288q-6 70 -57 113t-123 43q-69 0 -118.5 -42.5t-58.5 -113.5h357zM121 215q9 -71 60 -114t121 -43q54 0 98 25.5t66 70.5l74 -29q-33 -66 -96.5 -104.5t-140.5 -38.5q-112 0 -188.5 76.5t-76.5 192.5t75 192.5t184 76.5q110 0 186 -74.5t76 -187.5q0 -18 -5 -43
h-433z" />
    <glyph glyph-name="f" unicode="f" horiz-adv-x="414" 
d="M314 674q-41 0 -65.5 -26t-24.5 -70v-78h162v-74h-162v-426h-80v426h-115v74h115v95q0 63 47 109t112 46h63v-76h-52z" />
    <glyph glyph-name="g" unicode="g" horiz-adv-x="598" 
d="M501 270q0 -107 -65.5 -177.5t-161.5 -70.5q-99 0 -167.5 70.5t-68.5 177t68.5 177.5t167.5 71q96 0 161.5 -70.5t65.5 -177.5zM460 269q0 74 -49.5 121.5t-121.5 47.5t-121.5 -47.5t-49.5 -121.5t49.5 -121.5t121.5 -47.5t121.5 47.5t49.5 121.5zM460 -10v510h80v-510
q0 -97 -70.5 -158t-176.5 -61q-81 0 -146.5 42t-97.5 115l70 39q23 -53 69 -84t103 -31q72 0 120.5 39t48.5 99z" />
    <glyph glyph-name="h" unicode="h" horiz-adv-x="543" 
d="M58 0v750h80v-750h-80zM406 0v296q0 64 -35.5 101t-92.5 37q-58 0 -99 -40.5t-41 -97.5h-44q0 88 60 151.5t146 63.5q79 0 132.5 -55t53.5 -143v-313h-80z" />
    <glyph glyph-name="i" unicode="i" horiz-adv-x="193" 
d="M42 636q0 23 16 38.5t38.5 15.5t38 -15.5t15.5 -38.5t-15.5 -38.5t-38 -15.5t-38.5 15.5t-16 38.5zM56 0v500h80v-500h-80z" />
    <glyph glyph-name="j" unicode="j" horiz-adv-x="193" 
d="M42 636q0 23 16 38.5t38.5 15.5t38 -15.5t15.5 -38.5t-15.5 -38.5t-38 -15.5t-38.5 15.5t-16 38.5zM-19 -107q36 0 55.5 24.5t19.5 62.5v520h80v-544q0 -57 -39 -99t-101 -42h-36v78h21z" />
    <glyph glyph-name="k" unicode="k" horiz-adv-x="501" 
d="M58 0v750h80v-460h26l204 210h104l-238 -250l238 -250h-104l-204 207h-26v-207h-80z" />
    <glyph glyph-name="l" unicode="l" horiz-adv-x="195" 
d="M58 0v750h80v-750h-80z" />
    <glyph glyph-name="m" unicode="m" horiz-adv-x="816" 
d="M679 0v313q0 57 -30.5 89t-78.5 32q-50 0 -86 -35.5t-36 -85.5h-43q0 82 54 140t133 58q71 0 119 -50t48 -131v-330h-80zM58 0v500h80v-500h-80zM368 0v313q0 57 -30.5 89t-77.5 32q-51 0 -86.5 -35.5t-35.5 -85.5h-44q0 82 54 140t134 58q71 0 118.5 -50t47.5 -131v-330
h-80z" />
    <glyph glyph-name="n" unicode="n" horiz-adv-x="543" 
d="M58 0v500h80v-500h-80zM406 0v296q0 64 -35.5 101t-92.5 37q-58 0 -99 -40.5t-41 -97.5h-44q0 88 60 151.5t146 63.5q79 0 132.5 -55t53.5 -143v-313h-80z" />
    <glyph glyph-name="o" unicode="o" horiz-adv-x="618" 
d="M118 251q0 -84 55.5 -137.5t135.5 -53.5t135.5 53.5t55.5 137.5t-55.5 137.5t-135.5 53.5t-135.5 -53.5t-55.5 -137.5zM38 251q0 117 78.5 193t192.5 76t192.5 -76t78.5 -193t-78.5 -193t-192.5 -76t-192.5 76t-78.5 193z" />
    <glyph glyph-name="p" unicode="p" 
d="M58 500h80v-700h-80v700zM138 249.5q0 -83.5 55.5 -137.5t135.5 -54t135.5 54t55.5 137.5t-55.5 137.5t-135.5 54t-135.5 -54t-55.5 -137.5zM100 249.5q0 116.5 71 192.5t175 76q107 0 180.5 -76t73.5 -192.5t-73.5 -193t-180.5 -76.5q-104 0 -175 76.5t-71 193z" />
    <glyph glyph-name="q" unicode="q" 
d="M580 500v-700h-80v700h80zM500 249.5q0 83.5 -55.5 137.5t-135.5 54t-135.5 -54t-55.5 -137.5t55.5 -137.5t135.5 -54t135.5 54t55.5 137.5zM538 249.5q0 -116.5 -71 -193t-175 -76.5q-107 0 -180.5 76.5t-73.5 193t73.5 192.5t180.5 76q104 0 175 -76t71 -192.5z" />
    <glyph glyph-name="r" unicode="r" horiz-adv-x="340" 
d="M58 0v500h80v-500h-80zM296 428q-66 0 -112.5 -39t-46.5 -93h-43q0 83 57 147.5t137 64.5h28v-80h-20z" />
    <glyph glyph-name="s" unicode="s" horiz-adv-x="479" 
d="M236 216q-186 32 -186 147q0 65 50 107.5t125 42.5q69 0 124.5 -38t79.5 -102l-76 -27q-17 44 -50.5 69t-75.5 25t-69.5 -21t-27.5 -52q0 -29 27.5 -47t88.5 -29q196 -34 196 -154q0 -63 -54.5 -105.5t-132.5 -42.5q-73 0 -132.5 36t-84.5 97l73 31q19 -43 56.5 -68
t85.5 -25q47 0 78 21.5t31 54.5q0 58 -126 80z" />
    <glyph glyph-name="t" unicode="t" horiz-adv-x="382" 
d="M289 76h64v-76h-75q-73 0 -115 37t-42 100v289h-92v74h92v146l80 16v-162h152v-74h-152v-271q0 -79 88 -79z" />
    <glyph glyph-name="u" unicode="u" horiz-adv-x="523" 
d="M466 500v-500h-80v500h80zM138 500v-313q0 -57 32.5 -89t83.5 -32q55 0 93.5 35t38.5 83h42q0 -80 -56 -137.5t-140 -57.5q-74 0 -124 50t-50 131v330h80z" />
    <glyph glyph-name="v" unicode="v" horiz-adv-x="556" 
d="M440 500h86l-196 -500h-104l-195 500h86l161 -420z" />
    <glyph glyph-name="w" unicode="w" horiz-adv-x="823" 
d="M706 500h86l-156 -500h-102l-123 388l-119 -388h-102l-159 500h86l125 -415l131 415h77l132 -415z" />
    <glyph glyph-name="x" unicode="x" horiz-adv-x="550" 
d="M520 0h-96l-149 198l-147 -198h-98l188 250l-188 250h98l147 -198l149 198h96l-188 -250z" />
    <glyph glyph-name="y" unicode="y" horiz-adv-x="556" 
d="M437 500l-159 -392l-158 392h-89l199 -482l-84 -218h89l291 700h-89z" />
    <glyph glyph-name="z" unicode="z" horiz-adv-x="484" 
d="M447 0v72h-321l321 338v90h-409v-72h314l-314 -338v-90h409z" />
    <glyph glyph-name="braceleft" unicode="{" horiz-adv-x="324" 
d="M82 481q0 103 48 178t124 101l32 -76q-55 -18 -90.5 -78t-35.5 -142q0 -89 -60 -108q32 -10 46 -32.5t14 -67.5q0 -88 38.5 -148.5t97.5 -75.5l-30 -76q-81 22 -132.5 98t-51.5 182q0 82 -72 82v77q36 0 54 24t18 62z" />
    <glyph glyph-name="bar" unicode="|" horiz-adv-x="195" 
d="M58 -200v1000h80v-1000h-80z" />
    <glyph glyph-name="braceright" unicode="}" horiz-adv-x="324" 
d="M242 235q0 -103 -47.5 -178t-124.5 -101l-31 76q55 18 90.5 78t35.5 142q0 89 60 108q-32 10 -46 32.5t-14 67.5q0 88 -38.5 148.5t-97.5 75.5l30 76q81 -22 132 -98t51 -182q0 -82 73 -82v-77q-36 0 -54.5 -24t-18.5 -62z" />
    <glyph glyph-name="asciitilde" unicode="~" horiz-adv-x="469" 
d="M160 348q-41 0 -68.5 -32t-39.5 -88l60 -18q6 34 19 53t30 19q14 0 25 -6.5t31 -26.5q26 -25 46.5 -35t45.5 -10q41 0 69 32t38 88l-58 18q-15 -69 -55 -69q-15 0 -26 6.5t-30 25.5q-25 24 -44 33.5t-43 9.5z" />
    <glyph glyph-name="exclamdown" unicode="&#xa1;" horiz-adv-x="194" 
d="M61 391h75l5 -503h-85zM161 537q0 -28 -18 -46.5t-45 -18.5q-28 0 -46.5 18.5t-18.5 46.5q0 27 18.5 45.5t46 18.5t45.5 -18.5t18 -45.5z" />
    <glyph glyph-name="cent" unicode="&#xa2;" horiz-adv-x="586" 
d="M266 596v104h75v-104h-75zM266 118h75v-118h-75v118zM118 358q0 -84 54 -138t132 -54q56 0 101 27.5t69 76.5l73 -33q-33 -68 -98 -108t-145 -40q-112 0 -189 76t-77 193t77 193t189 76q81 0 147 -41t98 -112l-73 -33q-23 51 -69 80t-103 29q-78 0 -132 -54t-54 -138z
" />
    <glyph glyph-name="sterling" unicode="&#xa3;" horiz-adv-x="582" 
d="M553 77v-77h-524v77h107v216h-87v77h87v137q0 93 62 153.5t152 60.5q75 0 128 -37t75 -104l-75 -26q-31 87 -128 87q-59 0 -96.5 -38t-37.5 -106v-127h215v-77h-215v-216h337z" />
    <glyph glyph-name="currency" unicode="&#xa4;" horiz-adv-x="381" 
d="M30 399l40 39l35 -36q38 27 86 27q46 0 85 -26l36 37l41 -42l-36 -36q27 -36 27 -85q0 -48 -28 -87l37 -35l-40 -39l-35 36q-38 -27 -87 -27q-47 0 -85 26l-36 -35l-41 40l36 36q-26 37 -26 85t27 87zM104 277q0 -38 25 -63t62 -25t62.5 25t25.5 63t-25.5 63t-62.5 25
t-62 -25t-25 -63z" />
    <glyph glyph-name="yen" unicode="&#xa5;" horiz-adv-x="568" 
d="M445 163h-319v-62h319v62zM445 288h-319v-62h319v62zM248 0h80v346l210 354h-94l-156 -269l-163 269h-95l218 -354v-346z" />
    <glyph glyph-name="brokenbar" unicode="&#xa6;" horiz-adv-x="195" 
d="M138 416h-80v384h80v-384zM138 204v-404h-80v404h80z" />
    <glyph glyph-name="section" unicode="&#xa7;" horiz-adv-x="449" 
d="M232 276q-60 12 -87 30.5t-27 48.5q0 29 28.5 49t70.5 21q60 -12 87.5 -30.5t27.5 -48.5q0 -29 -28.5 -48.5t-71.5 -21.5zM133 450q-44 -14 -69.5 -43.5t-25.5 -66.5q0 -108 174 -137q62 -10 91 -28.5t29 -47.5q0 -28 -27.5 -47.5t-67.5 -19.5q-41 0 -74 23.5t-49 64.5
l-76 -26q24 -61 79 -97t122 -36q75 0 124 40t49 101q0 79 -95 121q43 14 69 43t26 66q0 52 -43.5 85.5t-131.5 52.5q-63 13 -91 30t-28 46q0 28 27 47.5t67 19.5q41 0 74 -23.5t50 -64.5l76 26q-25 61 -80 97t-122 36q-75 0 -123.5 -40t-48.5 -101q0 -79 95 -121z" />
    <glyph glyph-name="dieresis" unicode="&#xa8;" horiz-adv-x="419" 
d="M271 628q0 23 15.5 38.5t38.5 15.5t38.5 -15.5t15.5 -38.5t-15.5 -38.5t-38.5 -15.5t-38.5 15.5t-15.5 38.5zM41 628q0 23 15.5 38.5t38.5 15.5t38.5 -15.5t15.5 -38.5t-15.5 -38.5t-38.5 -15.5t-38.5 15.5t-15.5 38.5z" />
    <glyph glyph-name="copyright" unicode="&#xa9;" horiz-adv-x="788" 
d="M292 351q0 -47 29.5 -76.5t72.5 -29.5q31 0 56.5 18t38.5 51l58 -24q-21 -50 -62 -79t-91 -29q-69 0 -116.5 48t-47.5 121t47.5 121t116.5 48q51 0 93 -28t62 -75l-58 -24q-13 30 -39 47t-58 17q-43 0 -72.5 -29.5t-29.5 -76.5zM104 353q0 -134 84 -220t206 -86t206 86
t84 220q0 132 -84.5 217t-205.5 85t-205.5 -85t-84.5 -217zM40 353q0 160 102.5 263.5t251.5 103.5t251.5 -103.5t102.5 -263.5q0 -161 -102.5 -266t-251.5 -105t-251.5 105t-102.5 266z" />
    <glyph glyph-name="ordfeminine" unicode="&#xaa;" horiz-adv-x="358" 
d="M256 700h62v-278h-62v278zM328 338v-62h-298v62h298zM92 561q0 -37 24.5 -62t59.5 -25q34 0 57 25t23 62t-23 62t-57 25q-35 0 -59.5 -25t-24.5 -62zM30 561q0 62 38.5 105.5t94 43.5t90.5 -42t35 -107t-35 -107t-90.5 -42t-94 43.5t-38.5 105.5z" />
    <glyph glyph-name="guillemotleft" unicode="&#xab;" horiz-adv-x="535" 
d="M498 174v-92l-226 135v104l226 135v-92l-160 -94zM262 174v-92l-224 135v104l224 135v-92l-160 -94z" />
    <glyph glyph-name="logicalnot" unicode="&#xac;" horiz-adv-x="437" 
d="M408 350v-188h-77v116h-302v72h379z" />
    <glyph glyph-name="uni00AD" unicode="&#xad;" horiz-adv-x="324" 
d="M296 302v-72h-267v72h267z" />
    <glyph glyph-name="registered" unicode="&#xae;" horiz-adv-x="788" 
d="M430 455h-130v-99h130q24 0 41 14.5t17 36.5q0 21 -16.5 34.5t-41.5 13.5zM438 302l110 -114h-76l-109 111h-63v-111h-60v325h202q46 0 76 -30.5t30 -75.5q0 -42 -32 -72.5t-78 -32.5zM104 353q0 -134 84 -220t206 -86t206 86t84 220q0 132 -84.5 217t-205.5 85
t-205.5 -85t-84.5 -217zM40 353q0 160 102.5 263.5t251.5 103.5t251.5 -103.5t102.5 -263.5q0 -161 -102.5 -266t-251.5 -105t-251.5 105t-102.5 266z" />
    <glyph glyph-name="macron" unicode="&#xaf;" horiz-adv-x="364" 
d="M336 700v-67h-307v67h307z" />
    <glyph glyph-name="degree" unicode="&#xb0;" horiz-adv-x="390" 
d="M104 543.5q0 -40.5 26.5 -66t65 -25.5t65 25.5t26.5 66t-26.5 66t-65 25.5t-65 -25.5t-26.5 -66zM29 543.5q0 72.5 48 119.5t118 47t118.5 -47t48.5 -119.5t-48.5 -119.5t-118.5 -47t-118 47t-48 119.5z" />
    <glyph glyph-name="plusminus" unicode="&#xb1;" horiz-adv-x="377" 
d="M348 22v-72h-319v72h319zM152 436h74v-124h122v-72h-122v-124h-74v124h-123v72h123v124z" />
    <glyph glyph-name="uni00B2" unicode="&#xb2;" horiz-adv-x="290" 
d="M263 739q0 49 -34 80.5t-83 31.5q-46 0 -76.5 -26t-43.5 -67l66 -24q14 47 52 47q20 0 33.5 -13t13.5 -33q0 -29 -68 -65l-96 -55v-83h237v67h-148l55 30q92 47 92 110z" />
    <glyph glyph-name="uni00B3" unicode="&#xb3;" horiz-adv-x="295" 
d="M190 714l73 52v81h-224v-64h154l-74 -60l24 -48q26 0 40 -11t14 -30q0 -17 -13 -27.5t-33 -10.5q-21 0 -35.5 13.5t-18.5 36.5l-71 -17q12 -46 45.5 -74.5t80.5 -28.5q51 0 84 29.5t33 74.5q0 36 -21.5 59t-57.5 25z" />
    <glyph glyph-name="acute" unicode="&#xb4;" horiz-adv-x="274" 
d="M244 698l-46 52l-167 -156l41 -48z" />
    <glyph glyph-name="mu" unicode="&#xb5;" horiz-adv-x="560" 
d="M503 500v-500h-80v500h80zM58 500h80v-700h-80v700zM466 212q0 -95 -52.5 -159t-128.5 -64q-79 0 -135 65.5t-56 157.5h44q0 -61 43.5 -103.5t106.5 -42.5q61 0 98 40t37 106h43z" />
    <glyph glyph-name="paragraph" unicode="&#xb6;" horiz-adv-x="535" 
d="M478 0h-63v700h63v-700zM254 357q-83 0 -139.5 51t-56.5 126q0 70 53 118t133 48h107v-700h-80v357h-17z" />
    <glyph glyph-name="periodcentered" unicode="&#xb7;" horiz-adv-x="197" 
d="M42 363q0 24 16 40.5t40 16.5t40.5 -16.5t16.5 -40.5t-16 -40.5t-40.5 -16.5t-40.5 16.5t-16 40.5z" />
    <glyph glyph-name="cedilla" unicode="&#xb8;" horiz-adv-x="283" 
d="M118 -70q21 23 51 23q32 0 55 -29t23 -70q0 -47 -30.5 -76.5t-78.5 -29.5q-40 0 -69.5 20t-39.5 55l60 23q8 -36 47 -36q21 0 33.5 13t12.5 33q0 17 -9 28.5t-23 11.5q-18 0 -32 -18l-62 24v119h62v-91z" />
    <glyph glyph-name="uni00B9" unicode="&#xb9;" horiz-adv-x="221" 
d="M195 847v-315h-70v232l-56 -44l-43 52l97 75h72z" />
    <glyph glyph-name="ordmasculine" unicode="&#xba;" horiz-adv-x="358" 
d="M328 338v-62h-298v62h298zM92 561q0 -38 25.5 -62.5t61.5 -24.5t61.5 24.5t25.5 62.5t-25.5 62.5t-61.5 24.5t-61.5 -24.5t-25.5 -62.5zM30 561q0 65 43 107t106 42t106 -42t43 -107t-43 -107t-106 -42t-106 42t-43 107z" />
    <glyph glyph-name="guillemotright" unicode="&#xbb;" horiz-adv-x="535" 
d="M38 364v92l224 -135v-104l-224 -135v92l160 94zM272 364v92l226 -135v-104l-226 -135v92l160 94z" />
    <glyph glyph-name="onequarter" unicode="&#xbc;" horiz-adv-x="709" 
d="M474 122h72v103zM616 312v-190h37v-61h-37v-64h-70v64h-139v72l128 179h81zM243 0h-90l287 700h90zM195 697v-315h-70v232l-56 -44l-43 52l97 75h72z" />
    <glyph glyph-name="onehalf" unicode="&#xbd;" horiz-adv-x="700" 
d="M644 204q0 49 -34 80.5t-83 31.5q-46 0 -76.5 -26t-43.5 -68l66 -23q14 47 52 47q20 0 33.5 -13t13.5 -33q0 -29 -68 -65l-96 -55v-83h237v67h-148l55 30q92 47 92 110zM243 0h-90l287 700h90zM195 697v-315h-70v232l-56 -44l-43 52l97 75h72z" />
    <glyph glyph-name="threequarters" unicode="&#xbe;" horiz-adv-x="731" 
d="M496 122h72v103zM638 312v-190h37v-61h-37v-64h-70v64h-139v72l128 179h81zM265 0h-90l287 700h90zM190 564l73 52v81h-224v-64h154l-74 -60l24 -48q26 0 40 -11t14 -30q0 -17 -13 -27.5t-33 -10.5q-21 0 -35.5 13.5t-18.5 36.5l-71 -17q12 -46 45.5 -74.5t80.5 -28.5
q51 0 84 29.5t33 74.5q0 36 -21.5 59t-57.5 25z" />
    <glyph glyph-name="questiondown" unicode="&#xbf;" horiz-adv-x="551" 
d="M334 537q0 -28 -18 -46.5t-45 -18.5q-28 0 -46.5 19t-18.5 46.5t18.5 45.5t46 18t45.5 -18t18 -46zM40 103q0 -98 67 -161.5t166 -63.5q90 0 150.5 52.5t87.5 138.5l-75 27q-42 -138 -164 -138q-64 0 -108 41t-44 104q0 82 97 153l98 70l-37 66l-100 -73
q-57 -38 -97.5 -94t-40.5 -122z" />
    <glyph glyph-name="Agrave" unicode="&#xc0;" horiz-adv-x="763" 
d="M243 934l56 52l162 -161l-51 -48zM174 265h413v-76h-413v76zM122 0h-91l299 700h104l299 -700h-91l-260 616z" />
    <glyph glyph-name="Aacute" unicode="&#xc1;" horiz-adv-x="763" 
d="M517 934l-55 55l-159 -164l46 -48zM174 265h413v-76h-413v76zM122 0h-91l299 700h104l299 -700h-91l-260 616z" />
    <glyph glyph-name="Acircumflex" unicode="&#xc2;" horiz-adv-x="763" 
d="M370 974l-162 -152l46 -47l128 123l128 -123l46 47l-162 152h-24zM174 265h413v-76h-413v76zM122 0h-91l299 700h104l299 -700h-91l-260 616z" />
    <glyph glyph-name="Atilde" unicode="&#xc3;" horiz-adv-x="763" 
d="M307 921q-40 0 -68 -32t-39 -88l59 -18q6 35 19 54.5t31 19.5q13 0 24.5 -7t30.5 -28q26 -25 47 -35t46 -10q40 0 68.5 32t38.5 88l-59 18q-14 -71 -55 -71q-14 0 -25.5 7t-29.5 27q-25 24 -44.5 33.5t-43.5 9.5zM174 265h413v-76h-413v76zM122 0h-91l299 700h104
l299 -700h-91l-260 616z" />
    <glyph glyph-name="Adieresis" unicode="&#xc4;" horiz-adv-x="763" 
d="M427 831q0 23 15.5 38.5t38.5 15.5t38.5 -15.5t15.5 -38.5t-15.5 -38.5t-38.5 -15.5t-38.5 15.5t-15.5 38.5zM227 831q0 23 15.5 38.5t38.5 15.5t38.5 -15.5t15.5 -38.5t-15.5 -38.5t-38.5 -15.5t-38.5 15.5t-15.5 38.5zM174 265h413v-76h-413v76zM122 0h-91l299 700h104
l299 -700h-91l-260 616z" />
    <glyph glyph-name="Aring" unicode="&#xc5;" horiz-adv-x="763" 
d="M330 889.5q0 -22.5 15 -37t37 -14.5t37 14.5t15 37t-15 37t-37 14.5t-37 -14.5t-15 -37zM269 889.5q0 48.5 33 80.5t80 32t80 -32t33 -80.5t-33 -80.5t-80 -32t-80 32t-33 80.5zM174 265h413v-76h-413v76zM122 0h-91l299 700h104l299 -700h-91l-260 616z" />
    <glyph glyph-name="AE" unicode="&#xc6;" horiz-adv-x="967" 
d="M545 390h361v-78h-361v-234h385v-78h-465v700h465v-78h-385v-232zM200 272h290v-78h-290v78zM120 0h-90l361 700h74v-84h-23z" />
    <glyph glyph-name="Ccedilla" unicode="&#xc7;" horiz-adv-x="778" 
d="M424 -69q21 22 50 22q33 0 56 -29t23 -70q0 -47 -30.5 -76.5t-79.5 -29.5q-39 0 -68.5 20t-40.5 55l61 23q8 -36 46 -36q22 0 34.5 13t12.5 33q0 17 -9 28.5t-23 11.5q-19 0 -32 -18l-63 25v118h63v-90zM37.5 351q0.5 105 48.5 190t130.5 132t181.5 47q111 0 201 -58.5
t137 -159.5l-77 -30q-36 78 -106 123t-155 45q-118 0 -199 -81.5t-81 -207t81 -207.5t199 -82q87 0 158.5 47.5t106.5 129.5l77 -29q-44 -105 -136.5 -166.5t-205.5 -61.5q-99 0 -181.5 47t-131 132t-48 190z" />
    <glyph glyph-name="Egrave" unicode="&#xc8;" horiz-adv-x="561" 
d="M154 934l56 52l162 -161l-51 -48zM138 390h360v-78h-360v-234h384v-78h-464v700h464v-78h-384v-232z" />
    <glyph glyph-name="Eacute" unicode="&#xc9;" horiz-adv-x="561" 
d="M428 934l-55 55l-159 -164l46 -48zM138 390h360v-78h-360v-234h384v-78h-464v700h464v-78h-384v-232z" />
    <glyph glyph-name="Ecircumflex" unicode="&#xca;" horiz-adv-x="561" 
d="M280 974l-162 -152l46 -47l128 123l128 -123l46 47l-162 152h-24zM138 390h360v-78h-360v-234h384v-78h-464v700h464v-78h-384v-232z" />
    <glyph glyph-name="Edieresis" unicode="&#xcb;" horiz-adv-x="561" 
d="M337 831q0 23 15.5 38.5t38.5 15.5t38.5 -15.5t15.5 -38.5t-15.5 -38.5t-38.5 -15.5t-38.5 15.5t-15.5 38.5zM137 831q0 23 15.5 38.5t38.5 15.5t38.5 -15.5t15.5 -38.5t-15.5 -38.5t-38.5 -15.5t-38.5 15.5t-15.5 38.5zM138 390h360v-78h-360v-234h384v-78h-464v700h464
v-78h-384v-232z" />
    <glyph glyph-name="Igrave" unicode="&#xcc;" horiz-adv-x="195" 
d="M-42 934l56 52l162 -161l-51 -48zM138 0h-80v700h80v-700z" />
    <glyph glyph-name="Iacute" unicode="&#xcd;" horiz-adv-x="195" 
d="M232 934l-55 55l-159 -164l46 -48zM138 0h-80v700h80v-700z" />
    <glyph glyph-name="Icircumflex" unicode="&#xce;" horiz-adv-x="195" 
d="M86 974l-162 -152l46 -47l128 123l128 -123l46 47l-162 152h-24zM138 0h-80v700h80v-700z" />
    <glyph glyph-name="Idieresis" unicode="&#xcf;" horiz-adv-x="195" 
d="M143 831q0 23 15.5 38.5t38.5 15.5t38.5 -15.5t15.5 -38.5t-15.5 -38.5t-38.5 -15.5t-38.5 15.5t-15.5 38.5zM-57 831q0 23 15.5 38.5t38.5 15.5t38.5 -15.5t15.5 -38.5t-15.5 -38.5t-38.5 -15.5t-38.5 15.5t-15.5 38.5zM138 0h-80v700h80v-700z" />
    <glyph glyph-name="Eth" unicode="&#xd0;" horiz-adv-x="703" 
d="M344 394v-72h-344v72h344zM319 0h-244v700h244q95 0 174 -44t126 -124.5t47 -180.5q0 -101 -47 -181.5t-126 -125t-174 -44.5zM309 623h-154v-546h154q116 0 196.5 77t80.5 197q0 119 -80.5 195.5t-196.5 76.5z" />
    <glyph glyph-name="Ntilde" unicode="&#xd1;" horiz-adv-x="685" 
d="M273 921q-40 0 -68 -32t-39 -88l59 -18q6 35 19 54.5t31 19.5q13 0 24.5 -7t30.5 -28q26 -25 47 -35t46 -10q40 0 68.5 32t38.5 88l-59 18q-14 -71 -55 -71q-14 0 -25.5 7t-29.5 27q-25 24 -44.5 33.5t-43.5 9.5zM58 0v700h95l395 -577v577h80v-700h-96l-394 584v-584
h-80z" />
    <glyph glyph-name="Ograve" unicode="&#xd2;" horiz-adv-x="788" 
d="M255 934l56 52l162 -161l-51 -48zM118 353q0 -128 80 -209.5t196 -81.5t196 81.5t80 209.5q0 125 -80 206t-196 81t-196 -81t-80 -206zM38 353q0 79 28 148t76 116.5t113.5 75t138.5 27.5t138.5 -27.5t113.5 -75t76 -116.5t28 -148q0 -80 -28 -149.5t-76 -118t-113.5 -76
t-138.5 -27.5t-138.5 27.5t-113.5 76t-76 118t-28 149.5z" />
    <glyph glyph-name="Oacute" unicode="&#xd3;" horiz-adv-x="788" 
d="M529 934l-55 55l-159 -164l46 -48zM118 353q0 -128 80 -209.5t196 -81.5t196 81.5t80 209.5q0 125 -80 206t-196 81t-196 -81t-80 -206zM38 353q0 79 28 148t76 116.5t113.5 75t138.5 27.5t138.5 -27.5t113.5 -75t76 -116.5t28 -148q0 -80 -28 -149.5t-76 -118
t-113.5 -76t-138.5 -27.5t-138.5 27.5t-113.5 76t-76 118t-28 149.5z" />
    <glyph glyph-name="Ocircumflex" unicode="&#xd4;" horiz-adv-x="788" 
d="M382 974l-162 -152l46 -47l128 123l128 -123l46 47l-162 152h-24zM118 353q0 -128 80 -209.5t196 -81.5t196 81.5t80 209.5q0 125 -80 206t-196 81t-196 -81t-80 -206zM38 353q0 79 28 148t76 116.5t113.5 75t138.5 27.5t138.5 -27.5t113.5 -75t76 -116.5t28 -148
q0 -80 -28 -149.5t-76 -118t-113.5 -76t-138.5 -27.5t-138.5 27.5t-113.5 76t-76 118t-28 149.5z" />
    <glyph glyph-name="Otilde" unicode="&#xd5;" horiz-adv-x="788" 
d="M319 921q-40 0 -68 -32t-39 -88l59 -18q6 35 19 54.5t31 19.5q13 0 24.5 -7t30.5 -28q26 -25 47 -35t46 -10q40 0 68.5 32t38.5 88l-59 18q-14 -71 -55 -71q-14 0 -25.5 7t-29.5 27q-25 24 -44.5 33.5t-43.5 9.5zM118 353q0 -128 80 -209.5t196 -81.5t196 81.5t80 209.5
q0 125 -80 206t-196 81t-196 -81t-80 -206zM38 353q0 79 28 148t76 116.5t113.5 75t138.5 27.5t138.5 -27.5t113.5 -75t76 -116.5t28 -148q0 -80 -28 -149.5t-76 -118t-113.5 -76t-138.5 -27.5t-138.5 27.5t-113.5 76t-76 118t-28 149.5z" />
    <glyph glyph-name="Odieresis" unicode="&#xd6;" horiz-adv-x="788" 
d="M439 831q0 23 15.5 38.5t38.5 15.5t38.5 -15.5t15.5 -38.5t-15.5 -38.5t-38.5 -15.5t-38.5 15.5t-15.5 38.5zM239 831q0 23 15.5 38.5t38.5 15.5t38.5 -15.5t15.5 -38.5t-15.5 -38.5t-38.5 -15.5t-38.5 15.5t-15.5 38.5zM118 353q0 -128 80 -209.5t196 -81.5t196 81.5
t80 209.5q0 125 -80 206t-196 81t-196 -81t-80 -206zM38 353q0 79 28 148t76 116.5t113.5 75t138.5 27.5t138.5 -27.5t113.5 -75t76 -116.5t28 -148q0 -80 -28 -149.5t-76 -118t-113.5 -76t-138.5 -27.5t-138.5 27.5t-113.5 76t-76 118t-28 149.5z" />
    <glyph glyph-name="multiply" unicode="&#xd7;" horiz-adv-x="377" 
d="M46 358l52 53l91 -93l91 91l52 -51l-92 -90l93 -93l-53 -52l-92 93l-92 -93l-50 51l92 92z" />
    <glyph glyph-name="Oslash" unicode="&#xd8;" horiz-adv-x="788" 
d="M742 638l-636 -636l-60 60l636 636zM118 353q0 -128 80 -209.5t196 -81.5t196 81.5t80 209.5q0 125 -80 206t-196 81t-196 -81t-80 -206zM38 353q0 79 28 148t76 116.5t113.5 75t138.5 27.5t138.5 -27.5t113.5 -75t76 -116.5t28 -148q0 -80 -28 -149.5t-76 -118
t-113.5 -76t-138.5 -27.5t-138.5 27.5t-113.5 76t-76 118t-28 149.5z" />
    <glyph glyph-name="Ugrave" unicode="&#xd9;" horiz-adv-x="690" 
d="M206 934l56 52l162 -161l-51 -48zM345 -11q-122 0 -204.5 80t-82.5 203v428h80v-418q0 -100 57.5 -156.5t149.5 -56.5t149.5 56.5t57.5 156.5v418h80v-428q0 -123 -82.5 -203t-204.5 -80z" />
    <glyph glyph-name="Uacute" unicode="&#xda;" horiz-adv-x="690" 
d="M480 934l-55 55l-159 -164l46 -48zM345 -11q-122 0 -204.5 80t-82.5 203v428h80v-418q0 -100 57.5 -156.5t149.5 -56.5t149.5 56.5t57.5 156.5v418h80v-428q0 -123 -82.5 -203t-204.5 -80z" />
    <glyph glyph-name="Ucircumflex" unicode="&#xdb;" horiz-adv-x="690" 
d="M333 974l-162 -152l46 -47l128 123l128 -123l46 47l-162 152h-24zM345 -11q-122 0 -204.5 80t-82.5 203v428h80v-418q0 -100 57.5 -156.5t149.5 -56.5t149.5 56.5t57.5 156.5v418h80v-428q0 -123 -82.5 -203t-204.5 -80z" />
    <glyph glyph-name="Udieresis" unicode="&#xdc;" horiz-adv-x="690" 
d="M390 831q0 23 15.5 38.5t38.5 15.5t38.5 -15.5t15.5 -38.5t-15.5 -38.5t-38.5 -15.5t-38.5 15.5t-15.5 38.5zM190 831q0 23 15.5 38.5t38.5 15.5t38.5 -15.5t15.5 -38.5t-15.5 -38.5t-38.5 -15.5t-38.5 15.5t-15.5 38.5zM345 -11q-122 0 -204.5 80t-82.5 203v428h80v-418
q0 -100 57.5 -156.5t149.5 -56.5t149.5 56.5t57.5 156.5v418h80v-428q0 -123 -82.5 -203t-204.5 -80z" />
    <glyph glyph-name="Yacute" unicode="&#xdd;" horiz-adv-x="666" 
d="M475 934l-55 55l-159 -164l46 -48zM303 0h80v235l254 465h-94l-200 -370l-218 370h-95l273 -465v-235z" />
    <glyph glyph-name="Thorn" unicode="&#xde;" horiz-adv-x="633" 
d="M138 510v-308h204q74 0 124 45t50 111q0 65 -50 108.5t-124 43.5h-204zM138 124v-124h-80v700h80v-112h214q104 0 174 -65.5t70 -164.5q0 -98 -74 -166t-180 -68h-204z" />
    <glyph glyph-name="germandbls" unicode="&#xdf;" horiz-adv-x="668" 
d="M464 392q65 -14 108.5 -72.5t43.5 -132.5q0 -86 -59 -142t-149 -56q-70 0 -121 37t-69 101l75 25q9 -39 39.5 -61t73.5 -22q59 0 94.5 36.5t35.5 96.5q0 66 -48 108t-124 42h-56v76h56q58 0 94 33.5t36 87.5q0 60 -43.5 96.5t-114.5 36.5q-93 0 -145.5 -58.5
t-52.5 -161.5v-462h-80v472q0 127 80 207.5t205 80.5q104 0 167.5 -57.5t63.5 -151.5q0 -114 -110 -159z" />
    <glyph glyph-name="agrave" unicode="&#xe0;" horiz-adv-x="499" 
d="M99 725l56 52l162 -161l-51 -48zM362 231l-143 -17q-101 -12 -101 -77q0 -34 28 -54.5t75 -20.5q64 0 102.5 38t38.5 100h35q0 -91 -56 -151t-140 -60q-71 0 -117.5 40.5t-46.5 104.5q1 62 44.5 101.5t120.5 48.5l160 18v20q0 46 -36 80t-88 34q-47 0 -83 -25t-47 -65
l-74 24q19 63 74 102t125 39q85 0 147 -53.5t62 -127.5v-330h-80v231z" />
    <glyph glyph-name="aacute" unicode="&#xe1;" horiz-adv-x="499" 
d="M373 725l-55 55l-159 -164l46 -48zM362 231l-143 -17q-101 -12 -101 -77q0 -34 28 -54.5t75 -20.5q64 0 102.5 38t38.5 100h35q0 -91 -56 -151t-140 -60q-71 0 -117.5 40.5t-46.5 104.5q1 62 44.5 101.5t120.5 48.5l160 18v20q0 46 -36 80t-88 34q-47 0 -83 -25t-47 -65
l-74 24q19 63 74 102t125 39q85 0 147 -53.5t62 -127.5v-330h-80v231z" />
    <glyph glyph-name="acircumflex" unicode="&#xe2;" horiz-adv-x="499" 
d="M226 765l-162 -152l46 -47l128 123l128 -123l46 47l-162 152h-24zM362 231l-143 -17q-101 -12 -101 -77q0 -34 28 -54.5t75 -20.5q64 0 102.5 38t38.5 100h35q0 -91 -56 -151t-140 -60q-71 0 -117.5 40.5t-46.5 104.5q1 62 44.5 101.5t120.5 48.5l160 18v20q0 46 -36 80
t-88 34q-47 0 -83 -25t-47 -65l-74 24q19 63 74 102t125 39q85 0 147 -53.5t62 -127.5v-330h-80v231z" />
    <glyph glyph-name="atilde" unicode="&#xe3;" horiz-adv-x="499" 
d="M163 712q-40 0 -68 -32t-39 -88l59 -18q6 35 19 54.5t31 19.5q13 0 24.5 -7t30.5 -28q26 -25 47 -35t46 -10q40 0 68.5 32t38.5 88l-59 18q-14 -71 -55 -71q-14 0 -25.5 7t-29.5 27q-25 24 -44.5 33.5t-43.5 9.5zM362 231l-143 -17q-101 -12 -101 -77q0 -34 28 -54.5
t75 -20.5q64 0 102.5 38t38.5 100h35q0 -91 -56 -151t-140 -60q-71 0 -117.5 40.5t-46.5 104.5q1 62 44.5 101.5t120.5 48.5l160 18v20q0 46 -36 80t-88 34q-47 0 -83 -25t-47 -65l-74 24q19 63 74 102t125 39q85 0 147 -53.5t62 -127.5v-330h-80v231z" />
    <glyph glyph-name="adieresis" unicode="&#xe4;" horiz-adv-x="499" 
d="M283 622q0 23 15.5 38.5t38.5 15.5t38.5 -15.5t15.5 -38.5t-15.5 -38.5t-38.5 -15.5t-38.5 15.5t-15.5 38.5zM83 622q0 23 15.5 38.5t38.5 15.5t38.5 -15.5t15.5 -38.5t-15.5 -38.5t-38.5 -15.5t-38.5 15.5t-15.5 38.5zM362 231l-143 -17q-101 -12 -101 -77
q0 -34 28 -54.5t75 -20.5q64 0 102.5 38t38.5 100h35q0 -91 -56 -151t-140 -60q-71 0 -117.5 40.5t-46.5 104.5q1 62 44.5 101.5t120.5 48.5l160 18v20q0 46 -36 80t-88 34q-47 0 -83 -25t-47 -65l-74 24q19 63 74 102t125 39q85 0 147 -53.5t62 -127.5v-330h-80v231z" />
    <glyph glyph-name="aring" unicode="&#xe5;" horiz-adv-x="499" 
d="M186 680.5q0 -22.5 15 -37t37 -14.5t37 14.5t15 37t-15 37t-37 14.5t-37 -14.5t-15 -37zM125 680.5q0 48.5 33 80.5t80 32t80 -32t33 -80.5t-33 -80.5t-80 -32t-80 32t-33 80.5zM362 231l-143 -17q-101 -12 -101 -77q0 -34 28 -54.5t75 -20.5q64 0 102.5 38t38.5 100h35
q0 -91 -56 -151t-140 -60q-71 0 -117.5 40.5t-46.5 104.5q1 62 44.5 101.5t120.5 48.5l160 18v20q0 46 -36 80t-88 34q-47 0 -83 -25t-47 -65l-74 24q19 63 74 102t125 39q85 0 147 -53.5t62 -127.5v-330h-80v231z" />
    <glyph glyph-name="ae" unicode="&#xe6;" horiz-adv-x="923" 
d="M362 230l-143 -17q-101 -12 -101 -75q0 -34 28.5 -55t75.5 -21q63 0 101.5 38t38.5 100v30zM448 215q9 -70 60 -113.5t122 -43.5q53 0 97 25.5t66 70.5l73 -29q-32 -66 -95.5 -104.5t-139.5 -38.5q-108 0 -181 76.5t-73 192.5q0 117 72 193t177 76q109 0 184.5 -75
t75.5 -188q0 -18 -4 -42h-434zM805 288q-6 69 -57 112.5t-123 43.5q-69 0 -118.5 -43t-58.5 -113h357zM208 -11q-74 0 -122 41.5t-48 107.5q0 59 43 96.5t121 47.5l160 18v23q0 45 -36 79t-88 34q-47 0 -82 -25t-46 -64l-76 23q18 62 72 101.5t122 39.5q80 0 137.5 -53.5
t57.5 -127.5v-123q0 -94 -61 -156t-154 -62z" />
    <glyph glyph-name="ccedilla" unicode="&#xe7;" horiz-adv-x="586" 
d="M329 -69q21 22 50 22q33 0 56 -29t23 -70q0 -47 -30.5 -76.5t-79.5 -29.5q-39 0 -68.5 20t-40.5 55l61 23q8 -36 46 -36q22 0 34.5 13t12.5 33q0 17 -9 28.5t-23 11.5q-19 0 -32 -18l-63 25v118h63v-90zM118 251q0 -84 54 -137.5t132 -53.5q56 0 101 27t69 76l73 -33
q-33 -68 -98 -108t-145 -40q-112 0 -189 76t-77 193t77 193t189 76q81 0 147 -41t98 -112l-73 -33q-23 51 -69 79.5t-103 28.5q-78 0 -132 -53.5t-54 -137.5z" />
    <glyph glyph-name="egrave" unicode="&#xe8;" horiz-adv-x="596" 
d="M158 725l56 52l162 -161l-51 -48zM478 288q-6 70 -57 113t-123 43q-69 0 -118.5 -42.5t-58.5 -113.5h357zM121 215q9 -71 60 -114t121 -43q54 0 98 25.5t66 70.5l74 -29q-33 -66 -96.5 -104.5t-140.5 -38.5q-112 0 -188.5 76.5t-76.5 192.5t75 192.5t184 76.5
q110 0 186 -74.5t76 -187.5q0 -18 -5 -43h-433z" />
    <glyph glyph-name="eacute" unicode="&#xe9;" horiz-adv-x="596" 
d="M432 725l-55 55l-159 -164l46 -48zM478 288q-6 70 -57 113t-123 43q-69 0 -118.5 -42.5t-58.5 -113.5h357zM121 215q9 -71 60 -114t121 -43q54 0 98 25.5t66 70.5l74 -29q-33 -66 -96.5 -104.5t-140.5 -38.5q-112 0 -188.5 76.5t-76.5 192.5t75 192.5t184 76.5
q110 0 186 -74.5t76 -187.5q0 -18 -5 -43h-433z" />
    <glyph glyph-name="ecircumflex" unicode="&#xea;" horiz-adv-x="596" 
d="M284 765l-162 -152l46 -47l128 123l128 -123l46 47l-162 152h-24zM478 288q-6 70 -57 113t-123 43q-69 0 -118.5 -42.5t-58.5 -113.5h357zM121 215q9 -71 60 -114t121 -43q54 0 98 25.5t66 70.5l74 -29q-33 -66 -96.5 -104.5t-140.5 -38.5q-112 0 -188.5 76.5
t-76.5 192.5t75 192.5t184 76.5q110 0 186 -74.5t76 -187.5q0 -18 -5 -43h-433z" />
    <glyph glyph-name="edieresis" unicode="&#xeb;" horiz-adv-x="596" 
d="M341 622q0 23 15.5 38.5t38.5 15.5t38.5 -15.5t15.5 -38.5t-15.5 -38.5t-38.5 -15.5t-38.5 15.5t-15.5 38.5zM141 622q0 23 15.5 38.5t38.5 15.5t38.5 -15.5t15.5 -38.5t-15.5 -38.5t-38.5 -15.5t-38.5 15.5t-15.5 38.5zM478 288q-6 70 -57 113t-123 43
q-69 0 -118.5 -42.5t-58.5 -113.5h357zM121 215q9 -71 60 -114t121 -43q54 0 98 25.5t66 70.5l74 -29q-33 -66 -96.5 -104.5t-140.5 -38.5q-112 0 -188.5 76.5t-76.5 192.5t75 192.5t184 76.5q110 0 186 -74.5t76 -187.5q0 -18 -5 -43h-433z" />
    <glyph glyph-name="igrave" unicode="&#xec;" horiz-adv-x="195" 
d="M-42 725l56 52l162 -161l-51 -48zM58 0v500h80v-500h-80z" />
    <glyph glyph-name="iacute" unicode="&#xed;" horiz-adv-x="195" 
d="M232 725l-55 55l-159 -164l46 -48zM58 0v500h80v-500h-80z" />
    <glyph glyph-name="icircumflex" unicode="&#xee;" horiz-adv-x="195" 
d="M86 765l-162 -152l46 -47l128 123l128 -123l46 47l-162 152h-24zM58 0v500h80v-500h-80z" />
    <glyph glyph-name="idieresis" unicode="&#xef;" horiz-adv-x="195" 
d="M143 622q0 23 15.5 38.5t38.5 15.5t38.5 -15.5t15.5 -38.5t-15.5 -38.5t-38.5 -15.5t-38.5 15.5t-15.5 38.5zM-57 622q0 23 15.5 38.5t38.5 15.5t38.5 -15.5t15.5 -38.5t-15.5 -38.5t-38.5 -15.5t-38.5 15.5t-15.5 38.5zM58 0v500h80v-500h-80z" />
    <glyph glyph-name="eth" unicode="&#xf0;" horiz-adv-x="610" 
d="M520 758l-252 -175l38 -49l251 172zM482 235q0 -72 -55 -122.5t-134 -50.5q-75 0 -125.5 47.5t-50 120t51.5 119t130 46.5t131 -45.5t52 -114.5zM234 688q112 -14 180.5 -101t77.5 -228q-28 51 -85.5 81t-125.5 30q-103 0 -173.5 -70t-70.5 -173q1 -106 74.5 -175.5
t185.5 -69.5q76 0 138.5 35t95.5 96q41 76 41 203q0 187 -85.5 308t-232.5 140z" />
    <glyph glyph-name="ntilde" unicode="&#xf1;" horiz-adv-x="543" 
d="M195 712q-40 0 -68 -32t-39 -88l59 -18q6 35 19 54.5t31 19.5q13 0 24.5 -7t30.5 -28q26 -25 47 -35t46 -10q40 0 68.5 32t38.5 88l-59 18q-14 -71 -55 -71q-14 0 -25.5 7t-29.5 27q-25 24 -44.5 33.5t-43.5 9.5zM58 0v500h80v-500h-80zM406 0v296q0 64 -35.5 101
t-92.5 37q-58 0 -99 -40.5t-41 -97.5h-44q0 88 60 151.5t146 63.5q79 0 132.5 -55t53.5 -143v-313h-80z" />
    <glyph glyph-name="ograve" unicode="&#xf2;" horiz-adv-x="618" 
d="M169 725l56 52l162 -161l-51 -48zM118 251q0 -84 55.5 -137.5t135.5 -53.5t135.5 53.5t55.5 137.5t-55.5 137.5t-135.5 53.5t-135.5 -53.5t-55.5 -137.5zM38 251q0 117 78.5 193t192.5 76t192.5 -76t78.5 -193t-78.5 -193t-192.5 -76t-192.5 76t-78.5 193z" />
    <glyph glyph-name="oacute" unicode="&#xf3;" horiz-adv-x="618" 
d="M443 725l-55 55l-159 -164l46 -48zM118 251q0 -84 55.5 -137.5t135.5 -53.5t135.5 53.5t55.5 137.5t-55.5 137.5t-135.5 53.5t-135.5 -53.5t-55.5 -137.5zM38 251q0 117 78.5 193t192.5 76t192.5 -76t78.5 -193t-78.5 -193t-192.5 -76t-192.5 76t-78.5 193z" />
    <glyph glyph-name="ocircumflex" unicode="&#xf4;" horiz-adv-x="618" 
d="M296 765l-162 -152l46 -47l128 123l128 -123l46 47l-162 152h-24zM118 251q0 -84 55.5 -137.5t135.5 -53.5t135.5 53.5t55.5 137.5t-55.5 137.5t-135.5 53.5t-135.5 -53.5t-55.5 -137.5zM38 251q0 117 78.5 193t192.5 76t192.5 -76t78.5 -193t-78.5 -193t-192.5 -76
t-192.5 76t-78.5 193z" />
    <glyph glyph-name="otilde" unicode="&#xf5;" horiz-adv-x="618" 
d="M233 712q-40 0 -68 -32t-39 -88l59 -18q6 35 19 54.5t31 19.5q13 0 24.5 -7t30.5 -28q26 -25 47 -35t46 -10q40 0 68.5 32t38.5 88l-59 18q-14 -71 -55 -71q-14 0 -25.5 7t-29.5 27q-25 24 -44.5 33.5t-43.5 9.5zM118 251q0 -84 55.5 -137.5t135.5 -53.5t135.5 53.5
t55.5 137.5t-55.5 137.5t-135.5 53.5t-135.5 -53.5t-55.5 -137.5zM38 251q0 117 78.5 193t192.5 76t192.5 -76t78.5 -193t-78.5 -193t-192.5 -76t-192.5 76t-78.5 193z" />
    <glyph glyph-name="odieresis" unicode="&#xf6;" horiz-adv-x="618" 
d="M353 622q0 23 15.5 38.5t38.5 15.5t38.5 -15.5t15.5 -38.5t-15.5 -38.5t-38.5 -15.5t-38.5 15.5t-15.5 38.5zM153 622q0 23 15.5 38.5t38.5 15.5t38.5 -15.5t15.5 -38.5t-15.5 -38.5t-38.5 -15.5t-38.5 15.5t-15.5 38.5zM118 251q0 -84 55.5 -137.5t135.5 -53.5
t135.5 53.5t55.5 137.5t-55.5 137.5t-135.5 53.5t-135.5 -53.5t-55.5 -137.5zM38 251q0 117 78.5 193t192.5 76t192.5 -76t78.5 -193t-78.5 -193t-192.5 -76t-192.5 76t-78.5 193z" />
    <glyph glyph-name="divide" unicode="&#xf7;" horiz-adv-x="377" 
d="M127 427q0 27 18 46t45 19q28 0 46.5 -19t18.5 -46q0 -28 -18.5 -46t-46 -18t-45.5 18t-18 46zM127 102q0 28 18 46.5t45 18.5q28 0 46.5 -18.5t18.5 -46.5q0 -27 -18.5 -45.5t-46 -18.5t-45.5 18.5t-18 45.5zM348 302v-72h-319v72h319z" />
    <glyph glyph-name="oslash" unicode="&#xf8;" horiz-adv-x="618" 
d="M529 527l55 -55l-495 -495l-55 55zM115 251q0 -85 56.5 -139.5t137.5 -54.5t137.5 54.5t56.5 139.5t-56.5 139.5t-137.5 54.5t-137.5 -54.5t-56.5 -139.5zM38 251q0 117 78.5 193t192.5 76t192.5 -76t78.5 -193t-78.5 -193t-192.5 -76t-192.5 76t-78.5 193z" />
    <glyph glyph-name="ugrave" unicode="&#xf9;" horiz-adv-x="523" 
d="M122 725l56 52l162 -161l-51 -48zM466 500v-500h-80v500h80zM138 500v-313q0 -57 32.5 -89t83.5 -32q55 0 93.5 35t38.5 83h42q0 -80 -56 -137.5t-140 -57.5q-74 0 -124 50t-50 131v330h80z" />
    <glyph glyph-name="uacute" unicode="&#xfa;" horiz-adv-x="523" 
d="M396 725l-55 55l-159 -164l46 -48zM466 500v-500h-80v500h80zM138 500v-313q0 -57 32.5 -89t83.5 -32q55 0 93.5 35t38.5 83h42q0 -80 -56 -137.5t-140 -57.5q-74 0 -124 50t-50 131v330h80z" />
    <glyph glyph-name="ucircumflex" unicode="&#xfb;" horiz-adv-x="523" 
d="M249 765l-162 -152l46 -47l128 123l128 -123l46 47l-162 152h-24zM466 500v-500h-80v500h80zM138 500v-313q0 -57 32.5 -89t83.5 -32q55 0 93.5 35t38.5 83h42q0 -80 -56 -137.5t-140 -57.5q-74 0 -124 50t-50 131v330h80z" />
    <glyph glyph-name="udieresis" unicode="&#xfc;" horiz-adv-x="523" 
d="M306 622q0 23 15.5 38.5t38.5 15.5t38.5 -15.5t15.5 -38.5t-15.5 -38.5t-38.5 -15.5t-38.5 15.5t-15.5 38.5zM106 622q0 23 15.5 38.5t38.5 15.5t38.5 -15.5t15.5 -38.5t-15.5 -38.5t-38.5 -15.5t-38.5 15.5t-15.5 38.5zM466 500v-500h-80v500h80zM138 500v-313
q0 -57 32.5 -89t83.5 -32q55 0 93.5 35t38.5 83h42q0 -80 -56 -137.5t-140 -57.5q-74 0 -124 50t-50 131v330h80z" />
    <glyph glyph-name="yacute" unicode="&#xfd;" horiz-adv-x="556" 
d="M412 725l-55 55l-159 -164l46 -48zM437 500l-159 -392l-158 392h-89l199 -482l-84 -218h89l291 700h-89z" />
    <glyph glyph-name="thorn" unicode="&#xfe;" 
d="M58 -200v950h80v-950h-80zM138 251q0 -83 55.5 -137t135.5 -54t135.5 54t55.5 137t-55.5 137t-135.5 54t-135.5 -54t-55.5 -137zM100 251q0 116 71 192.5t175 76.5q107 0 180.5 -76.5t73.5 -192.5t-73.5 -192.5t-180.5 -76.5q-104 0 -175 76.5t-71 192.5z" />
    <glyph glyph-name="ydieresis" unicode="&#xff;" horiz-adv-x="556" 
d="M322 622q0 23 15.5 38.5t38.5 15.5t38.5 -15.5t15.5 -38.5t-15.5 -38.5t-38.5 -15.5t-38.5 15.5t-15.5 38.5zM122 622q0 23 15.5 38.5t38.5 15.5t38.5 -15.5t15.5 -38.5t-15.5 -38.5t-38.5 -15.5t-38.5 15.5t-15.5 38.5zM437 500l-159 -392l-158 392h-89l199 -482
l-84 -218h89l291 700h-89z" />
    <glyph glyph-name="Amacron" unicode="&#x100;" horiz-adv-x="763" 
d="M540 854v-67h-308v67h308zM174 265h413v-76h-413v76zM122 0h-91l299 700h104l299 -700h-91l-260 616z" />
    <glyph glyph-name="amacron" unicode="&#x101;" horiz-adv-x="499" 
d="M396 645v-67h-308v67h308zM362 231l-143 -17q-101 -12 -101 -77q0 -34 28 -54.5t75 -20.5q64 0 102.5 38t38.5 100h35q0 -91 -56 -151t-140 -60q-71 0 -117.5 40.5t-46.5 104.5q1 62 44.5 101.5t120.5 48.5l160 18v20q0 46 -36 80t-88 34q-47 0 -83 -25t-47 -65l-74 24
q19 63 74 102t125 39q85 0 147 -53.5t62 -127.5v-330h-80v231z" />
    <glyph glyph-name="Abreve" unicode="&#x102;" horiz-adv-x="763" 
d="M381 785q-69 0 -117 45.5t-48 109.5h67q0 -40 28 -66t71 -26q44 0 74.5 27t30.5 65h67q0 -62 -51.5 -108.5t-121.5 -46.5zM174 265h413v-76h-413v76zM122 0h-91l299 700h104l299 -700h-91l-260 616z" />
    <glyph glyph-name="abreve" unicode="&#x103;" horiz-adv-x="499" 
d="M237 576q-69 0 -117 45.5t-48 109.5h67q0 -40 28 -66t71 -26q44 0 74.5 27t30.5 65h67q0 -62 -51.5 -108.5t-121.5 -46.5zM362 231l-143 -17q-101 -12 -101 -77q0 -34 28 -54.5t75 -20.5q64 0 102.5 38t38.5 100h35q0 -91 -56 -151t-140 -60q-71 0 -117.5 40.5
t-46.5 104.5q1 62 44.5 101.5t120.5 48.5l160 18v20q0 46 -36 80t-88 34q-47 0 -83 -25t-47 -65l-74 24q19 63 74 102t125 39q85 0 147 -53.5t62 -127.5v-330h-80v231z" />
    <glyph glyph-name="Aogonek" unicode="&#x104;" horiz-adv-x="763" 
d="M656 -21v24h59v-45l-57 -36q-35 -24 -35 -58q0 -22 13 -35t34 -13q38 0 47 40l57 -17q-10 -38 -38 -60t-67 -22q-47 0 -77.5 28.5t-30.5 73.5q0 32 16.5 56t55.5 49zM174 265h413v-76h-413v76zM122 0h-91l299 700h104l299 -700h-91l-260 616z" />
    <glyph glyph-name="aogonek" unicode="&#x105;" horiz-adv-x="499" 
d="M373 -21v24h59v-45l-57 -36q-35 -24 -35 -58q0 -22 13 -35t34 -13q38 0 47 40l57 -17q-10 -38 -38 -60t-67 -22q-47 0 -77.5 28.5t-30.5 73.5q0 32 16.5 56t55.5 49zM362 231l-143 -17q-101 -12 -101 -77q0 -34 28 -54.5t75 -20.5q64 0 102.5 38t38.5 100h35
q0 -91 -56 -151t-140 -60q-71 0 -117.5 40.5t-46.5 104.5q1 62 44.5 101.5t120.5 48.5l160 18v20q0 46 -36 80t-88 34q-47 0 -83 -25t-47 -65l-74 24q19 63 74 102t125 39q85 0 147 -53.5t62 -127.5v-330h-80v231z" />
    <glyph glyph-name="Cacute" unicode="&#x106;" horiz-adv-x="778" 
d="M529 934l-55 55l-159 -164l46 -48zM37.5 351q0.5 105 48.5 190t130.5 132t181.5 47q111 0 201 -58.5t137 -159.5l-77 -30q-36 78 -106 123t-155 45q-118 0 -199 -81.5t-81 -207t81 -207.5t199 -82q87 0 158.5 47.5t106.5 129.5l77 -29q-44 -105 -136.5 -166.5
t-205.5 -61.5q-99 0 -181.5 47t-131 132t-48 190z" />
    <glyph glyph-name="cacute" unicode="&#x107;" horiz-adv-x="586" 
d="M440 725l-55 55l-159 -164l46 -48zM118 251q0 -84 54 -137.5t132 -53.5q56 0 101 27t69 76l73 -33q-33 -68 -98 -108t-145 -40q-112 0 -189 76t-77 193t77 193t189 76q81 0 147 -41t98 -112l-73 -33q-23 51 -69 79.5t-103 28.5q-78 0 -132 -53.5t-54 -137.5z" />
    <glyph glyph-name="Ccircumflex" unicode="&#x108;" horiz-adv-x="778" 
d="M382 974l-162 -152l46 -47l128 123l128 -123l46 47l-162 152h-24zM37.5 351q0.5 105 48.5 190t130.5 132t181.5 47q111 0 201 -58.5t137 -159.5l-77 -30q-36 78 -106 123t-155 45q-118 0 -199 -81.5t-81 -207t81 -207.5t199 -82q87 0 158.5 47.5t106.5 129.5l77 -29
q-44 -105 -136.5 -166.5t-205.5 -61.5q-99 0 -181.5 47t-131 132t-48 190z" />
    <glyph glyph-name="ccircumflex" unicode="&#x109;" horiz-adv-x="586" 
d="M293 765l-162 -152l46 -47l128 123l128 -123l46 47l-162 152h-24zM118 251q0 -84 54 -137.5t132 -53.5q56 0 101 27t69 76l73 -33q-33 -68 -98 -108t-145 -40q-112 0 -189 76t-77 193t77 193t189 76q81 0 147 -41t98 -112l-73 -33q-23 51 -69 79.5t-103 28.5
q-78 0 -132 -53.5t-54 -137.5z" />
    <glyph glyph-name="Cdotaccent" unicode="&#x10a;" horiz-adv-x="778" 
d="M340 831q0 23 15.5 38.5t38.5 15.5t38.5 -15.5t15.5 -38.5t-15.5 -38.5t-38.5 -15.5t-38.5 15.5t-15.5 38.5zM37.5 351q0.5 105 48.5 190t130.5 132t181.5 47q111 0 201 -58.5t137 -159.5l-77 -30q-36 78 -106 123t-155 45q-118 0 -199 -81.5t-81 -207t81 -207.5t199 -82
q87 0 158.5 47.5t106.5 129.5l77 -29q-44 -105 -136.5 -166.5t-205.5 -61.5q-99 0 -181.5 47t-131 132t-48 190z" />
    <glyph glyph-name="cdotaccent" unicode="&#x10b;" horiz-adv-x="586" 
d="M251 622q0 23 15.5 38.5t38.5 15.5t38.5 -15.5t15.5 -38.5t-15.5 -38.5t-38.5 -15.5t-38.5 15.5t-15.5 38.5zM118 251q0 -84 54 -137.5t132 -53.5q56 0 101 27t69 76l73 -33q-33 -68 -98 -108t-145 -40q-112 0 -189 76t-77 193t77 193t189 76q81 0 147 -41t98 -112
l-73 -33q-23 51 -69 79.5t-103 28.5q-78 0 -132 -53.5t-54 -137.5z" />
    <glyph glyph-name="Ccaron" unicode="&#x10c;" horiz-adv-x="778" 
d="M406 775l162 152l-46 47l-128 -123l-128 123l-46 -47l162 -152h24zM37.5 351q0.5 105 48.5 190t130.5 132t181.5 47q111 0 201 -58.5t137 -159.5l-77 -30q-36 78 -106 123t-155 45q-118 0 -199 -81.5t-81 -207t81 -207.5t199 -82q87 0 158.5 47.5t106.5 129.5l77 -29
q-44 -105 -136.5 -166.5t-205.5 -61.5q-99 0 -181.5 47t-131 132t-48 190z" />
    <glyph glyph-name="ccaron" unicode="&#x10d;" horiz-adv-x="586" 
d="M317 566l162 152l-46 47l-128 -123l-128 123l-46 -47l162 -152h24zM118 251q0 -84 54 -137.5t132 -53.5q56 0 101 27t69 76l73 -33q-33 -68 -98 -108t-145 -40q-112 0 -189 76t-77 193t77 193t189 76q81 0 147 -41t98 -112l-73 -33q-23 51 -69 79.5t-103 28.5
q-78 0 -132 -53.5t-54 -137.5z" />
    <glyph glyph-name="Dcaron" unicode="&#x10e;" horiz-adv-x="700" 
d="M346 775l162 152l-46 47l-128 -123l-128 123l-46 -47l162 -152h24zM316 0h-258v700h258q146 0 246.5 -98.5t100.5 -250.5t-100.5 -251.5t-246.5 -99.5zM306 623h-168v-546h168q116 0 196.5 77t80.5 197q0 119 -80.5 195.5t-196.5 76.5z" />
    <glyph glyph-name="dcaron" unicode="&#x10f;" horiz-adv-x="766" 
d="M685 806l75 -20l-59 -228l-70 18zM580 0h-80v750h80v-750zM500 251q0 83 -55.5 137t-135.5 54t-135.5 -54t-55.5 -137t55.5 -137t135.5 -54t135.5 54t55.5 137zM538 251q0 -116 -71 -192.5t-175 -76.5q-107 0 -180.5 76.5t-73.5 192.5t73.5 192.5t180.5 76.5
q104 0 175 -76.5t71 -192.5z" />
    <glyph glyph-name="Dcroat" unicode="&#x110;" horiz-adv-x="703" 
d="M344 394v-72h-344v72h344zM319 0h-244v700h244q95 0 174 -44t126 -124.5t47 -180.5q0 -101 -47 -181.5t-126 -125t-174 -44.5zM309 623h-154v-546h154q116 0 196.5 77t80.5 197q0 119 -80.5 195.5t-196.5 76.5z" />
    <glyph glyph-name="dcroat" unicode="&#x111;" horiz-adv-x="668" 
d="M538 251q0 -116 -71 -192.5t-175 -76.5q-107 0 -180.5 76.5t-73.5 192.5t73.5 192.5t180.5 76.5q104 0 175 -76.5t71 -192.5zM500 251q0 83 -55.5 137t-135.5 54t-135.5 -54t-55.5 -137t55.5 -137t135.5 -54t135.5 54t55.5 137zM580 0h-80v601h-226v72h226v77h80v-77h88
v-72h-88v-601z" />
    <glyph glyph-name="Emacron" unicode="&#x112;" horiz-adv-x="561" 
d="M450 854v-67h-308v67h308zM138 390h360v-78h-360v-234h384v-78h-464v700h464v-78h-384v-232z" />
    <glyph glyph-name="emacron" unicode="&#x113;" horiz-adv-x="596" 
d="M454 645v-67h-308v67h308zM478 288q-6 70 -57 113t-123 43q-69 0 -118.5 -42.5t-58.5 -113.5h357zM121 215q9 -71 60 -114t121 -43q54 0 98 25.5t66 70.5l74 -29q-33 -66 -96.5 -104.5t-140.5 -38.5q-112 0 -188.5 76.5t-76.5 192.5t75 192.5t184 76.5q110 0 186 -74.5
t76 -187.5q0 -18 -5 -43h-433z" />
    <glyph glyph-name="Ebreve" unicode="&#x114;" horiz-adv-x="561" 
d="M291 785q-69 0 -117 45.5t-48 109.5h67q0 -40 28 -66t71 -26q44 0 74.5 27t30.5 65h67q0 -62 -51.5 -108.5t-121.5 -46.5zM138 390h360v-78h-360v-234h384v-78h-464v700h464v-78h-384v-232z" />
    <glyph glyph-name="ebreve" unicode="&#x115;" horiz-adv-x="596" 
d="M295 576q-69 0 -117 45.5t-48 109.5h67q0 -40 28 -66t71 -26q44 0 74.5 27t30.5 65h67q0 -62 -51.5 -108.5t-121.5 -46.5zM478 288q-6 70 -57 113t-123 43q-69 0 -118.5 -42.5t-58.5 -113.5h357zM121 215q9 -71 60 -114t121 -43q54 0 98 25.5t66 70.5l74 -29
q-33 -66 -96.5 -104.5t-140.5 -38.5q-112 0 -188.5 76.5t-76.5 192.5t75 192.5t184 76.5q110 0 186 -74.5t76 -187.5q0 -18 -5 -43h-433z" />
    <glyph glyph-name="Edotaccent" unicode="&#x116;" horiz-adv-x="561" 
d="M239 831q0 23 15.5 38.5t38.5 15.5t38.5 -15.5t15.5 -38.5t-15.5 -38.5t-38.5 -15.5t-38.5 15.5t-15.5 38.5zM138 390h360v-78h-360v-234h384v-78h-464v700h464v-78h-384v-232z" />
    <glyph glyph-name="edotaccent" unicode="&#x117;" horiz-adv-x="596" 
d="M243 622q0 23 15.5 38.5t38.5 15.5t38.5 -15.5t15.5 -38.5t-15.5 -38.5t-38.5 -15.5t-38.5 15.5t-15.5 38.5zM478 288q-6 70 -57 113t-123 43q-69 0 -118.5 -42.5t-58.5 -113.5h357zM121 215q9 -71 60 -114t121 -43q54 0 98 25.5t66 70.5l74 -29q-33 -66 -96.5 -104.5
t-140.5 -38.5q-112 0 -188.5 76.5t-76.5 192.5t75 192.5t184 76.5q110 0 186 -74.5t76 -187.5q0 -18 -5 -43h-433z" />
    <glyph glyph-name="Eogonek" unicode="&#x118;" horiz-adv-x="561" 
d="M447 -21v24h59v-45l-57 -36q-35 -24 -35 -58q0 -22 13 -35t34 -13q38 0 47 40l57 -17q-10 -38 -38 -60t-67 -22q-47 0 -77.5 28.5t-30.5 73.5q0 32 16.5 56t55.5 49zM138 390h360v-78h-360v-234h384v-78h-464v700h464v-78h-384v-232z" />
    <glyph glyph-name="eogonek" unicode="&#x119;" horiz-adv-x="596" 
d="M269 -21v24h59v-45l-57 -36q-35 -24 -35 -58q0 -22 13 -35t34 -13q38 0 47 40l57 -17q-10 -38 -38 -60t-67 -22q-47 0 -77.5 28.5t-30.5 73.5q0 32 16.5 56t55.5 49zM478 288q-6 70 -57 113t-123 43q-69 0 -118.5 -42.5t-58.5 -113.5h357zM121 215q9 -71 60 -114t121 -43
q54 0 98 25.5t66 70.5l74 -29q-33 -66 -96.5 -104.5t-140.5 -38.5q-112 0 -188.5 76.5t-76.5 192.5t75 192.5t184 76.5q110 0 186 -74.5t76 -187.5q0 -18 -5 -43h-433z" />
    <glyph glyph-name="Ecaron" unicode="&#x11a;" horiz-adv-x="561" 
d="M304 775l162 152l-46 47l-128 -123l-128 123l-46 -47l162 -152h24zM138 390h360v-78h-360v-234h384v-78h-464v700h464v-78h-384v-232z" />
    <glyph glyph-name="ecaron" unicode="&#x11b;" horiz-adv-x="596" 
d="M308 566l162 152l-46 47l-128 -123l-128 123l-46 -47l162 -152h24zM478 288q-6 70 -57 113t-123 43q-69 0 -118.5 -42.5t-58.5 -113.5h357zM121 215q9 -71 60 -114t121 -43q54 0 98 25.5t66 70.5l74 -29q-33 -66 -96.5 -104.5t-140.5 -38.5q-112 0 -188.5 76.5
t-76.5 192.5t75 192.5t184 76.5q110 0 186 -74.5t76 -187.5q0 -18 -5 -43h-433z" />
    <glyph glyph-name="Gcircumflex" unicode="&#x11c;" horiz-adv-x="788" 
d="M382 974l-162 -152l46 -47l128 123l128 -123l46 47l-162 152h-24zM118 351q0 -126 80 -207.5t196 -81.5q108 0 186 67.5t86 175.5h-298v75h381q1 -15 1 -43q0 -101 -48 -182.5t-129 -127t-179 -45.5q-73 0 -138.5 27.5t-113.5 75.5t-76 117.5t-28 148.5t28 148.5
t76 117.5t113.5 75.5t138.5 27.5q104 0 189.5 -56t129.5 -152l-72 -35q-34 76 -100.5 119.5t-146.5 43.5q-116 0 -196 -81.5t-80 -207.5z" />
    <glyph glyph-name="gcircumflex" unicode="&#x11d;" horiz-adv-x="598" 
d="M276 765l-162 -152l46 -47l128 123l128 -123l46 47l-162 152h-24zM501 270q0 -107 -65.5 -177.5t-161.5 -70.5q-99 0 -167.5 70.5t-68.5 177t68.5 177.5t167.5 71q96 0 161.5 -70.5t65.5 -177.5zM460 269q0 74 -49.5 121.5t-121.5 47.5t-121.5 -47.5t-49.5 -121.5
t49.5 -121.5t121.5 -47.5t121.5 47.5t49.5 121.5zM460 -10v510h80v-510q0 -97 -70.5 -158t-176.5 -61q-81 0 -146.5 42t-97.5 115l70 39q23 -53 69 -84t103 -31q72 0 120.5 39t48.5 99z" />
    <glyph glyph-name="Gbreve" unicode="&#x11e;" horiz-adv-x="788" 
d="M393 785q-69 0 -117 45.5t-48 109.5h67q0 -40 28 -66t71 -26q44 0 74.5 27t30.5 65h67q0 -62 -51.5 -108.5t-121.5 -46.5zM118 351q0 -126 80 -207.5t196 -81.5q108 0 186 67.5t86 175.5h-298v75h381q1 -15 1 -43q0 -101 -48 -182.5t-129 -127t-179 -45.5
q-73 0 -138.5 27.5t-113.5 75.5t-76 117.5t-28 148.5t28 148.5t76 117.5t113.5 75.5t138.5 27.5q104 0 189.5 -56t129.5 -152l-72 -35q-34 76 -100.5 119.5t-146.5 43.5q-116 0 -196 -81.5t-80 -207.5z" />
    <glyph glyph-name="gbreve" unicode="&#x11f;" horiz-adv-x="598" 
d="M287 576q-69 0 -117 45.5t-48 109.5h67q0 -40 28 -66t71 -26q44 0 74.5 27t30.5 65h67q0 -62 -51.5 -108.5t-121.5 -46.5zM501 270q0 -107 -65.5 -177.5t-161.5 -70.5q-99 0 -167.5 70.5t-68.5 177t68.5 177.5t167.5 71q96 0 161.5 -70.5t65.5 -177.5zM460 269
q0 74 -49.5 121.5t-121.5 47.5t-121.5 -47.5t-49.5 -121.5t49.5 -121.5t121.5 -47.5t121.5 47.5t49.5 121.5zM460 -10v510h80v-510q0 -97 -70.5 -158t-176.5 -61q-81 0 -146.5 42t-97.5 115l70 39q23 -53 69 -84t103 -31q72 0 120.5 39t48.5 99z" />
    <glyph glyph-name="Gdotaccent" unicode="&#x120;" horiz-adv-x="788" 
d="M340 831q0 23 15.5 38.5t38.5 15.5t38.5 -15.5t15.5 -38.5t-15.5 -38.5t-38.5 -15.5t-38.5 15.5t-15.5 38.5zM118 351q0 -126 80 -207.5t196 -81.5q108 0 186 67.5t86 175.5h-298v75h381q1 -15 1 -43q0 -101 -48 -182.5t-129 -127t-179 -45.5q-73 0 -138.5 27.5
t-113.5 75.5t-76 117.5t-28 148.5t28 148.5t76 117.5t113.5 75.5t138.5 27.5q104 0 189.5 -56t129.5 -152l-72 -35q-34 76 -100.5 119.5t-146.5 43.5q-116 0 -196 -81.5t-80 -207.5z" />
    <glyph glyph-name="gdotaccent" unicode="&#x121;" horiz-adv-x="598" 
d="M234 622q0 23 15.5 38.5t38.5 15.5t38.5 -15.5t15.5 -38.5t-15.5 -38.5t-38.5 -15.5t-38.5 15.5t-15.5 38.5zM501 270q0 -107 -65.5 -177.5t-161.5 -70.5q-99 0 -167.5 70.5t-68.5 177t68.5 177.5t167.5 71q96 0 161.5 -70.5t65.5 -177.5zM460 269q0 74 -49.5 121.5
t-121.5 47.5t-121.5 -47.5t-49.5 -121.5t49.5 -121.5t121.5 -47.5t121.5 47.5t49.5 121.5zM460 -10v510h80v-510q0 -97 -70.5 -158t-176.5 -61q-81 0 -146.5 42t-97.5 115l70 39q23 -53 69 -84t103 -31q72 0 120.5 39t48.5 99z" />
    <glyph glyph-name="uni0122" unicode="&#x122;" horiz-adv-x="788" 
d="M430 -213q0 -23 -16 -41t-41 -18t-42.5 17t-17.5 41q0 22 12 38l90 129l37 -28l-59 -83q17 -7 27 -22t10 -33zM118 351q0 -126 80 -207.5t196 -81.5q108 0 186 67.5t86 175.5h-298v75h381q1 -15 1 -43q0 -101 -48 -182.5t-129 -127t-179 -45.5q-73 0 -138.5 27.5
t-113.5 75.5t-76 117.5t-28 148.5t28 148.5t76 117.5t113.5 75.5t138.5 27.5q104 0 189.5 -56t129.5 -152l-72 -35q-34 76 -100.5 119.5t-146.5 43.5q-116 0 -196 -81.5t-80 -207.5z" />
    <glyph glyph-name="uni0123" unicode="&#x123;" horiz-adv-x="598" 
d="M345 627q0 -24 -16.5 -41.5t-41.5 -17.5t-42.5 16.5t-17.5 41.5q0 22 12 38l90 128l37 -27l-59 -83q18 -7 28 -22t10 -33zM501 270q0 -107 -65.5 -177.5t-161.5 -70.5q-99 0 -167.5 70.5t-68.5 177t68.5 177.5t167.5 71q96 0 161.5 -70.5t65.5 -177.5zM460 269
q0 74 -49.5 121.5t-121.5 47.5t-121.5 -47.5t-49.5 -121.5t49.5 -121.5t121.5 -47.5t121.5 47.5t49.5 121.5zM460 -10v510h80v-510q0 -97 -70.5 -158t-176.5 -61q-81 0 -146.5 42t-97.5 115l70 39q23 -53 69 -84t103 -31q72 0 120.5 39t48.5 99z" />
    <glyph glyph-name="Hcircumflex" unicode="&#x124;" horiz-adv-x="685" 
d="M332 974l-162 -152l46 -47l128 123l128 -123l46 47l-162 152h-24zM58 0v700h80v-310h410v310h80v-700h-80v312h-410v-312h-80z" />
    <glyph glyph-name="hcircumflex" unicode="&#x125;" horiz-adv-x="543" 
d="M84 997l-162 -152l46 -47l128 123l128 -123l46 47l-162 152h-24zM58 0v750h80v-750h-80zM406 0v296q0 64 -35.5 101t-92.5 37q-58 0 -99 -40.5t-41 -97.5h-44q0 88 60 151.5t146 63.5q79 0 132.5 -55t53.5 -143v-313h-80z" />
    <glyph glyph-name="Hbar" unicode="&#x126;" horiz-adv-x="685" 
d="M685 568v-72h-57v-496h-80v310h-410v-310h-80v496h-58v72h58v132h80v-132h410v132h80v-132h57zM138 496v-108h410v108h-410z" />
    <glyph glyph-name="hbar" unicode="&#x127;" horiz-adv-x="545" 
d="M60 0v598h-60v72h60v80h80v-80h252v-72h-252v-598h-80zM408 0v296q0 64 -35.5 101t-91.5 37q-58 0 -99.5 -40.5t-41.5 -97.5h-43q0 88 59.5 151.5t146.5 63.5q79 0 132 -55t53 -143v-313h-80z" />
    <glyph glyph-name="Itilde" unicode="&#x128;" horiz-adv-x="195" 
d="M23 921q-40 0 -68 -32t-39 -88l59 -18q6 35 19 54.5t31 19.5q13 0 24.5 -7t30.5 -28q26 -25 47 -35t46 -10q40 0 68.5 32t38.5 88l-59 18q-14 -71 -55 -71q-14 0 -25.5 7t-29.5 27q-25 24 -44.5 33.5t-43.5 9.5zM138 0h-80v700h80v-700z" />
    <glyph glyph-name="itilde" unicode="&#x129;" horiz-adv-x="195" 
d="M23 712q-40 0 -68 -32t-39 -88l59 -18q6 35 19 54.5t31 19.5q13 0 24.5 -7t30.5 -28q26 -25 47 -35t46 -10q40 0 68.5 32t38.5 88l-59 18q-14 -71 -55 -71q-14 0 -25.5 7t-29.5 27q-25 24 -44.5 33.5t-43.5 9.5zM58 0v500h80v-500h-80z" />
    <glyph glyph-name="Imacron" unicode="&#x12a;" horiz-adv-x="195" 
d="M256 854v-67h-308v67h308zM138 0h-80v700h80v-700z" />
    <glyph glyph-name="imacron" unicode="&#x12b;" horiz-adv-x="195" 
d="M256 645v-67h-308v67h308zM58 0v500h80v-500h-80z" />
    <glyph glyph-name="Ibreve" unicode="&#x12c;" horiz-adv-x="195" 
d="M97 785q-69 0 -117 45.5t-48 109.5h67q0 -40 28 -66t71 -26q44 0 74.5 27t30.5 65h67q0 -62 -51.5 -108.5t-121.5 -46.5zM138 0h-80v700h80v-700z" />
    <glyph glyph-name="ibreve" unicode="&#x12d;" horiz-adv-x="195" 
d="M97 576q-69 0 -117 45.5t-48 109.5h67q0 -40 28 -66t71 -26q44 0 74.5 27t30.5 65h67q0 -62 -51.5 -108.5t-121.5 -46.5zM58 0v500h80v-500h-80z" />
    <glyph glyph-name="Iogonek" unicode="&#x12e;" horiz-adv-x="195" 
d="M67 -21v24h59v-45l-57 -36q-35 -24 -35 -58q0 -22 13 -35t34 -13q38 0 47 40l57 -17q-10 -38 -38 -60t-67 -22q-47 0 -77.5 28.5t-30.5 73.5q0 32 16.5 56t55.5 49zM138 0h-80v700h80v-700z" />
    <glyph glyph-name="iogonek" unicode="&#x12f;" horiz-adv-x="193" 
d="M67 -21v24h59v-45l-57 -36q-35 -24 -35 -58q0 -22 13 -35t34 -13q38 0 47 40l57 -17q-10 -38 -38 -60t-67 -22q-47 0 -77.5 28.5t-30.5 73.5q0 32 16.5 56t55.5 49zM42 636q0 23 16 38.5t38.5 15.5t38 -15.5t15.5 -38.5t-15.5 -38.5t-38 -15.5t-38.5 15.5t-16 38.5zM56 0
v500h80v-500h-80z" />
    <glyph glyph-name="Idotaccent" unicode="&#x130;" horiz-adv-x="195" 
d="M43 831q0 23 15.5 38.5t38.5 15.5t38.5 -15.5t15.5 -38.5t-15.5 -38.5t-38.5 -15.5t-38.5 15.5t-15.5 38.5zM138 0h-80v700h80v-700z" />
    <glyph glyph-name="dotlessi" unicode="&#x131;" horiz-adv-x="195" 
d="M58 0v500h80v-500h-80z" />
    <glyph glyph-name="IJ" unicode="&#x132;" horiz-adv-x="793" 
d="M233 165l73 29q20 -61 64 -93t109 -32q78 0 127.5 48.5t49.5 134.5v448h80v-458q0 -110 -74 -181.5t-183 -71.5q-91 0 -155.5 46.5t-90.5 129.5zM138 0h-80v700h80v-700z" />
    <glyph glyph-name="ij" unicode="&#x133;" horiz-adv-x="386" 
d="M235 636q0 23 16 38.5t38.5 15.5t38 -15.5t15.5 -38.5t-15.5 -38.5t-38 -15.5t-38.5 15.5t-16 38.5zM174 -107q36 0 55.5 24.5t19.5 62.5v520h80v-544q0 -57 -39 -99t-101 -42h-36v78h21zM42 636q0 23 16 38.5t38.5 15.5t38 -15.5t15.5 -38.5t-15.5 -38.5t-38 -15.5
t-38.5 15.5t-16 38.5zM56 0v500h80v-500h-80z" />
    <glyph glyph-name="Jcircumflex" unicode="&#x134;" horiz-adv-x="598" 
d="M486 974l-162 -152l46 -47l128 123l128 -123l46 47l-162 152h-24zM38 165l73 29q20 -61 64 -93t109 -32q78 0 127.5 48.5t49.5 134.5v448h80v-458q0 -110 -74 -181.5t-183 -71.5q-91 0 -155.5 46.5t-90.5 129.5z" />
    <glyph glyph-name="jcircumflex" unicode="&#x135;" horiz-adv-x="193" 
d="M84 765l-162 -152l46 -47l128 123l128 -123l46 47l-162 152h-24zM-19 -107q36 0 55.5 24.5t19.5 62.5v520h80v-544q0 -57 -39 -99t-101 -42h-36v78h21z" />
    <glyph glyph-name="uni0136" unicode="&#x136;" horiz-adv-x="613" 
d="M340 -213q0 -23 -16 -41t-41 -18t-42.5 17t-17.5 41q0 22 12 38l90 129l37 -28l-59 -83q17 -7 27 -22t10 -33zM58 0v700h80v-312h34l304 312h107l-340 -352l340 -348h-107l-304 306h-34v-306h-80z" />
    <glyph glyph-name="uni0137" unicode="&#x137;" horiz-adv-x="501" 
d="M294 -213q0 -23 -16 -41t-41 -18t-42.5 17t-17.5 41q0 22 12 38l90 129l37 -28l-59 -83q17 -7 27 -22t10 -33zM58 0v750h80v-460h26l204 210h104l-238 -250l238 -250h-104l-204 207h-26v-207h-80z" />
    <glyph glyph-name="kgreenlandic" unicode="&#x138;" horiz-adv-x="501" 
d="M58 0v500h80v-210h26l204 210h104l-238 -250l238 -250h-104l-204 207h-26v-207h-80z" />
    <glyph glyph-name="Lacute" unicode="&#x139;" horiz-adv-x="551" 
d="M232 934l-55 55l-159 -164l46 -48zM138 78h384v-78h-464v700h80v-622z" />
    <glyph glyph-name="lacute" unicode="&#x13a;" horiz-adv-x="195" 
d="M232 957l-55 55l-159 -164l46 -48zM58 0v750h80v-750h-80z" />
    <glyph glyph-name="uni013B" unicode="&#x13b;" horiz-adv-x="551" 
d="M332 -213q0 -23 -16 -41t-41 -18t-42.5 17t-17.5 41q0 22 12 38l90 129l37 -28l-59 -83q17 -7 27 -22t10 -33zM138 78h384v-78h-464v700h80v-622z" />
    <glyph glyph-name="uni013C" unicode="&#x13c;" horiz-adv-x="195" 
d="M134 -213q0 -23 -16 -41t-41 -18t-42.5 17t-17.5 41q0 22 12 38l90 129l37 -28l-59 -83q17 -7 27 -22t10 -33zM58 0v750h80v-750h-80z" />
    <glyph glyph-name="Lcaron" unicode="&#x13d;" horiz-adv-x="551" 
d="M327 728l75 -20l-59 -228l-70 18zM138 78h384v-78h-464v700h80v-622z" />
    <glyph glyph-name="lcaron" unicode="&#x13e;" horiz-adv-x="321" 
d="M239 806l75 -20l-59 -228l-70 18zM58 0v750h80v-750h-80z" />
    <glyph glyph-name="Ldot" unicode="&#x13f;" horiz-adv-x="551" 
d="M264 360q0 24 16 40.5t40 16.5t40.5 -16.5t16.5 -40.5t-16 -40.5t-40.5 -16.5t-40.5 16.5t-16 40.5zM138 78h384v-78h-464v700h80v-622z" />
    <glyph glyph-name="ldot" unicode="&#x140;" horiz-adv-x="392" 
d="M237 363q0 24 16 40.5t40 16.5t40.5 -16.5t16.5 -40.5t-16 -40.5t-40.5 -16.5t-40.5 16.5t-16 40.5zM58 0v750h80v-750h-80z" />
    <glyph glyph-name="Lslash" unicode="&#x141;" horiz-adv-x="558" 
d="M308 427l14 -71l-303 -60l-13 70zM145 78h385v-78h-465v700h80v-622z" />
    <glyph glyph-name="lslash" unicode="&#x142;" horiz-adv-x="231" 
d="M210 438l14 -70l-202 -38l-14 72zM75 0v750h80v-750h-80z" />
    <glyph glyph-name="Nacute" unicode="&#x143;" horiz-adv-x="685" 
d="M482 934l-55 55l-159 -164l46 -48zM58 0v700h95l395 -577v577h80v-700h-96l-394 584v-584h-80z" />
    <glyph glyph-name="nacute" unicode="&#x144;" horiz-adv-x="543" 
d="M406 725l-55 55l-159 -164l46 -48zM58 0v500h80v-500h-80zM406 0v296q0 64 -35.5 101t-92.5 37q-58 0 -99 -40.5t-41 -97.5h-44q0 88 60 151.5t146 63.5q79 0 132.5 -55t53.5 -143v-313h-80z" />
    <glyph glyph-name="uni0145" unicode="&#x145;" horiz-adv-x="685" 
d="M392 -213q0 -23 -16 -41t-41 -18t-42.5 17t-17.5 41q0 22 12 38l90 129l37 -28l-59 -83q17 -7 27 -22t10 -33zM58 0v700h95l395 -577v577h80v-700h-96l-394 584v-584h-80z" />
    <glyph glyph-name="uni0146" unicode="&#x146;" horiz-adv-x="543" 
d="M318 -213q0 -23 -16 -41t-41 -18t-42.5 17t-17.5 41q0 22 12 38l90 129l37 -28l-59 -83q17 -7 27 -22t10 -33zM58 0v500h80v-500h-80zM406 0v296q0 64 -35.5 101t-92.5 37q-58 0 -99 -40.5t-41 -97.5h-44q0 88 60 151.5t146 63.5q79 0 132.5 -55t53.5 -143v-313h-80z" />
    <glyph glyph-name="Ncaron" unicode="&#x147;" horiz-adv-x="685" 
d="M360 775l162 152l-46 47l-128 -123l-128 123l-46 -47l162 -152h24zM58 0v700h95l395 -577v577h80v-700h-96l-394 584v-584h-80z" />
    <glyph glyph-name="ncaron" unicode="&#x148;" horiz-adv-x="543" 
d="M282 566l162 152l-46 47l-128 -123l-128 123l-46 -47l162 -152h24zM58 0v500h80v-500h-80zM406 0v296q0 64 -35.5 101t-92.5 37q-58 0 -99 -40.5t-41 -97.5h-44q0 88 60 151.5t146 63.5q79 0 132.5 -55t53.5 -143v-313h-80z" />
    <glyph glyph-name="napostrophe" unicode="&#x149;" horiz-adv-x="703" 
d="M218 0v500h80v-500h-80zM566 0v296q0 64 -35.5 101t-92.5 37q-58 0 -99 -40.5t-41 -97.5h-44q0 88 60 151.5t146 63.5q79 0 132.5 -55t53.5 -143v-313h-80zM85 758l75 -21l-59 -229l-70 19z" />
    <glyph glyph-name="Eng" unicode="&#x14a;" horiz-adv-x="653" 
d="M58 0v700h80v-700h-80zM390 -84q61 0 93.5 38t32.5 96v388q0 90 -50.5 141.5t-129.5 51.5q-82 0 -140 -56.5t-58 -136.5h-44q0 110 76.5 191.5t187.5 81.5q100 0 169 -73t69 -185v-417q0 -81 -54.5 -139.5t-141.5 -58.5h-76v78h66z" />
    <glyph glyph-name="eng" unicode="&#x14b;" horiz-adv-x="543" 
d="M58 0v500h80v-500h-80zM406 8v288q0 64 -35.5 101t-92.5 37q-58 0 -99 -40.5t-41 -97.5h-44q0 87 60 151t146 64q79 0 132.5 -55.5t53.5 -139.5v-325q0 -64 -43.5 -108.5t-110.5 -44.5h-74v75h62q41 0 63.5 26.5t22.5 68.5z" />
    <glyph glyph-name="Omacron" unicode="&#x14c;" horiz-adv-x="788" 
d="M552 854v-67h-308v67h308zM118 353q0 -128 80 -209.5t196 -81.5t196 81.5t80 209.5q0 125 -80 206t-196 81t-196 -81t-80 -206zM38 353q0 79 28 148t76 116.5t113.5 75t138.5 27.5t138.5 -27.5t113.5 -75t76 -116.5t28 -148q0 -80 -28 -149.5t-76 -118t-113.5 -76
t-138.5 -27.5t-138.5 27.5t-113.5 76t-76 118t-28 149.5z" />
    <glyph glyph-name="omacron" unicode="&#x14d;" horiz-adv-x="618" 
d="M466 645v-67h-308v67h308zM118 251q0 -84 55.5 -137.5t135.5 -53.5t135.5 53.5t55.5 137.5t-55.5 137.5t-135.5 53.5t-135.5 -53.5t-55.5 -137.5zM38 251q0 117 78.5 193t192.5 76t192.5 -76t78.5 -193t-78.5 -193t-192.5 -76t-192.5 76t-78.5 193z" />
    <glyph glyph-name="Obreve" unicode="&#x14e;" horiz-adv-x="788" 
d="M393 785q-69 0 -117 45.5t-48 109.5h67q0 -40 28 -66t71 -26q44 0 74.5 27t30.5 65h67q0 -62 -51.5 -108.5t-121.5 -46.5zM118 353q0 -128 80 -209.5t196 -81.5t196 81.5t80 209.5q0 125 -80 206t-196 81t-196 -81t-80 -206zM38 353q0 79 28 148t76 116.5t113.5 75
t138.5 27.5t138.5 -27.5t113.5 -75t76 -116.5t28 -148q0 -80 -28 -149.5t-76 -118t-113.5 -76t-138.5 -27.5t-138.5 27.5t-113.5 76t-76 118t-28 149.5z" />
    <glyph glyph-name="obreve" unicode="&#x14f;" horiz-adv-x="618" 
d="M307 576q-69 0 -117 45.5t-48 109.5h67q0 -40 28 -66t71 -26q44 0 74.5 27t30.5 65h67q0 -62 -51.5 -108.5t-121.5 -46.5zM118 251q0 -84 55.5 -137.5t135.5 -53.5t135.5 53.5t55.5 137.5t-55.5 137.5t-135.5 53.5t-135.5 -53.5t-55.5 -137.5zM38 251q0 117 78.5 193
t192.5 76t192.5 -76t78.5 -193t-78.5 -193t-192.5 -76t-192.5 76t-78.5 193z" />
    <glyph glyph-name="Ohungarumlaut" unicode="&#x150;" horiz-adv-x="788" 
d="M598 929l-45 52l-164 -161l38 -43zM413 929l-46 52l-164 -161l38 -43zM118 353q0 -128 80 -209.5t196 -81.5t196 81.5t80 209.5q0 125 -80 206t-196 81t-196 -81t-80 -206zM38 353q0 79 28 148t76 116.5t113.5 75t138.5 27.5t138.5 -27.5t113.5 -75t76 -116.5t28 -148
q0 -80 -28 -149.5t-76 -118t-113.5 -76t-138.5 -27.5t-138.5 27.5t-113.5 76t-76 118t-28 149.5z" />
    <glyph glyph-name="ohungarumlaut" unicode="&#x151;" horiz-adv-x="618" 
d="M512 720l-45 52l-164 -161l38 -43zM327 720l-46 52l-164 -161l38 -43zM118 251q0 -84 55.5 -137.5t135.5 -53.5t135.5 53.5t55.5 137.5t-55.5 137.5t-135.5 53.5t-135.5 -53.5t-55.5 -137.5zM38 251q0 117 78.5 193t192.5 76t192.5 -76t78.5 -193t-78.5 -193t-192.5 -76
t-192.5 76t-78.5 193z" />
    <glyph glyph-name="OE" unicode="&#x152;" horiz-adv-x="1183" 
d="M750 390h372v-78h-372v-234h396v-78h-476v700h476v-78h-396v-232zM118 352q0 -124 79 -207t197 -83t197 83t79 207t-78.5 206t-197.5 82t-197.5 -82t-78.5 -206zM38 352q0 103 45.5 187.5t125.5 132.5t178 48q147 0 245 -105t98 -263q0 -104 -44.5 -189t-123.5 -133
t-175 -48q-98 0 -178 48.5t-126 133.5t-45 188z" />
    <glyph glyph-name="oe" unicode="&#x153;" horiz-adv-x="1065" 
d="M946 288q-6 70 -57.5 113t-124.5 43q-69 0 -119.5 -43t-60.5 -113h362zM584 215q10 -70 61.5 -113.5t123.5 -43.5q54 0 98.5 25.5t66.5 70.5l74 -29q-32 -66 -96 -104.5t-140 -38.5q-110 0 -185.5 76.5t-75.5 192.5q0 117 74 193t181 76q110 0 186 -75t76 -189
q0 -17 -4 -41h-440zM118 251q0 -84 55 -137.5t136 -53.5t136 53.5t55 137.5t-55 137.5t-136 53.5t-136 -53.5t-55 -137.5zM38 251q0 116 77.5 192.5t189.5 76.5q109 0 183.5 -76.5t74.5 -192.5t-74.5 -192.5t-183.5 -76.5q-112 0 -189.5 76.5t-77.5 192.5z" />
    <glyph glyph-name="Racute" unicode="&#x154;" horiz-adv-x="633" 
d="M445 934l-55 55l-159 -164l46 -48zM356 622h-218v-282h218q67 0 112 41t45 102q0 60 -44.5 99.5t-112.5 39.5zM384 268l212 -268h-97l-208 262h-153v-262h-80v700h308q99 0 164.5 -61.5t65.5 -156.5q0 -88 -61 -149t-151 -65z" />
    <glyph glyph-name="racute" unicode="&#x155;" horiz-adv-x="340" 
d="M338 725l-55 55l-159 -164l46 -48zM58 0v500h80v-500h-80zM296 428q-66 0 -112.5 -39t-46.5 -93h-43q0 83 57 147.5t137 64.5h28v-80h-20z" />
    <glyph glyph-name="uni0156" unicode="&#x156;" horiz-adv-x="633" 
d="M350 -213q0 -23 -16 -41t-41 -18t-42.5 17t-17.5 41q0 22 12 38l90 129l37 -28l-59 -83q17 -7 27 -22t10 -33zM356 622h-218v-282h218q67 0 112 41t45 102q0 60 -44.5 99.5t-112.5 39.5zM384 268l212 -268h-97l-208 262h-153v-262h-80v700h308q99 0 164.5 -61.5
t65.5 -156.5q0 -88 -61 -149t-151 -65z" />
    <glyph glyph-name="uni0157" unicode="&#x157;" horiz-adv-x="340" 
d="M134 -213q0 -23 -16 -41t-41 -18t-42.5 17t-17.5 41q0 22 12 38l90 129l37 -28l-59 -83q17 -7 27 -22t10 -33zM58 0v500h80v-500h-80zM296 428q-66 0 -112.5 -39t-46.5 -93h-43q0 83 57 147.5t137 64.5h28v-80h-20z" />
    <glyph glyph-name="Rcaron" unicode="&#x158;" horiz-adv-x="633" 
d="M322 775l162 152l-46 47l-128 -123l-128 123l-46 -47l162 -152h24zM356 622h-218v-282h218q67 0 112 41t45 102q0 60 -44.5 99.5t-112.5 39.5zM384 268l212 -268h-97l-208 262h-153v-262h-80v700h308q99 0 164.5 -61.5t65.5 -156.5q0 -88 -61 -149t-151 -65z" />
    <glyph glyph-name="rcaron" unicode="&#x159;" horiz-adv-x="340" 
d="M215 566l162 152l-46 47l-128 -123l-128 123l-46 -47l162 -152h24zM58 0v500h80v-500h-80zM296 428q-66 0 -112.5 -39t-46.5 -93h-43q0 83 57 147.5t137 64.5h28v-80h-20z" />
    <glyph glyph-name="Sacute" unicode="&#x15a;" horiz-adv-x="579" 
d="M408 934l-55 55l-159 -164l46 -48zM288 311q-241 49 -241 206q-1 85 63.5 140.5t164.5 55.5q86 0 156.5 -47t100.5 -126l-73 -30q-24 58 -73 91.5t-109 33.5q-65 0 -107 -32.5t-42 -83.5q0 -47 41 -77t132 -49q118 -24 179.5 -77.5t61.5 -130.5q0 -84 -67.5 -140
t-170.5 -56q-89 0 -162 48t-104 129l75 36q25 -63 75 -99t114 -36q67 0 112 34t45 86q0 46 -41.5 76t-129.5 48z" />
    <glyph glyph-name="sacute" unicode="&#x15b;" horiz-adv-x="479" 
d="M380 725l-55 55l-159 -164l46 -48zM236 216q-186 32 -186 147q0 65 50 107.5t125 42.5q69 0 124.5 -38t79.5 -102l-76 -27q-17 44 -50.5 69t-75.5 25t-69.5 -21t-27.5 -52q0 -29 27.5 -47t88.5 -29q196 -34 196 -154q0 -63 -54.5 -105.5t-132.5 -42.5q-73 0 -132.5 36
t-84.5 97l73 31q19 -43 56.5 -68t85.5 -25q47 0 78 21.5t31 54.5q0 58 -126 80z" />
    <glyph glyph-name="Scircumflex" unicode="&#x15c;" horiz-adv-x="579" 
d="M262 974l-162 -152l46 -47l128 123l128 -123l46 47l-162 152h-24zM288 311q-241 49 -241 206q-1 85 63.5 140.5t164.5 55.5q86 0 156.5 -47t100.5 -126l-73 -30q-24 58 -73 91.5t-109 33.5q-65 0 -107 -32.5t-42 -83.5q0 -47 41 -77t132 -49q118 -24 179.5 -77.5
t61.5 -130.5q0 -84 -67.5 -140t-170.5 -56q-89 0 -162 48t-104 129l75 36q25 -63 75 -99t114 -36q67 0 112 34t45 86q0 46 -41.5 76t-129.5 48z" />
    <glyph glyph-name="scircumflex" unicode="&#x15d;" horiz-adv-x="479" 
d="M232 765l-162 -152l46 -47l128 123l128 -123l46 47l-162 152h-24zM236 216q-186 32 -186 147q0 65 50 107.5t125 42.5q69 0 124.5 -38t79.5 -102l-76 -27q-17 44 -50.5 69t-75.5 25t-69.5 -21t-27.5 -52q0 -29 27.5 -47t88.5 -29q196 -34 196 -154q0 -63 -54.5 -105.5
t-132.5 -42.5q-73 0 -132.5 36t-84.5 97l73 31q19 -43 56.5 -68t85.5 -25q47 0 78 21.5t31 54.5q0 58 -126 80z" />
    <glyph glyph-name="Scedilla" unicode="&#x15e;" horiz-adv-x="579" 
d="M331 -69q21 22 50 22q33 0 56 -29t23 -70q0 -47 -30.5 -76.5t-79.5 -29.5q-39 0 -68.5 20t-40.5 55l61 23q8 -36 46 -36q22 0 34.5 13t12.5 33q0 17 -9 28.5t-23 11.5q-19 0 -32 -18l-63 25v118h63v-90zM288 311q-241 49 -241 206q-1 85 63.5 140.5t164.5 55.5
q86 0 156.5 -47t100.5 -126l-73 -30q-24 58 -73 91.5t-109 33.5q-65 0 -107 -32.5t-42 -83.5q0 -47 41 -77t132 -49q118 -24 179.5 -77.5t61.5 -130.5q0 -84 -67.5 -140t-170.5 -56q-89 0 -162 48t-104 129l75 36q25 -63 75 -99t114 -36q67 0 112 34t45 86q0 46 -41.5 76
t-129.5 48z" />
    <glyph glyph-name="scedilla" unicode="&#x15f;" horiz-adv-x="479" 
d="M281 -69q21 22 50 22q33 0 56 -29t23 -70q0 -47 -30.5 -76.5t-79.5 -29.5q-39 0 -68.5 20t-40.5 55l61 23q8 -36 46 -36q22 0 34.5 13t12.5 33q0 17 -9 28.5t-23 11.5q-19 0 -32 -18l-63 25v118h63v-90zM236 216q-186 32 -186 147q0 65 50 107.5t125 42.5q69 0 124.5 -38
t79.5 -102l-76 -27q-17 44 -50.5 69t-75.5 25t-69.5 -21t-27.5 -52q0 -29 27.5 -47t88.5 -29q196 -34 196 -154q0 -63 -54.5 -105.5t-132.5 -42.5q-73 0 -132.5 36t-84.5 97l73 31q19 -43 56.5 -68t85.5 -25q47 0 78 21.5t31 54.5q0 58 -126 80z" />
    <glyph glyph-name="Scaron" unicode="&#x160;" horiz-adv-x="579" 
d="M286 775l162 152l-46 47l-128 -123l-128 123l-46 -47l162 -152h24zM288 311q-241 49 -241 206q-1 85 63.5 140.5t164.5 55.5q86 0 156.5 -47t100.5 -126l-73 -30q-24 58 -73 91.5t-109 33.5q-65 0 -107 -32.5t-42 -83.5q0 -47 41 -77t132 -49q118 -24 179.5 -77.5
t61.5 -130.5q0 -84 -67.5 -140t-170.5 -56q-89 0 -162 48t-104 129l75 36q25 -63 75 -99t114 -36q67 0 112 34t45 86q0 46 -41.5 76t-129.5 48z" />
    <glyph glyph-name="scaron" unicode="&#x161;" horiz-adv-x="479" 
d="M256 566l162 152l-46 47l-128 -123l-128 123l-46 -47l162 -152h24zM236 216q-186 32 -186 147q0 65 50 107.5t125 42.5q69 0 124.5 -38t79.5 -102l-76 -27q-17 44 -50.5 69t-75.5 25t-69.5 -21t-27.5 -52q0 -29 27.5 -47t88.5 -29q196 -34 196 -154q0 -63 -54.5 -105.5
t-132.5 -42.5q-73 0 -132.5 36t-84.5 97l73 31q19 -43 56.5 -68t85.5 -25q47 0 78 21.5t31 54.5q0 58 -126 80z" />
    <glyph glyph-name="uni0162" unicode="&#x162;" horiz-adv-x="596" 
d="M324 -69q21 22 50 22q33 0 56 -29t23 -70q0 -47 -30.5 -76.5t-79.5 -29.5q-39 0 -68.5 20t-40.5 55l61 23q8 -36 46 -36q22 0 34.5 13t12.5 33q0 17 -9 28.5t-23 11.5q-19 0 -32 -18l-63 25v118h63v-90zM568 700v-78h-230v-622h-80v622h-230v78h540z" />
    <glyph glyph-name="uni0163" unicode="&#x163;" horiz-adv-x="382" 
d="M281 -69q21 22 50 22q33 0 56 -29t23 -70q0 -47 -30.5 -76.5t-79.5 -29.5q-39 0 -68.5 20t-40.5 55l61 23q8 -36 46 -36q22 0 34.5 13t12.5 33q0 17 -9 28.5t-23 11.5q-19 0 -32 -18l-63 25v118h63v-90zM289 76h64v-76h-75q-73 0 -115 37t-42 100v289h-92v74h92v146
l80 16v-162h152v-74h-152v-271q0 -79 88 -79z" />
    <glyph glyph-name="Tcaron" unicode="&#x164;" horiz-adv-x="596" 
d="M310 778l162 152l-46 47l-128 -123l-128 123l-46 -47l162 -152h24zM568 700v-78h-230v-622h-80v622h-230v78h540z" />
    <glyph glyph-name="tcaron" unicode="&#x165;" horiz-adv-x="382" 
d="M329 806l75 -20l-59 -228l-70 18zM289 76h64v-76h-75q-73 0 -115 37t-42 100v289h-92v74h92v146l80 16v-162h152v-74h-152v-271q0 -79 88 -79z" />
    <glyph glyph-name="Tbar" unicode="&#x166;" horiz-adv-x="596" 
d="M474 380v-77h-359v77h359zM568 700v-78h-230v-622h-80v622h-230v78h540z" />
    <glyph glyph-name="tbar" unicode="&#x167;" horiz-adv-x="382" 
d="M350 308v-68h-320v68h320zM289 76h64v-76h-75q-73 0 -115 36t-42 98v296h-92v70h92v146l80 16v-162h152v-70h-152v-280q0 -74 88 -74z" />
    <glyph glyph-name="Utilde" unicode="&#x168;" horiz-adv-x="690" 
d="M270 921q-40 0 -68 -32t-39 -88l59 -18q6 35 19 54.5t31 19.5q13 0 24.5 -7t30.5 -28q26 -25 47 -35t46 -10q40 0 68.5 32t38.5 88l-59 18q-14 -71 -55 -71q-14 0 -25.5 7t-29.5 27q-25 24 -44.5 33.5t-43.5 9.5zM345 -11q-122 0 -204.5 80t-82.5 203v428h80v-418
q0 -100 57.5 -156.5t149.5 -56.5t149.5 56.5t57.5 156.5v418h80v-428q0 -123 -82.5 -203t-204.5 -80z" />
    <glyph glyph-name="utilde" unicode="&#x169;" horiz-adv-x="523" 
d="M186 712q-40 0 -68 -32t-39 -88l59 -18q6 35 19 54.5t31 19.5q13 0 24.5 -7t30.5 -28q26 -25 47 -35t46 -10q40 0 68.5 32t38.5 88l-59 18q-14 -71 -55 -71q-14 0 -25.5 7t-29.5 27q-25 24 -44.5 33.5t-43.5 9.5zM466 500v-500h-80v500h80zM138 500v-313q0 -57 32.5 -89
t83.5 -32q55 0 93.5 35t38.5 83h42q0 -80 -56 -137.5t-140 -57.5q-74 0 -124 50t-50 131v330h80z" />
    <glyph glyph-name="Umacron" unicode="&#x16a;" horiz-adv-x="690" 
d="M503 854v-67h-308v67h308zM345 -11q-122 0 -204.5 80t-82.5 203v428h80v-418q0 -100 57.5 -156.5t149.5 -56.5t149.5 56.5t57.5 156.5v418h80v-428q0 -123 -82.5 -203t-204.5 -80z" />
    <glyph glyph-name="umacron" unicode="&#x16b;" horiz-adv-x="523" 
d="M419 645v-67h-308v67h308zM466 500v-500h-80v500h80zM138 500v-313q0 -57 32.5 -89t83.5 -32q55 0 93.5 35t38.5 83h42q0 -80 -56 -137.5t-140 -57.5q-74 0 -124 50t-50 131v330h80z" />
    <glyph glyph-name="Ubreve" unicode="&#x16c;" horiz-adv-x="690" 
d="M344 785q-69 0 -117 45.5t-48 109.5h67q0 -40 28 -66t71 -26q44 0 74.5 27t30.5 65h67q0 -62 -51.5 -108.5t-121.5 -46.5zM345 -11q-122 0 -204.5 80t-82.5 203v428h80v-418q0 -100 57.5 -156.5t149.5 -56.5t149.5 56.5t57.5 156.5v418h80v-428q0 -123 -82.5 -203
t-204.5 -80z" />
    <glyph glyph-name="ubreve" unicode="&#x16d;" horiz-adv-x="523" 
d="M260 576q-69 0 -117 45.5t-48 109.5h67q0 -40 28 -66t71 -26q44 0 74.5 27t30.5 65h67q0 -62 -51.5 -108.5t-121.5 -46.5zM466 500v-500h-80v500h80zM138 500v-313q0 -57 32.5 -89t83.5 -32q55 0 93.5 35t38.5 83h42q0 -80 -56 -137.5t-140 -57.5q-74 0 -124 50t-50 131
v330h80z" />
    <glyph glyph-name="Uring" unicode="&#x16e;" horiz-adv-x="690" 
d="M293 889.5q0 -22.5 15 -37t37 -14.5t37 14.5t15 37t-15 37t-37 14.5t-37 -14.5t-15 -37zM232 889.5q0 48.5 33 80.5t80 32t80 -32t33 -80.5t-33 -80.5t-80 -32t-80 32t-33 80.5zM345 -11q-122 0 -204.5 80t-82.5 203v428h80v-418q0 -100 57.5 -156.5t149.5 -56.5
t149.5 56.5t57.5 156.5v418h80v-428q0 -123 -82.5 -203t-204.5 -80z" />
    <glyph glyph-name="uring" unicode="&#x16f;" horiz-adv-x="523" 
d="M209 680.5q0 -22.5 15 -37t37 -14.5t37 14.5t15 37t-15 37t-37 14.5t-37 -14.5t-15 -37zM148 680.5q0 48.5 33 80.5t80 32t80 -32t33 -80.5t-33 -80.5t-80 -32t-80 32t-33 80.5zM466 500v-500h-80v500h80zM138 500v-313q0 -57 32.5 -89t83.5 -32q55 0 93.5 35t38.5 83h42
q0 -80 -56 -137.5t-140 -57.5q-74 0 -124 50t-50 131v330h80z" />
    <glyph glyph-name="Uhungarumlaut" unicode="&#x170;" horiz-adv-x="690" 
d="M549 929l-45 52l-164 -161l38 -43zM364 929l-46 52l-164 -161l38 -43zM345 -11q-122 0 -204.5 80t-82.5 203v428h80v-418q0 -100 57.5 -156.5t149.5 -56.5t149.5 56.5t57.5 156.5v418h80v-428q0 -123 -82.5 -203t-204.5 -80z" />
    <glyph glyph-name="uhungarumlaut" unicode="&#x171;" horiz-adv-x="523" 
d="M465 720l-45 52l-164 -161l38 -43zM280 720l-46 52l-164 -161l38 -43zM466 500v-500h-80v500h80zM138 500v-313q0 -57 32.5 -89t83.5 -32q55 0 93.5 35t38.5 83h42q0 -80 -56 -137.5t-140 -57.5q-74 0 -124 50t-50 131v330h80z" />
    <glyph glyph-name="Uogonek" unicode="&#x172;" horiz-adv-x="690" 
d="M314 -21v24h59v-45l-57 -36q-35 -24 -35 -58q0 -22 13 -35t34 -13q38 0 47 40l57 -17q-10 -38 -38 -60t-67 -22q-47 0 -77.5 28.5t-30.5 73.5q0 32 16.5 56t55.5 49zM345 -11q-122 0 -204.5 80t-82.5 203v428h80v-418q0 -100 57.5 -156.5t149.5 -56.5t149.5 56.5
t57.5 156.5v418h80v-428q0 -123 -82.5 -203t-204.5 -80z" />
    <glyph glyph-name="uogonek" unicode="&#x173;" horiz-adv-x="523" 
d="M400 -21v24h59v-45l-57 -36q-35 -24 -35 -58q0 -22 13 -35t34 -13q38 0 47 40l57 -17q-10 -38 -38 -60t-67 -22q-47 0 -77.5 28.5t-30.5 73.5q0 32 16.5 56t55.5 49zM466 500v-500h-80v500h80zM138 500v-313q0 -57 32.5 -89t83.5 -32q55 0 93.5 35t38.5 83h42
q0 -80 -56 -137.5t-140 -57.5q-74 0 -124 50t-50 131v330h80z" />
    <glyph glyph-name="Wcircumflex" unicode="&#x174;" horiz-adv-x="1029" 
d="M500 974l-162 -152l46 -47l128 123l128 -123l46 47l-162 152h-24zM910 700h88l-204 -700h-106l-174 578l-168 -578h-106l-209 700h88l176 -602l178 602h83l182 -602z" />
    <glyph glyph-name="wcircumflex" unicode="&#x175;" horiz-adv-x="823" 
d="M399 765l-162 -152l46 -47l128 123l128 -123l46 47l-162 152h-24zM706 500h86l-156 -500h-102l-123 388l-119 -388h-102l-159 500h86l125 -415l131 415h77l132 -415z" />
    <glyph glyph-name="Ycircumflex" unicode="&#x176;" horiz-adv-x="666" 
d="M328 974l-162 -152l46 -47l128 123l128 -123l46 47l-162 152h-24zM303 0h80v235l254 465h-94l-200 -370l-218 370h-95l273 -465v-235z" />
    <glyph glyph-name="ycircumflex" unicode="&#x177;" horiz-adv-x="556" 
d="M265 765l-162 -152l46 -47l128 123l128 -123l46 47l-162 152h-24zM437 500l-159 -392l-158 392h-89l199 -482l-84 -218h89l291 700h-89z" />
    <glyph glyph-name="Ydieresis" unicode="&#x178;" horiz-adv-x="666" 
d="M385 831q0 23 15.5 38.5t38.5 15.5t38.5 -15.5t15.5 -38.5t-15.5 -38.5t-38.5 -15.5t-38.5 15.5t-15.5 38.5zM185 831q0 23 15.5 38.5t38.5 15.5t38.5 -15.5t15.5 -38.5t-15.5 -38.5t-38.5 -15.5t-38.5 15.5t-15.5 38.5zM303 0h80v235l254 465h-94l-200 -370l-218 370
h-95l273 -465v-235z" />
    <glyph glyph-name="Zacute" unicode="&#x179;" horiz-adv-x="628" 
d="M450 934l-55 55l-159 -164l46 -48zM588 0v77h-458l458 531v92h-548v-77h458l-458 -525v-98h548z" />
    <glyph glyph-name="zacute" unicode="&#x17a;" horiz-adv-x="484" 
d="M383 725l-55 55l-159 -164l46 -48zM447 0v72h-321l321 338v90h-409v-72h314l-314 -338v-90h409z" />
    <glyph glyph-name="Zdotaccent" unicode="&#x17b;" horiz-adv-x="628" 
d="M261 831q0 23 15.5 38.5t38.5 15.5t38.5 -15.5t15.5 -38.5t-15.5 -38.5t-38.5 -15.5t-38.5 15.5t-15.5 38.5zM588 0v77h-458l458 531v92h-548v-77h458l-458 -525v-98h548z" />
    <glyph glyph-name="zdotaccent" unicode="&#x17c;" horiz-adv-x="484" 
d="M194 622q0 23 15.5 38.5t38.5 15.5t38.5 -15.5t15.5 -38.5t-15.5 -38.5t-38.5 -15.5t-38.5 15.5t-15.5 38.5zM447 0v72h-321l321 338v90h-409v-72h314l-314 -338v-90h409z" />
    <glyph glyph-name="Zcaron" unicode="&#x17d;" horiz-adv-x="628" 
d="M327 775l162 152l-46 47l-128 -123l-128 123l-46 -47l162 -152h24zM588 0v77h-458l458 531v92h-548v-77h458l-458 -525v-98h548z" />
    <glyph glyph-name="zcaron" unicode="&#x17e;" horiz-adv-x="484" 
d="M260 566l162 152l-46 47l-128 -123l-128 123l-46 -47l162 -152h24zM447 0v72h-321l321 338v90h-409v-72h314l-314 -338v-90h409z" />
    <glyph glyph-name="Ohorn" unicode="&#x1a0;" horiz-adv-x="794" 
d="M569 603v58h60q25 0 39 12.5t14 35.5q0 26 -25 45l48 42q42 -27 42 -84q0 -45 -30.5 -77t-73.5 -32h-74zM118 353q0 -128 80 -209.5t196 -81.5t196 81.5t80 209.5q0 125 -80 206t-196 81t-196 -81t-80 -206zM38 353q0 79 28 148t76 116.5t113.5 75t138.5 27.5
t138.5 -27.5t113.5 -75t76 -116.5t28 -148q0 -80 -28 -149.5t-76 -118t-113.5 -76t-138.5 -27.5t-138.5 27.5t-113.5 76t-76 118t-28 149.5z" />
    <glyph glyph-name="ohorn" unicode="&#x1a1;" horiz-adv-x="640" 
d="M468 395v58h60q25 0 39 12.5t14 35.5q0 26 -25 45l48 42q42 -27 42 -84q0 -45 -30.5 -77t-73.5 -32h-74zM118 251q0 -84 55.5 -137.5t135.5 -53.5t135.5 53.5t55.5 137.5t-55.5 137.5t-135.5 53.5t-135.5 -53.5t-55.5 -137.5zM38 251q0 117 78.5 193t192.5 76t192.5 -76
t78.5 -193t-78.5 -193t-192.5 -76t-192.5 76t-78.5 193z" />
    <glyph glyph-name="Uhorn" unicode="&#x1af;" horiz-adv-x="725" 
d="M589 603v58h60q25 0 39 12.5t14 35.5q0 26 -25 45l48 42q42 -27 42 -84q0 -45 -30.5 -77t-73.5 -32h-74zM345 -11q-122 0 -204.5 80t-82.5 203v428h80v-418q0 -100 57.5 -156.5t149.5 -56.5t149.5 56.5t57.5 156.5v418h80v-428q0 -123 -82.5 -203t-204.5 -80z" />
    <glyph glyph-name="uhorn" unicode="&#x1b0;" horiz-adv-x="602" 
d="M433 395v58h60q25 0 39 12.5t14 35.5q0 26 -25 45l48 42q42 -27 42 -84q0 -45 -30.5 -77t-73.5 -32h-74zM466 500v-500h-80v500h80zM138 500v-313q0 -57 32.5 -89t83.5 -32q55 0 93.5 35t38.5 83h42q0 -80 -56 -137.5t-140 -57.5q-74 0 -124 50t-50 131v330h80z" />
    <glyph glyph-name="uni0237" unicode="&#x237;" horiz-adv-x="193" 
d="M-19 -107q36 0 55.5 24.5t19.5 62.5v520h80v-544q0 -57 -39 -99t-101 -42h-36v78h21z" />
    <glyph glyph-name="uni02BC" unicode="&#x2bc;" horiz-adv-x="160" 
d="M85 758l75 -21l-59 -229l-70 19z" />
    <glyph glyph-name="gravecomb" unicode="&#x300;" horiz-adv-x="264" 
d="M20 657l56 52l162 -161l-51 -48z" />
    <glyph glyph-name="acutecomb" unicode="&#x301;" horiz-adv-x="264" 
d="M240 657l-55 55l-159 -164l46 -48z" />
    <glyph glyph-name="uni0302" unicode="&#x302;" horiz-adv-x="388" 
d="M182 697l-162 -152l46 -47l128 123l128 -123l46 47l-162 152h-24z" />
    <glyph glyph-name="tildecomb" unicode="&#x303;" horiz-adv-x="404" 
d="M127 644q-40 0 -68 -32t-39 -88l59 -18q6 35 19 54.5t31 19.5q13 0 24.5 -7t30.5 -28q26 -25 47 -35t46 -10q40 0 68.5 32t38.5 88l-59 18q-14 -71 -55 -71q-14 0 -25.5 7t-29.5 27q-25 24 -44.5 33.5t-43.5 9.5z" />
    <glyph glyph-name="uni0304" unicode="&#x304;" horiz-adv-x="352" 
d="M330 577v-67h-308v67h308z" />
    <glyph glyph-name="uni0306" unicode="&#x306;" horiz-adv-x="338" 
d="M165 508q-69 0 -117 45.5t-48 109.5h67q0 -40 28 -66t71 -26q44 0 74.5 27t30.5 65h67q0 -62 -51.5 -108.5t-121.5 -46.5z" />
    <glyph glyph-name="uni0307" unicode="&#x307;" horiz-adv-x="170" 
d="M31 554q0 23 15.5 38.5t38.5 15.5t38.5 -15.5t15.5 -38.5t-15.5 -38.5t-38.5 -15.5t-38.5 15.5t-15.5 38.5z" />
    <glyph glyph-name="uni0308" unicode="&#x308;" horiz-adv-x="390" 
d="M241 554q0 23 15.5 38.5t38.5 15.5t38.5 -15.5t15.5 -38.5t-15.5 -38.5t-38.5 -15.5t-38.5 15.5t-15.5 38.5zM41 554q0 23 15.5 38.5t38.5 15.5t38.5 -15.5t15.5 -38.5t-15.5 -38.5t-38.5 -15.5t-38.5 15.5t-15.5 38.5z" />
    <glyph glyph-name="hookabovecomb" unicode="&#x309;" horiz-adv-x="260" 
d="M130 488l-38 49l41 27q33 19 33 50q0 20 -13 32.5t-33 12.5q-37 0 -45 -36l-58 17q11 38 39 59.5t66 21.5q48 0 78 -30t30 -77q0 -33 -17.5 -57.5t-55.5 -50.5z" />
    <glyph glyph-name="uni030A" unicode="&#x30a;" horiz-adv-x="298" 
d="M97 612.5q0 -22.5 15 -37t37 -14.5t37 14.5t15 37t-15 37t-37 14.5t-37 -14.5t-15 -37zM36 612.5q0 48.5 33 80.5t80 32t80 -32t33 -80.5t-33 -80.5t-80 -32t-80 32t-33 80.5z" />
    <glyph glyph-name="uni030B" unicode="&#x30b;" horiz-adv-x="424" 
d="M409 652l-45 52l-164 -161l38 -43zM224 652l-46 52l-164 -161l38 -43z" />
    <glyph glyph-name="uni030C" unicode="&#x30c;" horiz-adv-x="388" 
d="M206 498l162 152l-46 47l-128 -123l-128 123l-46 -47l162 -152h24z" />
    <glyph glyph-name="uni0312" unicode="&#x312;" horiz-adv-x="170" 
d="M146 559q0 -24 -16.5 -41.5t-41.5 -17.5t-42.5 16.5t-17.5 41.5q0 22 12 38l90 128l37 -27l-59 -83q18 -7 28 -22t10 -33z" />
    <glyph glyph-name="uni0313" unicode="&#x313;" horiz-adv-x="170" 
d="M50 666q0 23 16 40.5t41 17.5t42.5 -16.5t17.5 -40.5q0 -22 -12 -39l-90 -128l-37 28l59 82q-17 8 -27 23t-10 33z" />
    <glyph glyph-name="uni0315" unicode="&#x315;" horiz-adv-x="170" 
d="M119 730l75 -20l-59 -228l-70 18z" />
    <glyph glyph-name="uni031B" unicode="&#x31b;" horiz-adv-x="247" 
d="M46 467v58h60q25 0 39 12.5t14 35.5q0 26 -25 45l48 42q42 -27 42 -84q0 -45 -30.5 -77t-73.5 -32h-74z" />
    <glyph glyph-name="dotbelowcomb" unicode="&#x323;" horiz-adv-x="170" 
d="M31 -137.5q0 22.5 15.5 38t38.5 15.5t38.5 -15.5t15.5 -38t-15.5 -38.5t-38.5 -16t-38.5 16t-15.5 38.5z" />
    <glyph glyph-name="uni0326" unicode="&#x326;" horiz-adv-x="170" 
d="M112 -213q0 -23 -16 -41t-41 -18t-42.5 17t-17.5 41q0 22 12 38l90 129l37 -28l-59 -83q17 -7 27 -22t10 -33z" />
    <glyph glyph-name="uni0327" unicode="&#x327;" horiz-adv-x="243" 
d="M101 -69q21 22 50 22q33 0 56 -29t23 -70q0 -47 -30.5 -76.5t-79.5 -29.5q-39 0 -68.5 20t-40.5 55l61 23q8 -36 46 -36q22 0 34.5 13t12.5 33q0 17 -9 28.5t-23 11.5q-19 0 -32 -18l-63 25v118h63v-90z" />
    <glyph glyph-name="uni0328" unicode="&#x328;" horiz-adv-x="247" 
d="M109 -21v24h59v-45l-57 -36q-35 -24 -35 -58q0 -22 13 -35t34 -13q38 0 47 40l57 -17q-10 -38 -38 -60t-67 -22q-47 0 -77.5 28.5t-30.5 73.5q0 32 16.5 56t55.5 49z" />
    <glyph glyph-name="uni0400" unicode="&#x400;" horiz-adv-x="561" 
d="M146 934l56 52l162 -161l-51 -48zM138 390h360v-78h-360v-234h384v-78h-464v700h464v-78h-384v-232z" />
    <glyph glyph-name="uni0401" unicode="&#x401;" horiz-adv-x="561" 
d="M330 831q0 23 15.5 38.5t38.5 15.5t38.5 -15.5t15.5 -38.5t-15.5 -38.5t-38.5 -15.5t-38.5 15.5t-15.5 38.5zM130 831q0 23 15.5 38.5t38.5 15.5t38.5 -15.5t15.5 -38.5t-15.5 -38.5t-38.5 -15.5t-38.5 15.5t-15.5 38.5zM138 390h360v-78h-360v-234h384v-78h-464v700h464
v-78h-384v-232z" />
    <glyph glyph-name="uni0402" unicode="&#x402;" horiz-adv-x="733" 
d="M480 398q89 0 151.5 -58.5t62.5 -142.5q0 -85 -58.5 -141t-145.5 -56h-75v78h65q57 0 95.5 34t38.5 85q0 52 -38.5 87.5t-95.5 35.5h-207v-320h-80v623h-164v77h564v-77h-320v-225h207z" />
    <glyph glyph-name="uni0403" unicode="&#x403;" horiz-adv-x="562" 
d="M428 934l-55 55l-159 -164l46 -48zM58 0h80v624h394v76h-474v-700z" />
    <glyph glyph-name="uni0404" unicode="&#x404;" horiz-adv-x="778" 
d="M542 391v-77h-482v77h482zM37.5 351q0.5 105 48.5 190t130.5 132t181.5 47q111 0 201 -57t137 -156l-77 -30q-36 76 -106 119.5t-155 43.5q-118 0 -199 -81.5t-81 -207t81 -207.5t199 -82q87 0 158.5 46t106.5 126l77 -29q-44 -103 -136.5 -163t-205.5 -60
q-99 0 -181.5 47t-131 132t-48 190z" />
    <glyph glyph-name="uni0405" unicode="&#x405;" horiz-adv-x="524" 
d="M251 311q-214 48 -213 198q0 89 59 146.5t149 57.5q81 0 146.5 -48.5t93.5 -129.5l-76 -24q-21 57 -64 90t-97 33q-57 0 -94 -34t-37 -90q0 -42 36 -70.5t116 -46.5q105 -24 160.5 -76t55.5 -127q0 -88 -59 -144.5t-149 -56.5q-81 0 -146.5 47t-93.5 126l76 29
q21 -57 63.5 -90t96.5 -33q57 0 94 34.5t37 89.5q0 43 -37 72t-117 47z" />
    <glyph glyph-name="uni0406" unicode="&#x406;" horiz-adv-x="195" 
d="M138 0h-80v700h80v-700z" />
    <glyph glyph-name="uni0407" unicode="&#x407;" horiz-adv-x="195" 
d="M143 831q0 23 15.5 38.5t38.5 15.5t38.5 -15.5t15.5 -38.5t-15.5 -38.5t-38.5 -15.5t-38.5 15.5t-15.5 38.5zM-57 831q0 23 15.5 38.5t38.5 15.5t38.5 -15.5t15.5 -38.5t-15.5 -38.5t-38.5 -15.5t-38.5 15.5t-15.5 38.5zM138 0h-80v700h80v-700z" />
    <glyph glyph-name="uni0408" unicode="&#x408;" horiz-adv-x="598" 
d="M38 165l73 29q20 -61 64 -93t109 -32q78 0 127.5 48.5t49.5 134.5v448h80v-458q0 -110 -74 -181.5t-183 -71.5q-91 0 -155.5 46.5t-90.5 129.5z" />
    <glyph glyph-name="uni0409" unicode="&#x409;" horiz-adv-x="1148" 
d="M55 76h-21v-76h34q94 0 153.5 62.5t59.5 148.5v413h265v-624h349q88 0 147 58t59 145q0 86 -63 145.5t-153 59.5h-259v292h-425v-470q0 -67 -38 -110.5t-108 -43.5zM626 330h259q58 0 97 -36.5t39 -90.5t-39 -89.5t-97 -35.5h-259v252z" />
    <glyph glyph-name="uni040A" unicode="&#x40a;" horiz-adv-x="1023" 
d="M522 700h-80v-700h337q88 0 146 57.5t58 143.5q0 84 -62 143t-152 59h-247v297zM769 78h-247v247h247q57 0 95.5 -35.5t38.5 -88.5t-38 -88t-96 -35zM452 401h-314v299h-80v-700h80v323h314v78z" />
    <glyph glyph-name="uni040B" unicode="&#x40b;" horiz-adv-x="693" 
d="M646 192v-192h-80v192q0 54 -39 91t-97 37h-157v-320h-80v623h-164v77h496v-77h-252v-225h157q90 0 153 -60t63 -146z" />
    <glyph glyph-name="uni040C" unicode="&#x40c;" horiz-adv-x="613" 
d="M440 934l-55 55l-159 -164l46 -48zM58 0v700h80v-312h34l304 312h107l-340 -352l340 -348h-107l-304 306h-34v-306h-80z" />
    <glyph glyph-name="uni040D" unicode="&#x40d;" horiz-adv-x="685" 
d="M206 934l56 52l162 -161l-51 -48zM628 0h-80v584l-395 -584h-95v700h80v-577l394 577h96v-700z" />
    <glyph glyph-name="uni040E" unicode="&#x40e;" horiz-adv-x="625" 
d="M319 785q-69 0 -117 45.5t-48 109.5h67q0 -40 28 -66t71 -26q44 0 74.5 27t30.5 65h67q0 -62 -51.5 -108.5t-121.5 -46.5zM163 0h95l336 700h-94l-170 -360l-204 360h-94l254 -437z" />
    <glyph glyph-name="uni040F" unicode="&#x40f;" horiz-adv-x="695" 
d="M638 0v700h-80v-624h-420v624h-80v-700h251v-175h85v175h244z" />
    <glyph glyph-name="uni0410" unicode="&#x410;" horiz-adv-x="763" 
d="M174 265h413v-76h-413v76zM122 0h-91l299 700h104l299 -700h-91l-260 616z" />
    <glyph glyph-name="uni0411" unicode="&#x411;" horiz-adv-x="649" 
d="M394 400q90 0 152.5 -58.5t62.5 -143.5t-58.5 -141.5t-146.5 -56.5h-346v700h456v-77h-376v-223h256zM394 78q58 0 96.5 34t38.5 86q0 53 -38.5 88.5t-96.5 35.5h-256v-244h256z" />
    <glyph glyph-name="uni0412" unicode="&#x412;" horiz-adv-x="650" 
d="M391 622h-253v-233h260q50 0 84 37t34 91q0 46 -35.5 75.5t-89.5 29.5zM398 313h-260v-235h263q53 0 89 31t36 77q0 55 -36.5 91t-91.5 36zM412 0h-354v700h344q83 0 138.5 -50t55.5 -126q0 -55 -26.5 -100t-71.5 -70q50 -25 79 -71t29 -103q0 -77 -56 -128.5t-138 -51.5
z" />
    <glyph glyph-name="uni0413" unicode="&#x413;" horiz-adv-x="562" 
d="M58 0h80v624h394v76h-474v-700z" />
    <glyph glyph-name="uni0414" unicode="&#x414;" horiz-adv-x="760" 
d="M29 76v-192h80v116h542v-116h80v192h-702zM63 76h-34l15 -58h29q96 0 157 60.5t61 142.5v401h285v-621h80v699h-445v-465q0 -69 -38.5 -114t-109.5 -45z" />
    <glyph glyph-name="uni0415" unicode="&#x415;" horiz-adv-x="561" 
d="M138 390h360v-78h-360v-234h384v-78h-464v700h464v-78h-384v-232z" />
    <glyph glyph-name="uni0416" unicode="&#x416;" horiz-adv-x="927" 
d="M424 700h80v-308h72l225 308h96l-255 -348l255 -352h-96l-225 309h-72v-309h-80v309h-72l-230 -309h-91l255 349l-255 351h91l230 -308h72v308z" />
    <glyph glyph-name="uni0417" unicode="&#x417;" horiz-adv-x="546" 
d="M56 571q30 68 88.5 107.5t131.5 39.5q90 0 151 -56t61 -139q0 -51 -24 -93t-66 -66q51 -26 80.5 -74t29.5 -105q0 -87 -66.5 -145t-165.5 -58q-79 0 -143 40.5t-95 111.5l74 38q21 -52 65 -82t99 -30q65 0 108.5 38t43.5 95q0 55 -39 92t-97 37h-88v76h88q50 0 83 33.5
t33 83.5q0 53 -38.5 89t-96.5 36q-48 0 -86 -27t-58 -75z" />
    <glyph glyph-name="uni0418" unicode="&#x418;" horiz-adv-x="685" 
d="M628 0h-80v584l-395 -584h-95v700h80v-577l394 577h96v-700z" />
    <glyph glyph-name="uni0419" unicode="&#x419;" horiz-adv-x="685" 
d="M347 785q-69 0 -117 45.5t-48 109.5h67q0 -40 28 -66t71 -26q44 0 74.5 27t30.5 65h67q0 -62 -51.5 -108.5t-121.5 -46.5zM628 0h-80v584l-395 -584h-95v700h80v-577l394 577h96v-700z" />
    <glyph glyph-name="uni041A" unicode="&#x41a;" horiz-adv-x="613" 
d="M58 0v700h80v-312h34l304 312h107l-340 -352l340 -348h-107l-304 306h-34v-306h-80z" />
    <glyph glyph-name="uni041B" unicode="&#x41b;" horiz-adv-x="683" 
d="M55 76h-21v-76h34q94 0 153.5 62.5t59.5 148.5v413h265v-624h80v700h-425v-470q0 -67 -38 -110.5t-108 -43.5z" />
    <glyph glyph-name="uni041C" unicode="&#x41c;" horiz-adv-x="836" 
d="M55 0v700h97l266 -485l266 485h97v-700h-80v572l-253 -460h-60l-253 460v-572h-80z" />
    <glyph glyph-name="uni041D" unicode="&#x41d;" horiz-adv-x="685" 
d="M58 0v700h80v-310h410v310h80v-700h-80v312h-410v-312h-80z" />
    <glyph glyph-name="uni041E" unicode="&#x41e;" horiz-adv-x="788" 
d="M118 353q0 -128 80 -209.5t196 -81.5t196 81.5t80 209.5q0 125 -80 206t-196 81t-196 -81t-80 -206zM38 353q0 79 28 148t76 116.5t113.5 75t138.5 27.5t138.5 -27.5t113.5 -75t76 -116.5t28 -148q0 -80 -28 -149.5t-76 -118t-113.5 -76t-138.5 -27.5t-138.5 27.5
t-113.5 76t-76 118t-28 149.5z" />
    <glyph glyph-name="uni041F" unicode="&#x41f;" horiz-adv-x="690" 
d="M58 700v-700h80v624h414v-624h80v700h-574z" />
    <glyph glyph-name="uni0420" unicode="&#x420;" horiz-adv-x="625" 
d="M342 622h-204v-307h204q74 0 124 44.5t50 110.5t-50 109t-124 43zM342 237h-204v-237h-80v700h294q104 0 174 -65.5t70 -164.5q0 -97 -74 -165t-180 -68z" />
    <glyph glyph-name="uni0421" unicode="&#x421;" horiz-adv-x="778" 
d="M37.5 351q0.5 105 48.5 190t130.5 132t181.5 47q111 0 201 -58.5t137 -159.5l-77 -30q-36 78 -106 123t-155 45q-118 0 -199 -81.5t-81 -207t81 -207.5t199 -82q87 0 158.5 47.5t106.5 129.5l77 -29q-44 -105 -136.5 -166.5t-205.5 -61.5q-99 0 -181.5 47t-131 132
t-48 190z" />
    <glyph glyph-name="uni0422" unicode="&#x422;" horiz-adv-x="596" 
d="M568 700v-78h-230v-622h-80v622h-230v78h540z" />
    <glyph glyph-name="uni0423" unicode="&#x423;" horiz-adv-x="625" 
d="M163 0h95l336 700h-94l-170 -360l-204 360h-94l254 -437z" />
    <glyph glyph-name="uni0424" unicode="&#x424;" horiz-adv-x="793" 
d="M356 0v750h80v-750h-80zM118 385q0 -89 75.5 -144t203 -55t203.5 55t76 144q0 87 -76 141t-203.5 54t-203 -54t-75.5 -141zM38 385q0 121 98 196.5t260.5 75.5t261 -75.5t98.5 -196.5q0 -123 -98.5 -199.5t-261 -76.5t-260.5 76.5t-98 199.5z" />
    <glyph glyph-name="uni0425" unicode="&#x425;" horiz-adv-x="703" 
d="M673 0h-99l-222 294l-222 -294h-100l259 346l-259 354h100l222 -303l222 303h99l-259 -354z" />
    <glyph glyph-name="uni0426" unicode="&#x426;" horiz-adv-x="717" 
d="M595 78v622h-80v-622h-377v622h-80v-700h550v-121h80v199h-93z" />
    <glyph glyph-name="uni0427" unicode="&#x427;" 
d="M580 700v-700h-80v700h80zM138 700v-228q0 -87 48.5 -136.5t125.5 -49.5q78 0 133 49t55 117h44q0 -100 -73.5 -171.5t-180.5 -71.5q-99 0 -165.5 68.5t-66.5 176.5v246h80z" />
    <glyph glyph-name="uni0428" unicode="&#x428;" horiz-adv-x="950" 
d="M892 0v700h-80v-622h-295v622h-80v-622h-299v622h-80v-700h834z" />
    <glyph glyph-name="uni0429" unicode="&#x429;" horiz-adv-x="1012" 
d="M892 78v622h-80v-622h-295v622h-80v-622h-299v622h-80v-700h844v-121h80v199h-90z" />
    <glyph glyph-name="uni042A" unicode="&#x42a;" horiz-adv-x="777" 
d="M518 78q60 0 100 35.5t40 88.5q0 54 -40 91t-100 37h-224v-252h224zM294 700v-292h224q92 0 156 -60t64 -146q0 -87 -60 -144.5t-150 -57.5h-314v623h-184v77h264z" />
    <glyph glyph-name="uni042B" unicode="&#x42b;" horiz-adv-x="784" 
d="M727 0h-80v700h80v-700zM138 700v-292h204q90 0 153 -59.5t63 -145.5q0 -87 -59 -145t-147 -58h-294v700h80zM342 78q58 0 97 35.5t39 89.5t-39 90.5t-97 36.5h-204v-252h204z" />
    <glyph glyph-name="uni042C" unicode="&#x42c;" horiz-adv-x="651" 
d="M138 700v-292h258q91 0 154 -59.5t63 -145.5q0 -87 -59 -145t-148 -58h-348v700h80zM396 78q59 0 98 35.5t39 89.5t-39 90.5t-98 36.5h-258v-252h258z" />
    <glyph glyph-name="uni042D" unicode="&#x42d;" horiz-adv-x="778" 
d="M236 311v77h482v-77h-482zM740 351q0 -105 -48 -190t-130.5 -132t-181.5 -47q-111 0 -201 57t-137 156l77 30q36 -76 106 -119.5t155 -43.5q118 0 199 81.5t81 207t-81 207.5t-199 82q-87 0 -158.5 -46t-106.5 -126l-77 29q44 103 136.5 163t205.5 60q99 0 181.5 -47
t130.5 -132t48 -190z" />
    <glyph glyph-name="uni042E" unicode="&#x42e;" horiz-adv-x="1083" 
d="M410 353q0 125 80 206t196.5 81t196.5 -81t80 -206q0 -128 -80 -209.5t-196.5 -81.5t-196.5 81.5t-80 209.5zM330 353q0 -161 103.5 -266t253 -105t253 105t103.5 266q0 160 -103.5 263.5t-253 103.5t-253 -103.5t-103.5 -263.5zM365 390h-227v310h-80v-700h80v312h227
v78z" />
    <glyph glyph-name="uni042F" unicode="&#x42f;" horiz-adv-x="633" 
d="M292 622q-68 0 -112.5 -39.5t-44.5 -99.5q0 -61 45 -102t112 -41h218v282h-218zM264 268q-90 4 -150.5 65t-60.5 149q-1 95 64.5 156.5t164.5 61.5h308v-700h-80v262h-153l-208 -262h-97z" />
    <glyph glyph-name="uni0430" unicode="&#x430;" horiz-adv-x="499" 
d="M362 231l-143 -17q-101 -13 -101 -77q0 -34 28 -54.5t75 -20.5q64 0 102.5 38t38.5 100h35q0 -91 -56 -151t-140 -60q-71 0 -117.5 40.5t-46.5 104.5q1 61 44.5 101t120.5 49l160 18v20q0 46 -35.5 80t-86.5 34q-46 0 -81.5 -25t-44.5 -65l-76 24q20 63 74.5 102
t123.5 39q84 0 145 -53.5t61 -127.5v-330h-80v231z" />
    <glyph glyph-name="uni0431" unicode="&#x431;" horiz-adv-x="610" 
d="M546 704q-30 -29 -78.5 -44t-123.5 -26q-99 -14 -157.5 -85t-66.5 -193q30 56 88.5 89t126.5 33q101 0 169 -70.5t68 -174.5q0 -108 -73 -179.5t-185 -71.5q-75 0 -137.5 34.5t-94.5 96.5q-42 79 -42 202q0 174 75.5 270.5t216.5 119.5q46 8 70.5 13t53.5 16t46 27z
M130 238q0 -73 55 -124.5t133 -51.5q75 0 124.5 48.5t49.5 121.5t-50.5 120.5t-129.5 47.5q-78 0 -130 -46.5t-52 -115.5z" />
    <glyph glyph-name="uni0432" unicode="&#x432;" horiz-adv-x="555" 
d="M339 427h-201v-141h210q34 0 57 18.5t23 46.5q0 33 -25.5 54.5t-63.5 21.5zM349 219h-211v-146h211q38 0 63.5 20.5t25.5 50.5q0 33 -25.5 54t-63.5 21zM359 0h-301v500h291q68 0 113.5 -39.5t45.5 -99.5q0 -33 -17.5 -60.5t-48.5 -42.5q35 -17 55.5 -49t20.5 -72
q0 -58 -45.5 -97.5t-113.5 -39.5z" />
    <glyph glyph-name="uni0433" unicode="&#x433;" horiz-adv-x="432" 
d="M58 0h80v424h257v76h-337v-500z" />
    <glyph glyph-name="uni0434" unicode="&#x434;" horiz-adv-x="604" 
d="M29 76v-192h80v116h387v-116h80v192h-547zM53 76h-19v-61h29q74 0 121 45.5t47 107.5v254h195v-422h80v500h-355v-318q0 -46 -25.5 -76.5t-72.5 -29.5z" />
    <glyph glyph-name="uni0435" unicode="&#x435;" horiz-adv-x="596" 
d="M478 288q-6 70 -57 113t-123 43q-69 0 -118.5 -42.5t-58.5 -113.5h357zM121 215q9 -71 60 -114t121 -43q54 0 98 25.5t66 70.5l74 -29q-33 -66 -96.5 -104.5t-140.5 -38.5q-112 0 -188.5 76.5t-76.5 192.5t75 192.5t184 76.5q110 0 186 -74.5t76 -187.5q0 -18 -5 -43
h-433z" />
    <glyph glyph-name="uni0436" unicode="&#x436;" horiz-adv-x="769" 
d="M344 500h80v-211h46l172 211h94l-204 -250l204 -250h-94l-172 208h-46v-208h-80v211h-44l-174 -211h-94l206 250l-206 250h94l174 -208h44v208z" />
    <glyph glyph-name="uni0437" unicode="&#x437;" horiz-adv-x="475" 
d="M56 401q26 54 76.5 85.5t112.5 31.5q78 0 130.5 -44.5t52.5 -111.5q0 -35 -17.5 -64.5t-48.5 -46.5q35 -18 55.5 -51.5t20.5 -73.5q0 -62 -55 -103t-137 -41q-70 0 -125.5 32.5t-82.5 89.5l74 36q17 -37 52.5 -58.5t80.5 -21.5q48 0 80.5 22t32.5 55q0 34 -27.5 57
t-68.5 23h-80v66h80q37 0 61.5 20t24.5 50q0 37 -30 61.5t-75 24.5q-37 0 -66.5 -19t-44.5 -52z" />
    <glyph glyph-name="uni0438" unicode="&#x438;" horiz-adv-x="565" 
d="M508 0h-80v400l-275 -400h-95v500h80v-390l274 390h96v-500z" />
    <glyph glyph-name="uni0439" unicode="&#x439;" horiz-adv-x="565" 
d="M285 576q-69 0 -117 45.5t-48 109.5h67q0 -40 28 -66t71 -26q44 0 74.5 27t30.5 65h67q0 -62 -51.5 -108.5t-121.5 -46.5zM508 0h-80v400l-275 -400h-95v500h80v-390l274 390h96v-500z" />
    <glyph glyph-name="uni043A" unicode="&#x43a;" horiz-adv-x="501" 
d="M58 0v500h80v-210h26l204 210h104l-238 -250l238 -250h-104l-204 207h-26v-207h-80z" />
    <glyph glyph-name="uni043B" unicode="&#x43b;" horiz-adv-x="555" 
d="M55 78h-21v-78h31q70 0 114 47t44 112v263h195v-422h80v500h-355v-328q0 -41 -23 -67.5t-65 -26.5z" />
    <glyph glyph-name="uni043C" unicode="&#x43c;" horiz-adv-x="696" 
d="M58 0v500h94l196 -330l196 330h94v-500h-80v384l-182 -310h-55l-183 310v-384h-80z" />
    <glyph glyph-name="uni043D" unicode="&#x43d;" horiz-adv-x="587" 
d="M58 0v500h80v-211h312v211h80v-500h-80v213h-312v-213h-80z" />
    <glyph glyph-name="uni043E" unicode="&#x43e;" horiz-adv-x="618" 
d="M118 251q0 -84 55.5 -137.5t135.5 -53.5t135.5 53.5t55.5 137.5t-55.5 137.5t-135.5 53.5t-135.5 -53.5t-55.5 -137.5zM38 251q0 117 78.5 193t192.5 76t192.5 -76t78.5 -193t-78.5 -193t-192.5 -76t-192.5 76t-78.5 193z" />
    <glyph glyph-name="uni043F" unicode="&#x43f;" horiz-adv-x="545" 
d="M488 500v-500h-80v424h-270v-424h-80v500h430z" />
    <glyph glyph-name="uni0440" unicode="&#x440;" 
d="M58 500h80v-700h-80v700zM138 249.5q0 -83.5 55.5 -137.5t135.5 -54t135.5 54t55.5 137.5t-55.5 137.5t-135.5 54t-135.5 -54t-55.5 -137.5zM100 249.5q0 116.5 71 192.5t175 76q107 0 180.5 -76t73.5 -192.5t-73.5 -193t-180.5 -76.5q-104 0 -175 76.5t-71 193z" />
    <glyph glyph-name="uni0441" unicode="&#x441;" horiz-adv-x="586" 
d="M118 251q0 -84 54 -137.5t132 -53.5q56 0 101 27t69 76l73 -33q-33 -68 -98 -108t-145 -40q-112 0 -189 76t-77 193t77 193t189 76q81 0 147 -41t98 -112l-73 -33q-23 51 -69 79.5t-103 28.5q-78 0 -132 -53.5t-54 -137.5z" />
    <glyph glyph-name="uni0442" unicode="&#x442;" horiz-adv-x="480" 
d="M450 500v-76h-170v-424h-80v424h-170v76h420z" />
    <glyph glyph-name="uni0443" unicode="&#x443;" horiz-adv-x="556" 
d="M437 500l-159 -392l-158 392h-89l199 -482l-84 -218h89l291 700h-89z" />
    <glyph glyph-name="uni0444" unicode="&#x444;" 
d="M278 -190v870h78v-870h-78zM118 251q0 -84 58 -137.5t143 -53.5t143 53.5t58 137.5t-58 137.5t-143 53.5t-143 -53.5t-58 -137.5zM38 251q0 117 81.5 193t199.5 76t199.5 -76t81.5 -193t-81.5 -193t-199.5 -76t-199.5 76t-81.5 193z" />
    <glyph glyph-name="uni0445" unicode="&#x445;" horiz-adv-x="550" 
d="M520 0h-96l-149 198l-147 -198h-98l188 250l-188 250h98l147 -198l149 198h96l-188 -250z" />
    <glyph glyph-name="uni0446" unicode="&#x446;" horiz-adv-x="604" 
d="M58 0v500h80v-424h294v424h80v-424h62v-192h-80v116h-436z" />
    <glyph glyph-name="uni0447" unicode="&#x447;" horiz-adv-x="523" 
d="M466 500v-500h-80v500h80zM138 500v-166q0 -56 32.5 -88t83.5 -32q55 0 93.5 34.5t38.5 83.5h42q0 -81 -56 -138.5t-140 -57.5q-74 0 -124 50.5t-50 130.5v183h80z" />
    <glyph glyph-name="uni0448" unicode="&#x448;" horiz-adv-x="840" 
d="M782 0v500h-80v-424h-242v424h-80v-424h-242v424h-80v-500h724z" />
    <glyph glyph-name="uni0449" unicode="&#x449;" horiz-adv-x="889" 
d="M782 76v424h-80v-424h-242v424h-80v-424h-242v424h-80v-500h716v-116h80v192h-72z" />
    <glyph glyph-name="uni044A" unicode="&#x44a;" horiz-adv-x="655" 
d="M459 302q68 0 113.5 -44.5t45.5 -109.5q0 -62 -45.5 -105t-113.5 -43h-267v423h-154v77h234v-198h187zM449 224h-177v-146h177q38 0 63.5 20.5t25.5 49.5q0 33 -25.5 54.5t-63.5 21.5z" />
    <glyph glyph-name="uni044B" unicode="&#x44b;" horiz-adv-x="730" 
d="M593 0v500h80v-500h-80zM342 224h-207v-146h207q38 0 63 20.5t25 50.5q0 32 -25 53.5t-63 21.5zM352 300q67 0 112.5 -44t45.5 -108q0 -63 -45.5 -105.5t-112.5 -42.5h-297v500h80v-200h217z" />
    <glyph glyph-name="uni044C" unicode="&#x44c;" horiz-adv-x="558" 
d="M352 224h-214v-146h214q38 0 63 20.5t25 50.5q0 32 -25 53.5t-63 21.5zM362 300q67 0 112.5 -44t45.5 -108q0 -63 -45.5 -105.5t-112.5 -42.5h-304v500h80v-200h224z" />
    <glyph glyph-name="uni044D" unicode="&#x44d;" horiz-adv-x="586" 
d="M196 216v67h322v-67h-322zM469 251q0 85 -54 139.5t-134 54.5q-55 0 -100 -27t-68 -74l-73 33q32 66 97 104.5t144 38.5q113 0 190.5 -76.5t77.5 -192.5t-77.5 -192.5t-190.5 -76.5q-80 0 -145.5 40t-97.5 108l73 33q22 -49 68 -77.5t102 -28.5q80 0 134 54.5t54 139.5z
" />
    <glyph glyph-name="uni044E" unicode="&#x44e;" horiz-adv-x="868" 
d="M370 251q0 84 55 137.5t135 53.5t135 -53.5t55 -137.5t-55 -137.5t-135 -53.5t-135 53.5t-55 137.5zM290 251q0 -117 78.5 -193t192 -76t191.5 76t78 193t-78 193t-191.5 76t-192 -76t-78.5 -193zM310 290h-172v210h-80v-500h80v212h172v78z" />
    <glyph glyph-name="uni044F" unicode="&#x44f;" horiz-adv-x="543" 
d="M220 256h186v166h-186q-42 0 -70.5 -23.5t-28.5 -57.5q0 -37 28.5 -61t70.5 -24zM278 183l-142 -183h-98l148 188q-64 4 -106 48t-42 106q0 67 49 112.5t122 45.5h277v-500h-80v183h-128z" />
    <glyph glyph-name="uni0450" unicode="&#x450;" horiz-adv-x="596" 
d="M162 725l56 52l162 -161l-51 -48zM478 288q-6 70 -57 113t-123 43q-69 0 -118.5 -42.5t-58.5 -113.5h357zM121 215q9 -71 60 -114t121 -43q54 0 98 25.5t66 70.5l74 -29q-33 -66 -96.5 -104.5t-140.5 -38.5q-112 0 -188.5 76.5t-76.5 192.5t75 192.5t184 76.5
q110 0 186 -74.5t76 -187.5q0 -18 -5 -43h-433z" />
    <glyph glyph-name="uni0451" unicode="&#x451;" horiz-adv-x="596" 
d="M346 622q0 23 15.5 38.5t38.5 15.5t38.5 -15.5t15.5 -38.5t-15.5 -38.5t-38.5 -15.5t-38.5 15.5t-15.5 38.5zM146 622q0 23 15.5 38.5t38.5 15.5t38.5 -15.5t15.5 -38.5t-15.5 -38.5t-38.5 -15.5t-38.5 15.5t-15.5 38.5zM478 288q-6 70 -57 113t-123 43
q-69 0 -118.5 -42.5t-58.5 -113.5h357zM121 215q9 -71 60 -114t121 -43q54 0 98 25.5t66 70.5l74 -29q-33 -66 -96.5 -104.5t-140.5 -38.5q-112 0 -188.5 76.5t-76.5 192.5t75 192.5t184 76.5q110 0 186 -74.5t76 -187.5q0 -18 -5 -43h-433z" />
    <glyph glyph-name="uni0452" unicode="&#x452;" horiz-adv-x="545" 
d="M60 0v598h-60v72h60v80h80v-80h252v-72h-252v-598h-80zM408 16v280q0 64 -35.5 101t-91.5 37q-58 0 -99.5 -40.5t-41.5 -97.5h-43q0 88 59.5 151.5t146.5 63.5q79 0 132 -55t53 -143v-310q0 -71 -43.5 -116.5t-114.5 -46.5h-74v78h62q43 0 66.5 27.5t23.5 70.5z" />
    <glyph glyph-name="uni0453" unicode="&#x453;" horiz-adv-x="432" 
d="M366 725l-55 55l-159 -164l46 -48zM58 0h80v424h257v76h-337v-500z" />
    <glyph glyph-name="uni0454" unicode="&#x454;" horiz-adv-x="586" 
d="M390 286v-67h-322v67h322zM118 251q0 -85 54 -139.5t133 -54.5q55 0 100 27t69 74l73 -33q-33 -66 -98 -104.5t-143 -38.5q-113 0 -190.5 76.5t-77.5 192.5t77.5 192.5t190.5 76.5q80 0 145.5 -40t97.5 -108l-73 -33q-23 49 -68.5 77.5t-102.5 28.5q-79 0 -133 -54.5
t-54 -139.5z" />
    <glyph glyph-name="uni0455" unicode="&#x455;" horiz-adv-x="449" 
d="M212 217q-171 31 -172 147q0 64 48.5 106.5t122.5 42.5q65 0 119.5 -36t77.5 -97l-76 -26q-15 40 -47.5 63t-72.5 23q-39 0 -65.5 -21t-26.5 -52q0 -29 26 -47t84 -30q182 -33 182 -154q0 -63 -49 -105t-124 -42q-67 0 -122 36t-79 97l76 26q16 -41 49 -64.5t74 -23.5
t68 21.5t27 53.5q0 31 -29 50.5t-91 31.5z" />
    <glyph glyph-name="uni0456" unicode="&#x456;" horiz-adv-x="193" 
d="M42 636q0 23 16 38.5t38.5 15.5t38 -15.5t15.5 -38.5t-15.5 -38.5t-38 -15.5t-38.5 15.5t-16 38.5zM56 0v500h80v-500h-80z" />
    <glyph glyph-name="uni0457" unicode="&#x457;" horiz-adv-x="195" 
d="M143 622q0 23 15.5 38.5t38.5 15.5t38.5 -15.5t15.5 -38.5t-15.5 -38.5t-38.5 -15.5t-38.5 15.5t-15.5 38.5zM-57 622q0 23 15.5 38.5t38.5 15.5t38.5 -15.5t15.5 -38.5t-15.5 -38.5t-38.5 -15.5t-38.5 15.5t-15.5 38.5zM58 0v500h80v-500h-80z" />
    <glyph glyph-name="uni0458" unicode="&#x458;" horiz-adv-x="193" 
d="M42 636q0 23 16 38.5t38.5 15.5t38 -15.5t15.5 -38.5t-15.5 -38.5t-38 -15.5t-38.5 15.5t-16 38.5zM-19 -107q36 0 55.5 24.5t19.5 62.5v520h80v-544q0 -57 -39 -99t-101 -42h-36v78h21z" />
    <glyph glyph-name="uni0459" unicode="&#x459;" horiz-adv-x="926" 
d="M55 78h-21v-78h31q70 0 114 47t44 112v263h195v-422h304q68 0 113.5 42.5t45.5 105.5q0 64 -45.5 108t-113.5 44h-224v200h-355v-328q0 -41 -23 -67.5t-65 -26.5zM712 224q38 0 63.5 -21.5t25.5 -53.5q0 -30 -25.5 -50.5t-63.5 -20.5h-214v146h214z" />
    <glyph glyph-name="uni045A" unicode="&#x45a;" horiz-adv-x="826" 
d="M614 222q38 0 63 -21.5t25 -52.5q0 -30 -25.5 -50t-62.5 -20h-182v144h182zM624 297h-192v203h-80v-500h272q67 0 112.5 42.5t45.5 104.5q0 63 -45.5 106.5t-112.5 43.5zM368 292h-230v208h-80v-500h80v214h230v78z" />
    <glyph glyph-name="uni045B" unicode="&#x45b;" horiz-adv-x="545" 
d="M60 0v598h-60v72h60v80h80v-80h252v-72h-252v-598h-80zM408 0v296q0 64 -35.5 101t-91.5 37q-58 0 -99.5 -40.5t-41.5 -97.5h-43q0 88 59.5 151.5t146.5 63.5q79 0 132 -55t53 -143v-313h-80z" />
    <glyph glyph-name="uni045C" unicode="&#x45c;" horiz-adv-x="501" 
d="M383 725l-55 55l-159 -164l46 -48zM58 0v500h80v-210h26l204 210h104l-238 -250l238 -250h-104l-204 207h-26v-207h-80z" />
    <glyph glyph-name="uni045D" unicode="&#x45d;" horiz-adv-x="565" 
d="M146 725l56 52l162 -161l-51 -48zM508 0h-80v400l-275 -400h-95v500h80v-390l274 390h96v-500z" />
    <glyph glyph-name="uni045E" unicode="&#x45e;" horiz-adv-x="556" 
d="M276 576q-69 0 -117 45.5t-48 109.5h67q0 -40 28 -66t71 -26q44 0 74.5 27t30.5 65h67q0 -62 -51.5 -108.5t-121.5 -46.5zM437 500l-159 -392l-158 392h-89l199 -482l-84 -218h89l291 700h-89z" />
    <glyph glyph-name="uni045F" unicode="&#x45f;" horiz-adv-x="555" 
d="M58 0v500h80v-424h280v424h80v-500h-176v-165h-80v165h-184z" />
    <glyph glyph-name="uni1EA0" unicode="&#x1ea0;" horiz-adv-x="763" 
d="M337 -137.5q0 22.5 15.5 38t38.5 15.5t38.5 -15.5t15.5 -38t-15.5 -38.5t-38.5 -16t-38.5 16t-15.5 38.5zM174 265h413v-76h-413v76zM122 0h-91l299 700h104l299 -700h-91l-260 616z" />
    <glyph glyph-name="uni1EA1" unicode="&#x1ea1;" horiz-adv-x="499" 
d="M195 -137.5q0 22.5 15.5 38t38.5 15.5t38.5 -15.5t15.5 -38t-15.5 -38.5t-38.5 -16t-38.5 16t-15.5 38.5zM362 231l-143 -17q-101 -12 -101 -77q0 -34 28 -54.5t75 -20.5q64 0 102.5 38t38.5 100h35q0 -91 -56 -151t-140 -60q-71 0 -117.5 40.5t-46.5 104.5
q1 62 44.5 101.5t120.5 48.5l160 18v20q0 46 -36 80t-88 34q-47 0 -83 -25t-47 -65l-74 24q19 63 74 102t125 39q85 0 147 -53.5t62 -127.5v-330h-80v231z" />
    <glyph glyph-name="uni1EA2" unicode="&#x1ea2;" horiz-adv-x="763" 
d="M385 765l-38 49l41 27q33 19 33 50q0 20 -13 32.5t-33 12.5q-37 0 -45 -36l-58 17q11 38 39 59.5t66 21.5q48 0 78 -30t30 -77q0 -33 -17.5 -57.5t-55.5 -50.5zM174 265h413v-76h-413v76zM122 0h-91l299 700h104l299 -700h-91l-260 616z" />
    <glyph glyph-name="uni1EA3" unicode="&#x1ea3;" horiz-adv-x="499" 
d="M241 556l-38 49l41 27q33 19 33 50q0 20 -13 32.5t-33 12.5q-37 0 -45 -36l-58 17q11 38 39 59.5t66 21.5q48 0 78 -30t30 -77q0 -33 -17.5 -57.5t-55.5 -50.5zM362 231l-143 -17q-101 -12 -101 -77q0 -34 28 -54.5t75 -20.5q64 0 102.5 38t38.5 100h35q0 -91 -56 -151
t-140 -60q-71 0 -117.5 40.5t-46.5 104.5q1 62 44.5 101.5t120.5 48.5l160 18v20q0 46 -36 80t-88 34q-47 0 -83 -25t-47 -65l-74 24q19 63 74 102t125 39q85 0 147 -53.5t62 -127.5v-330h-80v231z" />
    <glyph glyph-name="uni1EA4" unicode="&#x1ea4;" horiz-adv-x="763" 
d="M710 1113l-55 55l-159 -164l46 -48zM370 974l-162 -152l46 -47l128 123l128 -123l46 47l-162 152h-24zM174 265h413v-76h-413v76zM122 0h-91l299 700h104l299 -700h-91l-260 616z" />
    <glyph glyph-name="uni1EA5" unicode="&#x1ea5;" horiz-adv-x="499" 
d="M565 884l-55 55l-159 -164l46 -48zM226 765l-162 -152l46 -47l128 123l128 -123l46 47l-162 152h-24zM362 231l-143 -17q-101 -12 -101 -77q0 -34 28 -54.5t75 -20.5q64 0 102.5 38t38.5 100h35q0 -91 -56 -151t-140 -60q-71 0 -117.5 40.5t-46.5 104.5q1 62 44.5 101.5
t120.5 48.5l160 18v20q0 46 -36 80t-88 34q-47 0 -83 -25t-47 -65l-74 24q19 63 74 102t125 39q85 0 147 -53.5t62 -127.5v-330h-80v231z" />
    <glyph glyph-name="uni1EA6" unicode="&#x1ea6;" horiz-adv-x="763" 
d="M436 1113l56 52l162 -161l-51 -48zM370 974l-162 -152l46 -47l128 123l128 -123l46 47l-162 152h-24zM174 265h413v-76h-413v76zM122 0h-91l299 700h104l299 -700h-91l-260 616z" />
    <glyph glyph-name="uni1EA7" unicode="&#x1ea7;" horiz-adv-x="499" 
d="M291 877l56 52l162 -161l-51 -48zM226 765l-162 -152l46 -47l128 123l128 -123l46 47l-162 152h-24zM362 231l-143 -17q-101 -12 -101 -77q0 -34 28 -54.5t75 -20.5q64 0 102.5 38t38.5 100h35q0 -91 -56 -151t-140 -60q-71 0 -117.5 40.5t-46.5 104.5q1 62 44.5 101.5
t120.5 48.5l160 18v20q0 46 -36 80t-88 34q-47 0 -83 -25t-47 -65l-74 24q19 63 74 102t125 39q85 0 147 -53.5t62 -127.5v-330h-80v231z" />
    <glyph glyph-name="uni1EA8" unicode="&#x1ea8;" horiz-adv-x="763" 
d="M578 944l-38 49l41 27q33 19 33 50q0 20 -13 32.5t-33 12.5q-37 0 -45 -36l-58 17q11 38 39 59.5t66 21.5q48 0 78 -30t30 -77q0 -33 -17.5 -57.5t-55.5 -50.5zM370 974l-162 -152l46 -47l128 123l128 -123l46 47l-162 152h-24zM174 265h413v-76h-413v76zM122 0h-91
l299 700h104l299 -700h-91l-260 616z" />
    <glyph glyph-name="uni1EA9" unicode="&#x1ea9;" horiz-adv-x="499" 
d="M433 715l-38 49l41 27q33 19 33 50q0 20 -13 32.5t-33 12.5q-37 0 -45 -36l-58 17q11 38 39 59.5t66 21.5q48 0 78 -30t30 -77q0 -33 -17.5 -57.5t-55.5 -50.5zM226 765l-162 -152l46 -47l128 123l128 -123l46 47l-162 152h-24zM362 231l-143 -17q-101 -12 -101 -77
q0 -34 28 -54.5t75 -20.5q64 0 102.5 38t38.5 100h35q0 -91 -56 -151t-140 -60q-71 0 -117.5 40.5t-46.5 104.5q1 62 44.5 101.5t120.5 48.5l160 18v20q0 46 -36 80t-88 34q-47 0 -83 -25t-47 -65l-74 24q19 63 74 102t125 39q85 0 147 -53.5t62 -127.5v-330h-80v231z" />
    <glyph glyph-name="uni1EAA" unicode="&#x1eaa;" horiz-adv-x="763" 
d="M305 1171q-40 0 -68 -32t-39 -88l59 -18q6 35 19 54.5t31 19.5q13 0 24.5 -7t30.5 -28q26 -25 47 -35t46 -10q40 0 68.5 32t38.5 88l-59 18q-14 -71 -55 -71q-14 0 -25.5 7t-29.5 27q-25 24 -44.5 33.5t-43.5 9.5zM370 974l-162 -152l46 -47l128 123l128 -123l46 47
l-162 152h-24zM174 265h413v-76h-413v76zM122 0h-91l299 700h104l299 -700h-91l-260 616z" />
    <glyph glyph-name="uni1EAB" unicode="&#x1eab;" horiz-adv-x="499" 
d="M163 972q-40 0 -68 -32t-39 -88l59 -18q6 35 19 54.5t31 19.5q13 0 24.5 -7t30.5 -28q26 -25 47 -35t46 -10q40 0 68.5 32t38.5 88l-59 18q-14 -71 -55 -71q-14 0 -25.5 7t-29.5 27q-25 24 -44.5 33.5t-43.5 9.5zM226 765l-162 -152l46 -47l128 123l128 -123l46 47
l-162 152h-24zM362 231l-143 -17q-101 -12 -101 -77q0 -34 28 -54.5t75 -20.5q64 0 102.5 38t38.5 100h35q0 -91 -56 -151t-140 -60q-71 0 -117.5 40.5t-46.5 104.5q1 62 44.5 101.5t120.5 48.5l160 18v20q0 46 -36 80t-88 34q-47 0 -83 -25t-47 -65l-74 24q19 63 74 102
t125 39q85 0 147 -53.5t62 -127.5v-330h-80v231z" />
    <glyph glyph-name="uni1EAC" unicode="&#x1eac;" horiz-adv-x="763" 
d="M370 976l-162 -152l46 -47l128 123l128 -123l46 47l-162 152h-24zM337 -137.5q0 22.5 15.5 38t38.5 15.5t38.5 -15.5t15.5 -38t-15.5 -38.5t-38.5 -16t-38.5 16t-15.5 38.5zM174 265h413v-76h-413v76zM122 0h-91l299 700h104l299 -700h-91l-260 616z" />
    <glyph glyph-name="uni1EAD" unicode="&#x1ead;" horiz-adv-x="499" 
d="M226 774l-162 -152l46 -47l128 123l128 -123l46 47l-162 152h-24zM195 -137.5q0 22.5 15.5 38t38.5 15.5t38.5 -15.5t15.5 -38t-15.5 -38.5t-38.5 -16t-38.5 16t-15.5 38.5zM362 231l-143 -17q-101 -12 -101 -77q0 -34 28 -54.5t75 -20.5q64 0 102.5 38t38.5 100h35
q0 -91 -56 -151t-140 -60q-71 0 -117.5 40.5t-46.5 104.5q1 62 44.5 101.5t120.5 48.5l160 18v20q0 46 -36 80t-88 34q-47 0 -83 -25t-47 -65l-74 24q19 63 74 102t125 39q85 0 147 -53.5t62 -127.5v-330h-80v231z" />
    <glyph glyph-name="uni1EAE" unicode="&#x1eae;" horiz-adv-x="763" 
d="M518 1155l-55 55l-159 -164l46 -48zM381 785q-69 0 -117 45.5t-48 109.5h67q0 -40 28 -66t71 -26q44 0 74.5 27t30.5 65h67q0 -62 -51.5 -108.5t-121.5 -46.5zM174 265h413v-76h-413v76zM122 0h-91l299 700h104l299 -700h-91l-260 616z" />
    <glyph glyph-name="uni1EAF" unicode="&#x1eaf;" horiz-adv-x="499" 
d="M373 928l-55 55l-159 -164l46 -48zM237 576q-69 0 -117 45.5t-48 109.5h67q0 -40 28 -66t71 -26q44 0 74.5 27t30.5 65h67q0 -62 -51.5 -108.5t-121.5 -46.5zM362 231l-143 -17q-101 -12 -101 -77q0 -34 28 -54.5t75 -20.5q64 0 102.5 38t38.5 100h35q0 -91 -56 -151
t-140 -60q-71 0 -117.5 40.5t-46.5 104.5q1 62 44.5 101.5t120.5 48.5l160 18v20q0 46 -36 80t-88 34q-47 0 -83 -25t-47 -65l-74 24q19 63 74 102t125 39q85 0 147 -53.5t62 -127.5v-330h-80v231z" />
    <glyph glyph-name="uni1EB0" unicode="&#x1eb0;" horiz-adv-x="763" 
d="M244 1155l56 52l162 -161l-51 -48zM381 785q-69 0 -117 45.5t-48 109.5h67q0 -40 28 -66t71 -26q44 0 74.5 27t30.5 65h67q0 -62 -51.5 -108.5t-121.5 -46.5zM174 265h413v-76h-413v76zM122 0h-91l299 700h104l299 -700h-91l-260 616z" />
    <glyph glyph-name="uni1EB1" unicode="&#x1eb1;" horiz-adv-x="499" 
d="M99 928l56 52l162 -161l-51 -48zM237 576q-69 0 -117 45.5t-48 109.5h67q0 -40 28 -66t71 -26q44 0 74.5 27t30.5 65h67q0 -62 -51.5 -108.5t-121.5 -46.5zM362 231l-143 -17q-101 -12 -101 -77q0 -34 28 -54.5t75 -20.5q64 0 102.5 38t38.5 100h35q0 -91 -56 -151
t-140 -60q-71 0 -117.5 40.5t-46.5 104.5q1 62 44.5 101.5t120.5 48.5l160 18v20q0 46 -36 80t-88 34q-47 0 -83 -25t-47 -65l-74 24q19 63 74 102t125 39q85 0 147 -53.5t62 -127.5v-330h-80v231z" />
    <glyph glyph-name="uni1EB2" unicode="&#x1eb2;" horiz-adv-x="763" 
d="M386 986l-38 49l41 27q33 19 33 50q0 20 -13 32.5t-33 12.5q-37 0 -45 -36l-58 17q11 38 39 59.5t66 21.5q48 0 78 -30t30 -77q0 -33 -17.5 -57.5t-55.5 -50.5zM381 785q-69 0 -117 45.5t-48 109.5h67q0 -40 28 -66t71 -26q44 0 74.5 27t30.5 65h67q0 -62 -51.5 -108.5
t-121.5 -46.5zM174 265h413v-76h-413v76zM122 0h-91l299 700h104l299 -700h-91l-260 616z" />
    <glyph glyph-name="uni1EB3" unicode="&#x1eb3;" horiz-adv-x="499" 
d="M241 759l-38 49l41 27q33 19 33 50q0 20 -13 32.5t-33 12.5q-37 0 -45 -36l-58 17q11 38 39 59.5t66 21.5q48 0 78 -30t30 -77q0 -33 -17.5 -57.5t-55.5 -50.5zM237 576q-69 0 -117 45.5t-48 109.5h67q0 -40 28 -66t71 -26q44 0 74.5 27t30.5 65h67q0 -62 -51.5 -108.5
t-121.5 -46.5zM362 231l-143 -17q-101 -12 -101 -77q0 -34 28 -54.5t75 -20.5q64 0 102.5 38t38.5 100h35q0 -91 -56 -151t-140 -60q-71 0 -117.5 40.5t-46.5 104.5q1 62 44.5 101.5t120.5 48.5l160 18v20q0 46 -36 80t-88 34q-47 0 -83 -25t-47 -65l-74 24q19 63 74 102
t125 39q85 0 147 -53.5t62 -127.5v-330h-80v231z" />
    <glyph glyph-name="uni1EB4" unicode="&#x1eb4;" horiz-adv-x="763" 
d="M307 1142q-40 0 -68 -32t-39 -88l59 -18q6 35 19 54.5t31 19.5q13 0 24.5 -7t30.5 -28q26 -25 47 -35t46 -10q40 0 68.5 32t38.5 88l-59 18q-14 -71 -55 -71q-14 0 -25.5 7t-29.5 27q-25 24 -44.5 33.5t-43.5 9.5zM381 785q-69 0 -117 45.5t-48 109.5h67q0 -40 28 -66
t71 -26q44 0 74.5 27t30.5 65h67q0 -62 -51.5 -108.5t-121.5 -46.5zM174 265h413v-76h-413v76zM122 0h-91l299 700h104l299 -700h-91l-260 616z" />
    <glyph glyph-name="uni1EB5" unicode="&#x1eb5;" horiz-adv-x="499" 
d="M163 915q-40 0 -68 -32t-39 -88l59 -18q6 35 19 54.5t31 19.5q13 0 24.5 -7t30.5 -28q26 -25 47 -35t46 -10q40 0 68.5 32t38.5 88l-59 18q-14 -71 -55 -71q-14 0 -25.5 7t-29.5 27q-25 24 -44.5 33.5t-43.5 9.5zM237 576q-69 0 -117 45.5t-48 109.5h67q0 -40 28 -66
t71 -26q44 0 74.5 27t30.5 65h67q0 -62 -51.5 -108.5t-121.5 -46.5zM362 231l-143 -17q-101 -12 -101 -77q0 -34 28 -54.5t75 -20.5q64 0 102.5 38t38.5 100h35q0 -91 -56 -151t-140 -60q-71 0 -117.5 40.5t-46.5 104.5q1 62 44.5 101.5t120.5 48.5l160 18v20q0 46 -36 80
t-88 34q-47 0 -83 -25t-47 -65l-74 24q19 63 74 102t125 39q85 0 147 -53.5t62 -127.5v-330h-80v231z" />
    <glyph glyph-name="uni1EB6" unicode="&#x1eb6;" horiz-adv-x="763" 
d="M377 784q-69 0 -117 45.5t-48 109.5h67q0 -40 28 -66t71 -26q44 0 74.5 27t30.5 65h67q0 -62 -51.5 -108.5t-121.5 -46.5zM337 -137.5q0 22.5 15.5 38t38.5 15.5t38.5 -15.5t15.5 -38t-15.5 -38.5t-38.5 -16t-38.5 16t-15.5 38.5zM174 265h413v-76h-413v76zM122 0h-91
l299 700h104l299 -700h-91l-260 616z" />
    <glyph glyph-name="uni1EB7" unicode="&#x1eb7;" horiz-adv-x="499" 
d="M234 584q-69 0 -117 45.5t-48 109.5h67q0 -40 28 -66t71 -26q44 0 74.5 27t30.5 65h67q0 -62 -51.5 -108.5t-121.5 -46.5zM195 -137.5q0 22.5 15.5 38t38.5 15.5t38.5 -15.5t15.5 -38t-15.5 -38.5t-38.5 -16t-38.5 16t-15.5 38.5zM362 231l-143 -17q-101 -12 -101 -77
q0 -34 28 -54.5t75 -20.5q64 0 102.5 38t38.5 100h35q0 -91 -56 -151t-140 -60q-71 0 -117.5 40.5t-46.5 104.5q1 62 44.5 101.5t120.5 48.5l160 18v20q0 46 -36 80t-88 34q-47 0 -83 -25t-47 -65l-74 24q19 63 74 102t125 39q85 0 147 -53.5t62 -127.5v-330h-80v231z" />
    <glyph glyph-name="uni1EB8" unicode="&#x1eb8;" horiz-adv-x="561" 
d="M247 -137.5q0 22.5 15.5 38t38.5 15.5t38.5 -15.5t15.5 -38t-15.5 -38.5t-38.5 -16t-38.5 16t-15.5 38.5zM138 390h360v-78h-360v-234h384v-78h-464v700h464v-78h-384v-232z" />
    <glyph glyph-name="uni1EB9" unicode="&#x1eb9;" horiz-adv-x="596" 
d="M245 -137.5q0 22.5 15.5 38t38.5 15.5t38.5 -15.5t15.5 -38t-15.5 -38.5t-38.5 -16t-38.5 16t-15.5 38.5zM478 288q-6 70 -57 113t-123 43q-69 0 -118.5 -42.5t-58.5 -113.5h357zM121 215q9 -71 60 -114t121 -43q54 0 98 25.5t66 70.5l74 -29q-33 -66 -96.5 -104.5
t-140.5 -38.5q-112 0 -188.5 76.5t-76.5 192.5t75 192.5t184 76.5q110 0 186 -74.5t76 -187.5q0 -18 -5 -43h-433z" />
    <glyph glyph-name="uni1EBA" unicode="&#x1eba;" horiz-adv-x="561" 
d="M296 765l-38 49l41 27q33 19 33 50q0 20 -13 32.5t-33 12.5q-37 0 -45 -36l-58 17q11 38 39 59.5t66 21.5q48 0 78 -30t30 -77q0 -33 -17.5 -57.5t-55.5 -50.5zM138 390h360v-78h-360v-234h384v-78h-464v700h464v-78h-384v-232z" />
    <glyph glyph-name="uni1EBB" unicode="&#x1ebb;" horiz-adv-x="596" 
d="M300 556l-38 49l41 27q33 19 33 50q0 20 -13 32.5t-33 12.5q-37 0 -45 -36l-58 17q11 38 39 59.5t66 21.5q48 0 78 -30t30 -77q0 -33 -17.5 -57.5t-55.5 -50.5zM478 288q-6 70 -57 113t-123 43q-69 0 -118.5 -42.5t-58.5 -113.5h357zM121 215q9 -71 60 -114t121 -43
q54 0 98 25.5t66 70.5l74 -29q-33 -66 -96.5 -104.5t-140.5 -38.5q-112 0 -188.5 76.5t-76.5 192.5t75 192.5t184 76.5q110 0 186 -74.5t76 -187.5q0 -18 -5 -43h-433z" />
    <glyph glyph-name="uni1EBC" unicode="&#x1ebc;" horiz-adv-x="561" 
d="M217 921q-40 0 -68 -32t-39 -88l59 -18q6 35 19 54.5t31 19.5q13 0 24.5 -7t30.5 -28q26 -25 47 -35t46 -10q40 0 68.5 32t38.5 88l-59 18q-14 -71 -55 -71q-14 0 -25.5 7t-29.5 27q-25 24 -44.5 33.5t-43.5 9.5zM138 390h360v-78h-360v-234h384v-78h-464v700h464v-78
h-384v-232z" />
    <glyph glyph-name="uni1EBD" unicode="&#x1ebd;" horiz-adv-x="596" 
d="M221 712q-40 0 -68 -32t-39 -88l59 -18q6 35 19 54.5t31 19.5q13 0 24.5 -7t30.5 -28q26 -25 47 -35t46 -10q40 0 68.5 32t38.5 88l-59 18q-14 -71 -55 -71q-14 0 -25.5 7t-29.5 27q-25 24 -44.5 33.5t-43.5 9.5zM478 288q-6 70 -57 113t-123 43q-69 0 -118.5 -42.5
t-58.5 -113.5h357zM121 215q9 -71 60 -114t121 -43q54 0 98 25.5t66 70.5l74 -29q-33 -66 -96.5 -104.5t-140.5 -38.5q-112 0 -188.5 76.5t-76.5 192.5t75 192.5t184 76.5q110 0 186 -74.5t76 -187.5q0 -18 -5 -43h-433z" />
    <glyph glyph-name="uni1EBE" unicode="&#x1ebe;" horiz-adv-x="561" 
d="M624 1089l-55 55l-159 -164l46 -48zM280 974l-162 -152l46 -47l128 123l128 -123l46 47l-162 152h-24zM138 390h360v-78h-360v-234h384v-78h-464v700h464v-78h-384v-232z" />
    <glyph glyph-name="uni1EBF" unicode="&#x1ebf;" horiz-adv-x="596" 
d="M632 877l-55 55l-159 -164l46 -48zM284 765l-162 -152l46 -47l128 123l128 -123l46 47l-162 152h-24zM478 288q-6 70 -57 113t-123 43q-69 0 -118.5 -42.5t-58.5 -113.5h357zM121 215q9 -71 60 -114t121 -43q54 0 98 25.5t66 70.5l74 -29q-33 -66 -96.5 -104.5
t-140.5 -38.5q-112 0 -188.5 76.5t-76.5 192.5t75 192.5t184 76.5q110 0 186 -74.5t76 -187.5q0 -18 -5 -43h-433z" />
    <glyph glyph-name="uni1EC0" unicode="&#x1ec0;" horiz-adv-x="561" 
d="M350 1089l56 52l162 -161l-51 -48zM280 974l-162 -152l46 -47l128 123l128 -123l46 47l-162 152h-24zM138 390h360v-78h-360v-234h384v-78h-464v700h464v-78h-384v-232z" />
    <glyph glyph-name="uni1EC1" unicode="&#x1ec1;" horiz-adv-x="596" 
d="M358 877l56 52l162 -161l-51 -48zM284 765l-162 -152l46 -47l128 123l128 -123l46 47l-162 152h-24zM478 288q-6 70 -57 113t-123 43q-69 0 -118.5 -42.5t-58.5 -113.5h357zM121 215q9 -71 60 -114t121 -43q54 0 98 25.5t66 70.5l74 -29q-33 -66 -96.5 -104.5
t-140.5 -38.5q-112 0 -188.5 76.5t-76.5 192.5t75 192.5t184 76.5q110 0 186 -74.5t76 -187.5q0 -18 -5 -43h-433z" />
    <glyph glyph-name="uni1EC2" unicode="&#x1ec2;" horiz-adv-x="561" 
d="M492 920l-38 49l41 27q33 19 33 50q0 20 -13 32.5t-33 12.5q-37 0 -45 -36l-58 17q11 38 39 59.5t66 21.5q48 0 78 -30t30 -77q0 -33 -17.5 -57.5t-55.5 -50.5zM280 974l-162 -152l46 -47l128 123l128 -123l46 47l-162 152h-24zM138 390h360v-78h-360v-234h384v-78h-464
v700h464v-78h-384v-232z" />
    <glyph glyph-name="uni1EC3" unicode="&#x1ec3;" horiz-adv-x="596" 
d="M500 708l-38 49l41 27q33 19 33 50q0 20 -13 32.5t-33 12.5q-37 0 -45 -36l-58 17q11 38 39 59.5t66 21.5q48 0 78 -30t30 -77q0 -33 -17.5 -57.5t-55.5 -50.5zM284 765l-162 -152l46 -47l128 123l128 -123l46 47l-162 152h-24zM478 288q-6 70 -57 113t-123 43
q-69 0 -118.5 -42.5t-58.5 -113.5h357zM121 215q9 -71 60 -114t121 -43q54 0 98 25.5t66 70.5l74 -29q-33 -66 -96.5 -104.5t-140.5 -38.5q-112 0 -188.5 76.5t-76.5 192.5t75 192.5t184 76.5q110 0 186 -74.5t76 -187.5q0 -18 -5 -43h-433z" />
    <glyph glyph-name="uni1EC4" unicode="&#x1ec4;" horiz-adv-x="561" 
d="M210 1171q-40 0 -68 -32t-39 -88l59 -18q6 35 19 54.5t31 19.5q13 0 24.5 -7t30.5 -28q26 -25 47 -35t46 -10q40 0 68.5 32t38.5 88l-59 18q-14 -71 -55 -71q-14 0 -25.5 7t-29.5 27q-25 24 -44.5 33.5t-43.5 9.5zM280 974l-162 -152l46 -47l128 123l128 -123l46 47
l-162 152h-24zM138 390h360v-78h-360v-234h384v-78h-464v700h464v-78h-384v-232z" />
    <glyph glyph-name="uni1EC5" unicode="&#x1ec5;" horiz-adv-x="596" 
d="M224 972q-40 0 -68 -32t-39 -88l59 -18q6 35 19 54.5t31 19.5q13 0 24.5 -7t30.5 -28q26 -25 47 -35t46 -10q40 0 68.5 32t38.5 88l-59 18q-14 -71 -55 -71q-14 0 -25.5 7t-29.5 27q-25 24 -44.5 33.5t-43.5 9.5zM284 765l-162 -152l46 -47l128 123l128 -123l46 47
l-162 152h-24zM478 288q-6 70 -57 113t-123 43q-69 0 -118.5 -42.5t-58.5 -113.5h357zM121 215q9 -71 60 -114t121 -43q54 0 98 25.5t66 70.5l74 -29q-33 -66 -96.5 -104.5t-140.5 -38.5q-112 0 -188.5 76.5t-76.5 192.5t75 192.5t184 76.5q110 0 186 -74.5t76 -187.5
q0 -18 -5 -43h-433z" />
    <glyph glyph-name="uni1EC6" unicode="&#x1ec6;" horiz-adv-x="561" 
d="M280 976l-162 -152l46 -47l128 123l128 -123l46 47l-162 152h-24zM247 -137.5q0 22.5 15.5 38t38.5 15.5t38.5 -15.5t15.5 -38t-15.5 -38.5t-38.5 -16t-38.5 16t-15.5 38.5zM138 390h360v-78h-360v-234h384v-78h-464v700h464v-78h-384v-232z" />
    <glyph glyph-name="uni1EC7" unicode="&#x1ec7;" horiz-adv-x="596" 
d="M283 774l-162 -152l46 -47l128 123l128 -123l46 47l-162 152h-24zM245 -137.5q0 22.5 15.5 38t38.5 15.5t38.5 -15.5t15.5 -38t-15.5 -38.5t-38.5 -16t-38.5 16t-15.5 38.5zM478 288q-6 70 -57 113t-123 43q-69 0 -118.5 -42.5t-58.5 -113.5h357zM121 215q9 -71 60 -114
t121 -43q54 0 98 25.5t66 70.5l74 -29q-33 -66 -96.5 -104.5t-140.5 -38.5q-112 0 -188.5 76.5t-76.5 192.5t75 192.5t184 76.5q110 0 186 -74.5t76 -187.5q0 -18 -5 -43h-433z" />
    <glyph glyph-name="uni1EC8" unicode="&#x1ec8;" horiz-adv-x="195" 
d="M100 765l-38 49l41 27q33 19 33 50q0 20 -13 32.5t-33 12.5q-37 0 -45 -36l-58 17q11 38 39 59.5t66 21.5q48 0 78 -30t30 -77q0 -33 -17.5 -57.5t-55.5 -50.5zM138 0h-80v700h80v-700z" />
    <glyph glyph-name="uni1EC9" unicode="&#x1ec9;" horiz-adv-x="195" 
d="M100 556l-38 49l41 27q33 19 33 50q0 20 -13 32.5t-33 12.5q-37 0 -45 -36l-58 17q11 38 39 59.5t66 21.5q48 0 78 -30t30 -77q0 -33 -17.5 -57.5t-55.5 -50.5zM58 0v500h80v-500h-80z" />
    <glyph glyph-name="uni1ECA" unicode="&#x1eca;" horiz-adv-x="195" 
d="M43 -137.5q0 22.5 15.5 38t38.5 15.5t38.5 -15.5t15.5 -38t-15.5 -38.5t-38.5 -16t-38.5 16t-15.5 38.5zM138 0h-80v700h80v-700z" />
    <glyph glyph-name="uni1ECB" unicode="&#x1ecb;" horiz-adv-x="193" 
d="M43 -137.5q0 22.5 15.5 38t38.5 15.5t38.5 -15.5t15.5 -38t-15.5 -38.5t-38.5 -16t-38.5 16t-15.5 38.5zM42 636q0 23 16 38.5t38.5 15.5t38 -15.5t15.5 -38.5t-15.5 -38.5t-38 -15.5t-38.5 15.5t-16 38.5zM56 0v500h80v-500h-80z" />
    <glyph glyph-name="uni1ECC" unicode="&#x1ecc;" horiz-adv-x="788" 
d="M340 -137.5q0 22.5 15.5 38t38.5 15.5t38.5 -15.5t15.5 -38t-15.5 -38.5t-38.5 -16t-38.5 16t-15.5 38.5zM118 353q0 -128 80 -209.5t196 -81.5t196 81.5t80 209.5q0 125 -80 206t-196 81t-196 -81t-80 -206zM38 353q0 79 28 148t76 116.5t113.5 75t138.5 27.5
t138.5 -27.5t113.5 -75t76 -116.5t28 -148q0 -80 -28 -149.5t-76 -118t-113.5 -76t-138.5 -27.5t-138.5 27.5t-113.5 76t-76 118t-28 149.5z" />
    <glyph glyph-name="uni1ECD" unicode="&#x1ecd;" horiz-adv-x="618" 
d="M253 -137.5q0 22.5 15.5 38t38.5 15.5t38.5 -15.5t15.5 -38t-15.5 -38.5t-38.5 -16t-38.5 16t-15.5 38.5zM118 251q0 -84 55.5 -137.5t135.5 -53.5t135.5 53.5t55.5 137.5t-55.5 137.5t-135.5 53.5t-135.5 -53.5t-55.5 -137.5zM38 251q0 117 78.5 193t192.5 76t192.5 -76
t78.5 -193t-78.5 -193t-192.5 -76t-192.5 76t-78.5 193z" />
    <glyph glyph-name="uni1ECE" unicode="&#x1ece;" horiz-adv-x="788" 
d="M397 765l-38 49l41 27q33 19 33 50q0 20 -13 32.5t-33 12.5q-37 0 -45 -36l-58 17q11 38 39 59.5t66 21.5q48 0 78 -30t30 -77q0 -33 -17.5 -57.5t-55.5 -50.5zM118 353q0 -128 80 -209.5t196 -81.5t196 81.5t80 209.5q0 125 -80 206t-196 81t-196 -81t-80 -206zM38 353
q0 79 28 148t76 116.5t113.5 75t138.5 27.5t138.5 -27.5t113.5 -75t76 -116.5t28 -148q0 -80 -28 -149.5t-76 -118t-113.5 -76t-138.5 -27.5t-138.5 27.5t-113.5 76t-76 118t-28 149.5z" />
    <glyph glyph-name="uni1ECF" unicode="&#x1ecf;" horiz-adv-x="618" 
d="M311 556l-38 49l41 27q33 19 33 50q0 20 -13 32.5t-33 12.5q-37 0 -45 -36l-58 17q11 38 39 59.5t66 21.5q48 0 78 -30t30 -77q0 -33 -17.5 -57.5t-55.5 -50.5zM118 251q0 -84 55.5 -137.5t135.5 -53.5t135.5 53.5t55.5 137.5t-55.5 137.5t-135.5 53.5t-135.5 -53.5
t-55.5 -137.5zM38 251q0 117 78.5 193t192.5 76t192.5 -76t78.5 -193t-78.5 -193t-192.5 -76t-192.5 76t-78.5 193z" />
    <glyph glyph-name="uni1ED0" unicode="&#x1ed0;" horiz-adv-x="788" 
d="M744 1082l-55 55l-159 -164l46 -48zM382 974l-162 -152l46 -47l128 123l128 -123l46 47l-162 152h-24zM118 353q0 -128 80 -209.5t196 -81.5t196 81.5t80 209.5q0 125 -80 206t-196 81t-196 -81t-80 -206zM38 353q0 79 28 148t76 116.5t113.5 75t138.5 27.5t138.5 -27.5
t113.5 -75t76 -116.5t28 -148q0 -80 -28 -149.5t-76 -118t-113.5 -76t-138.5 -27.5t-138.5 27.5t-113.5 76t-76 118t-28 149.5z" />
    <glyph glyph-name="uni1ED1" unicode="&#x1ed1;" horiz-adv-x="618" 
d="M644 873l-55 55l-159 -164l46 -48zM296 765l-162 -152l46 -47l128 123l128 -123l46 47l-162 152h-24zM118 251q0 -84 55.5 -137.5t135.5 -53.5t135.5 53.5t55.5 137.5t-55.5 137.5t-135.5 53.5t-135.5 -53.5t-55.5 -137.5zM38 251q0 117 78.5 193t192.5 76t192.5 -76
t78.5 -193t-78.5 -193t-192.5 -76t-192.5 76t-78.5 193z" />
    <glyph glyph-name="uni1ED2" unicode="&#x1ed2;" horiz-adv-x="788" 
d="M470 1082l56 52l162 -161l-51 -48zM382 974l-162 -152l46 -47l128 123l128 -123l46 47l-162 152h-24zM118 353q0 -128 80 -209.5t196 -81.5t196 81.5t80 209.5q0 125 -80 206t-196 81t-196 -81t-80 -206zM38 353q0 79 28 148t76 116.5t113.5 75t138.5 27.5t138.5 -27.5
t113.5 -75t76 -116.5t28 -148q0 -80 -28 -149.5t-76 -118t-113.5 -76t-138.5 -27.5t-138.5 27.5t-113.5 76t-76 118t-28 149.5z" />
    <glyph glyph-name="uni1ED3" unicode="&#x1ed3;" horiz-adv-x="618" 
d="M370 873l56 52l162 -161l-51 -48zM296 765l-162 -152l46 -47l128 123l128 -123l46 47l-162 152h-24zM118 251q0 -84 55.5 -137.5t135.5 -53.5t135.5 53.5t55.5 137.5t-55.5 137.5t-135.5 53.5t-135.5 -53.5t-55.5 -137.5zM38 251q0 117 78.5 193t192.5 76t192.5 -76
t78.5 -193t-78.5 -193t-192.5 -76t-192.5 76t-78.5 193z" />
    <glyph glyph-name="uni1ED4" unicode="&#x1ed4;" horiz-adv-x="788" 
d="M612 913l-38 49l41 27q33 19 33 50q0 20 -13 32.5t-33 12.5q-37 0 -45 -36l-58 17q11 38 39 59.5t66 21.5q48 0 78 -30t30 -77q0 -33 -17.5 -57.5t-55.5 -50.5zM382 974l-162 -152l46 -47l128 123l128 -123l46 47l-162 152h-24zM118 353q0 -128 80 -209.5t196 -81.5
t196 81.5t80 209.5q0 125 -80 206t-196 81t-196 -81t-80 -206zM38 353q0 79 28 148t76 116.5t113.5 75t138.5 27.5t138.5 -27.5t113.5 -75t76 -116.5t28 -148q0 -80 -28 -149.5t-76 -118t-113.5 -76t-138.5 -27.5t-138.5 27.5t-113.5 76t-76 118t-28 149.5z" />
    <glyph glyph-name="uni1ED5" unicode="&#x1ed5;" horiz-adv-x="618" 
d="M512 704l-38 49l41 27q33 19 33 50q0 20 -13 32.5t-33 12.5q-37 0 -45 -36l-58 17q11 38 39 59.5t66 21.5q48 0 78 -30t30 -77q0 -33 -17.5 -57.5t-55.5 -50.5zM296 765l-162 -152l46 -47l128 123l128 -123l46 47l-162 152h-24zM118 251q0 -84 55.5 -137.5t135.5 -53.5
t135.5 53.5t55.5 137.5t-55.5 137.5t-135.5 53.5t-135.5 -53.5t-55.5 -137.5zM38 251q0 117 78.5 193t192.5 76t192.5 -76t78.5 -193t-78.5 -193t-192.5 -76t-192.5 76t-78.5 193z" />
    <glyph glyph-name="uni1ED6" unicode="&#x1ed6;" horiz-adv-x="788" 
d="M319 1171q-40 0 -68 -32t-39 -88l59 -18q6 35 19 54.5t31 19.5q13 0 24.5 -7t30.5 -28q26 -25 47 -35t46 -10q40 0 68.5 32t38.5 88l-59 18q-14 -71 -55 -71q-14 0 -25.5 7t-29.5 27q-25 24 -44.5 33.5t-43.5 9.5zM382 974l-162 -152l46 -47l128 123l128 -123l46 47
l-162 152h-24zM118 353q0 -128 80 -209.5t196 -81.5t196 81.5t80 209.5q0 125 -80 206t-196 81t-196 -81t-80 -206zM38 353q0 79 28 148t76 116.5t113.5 75t138.5 27.5t138.5 -27.5t113.5 -75t76 -116.5t28 -148q0 -80 -28 -149.5t-76 -118t-113.5 -76t-138.5 -27.5
t-138.5 27.5t-113.5 76t-76 118t-28 149.5z" />
    <glyph glyph-name="uni1ED7" unicode="&#x1ed7;" horiz-adv-x="618" 
d="M233 972q-40 0 -68 -32t-39 -88l59 -18q6 35 19 54.5t31 19.5q13 0 24.5 -7t30.5 -28q26 -25 47 -35t46 -10q40 0 68.5 32t38.5 88l-59 18q-14 -71 -55 -71q-14 0 -25.5 7t-29.5 27q-25 24 -44.5 33.5t-43.5 9.5zM296 765l-162 -152l46 -47l128 123l128 -123l46 47
l-162 152h-24zM118 251q0 -84 55.5 -137.5t135.5 -53.5t135.5 53.5t55.5 137.5t-55.5 137.5t-135.5 53.5t-135.5 -53.5t-55.5 -137.5zM38 251q0 117 78.5 193t192.5 76t192.5 -76t78.5 -193t-78.5 -193t-192.5 -76t-192.5 76t-78.5 193z" />
    <glyph glyph-name="uni1ED8" unicode="&#x1ed8;" horiz-adv-x="788" 
d="M382 976l-162 -152l46 -47l128 123l128 -123l46 47l-162 152h-24zM340 -137.5q0 22.5 15.5 38t38.5 15.5t38.5 -15.5t15.5 -38t-15.5 -38.5t-38.5 -16t-38.5 16t-15.5 38.5zM118 353q0 -128 80 -209.5t196 -81.5t196 81.5t80 209.5q0 125 -80 206t-196 81t-196 -81
t-80 -206zM38 353q0 79 28 148t76 116.5t113.5 75t138.5 27.5t138.5 -27.5t113.5 -75t76 -116.5t28 -148q0 -80 -28 -149.5t-76 -118t-113.5 -76t-138.5 -27.5t-138.5 27.5t-113.5 76t-76 118t-28 149.5z" />
    <glyph glyph-name="uni1ED9" unicode="&#x1ed9;" horiz-adv-x="618" 
d="M297 774l-162 -152l46 -47l128 123l128 -123l46 47l-162 152h-24zM253 -137.5q0 22.5 15.5 38t38.5 15.5t38.5 -15.5t15.5 -38t-15.5 -38.5t-38.5 -16t-38.5 16t-15.5 38.5zM118 251q0 -84 55.5 -137.5t135.5 -53.5t135.5 53.5t55.5 137.5t-55.5 137.5t-135.5 53.5
t-135.5 -53.5t-55.5 -137.5zM38 251q0 117 78.5 193t192.5 76t192.5 -76t78.5 -193t-78.5 -193t-192.5 -76t-192.5 76t-78.5 193z" />
    <glyph glyph-name="uni1EDA" unicode="&#x1eda;" horiz-adv-x="794" 
d="M529 934l-55 55l-159 -164l46 -48zM569 603v58h60q25 0 39 12.5t14 35.5q0 26 -25 45l48 42q42 -27 42 -84q0 -45 -30.5 -77t-73.5 -32h-74zM118 353q0 -128 80 -209.5t196 -81.5t196 81.5t80 209.5q0 125 -80 206t-196 81t-196 -81t-80 -206zM38 353q0 79 28 148
t76 116.5t113.5 75t138.5 27.5t138.5 -27.5t113.5 -75t76 -116.5t28 -148q0 -80 -28 -149.5t-76 -118t-113.5 -76t-138.5 -27.5t-138.5 27.5t-113.5 76t-76 118t-28 149.5z" />
    <glyph glyph-name="uni1EDB" unicode="&#x1edb;" horiz-adv-x="640" 
d="M443 725l-55 55l-159 -164l46 -48zM468 395v58h60q25 0 39 12.5t14 35.5q0 26 -25 45l48 42q42 -27 42 -84q0 -45 -30.5 -77t-73.5 -32h-74zM118 251q0 -84 55.5 -137.5t135.5 -53.5t135.5 53.5t55.5 137.5t-55.5 137.5t-135.5 53.5t-135.5 -53.5t-55.5 -137.5zM38 251
q0 117 78.5 193t192.5 76t192.5 -76t78.5 -193t-78.5 -193t-192.5 -76t-192.5 76t-78.5 193z" />
    <glyph glyph-name="uni1EDC" unicode="&#x1edc;" horiz-adv-x="794" 
d="M255 934l56 52l162 -161l-51 -48zM569 603v58h60q25 0 39 12.5t14 35.5q0 26 -25 45l48 42q42 -27 42 -84q0 -45 -30.5 -77t-73.5 -32h-74zM118 353q0 -128 80 -209.5t196 -81.5t196 81.5t80 209.5q0 125 -80 206t-196 81t-196 -81t-80 -206zM38 353q0 79 28 148
t76 116.5t113.5 75t138.5 27.5t138.5 -27.5t113.5 -75t76 -116.5t28 -148q0 -80 -28 -149.5t-76 -118t-113.5 -76t-138.5 -27.5t-138.5 27.5t-113.5 76t-76 118t-28 149.5z" />
    <glyph glyph-name="uni1EDD" unicode="&#x1edd;" horiz-adv-x="640" 
d="M169 725l56 52l162 -161l-51 -48zM468 395v58h60q25 0 39 12.5t14 35.5q0 26 -25 45l48 42q42 -27 42 -84q0 -45 -30.5 -77t-73.5 -32h-74zM118 251q0 -84 55.5 -137.5t135.5 -53.5t135.5 53.5t55.5 137.5t-55.5 137.5t-135.5 53.5t-135.5 -53.5t-55.5 -137.5zM38 251
q0 117 78.5 193t192.5 76t192.5 -76t78.5 -193t-78.5 -193t-192.5 -76t-192.5 76t-78.5 193z" />
    <glyph glyph-name="uni1EDE" unicode="&#x1ede;" horiz-adv-x="794" 
d="M397 765l-38 49l41 27q33 19 33 50q0 20 -13 32.5t-33 12.5q-37 0 -45 -36l-58 17q11 38 39 59.5t66 21.5q48 0 78 -30t30 -77q0 -33 -17.5 -57.5t-55.5 -50.5zM569 603v58h60q25 0 39 12.5t14 35.5q0 26 -25 45l48 42q42 -27 42 -84q0 -45 -30.5 -77t-73.5 -32h-74z
M118 353q0 -128 80 -209.5t196 -81.5t196 81.5t80 209.5q0 125 -80 206t-196 81t-196 -81t-80 -206zM38 353q0 79 28 148t76 116.5t113.5 75t138.5 27.5t138.5 -27.5t113.5 -75t76 -116.5t28 -148q0 -80 -28 -149.5t-76 -118t-113.5 -76t-138.5 -27.5t-138.5 27.5t-113.5 76
t-76 118t-28 149.5z" />
    <glyph glyph-name="uni1EDF" unicode="&#x1edf;" horiz-adv-x="640" 
d="M311 556l-38 49l41 27q33 19 33 50q0 20 -13 32.5t-33 12.5q-37 0 -45 -36l-58 17q11 38 39 59.5t66 21.5q48 0 78 -30t30 -77q0 -33 -17.5 -57.5t-55.5 -50.5zM468 395v58h60q25 0 39 12.5t14 35.5q0 26 -25 45l48 42q42 -27 42 -84q0 -45 -30.5 -77t-73.5 -32h-74z
M118 251q0 -84 55.5 -137.5t135.5 -53.5t135.5 53.5t55.5 137.5t-55.5 137.5t-135.5 53.5t-135.5 -53.5t-55.5 -137.5zM38 251q0 117 78.5 193t192.5 76t192.5 -76t78.5 -193t-78.5 -193t-192.5 -76t-192.5 76t-78.5 193z" />
    <glyph glyph-name="uni1EE0" unicode="&#x1ee0;" horiz-adv-x="794" 
d="M319 921q-40 0 -68 -32t-39 -88l59 -18q6 35 19 54.5t31 19.5q13 0 24.5 -7t30.5 -28q26 -25 47 -35t46 -10q40 0 68.5 32t38.5 88l-59 18q-14 -71 -55 -71q-14 0 -25.5 7t-29.5 27q-25 24 -44.5 33.5t-43.5 9.5zM569 603v58h60q25 0 39 12.5t14 35.5q0 26 -25 45l48 42
q42 -27 42 -84q0 -45 -30.5 -77t-73.5 -32h-74zM118 353q0 -128 80 -209.5t196 -81.5t196 81.5t80 209.5q0 125 -80 206t-196 81t-196 -81t-80 -206zM38 353q0 79 28 148t76 116.5t113.5 75t138.5 27.5t138.5 -27.5t113.5 -75t76 -116.5t28 -148q0 -80 -28 -149.5t-76 -118
t-113.5 -76t-138.5 -27.5t-138.5 27.5t-113.5 76t-76 118t-28 149.5z" />
    <glyph glyph-name="uni1EE1" unicode="&#x1ee1;" horiz-adv-x="640" 
d="M233 712q-40 0 -68 -32t-39 -88l59 -18q6 35 19 54.5t31 19.5q13 0 24.5 -7t30.5 -28q26 -25 47 -35t46 -10q40 0 68.5 32t38.5 88l-59 18q-14 -71 -55 -71q-14 0 -25.5 7t-29.5 27q-25 24 -44.5 33.5t-43.5 9.5zM468 395v58h60q25 0 39 12.5t14 35.5q0 26 -25 45l48 42
q42 -27 42 -84q0 -45 -30.5 -77t-73.5 -32h-74zM118 251q0 -84 55.5 -137.5t135.5 -53.5t135.5 53.5t55.5 137.5t-55.5 137.5t-135.5 53.5t-135.5 -53.5t-55.5 -137.5zM38 251q0 117 78.5 193t192.5 76t192.5 -76t78.5 -193t-78.5 -193t-192.5 -76t-192.5 76t-78.5 193z" />
    <glyph glyph-name="uni1EE2" unicode="&#x1ee2;" horiz-adv-x="794" 
d="M340 -137.5q0 22.5 15.5 38t38.5 15.5t38.5 -15.5t15.5 -38t-15.5 -38.5t-38.5 -16t-38.5 16t-15.5 38.5zM569 603v58h60q25 0 39 12.5t14 35.5q0 26 -25 45l48 42q42 -27 42 -84q0 -45 -30.5 -77t-73.5 -32h-74zM118 353q0 -128 80 -209.5t196 -81.5t196 81.5t80 209.5
q0 125 -80 206t-196 81t-196 -81t-80 -206zM38 353q0 79 28 148t76 116.5t113.5 75t138.5 27.5t138.5 -27.5t113.5 -75t76 -116.5t28 -148q0 -80 -28 -149.5t-76 -118t-113.5 -76t-138.5 -27.5t-138.5 27.5t-113.5 76t-76 118t-28 149.5z" />
    <glyph glyph-name="uni1EE3" unicode="&#x1ee3;" horiz-adv-x="640" 
d="M253 -137.5q0 22.5 15.5 38t38.5 15.5t38.5 -15.5t15.5 -38t-15.5 -38.5t-38.5 -16t-38.5 16t-15.5 38.5zM468 395v58h60q25 0 39 12.5t14 35.5q0 26 -25 45l48 42q42 -27 42 -84q0 -45 -30.5 -77t-73.5 -32h-74zM118 251q0 -84 55.5 -137.5t135.5 -53.5t135.5 53.5
t55.5 137.5t-55.5 137.5t-135.5 53.5t-135.5 -53.5t-55.5 -137.5zM38 251q0 117 78.5 193t192.5 76t192.5 -76t78.5 -193t-78.5 -193t-192.5 -76t-192.5 76t-78.5 193z" />
    <glyph glyph-name="uni1EE4" unicode="&#x1ee4;" horiz-adv-x="690" 
d="M290 -137.5q0 22.5 15.5 38t38.5 15.5t38.5 -15.5t15.5 -38t-15.5 -38.5t-38.5 -16t-38.5 16t-15.5 38.5zM345 -11q-122 0 -204.5 80t-82.5 203v428h80v-418q0 -100 57.5 -156.5t149.5 -56.5t149.5 56.5t57.5 156.5v418h80v-428q0 -123 -82.5 -203t-204.5 -80z" />
    <glyph glyph-name="uni1EE5" unicode="&#x1ee5;" horiz-adv-x="523" 
d="M213 -137.5q0 22.5 15.5 38t38.5 15.5t38.5 -15.5t15.5 -38t-15.5 -38.5t-38.5 -16t-38.5 16t-15.5 38.5zM466 500v-500h-80v500h80zM138 500v-313q0 -57 32.5 -89t83.5 -32q55 0 93.5 35t38.5 83h42q0 -80 -56 -137.5t-140 -57.5q-74 0 -124 50t-50 131v330h80z" />
    <glyph glyph-name="uni1EE6" unicode="&#x1ee6;" horiz-adv-x="690" 
d="M348 765l-38 49l41 27q33 19 33 50q0 20 -13 32.5t-33 12.5q-37 0 -45 -36l-58 17q11 38 39 59.5t66 21.5q48 0 78 -30t30 -77q0 -33 -17.5 -57.5t-55.5 -50.5zM345 -11q-122 0 -204.5 80t-82.5 203v428h80v-418q0 -100 57.5 -156.5t149.5 -56.5t149.5 56.5t57.5 156.5
v418h80v-428q0 -123 -82.5 -203t-204.5 -80z" />
    <glyph glyph-name="uni1EE7" unicode="&#x1ee7;" horiz-adv-x="523" 
d="M264 556l-38 49l41 27q33 19 33 50q0 20 -13 32.5t-33 12.5q-37 0 -45 -36l-58 17q11 38 39 59.5t66 21.5q48 0 78 -30t30 -77q0 -33 -17.5 -57.5t-55.5 -50.5zM466 500v-500h-80v500h80zM138 500v-313q0 -57 32.5 -89t83.5 -32q55 0 93.5 35t38.5 83h42
q0 -80 -56 -137.5t-140 -57.5q-74 0 -124 50t-50 131v330h80z" />
    <glyph glyph-name="uni1EE8" unicode="&#x1ee8;" horiz-adv-x="725" 
d="M480 934l-55 55l-159 -164l46 -48zM589 603v58h60q25 0 39 12.5t14 35.5q0 26 -25 45l48 42q42 -27 42 -84q0 -45 -30.5 -77t-73.5 -32h-74zM345 -11q-122 0 -204.5 80t-82.5 203v428h80v-418q0 -100 57.5 -156.5t149.5 -56.5t149.5 56.5t57.5 156.5v418h80v-428
q0 -123 -82.5 -203t-204.5 -80z" />
    <glyph glyph-name="uni1EE9" unicode="&#x1ee9;" horiz-adv-x="602" 
d="M396 725l-55 55l-159 -164l46 -48zM433 395v58h60q25 0 39 12.5t14 35.5q0 26 -25 45l48 42q42 -27 42 -84q0 -45 -30.5 -77t-73.5 -32h-74zM466 500v-500h-80v500h80zM138 500v-313q0 -57 32.5 -89t83.5 -32q55 0 93.5 35t38.5 83h42q0 -80 -56 -137.5t-140 -57.5
q-74 0 -124 50t-50 131v330h80z" />
    <glyph glyph-name="uni1EEA" unicode="&#x1eea;" horiz-adv-x="725" 
d="M206 934l56 52l162 -161l-51 -48zM589 603v58h60q25 0 39 12.5t14 35.5q0 26 -25 45l48 42q42 -27 42 -84q0 -45 -30.5 -77t-73.5 -32h-74zM345 -11q-122 0 -204.5 80t-82.5 203v428h80v-418q0 -100 57.5 -156.5t149.5 -56.5t149.5 56.5t57.5 156.5v418h80v-428
q0 -123 -82.5 -203t-204.5 -80z" />
    <glyph glyph-name="uni1EEB" unicode="&#x1eeb;" horiz-adv-x="602" 
d="M122 725l56 52l162 -161l-51 -48zM433 395v58h60q25 0 39 12.5t14 35.5q0 26 -25 45l48 42q42 -27 42 -84q0 -45 -30.5 -77t-73.5 -32h-74zM466 500v-500h-80v500h80zM138 500v-313q0 -57 32.5 -89t83.5 -32q55 0 93.5 35t38.5 83h42q0 -80 -56 -137.5t-140 -57.5
q-74 0 -124 50t-50 131v330h80z" />
    <glyph glyph-name="uni1EEC" unicode="&#x1eec;" horiz-adv-x="725" 
d="M348 765l-38 49l41 27q33 19 33 50q0 20 -13 32.5t-33 12.5q-37 0 -45 -36l-58 17q11 38 39 59.5t66 21.5q48 0 78 -30t30 -77q0 -33 -17.5 -57.5t-55.5 -50.5zM589 603v58h60q25 0 39 12.5t14 35.5q0 26 -25 45l48 42q42 -27 42 -84q0 -45 -30.5 -77t-73.5 -32h-74z
M345 -11q-122 0 -204.5 80t-82.5 203v428h80v-418q0 -100 57.5 -156.5t149.5 -56.5t149.5 56.5t57.5 156.5v418h80v-428q0 -123 -82.5 -203t-204.5 -80z" />
    <glyph glyph-name="uni1EED" unicode="&#x1eed;" horiz-adv-x="602" 
d="M264 556l-38 49l41 27q33 19 33 50q0 20 -13 32.5t-33 12.5q-37 0 -45 -36l-58 17q11 38 39 59.5t66 21.5q48 0 78 -30t30 -77q0 -33 -17.5 -57.5t-55.5 -50.5zM433 395v58h60q25 0 39 12.5t14 35.5q0 26 -25 45l48 42q42 -27 42 -84q0 -45 -30.5 -77t-73.5 -32h-74z
M466 500v-500h-80v500h80zM138 500v-313q0 -57 32.5 -89t83.5 -32q55 0 93.5 35t38.5 83h42q0 -80 -56 -137.5t-140 -57.5q-74 0 -124 50t-50 131v330h80z" />
    <glyph glyph-name="uni1EEE" unicode="&#x1eee;" horiz-adv-x="725" 
d="M270 921q-40 0 -68 -32t-39 -88l59 -18q6 35 19 54.5t31 19.5q13 0 24.5 -7t30.5 -28q26 -25 47 -35t46 -10q40 0 68.5 32t38.5 88l-59 18q-14 -71 -55 -71q-14 0 -25.5 7t-29.5 27q-25 24 -44.5 33.5t-43.5 9.5zM589 603v58h60q25 0 39 12.5t14 35.5q0 26 -25 45l48 42
q42 -27 42 -84q0 -45 -30.5 -77t-73.5 -32h-74zM345 -11q-122 0 -204.5 80t-82.5 203v428h80v-418q0 -100 57.5 -156.5t149.5 -56.5t149.5 56.5t57.5 156.5v418h80v-428q0 -123 -82.5 -203t-204.5 -80z" />
    <glyph glyph-name="uni1EEF" unicode="&#x1eef;" horiz-adv-x="602" 
d="M186 712q-40 0 -68 -32t-39 -88l59 -18q6 35 19 54.5t31 19.5q13 0 24.5 -7t30.5 -28q26 -25 47 -35t46 -10q40 0 68.5 32t38.5 88l-59 18q-14 -71 -55 -71q-14 0 -25.5 7t-29.5 27q-25 24 -44.5 33.5t-43.5 9.5zM433 395v58h60q25 0 39 12.5t14 35.5q0 26 -25 45l48 42
q42 -27 42 -84q0 -45 -30.5 -77t-73.5 -32h-74zM466 500v-500h-80v500h80zM138 500v-313q0 -57 32.5 -89t83.5 -32q55 0 93.5 35t38.5 83h42q0 -80 -56 -137.5t-140 -57.5q-74 0 -124 50t-50 131v330h80z" />
    <glyph glyph-name="uni1EF0" unicode="&#x1ef0;" horiz-adv-x="725" 
d="M290 -137.5q0 22.5 15.5 38t38.5 15.5t38.5 -15.5t15.5 -38t-15.5 -38.5t-38.5 -16t-38.5 16t-15.5 38.5zM589 603v58h60q25 0 39 12.5t14 35.5q0 26 -25 45l48 42q42 -27 42 -84q0 -45 -30.5 -77t-73.5 -32h-74zM345 -11q-122 0 -204.5 80t-82.5 203v428h80v-418
q0 -100 57.5 -156.5t149.5 -56.5t149.5 56.5t57.5 156.5v418h80v-428q0 -123 -82.5 -203t-204.5 -80z" />
    <glyph glyph-name="uni1EF1" unicode="&#x1ef1;" horiz-adv-x="602" 
d="M213 -137.5q0 22.5 15.5 38t38.5 15.5t38.5 -15.5t15.5 -38t-15.5 -38.5t-38.5 -16t-38.5 16t-15.5 38.5zM433 395v58h60q25 0 39 12.5t14 35.5q0 26 -25 45l48 42q42 -27 42 -84q0 -45 -30.5 -77t-73.5 -32h-74zM466 500v-500h-80v500h80zM138 500v-313q0 -57 32.5 -89
t83.5 -32q55 0 93.5 35t38.5 83h42q0 -80 -56 -137.5t-140 -57.5q-74 0 -124 50t-50 131v330h80z" />
    <glyph glyph-name="Ygrave" unicode="&#x1ef2;" horiz-adv-x="666" 
d="M201 934l56 52l162 -161l-51 -48zM303 0h80v235l254 465h-94l-200 -370l-218 370h-95l273 -465v-235z" />
    <glyph glyph-name="ygrave" unicode="&#x1ef3;" horiz-adv-x="556" 
d="M138 725l56 52l162 -161l-51 -48zM437 500l-159 -392l-158 392h-89l199 -482l-84 -218h89l291 700h-89z" />
    <glyph glyph-name="uni1EF4" unicode="&#x1ef4;" horiz-adv-x="666" 
d="M290 -137.5q0 22.5 15.5 38t38.5 15.5t38.5 -15.5t15.5 -38t-15.5 -38.5t-38.5 -16t-38.5 16t-15.5 38.5zM303 0h80v235l254 465h-94l-200 -370l-218 370h-95l273 -465v-235z" />
    <glyph glyph-name="uni1EF5" unicode="&#x1ef5;" horiz-adv-x="556" 
d="M361 -137.5q0 22.5 15.5 38t38.5 15.5t38.5 -15.5t15.5 -38t-15.5 -38.5t-38.5 -16t-38.5 16t-15.5 38.5zM437 500l-159 -392l-158 392h-89l199 -482l-84 -218h89l291 700h-89z" />
    <glyph glyph-name="uni1EF6" unicode="&#x1ef6;" horiz-adv-x="666" 
d="M343 765l-38 49l41 27q33 19 33 50q0 20 -13 32.5t-33 12.5q-37 0 -45 -36l-58 17q11 38 39 59.5t66 21.5q48 0 78 -30t30 -77q0 -33 -17.5 -57.5t-55.5 -50.5zM303 0h80v235l254 465h-94l-200 -370l-218 370h-95l273 -465v-235z" />
    <glyph glyph-name="uni1EF7" unicode="&#x1ef7;" horiz-adv-x="556" 
d="M280 556l-38 49l41 27q33 19 33 50q0 20 -13 32.5t-33 12.5q-37 0 -45 -36l-58 17q11 38 39 59.5t66 21.5q48 0 78 -30t30 -77q0 -33 -17.5 -57.5t-55.5 -50.5zM437 500l-159 -392l-158 392h-89l199 -482l-84 -218h89l291 700h-89z" />
    <glyph glyph-name="uni1EF8" unicode="&#x1ef8;" horiz-adv-x="666" 
d="M265 921q-40 0 -68 -32t-39 -88l59 -18q6 35 19 54.5t31 19.5q13 0 24.5 -7t30.5 -28q26 -25 47 -35t46 -10q40 0 68.5 32t38.5 88l-59 18q-14 -71 -55 -71q-14 0 -25.5 7t-29.5 27q-25 24 -44.5 33.5t-43.5 9.5zM303 0h80v235l254 465h-94l-200 -370l-218 370h-95
l273 -465v-235z" />
    <glyph glyph-name="uni1EF9" unicode="&#x1ef9;" horiz-adv-x="556" 
d="M202 712q-40 0 -68 -32t-39 -88l59 -18q6 35 19 54.5t31 19.5q13 0 24.5 -7t30.5 -28q26 -25 47 -35t46 -10q40 0 68.5 32t38.5 88l-59 18q-14 -71 -55 -71q-14 0 -25.5 7t-29.5 27q-25 24 -44.5 33.5t-43.5 9.5zM437 500l-159 -392l-158 392h-89l199 -482l-84 -218h89
l291 700h-89z" />
    <glyph glyph-name="uni2010" unicode="&#x2010;" horiz-adv-x="324" 
d="M296 302v-72h-267v72h267z" />
    <glyph glyph-name="endash" unicode="&#x2013;" horiz-adv-x="519" 
d="M491 302v-72h-462v72h462z" />
    <glyph glyph-name="emdash" unicode="&#x2014;" horiz-adv-x="829" 
d="M800 302v-72h-771v72h771z" />
    <glyph glyph-name="quoteleft" unicode="&#x2018;" horiz-adv-x="226" 
d="M184 728q-44 -9 -73 -42.5t-29 -75.5q14 18 45 18q29 0 50 -21t21 -51.5t-22.5 -51t-55.5 -20.5q-45 0 -71 42q-19 31 -19 76q0 55 38.5 107.5t91.5 68.5z" />
    <glyph glyph-name="quoteright" unicode="&#x2019;" horiz-adv-x="226" 
d="M44 534q43 9 72 43t29 75q-13 -18 -44 -18q-30 0 -50.5 21t-20.5 51.5t22 51t55 20.5q45 0 71 -42q20 -30 20 -76q0 -55 -39 -107.5t-92 -68.5z" />
    <glyph glyph-name="quotesinglbase" unicode="&#x201a;" horiz-adv-x="226" 
d="M44 -103q43 10 72 43.5t29 75.5q-13 -19 -44 -19q-30 0 -50.5 21t-20.5 51.5t22 51t55 20.5q45 0 71 -41q20 -31 20 -76q0 -56 -39 -108t-92 -68z" />
    <glyph glyph-name="quotereversed" unicode="&#x201b;" horiz-adv-x="226" 
d="M184 534l-24 -50q-53 16 -91.5 68.5t-38.5 108.5q0 45 19 75q26 42 71 42q33 0 55.5 -20.5t22.5 -51t-21 -51.5t-50 -21q-31 0 -45 18q0 -41 29 -75t73 -43z" />
    <glyph glyph-name="quotedblleft" unicode="&#x201c;" horiz-adv-x="426" 
d="M384 728q-44 -9 -73 -42.5t-29 -75.5q14 18 45 18q29 0 50 -21t21 -51.5t-22.5 -51t-55.5 -20.5q-45 0 -71 42q-19 31 -19 76q0 55 38.5 107.5t91.5 68.5zM184 728q-44 -9 -73 -42.5t-29 -75.5q14 18 45 18q29 0 50 -21t21 -51.5t-22.5 -51t-55.5 -20.5q-45 0 -71 42
q-19 31 -19 76q0 55 38.5 107.5t91.5 68.5z" />
    <glyph glyph-name="quotedblright" unicode="&#x201d;" horiz-adv-x="426" 
d="M44 534q43 9 72 43t29 75q-13 -18 -44 -18q-30 0 -50.5 21t-20.5 51.5t22 51t55 20.5q45 0 71 -42q20 -30 20 -75q0 -56 -39 -108.5t-92 -68.5zM244 534q43 9 72 43t29 75q-13 -18 -44 -18q-30 0 -50.5 21t-20.5 51.5t22 51t55 20.5q45 0 71 -42q20 -30 20 -75
q0 -56 -39 -108.5t-92 -68.5z" />
    <glyph glyph-name="quotedblbase" unicode="&#x201e;" horiz-adv-x="426" 
d="M44 -103q43 10 72 43.5t29 75.5q-13 -19 -44 -19q-30 0 -50.5 21.5t-20.5 52t22 50.5t55 20q45 0 71 -41q20 -31 20 -76q0 -55 -39 -107.5t-92 -68.5zM244 -103q43 10 72 43.5t29 75.5q-13 -19 -44 -19q-30 0 -50.5 21.5t-20.5 52t22 50.5t55 20q45 0 71 -41
q20 -31 20 -76q0 -55 -39 -107.5t-92 -68.5z" />
    <glyph glyph-name="uni201F" unicode="&#x201f;" horiz-adv-x="426" 
d="M384 534l-24 -50q-53 16 -91.5 68.5t-38.5 108.5q0 45 19 75q26 42 71 42q33 0 55.5 -20.5t22.5 -51t-21 -51.5t-50 -21q-31 0 -45 18q0 -41 29 -75t73 -43zM184 534l-24 -50q-53 16 -91.5 68.5t-38.5 108.5q0 45 19 75q26 42 71 42q33 0 55.5 -20.5t22.5 -51t-21 -51.5
t-50 -21q-31 0 -45 18q0 -41 29 -75t73 -43z" />
    <glyph glyph-name="dagger" unicode="&#x2020;" horiz-adv-x="367" 
d="M132 626h105l-13 -129h113v-75h-113v-422h-80v422h-114v75h114z" />
    <glyph glyph-name="daggerdbl" unicode="&#x2021;" horiz-adv-x="367" 
d="M130 626h106l-13 -129h113v-75h-113v-218h114v-74h-114l12 -130h-105l12 130h-112v74h112v218h-114v75h114z" />
    <glyph glyph-name="bullet" unicode="&#x2022;" horiz-adv-x="197" 
d="M34 286q0 28 18 46.5t46 18.5q27 0 45.5 -18.5t18.5 -46.5q0 -27 -18 -45.5t-45.5 -18.5t-46 18.5t-18.5 45.5z" />
    <glyph glyph-name="uni2023" unicode="&#x2023;" horiz-adv-x="197" 
d="M45 371l117 -85l-117 -84v169z" />
    <glyph glyph-name="ellipsis" unicode="&#x2026;" horiz-adv-x="591" 
d="M428 52q0 27 18 45.5t46 18.5q27 0 45.5 -18.5t18.5 -45.5q0 -28 -18 -46t-45.5 -18t-46 18t-18.5 46zM231 52q0 27 18 45.5t46 18.5q27 0 45.5 -18.5t18.5 -45.5q0 -28 -18 -46t-45.5 -18t-46 18t-18.5 46zM34 52q0 27 18 45.5t46 18.5q27 0 45.5 -18.5t18.5 -45.5
q0 -28 -18 -46t-45.5 -18t-46 18t-18.5 46z" />
    <glyph glyph-name="perthousand" unicode="&#x2030;" horiz-adv-x="1284" 
d="M968 171.5q0 -46.5 31 -76.5t75.5 -30t75.5 30t31 76.5t-31 76.5t-75.5 30t-75.5 -30t-31 -76.5zM893 171.5q0 78.5 52.5 130t128.5 51.5t129 -51.5t53 -130t-53 -130t-129 -51.5t-128.5 51.5t-52.5 130zM560 171.5q0 -46.5 31 -76.5t75.5 -30t75.5 30t31 76.5t-31 76.5
t-75.5 30t-75.5 -30t-31 -76.5zM485 171.5q0 78.5 53 130t129 51.5t128.5 -51.5t52.5 -130t-52.5 -130t-128.5 -51.5t-129 51.5t-53 130zM104 528.5q0 -46.5 31 -76.5t75.5 -30t75.5 30t31 76.5t-31 76.5t-75.5 30t-75.5 -30t-31 -76.5zM29 528.5q0 78.5 52.5 130
t128.5 51.5t129 -51.5t53 -130t-53 -130t-129 -51.5t-128.5 51.5t-52.5 130zM340 0h-90l287 700h90z" />
    <glyph glyph-name="minute" unicode="&#x2032;" horiz-adv-x="191" 
d="M85 758l75 -21l-59 -229l-70 19z" />
    <glyph glyph-name="second" unicode="&#x2033;" horiz-adv-x="336" 
d="M230 758l75 -21l-59 -229l-70 19zM85 758l75 -21l-59 -229l-70 19z" />
    <glyph glyph-name="uni2034" unicode="&#x2034;" horiz-adv-x="481" 
d="M375 758l75 -21l-59 -229l-70 19zM230 758l75 -21l-59 -229l-70 19zM85 758l75 -21l-59 -229l-70 19z" />
    <glyph glyph-name="uni2035" unicode="&#x2035;" horiz-adv-x="191" 
d="M106 758l54 -231l-70 -19l-59 229z" />
    <glyph glyph-name="uni2036" unicode="&#x2036;" horiz-adv-x="336" 
d="M106 758l54 -231l-70 -19l-59 229zM251 758l54 -231l-70 -19l-59 229z" />
    <glyph glyph-name="uni2037" unicode="&#x2037;" horiz-adv-x="481" 
d="M106 758l54 -231l-70 -19l-59 229zM251 758l54 -231l-70 -19l-59 229zM396 758l54 -231l-70 -19l-59 229z" />
    <glyph glyph-name="fractionslash" unicode="&#x2044;" horiz-adv-x="79" 
d="M-59 0h-90l287 700h90z" />
    <glyph glyph-name="uni2070" unicode="&#x2070;" horiz-adv-x="299" 
d="M96 651q0 -24 16 -40.5t39 -16.5q22 0 37 16.5t15 40.5v76q0 25 -15 41t-37 16q-23 0 -39 -16t-16 -41v-76zM26 649v80q0 55 36.5 90t88.5 35q51 0 86.5 -35t35.5 -90v-80q0 -54 -35.5 -89.5t-86.5 -35.5q-52 0 -88.5 35.5t-36.5 89.5z" />
    <glyph glyph-name="uni2074" unicode="&#x2074;" horiz-adv-x="298" 
d="M93 657h72v103zM235 847v-190h37v-61h-37v-64h-70v64h-139v72l128 179h81z" />
    <glyph glyph-name="uni2075" unicode="&#x2075;" horiz-adv-x="299" 
d="M96 723v60h165v64h-235v-157l70 -25q27 31 59 31q21 0 34.5 -15t13.5 -38t-14.5 -37t-38.5 -14q-22 0 -36.5 11.5t-19.5 31.5l-68 -19q13 -42 47 -66.5t79 -24.5q53 0 87 33t34 85q0 47 -28.5 79.5t-69.5 32.5q-45 0 -79 -32z" />
    <glyph glyph-name="uni2076" unicode="&#x2076;" horiz-adv-x="300" 
d="M224 756q-20 34 -59 34q-30 0 -49 -25t-22 -68q10 20 30.5 31.5t45.5 11.5q41 0 70 -31t29 -75q0 -47 -33.5 -78.5t-83.5 -31.5q-59 0 -92.5 44t-33.5 114q0 77 38.5 124.5t100.5 47.5q36 0 65 -16.5t44 -47.5zM105 635q0 -19 14 -32t35 -13t34 12t13 30q0 20 -14 32.5
t-35 12.5q-20 0 -33.5 -11.5t-13.5 -30.5z" />
    <glyph glyph-name="uni2077" unicode="&#x2077;" horiz-adv-x="286" 
d="M165 532l96 240v75h-235v-64h168l-105 -251h76z" />
    <glyph glyph-name="uni2078" unicode="&#x2078;" horiz-adv-x="297" 
d="M96 626q0 -16 15 -26t37.5 -10t37.5 10t15 26t-15 26t-37.5 10t-37.5 -10t-15 -26zM37 765q0 37 32.5 63t79 26t79 -26t32.5 -63q0 -50 -54 -72q31 -10 48 -29.5t17 -45.5q0 -40 -35.5 -67t-87 -27t-87 27t-35.5 67q0 26 17 45.5t48 29.5q-54 22 -54 72zM149 721
q17 0 29 10.5t12 25.5q0 14 -11.5 23.5t-30 9.5t-30 -9.5t-11.5 -23.5q0 -15 12.5 -25.5t29.5 -10.5z" />
    <glyph glyph-name="uni2079" unicode="&#x2079;" horiz-adv-x="300" 
d="M76 623q20 -34 59 -34q30 0 49 25t22 68q-10 -20 -30.5 -31.5t-45.5 -11.5q-41 0 -70 31t-29 75q0 47 33.5 78t84.5 31q58 0 91.5 -43.5t33.5 -113.5q0 -77 -38.5 -125t-99.5 -48q-37 0 -66 17t-44 47zM196 744q0 19 -14.5 32.5t-35.5 13.5q-20 0 -33.5 -12.5
t-13.5 -30.5q0 -20 14 -32.5t35 -12.5t34.5 11.5t13.5 30.5z" />
    <glyph glyph-name="uni2080" unicode="&#x2080;" horiz-adv-x="299" 
d="M96 -32q0 -25 16 -41t39 -16q22 0 37 16t15 41v75q0 25 -15 41.5t-37 16.5q-23 0 -39 -16.5t-16 -41.5v-75zM26 -35v80q0 55 36.5 90.5t88.5 35.5q51 0 86.5 -35.5t35.5 -90.5v-80q0 -54 -35.5 -89t-86.5 -35q-52 0 -88.5 35t-36.5 89z" />
    <glyph glyph-name="uni2081" unicode="&#x2081;" horiz-adv-x="221" 
d="M195 164v-315h-70v231l-56 -43l-43 52l97 75h72z" />
    <glyph glyph-name="uni2082" unicode="&#x2082;" horiz-adv-x="290" 
d="M263 56q0 49 -34 80.5t-83 31.5q-46 0 -76.5 -26t-43.5 -68l66 -23q14 47 52 47q20 0 33.5 -13t13.5 -33q0 -29 -68 -65l-96 -55v-83h237v67h-148l55 30q92 47 92 110z" />
    <glyph glyph-name="uni2083" unicode="&#x2083;" horiz-adv-x="295" 
d="M190 32l73 52v81h-224v-64h154l-74 -60l24 -48q26 0 40 -11t14 -30q0 -17 -13 -27.5t-33 -10.5q-21 0 -35.5 13t-18.5 37l-71 -17q12 -47 45.5 -75t80.5 -28q51 0 84 29t33 75q0 35 -21.5 58t-57.5 26z" />
    <glyph glyph-name="uni2084" unicode="&#x2084;" horiz-adv-x="298" 
d="M93 -26h72v103zM235 164v-190h37v-61h-37v-64h-70v64h-139v72l128 179h81z" />
    <glyph glyph-name="uni2085" unicode="&#x2085;" horiz-adv-x="299" 
d="M96 39v60h165v64h-235v-157l70 -24q27 30 59 30q21 0 34.5 -15t13.5 -38t-14.5 -36.5t-38.5 -13.5q-22 0 -36.5 11t-19.5 31l-68 -19q13 -42 47 -66.5t79 -24.5q53 0 87 33.5t34 84.5q0 47 -28.5 80t-69.5 33q-45 0 -79 -33z" />
    <glyph glyph-name="uni2086" unicode="&#x2086;" horiz-adv-x="300" 
d="M224 72q-20 34 -59 34q-30 0 -49 -25t-22 -68q10 20 30.5 31.5t45.5 11.5q41 0 70 -31t29 -75q0 -47 -33.5 -78t-83.5 -31q-59 0 -92.5 43.5t-33.5 113.5q0 77 38.5 125t100.5 48q36 0 65 -17t44 -47zM105 -48q0 -20 14 -33t35 -13t34 12t13 31t-14 32t-35 13
q-20 0 -33.5 -12t-13.5 -30z" />
    <glyph glyph-name="uni2087" unicode="&#x2087;" horiz-adv-x="286" 
d="M165 -151l96 240v75h-235v-64h168l-105 -251h76z" />
    <glyph glyph-name="uni2088" unicode="&#x2088;" horiz-adv-x="297" 
d="M96 -58q0 -16 15 -26t37.5 -10t37.5 10t15 26t-15 26.5t-37.5 10.5t-37.5 -10.5t-15 -26.5zM37 81q0 37 32.5 63.5t79 26.5t79 -26.5t32.5 -63.5q0 -50 -54 -72q31 -10 48 -29.5t17 -45.5q0 -39 -35.5 -66t-87 -27t-87 27t-35.5 66q0 26 17 45.5t48 29.5q-54 22 -54 72z
M149 37q17 0 29 10.5t12 25.5q0 14 -11.5 23.5t-30 9.5t-30 -9.5t-11.5 -23.5q0 -15 12.5 -25.5t29.5 -10.5z" />
    <glyph glyph-name="uni2089" unicode="&#x2089;" horiz-adv-x="300" 
d="M76 -61q20 -33 59 -33q30 0 49 24.5t22 67.5q-10 -19 -30.5 -31t-45.5 -12q-41 0 -70 31t-29 75q0 47 33.5 78.5t84.5 31.5q58 0 91.5 -43.5t33.5 -113.5q0 -77 -38.5 -125t-99.5 -48q-37 0 -66 16.5t-44 47.5zM196 60q0 19 -14.5 32.5t-35.5 13.5q-20 0 -33.5 -12
t-13.5 -31q0 -20 14 -32.5t35 -12.5t34.5 12t13.5 30z" />
    <glyph glyph-name="dong" unicode="&#x20ab;" horiz-adv-x="668" 
d="M643 -80v-67h-614v67h614zM538 251q0 -116 -71 -192.5t-175 -76.5q-107 0 -180.5 76.5t-73.5 192.5t73.5 192.5t180.5 76.5q104 0 175 -76.5t71 -192.5zM500 251q0 83 -55.5 137t-135.5 54t-135.5 -54t-55.5 -137t55.5 -137t135.5 -54t135.5 54t55.5 137zM580 0h-80v601
h-226v72h226v77h80v-77h88v-72h-88v-601z" />
    <glyph glyph-name="Euro" unicode="&#x20ac;" horiz-adv-x="843" 
d="M548 305v-57h-517v57h517zM548 470v-60h-517v60h517zM118 351q0 105 47 190t127.5 132t178.5 47q105 0 191.5 -54.5t130.5 -148.5l-69 -37q-35 74 -103 117t-151 43q-114 0 -193 -81.5t-79 -207t79 -207.5t193 -82q85 0 154 45.5t104 124.5l70 -37q-43 -98 -131 -155.5
t-196 -57.5q-98 0 -178.5 47t-127.5 132t-47 190z" />
    <glyph glyph-name="uni20B4" unicode="&#x20b4;" horiz-adv-x="579" 
d="M543 314v-58h-366q-40 -31 -40 -79q0 -49 39.5 -79.5t100.5 -30.5q64 0 114 36t75 99l76 -36q-33 -80 -105.5 -128.5t-162.5 -48.5q-95 0 -157 51.5t-62 129.5q0 48 28 86h-54v58h514zM491 452h52v-57h-514v57h370q34 30 34 76q0 48 -36.5 77.5t-93.5 29.5
q-61 0 -110 -33.5t-73 -91.5l-74 30q31 79 101.5 126t157.5 47q91 0 150.5 -51t59.5 -129q0 -46 -24 -81z" />
    <glyph glyph-name="uni20B8" unicode="&#x20b8;" horiz-adv-x="596" 
d="M28 624v76h540v-76h-540zM568 548v-78h-230v-470h-80v470h-230v78h540z" />
    <glyph glyph-name="uni20BD" unicode="&#x20bd;" horiz-adv-x="625" 
d="M389 317h-187v-87h146v-67h-146v-163h-80v163h-93v67h93v88h-93v72h93v310h277q84 0 140.5 -55t56.5 -137q0 -80 -60.5 -135.5t-146.5 -55.5zM389 622h-187v-232h187q54 0 90.5 34t36.5 84q0 49 -36.5 81.5t-90.5 32.5z" />
    <glyph glyph-name="uni2103" unicode="&#x2103;" horiz-adv-x="1168" 
d="M427.5 351q0.5 105 48.5 190t130.5 132t181.5 47q111 0 201 -58.5t137 -159.5l-77 -30q-36 78 -106 123t-155 45q-118 0 -199 -81.5t-81 -207t81 -207.5t199 -82q87 0 158.5 47.5t106.5 129.5l77 -29q-44 -105 -136.5 -166.5t-205.5 -61.5q-99 0 -181.5 47t-131 132
t-48 190zM104 543.5q0 -40.5 26.5 -66t65 -25.5t65 25.5t26.5 66t-26.5 66t-65 25.5t-65 -25.5t-26.5 -66zM29 543.5q0 72.5 48 119.5t118 47t118.5 -47t48.5 -119.5t-48.5 -119.5t-118.5 -47t-118 47t-48 119.5z" />
    <glyph glyph-name="uni2109" unicode="&#x2109;" horiz-adv-x="951" 
d="M528 390h360v-78h-360v-312h-80v700h464v-78h-384v-232zM104 543.5q0 -40.5 26.5 -66t65 -25.5t65 25.5t26.5 66t-26.5 66t-65 25.5t-65 -25.5t-26.5 -66zM29 543.5q0 72.5 48 119.5t118 47t118.5 -47t48.5 -119.5t-48.5 -119.5t-118.5 -47t-118 47t-48 119.5z" />
    <glyph glyph-name="trademark" unicode="&#x2122;" horiz-adv-x="467" 
d="M193 700v-40h-59v-167h-42v167h-56v40h157zM218 493v207h56l50 -114l51 114h56v-207h-42v138l-47 -104h-34l-47 104v-138h-43z" />
    <glyph glyph-name="estimated" unicode="&#x212e;" horiz-adv-x="598" 
d="M164 513v-135h272v137q-56 50 -137 50t-135 -52zM164 192q56 -55 140 -55q62 0 113 30.5t77 84.5l50 -22q-32 -68 -96.5 -108t-143.5 -40q-112 0 -189 76t-77 193t76 193t185 76t185 -73.5t76 -185.5q0 -12 -2 -35h-394v-134z" />
    <glyph glyph-name="arrowleft" unicode="&#x2190;" horiz-adv-x="748" 
d="M314 640l51 -50l-185 -186h524v-72h-523l184 -184l-51 -50l-269 271z" />
    <glyph glyph-name="arrowup" unicode="&#x2191;" horiz-adv-x="631" 
d="M586 429l-50 -51l-185 185v-523h-72v522l-183 -184l-51 51l271 269z" />
    <glyph glyph-name="arrowright" unicode="&#x2192;" horiz-adv-x="748" 
d="M435 85l-51 51l184 185h-523v72h523l-184 184l51 50l269 -271z" />
    <glyph glyph-name="arrowdown" unicode="&#x2193;" horiz-adv-x="631" 
d="M45 296l51 51l184 -185v524h72v-523l184 184l50 -51l-271 -268z" />
    <glyph glyph-name="arrowboth" unicode="&#x2194;" horiz-adv-x="891" 
d="M578 85l-52 51l185 184h-529l183 -183l-51 -50l-269 271l269 271l51 -51l-185 -184h529l-183 183l52 50l268 -271z" />
    <glyph glyph-name="arrowupdn" unicode="&#x2195;" horiz-adv-x="633" 
d="M45 225l51 51l184 -184v529l-183 -183l-51 51l272 269l270 -269l-50 -51l-185 184v-529l183 183l51 -51l-271 -269z" />
    <glyph glyph-name="uni2196" unicode="&#x2196;" horiz-adv-x="581" 
d="M428 603v-72h-261l370 -370l-51 -50l-369 369v-260h-72l2 382z" />
    <glyph glyph-name="uni2197" unicode="&#x2197;" horiz-adv-x="581" 
d="M537 220h-71v261l-371 -369l-50 50l369 369h-260v72l381 -1z" />
    <glyph glyph-name="uni2198" unicode="&#x2198;" horiz-adv-x="581" 
d="M154 122l-1 72h262l-370 370l51 51l369 -370v260h72l-2 -381z" />
    <glyph glyph-name="uni2199" unicode="&#x2199;" horiz-adv-x="581" 
d="M45 506h71v-262l371 370l50 -51l-369 -369h260v-71l-381 1z" />
    <glyph glyph-name="approxequal" unicode="&#x2248;" horiz-adv-x="469" 
d="M160 260q-41 0 -68.5 -31.5t-39.5 -88.5l60 -18q6 34 19 53t30 19q14 0 25 -6.5t31 -25.5q26 -25 46.5 -35.5t45.5 -10.5q41 0 69 32t38 88l-58 18q-15 -68 -55 -68q-15 0 -26 6.5t-30 24.5q-25 24 -44 33.5t-43 9.5zM160 430q-41 0 -68.5 -31.5t-39.5 -88.5l60 -18
q6 34 19 53t30 19q14 0 25 -6.5t31 -25.5q26 -25 46.5 -35.5t45.5 -10.5q41 0 69 32t38 88l-58 18q-15 -68 -55 -68q-15 0 -26 6.5t-30 24.5q-25 24 -44 33.5t-43 9.5z" />
    <glyph glyph-name="notequal" unicode="&#x2260;" horiz-adv-x="377" 
d="M134 8h-85l200 514h85zM348 216v-72h-319v72h319zM348 398v-72h-319v72h319z" />
    <glyph glyph-name="lessequal" unicode="&#x2264;" horiz-adv-x="502" 
d="M465 12v-66h-436v66h436zM465 145v-86l-427 165v104l427 166v-86l-353 -131z" />
    <glyph glyph-name="greaterequal" unicode="&#x2265;" horiz-adv-x="502" 
d="M465 12v-66h-436v66h436zM38 408v86l427 -166v-104l-427 -165v86l352 131z" />
    <glyph glyph-name="filledbox" unicode="&#x25a0;" horiz-adv-x="820" 
d="M60 700h700v-700h-700v700z" />
    <glyph glyph-name="H22073" unicode="&#x25a1;" horiz-adv-x="820" 
d="M140 620v-540h540v540h-540zM60 700h700v-700h-700v700z" />
    <glyph glyph-name="H18543" unicode="&#x25aa;" horiz-adv-x="520" 
d="M60 570h400v-400h-400v400z" />
    <glyph glyph-name="H18551" unicode="&#x25ab;" horiz-adv-x="520" 
d="M135 495v-250h250v250h-250zM58 572h404v-404h-404v404z" />
    <glyph glyph-name="triagup" unicode="&#x25b2;" horiz-adv-x="820" 
d="M410 700l350 -700h-700z" />
    <glyph glyph-name="uni25B3" unicode="&#x25b3;" horiz-adv-x="820" 
d="M410 700l350 -700h-700zM410 543l-233 -473h466z" />
    <glyph glyph-name="uni25B6" unicode="&#x25b6;" horiz-adv-x="820" 
d="M760 350l-700 -350v700z" />
    <glyph glyph-name="uni25B7" unicode="&#x25b7;" horiz-adv-x="820" 
d="M760 350l-700 -350v700zM603 350l-473 233v-466z" />
    <glyph glyph-name="triagdn" unicode="&#x25bc;" horiz-adv-x="820" 
d="M410 0l-350 700h700z" />
    <glyph glyph-name="uni25BD" unicode="&#x25bd;" horiz-adv-x="820" 
d="M410 0l-350 700h700zM410 157l233 473h-466z" />
    <glyph glyph-name="uni25C0" unicode="&#x25c0;" horiz-adv-x="820" 
d="M60 350l700 350v-700z" />
    <glyph glyph-name="uni25C1" unicode="&#x25c1;" horiz-adv-x="820" 
d="M60 350l700 350v-700zM217 350l473 -233v466z" />
    <glyph glyph-name="uni25C6" unicode="&#x25c6;" horiz-adv-x="820" 
d="M53 350l357 357l357 -357l-357 -357z" />
    <glyph glyph-name="uni25C7" unicode="&#x25c7;" horiz-adv-x="820" 
d="M163 350l247 -247l247 247l-247 247zM53 350l357 357l357 -357l-357 -357z" />
    <glyph glyph-name="lozenge" unicode="&#x25ca;" horiz-adv-x="620" 
d="M148 350l162 -254l162 254l-162 254zM53 350l227 357h60l227 -357l-227 -357h-60z" />
    <glyph glyph-name="circle" unicode="&#x25cb;" horiz-adv-x="820" 
d="M153 350q0 -106 75.5 -181.5t181.5 -75.5t181.5 75.5t75.5 181.5t-75.5 181.5t-181.5 75.5t-181.5 -75.5t-75.5 -181.5zM53 350q0 148 104.5 252.5t252.5 104.5t252.5 -104.5t104.5 -252.5t-104.5 -252.5t-252.5 -104.5t-252.5 104.5t-104.5 252.5z" />
    <glyph glyph-name="H18533" unicode="&#x25cf;" horiz-adv-x="820" 
d="M53 350q0 148 104.5 252.5t252.5 104.5t252.5 -104.5t104.5 -252.5t-104.5 -252.5t-252.5 -104.5t-252.5 104.5t-104.5 252.5z" />
    <glyph glyph-name="zero.dnom" horiz-adv-x="299" 
d="M96 118q0 -25 16 -41t39 -16q22 0 37 16t15 41v75q0 25 -15 41.5t-37 16.5q-23 0 -39 -16.5t-16 -41.5v-75zM26 115v80q0 55 36.5 90.5t88.5 35.5q51 0 86.5 -35.5t35.5 -90.5v-80q0 -54 -35.5 -89t-86.5 -35q-52 0 -88.5 35t-36.5 89z" />
    <glyph glyph-name="one.dnom" horiz-adv-x="221" 
d="M195 314v-315h-70v231l-56 -43l-43 52l97 75h72z" />
    <glyph glyph-name="two.dnom" horiz-adv-x="290" 
d="M263 206q0 49 -34 80.5t-83 31.5q-46 0 -76.5 -26t-43.5 -68l66 -23q14 47 52 47q20 0 33.5 -13t13.5 -33q0 -29 -68 -65l-96 -55v-83h237v67h-148l55 30q92 47 92 110z" />
    <glyph glyph-name="three.dnom" horiz-adv-x="295" 
d="M190 182l73 52v81h-224v-64h154l-74 -60l24 -48q26 0 40 -11t14 -30q0 -17 -13 -27.5t-33 -10.5q-21 0 -35.5 13t-18.5 37l-71 -17q12 -47 45.5 -75t80.5 -28q51 0 84 29t33 75q0 35 -21.5 58t-57.5 26z" />
    <glyph glyph-name="four.dnom" horiz-adv-x="298" 
d="M93 124h72v103zM235 314v-190h37v-61h-37v-64h-70v64h-139v72l128 179h81z" />
    <glyph glyph-name="five.dnom" horiz-adv-x="299" 
d="M96 189v60h165v64h-235v-157l70 -24q27 30 59 30q21 0 34.5 -15t13.5 -38t-14.5 -36.5t-38.5 -13.5q-22 0 -36.5 11t-19.5 31l-68 -19q13 -42 47 -66.5t79 -24.5q53 0 87 33.5t34 84.5q0 47 -28.5 80t-69.5 33q-45 0 -79 -33z" />
    <glyph glyph-name="six.dnom" horiz-adv-x="300" 
d="M224 222q-20 34 -59 34q-30 0 -49 -25t-22 -68q10 20 30.5 31.5t45.5 11.5q41 0 70 -31t29 -75q0 -47 -33.5 -78t-83.5 -31q-59 0 -92.5 43.5t-33.5 113.5q0 77 38.5 125t100.5 48q36 0 65 -17t44 -47zM105 102q0 -20 14 -33t35 -13t34 12t13 31t-14 32t-35 13
q-20 0 -33.5 -12t-13.5 -30z" />
    <glyph glyph-name="seven.dnom" horiz-adv-x="286" 
d="M165 -1l96 240v75h-235v-64h168l-105 -251h76z" />
    <glyph glyph-name="eight.dnom" horiz-adv-x="297" 
d="M96 92q0 -16 15 -26t37.5 -10t37.5 10t15 26t-15 26.5t-37.5 10.5t-37.5 -10.5t-15 -26.5zM37 231q0 37 32.5 63.5t79 26.5t79 -26.5t32.5 -63.5q0 -50 -54 -72q31 -10 48 -29.5t17 -45.5q0 -39 -35.5 -66t-87 -27t-87 27t-35.5 66q0 26 17 45.5t48 29.5q-54 22 -54 72z
M149 187q17 0 29 10.5t12 25.5q0 14 -11.5 23.5t-30 9.5t-30 -9.5t-11.5 -23.5q0 -15 12.5 -25.5t29.5 -10.5z" />
    <glyph glyph-name="nine.dnom" horiz-adv-x="300" 
d="M76 89q20 -33 59 -33q30 0 49 24.5t22 67.5q-10 -19 -30.5 -31t-45.5 -12q-41 0 -70 31t-29 75q0 47 33.5 78.5t84.5 31.5q58 0 91.5 -43.5t33.5 -113.5q0 -77 -38.5 -125t-99.5 -48q-37 0 -66 16.5t-44 47.5zM196 210q0 19 -14.5 32.5t-35.5 13.5q-20 0 -33.5 -12
t-13.5 -31q0 -20 14 -32.5t35 -12.5t34.5 12t13.5 30z" />
    <glyph glyph-name="zero.numr" horiz-adv-x="299" 
d="M96 501q0 -24 16 -40.5t39 -16.5q22 0 37 16.5t15 40.5v76q0 25 -15 41t-37 16q-23 0 -39 -16t-16 -41v-76zM26 499v80q0 55 36.5 90t88.5 35q51 0 86.5 -35t35.5 -90v-80q0 -54 -35.5 -89.5t-86.5 -35.5q-52 0 -88.5 35.5t-36.5 89.5z" />
    <glyph glyph-name="one.numr" horiz-adv-x="221" 
d="M195 697v-315h-70v232l-56 -44l-43 52l97 75h72z" />
    <glyph glyph-name="two.numr" horiz-adv-x="290" 
d="M263 589q0 49 -34 80.5t-83 31.5q-46 0 -76.5 -26t-43.5 -67l66 -24q14 47 52 47q20 0 33.5 -13t13.5 -33q0 -29 -68 -65l-96 -55v-83h237v67h-148l55 30q92 47 92 110z" />
    <glyph glyph-name="three.numr" horiz-adv-x="295" 
d="M190 564l73 52v81h-224v-64h154l-74 -60l24 -48q26 0 40 -11t14 -30q0 -17 -13 -27.5t-33 -10.5q-21 0 -35.5 13.5t-18.5 36.5l-71 -17q12 -46 45.5 -74.5t80.5 -28.5q51 0 84 29.5t33 74.5q0 36 -21.5 59t-57.5 25z" />
    <glyph glyph-name="four.numr" horiz-adv-x="298" 
d="M93 507h72v103zM235 697v-190h37v-61h-37v-64h-70v64h-139v72l128 179h81z" />
    <glyph glyph-name="five.numr" horiz-adv-x="299" 
d="M96 573v60h165v64h-235v-157l70 -25q27 31 59 31q21 0 34.5 -15t13.5 -38t-14.5 -37t-38.5 -14q-22 0 -36.5 11.5t-19.5 31.5l-68 -19q13 -42 47 -66.5t79 -24.5q53 0 87 33t34 85q0 47 -28.5 79.5t-69.5 32.5q-45 0 -79 -32z" />
    <glyph glyph-name="six.numr" horiz-adv-x="300" 
d="M224 606q-20 34 -59 34q-30 0 -49 -25t-22 -68q10 20 30.5 31.5t45.5 11.5q41 0 70 -31t29 -75q0 -47 -33.5 -78.5t-83.5 -31.5q-59 0 -92.5 44t-33.5 114q0 77 38.5 124.5t100.5 47.5q36 0 65 -16.5t44 -47.5zM105 485q0 -19 14 -32t35 -13t34 12t13 30q0 20 -14 32.5
t-35 12.5q-20 0 -33.5 -11.5t-13.5 -30.5z" />
    <glyph glyph-name="seven.numr" horiz-adv-x="286" 
d="M165 382l96 240v75h-235v-64h168l-105 -251h76z" />
    <glyph glyph-name="eight.numr" horiz-adv-x="297" 
d="M96 476q0 -16 15 -26t37.5 -10t37.5 10t15 26t-15 26t-37.5 10t-37.5 -10t-15 -26zM37 615q0 37 32.5 63t79 26t79 -26t32.5 -63q0 -50 -54 -72q31 -10 48 -29.5t17 -45.5q0 -40 -35.5 -67t-87 -27t-87 27t-35.5 67q0 26 17 45.5t48 29.5q-54 22 -54 72zM149 571
q17 0 29 10.5t12 25.5q0 14 -11.5 23.5t-30 9.5t-30 -9.5t-11.5 -23.5q0 -15 12.5 -25.5t29.5 -10.5z" />
    <glyph glyph-name="nine.numr" horiz-adv-x="300" 
d="M76 473q20 -34 59 -34q30 0 49 25t22 68q-10 -20 -30.5 -31.5t-45.5 -11.5q-41 0 -70 31t-29 75q0 47 33.5 78t84.5 31q58 0 91.5 -43.5t33.5 -113.5q0 -77 -38.5 -125t-99.5 -48q-37 0 -66 17t-44 47zM196 594q0 19 -14.5 32.5t-35.5 13.5q-20 0 -33.5 -12.5
t-13.5 -30.5q0 -20 14 -32.5t35 -12.5t34.5 11.5t13.5 30.5z" />
    <glyph glyph-name="zero.tabl" horiz-adv-x="610" 
d="M118 303q0 -105 54.5 -173t132.5 -68t132 68t54 173v93q0 105 -54 173t-132 68t-132.5 -68t-54.5 -173v-93zM38 303v93q0 139 77.5 230t189 91t189 -91t77.5 -230v-93q0 -139 -77.5 -230t-189 -91t-189 91t-77.5 230z" />
    <glyph glyph-name="one.tabl" horiz-adv-x="610" 
d="M566 77v-77h-522v77h228v529l-186 -145l-48 61l230 178h84v-623h214z" />
    <glyph glyph-name="two.tabl" horiz-adv-x="610" 
d="M565 470q0 104 -74.5 172.5t-182.5 68.5q-102 0 -168 -57.5t-95 -148.5l78 -25q47 151 185 151q74 0 125.5 -45.5t51.5 -115.5q0 -22 -10 -43.5t-23 -37.5t-37.5 -37t-39.5 -32.5t-44 -31.5l-9 -6l-269 -188v-94h512v77h-405l222 155q34 24 60 45t57.5 53t48.5 67.5
t17 72.5z" />
    <glyph glyph-name="three.tabl" horiz-adv-x="610" 
d="M352 428l213 178v94h-512v-77h423l-228 -197l26 -57q101 0 156 -43.5t55 -119.5q0 -60 -50.5 -98.5t-130.5 -38.5q-71 0 -119.5 34.5t-64.5 96.5l-75 -26q25 -83 93.5 -134t165.5 -51q114 0 187.5 61.5t73.5 157.5q0 90 -58 148.5t-155 71.5z" />
    <glyph glyph-name="four.tabl" horiz-adv-x="610" 
d="M122 285h257v309zM459 700v-415h107v-77h-107v-208h-80v208h-340v90l328 402h92z" />
    <glyph glyph-name="five.tabl" horiz-adv-x="610" 
d="M142 410v213h393v77h-473v-347l80 -25q37 40 82.5 62t91.5 22q69 0 114 -48.5t45 -123.5q0 -76 -48 -123.5t-126 -47.5q-65 0 -110.5 34t-60.5 94l-78 -25q25 -85 92.5 -134t159.5 -49q110 0 180.5 69.5t70.5 177.5q0 105 -65 178.5t-159 73.5q-49 0 -99 -21t-90 -57z
" />
    <glyph glyph-name="six.tabl" horiz-adv-x="610" 
d="M510 557q-28 39 -71.5 59.5t-97.5 20.5q-95 0 -155 -76t-68 -202q29 56 86.5 88.5t125.5 32.5q103 0 172.5 -71.5t69.5 -176.5q0 -107 -73.5 -178.5t-184.5 -71.5q-76 0 -138.5 34.5t-95.5 95.5q-42 79 -43 202q1 182 86.5 292.5t223.5 110.5q69 0 126 -28t89 -77z
M128 237q0 -72 55.5 -123.5t133.5 -51.5q76 0 125.5 48.5t49.5 121.5t-50.5 120.5t-129.5 47.5t-132 -46.5t-52 -116.5z" />
    <glyph glyph-name="seven.tabl" horiz-adv-x="610" 
d="M287 0l285 613v87h-535v-77h456l-295 -623h89z" />
    <glyph glyph-name="eight.tabl" horiz-adv-x="610" 
d="M124 189q0 -55 52 -91t129 -36t129 36t52 91q0 58 -52.5 96t-128.5 38t-128.5 -38t-52.5 -96zM64 523q0 85 69.5 140t171.5 55t171.5 -55t69.5 -140q0 -52 -31 -95t-85 -67q63 -25 99.5 -72t36.5 -107q0 -86 -75.5 -143t-185.5 -57t-185.5 57t-75.5 143q0 60 36.5 107
t99.5 72q-54 24 -85 67t-31 95zM305 397q68 0 114.5 33.5t46.5 86.5q0 52 -46.5 86.5t-114.5 34.5t-114.5 -34.5t-46.5 -86.5q0 -53 46.5 -86.5t114.5 -33.5z" />
    <glyph glyph-name="nine.tabl" horiz-adv-x="610" 
d="M100 142q28 -39 71.5 -59.5t97.5 -20.5q95 0 155 76t68 202q-29 -56 -86.5 -88.5t-125.5 -32.5q-103 0 -173 71.5t-70 176.5q1 107 74.5 178.5t184.5 71.5q76 0 138.5 -34.5t95.5 -95.5q42 -79 42 -202q0 -182 -85.5 -292.5t-223.5 -110.5q-69 0 -126 28t-89 77zM482 462
q0 72 -55.5 123.5t-133.5 51.5q-76 0 -126 -48.5t-50 -121.5q1 -73 51.5 -120.5t129.5 -47.5t131.5 46.5t52.5 116.5z" />
    <glyph glyph-name="zero.slsh" horiz-adv-x="648" 
d="M82 152l444 444l46 -65l-438 -439zM118 323q0 -114 60 -187.5t146 -73.5t146 73.5t60 187.5v53q0 114 -60 187.5t-146 73.5t-146 -73.5t-60 -187.5v-53zM38 323v53q0 148 83 244.5t203 96.5t203 -96.5t83 -244.5v-53q0 -148 -83 -244.5t-203 -96.5t-203.5 96.5
t-82.5 244.5z" />
    <glyph glyph-name="a.ss01" 
d="M580 0h-80v500h80v-500zM500 251q0 83 -55.5 137t-135.5 54t-135.5 -54t-55.5 -137t55.5 -137t135.5 -54t135.5 54t55.5 137zM538 251q0 -116 -71 -192.5t-175 -76.5q-107 0 -180.5 76.5t-73.5 192.5t73.5 192.5t180.5 76.5q104 0 175 -76.5t71 -192.5z" />
    <glyph glyph-name="agrave.ss01" 
d="M164 725l56 52l162 -161l-51 -48zM580 0h-80v500h80v-500zM500 251q0 83 -55.5 137t-135.5 54t-135.5 -54t-55.5 -137t55.5 -137t135.5 -54t135.5 54t55.5 137zM538 251q0 -116 -71 -192.5t-175 -76.5q-107 0 -180.5 76.5t-73.5 192.5t73.5 192.5t180.5 76.5
q104 0 175 -76.5t71 -192.5z" />
    <glyph glyph-name="aacute.ss01" 
d="M438 725l-55 55l-159 -164l46 -48zM580 0h-80v500h80v-500zM500 251q0 83 -55.5 137t-135.5 54t-135.5 -54t-55.5 -137t55.5 -137t135.5 -54t135.5 54t55.5 137zM538 251q0 -116 -71 -192.5t-175 -76.5q-107 0 -180.5 76.5t-73.5 192.5t73.5 192.5t180.5 76.5
q104 0 175 -76.5t71 -192.5z" />
    <glyph glyph-name="acircumflex.ss01" 
d="M291 765l-162 -152l46 -47l128 123l128 -123l46 47l-162 152h-24zM580 0h-80v500h80v-500zM500 251q0 83 -55.5 137t-135.5 54t-135.5 -54t-55.5 -137t55.5 -137t135.5 -54t135.5 54t55.5 137zM538 251q0 -116 -71 -192.5t-175 -76.5q-107 0 -180.5 76.5t-73.5 192.5
t73.5 192.5t180.5 76.5q104 0 175 -76.5t71 -192.5z" />
    <glyph glyph-name="atilde.ss01" 
d="M228 712q-40 0 -68 -32t-39 -88l59 -18q6 35 19 54.5t31 19.5q13 0 24.5 -7t30.5 -28q26 -25 47 -35t46 -10q40 0 68.5 32t38.5 88l-59 18q-14 -71 -55 -71q-14 0 -25.5 7t-29.5 27q-25 24 -44.5 33.5t-43.5 9.5zM580 0h-80v500h80v-500zM500 251q0 83 -55.5 137
t-135.5 54t-135.5 -54t-55.5 -137t55.5 -137t135.5 -54t135.5 54t55.5 137zM538 251q0 -116 -71 -192.5t-175 -76.5q-107 0 -180.5 76.5t-73.5 192.5t73.5 192.5t180.5 76.5q104 0 175 -76.5t71 -192.5z" />
    <glyph glyph-name="adieresis.ss01" 
d="M348 622q0 23 15.5 38.5t38.5 15.5t38.5 -15.5t15.5 -38.5t-15.5 -38.5t-38.5 -15.5t-38.5 15.5t-15.5 38.5zM148 622q0 23 15.5 38.5t38.5 15.5t38.5 -15.5t15.5 -38.5t-15.5 -38.5t-38.5 -15.5t-38.5 15.5t-15.5 38.5zM580 0h-80v500h80v-500zM500 251q0 83 -55.5 137
t-135.5 54t-135.5 -54t-55.5 -137t55.5 -137t135.5 -54t135.5 54t55.5 137zM538 251q0 -116 -71 -192.5t-175 -76.5q-107 0 -180.5 76.5t-73.5 192.5t73.5 192.5t180.5 76.5q104 0 175 -76.5t71 -192.5z" />
    <glyph glyph-name="aring.ss01" 
d="M251 680.5q0 -22.5 15 -37t37 -14.5t37 14.5t15 37t-15 37t-37 14.5t-37 -14.5t-15 -37zM190 680.5q0 48.5 33 80.5t80 32t80 -32t33 -80.5t-33 -80.5t-80 -32t-80 32t-33 80.5zM580 0h-80v500h80v-500zM500 251q0 83 -55.5 137t-135.5 54t-135.5 -54t-55.5 -137
t55.5 -137t135.5 -54t135.5 54t55.5 137zM538 251q0 -116 -71 -192.5t-175 -76.5q-107 0 -180.5 76.5t-73.5 192.5t73.5 192.5t180.5 76.5q104 0 175 -76.5t71 -192.5z" />
    <glyph glyph-name="ae.ss01" horiz-adv-x="1078" 
d="M960 283q-6 69 -56.5 113.5t-121.5 44.5t-120.5 -44t-58.5 -114h357zM603 215q9 -70 59.5 -114.5t122.5 -44.5q53 0 97 25.5t66 70.5l74 -30q-32 -65 -93 -103.5t-134 -38.5q-107 0 -177.5 77t-70.5 193q0 115 69.5 191.5t174.5 76.5t177.5 -76t72.5 -186q0 -15 -3 -41
h-435zM580 0h-80v500h80v-500zM500 251q0 82 -54.5 136.5t-136.5 54.5t-136.5 -54.5t-54.5 -136.5t54.5 -136.5t136.5 -54.5t136.5 54.5t54.5 136.5zM538 251q0 -115 -70.5 -192t-177.5 -77t-179.5 77.5t-72.5 191.5t72.5 191.5t179.5 77.5t177.5 -77t70.5 -192z" />
    <glyph glyph-name="amacron.ss01" 
d="M461 645v-67h-308v67h308zM580 0h-80v500h80v-500zM500 251q0 83 -55.5 137t-135.5 54t-135.5 -54t-55.5 -137t55.5 -137t135.5 -54t135.5 54t55.5 137zM538 251q0 -116 -71 -192.5t-175 -76.5q-107 0 -180.5 76.5t-73.5 192.5t73.5 192.5t180.5 76.5q104 0 175 -76.5
t71 -192.5z" />
    <glyph glyph-name="abreve.ss01" 
d="M302 576q-69 0 -117 45.5t-48 109.5h67q0 -40 28 -66t71 -26q44 0 74.5 27t30.5 65h67q0 -62 -51.5 -108.5t-121.5 -46.5zM580 0h-80v500h80v-500zM500 251q0 83 -55.5 137t-135.5 54t-135.5 -54t-55.5 -137t55.5 -137t135.5 -54t135.5 54t55.5 137zM538 251
q0 -116 -71 -192.5t-175 -76.5q-107 0 -180.5 76.5t-73.5 192.5t73.5 192.5t180.5 76.5q104 0 175 -76.5t71 -192.5z" />
    <glyph glyph-name="aogonek.ss01" 
d="M473 -21v24h59v-45l-57 -36q-35 -24 -35 -58q0 -22 13 -35t34 -13q38 0 47 40l57 -17q-10 -38 -38 -60t-67 -22q-47 0 -77.5 28.5t-30.5 73.5q0 32 16.5 56t55.5 49zM580 0h-80v500h80v-500zM500 251q0 83 -55.5 137t-135.5 54t-135.5 -54t-55.5 -137t55.5 -137
t135.5 -54t135.5 54t55.5 137zM538 251q0 -116 -71 -192.5t-175 -76.5q-107 0 -180.5 76.5t-73.5 192.5t73.5 192.5t180.5 76.5q104 0 175 -76.5t71 -192.5z" />
    <glyph glyph-name="uni1EA1.ss01" 
d="M260 -137.5q0 22.5 15.5 38t38.5 15.5t38.5 -15.5t15.5 -38t-15.5 -38.5t-38.5 -16t-38.5 16t-15.5 38.5zM580 0h-80v500h80v-500zM500 251q0 83 -55.5 137t-135.5 54t-135.5 -54t-55.5 -137t55.5 -137t135.5 -54t135.5 54t55.5 137zM538 251q0 -116 -71 -192.5
t-175 -76.5q-107 0 -180.5 76.5t-73.5 192.5t73.5 192.5t180.5 76.5q104 0 175 -76.5t71 -192.5z" />
    <glyph glyph-name="uni1EA3.ss01" 
d="M306 556l-38 49l41 27q33 19 33 50q0 20 -13 32.5t-33 12.5q-37 0 -45 -36l-58 17q11 38 39 59.5t66 21.5q48 0 78 -30t30 -77q0 -33 -17.5 -57.5t-55.5 -50.5zM580 0h-80v500h80v-500zM500 251q0 83 -55.5 137t-135.5 54t-135.5 -54t-55.5 -137t55.5 -137t135.5 -54
t135.5 54t55.5 137zM538 251q0 -116 -71 -192.5t-175 -76.5q-107 0 -180.5 76.5t-73.5 192.5t73.5 192.5t180.5 76.5q104 0 175 -76.5t71 -192.5z" />
    <glyph glyph-name="uni1EA5.ss01" 
d="M628 868l-55 55l-159 -164l46 -48zM291 765l-162 -152l46 -47l128 123l128 -123l46 47l-162 152h-24zM580 0h-80v500h80v-500zM500 251q0 83 -55.5 137t-135.5 54t-135.5 -54t-55.5 -137t55.5 -137t135.5 -54t135.5 54t55.5 137zM538 251q0 -116 -71 -192.5t-175 -76.5
q-107 0 -180.5 76.5t-73.5 192.5t73.5 192.5t180.5 76.5q104 0 175 -76.5t71 -192.5z" />
    <glyph glyph-name="uni1EA7.ss01" 
d="M354 868l56 52l162 -161l-51 -48zM291 765l-162 -152l46 -47l128 123l128 -123l46 47l-162 152h-24zM580 0h-80v500h80v-500zM500 251q0 83 -55.5 137t-135.5 54t-135.5 -54t-55.5 -137t55.5 -137t135.5 -54t135.5 54t55.5 137zM538 251q0 -116 -71 -192.5t-175 -76.5
q-107 0 -180.5 76.5t-73.5 192.5t73.5 192.5t180.5 76.5q104 0 175 -76.5t71 -192.5z" />
    <glyph glyph-name="uni1EA9.ss01" 
d="M496 699l-38 49l41 27q33 19 33 50q0 20 -13 32.5t-33 12.5q-37 0 -45 -36l-58 17q11 38 39 59.5t66 21.5q48 0 78 -30t30 -77q0 -33 -17.5 -57.5t-55.5 -50.5zM291 765l-162 -152l46 -47l128 123l128 -123l46 47l-162 152h-24zM580 0h-80v500h80v-500zM500 251
q0 83 -55.5 137t-135.5 54t-135.5 -54t-55.5 -137t55.5 -137t135.5 -54t135.5 54t55.5 137zM538 251q0 -116 -71 -192.5t-175 -76.5q-107 0 -180.5 76.5t-73.5 192.5t73.5 192.5t180.5 76.5q104 0 175 -76.5t71 -192.5z" />
    <glyph glyph-name="uni1EAB.ss01" 
d="M228 984q-40 0 -68 -32t-39 -88l59 -18q6 35 19 54.5t31 19.5q13 0 24.5 -7t30.5 -28q26 -25 47 -35t46 -10q40 0 68.5 32t38.5 88l-59 18q-14 -71 -55 -71q-14 0 -25.5 7t-29.5 27q-25 24 -44.5 33.5t-43.5 9.5zM291 765l-162 -152l46 -47l128 123l128 -123l46 47
l-162 152h-24zM580 0h-80v500h80v-500zM500 251q0 83 -55.5 137t-135.5 54t-135.5 -54t-55.5 -137t55.5 -137t135.5 -54t135.5 54t55.5 137zM538 251q0 -116 -71 -192.5t-175 -76.5q-107 0 -180.5 76.5t-73.5 192.5t73.5 192.5t180.5 76.5q104 0 175 -76.5t71 -192.5z" />
    <glyph glyph-name="uni1EAD.ss01" 
d="M291 765l-162 -152l46 -47l128 123l128 -123l46 47l-162 152h-24zM260 -137.5q0 22.5 15.5 38t38.5 15.5t38.5 -15.5t15.5 -38t-15.5 -38.5t-38.5 -16t-38.5 16t-15.5 38.5zM580 0h-80v500h80v-500zM500 251q0 83 -55.5 137t-135.5 54t-135.5 -54t-55.5 -137t55.5 -137
t135.5 -54t135.5 54t55.5 137zM538 251q0 -116 -71 -192.5t-175 -76.5q-107 0 -180.5 76.5t-73.5 192.5t73.5 192.5t180.5 76.5q104 0 175 -76.5t71 -192.5z" />
    <glyph glyph-name="uni1EAF.ss01" 
d="M470 933l-55 55l-159 -164l46 -48zM302 576q-69 0 -117 45.5t-48 109.5h67q0 -40 28 -66t71 -26q44 0 74.5 27t30.5 65h67q0 -62 -51.5 -108.5t-121.5 -46.5zM580 0h-80v500h80v-500zM500 251q0 83 -55.5 137t-135.5 54t-135.5 -54t-55.5 -137t55.5 -137t135.5 -54
t135.5 54t55.5 137zM538 251q0 -116 -71 -192.5t-175 -76.5q-107 0 -180.5 76.5t-73.5 192.5t73.5 192.5t180.5 76.5q104 0 175 -76.5t71 -192.5z" />
    <glyph glyph-name="uni1EB1.ss01" 
d="M136 933l56 52l162 -161l-51 -48zM302 576q-69 0 -117 45.5t-48 109.5h67q0 -40 28 -66t71 -26q44 0 74.5 27t30.5 65h67q0 -62 -51.5 -108.5t-121.5 -46.5zM580 0h-80v500h80v-500zM500 251q0 83 -55.5 137t-135.5 54t-135.5 -54t-55.5 -137t55.5 -137t135.5 -54
t135.5 54t55.5 137zM538 251q0 -116 -71 -192.5t-175 -76.5q-107 0 -180.5 76.5t-73.5 192.5t73.5 192.5t180.5 76.5q104 0 175 -76.5t71 -192.5z" />
    <glyph glyph-name="uni1EB3.ss01" 
d="M308 771l-38 49l41 27q33 19 33 50q0 20 -13 32.5t-33 12.5q-37 0 -45 -36l-58 17q11 38 39 59.5t66 21.5q48 0 78 -30t30 -77q0 -33 -17.5 -57.5t-55.5 -50.5zM302 576q-69 0 -117 45.5t-48 109.5h67q0 -40 28 -66t71 -26q44 0 74.5 27t30.5 65h67q0 -62 -51.5 -108.5
t-121.5 -46.5zM580 0h-80v500h80v-500zM500 251q0 83 -55.5 137t-135.5 54t-135.5 -54t-55.5 -137t55.5 -137t135.5 -54t135.5 54t55.5 137zM538 251q0 -116 -71 -192.5t-175 -76.5q-107 0 -180.5 76.5t-73.5 192.5t73.5 192.5t180.5 76.5q104 0 175 -76.5t71 -192.5z" />
    <glyph glyph-name="uni1EB5.ss01" 
d="M230 920q-40 0 -68 -32t-39 -88l59 -18q6 35 19 54.5t31 19.5q13 0 24.5 -7t30.5 -28q26 -25 47 -35t46 -10q40 0 68.5 32t38.5 88l-59 18q-14 -71 -55 -71q-14 0 -25.5 7t-29.5 27q-25 24 -44.5 33.5t-43.5 9.5zM302 576q-69 0 -117 45.5t-48 109.5h67q0 -40 28 -66
t71 -26q44 0 74.5 27t30.5 65h67q0 -62 -51.5 -108.5t-121.5 -46.5zM580 0h-80v500h80v-500zM500 251q0 83 -55.5 137t-135.5 54t-135.5 -54t-55.5 -137t55.5 -137t135.5 -54t135.5 54t55.5 137zM538 251q0 -116 -71 -192.5t-175 -76.5q-107 0 -180.5 76.5t-73.5 192.5
t73.5 192.5t180.5 76.5q104 0 175 -76.5t71 -192.5z" />
    <glyph glyph-name="uni1EB7.ss01" 
d="M302 576q-69 0 -117 45.5t-48 109.5h67q0 -40 28 -66t71 -26q44 0 74.5 27t30.5 65h67q0 -62 -51.5 -108.5t-121.5 -46.5zM260 -137.5q0 22.5 15.5 38t38.5 15.5t38.5 -15.5t15.5 -38t-15.5 -38.5t-38.5 -16t-38.5 16t-15.5 38.5zM580 0h-80v500h80v-500zM500 251
q0 83 -55.5 137t-135.5 54t-135.5 -54t-55.5 -137t55.5 -137t135.5 -54t135.5 54t55.5 137zM538 251q0 -116 -71 -192.5t-175 -76.5q-107 0 -180.5 76.5t-73.5 192.5t73.5 192.5t180.5 76.5q104 0 175 -76.5t71 -192.5z" />
    <glyph glyph-name="G.ss02" horiz-adv-x="797" 
d="M118 351q0 -126 80 -207.5t196 -81.5q108 0 185.5 67.5t85.5 175.5h-297v75h382v-380h-80v142q-44 -74 -119 -117t-165 -43q-96 0 -175.5 47t-126 132t-46.5 190t47.5 190t129 132t179.5 47q104 0 189.5 -56t129.5 -152l-72 -35q-34 76 -100.5 119.5t-146.5 43.5
q-116 0 -196 -81.5t-80 -207.5z" />
    <glyph glyph-name="Gcircumflex.ss02" horiz-adv-x="797" 
d="M382 974l-162 -152l46 -47l128 123l128 -123l46 47l-162 152h-24zM118 351q0 -126 80 -207.5t196 -81.5q108 0 185.5 67.5t85.5 175.5h-297v75h382v-380h-80v142q-44 -74 -119 -117t-165 -43q-96 0 -175.5 47t-126 132t-46.5 190t47.5 190t129 132t179.5 47
q104 0 189.5 -56t129.5 -152l-72 -35q-34 76 -100.5 119.5t-146.5 43.5q-116 0 -196 -81.5t-80 -207.5z" />
    <glyph glyph-name="Gbreve.ss02" horiz-adv-x="797" 
d="M393 785q-69 0 -117 45.5t-48 109.5h67q0 -40 28 -66t71 -26q44 0 74.5 27t30.5 65h67q0 -62 -51.5 -108.5t-121.5 -46.5zM118 351q0 -126 80 -207.5t196 -81.5q108 0 185.5 67.5t85.5 175.5h-297v75h382v-380h-80v142q-44 -74 -119 -117t-165 -43q-96 0 -175.5 47
t-126 132t-46.5 190t47.5 190t129 132t179.5 47q104 0 189.5 -56t129.5 -152l-72 -35q-34 76 -100.5 119.5t-146.5 43.5q-116 0 -196 -81.5t-80 -207.5z" />
    <glyph glyph-name="Gdotaccent.ss02" horiz-adv-x="797" 
d="M340 831q0 23 15.5 38.5t38.5 15.5t38.5 -15.5t15.5 -38.5t-15.5 -38.5t-38.5 -15.5t-38.5 15.5t-15.5 38.5zM118 351q0 -126 80 -207.5t196 -81.5q108 0 185.5 67.5t85.5 175.5h-297v75h382v-380h-80v142q-44 -74 -119 -117t-165 -43q-96 0 -175.5 47t-126 132
t-46.5 190t47.5 190t129 132t179.5 47q104 0 189.5 -56t129.5 -152l-72 -35q-34 76 -100.5 119.5t-146.5 43.5q-116 0 -196 -81.5t-80 -207.5z" />
    <glyph glyph-name="uni0122.ss02" horiz-adv-x="797" 
d="M430 -213q0 -23 -16 -41t-41 -18t-42.5 17t-17.5 41q0 22 12 38l90 129l37 -28l-59 -83q17 -7 27 -22t10 -33zM118 351q0 -126 80 -207.5t196 -81.5q108 0 185.5 67.5t85.5 175.5h-297v75h382v-380h-80v142q-44 -74 -119 -117t-165 -43q-96 0 -175.5 47t-126 132
t-46.5 190t47.5 190t129 132t179.5 47q104 0 189.5 -56t129.5 -152l-72 -35q-34 76 -100.5 119.5t-146.5 43.5q-116 0 -196 -81.5t-80 -207.5z" />
    </font>
</defs>
</svg>
