<?xml version="1.0" standalone="no"?>
<!DOCTYPE svg PUBLIC "-//W3C//DTD SVG 1.1//EN" "http://www.w3.org/Graphics/SVG/1.1/DTD/svg11.dtd" >
<svg xmlns="http://www.w3.org/2000/svg" xmlns:xlink="http://www.w3.org/1999/xlink" version="1.1">
<metadata>
Created by FontForge 20201107 at Wed Jan 18 08:27:48 2023
 By 
Copyright (c) 2022, RandomMaerks (Bao Nguyen) || For more information, send an email to rmforbusuness@gmail.com
</metadata>
<defs>
<font id="Cygre-Light" horiz-adv-x="170" >
  <font-face 
    font-family="Cygre Light"
    font-weight="300"
    font-stretch="normal"
    units-per-em="1000"
    panose-1="2 0 3 3 0 0 0 0 0 0"
    ascent="800"
    descent="-200"
    x-height="500"
    cap-height="700"
    bbox="-150 -234 1162 1192"
    underline-thickness="50"
    underline-position="-100"
    unicode-range="U+0020-25CF"
  />
<missing-glyph horiz-adv-x="364" 
d="M33 0v666h265v-666h-265zM66 33h199v600h-199v-600z" />
    <glyph glyph-name="f_i" unicode="fi" horiz-adv-x="532" 
d="M303 702q-45 0 -71.5 -29t-26.5 -78v-95h267l-10 -47h-257v-453h-50v453h-125v47h125v105q0 58 43 101.5t99 43.5h55v-48h-49zM408 631q0 17 11 28t28 11t28 -11t11 -28t-11 -28t-28 -11t-28 11t-11 28zM422 0v490l50 10v-500h-50z" />
    <glyph glyph-name="f_l" unicode="fl" horiz-adv-x="572" 
d="M303 702q-45 0 -71.5 -29t-26.5 -78v-95h167v-47h-167v-453h-50v453h-125v47h125v105q0 58 43 101.5t99 43.5h215l-10 -48h-199zM462 0v740l50 10v-750h-50z" />
    <glyph glyph-name="f_f_i" unicode="ffi" horiz-adv-x="884" 
d="M303 702q-45 0 -71.5 -29t-26.5 -78v-95h167v-47h-167v-453h-50v453h-125v47h125v105q0 58 43 101.5t99 43.5h55v-48h-49zM645 702q-45 0 -71.5 -29t-26.5 -78v-95h277l-1 -47h-276v-453h-50v453h-125v47h125v105q0 58 43 101.5t99 43.5h55v-48h-49zM760 631q0 17 11 28
t28 11t28 -11t11 -28t-11 -28t-28 -11t-28 11t-11 28zM774 0v499l50 1v-500h-50z" />
    <glyph glyph-name="f_f_l" unicode="ffl" horiz-adv-x="914" 
d="M303 702q-45 0 -71.5 -29t-26.5 -78v-95h167v-47h-167v-453h-50v453h-125v47h125v105q0 58 43 101.5t99 43.5h55v-48h-49zM645 702q-45 0 -71.5 -29t-26.5 -78v-95h167v-47h-167v-453h-50v453h-125v47h125v105q0 58 43 101.5t99 43.5h215l-1 -48h-208zM804 0v749l50 1
v-750h-50z" />
    <glyph glyph-name="f_f" unicode="ff" horiz-adv-x="744" 
d="M303 702q-45 0 -71.5 -29t-26.5 -78v-95h167v-47h-167v-453h-50v453h-125v47h125v105q0 58 43 101.5t99 43.5h55v-48h-49zM645 702q-45 0 -71.5 -29t-26.5 -78v-95h167v-47h-167v-453h-50v453h-125v47h125v105q0 58 43 101.5t99 43.5h55v-48h-49z" />
    <glyph glyph-name=".notdef" horiz-adv-x="364" 
d="M33 0v666h265v-666h-265zM66 33h199v600h-199v-600z" />
    <glyph glyph-name=".null" horiz-adv-x="0" 
 />
    <glyph glyph-name="nonmarkingreturn" horiz-adv-x="333" 
 />
    <glyph glyph-name="space" unicode=" " horiz-adv-x="270" 
 />
    <glyph glyph-name="exclam" unicode="!" 
d="M110 180h-50v520h50v-520zM36 39q0 21 14 35t35 14t35 -14t14 -35t-14 -35t-35 -14t-35 14t-14 35z" />
    <glyph glyph-name="quotedbl" unicode="&#x22;" horiz-adv-x="280" 
d="M197 750l50 -13l-59 -221l-45 11zM87 750l50 -13l-59 -221l-45 11z" />
    <glyph glyph-name="numbersign" unicode="#" horiz-adv-x="664" 
d="M634 490v-47h-604v47h604zM634 280v-47h-604v47h604zM347 0h-57l287 700h57zM87 0h-57l287 700h57z" />
    <glyph glyph-name="dollar" unicode="$" horiz-adv-x="434" 
d="M208 336q-168 34 -168 141q0 60 46.5 100.5t116.5 40.5q63 0 115.5 -36t75.5 -97l-46 -19q-19 47 -57 74.5t-87 27.5t-81.5 -25.5t-32.5 -63.5q0 -35 30.5 -57t98.5 -36q175 -37 175 -150q0 -61 -46.5 -101.5t-116.5 -40.5q-63 0 -115.5 36t-75.5 97l46 19
q19 -47 57 -74.5t87 -27.5t81.5 26t32.5 65q0 38 -33 62.5t-103 38.5zM192 596v104h50v-104h-50zM192 118h50v-118h-50v118z" />
    <glyph glyph-name="percent" unicode="%" horiz-adv-x="802" 
d="M484 159q0 -52 34.5 -85.5t84.5 -33.5t84.5 33.5t34.5 85.5t-34.5 85.5t-84.5 33.5t-84.5 -33.5t-34.5 -85.5zM434 159q0 73 49 121t120 48t120 -48t49 -121t-49 -121t-120 -48t-120 48t-49 121zM80 541q0 -52 34.5 -85.5t84.5 -33.5t84.5 33.5t34.5 85.5t-34.5 85.5
t-84.5 33.5t-84.5 -33.5t-34.5 -85.5zM30 541q0 73 49 121t120 48t120 -48t49 -121t-49 -121t-120 -48t-120 48t-49 121zM286 0h-57l287 700h57z" />
    <glyph glyph-name="ampersand" unicode="&#x26;" horiz-adv-x="638" 
d="M232 668q42 0 68.5 -25t26.5 -65q0 -60 -64 -119l-63 -57l-31 38q-32 39 -43.5 62.5t-11.5 50.5q0 48 34.5 81.5t83.5 33.5zM232 718q-70 0 -119 -48.5t-49 -116.5q0 -74 67 -146l33 -35l-76 -76q-56 -51 -56 -125q0 -79 57 -132.5t140 -53.5q81 0 135 56l66 68l114 -121
l36 34l-116 122l106 108l-35 35l-105 -107l-196 186l67 60q77 68 77 152q0 60 -41.5 100t-104.5 40zM198 336l198 -191l-60 -62q-48 -48 -110 -48q-61 0 -102 38.5t-41 94.5t48 100z" />
    <glyph glyph-name="quotesingle" unicode="'" 
d="M87 750l50 -13l-59 -221l-45 11z" />
    <glyph glyph-name="parenleft" unicode="(" horiz-adv-x="256" 
d="M40 253v213q0 107 42 185.5t110 105.5l24 -46q-55 -20 -90.5 -86.5t-35.5 -158.5v-213q0 -97 38.5 -164.5t97.5 -83.5l-23 -46q-72 23 -117.5 102.5t-45.5 191.5z" />
    <glyph glyph-name="parenright" unicode=")" horiz-adv-x="256" 
d="M216 463v-213q0 -107 -42 -185.5t-110 -105.5l-24 46q55 20 90.5 86.5t35.5 158.5v213q0 97 -38.5 164.5t-97.5 83.5l23 46q72 -23 117.5 -102.5t45.5 -191.5z" />
    <glyph glyph-name="asterisk" unicode="*" horiz-adv-x="474" 
d="M212 800h50v-176l167 55l15 -48l-167 -54l104 -142l-41 -30l-103 142l-103 -142l-41 30l104 142l-167 54l15 48l167 -55v176z" />
    <glyph glyph-name="plus" unicode="+" horiz-adv-x="352" 
d="M152 412h50v-122h120v-47h-120v-123h-50v123h-122v47h122v122z" />
    <glyph glyph-name="comma" unicode="," 
d="M87 81l50 -13l-59 -221l-45 11z" />
    <glyph glyph-name="hyphen" unicode="-" horiz-adv-x="352" 
d="M322 290v-47h-292v47h292z" />
    <glyph glyph-name="period" unicode="." 
d="M36 39q0 21 14 35t35 14t35 -14t14 -35t-14 -35t-35 -14t-35 14t-14 35z" />
    <glyph glyph-name="slash" unicode="/" horiz-adv-x="404" 
d="M87 0h-57l287 700h57z" />
    <glyph glyph-name="zero" unicode="0" horiz-adv-x="648" 
d="M90 323q0 -127 68 -209t166 -82t166 82t68 209v53q0 127 -68 209t-166 82t-166 -82t-68 -209v-53zM40 323v53q0 148 82.5 244.5t201.5 96.5t201.5 -96.5t82.5 -244.5v-53q0 -148 -82.5 -244.5t-201.5 -96.5t-201.5 96.5t-82.5 244.5z" />
    <glyph glyph-name="one" unicode="1" horiz-adv-x="330" 
d="M270 700v-700h-50v638l-157 -126l-33 38l189 150h51z" />
    <glyph glyph-name="two" unicode="2" horiz-adv-x="571" 
d="M531 477q0 101 -70.5 167.5t-171.5 66.5q-97 0 -159.5 -56t-89.5 -145l48 -17q50 168 201 168q80 0 136 -52t56 -132q0 -24 -11.5 -50t-24 -44t-40 -44t-40.5 -36.5t-44 -35.5l-272 -205v-62h482v47h-419l239 182q38 30 59 48.5t54.5 53.5t50 71.5t16.5 74.5z" />
    <glyph glyph-name="three" unicode="3" horiz-adv-x="571" 
d="M314 430l217 208v62h-482v-47h430l-240 -232l25 -37q105 0 161 -50t56 -136q0 -69 -55.5 -114t-140.5 -45q-76 0 -128 39t-69 109l-48 -15q23 -82 87.5 -132.5t155.5 -50.5q108 0 178 60t70 154q0 95 -59 155t-158 72z" />
    <glyph glyph-name="four" unicode="4" horiz-adv-x="582" 
d="M80 270h305v362zM435 700v-430h117v-47h-117v-223h-50v223h-355v57l345 420h60z" />
    <glyph glyph-name="five" unicode="5" horiz-adv-x="571" 
d="M100 402v251h411v47h-461v-337l50 -20q41 47 94 73t105 26q79 0 130.5 -57t51.5 -145q0 -90 -55.5 -145.5t-144.5 -55.5q-74 0 -125 39.5t-68 108.5l-48 -15q24 -85 89.5 -134t154.5 -49q107 0 177 69t70 176t-67 181.5t-164 74.5q-112 0 -200 -88z" />
    <glyph glyph-name="six" unicode="6" horiz-adv-x="610" 
d="M521 580q-61 87 -179 87q-108 0 -175.5 -87t-76.5 -231q32 60 94.5 95.5t136.5 35.5q106 0 177.5 -71.5t71.5 -177.5q0 -107 -73 -178t-183 -71q-74 0 -136.5 34t-95.5 96q-42 80 -42 202q0 183 85.5 293t221.5 110q68 0 124.5 -28t88.5 -77zM100 238q0 -86 63.5 -146
t154.5 -60q87 0 144.5 57t57.5 143t-58.5 142t-149.5 56t-151.5 -55t-60.5 -137z" />
    <glyph glyph-name="seven" unicode="7" horiz-adv-x="508" 
d="M220 0l258 643v57h-448v-47h401l-267 -653h56z" />
    <glyph glyph-name="eight" unicode="8" horiz-adv-x="598" 
d="M90 181q0 -65 60.5 -107t148.5 -42t148.5 42t60.5 107q0 69 -60.5 113t-148.5 44t-148.5 -44t-60.5 -113zM60 524q0 84 69.5 139t169.5 55t169.5 -55t69.5 -139q0 -54 -33 -96.5t-88 -66.5q64 -25 102.5 -72t38.5 -108q0 -86 -75.5 -142.5t-183.5 -56.5t-183.5 56.5
t-75.5 142.5q0 61 38.5 108t102.5 72q-55 24 -88 66.5t-33 96.5zM299 382q79 0 134 40t55 102q0 63 -55 103.5t-134 40.5t-134 -40.5t-55 -103.5q0 -62 55 -102t134 -40z" />
    <glyph glyph-name="nine" unicode="9" horiz-adv-x="610" 
d="M89 119q61 -87 179 -87q108 0 175.5 87t76.5 231q-32 -60 -94.5 -95.5t-136.5 -35.5q-106 0 -177.5 71.5t-71.5 177.5q0 107 73 178t183 71q74 0 136.5 -34t95.5 -96q42 -79 42 -202q0 -183 -85.5 -293t-221.5 -110q-68 0 -124.5 28t-88.5 77zM510 461q0 86 -63.5 146
t-154.5 60q-87 0 -144.5 -57t-57.5 -143t58.5 -142t149.5 -56t151.5 55t60.5 137z" />
    <glyph glyph-name="colon" unicode=":" 
d="M36 389q0 21 14 35t35 14t35 -14t14 -35t-14 -35t-35 -14t-35 14t-14 35zM36 39q0 21 14 35t35 14t35 -14t14 -35t-14 -35t-35 -14t-35 14t-14 35z" />
    <glyph glyph-name="semicolon" unicode=";" 
d="M36 389q0 21 14 35t35 14t35 -14t14 -35t-14 -35t-35 -14t-35 14t-14 35zM77 81l60 -13l-69 -221l-35 11z" />
    <glyph glyph-name="less" unicode="&#x3c;" horiz-adv-x="500" 
d="M460 121v-56l-420 173v64l420 173v-56l-368 -149z" />
    <glyph glyph-name="equal" unicode="=" horiz-adv-x="352" 
d="M322 208v-47h-292v47h292zM322 378v-47h-292v47h292z" />
    <glyph glyph-name="greater" unicode="&#x3e;" horiz-adv-x="500" 
d="M40 419v56l420 -173v-64l-420 -173v56l368 149z" />
    <glyph glyph-name="question" unicode="?" horiz-adv-x="551" 
d="M232 39q0 21 14 35t35 14t35 -14t14 -35t-14 -35t-35 -14t-35 14t-14 35zM511 487q0 98 -67 161t-165 63q-92 0 -152.5 -53.5t-86.5 -137.5l48 -17q49 158 191 158q76 0 129 -49t53 -125q0 -34 -20.5 -71t-37 -55t-52.5 -54l-102 -84l32 -39l100 85q27 26 42.5 42.5
t39.5 47t36 63t12 65.5z" />
    <glyph glyph-name="at" unicode="@" horiz-adv-x="793" 
d="M508 351q0 51 -34 85t-85 34t-85 -34t-34 -85t34 -85t85 -34t85 34t34 85zM533 351q0 -73 -43.5 -121t-109.5 -48q-67 0 -113.5 49t-46.5 120t46.5 120t113.5 49q66 0 109.5 -48t43.5 -121zM753 371q0 -85 -38 -137t-99 -52q-44 0 -76 26t-32 62v230h50v-210
q0 -62 58 -62q41 0 64 35t23 98q0 131 -87.5 220t-217.5 89q-131 0 -219.5 -91.5t-88.5 -227.5t88.5 -227.5t220.5 -91.5q108 0 193 65l28 -42q-97 -73 -222 -73q-153 0 -255.5 105.5t-102.5 263.5q0 157 103 263t255 106q149 0 252 -101t103 -248z" />
    <glyph glyph-name="A" unicode="A" horiz-adv-x="750" 
d="M160 254h425v-48h-425v48zM88 0h-56l311 700h64l311 -700h-56l-287 646z" />
    <glyph glyph-name="B" unicode="B" horiz-adv-x="648" 
d="M389 652h-279v-277h289q59 0 99 44t40 109q0 54 -42.5 89t-106.5 35zM399 327h-289v-279h289q64 0 106.5 37t42.5 91q0 65 -42.5 108t-106.5 43zM409 0h-349v700h339q81 0 135 -49t54 -123q0 -57 -27.5 -103t-75.5 -71q52 -25 82.5 -72t30.5 -106q0 -75 -54 -125.5
t-135 -50.5z" />
    <glyph glyph-name="C" unicode="C" horiz-adv-x="778" 
d="M40 351q0 160 104 264.5t255 104.5q109 0 198.5 -57t135.5 -156l-45 -20q-40 85 -117.5 134t-171.5 49q-129 0 -219 -90t-90 -229t90 -229t219 -90q97 0 175.5 51.5t117.5 140.5l46 -19q-44 -102 -135.5 -162.5t-203.5 -60.5q-151 0 -255 104.5t-104 264.5z" />
    <glyph glyph-name="D" unicode="D" horiz-adv-x="698" 
d="M309 0h-249v700h249q146 0 247.5 -98.5t101.5 -250.5t-101.5 -251.5t-247.5 -99.5zM299 652h-189v-604h189q129 0 219 85t90 218q0 132 -90 216.5t-219 84.5z" />
    <glyph glyph-name="E" unicode="E" horiz-adv-x="550" 
d="M110 375h376v-48h-376v-279h400v-48h-450v700h450v-48h-400v-277z" />
    <glyph glyph-name="F" unicode="F" horiz-adv-x="550" 
d="M110 375h376v-48h-376v-327h-50v700h450v-48h-400v-277z" />
    <glyph glyph-name="G" unicode="G" horiz-adv-x="788" 
d="M90 351q0 -139 88.5 -229t215.5 -90q124 0 211.5 80t92.5 206h-322v49h371q1 -10 1 -30q0 -153 -103 -254t-251 -101t-251 104.5t-103 264.5t103 264.5t251 104.5q103 0 188 -57.5t129 -155.5l-45 -20q-38 85 -111 134t-161 49q-127 0 -215.5 -90t-88.5 -229z" />
    <glyph glyph-name="H" unicode="H" horiz-adv-x="680" 
d="M60 0v700h50v-325h460v325h50v-700h-50v327h-460v-327h-50z" />
    <glyph glyph-name="I" unicode="I" 
d="M110 0h-50v700h50v-700z" />
    <glyph glyph-name="J" unicode="J" horiz-adv-x="577" 
d="M40 151l45 17q45 -129 187 -129q86 0 140.5 52.5t54.5 145.5v463h50v-473q0 -103 -70.5 -170.5t-174.5 -67.5q-85 0 -146 43t-86 119z" />
    <glyph glyph-name="K" unicode="K" horiz-adv-x="585" 
d="M60 0v700h50v-327h37l335 327h71l-360 -352l360 -348h-71l-335 320h-37v-320h-50z" />
    <glyph glyph-name="L" unicode="L" horiz-adv-x="540" 
d="M110 48h400v-48h-450v700h50v-652z" />
    <glyph glyph-name="M" unicode="M" horiz-adv-x="836" 
d="M60 0v700h65l293 -525l293 525h65v-700h-50v622l-285 -508h-45l-286 508v-622h-50z" />
    <glyph glyph-name="N" unicode="N" horiz-adv-x="680" 
d="M60 0v700h63l447 -627v627h50v-700h-63l-447 637v-637h-50z" />
    <glyph glyph-name="O" unicode="O" horiz-adv-x="788" 
d="M90 353q0 -141 88 -231t216 -90t216 90t88 231q0 139 -88 228t-216 89t-216 -89t-88 -228zM40 353q0 160 102.5 263.5t251.5 103.5t251.5 -103.5t102.5 -263.5q0 -161 -102.5 -266t-251.5 -105t-251.5 105t-102.5 266z" />
    <glyph glyph-name="P" unicode="P" horiz-adv-x="618" 
d="M339 652h-229v-352h229q85 0 142 51t57 127q0 75 -56.5 124.5t-142.5 49.5zM339 252h-229v-252h-50v700h289q103 0 171 -63.5t68 -158.5t-72.5 -160.5t-176.5 -65.5z" />
    <glyph glyph-name="Q" unicode="Q" horiz-adv-x="788" 
d="M90 353q0 -141 88 -231t216 -90t216 90t88 231q0 139 -88 228t-216 89t-216 -89t-88 -228zM40 353q0 160 102.5 263.5t251.5 103.5t251.5 -103.5t102.5 -263.5q0 -161 -102.5 -266t-251.5 -105t-251.5 105t-102.5 266zM713 -10l-328 328l35 35l328 -328z" />
    <glyph glyph-name="R" unicode="R" horiz-adv-x="628" 
d="M359 652h-249v-332h249q76 0 127.5 48.5t51.5 119.5t-51 117.5t-128 46.5zM359 272l229 -272h-64l-229 272h-185v-272h-50v700h309q94 0 156.5 -60.5t62.5 -151.5t-66.5 -153.5t-162.5 -62.5z" />
    <glyph glyph-name="S" unicode="S" horiz-adv-x="574" 
d="M291 325q-123 28 -182 76.5t-59 123.5q0 81 63 134.5t159 53.5q85 0 153.5 -47t98.5 -126l-43 -21q-27 67 -82.5 105.5t-125.5 38.5q-76 0 -124.5 -38.5t-48.5 -98.5q0 -55 47 -90t150 -58q237 -52 237 -198q0 -82 -66 -136.5t-165 -54.5q-89 0 -160.5 49.5t-102.5 133.5
l45 22q28 -72 85.5 -113.5t129.5 -41.5q79 0 131.5 40.5t52.5 101.5q0 53 -46.5 88t-146.5 56z" />
    <glyph glyph-name="T" unicode="T" horiz-adv-x="590" 
d="M560 700v-48h-240v-652h-50v652h-240v48h530z" />
    <glyph glyph-name="U" unicode="U" horiz-adv-x="690" 
d="M345 -11q-121 0 -203 79t-82 199v433h50v-423q0 -112 65.5 -175t169.5 -63t169.5 63t65.5 175v423h50v-433q0 -120 -82 -199t-203 -79z" />
    <glyph glyph-name="V" unicode="V" horiz-adv-x="750" 
d="M662 700h56l-311 -700h-64l-311 700h56l287 -645z" />
    <glyph glyph-name="W" unicode="W" horiz-adv-x="1021" 
d="M933 700h56l-224 -700h-58l-197 619l-196 -619h-58l-224 700h56l197 -638l203 638h45l203 -638z" />
    <glyph glyph-name="X" unicode="X" horiz-adv-x="696" 
d="M664 0h-64l-252 305l-251 -305h-65l281 344l-281 356h65l251 -317l252 317h64l-281 -356z" />
    <glyph glyph-name="Y" unicode="Y" horiz-adv-x="656" 
d="M313 0h50v240l261 460h-59l-227 -402l-246 402h-60l281 -460v-240z" />
    <glyph glyph-name="Z" unicode="Z" horiz-adv-x="628" 
d="M588 0v47h-495l495 596v57h-548v-47h495l-495 -590v-63h548z" />
    <glyph glyph-name="bracketleft" unicode="[" horiz-adv-x="280" 
d="M110 8h130v-48h-180v790h180v-48h-130v-694z" />
    <glyph glyph-name="backslash" unicode="\" horiz-adv-x="404" 
d="M317 0l-287 700h57l287 -700h-57z" />
    <glyph glyph-name="bracketright" unicode="]" horiz-adv-x="280" 
d="M170 702h-130v48h180v-790h-180v48h130v694z" />
    <glyph glyph-name="asciicircum" unicode="^" horiz-adv-x="388" 
d="M184 750l-154 -162l41 -30l123 132l123 -132l41 30l-154 162h-20z" />
    <glyph glyph-name="underscore" unicode="_" horiz-adv-x="402" 
d="M372 30v-47h-342v47h342z" />
    <glyph glyph-name="grave" unicode="`" horiz-adv-x="264" 
d="M33 694l36 37l162 -162l-32 -33z" />
    <glyph glyph-name="a" unicode="a" horiz-adv-x="487" 
d="M377 246l-163 -19q-124 -14 -124 -94q0 -43 35 -69t91 -26q73 0 117 45t44 120h35q0 -91 -58.5 -152.5t-145.5 -61.5q-73 0 -120.5 40.5t-47.5 105.5q0 58 43 94.5t121 45.5l173 19v29q0 55 -41.5 96.5t-103.5 41.5q-55 0 -96 -29t-53 -75l-47 13q19 63 72 102t120 39
q81 0 140 -52.5t59 -125.5v-333h-50v246z" />
    <glyph glyph-name="b" unicode="b" horiz-adv-x="638" 
d="M60 0v750h50v-750h-50zM110 251q0 -96 63.5 -157.5t155.5 -61.5t155.5 61.5t63.5 157.5t-63.5 157.5t-155.5 61.5t-155.5 -61.5t-63.5 -157.5zM77 251q0 117 74.5 193t181.5 76q111 0 188 -76t77 -193t-77 -193t-188 -76q-107 0 -181.5 76t-74.5 193z" />
    <glyph glyph-name="c" unicode="c" horiz-adv-x="584" 
d="M90 251q0 -96 62 -157.5t152 -61.5q63 0 114.5 31t77.5 86l46 -19q-32 -68 -96 -108t-142 -40q-111 0 -187.5 76t-76.5 193t76.5 193t187.5 76q79 0 143.5 -41t96.5 -112l-46 -19q-25 57 -77 89.5t-117 32.5q-90 0 -152 -61.5t-62 -157.5z" />
    <glyph glyph-name="d" unicode="d" horiz-adv-x="638" 
d="M578 0h-50v750h50v-750zM528 251q0 96 -63.5 157.5t-155.5 61.5t-155.5 -61.5t-63.5 -157.5t63.5 -157.5t155.5 -61.5t155.5 61.5t63.5 157.5zM561 251q0 -117 -74.5 -193t-181.5 -76q-111 0 -188 76t-77 193t77 193t188 76q107 0 181.5 -76t74.5 -193z" />
    <glyph glyph-name="e" unicode="e" horiz-adv-x="598" 
d="M508 275q-5 86 -64.5 140.5t-144.5 54.5q-82 0 -141 -54t-67 -141h417zM91 228q8 -87 68.5 -141.5t144.5 -54.5q63 0 114.5 31t77.5 86l46 -19q-32 -68 -96 -108t-142 -40q-111 0 -187.5 76t-76.5 193t75.5 193t183.5 76t183.5 -73.5t75.5 -185.5q0 -11 -2 -33h-465z" />
    <glyph glyph-name="f" unicode="f" horiz-adv-x="402" 
d="M303 702q-45 0 -71.5 -29t-26.5 -78v-95h167v-47h-167v-453h-50v453h-125v47h125v105q0 58 43 101.5t99 43.5h55v-48h-49z" />
    <glyph glyph-name="g" unicode="g" horiz-adv-x="598" 
d="M521 269q0 -108 -68.5 -178.5t-167.5 -70.5q-103 0 -174 70.5t-71 178.5t71 178.5t174 70.5q99 0 167.5 -70.5t68.5 -178.5zM488 269q0 88 -57.5 143.5t-141.5 55.5t-141.5 -55.5t-57.5 -143.5t57.5 -143.5t141.5 -55.5t141.5 55.5t57.5 143.5zM488 -20v520h50v-520
q0 -91 -71 -150t-173 -59q-79 0 -143.5 44t-96.5 119l46 19q25 -61 77 -96.5t117 -35.5q82 0 138 45t56 114z" />
    <glyph glyph-name="h" unicode="h" horiz-adv-x="528" 
d="M60 0v750h50v-750h-50zM418 0v303q0 74 -40.5 116t-104.5 42q-67 0 -115 -46.5t-48 -111.5h-38q0 84 61 146t150 62q78 0 131.5 -56t53.5 -142v-313h-50z" />
    <glyph glyph-name="i" unicode="i" 
d="M46 631q0 17 11 28t28 11t28 -11t11 -28t-11 -28t-28 -11t-28 11t-11 28zM60 0v500h50v-500h-50z" />
    <glyph glyph-name="j" unicode="j" 
d="M46 631q0 17 11 28t28 11t28 -11t11 -28t-11 -28t-28 -11t-28 11t-11 28zM-18 -122q37 0 57.5 24.5t20.5 62.5v535h50v-549q0 -49 -33 -85t-85 -36h-29v48h19z" />
    <glyph glyph-name="k" unicode="k" horiz-adv-x="464" 
d="M60 0v750h50v-475h27l228 225h67l-250 -250l250 -250h-67l-228 222h-27v-222h-50z" />
    <glyph glyph-name="l" unicode="l" 
d="M60 0v750h50v-750h-50z" />
    <glyph glyph-name="m" unicode="m" horiz-adv-x="806" 
d="M696 0v323q0 65 -35 101.5t-90 36.5q-59 0 -101 -40.5t-42 -97.5h-38q0 76 55.5 132t135.5 56q70 0 117.5 -50.5t47.5 -127.5v-333h-50zM60 0v500h50v-500h-50zM378 0v323q0 65 -35 101.5t-90 36.5q-59 0 -101 -40.5t-42 -97.5h-38q0 76 55.5 132t135.5 56
q70 0 117.5 -50.5t47.5 -127.5v-333h-50z" />
    <glyph glyph-name="n" unicode="n" horiz-adv-x="528" 
d="M60 0v500h50v-500h-50zM418 0v303q0 74 -40.5 116t-104.5 42q-67 0 -115 -46.5t-48 -111.5h-38q0 84 61 146t150 62q78 0 131.5 -56t53.5 -142v-313h-50z" />
    <glyph glyph-name="o" unicode="o" horiz-adv-x="618" 
d="M90 251q0 -96 63.5 -157.5t155.5 -61.5t155.5 61.5t63.5 157.5t-63.5 157.5t-155.5 61.5t-155.5 -61.5t-63.5 -157.5zM40 251q0 117 78 193t191 76t191 -76t78 -193t-78 -193t-191 -76t-191 76t-78 193z" />
    <glyph glyph-name="p" unicode="p" horiz-adv-x="638" 
d="M60 500h50v-700h-50v700zM110 249q0 -96 63.5 -157.5t155.5 -61.5t155.5 61.5t63.5 157.5t-63.5 157.5t-155.5 61.5t-155.5 -61.5t-63.5 -157.5zM77 249q0 117 74.5 193t181.5 76q111 0 188 -76t77 -193t-77 -193t-188 -76q-107 0 -181.5 76t-74.5 193z" />
    <glyph glyph-name="q" unicode="q" horiz-adv-x="638" 
d="M578 500v-700h-50v700h50zM528 249q0 96 -63.5 157.5t-155.5 61.5t-155.5 -61.5t-63.5 -157.5t63.5 -157.5t155.5 -61.5t155.5 61.5t63.5 157.5zM561 249q0 -117 -74.5 -193t-181.5 -76q-111 0 -188 76t-77 193t77 193t188 76q107 0 181.5 -76t74.5 -193z" />
    <glyph glyph-name="r" unicode="r" horiz-adv-x="321" 
d="M60 0v500h50v-500h-50zM278 458q-70 0 -119 -42.5t-49 -102.5h-38q0 72 58 133.5t138 61.5h28v-50h-18z" />
    <glyph glyph-name="s" unicode="s" horiz-adv-x="474" 
d="M236 230q-93 18 -137.5 52.5t-44.5 88.5q0 61 48 101.5t120 40.5q67 0 120.5 -39t77.5 -104l-46 -20q-20 53 -60 83t-91 30t-85 -25.5t-34 -64.5q0 -34 31.5 -55.5t101.5 -35.5q197 -39 197 -151q0 -60 -53.5 -101t-127.5 -41q-72 0 -130 36t-83 97l43 26
q22 -51 66.5 -80t101.5 -29t95 26.5t38 65.5q0 72 -148 99z" />
    <glyph glyph-name="t" unicode="t" horiz-adv-x="362" 
d="M273 48h59v-48h-66q-65 0 -103 33.5t-38 90.5v329h-95v47h95v150l50 10v-160h157v-47h-157v-318q0 -87 98 -87z" />
    <glyph glyph-name="u" unicode="u" horiz-adv-x="508" 
d="M448 500v-500h-50v500h50zM110 500v-323q0 -65 37.5 -101.5t97.5 -36.5q64 0 108.5 40.5t44.5 97.5h38q0 -76 -58 -132t-143 -56q-74 0 -124.5 50.5t-50.5 127.5v333h50z" />
    <glyph glyph-name="v" unicode="v" horiz-adv-x="534" 
d="M446 500h56l-203 -500h-64l-203 500h56l179 -441z" />
    <glyph glyph-name="w" unicode="w" horiz-adv-x="785" 
d="M697 500h56l-166 -500h-58l-137 421l-136 -421h-58l-166 500h56l139 -438l143 438h45l143 -438z" />
    <glyph glyph-name="x" unicode="x" horiz-adv-x="534" 
d="M502 0h-64l-171 211l-170 -211h-65l200 250l-200 250h65l170 -211l171 211h64l-200 -250z" />
    <glyph glyph-name="y" unicode="y" horiz-adv-x="534" 
d="M443 500l-176 -420l-176 420h-59l203 -480l-88 -220h59l296 700h-59z" />
    <glyph glyph-name="z" unicode="z" horiz-adv-x="482" 
d="M442 0v47h-349l349 391v62h-402v-47h349l-349 -391v-62h402z" />
    <glyph glyph-name="braceleft" unicode="{" horiz-adv-x="296" 
d="M80 466q0 107 42 185.5t110 105.5l24 -46q-55 -20 -90.5 -86.5t-35.5 -158.5q0 -91 -60 -110q32 -10 46 -33t14 -70q0 -97 38.5 -164.5t97.5 -83.5l-23 -46q-72 23 -117.5 102.5t-45.5 191.5q0 80 -70 80v47q34 0 52 24t18 62z" />
    <glyph glyph-name="bar" unicode="|" 
d="M60 -200v1000h50v-1000h-50z" />
    <glyph glyph-name="braceright" unicode="}" horiz-adv-x="296" 
d="M216 250q0 -107 -42 -185.5t-110 -105.5l-24 46q55 20 90.5 86.5t35.5 158.5q0 91 60 110q-32 10 -46 33t-14 70q0 97 -38.5 164.5t-97.5 83.5l23 46q72 -23 117.5 -102.5t45.5 -191.5q0 -80 70 -80v-47q-34 0 -52 -24t-18 -62z" />
    <glyph glyph-name="asciitilde" unicode="~" horiz-adv-x="464" 
d="M158 338q-34 0 -60 -29.5t-38 -80.5l44 -18q15 76 53 76q15 0 27 -7t33 -30q42 -45 88 -45q35 0 61.5 29.5t37.5 80.5l-44 18q-16 -73 -58 -73q-16 0 -27.5 7t-32.5 29q-42 43 -84 43z" />
    <glyph glyph-name="exclamdown" unicode="&#xa1;" 
d="M60 408h50v-520h-50v520zM134 549q0 -21 -14 -35t-35 -14t-35 14t-14 35t14 35t35 14t35 -14t14 -35z" />
    <glyph glyph-name="cent" unicode="&#xa2;" horiz-adv-x="584" 
d="M279 596v104h50v-104h-50zM279 118h50v-118h-50v118zM90 357q0 -96 62 -157.5t152 -61.5q63 0 114.5 31t77.5 86l46 -19q-32 -68 -96 -108t-142 -40q-111 0 -187.5 76t-76.5 193t76.5 193t187.5 76q79 0 143.5 -41t96.5 -112l-46 -19q-25 57 -77 89.5t-117 32.5
q-90 0 -152 -61.5t-62 -157.5z" />
    <glyph glyph-name="sterling" unicode="&#xa3;" horiz-adv-x="567" 
d="M537 47v-47h-507v47h110v256h-90v47h90v162q0 90 59 149t146 59q70 0 120.5 -35t71.5 -97l-45 -17q-36 99 -147 99q-68 0 -111.5 -44.5t-43.5 -123.5v-152h222v-47h-222v-256h347z" />
    <glyph glyph-name="currency" unicode="&#xa4;" horiz-adv-x="373" 
d="M31 400l33 33l34 -35q39 28 89 28q47 0 87 -27l35 35l34 -35l-34 -34q27 -38 27 -88q0 -49 -28 -89l35 -34l-33 -33l-34 35q-39 -28 -89 -28q-48 0 -88 27l-34 -34l-35 34l35 35q-27 38 -27 87t28 89zM88 277q0 -43 29 -71t70 -28t70 28t29 71t-29 71t-70 28t-70 -28
t-29 -71z" />
    <glyph glyph-name="yen" unicode="&#xa5;" horiz-adv-x="525" 
d="M407 164h-292v-47h292v47zM407 284h-292v-47h292v47zM240 0h50v354l203 346h-59l-169 -288l-173 288h-60l208 -346v-354z" />
    <glyph glyph-name="brokenbar" unicode="&#xa6;" 
d="M110 426h-50v374h50v-374zM110 194v-394h-50v394h50z" />
    <glyph glyph-name="section" unicode="&#xa7;" horiz-adv-x="434" 
d="M219 261q-68 14 -98.5 36t-30.5 57q0 37 36 61.5t89 24.5q68 -14 98.5 -36t30.5 -57q0 -37 -36 -61.5t-89 -24.5zM138 464q-45 -14 -71.5 -44t-26.5 -68q0 -112 168 -141q136 -23 136 -91q0 -35 -32.5 -58t-81.5 -23t-87 27.5t-57 74.5l-46 -19q23 -61 75.5 -97
t115.5 -36q70 0 116.5 38t46.5 94q0 75 -98 116q45 14 71.5 44t26.5 68q0 53 -40.5 86.5t-127.5 54.5q-72 16 -104 37t-32 54q0 35 32.5 58t81.5 23t87 -27.5t57 -74.5l46 19q-23 61 -75.5 97t-115.5 36q-70 0 -116.5 -38t-46.5 -94q0 -75 98 -116z" />
    <glyph glyph-name="dieresis" unicode="&#xa8;" horiz-adv-x="390" 
d="M266 631q0 17 11 28t28 11t28 -11t11 -28t-11 -28t-28 -11t-28 11t-11 28zM46 631q0 17 11 28t28 11t28 -11t11 -28t-11 -28t-28 -11t-28 11t-11 28z" />
    <glyph glyph-name="copyright" unicode="&#xa9;" horiz-adv-x="788" 
d="M280 351q0 -52 33 -85.5t81 -33.5q35 0 63.5 20.5t43.5 56.5l46 -19q-21 -50 -62 -79t-91 -29q-69 0 -116.5 48t-47.5 121t47.5 121t116.5 48q51 0 93 -28t62 -75l-46 -19q-14 34 -43.5 53t-65.5 19q-48 0 -81 -33.5t-33 -85.5zM90 353q0 -141 88 -231t216 -90t216 90
t88 231q0 139 -88 228t-216 89t-216 -89t-88 -228zM40 353q0 160 102.5 263.5t251.5 103.5t251.5 -103.5t102.5 -263.5q0 -161 -102.5 -266t-251.5 -105t-251.5 105t-102.5 266z" />
    <glyph glyph-name="ordfeminine" unicode="&#xaa;" horiz-adv-x="358" 
d="M268 700h50v-278h-50v278zM328 330v-47h-298v47h298zM80 561q0 -42 27.5 -70.5t68.5 -28.5q40 0 66 28t26 71t-26 71t-66 28q-41 0 -68.5 -28.5t-27.5 -70.5zM30 561q0 62 41 105.5t99 43.5q56 0 92 -42t36 -107t-36 -107t-92 -42q-58 0 -99 43.5t-41 105.5z" />
    <glyph glyph-name="guillemotleft" unicode="&#xab;" horiz-adv-x="500" 
d="M460 166v-61l-210 133v64l210 133v-61l-168 -104zM250 166v-61l-210 133v64l210 133v-61l-168 -104z" />
    <glyph glyph-name="logicalnot" unicode="&#xac;" horiz-adv-x="412" 
d="M382 340v-170h-50v123h-302v47h352z" />
    <glyph glyph-name="uni00AD" unicode="&#xad;" horiz-adv-x="302" 
d="M272 290v-47h-242v47h242z" />
    <glyph glyph-name="registered" unicode="&#xae;" horiz-adv-x="788" 
d="M432 465h-142v-112h142q28 0 47 16.5t19 40.5t-18.5 39.5t-47.5 15.5zM432 305l116 -117h-64l-116 117h-78v-117h-50v325h202q46 0 76 -29.5t30 -73.5t-33.5 -74.5t-82.5 -30.5zM90 353q0 -141 88 -231t216 -90t216 90t88 231q0 139 -88 228t-216 89t-216 -89t-88 -228z
M40 353q0 160 102.5 263.5t251.5 103.5t251.5 -103.5t102.5 -263.5q0 -161 -102.5 -266t-251.5 -105t-251.5 105t-102.5 266z" />
    <glyph glyph-name="macron" unicode="&#xaf;" horiz-adv-x="352" 
d="M322 700v-47h-292v47h292z" />
    <glyph glyph-name="degree" unicode="&#xb0;" horiz-adv-x="358" 
d="M80 561q0 -43 29 -71t70 -28t70 28t29 71t-29 71t-70 28t-70 -28t-29 -71zM30 561q0 65 43 107t106 42t106 -42t43 -107t-43 -107t-106 -42t-106 42t-43 107z" />
    <glyph glyph-name="plusminus" unicode="&#xb1;" horiz-adv-x="352" 
d="M322 10v-47h-292v47h292zM152 412h50v-122h120v-47h-120v-123h-50v123h-122v47h122v122z" />
    <glyph glyph-name="uni00B2" unicode="&#xb2;" horiz-adv-x="262" 
d="M236 752q0 44 -30.5 73t-73.5 29q-81 0 -107 -85l48 -17q15 52 59 52q23 0 38.5 -14.5t15.5 -37.5q0 -30 -64 -67l-96 -59v-62h211v47h-149l64 36q84 44 84 105z" />
    <glyph glyph-name="uni00B3" unicode="&#xb3;" horiz-adv-x="262" 
d="M169 734l62 54v62h-194v-47h142l-74 -68l24 -37q58 0 58 -47q0 -19 -14.5 -31t-37.5 -12q-24 0 -40.5 15.5t-21.5 42.5l-48 -15q10 -42 39 -67.5t69 -25.5q45 0 74.5 27.5t29.5 70.5q0 33 -18.5 53.5t-49.5 24.5z" />
    <glyph glyph-name="acute" unicode="&#xb4;" horiz-adv-x="264" 
d="M231 713l-36 37l-162 -162l32 -33z" />
    <glyph glyph-name="mu" unicode="&#xb5;" horiz-adv-x="538" 
d="M478 500v-500h-50v500h50zM60 500h50v-700h-50v700zM468 197q0 -88 -55.5 -148t-137.5 -60q-84 0 -143.5 61t-59.5 147h38q0 -66 49 -112t119 -46q68 0 109 43.5t41 114.5h40z" />
    <glyph glyph-name="paragraph" unicode="&#xb6;" horiz-adv-x="490" 
d="M430 0h-50v700h50v-700zM249 372q-80 0 -134.5 49t-54.5 120q0 68 51.5 113.5t127.5 45.5h77v-700h-50v372h-17z" />
    <glyph glyph-name="periodcentered" unicode="&#xb7;" 
d="M46 361q0 17 11 28t28 11t28 -11t11 -28t-11 -28t-28 -11t-28 11t-11 28z" />
    <glyph glyph-name="cedilla" unicode="&#xb8;" horiz-adv-x="243" 
d="M95 -66q17 17 41 17q28 0 47.5 -24.5t19.5 -58.5q0 -38 -24.5 -62.5t-63.5 -24.5q-31 0 -54 15.5t-31 42.5l38 15q8 -33 45 -33q22 0 35 13.5t13 34.5q0 18 -9.5 29.5t-23.5 11.5q-19 0 -33 -20l-40 20v110h40v-86z" />
    <glyph glyph-name="uni00B9" unicode="&#xb9;" horiz-adv-x="192" 
d="M167 850v-286h-50v224l-58 -44l-34 38l90 68h52z" />
    <glyph glyph-name="ordmasculine" unicode="&#xba;" horiz-adv-x="358" 
d="M328 330v-47h-298v47h298zM80 561q0 -43 29 -71t70 -28t70 28t29 71t-29 71t-70 28t-70 -28t-29 -71zM30 561q0 65 43 107t106 42t106 -42t43 -107t-43 -107t-106 -42t-106 42t-43 107z" />
    <glyph glyph-name="guillemotright" unicode="&#xbb;" horiz-adv-x="500" 
d="M40 374v61l210 -133v-64l-210 -133v61l168 104zM250 374v61l210 -133v-64l-210 -133v61l168 104z" />
    <glyph glyph-name="onequarter" unicode="&#xbc;" horiz-adv-x="644" 
d="M416 107h79v114zM545 286v-179h34v-47h-34v-60h-50v60h-126v57l116 169h60zM207 0h-57l287 700h57zM167 700v-286h-50v224l-58 -44l-34 38l90 68h52z" />
    <glyph glyph-name="onehalf" unicode="&#xbd;" horiz-adv-x="644" 
d="M580 188q0 44 -30.5 73t-73.5 29q-81 0 -107 -85l48 -17q15 52 59 52q23 0 38.5 -14.5t15.5 -37.5q0 -30 -64 -67l-96 -59v-62h211v47h-149l64 36q84 44 84 105zM207 0h-57l287 700h57zM167 700v-286h-50v224l-58 -44l-34 38l90 68h52z" />
    <glyph glyph-name="threequarters" unicode="&#xbe;" horiz-adv-x="644" 
d="M416 107h79v114zM545 286v-179h34v-47h-34v-60h-50v60h-126v57l116 169h60zM207 0h-57l287 700h57zM169 584l62 54v62h-194v-47h142l-74 -68l24 -37q58 0 58 -47q0 -19 -14.5 -31t-37.5 -12q-24 0 -40.5 15.5t-21.5 42.5l-48 -15q10 -42 39 -67.5t69 -25.5
q45 0 74.5 27.5t29.5 70.5q0 33 -18.5 53.5t-49.5 24.5z" />
    <glyph glyph-name="questiondown" unicode="&#xbf;" horiz-adv-x="551" 
d="M319 549q0 -21 -14 -35t-35 -14t-35 14t-14 35t14 35t35 14t35 -14t14 -35zM40 101q0 -98 67 -161t165 -63q92 0 152.5 53.5t86.5 137.5l-48 17q-49 -158 -191 -158q-76 0 -129 49t-53 125q0 89 110 180l102 84l-32 39l-100 -85q-130 -110 -130 -218z" />
    <glyph glyph-name="Agrave" unicode="&#xc0;" horiz-adv-x="750" 
d="M249 935l36 37l162 -162l-32 -33zM160 254h425v-48h-425v48zM88 0h-56l311 700h64l311 -700h-56l-287 646z" />
    <glyph glyph-name="Aacute" unicode="&#xc1;" horiz-adv-x="750" 
d="M501 935l-36 37l-162 -162l32 -33zM160 254h425v-48h-425v48zM88 0h-56l311 700h64l311 -700h-56l-287 646z" />
    <glyph glyph-name="Acircumflex" unicode="&#xc2;" horiz-adv-x="750" 
d="M365 969l-154 -162l41 -30l123 132l123 -132l41 30l-154 162h-20zM160 254h425v-48h-425v48zM88 0h-56l311 700h64l311 -700h-56l-287 646z" />
    <glyph glyph-name="Atilde" unicode="&#xc3;" horiz-adv-x="750" 
d="M301 911q-34 0 -60 -29.5t-38 -80.5l44 -18q15 79 53 79q15 0 27 -8t33 -32q42 -45 88 -45q35 0 61.5 29.5t37.5 80.5l-44 18q-16 -76 -58 -76q-15 0 -27 7.5t-33 31.5q-42 43 -84 43zM160 254h425v-48h-425v48zM88 0h-56l311 700h64l311 -700h-56l-287 646z" />
    <glyph glyph-name="Adieresis" unicode="&#xc4;" horiz-adv-x="750" 
d="M425 816q0 17 11 28t28 11t28 -11t11 -28t-11 -28t-28 -11t-28 11t-11 28zM245 816q0 17 11 28t28 11t28 -11t11 -28t-11 -28t-28 -11t-28 11t-11 28zM160 254h425v-48h-425v48zM88 0h-56l311 700h64l311 -700h-56l-287 646z" />
    <glyph glyph-name="Aring" unicode="&#xc5;" horiz-adv-x="750" 
d="M322 876q0 -23 15.5 -38t37.5 -15t37.5 15t15.5 38t-15.5 38t-37.5 15t-37.5 -15t-15.5 -38zM276 876q0 43 29 71t70 28t70 -28t29 -71t-29 -71t-70 -28t-70 28t-29 71zM160 254h425v-48h-425v48zM88 0h-56l311 700h64l311 -700h-56l-287 646z" />
    <glyph glyph-name="AE" unicode="&#xc6;" horiz-adv-x="940" 
d="M500 375h376v-48h-376v-279h400v-48h-450v700h450v-48h-400v-277zM180 254h295v-48h-295v48zM90 0h-58l361 700h57v-54h-23z" />
    <glyph glyph-name="Ccedilla" unicode="&#xc7;" horiz-adv-x="778" 
d="M418 -66q17 17 41 17q28 0 47.5 -24.5t19.5 -58.5q0 -38 -24.5 -62.5t-63.5 -24.5q-31 0 -54 15.5t-31 42.5l38 15q8 -33 45 -33q22 0 35 13.5t13 34.5q0 18 -9.5 29.5t-23.5 11.5q-19 0 -33 -20l-40 20v110h40v-86zM40 351q0 160 104 264.5t255 104.5q109 0 198.5 -57
t135.5 -156l-45 -20q-40 85 -117.5 134t-171.5 49q-129 0 -219 -90t-90 -229t90 -229t219 -90q97 0 175.5 51.5t117.5 140.5l46 -19q-44 -102 -135.5 -162.5t-203.5 -60.5q-151 0 -255 104.5t-104 264.5z" />
    <glyph glyph-name="Egrave" unicode="&#xc8;" horiz-adv-x="550" 
d="M159 935l36 37l162 -162l-32 -33zM110 375h376v-48h-376v-279h400v-48h-450v700h450v-48h-400v-277z" />
    <glyph glyph-name="Eacute" unicode="&#xc9;" horiz-adv-x="550" 
d="M411 935l-36 37l-162 -162l32 -33zM110 375h376v-48h-376v-279h400v-48h-450v700h450v-48h-400v-277z" />
    <glyph glyph-name="Ecircumflex" unicode="&#xca;" horiz-adv-x="550" 
d="M275 969l-154 -162l41 -30l123 132l123 -132l41 30l-154 162h-20zM110 375h376v-48h-376v-279h400v-48h-450v700h450v-48h-400v-277z" />
    <glyph glyph-name="Edieresis" unicode="&#xcb;" horiz-adv-x="550" 
d="M335 816q0 17 11 28t28 11t28 -11t11 -28t-11 -28t-28 -11t-28 11t-11 28zM155 816q0 17 11 28t28 11t28 -11t11 -28t-11 -28t-28 -11t-28 11t-11 28zM110 375h376v-48h-376v-279h400v-48h-450v700h450v-48h-400v-277z" />
    <glyph glyph-name="Igrave" unicode="&#xcc;" 
d="M-41 935l36 37l162 -162l-32 -33zM110 0h-50v700h50v-700z" />
    <glyph glyph-name="Iacute" unicode="&#xcd;" 
d="M211 935l-36 37l-162 -162l32 -33zM110 0h-50v700h50v-700z" />
    <glyph glyph-name="Icircumflex" unicode="&#xce;" 
d="M75 969l-154 -162l41 -30l123 132l123 -132l41 30l-154 162h-20zM110 0h-50v700h50v-700z" />
    <glyph glyph-name="Idieresis" unicode="&#xcf;" 
d="M135 816q0 17 11 28t28 11t28 -11t11 -28t-11 -28t-28 -11t-28 11t-11 28zM-45 816q0 17 11 28t28 11t28 -11t11 -28t-11 -28t-28 -11t-28 11t-11 28zM110 0h-50v700h50v-700z" />
    <glyph glyph-name="Eth" unicode="&#xd0;" horiz-adv-x="698" 
d="M342 382v-47h-342v47h342zM309 0h-229v700h229q146 0 247.5 -98.5t101.5 -250.5t-101.5 -251.5t-247.5 -99.5zM299 652h-169v-604h169q129 0 219 85t90 218q0 132 -90 216.5t-219 84.5z" />
    <glyph glyph-name="Ntilde" unicode="&#xd1;" horiz-adv-x="680" 
d="M271 911q-34 0 -60 -29.5t-38 -80.5l44 -18q15 79 53 79q15 0 27 -8t33 -32q42 -45 88 -45q35 0 61.5 29.5t37.5 80.5l-44 18q-16 -76 -58 -76q-15 0 -27 7.5t-33 31.5q-42 43 -84 43zM60 0v700h63l447 -627v627h50v-700h-63l-447 637v-637h-50z" />
    <glyph glyph-name="Ograve" unicode="&#xd2;" horiz-adv-x="788" 
d="M268 935l36 37l162 -162l-32 -33zM90 353q0 -141 88 -231t216 -90t216 90t88 231q0 139 -88 228t-216 89t-216 -89t-88 -228zM40 353q0 160 102.5 263.5t251.5 103.5t251.5 -103.5t102.5 -263.5q0 -161 -102.5 -266t-251.5 -105t-251.5 105t-102.5 266z" />
    <glyph glyph-name="Oacute" unicode="&#xd3;" horiz-adv-x="788" 
d="M520 935l-36 37l-162 -162l32 -33zM90 353q0 -141 88 -231t216 -90t216 90t88 231q0 139 -88 228t-216 89t-216 -89t-88 -228zM40 353q0 160 102.5 263.5t251.5 103.5t251.5 -103.5t102.5 -263.5q0 -161 -102.5 -266t-251.5 -105t-251.5 105t-102.5 266z" />
    <glyph glyph-name="Ocircumflex" unicode="&#xd4;" horiz-adv-x="788" 
d="M384 969l-154 -162l41 -30l123 132l123 -132l41 30l-154 162h-20zM90 353q0 -141 88 -231t216 -90t216 90t88 231q0 139 -88 228t-216 89t-216 -89t-88 -228zM40 353q0 160 102.5 263.5t251.5 103.5t251.5 -103.5t102.5 -263.5q0 -161 -102.5 -266t-251.5 -105
t-251.5 105t-102.5 266z" />
    <glyph glyph-name="Otilde" unicode="&#xd5;" horiz-adv-x="788" 
d="M320 911q-34 0 -60 -29.5t-38 -80.5l44 -18q15 79 53 79q15 0 27 -8t33 -32q42 -45 88 -45q35 0 61.5 29.5t37.5 80.5l-44 18q-16 -76 -58 -76q-15 0 -27 7.5t-33 31.5q-42 43 -84 43zM90 353q0 -141 88 -231t216 -90t216 90t88 231q0 139 -88 228t-216 89t-216 -89
t-88 -228zM40 353q0 160 102.5 263.5t251.5 103.5t251.5 -103.5t102.5 -263.5q0 -161 -102.5 -266t-251.5 -105t-251.5 105t-102.5 266z" />
    <glyph glyph-name="Odieresis" unicode="&#xd6;" horiz-adv-x="788" 
d="M444 816q0 17 11 28t28 11t28 -11t11 -28t-11 -28t-28 -11t-28 11t-11 28zM264 816q0 17 11 28t28 11t28 -11t11 -28t-11 -28t-28 -11t-28 11t-11 28zM90 353q0 -141 88 -231t216 -90t216 90t88 231q0 139 -88 228t-216 89t-216 -89t-88 -228zM40 353q0 160 102.5 263.5
t251.5 103.5t251.5 -103.5t102.5 -263.5q0 -161 -102.5 -266t-251.5 -105t-251.5 105t-102.5 266z" />
    <glyph glyph-name="multiply" unicode="&#xd7;" horiz-adv-x="352" 
d="M50 358l35 36l92 -93l91 91l34 -33l-91 -91l93 -93l-36 -35l-93 93l-92 -93l-33 34l92 92z" />
    <glyph glyph-name="Oslash" unicode="&#xd8;" horiz-adv-x="788" 
d="M730 651l-637 -637l-35 35l637 637zM90 353q0 -141 88 -231t216 -90t216 90t88 231q0 139 -88 228t-216 89t-216 -89t-88 -228zM40 353q0 160 102.5 263.5t251.5 103.5t251.5 -103.5t102.5 -263.5q0 -161 -102.5 -266t-251.5 -105t-251.5 105t-102.5 266z" />
    <glyph glyph-name="Ugrave" unicode="&#xd9;" horiz-adv-x="690" 
d="M219 935l36 37l162 -162l-32 -33zM345 -11q-121 0 -203 79t-82 199v433h50v-423q0 -112 65.5 -175t169.5 -63t169.5 63t65.5 175v423h50v-433q0 -120 -82 -199t-203 -79z" />
    <glyph glyph-name="Uacute" unicode="&#xda;" horiz-adv-x="690" 
d="M471 935l-36 37l-162 -162l32 -33zM345 -11q-121 0 -203 79t-82 199v433h50v-423q0 -112 65.5 -175t169.5 -63t169.5 63t65.5 175v423h50v-433q0 -120 -82 -199t-203 -79z" />
    <glyph glyph-name="Ucircumflex" unicode="&#xdb;" horiz-adv-x="690" 
d="M335 969l-154 -162l41 -30l123 132l123 -132l41 30l-154 162h-20zM345 -11q-121 0 -203 79t-82 199v433h50v-423q0 -112 65.5 -175t169.5 -63t169.5 63t65.5 175v423h50v-433q0 -120 -82 -199t-203 -79z" />
    <glyph glyph-name="Udieresis" unicode="&#xdc;" horiz-adv-x="690" 
d="M395 816q0 17 11 28t28 11t28 -11t11 -28t-11 -28t-28 -11t-28 11t-11 28zM215 816q0 17 11 28t28 11t28 -11t11 -28t-11 -28t-28 -11t-28 11t-11 28zM345 -11q-121 0 -203 79t-82 199v433h50v-423q0 -112 65.5 -175t169.5 -63t169.5 63t65.5 175v423h50v-433
q0 -120 -82 -199t-203 -79z" />
    <glyph glyph-name="Yacute" unicode="&#xdd;" horiz-adv-x="656" 
d="M461 935l-36 37l-162 -162l32 -33zM313 0h50v240l261 460h-59l-227 -402l-246 402h-60l281 -460v-240z" />
    <glyph glyph-name="Thorn" unicode="&#xde;" horiz-adv-x="628" 
d="M110 532v-352h229q85 0 142 51t57 127q0 75 -56.5 124.5t-142.5 49.5h-229zM110 132v-132h-50v700h50v-120h239q103 0 171 -63.5t68 -158.5t-72.5 -160.5t-176.5 -65.5h-229z" />
    <glyph glyph-name="germandbls" unicode="&#xdf;" horiz-adv-x="661" 
d="M447 392q66 -14 110 -72.5t44 -132.5q0 -86 -58.5 -142t-147.5 -56q-68 0 -117.5 36t-67.5 97l48 15q11 -46 47.5 -72t88.5 -26q71 0 114 42.5t43 112.5q0 76 -55 124.5t-142 48.5h-48v46h48q69 0 112 39.5t43 101.5q0 71 -50 114.5t-133 43.5q-101 0 -158.5 -63
t-57.5 -174v-475h-50v485q0 121 76.5 198t196.5 77q101 0 163.5 -57.5t62.5 -151.5q0 -114 -112 -159z" />
    <glyph glyph-name="agrave" unicode="&#xe0;" horiz-adv-x="487" 
d="M107 726l36 37l162 -162l-32 -33zM377 246l-163 -19q-124 -14 -124 -94q0 -43 35 -69t91 -26q73 0 117 45t44 120h35q0 -91 -58.5 -152.5t-145.5 -61.5q-73 0 -120.5 40.5t-47.5 105.5q0 58 43 94.5t121 45.5l173 19v29q0 55 -41.5 96.5t-103.5 41.5q-55 0 -96 -29
t-53 -75l-47 13q19 63 72 102t120 39q81 0 140 -52.5t59 -125.5v-333h-50v246z" />
    <glyph glyph-name="aacute" unicode="&#xe1;" horiz-adv-x="487" 
d="M359 726l-36 37l-162 -162l32 -33zM377 246l-163 -19q-124 -14 -124 -94q0 -43 35 -69t91 -26q73 0 117 45t44 120h35q0 -91 -58.5 -152.5t-145.5 -61.5q-73 0 -120.5 40.5t-47.5 105.5q0 58 43 94.5t121 45.5l173 19v29q0 55 -41.5 96.5t-103.5 41.5q-55 0 -96 -29
t-53 -75l-47 13q19 63 72 102t120 39q81 0 140 -52.5t59 -125.5v-333h-50v246z" />
    <glyph glyph-name="acircumflex" unicode="&#xe2;" horiz-adv-x="487" 
d="M223 760l-154 -162l41 -30l123 132l123 -132l41 30l-154 162h-20zM377 246l-163 -19q-124 -14 -124 -94q0 -43 35 -69t91 -26q73 0 117 45t44 120h35q0 -91 -58.5 -152.5t-145.5 -61.5q-73 0 -120.5 40.5t-47.5 105.5q0 58 43 94.5t121 45.5l173 19v29q0 55 -41.5 96.5
t-103.5 41.5q-55 0 -96 -29t-53 -75l-47 13q19 63 72 102t120 39q81 0 140 -52.5t59 -125.5v-333h-50v246z" />
    <glyph glyph-name="atilde" unicode="&#xe3;" horiz-adv-x="487" 
d="M159 702q-34 0 -60 -29.5t-38 -80.5l44 -18q15 79 53 79q15 0 27 -8t33 -32q42 -45 88 -45q35 0 61.5 29.5t37.5 80.5l-44 18q-16 -76 -58 -76q-15 0 -27 7.5t-33 31.5q-42 43 -84 43zM377 246l-163 -19q-124 -14 -124 -94q0 -43 35 -69t91 -26q73 0 117 45t44 120h35
q0 -91 -58.5 -152.5t-145.5 -61.5q-73 0 -120.5 40.5t-47.5 105.5q0 58 43 94.5t121 45.5l173 19v29q0 55 -41.5 96.5t-103.5 41.5q-55 0 -96 -29t-53 -75l-47 13q19 63 72 102t120 39q81 0 140 -52.5t59 -125.5v-333h-50v246z" />
    <glyph glyph-name="adieresis" unicode="&#xe4;" horiz-adv-x="487" 
d="M283 607q0 17 11 28t28 11t28 -11t11 -28t-11 -28t-28 -11t-28 11t-11 28zM103 607q0 17 11 28t28 11t28 -11t11 -28t-11 -28t-28 -11t-28 11t-11 28zM377 246l-163 -19q-124 -14 -124 -94q0 -43 35 -69t91 -26q73 0 117 45t44 120h35q0 -91 -58.5 -152.5t-145.5 -61.5
q-73 0 -120.5 40.5t-47.5 105.5q0 58 43 94.5t121 45.5l173 19v29q0 55 -41.5 96.5t-103.5 41.5q-55 0 -96 -29t-53 -75l-47 13q19 63 72 102t120 39q81 0 140 -52.5t59 -125.5v-333h-50v246z" />
    <glyph glyph-name="aring" unicode="&#xe5;" horiz-adv-x="487" 
d="M180 667q0 -23 15.5 -38t37.5 -15t37.5 15t15.5 38t-15.5 38t-37.5 15t-37.5 -15t-15.5 -38zM134 667q0 43 29 71t70 28t70 -28t29 -71t-29 -71t-70 -28t-70 28t-29 71zM377 246l-163 -19q-124 -14 -124 -94q0 -43 35 -69t91 -26q73 0 117 45t44 120h35
q0 -91 -58.5 -152.5t-145.5 -61.5q-73 0 -120.5 40.5t-47.5 105.5q0 58 43 94.5t121 45.5l173 19v29q0 55 -41.5 96.5t-103.5 41.5q-55 0 -96 -29t-53 -75l-47 13q19 63 72 102t120 39q81 0 140 -52.5t59 -125.5v-333h-50v246z" />
    <glyph glyph-name="ae" unicode="&#xe6;" horiz-adv-x="935" 
d="M377 246l-163 -19q-124 -15 -124 -94q0 -43 35 -69t91 -26q73 0 117 45t44 120v43zM428 228q8 -87 68.5 -141.5t144.5 -54.5q63 0 114.5 31t77.5 86l46 -19q-32 -68 -96 -108t-142 -40q-107 0 -180.5 76t-73.5 193t72.5 193t176.5 76q108 0 183.5 -73.5t75.5 -185.5
q0 -11 -2 -33h-465zM845 275q-5 86 -64.5 140.5t-144.5 54.5q-82 0 -141 -54t-67 -141h417zM208 -11q-73 0 -120.5 40.5t-47.5 105.5q0 58 43 94.5t121 45.5l173 19v29q0 55 -41.5 96.5t-103.5 41.5q-55 0 -96 -29t-53 -75l-47 13q19 63 72 102t120 39q79 0 136.5 -52.5
t57.5 -125.5v-130q0 -91 -61 -152.5t-153 -61.5z" />
    <glyph glyph-name="ccedilla" unicode="&#xe7;" horiz-adv-x="584" 
d="M323 -66q17 17 41 17q28 0 47.5 -24.5t19.5 -58.5q0 -38 -24.5 -62.5t-63.5 -24.5q-31 0 -54 15.5t-31 42.5l38 15q8 -33 45 -33q22 0 35 13.5t13 34.5q0 18 -9.5 29.5t-23.5 11.5q-19 0 -33 -20l-40 20v110h40v-86zM90 251q0 -96 62 -157.5t152 -61.5q63 0 114.5 31
t77.5 86l46 -19q-32 -68 -96 -108t-142 -40q-111 0 -187.5 76t-76.5 193t76.5 193t187.5 76q79 0 143.5 -41t96.5 -112l-46 -19q-25 57 -77 89.5t-117 32.5q-90 0 -152 -61.5t-62 -157.5z" />
    <glyph glyph-name="egrave" unicode="&#xe8;" horiz-adv-x="598" 
d="M175 726l36 37l162 -162l-32 -33zM508 275q-5 86 -64.5 140.5t-144.5 54.5q-82 0 -141 -54t-67 -141h417zM91 228q8 -87 68.5 -141.5t144.5 -54.5q63 0 114.5 31t77.5 86l46 -19q-32 -68 -96 -108t-142 -40q-111 0 -187.5 76t-76.5 193t75.5 193t183.5 76t183.5 -73.5
t75.5 -185.5q0 -11 -2 -33h-465z" />
    <glyph glyph-name="eacute" unicode="&#xe9;" horiz-adv-x="598" 
d="M427 726l-36 37l-162 -162l32 -33zM508 275q-5 86 -64.5 140.5t-144.5 54.5q-82 0 -141 -54t-67 -141h417zM91 228q8 -87 68.5 -141.5t144.5 -54.5q63 0 114.5 31t77.5 86l46 -19q-32 -68 -96 -108t-142 -40q-111 0 -187.5 76t-76.5 193t75.5 193t183.5 76t183.5 -73.5
t75.5 -185.5q0 -11 -2 -33h-465z" />
    <glyph glyph-name="ecircumflex" unicode="&#xea;" horiz-adv-x="598" 
d="M291 760l-154 -162l41 -30l123 132l123 -132l41 30l-154 162h-20zM508 275q-5 86 -64.5 140.5t-144.5 54.5q-82 0 -141 -54t-67 -141h417zM91 228q8 -87 68.5 -141.5t144.5 -54.5q63 0 114.5 31t77.5 86l46 -19q-32 -68 -96 -108t-142 -40q-111 0 -187.5 76t-76.5 193
t75.5 193t183.5 76t183.5 -73.5t75.5 -185.5q0 -11 -2 -33h-465z" />
    <glyph glyph-name="edieresis" unicode="&#xeb;" horiz-adv-x="598" 
d="M351 607q0 17 11 28t28 11t28 -11t11 -28t-11 -28t-28 -11t-28 11t-11 28zM171 607q0 17 11 28t28 11t28 -11t11 -28t-11 -28t-28 -11t-28 11t-11 28zM508 275q-5 86 -64.5 140.5t-144.5 54.5q-82 0 -141 -54t-67 -141h417zM91 228q8 -87 68.5 -141.5t144.5 -54.5
q63 0 114.5 31t77.5 86l46 -19q-32 -68 -96 -108t-142 -40q-111 0 -187.5 76t-76.5 193t75.5 193t183.5 76t183.5 -73.5t75.5 -185.5q0 -11 -2 -33h-465z" />
    <glyph glyph-name="igrave" unicode="&#xec;" 
d="M-41 726l36 37l162 -162l-32 -33zM60 0v500h50v-500h-50z" />
    <glyph glyph-name="iacute" unicode="&#xed;" 
d="M211 726l-36 37l-162 -162l32 -33zM60 0v500h50v-500h-50z" />
    <glyph glyph-name="icircumflex" unicode="&#xee;" 
d="M75 760l-154 -162l41 -30l123 132l123 -132l41 30l-154 162h-20zM60 0v500h50v-500h-50z" />
    <glyph glyph-name="idieresis" unicode="&#xef;" 
d="M135 607q0 17 11 28t28 11t28 -11t11 -28t-11 -28t-28 -11t-28 11t-11 28zM-45 607q0 17 11 28t28 11t28 -11t11 -28t-11 -28t-28 -11t-28 11t-11 28zM60 0v500h50v-500h-50z" />
    <glyph glyph-name="eth" unicode="&#xf0;" horiz-adv-x="610" 
d="M530 755l-247 -157l26 -39l246 156zM510 238q0 -85 -63.5 -145.5t-153.5 -60.5q-87 0 -145 57t-58 143t59 142t150 56t151 -54.5t60 -137.5zM247 715q116 -12 189.5 -110t83.5 -256q-31 60 -93.5 95.5t-136.5 35.5q-106 0 -178 -71.5t-72 -177.5q0 -107 73.5 -178
t183.5 -71q75 0 137 35t95 96q41 76 41 203q0 184 -85 305.5t-228 141.5z" />
    <glyph glyph-name="ntilde" unicode="&#xf1;" horiz-adv-x="528" 
d="M189 702q-34 0 -60 -29.5t-38 -80.5l44 -18q15 79 53 79q15 0 27 -8t33 -32q42 -45 88 -45q35 0 61.5 29.5t37.5 80.5l-44 18q-16 -76 -58 -76q-15 0 -27 7.5t-33 31.5q-42 43 -84 43zM60 0v500h50v-500h-50zM418 0v303q0 74 -40.5 116t-104.5 42q-67 0 -115 -46.5
t-48 -111.5h-38q0 84 61 146t150 62q78 0 131.5 -56t53.5 -142v-313h-50z" />
    <glyph glyph-name="ograve" unicode="&#xf2;" horiz-adv-x="618" 
d="M182 726l36 37l162 -162l-32 -33zM90 251q0 -96 63.5 -157.5t155.5 -61.5t155.5 61.5t63.5 157.5t-63.5 157.5t-155.5 61.5t-155.5 -61.5t-63.5 -157.5zM40 251q0 117 78 193t191 76t191 -76t78 -193t-78 -193t-191 -76t-191 76t-78 193z" />
    <glyph glyph-name="oacute" unicode="&#xf3;" horiz-adv-x="618" 
d="M434 726l-36 37l-162 -162l32 -33zM90 251q0 -96 63.5 -157.5t155.5 -61.5t155.5 61.5t63.5 157.5t-63.5 157.5t-155.5 61.5t-155.5 -61.5t-63.5 -157.5zM40 251q0 117 78 193t191 76t191 -76t78 -193t-78 -193t-191 -76t-191 76t-78 193z" />
    <glyph glyph-name="ocircumflex" unicode="&#xf4;" horiz-adv-x="618" 
d="M298 760l-154 -162l41 -30l123 132l123 -132l41 30l-154 162h-20zM90 251q0 -96 63.5 -157.5t155.5 -61.5t155.5 61.5t63.5 157.5t-63.5 157.5t-155.5 61.5t-155.5 -61.5t-63.5 -157.5zM40 251q0 117 78 193t191 76t191 -76t78 -193t-78 -193t-191 -76t-191 76t-78 193z
" />
    <glyph glyph-name="otilde" unicode="&#xf5;" horiz-adv-x="618" 
d="M234 702q-34 0 -60 -29.5t-38 -80.5l44 -18q15 79 53 79q15 0 27 -8t33 -32q42 -45 88 -45q35 0 61.5 29.5t37.5 80.5l-44 18q-16 -76 -58 -76q-15 0 -27 7.5t-33 31.5q-42 43 -84 43zM90 251q0 -96 63.5 -157.5t155.5 -61.5t155.5 61.5t63.5 157.5t-63.5 157.5
t-155.5 61.5t-155.5 -61.5t-63.5 -157.5zM40 251q0 117 78 193t191 76t191 -76t78 -193t-78 -193t-191 -76t-191 76t-78 193z" />
    <glyph glyph-name="odieresis" unicode="&#xf6;" horiz-adv-x="618" 
d="M358 607q0 17 11 28t28 11t28 -11t11 -28t-11 -28t-28 -11t-28 11t-11 28zM178 607q0 17 11 28t28 11t28 -11t11 -28t-11 -28t-28 -11t-28 11t-11 28zM90 251q0 -96 63.5 -157.5t155.5 -61.5t155.5 61.5t63.5 157.5t-63.5 157.5t-155.5 61.5t-155.5 -61.5t-63.5 -157.5z
M40 251q0 117 78 193t191 76t191 -76t78 -193t-78 -193t-191 -76t-191 76t-78 193z" />
    <glyph glyph-name="divide" unicode="&#xf7;" horiz-adv-x="352" 
d="M129 410q0 21 14 35t35 14t35 -14t14 -35t-14 -35t-35 -14t-35 14t-14 35zM129 120q0 21 14 35t35 14t35 -14t14 -35t-14 -35t-35 -14t-35 14t-14 35zM322 290v-47h-292v47h292z" />
    <glyph glyph-name="oslash" unicode="&#xf8;" horiz-adv-x="618" 
d="M539 517l35 -35l-495 -495l-35 35zM90 251q0 -96 63.5 -157.5t155.5 -61.5t155.5 61.5t63.5 157.5t-63.5 157.5t-155.5 61.5t-155.5 -61.5t-63.5 -157.5zM40 251q0 117 78 193t191 76t191 -76t78 -193t-78 -193t-191 -76t-191 76t-78 193z" />
    <glyph glyph-name="ugrave" unicode="&#xf9;" horiz-adv-x="508" 
d="M130 726l36 37l162 -162l-32 -33zM448 500v-500h-50v500h50zM110 500v-323q0 -65 37.5 -101.5t97.5 -36.5q64 0 108.5 40.5t44.5 97.5h38q0 -76 -58 -132t-143 -56q-74 0 -124.5 50.5t-50.5 127.5v333h50z" />
    <glyph glyph-name="uacute" unicode="&#xfa;" horiz-adv-x="508" 
d="M382 726l-36 37l-162 -162l32 -33zM448 500v-500h-50v500h50zM110 500v-323q0 -65 37.5 -101.5t97.5 -36.5q64 0 108.5 40.5t44.5 97.5h38q0 -76 -58 -132t-143 -56q-74 0 -124.5 50.5t-50.5 127.5v333h50z" />
    <glyph glyph-name="ucircumflex" unicode="&#xfb;" horiz-adv-x="508" 
d="M246 760l-154 -162l41 -30l123 132l123 -132l41 30l-154 162h-20zM448 500v-500h-50v500h50zM110 500v-323q0 -65 37.5 -101.5t97.5 -36.5q64 0 108.5 40.5t44.5 97.5h38q0 -76 -58 -132t-143 -56q-74 0 -124.5 50.5t-50.5 127.5v333h50z" />
    <glyph glyph-name="udieresis" unicode="&#xfc;" horiz-adv-x="508" 
d="M306 607q0 17 11 28t28 11t28 -11t11 -28t-11 -28t-28 -11t-28 11t-11 28zM126 607q0 17 11 28t28 11t28 -11t11 -28t-11 -28t-28 -11t-28 11t-11 28zM448 500v-500h-50v500h50zM110 500v-323q0 -65 37.5 -101.5t97.5 -36.5q64 0 108.5 40.5t44.5 97.5h38q0 -76 -58 -132
t-143 -56q-74 0 -124.5 50.5t-50.5 127.5v333h50z" />
    <glyph glyph-name="yacute" unicode="&#xfd;" horiz-adv-x="534" 
d="M392 726l-36 37l-162 -162l32 -33zM443 500l-176 -420l-176 420h-59l203 -480l-88 -220h59l296 700h-59z" />
    <glyph glyph-name="thorn" unicode="&#xfe;" horiz-adv-x="638" 
d="M60 -200v950h50v-950h-50zM110 251q0 -96 63.5 -157.5t155.5 -61.5t155.5 61.5t63.5 157.5t-63.5 157.5t-155.5 61.5t-155.5 -61.5t-63.5 -157.5zM77 251q0 117 74.5 193t181.5 76q111 0 188 -76t77 -193t-77 -193t-188 -76q-107 0 -181.5 76t-74.5 193z" />
    <glyph glyph-name="ydieresis" unicode="&#xff;" horiz-adv-x="534" 
d="M316 607q0 17 11 28t28 11t28 -11t11 -28t-11 -28t-28 -11t-28 11t-11 28zM136 607q0 17 11 28t28 11t28 -11t11 -28t-11 -28t-28 -11t-28 11t-11 28zM443 500l-176 -420l-176 420h-59l203 -480l-88 -220h59l296 700h-59z" />
    <glyph glyph-name="Amacron" unicode="&#x100;" horiz-adv-x="750" 
d="M525 834v-47h-292v47h292zM160 254h425v-48h-425v48zM88 0h-56l311 700h64l311 -700h-56l-287 646z" />
    <glyph glyph-name="amacron" unicode="&#x101;" horiz-adv-x="487" 
d="M383 625v-47h-292v47h292zM377 246l-163 -19q-124 -14 -124 -94q0 -43 35 -69t91 -26q73 0 117 45t44 120h35q0 -91 -58.5 -152.5t-145.5 -61.5q-73 0 -120.5 40.5t-47.5 105.5q0 58 43 94.5t121 45.5l173 19v29q0 55 -41.5 96.5t-103.5 41.5q-55 0 -96 -29t-53 -75
l-47 13q19 63 72 102t120 39q81 0 140 -52.5t59 -125.5v-333h-50v246z" />
    <glyph glyph-name="Abreve" unicode="&#x102;" horiz-adv-x="750" 
d="M374 788q-62 0 -106 41.5t-44 100.5h47q0 -42 29.5 -69.5t74.5 -27.5q46 0 78 28.5t32 68.5h47q0 -57 -47 -99.5t-111 -42.5zM160 254h425v-48h-425v48zM88 0h-56l311 700h64l311 -700h-56l-287 646z" />
    <glyph glyph-name="abreve" unicode="&#x103;" horiz-adv-x="487" 
d="M232 579q-62 0 -106 41.5t-44 100.5h47q0 -42 29.5 -69.5t74.5 -27.5q46 0 78 28.5t32 68.5h47q0 -57 -47 -99.5t-111 -42.5zM377 246l-163 -19q-124 -14 -124 -94q0 -43 35 -69t91 -26q73 0 117 45t44 120h35q0 -91 -58.5 -152.5t-145.5 -61.5q-73 0 -120.5 40.5
t-47.5 105.5q0 58 43 94.5t121 45.5l173 19v29q0 55 -41.5 96.5t-103.5 41.5q-55 0 -96 -29t-53 -75l-47 13q19 63 72 102t120 39q81 0 140 -52.5t59 -125.5v-333h-50v246z" />
    <glyph glyph-name="Aogonek" unicode="&#x104;" horiz-adv-x="750" 
d="M668 -18v19h40v-39l-53 -32q-33 -22 -33 -57q0 -23 15 -37.5t38 -14.5q40 0 50 43l38 -15q-9 -32 -33 -50t-57 -18q-41 0 -67 25.5t-26 66.5q0 58 67 95zM160 254h425v-48h-425v48zM88 0h-56l311 700h64l311 -700h-56l-287 646z" />
    <glyph glyph-name="aogonek" unicode="&#x105;" horiz-adv-x="487" 
d="M382 -18v19h40v-39l-53 -32q-33 -22 -33 -57q0 -23 15 -37.5t38 -14.5q40 0 50 43l38 -15q-9 -32 -33 -50t-57 -18q-41 0 -67 25.5t-26 66.5q0 58 67 95zM377 246l-163 -19q-124 -14 -124 -94q0 -43 35 -69t91 -26q73 0 117 45t44 120h35q0 -91 -58.5 -152.5
t-145.5 -61.5q-73 0 -120.5 40.5t-47.5 105.5q0 58 43 94.5t121 45.5l173 19v29q0 55 -41.5 96.5t-103.5 41.5q-55 0 -96 -29t-53 -75l-47 13q19 63 72 102t120 39q81 0 140 -52.5t59 -125.5v-333h-50v246z" />
    <glyph glyph-name="Cacute" unicode="&#x106;" horiz-adv-x="778" 
d="M520 935l-36 37l-162 -162l32 -33zM40 351q0 160 104 264.5t255 104.5q109 0 198.5 -57t135.5 -156l-45 -20q-40 85 -117.5 134t-171.5 49q-129 0 -219 -90t-90 -229t90 -229t219 -90q97 0 175.5 51.5t117.5 140.5l46 -19q-44 -102 -135.5 -162.5t-203.5 -60.5
q-151 0 -255 104.5t-104 264.5z" />
    <glyph glyph-name="cacute" unicode="&#x107;" horiz-adv-x="584" 
d="M431 726l-36 37l-162 -162l32 -33zM90 251q0 -96 62 -157.5t152 -61.5q63 0 114.5 31t77.5 86l46 -19q-32 -68 -96 -108t-142 -40q-111 0 -187.5 76t-76.5 193t76.5 193t187.5 76q79 0 143.5 -41t96.5 -112l-46 -19q-25 57 -77 89.5t-117 32.5q-90 0 -152 -61.5
t-62 -157.5z" />
    <glyph glyph-name="Ccircumflex" unicode="&#x108;" horiz-adv-x="778" 
d="M384 969l-154 -162l41 -30l123 132l123 -132l41 30l-154 162h-20zM40 351q0 160 104 264.5t255 104.5q109 0 198.5 -57t135.5 -156l-45 -20q-40 85 -117.5 134t-171.5 49q-129 0 -219 -90t-90 -229t90 -229t219 -90q97 0 175.5 51.5t117.5 140.5l46 -19
q-44 -102 -135.5 -162.5t-203.5 -60.5q-151 0 -255 104.5t-104 264.5z" />
    <glyph glyph-name="ccircumflex" unicode="&#x109;" horiz-adv-x="584" 
d="M295 760l-154 -162l41 -30l123 132l123 -132l41 30l-154 162h-20zM90 251q0 -96 62 -157.5t152 -61.5q63 0 114.5 31t77.5 86l46 -19q-32 -68 -96 -108t-142 -40q-111 0 -187.5 76t-76.5 193t76.5 193t187.5 76q79 0 143.5 -41t96.5 -112l-46 -19q-25 57 -77 89.5
t-117 32.5q-90 0 -152 -61.5t-62 -157.5z" />
    <glyph glyph-name="Cdotaccent" unicode="&#x10a;" horiz-adv-x="778" 
d="M355 816q0 17 11 28t28 11t28 -11t11 -28t-11 -28t-28 -11t-28 11t-11 28zM40 351q0 160 104 264.5t255 104.5q109 0 198.5 -57t135.5 -156l-45 -20q-40 85 -117.5 134t-171.5 49q-129 0 -219 -90t-90 -229t90 -229t219 -90q97 0 175.5 51.5t117.5 140.5l46 -19
q-44 -102 -135.5 -162.5t-203.5 -60.5q-151 0 -255 104.5t-104 264.5z" />
    <glyph glyph-name="cdotaccent" unicode="&#x10b;" horiz-adv-x="584" 
d="M266 607q0 17 11 28t28 11t28 -11t11 -28t-11 -28t-28 -11t-28 11t-11 28zM90 251q0 -96 62 -157.5t152 -61.5q63 0 114.5 31t77.5 86l46 -19q-32 -68 -96 -108t-142 -40q-111 0 -187.5 76t-76.5 193t76.5 193t187.5 76q79 0 143.5 -41t96.5 -112l-46 -19
q-25 57 -77 89.5t-117 32.5q-90 0 -152 -61.5t-62 -157.5z" />
    <glyph glyph-name="Ccaron" unicode="&#x10c;" horiz-adv-x="778" 
d="M404 777l154 162l-41 30l-123 -132l-123 132l-41 -30l154 -162h20zM40 351q0 160 104 264.5t255 104.5q109 0 198.5 -57t135.5 -156l-45 -20q-40 85 -117.5 134t-171.5 49q-129 0 -219 -90t-90 -229t90 -229t219 -90q97 0 175.5 51.5t117.5 140.5l46 -19
q-44 -102 -135.5 -162.5t-203.5 -60.5q-151 0 -255 104.5t-104 264.5z" />
    <glyph glyph-name="ccaron" unicode="&#x10d;" horiz-adv-x="584" 
d="M315 568l154 162l-41 30l-123 -132l-123 132l-41 -30l154 -162h20zM90 251q0 -96 62 -157.5t152 -61.5q63 0 114.5 31t77.5 86l46 -19q-32 -68 -96 -108t-142 -40q-111 0 -187.5 76t-76.5 193t76.5 193t187.5 76q79 0 143.5 -41t96.5 -112l-46 -19q-25 57 -77 89.5
t-117 32.5q-90 0 -152 -61.5t-62 -157.5z" />
    <glyph glyph-name="Dcaron" unicode="&#x10e;" horiz-adv-x="698" 
d="M344 777l154 162l-41 30l-123 -132l-123 132l-41 -30l154 -162h20zM309 0h-249v700h249q146 0 247.5 -98.5t101.5 -250.5t-101.5 -251.5t-247.5 -99.5zM299 652h-189v-604h189q129 0 219 85t90 218q0 132 -90 216.5t-219 84.5z" />
    <glyph glyph-name="dcaron" unicode="&#x10f;" horiz-adv-x="734" 
d="M682 799l50 -13l-59 -221l-45 11zM578 0h-50v750h50v-750zM528 251q0 96 -63.5 157.5t-155.5 61.5t-155.5 -61.5t-63.5 -157.5t63.5 -157.5t155.5 -61.5t155.5 61.5t63.5 157.5zM561 251q0 -117 -74.5 -193t-181.5 -76q-111 0 -188 76t-77 193t77 193t188 76
q107 0 181.5 -76t74.5 -193z" />
    <glyph glyph-name="Dcroat" unicode="&#x110;" horiz-adv-x="698" 
d="M342 382v-47h-342v47h342zM309 0h-229v700h229q146 0 247.5 -98.5t101.5 -250.5t-101.5 -251.5t-247.5 -99.5zM299 652h-169v-604h169q129 0 219 85t90 218q0 132 -90 216.5t-219 84.5z" />
    <glyph glyph-name="dcroat" unicode="&#x111;" horiz-adv-x="668" 
d="M561 251q0 -117 -74.5 -193t-181.5 -76q-111 0 -188 76t-77 193t77 193t188 76q107 0 181.5 -76t74.5 -193zM528 251q0 96 -63.5 157.5t-155.5 61.5t-155.5 -61.5t-63.5 -157.5t63.5 -157.5t155.5 -61.5t155.5 61.5t63.5 157.5zM578 0h-50v616h-242v47h242v87h50v-87h90
v-47h-90v-616z" />
    <glyph glyph-name="Emacron" unicode="&#x112;" horiz-adv-x="550" 
d="M435 834v-47h-292v47h292zM110 375h376v-48h-376v-279h400v-48h-450v700h450v-48h-400v-277z" />
    <glyph glyph-name="emacron" unicode="&#x113;" horiz-adv-x="598" 
d="M451 625v-47h-292v47h292zM508 275q-5 86 -64.5 140.5t-144.5 54.5q-82 0 -141 -54t-67 -141h417zM91 228q8 -87 68.5 -141.5t144.5 -54.5q63 0 114.5 31t77.5 86l46 -19q-32 -68 -96 -108t-142 -40q-111 0 -187.5 76t-76.5 193t75.5 193t183.5 76t183.5 -73.5
t75.5 -185.5q0 -11 -2 -33h-465z" />
    <glyph glyph-name="Ebreve" unicode="&#x114;" horiz-adv-x="550" 
d="M284 788q-62 0 -106 41.5t-44 100.5h47q0 -42 29.5 -69.5t74.5 -27.5q46 0 78 28.5t32 68.5h47q0 -57 -47 -99.5t-111 -42.5zM110 375h376v-48h-376v-279h400v-48h-450v700h450v-48h-400v-277z" />
    <glyph glyph-name="ebreve" unicode="&#x115;" horiz-adv-x="598" 
d="M300 579q-62 0 -106 41.5t-44 100.5h47q0 -42 29.5 -69.5t74.5 -27.5q46 0 78 28.5t32 68.5h47q0 -57 -47 -99.5t-111 -42.5zM508 275q-5 86 -64.5 140.5t-144.5 54.5q-82 0 -141 -54t-67 -141h417zM91 228q8 -87 68.5 -141.5t144.5 -54.5q63 0 114.5 31t77.5 86l46 -19
q-32 -68 -96 -108t-142 -40q-111 0 -187.5 76t-76.5 193t75.5 193t183.5 76t183.5 -73.5t75.5 -185.5q0 -11 -2 -33h-465z" />
    <glyph glyph-name="Edotaccent" unicode="&#x116;" horiz-adv-x="550" 
d="M246 816q0 17 11 28t28 11t28 -11t11 -28t-11 -28t-28 -11t-28 11t-11 28zM110 375h376v-48h-376v-279h400v-48h-450v700h450v-48h-400v-277z" />
    <glyph glyph-name="edotaccent" unicode="&#x117;" horiz-adv-x="598" 
d="M262 607q0 17 11 28t28 11t28 -11t11 -28t-11 -28t-28 -11t-28 11t-11 28zM508 275q-5 86 -64.5 140.5t-144.5 54.5q-82 0 -141 -54t-67 -141h417zM91 228q8 -87 68.5 -141.5t144.5 -54.5q63 0 114.5 31t77.5 86l46 -19q-32 -68 -96 -108t-142 -40q-111 0 -187.5 76
t-76.5 193t75.5 193t183.5 76t183.5 -73.5t75.5 -185.5q0 -11 -2 -33h-465z" />
    <glyph glyph-name="Eogonek" unicode="&#x118;" horiz-adv-x="550" 
d="M448 -18v19h40v-39l-53 -32q-33 -22 -33 -57q0 -23 15 -37.5t38 -14.5q40 0 50 43l38 -15q-9 -32 -33 -50t-57 -18q-41 0 -67 25.5t-26 66.5q0 58 67 95zM110 375h376v-48h-376v-279h400v-48h-450v700h450v-48h-400v-277z" />
    <glyph glyph-name="eogonek" unicode="&#x119;" horiz-adv-x="598" 
d="M282 -18v19h40v-39l-53 -32q-33 -22 -33 -57q0 -23 15 -37.5t38 -14.5q40 0 50 43l38 -15q-9 -32 -33 -50t-57 -18q-41 0 -67 25.5t-26 66.5q0 58 67 95zM508 275q-5 86 -64.5 140.5t-144.5 54.5q-82 0 -141 -54t-67 -141h417zM91 228q8 -87 68.5 -141.5t144.5 -54.5
q63 0 114.5 31t77.5 86l46 -19q-32 -68 -96 -108t-142 -40q-111 0 -187.5 76t-76.5 193t75.5 193t183.5 76t183.5 -73.5t75.5 -185.5q0 -11 -2 -33h-465z" />
    <glyph glyph-name="Ecaron" unicode="&#x11a;" horiz-adv-x="550" 
d="M295 777l154 162l-41 30l-123 -132l-123 132l-41 -30l154 -162h20zM110 375h376v-48h-376v-279h400v-48h-450v700h450v-48h-400v-277z" />
    <glyph glyph-name="ecaron" unicode="&#x11b;" horiz-adv-x="598" 
d="M311 568l154 162l-41 30l-123 -132l-123 132l-41 -30l154 -162h20zM508 275q-5 86 -64.5 140.5t-144.5 54.5q-82 0 -141 -54t-67 -141h417zM91 228q8 -87 68.5 -141.5t144.5 -54.5q63 0 114.5 31t77.5 86l46 -19q-32 -68 -96 -108t-142 -40q-111 0 -187.5 76t-76.5 193
t75.5 193t183.5 76t183.5 -73.5t75.5 -185.5q0 -11 -2 -33h-465z" />
    <glyph glyph-name="Gcircumflex" unicode="&#x11c;" horiz-adv-x="788" 
d="M384 969l-154 -162l41 -30l123 132l123 -132l41 30l-154 162h-20zM90 351q0 -139 88.5 -229t215.5 -90q124 0 211.5 80t92.5 206h-322v49h371q1 -10 1 -30q0 -153 -103 -254t-251 -101t-251 104.5t-103 264.5t103 264.5t251 104.5q103 0 188 -57.5t129 -155.5l-45 -20
q-38 85 -111 134t-161 49q-127 0 -215.5 -90t-88.5 -229z" />
    <glyph glyph-name="gcircumflex" unicode="&#x11d;" horiz-adv-x="598" 
d="M278 760l-154 -162l41 -30l123 132l123 -132l41 30l-154 162h-20zM521 269q0 -108 -68.5 -178.5t-167.5 -70.5q-103 0 -174 70.5t-71 178.5t71 178.5t174 70.5q99 0 167.5 -70.5t68.5 -178.5zM488 269q0 88 -57.5 143.5t-141.5 55.5t-141.5 -55.5t-57.5 -143.5
t57.5 -143.5t141.5 -55.5t141.5 55.5t57.5 143.5zM488 -20v520h50v-520q0 -91 -71 -150t-173 -59q-79 0 -143.5 44t-96.5 119l46 19q25 -61 77 -96.5t117 -35.5q82 0 138 45t56 114z" />
    <glyph glyph-name="Gbreve" unicode="&#x11e;" horiz-adv-x="788" 
d="M393 788q-62 0 -106 41.5t-44 100.5h47q0 -42 29.5 -69.5t74.5 -27.5q46 0 78 28.5t32 68.5h47q0 -57 -47 -99.5t-111 -42.5zM90 351q0 -139 88.5 -229t215.5 -90q124 0 211.5 80t92.5 206h-322v49h371q1 -10 1 -30q0 -153 -103 -254t-251 -101t-251 104.5t-103 264.5
t103 264.5t251 104.5q103 0 188 -57.5t129 -155.5l-45 -20q-38 85 -111 134t-161 49q-127 0 -215.5 -90t-88.5 -229z" />
    <glyph glyph-name="gbreve" unicode="&#x11f;" horiz-adv-x="598" 
d="M287 579q-62 0 -106 41.5t-44 100.5h47q0 -42 29.5 -69.5t74.5 -27.5q46 0 78 28.5t32 68.5h47q0 -57 -47 -99.5t-111 -42.5zM521 269q0 -108 -68.5 -178.5t-167.5 -70.5q-103 0 -174 70.5t-71 178.5t71 178.5t174 70.5q99 0 167.5 -70.5t68.5 -178.5zM488 269
q0 88 -57.5 143.5t-141.5 55.5t-141.5 -55.5t-57.5 -143.5t57.5 -143.5t141.5 -55.5t141.5 55.5t57.5 143.5zM488 -20v520h50v-520q0 -91 -71 -150t-173 -59q-79 0 -143.5 44t-96.5 119l46 19q25 -61 77 -96.5t117 -35.5q82 0 138 45t56 114z" />
    <glyph glyph-name="Gdotaccent" unicode="&#x120;" horiz-adv-x="788" 
d="M355 816q0 17 11 28t28 11t28 -11t11 -28t-11 -28t-28 -11t-28 11t-11 28zM90 351q0 -139 88.5 -229t215.5 -90q124 0 211.5 80t92.5 206h-322v49h371q1 -10 1 -30q0 -153 -103 -254t-251 -101t-251 104.5t-103 264.5t103 264.5t251 104.5q103 0 188 -57.5t129 -155.5
l-45 -20q-38 85 -111 134t-161 49q-127 0 -215.5 -90t-88.5 -229z" />
    <glyph glyph-name="gdotaccent" unicode="&#x121;" horiz-adv-x="598" 
d="M249 607q0 17 11 28t28 11t28 -11t11 -28t-11 -28t-28 -11t-28 11t-11 28zM521 269q0 -108 -68.5 -178.5t-167.5 -70.5q-103 0 -174 70.5t-71 178.5t71 178.5t174 70.5q99 0 167.5 -70.5t68.5 -178.5zM488 269q0 88 -57.5 143.5t-141.5 55.5t-141.5 -55.5t-57.5 -143.5
t57.5 -143.5t141.5 -55.5t141.5 55.5t57.5 143.5zM488 -20v520h50v-520q0 -91 -71 -150t-173 -59q-79 0 -143.5 44t-96.5 119l46 19q25 -61 77 -96.5t117 -35.5q82 0 138 45t56 114z" />
    <glyph glyph-name="uni0122" unicode="&#x122;" horiz-adv-x="788" 
d="M428 -185q0 -20 -13.5 -34.5t-34.5 -14.5t-35.5 14t-14.5 34q0 19 10 32l75 107l31 -23l-49 -69q31 -13 31 -46zM90 351q0 -139 88.5 -229t215.5 -90q124 0 211.5 80t92.5 206h-322v49h371q1 -10 1 -30q0 -153 -103 -254t-251 -101t-251 104.5t-103 264.5t103 264.5
t251 104.5q103 0 188 -57.5t129 -155.5l-45 -20q-38 85 -111 134t-161 49q-127 0 -215.5 -90t-88.5 -229z" />
    <glyph glyph-name="uni0123" unicode="&#x123;" horiz-adv-x="598" 
d="M335 617q0 -20 -13.5 -34.5t-34.5 -14.5t-35.5 14t-14.5 34q0 19 10 32l75 107l31 -23l-49 -69q31 -13 31 -46zM521 269q0 -108 -68.5 -178.5t-167.5 -70.5q-103 0 -174 70.5t-71 178.5t71 178.5t174 70.5q99 0 167.5 -70.5t68.5 -178.5zM488 269q0 88 -57.5 143.5
t-141.5 55.5t-141.5 -55.5t-57.5 -143.5t57.5 -143.5t141.5 -55.5t141.5 55.5t57.5 143.5zM488 -20v520h50v-520q0 -91 -71 -150t-173 -59q-79 0 -143.5 44t-96.5 119l46 19q25 -61 77 -96.5t117 -35.5q82 0 138 45t56 114z" />
    <glyph glyph-name="Hcircumflex" unicode="&#x124;" horiz-adv-x="680" 
d="M331 969l-154 -162l41 -30l123 132l123 -132l41 30l-154 162h-20zM60 0v700h50v-325h460v325h50v-700h-50v327h-460v-327h-50z" />
    <glyph glyph-name="hcircumflex" unicode="&#x125;" horiz-adv-x="528" 
d="M74 992l-154 -162l41 -30l123 132l123 -132l41 30l-154 162h-20zM60 0v750h50v-750h-50zM418 0v303q0 74 -40.5 116t-104.5 42q-67 0 -115 -46.5t-48 -111.5h-38q0 84 61 146t150 62q78 0 131.5 -56t53.5 -142v-313h-50z" />
    <glyph glyph-name="Hbar" unicode="&#x126;" horiz-adv-x="680" 
d="M680 547v-47h-60v-500h-50v327h-460v-327h-50v500h-60v47h60v153h50v-153h460v153h50v-153h60zM110 500v-125h460v125h-460z" />
    <glyph glyph-name="hbar" unicode="&#x127;" horiz-adv-x="528" 
d="M60 0v616h-60v47h60v87h50v-87h272v-47h-272v-616h-50zM418 0v303q0 74 -40.5 116t-104.5 42q-67 0 -115 -46.5t-48 -111.5h-38q0 84 61 146t150 62q78 0 131.5 -56t53.5 -142v-313h-50z" />
    <glyph glyph-name="Itilde" unicode="&#x128;" 
d="M11 911q-34 0 -60 -29.5t-38 -80.5l44 -18q15 79 53 79q15 0 27 -8t33 -32q42 -45 88 -45q35 0 61.5 29.5t37.5 80.5l-44 18q-16 -76 -58 -76q-15 0 -27 7.5t-33 31.5q-42 43 -84 43zM110 0h-50v700h50v-700z" />
    <glyph glyph-name="itilde" unicode="&#x129;" 
d="M11 702q-34 0 -60 -29.5t-38 -80.5l44 -18q15 79 53 79q15 0 27 -8t33 -32q42 -45 88 -45q35 0 61.5 29.5t37.5 80.5l-44 18q-16 -76 -58 -76q-15 0 -27 7.5t-33 31.5q-42 43 -84 43zM60 0v500h50v-500h-50z" />
    <glyph glyph-name="Imacron" unicode="&#x12a;" 
d="M235 834v-47h-292v47h292zM110 0h-50v700h50v-700z" />
    <glyph glyph-name="imacron" unicode="&#x12b;" 
d="M235 625v-47h-292v47h292zM60 0v500h50v-500h-50z" />
    <glyph glyph-name="Ibreve" unicode="&#x12c;" 
d="M84 788q-62 0 -106 41.5t-44 100.5h47q0 -42 29.5 -69.5t74.5 -27.5q46 0 78 28.5t32 68.5h47q0 -57 -47 -99.5t-111 -42.5zM110 0h-50v700h50v-700z" />
    <glyph glyph-name="ibreve" unicode="&#x12d;" 
d="M84 579q-62 0 -106 41.5t-44 100.5h47q0 -42 29.5 -69.5t74.5 -27.5q46 0 78 28.5t32 68.5h47q0 -57 -47 -99.5t-111 -42.5zM60 0v500h50v-500h-50z" />
    <glyph glyph-name="Iogonek" unicode="&#x12e;" 
d="M64 -18v19h40v-39l-53 -32q-33 -22 -33 -57q0 -23 15 -37.5t38 -14.5q40 0 50 43l38 -15q-9 -32 -33 -50t-57 -18q-41 0 -67 25.5t-26 66.5q0 58 67 95zM110 0h-50v700h50v-700z" />
    <glyph glyph-name="iogonek" unicode="&#x12f;" 
d="M64 -18v19h40v-39l-53 -32q-33 -22 -33 -57q0 -23 15 -37.5t38 -14.5q40 0 50 43l38 -15q-9 -32 -33 -50t-57 -18q-41 0 -67 25.5t-26 66.5q0 58 67 95zM46 631q0 17 11 28t28 11t28 -11t11 -28t-11 -28t-28 -11t-28 11t-11 28zM60 0v500h50v-500h-50z" />
    <glyph glyph-name="Idotaccent" unicode="&#x130;" 
d="M46 816q0 17 11 28t28 11t28 -11t11 -28t-11 -28t-28 -11t-28 11t-11 28zM110 0h-50v700h50v-700z" />
    <glyph glyph-name="dotlessi" unicode="&#x131;" 
d="M60 0v500h50v-500h-50z" />
    <glyph glyph-name="IJ" unicode="&#x132;" horiz-adv-x="747" 
d="M210 151l45 17q45 -129 187 -129q86 0 140.5 52.5t54.5 145.5v463h50v-473q0 -103 -70.5 -170.5t-174.5 -67.5q-85 0 -146 43t-86 119zM110 0h-50v700h50v-700z" />
    <glyph glyph-name="ij" unicode="&#x133;" horiz-adv-x="340" 
d="M216 631q0 17 11 28t28 11t28 -11t11 -28t-11 -28t-28 -11t-28 11t-11 28zM152 -122q37 0 57.5 24.5t20.5 62.5v535h50v-549q0 -49 -33 -85t-85 -36h-29v48h19zM46 631q0 17 11 28t28 11t28 -11t11 -28t-11 -28t-28 -11t-28 11t-11 28zM60 0v500h50v-500h-50z" />
    <glyph glyph-name="Jcircumflex" unicode="&#x134;" horiz-adv-x="577" 
d="M479 969l-154 -162l41 -30l123 132l123 -132l41 30l-154 162h-20zM40 151l45 17q45 -129 187 -129q86 0 140.5 52.5t54.5 145.5v463h50v-473q0 -103 -70.5 -170.5t-174.5 -67.5q-85 0 -146 43t-86 119z" />
    <glyph glyph-name="jcircumflex" unicode="&#x135;" 
d="M75 760l-154 -162l41 -30l123 132l123 -132l41 30l-154 162h-20zM-18 -122q37 0 57.5 24.5t20.5 62.5v535h50v-549q0 -49 -33 -85t-85 -36h-29v48h19z" />
    <glyph glyph-name="uni0136" unicode="&#x136;" horiz-adv-x="585" 
d="M338 -185q0 -20 -13.5 -34.5t-34.5 -14.5t-35.5 14t-14.5 34q0 19 10 32l75 107l31 -23l-49 -69q31 -13 31 -46zM60 0v700h50v-327h37l335 327h71l-360 -352l360 -348h-71l-335 320h-37v-320h-50z" />
    <glyph glyph-name="uni0137" unicode="&#x137;" horiz-adv-x="464" 
d="M278 -185q0 -20 -13.5 -34.5t-34.5 -14.5t-35.5 14t-14.5 34q0 19 10 32l75 107l31 -23l-49 -69q31 -13 31 -46zM60 0v750h50v-475h27l228 225h67l-250 -250l250 -250h-67l-228 222h-27v-222h-50z" />
    <glyph glyph-name="kgreenlandic" unicode="&#x138;" horiz-adv-x="464" 
d="M60 0v500h50v-225h27l228 225h67l-250 -250l250 -250h-67l-228 222h-27v-222h-50z" />
    <glyph glyph-name="Lacute" unicode="&#x139;" horiz-adv-x="540" 
d="M211 935l-36 37l-162 -162l32 -33zM110 48h400v-48h-450v700h50v-652z" />
    <glyph glyph-name="lacute" unicode="&#x13a;" 
d="M210 958l-36 37l-162 -162l32 -33zM60 0v750h50v-750h-50z" />
    <glyph glyph-name="uni013B" unicode="&#x13b;" horiz-adv-x="540" 
d="M328 -185q0 -20 -13.5 -34.5t-34.5 -14.5t-35.5 14t-14.5 34q0 19 10 32l75 107l31 -23l-49 -69q31 -13 31 -46zM110 48h400v-48h-450v700h50v-652z" />
    <glyph glyph-name="uni013C" unicode="&#x13c;" 
d="M119 -185q0 -20 -13.5 -34.5t-34.5 -14.5t-35.5 14t-14.5 34q0 19 10 32l75 107l31 -23l-49 -69q31 -13 31 -46zM60 0v750h50v-750h-50z" />
    <glyph glyph-name="Lcaron" unicode="&#x13d;" horiz-adv-x="540" 
d="M302 721l50 -13l-59 -221l-45 11zM110 48h400v-48h-450v700h50v-652z" />
    <glyph glyph-name="lcaron" unicode="&#x13e;" horiz-adv-x="274" 
d="M212 799l50 -13l-59 -221l-45 11zM60 0v750h50v-750h-50z" />
    <glyph glyph-name="Ldot" unicode="&#x13f;" horiz-adv-x="540" 
d="M246 360q0 17 11 28t28 11t28 -11t11 -28t-11 -28t-28 -11t-28 11t-11 28zM110 48h400v-48h-450v700h50v-652z" />
    <glyph glyph-name="ldot" unicode="&#x140;" horiz-adv-x="340" 
d="M216 361q0 17 11 28t28 11t28 -11t11 -28t-11 -28t-28 -11t-28 11t-11 28zM60 0v750h50v-750h-50z" />
    <glyph glyph-name="Lslash" unicode="&#x141;" horiz-adv-x="550" 
d="M296 408l10 -46l-287 -57l-9 46zM120 48h400v-48h-450v700h50v-652z" />
    <glyph glyph-name="lslash" unicode="&#x142;" horiz-adv-x="190" 
d="M171 423l9 -46l-161 -32l-9 46zM70 0v750h50v-750h-50z" />
    <glyph glyph-name="Nacute" unicode="&#x143;" horiz-adv-x="680" 
d="M471 935l-36 37l-162 -162l32 -33zM60 0v700h63l447 -627v627h50v-700h-63l-447 637v-637h-50z" />
    <glyph glyph-name="nacute" unicode="&#x144;" horiz-adv-x="528" 
d="M389 726l-36 37l-162 -162l32 -33zM60 0v500h50v-500h-50zM418 0v303q0 74 -40.5 116t-104.5 42q-67 0 -115 -46.5t-48 -111.5h-38q0 84 61 146t150 62q78 0 131.5 -56t53.5 -142v-313h-50z" />
    <glyph glyph-name="uni0145" unicode="&#x145;" horiz-adv-x="680" 
d="M388 -185q0 -20 -13.5 -34.5t-34.5 -14.5t-35.5 14t-14.5 34q0 19 10 32l75 107l31 -23l-49 -69q31 -13 31 -46zM60 0v700h63l447 -627v627h50v-700h-63l-447 637v-637h-50z" />
    <glyph glyph-name="uni0146" unicode="&#x146;" horiz-adv-x="528" 
d="M308 -185q0 -20 -13.5 -34.5t-34.5 -14.5t-35.5 14t-14.5 34q0 19 10 32l75 107l31 -23l-49 -69q31 -13 31 -46zM60 0v500h50v-500h-50zM418 0v303q0 74 -40.5 116t-104.5 42q-67 0 -115 -46.5t-48 -111.5h-38q0 84 61 146t150 62q78 0 131.5 -56t53.5 -142v-313h-50z
" />
    <glyph glyph-name="Ncaron" unicode="&#x147;" horiz-adv-x="680" 
d="M355 777l154 162l-41 30l-123 -132l-123 132l-41 -30l154 -162h20zM60 0v700h63l447 -627v627h50v-700h-63l-447 637v-637h-50z" />
    <glyph glyph-name="ncaron" unicode="&#x148;" horiz-adv-x="528" 
d="M273 568l154 162l-41 30l-123 -132l-123 132l-41 -30l154 -162h20zM60 0v500h50v-500h-50zM418 0v303q0 74 -40.5 116t-104.5 42q-67 0 -115 -46.5t-48 -111.5h-38q0 84 61 146t150 62q78 0 131.5 -56t53.5 -142v-313h-50z" />
    <glyph glyph-name="napostrophe" unicode="&#x149;" horiz-adv-x="665" 
d="M197 0v500h50v-500h-50zM555 0v303q0 74 -40.5 116t-104.5 42q-67 0 -115 -46.5t-48 -111.5h-38q0 84 61 146t150 62q78 0 131.5 -56t53.5 -142v-313h-50zM87 750l50 -13l-59 -221l-45 11z" />
    <glyph glyph-name="Eng" unicode="&#x14a;" horiz-adv-x="648" 
d="M60 0v700h50v-700h-50zM390 -109q72 0 110 44t38 113v395q0 102 -57.5 160t-147.5 58q-92 0 -157.5 -64t-65.5 -154h-38q0 108 78.5 188t192.5 80q103 0 174 -73t71 -185v-419q0 -78 -52.5 -134.5t-135.5 -56.5h-79v48h69z" />
    <glyph glyph-name="eng" unicode="&#x14b;" horiz-adv-x="528" 
d="M60 0v500h50v-500h-50zM418 0v303q0 74 -40.5 116t-104.5 42q-67 0 -115 -46.5t-48 -111.5h-38q0 84 61 146t150 62q78 0 131.5 -56t53.5 -142v-327q0 -58 -38.5 -99.5t-99.5 -41.5h-79v48h69q47 0 72.5 30t25.5 77z" />
    <glyph glyph-name="Omacron" unicode="&#x14c;" horiz-adv-x="788" 
d="M544 834v-47h-292v47h292zM90 353q0 -141 88 -231t216 -90t216 90t88 231q0 139 -88 228t-216 89t-216 -89t-88 -228zM40 353q0 160 102.5 263.5t251.5 103.5t251.5 -103.5t102.5 -263.5q0 -161 -102.5 -266t-251.5 -105t-251.5 105t-102.5 266z" />
    <glyph glyph-name="omacron" unicode="&#x14d;" horiz-adv-x="618" 
d="M458 625v-47h-292v47h292zM90 251q0 -96 63.5 -157.5t155.5 -61.5t155.5 61.5t63.5 157.5t-63.5 157.5t-155.5 61.5t-155.5 -61.5t-63.5 -157.5zM40 251q0 117 78 193t191 76t191 -76t78 -193t-78 -193t-191 -76t-191 76t-78 193z" />
    <glyph glyph-name="Obreve" unicode="&#x14e;" horiz-adv-x="788" 
d="M393 788q-62 0 -106 41.5t-44 100.5h47q0 -42 29.5 -69.5t74.5 -27.5q46 0 78 28.5t32 68.5h47q0 -57 -47 -99.5t-111 -42.5zM90 353q0 -141 88 -231t216 -90t216 90t88 231q0 139 -88 228t-216 89t-216 -89t-88 -228zM40 353q0 160 102.5 263.5t251.5 103.5
t251.5 -103.5t102.5 -263.5q0 -161 -102.5 -266t-251.5 -105t-251.5 105t-102.5 266z" />
    <glyph glyph-name="obreve" unicode="&#x14f;" horiz-adv-x="618" 
d="M307 579q-62 0 -106 41.5t-44 100.5h47q0 -42 29.5 -69.5t74.5 -27.5q46 0 78 28.5t32 68.5h47q0 -57 -47 -99.5t-111 -42.5zM90 251q0 -96 63.5 -157.5t155.5 -61.5t155.5 61.5t63.5 157.5t-63.5 157.5t-155.5 61.5t-155.5 -61.5t-63.5 -157.5zM40 251q0 117 78 193
t191 76t191 -76t78 -193t-78 -193t-191 -76t-191 76t-78 193z" />
    <glyph glyph-name="Ohungarumlaut" unicode="&#x150;" horiz-adv-x="788" 
d="M580 935l-36 37l-162 -162l32 -33zM420 935l-36 37l-162 -162l32 -33zM90 353q0 -141 88 -231t216 -90t216 90t88 231q0 139 -88 228t-216 89t-216 -89t-88 -228zM40 353q0 160 102.5 263.5t251.5 103.5t251.5 -103.5t102.5 -263.5q0 -161 -102.5 -266t-251.5 -105
t-251.5 105t-102.5 266z" />
    <glyph glyph-name="ohungarumlaut" unicode="&#x151;" horiz-adv-x="618" 
d="M494 726l-36 37l-162 -162l32 -33zM334 726l-36 37l-162 -162l32 -33zM90 251q0 -96 63.5 -157.5t155.5 -61.5t155.5 61.5t63.5 157.5t-63.5 157.5t-155.5 61.5t-155.5 -61.5t-63.5 -157.5zM40 251q0 117 78 193t191 76t191 -76t78 -193t-78 -193t-191 -76t-191 76
t-78 193z" />
    <glyph glyph-name="OE" unicode="&#x152;" horiz-adv-x="1188" 
d="M748 375h376v-48h-376v-279h400v-48h-450v700h450v-48h-400v-277zM90 352q0 -137 87 -228.5t217 -91.5t217 91.5t87 228.5t-87 227.5t-217 90.5t-217 -90.5t-87 -227.5zM40 352q0 157 101 262.5t250 105.5t248 -105.5t99 -262.5q0 -158 -99.5 -264t-247.5 -106
q-149 0 -250 106.5t-101 263.5z" />
    <glyph glyph-name="oe" unicode="&#x153;" horiz-adv-x="1086" 
d="M996 275q-5 86 -64.5 140.5t-144.5 54.5q-82 0 -141 -54t-67 -141h417zM579 228q8 -87 68.5 -141.5t144.5 -54.5q63 0 114.5 31t77.5 86l46 -19q-32 -68 -96 -108t-142 -40q-111 0 -187.5 76t-76.5 193t75.5 193t183.5 76t183.5 -73.5t75.5 -185.5q0 -11 -2 -33h-465z
M90 251q0 -96 63.5 -157.5t155.5 -61.5t155.5 61.5t63.5 157.5t-63.5 157.5t-155.5 61.5t-155.5 -61.5t-63.5 -157.5zM40 251q0 117 78 193t191 76q108 0 183.5 -76t75.5 -193t-75.5 -193t-183.5 -76q-113 0 -191 76t-78 193z" />
    <glyph glyph-name="Racute" unicode="&#x154;" horiz-adv-x="628" 
d="M431 935l-36 37l-162 -162l32 -33zM359 652h-249v-332h249q76 0 127.5 48.5t51.5 119.5t-51 117.5t-128 46.5zM359 272l229 -272h-64l-229 272h-185v-272h-50v700h309q94 0 156.5 -60.5t62.5 -151.5t-66.5 -153.5t-162.5 -62.5z" />
    <glyph glyph-name="racute" unicode="&#x155;" horiz-adv-x="321" 
d="M319 726l-36 37l-162 -162l32 -33zM60 0v500h50v-500h-50zM278 458q-70 0 -119 -42.5t-49 -102.5h-38q0 72 58 133.5t138 61.5h28v-50h-18z" />
    <glyph glyph-name="uni0156" unicode="&#x156;" horiz-adv-x="628" 
d="M348 -185q0 -20 -13.5 -34.5t-34.5 -14.5t-35.5 14t-14.5 34q0 19 10 32l75 107l31 -23l-49 -69q31 -13 31 -46zM359 652h-249v-332h249q76 0 127.5 48.5t51.5 119.5t-51 117.5t-128 46.5zM359 272l229 -272h-64l-229 272h-185v-272h-50v700h309q94 0 156.5 -60.5
t62.5 -151.5t-66.5 -153.5t-162.5 -62.5z" />
    <glyph glyph-name="uni0157" unicode="&#x157;" horiz-adv-x="321" 
d="M120 -185q0 -20 -13.5 -34.5t-34.5 -14.5t-35.5 14t-14.5 34q0 19 10 32l75 107l31 -23l-49 -69q31 -13 31 -46zM60 0v500h50v-500h-50zM278 458q-70 0 -119 -42.5t-49 -102.5h-38q0 72 58 133.5t138 61.5h28v-50h-18z" />
    <glyph glyph-name="Rcaron" unicode="&#x158;" horiz-adv-x="628" 
d="M315 777l154 162l-41 30l-123 -132l-123 132l-41 -30l154 -162h20zM359 652h-249v-332h249q76 0 127.5 48.5t51.5 119.5t-51 117.5t-128 46.5zM359 272l229 -272h-64l-229 272h-185v-272h-50v700h309q94 0 156.5 -60.5t62.5 -151.5t-66.5 -153.5t-162.5 -62.5z" />
    <glyph glyph-name="rcaron" unicode="&#x159;" horiz-adv-x="321" 
d="M203 568l154 162l-41 30l-123 -132l-123 132l-41 -30l154 -162h20zM60 0v500h50v-500h-50zM278 458q-70 0 -119 -42.5t-49 -102.5h-38q0 72 58 133.5t138 61.5h28v-50h-18z" />
    <glyph glyph-name="Sacute" unicode="&#x15a;" horiz-adv-x="574" 
d="M397 935l-36 37l-162 -162l32 -33zM291 325q-123 28 -182 76.5t-59 123.5q0 81 63 134.5t159 53.5q85 0 153.5 -47t98.5 -126l-43 -21q-27 67 -82.5 105.5t-125.5 38.5q-76 0 -124.5 -38.5t-48.5 -98.5q0 -55 47 -90t150 -58q237 -52 237 -198q0 -82 -66 -136.5
t-165 -54.5q-89 0 -160.5 49.5t-102.5 133.5l45 22q28 -72 85.5 -113.5t129.5 -41.5q79 0 131.5 40.5t52.5 101.5q0 53 -46.5 88t-146.5 56z" />
    <glyph glyph-name="sacute" unicode="&#x15b;" horiz-adv-x="474" 
d="M368 726l-36 37l-162 -162l32 -33zM236 230q-93 18 -137.5 52.5t-44.5 88.5q0 61 48 101.5t120 40.5q67 0 120.5 -39t77.5 -104l-46 -20q-20 53 -60 83t-91 30t-85 -25.5t-34 -64.5q0 -34 31.5 -55.5t101.5 -35.5q197 -39 197 -151q0 -60 -53.5 -101t-127.5 -41
q-72 0 -130 36t-83 97l43 26q22 -51 66.5 -80t101.5 -29t95 26.5t38 65.5q0 72 -148 99z" />
    <glyph glyph-name="Scircumflex" unicode="&#x15c;" horiz-adv-x="574" 
d="M261 969l-154 -162l41 -30l123 132l123 -132l41 30l-154 162h-20zM291 325q-123 28 -182 76.5t-59 123.5q0 81 63 134.5t159 53.5q85 0 153.5 -47t98.5 -126l-43 -21q-27 67 -82.5 105.5t-125.5 38.5q-76 0 -124.5 -38.5t-48.5 -98.5q0 -55 47 -90t150 -58
q237 -52 237 -198q0 -82 -66 -136.5t-165 -54.5q-89 0 -160.5 49.5t-102.5 133.5l45 22q28 -72 85.5 -113.5t129.5 -41.5q79 0 131.5 40.5t52.5 101.5q0 53 -46.5 88t-146.5 56z" />
    <glyph glyph-name="scircumflex" unicode="&#x15d;" horiz-adv-x="474" 
d="M232 760l-154 -162l41 -30l123 132l123 -132l41 30l-154 162h-20zM236 230q-93 18 -137.5 52.5t-44.5 88.5q0 61 48 101.5t120 40.5q67 0 120.5 -39t77.5 -104l-46 -20q-20 53 -60 83t-91 30t-85 -25.5t-34 -64.5q0 -34 31.5 -55.5t101.5 -35.5q197 -39 197 -151
q0 -60 -53.5 -101t-127.5 -41q-72 0 -130 36t-83 97l43 26q22 -51 66.5 -80t101.5 -29t95 26.5t38 65.5q0 72 -148 99z" />
    <glyph glyph-name="Scedilla" unicode="&#x15e;" horiz-adv-x="574" 
d="M323 -66q17 17 41 17q28 0 47.5 -24.5t19.5 -58.5q0 -38 -24.5 -62.5t-63.5 -24.5q-31 0 -54 15.5t-31 42.5l38 15q8 -33 45 -33q22 0 35 13.5t13 34.5q0 18 -9.5 29.5t-23.5 11.5q-19 0 -33 -20l-40 20v110h40v-86zM291 325q-123 28 -182 76.5t-59 123.5q0 81 63 134.5
t159 53.5q85 0 153.5 -47t98.5 -126l-43 -21q-27 67 -82.5 105.5t-125.5 38.5q-76 0 -124.5 -38.5t-48.5 -98.5q0 -55 47 -90t150 -58q237 -52 237 -198q0 -82 -66 -136.5t-165 -54.5q-89 0 -160.5 49.5t-102.5 133.5l45 22q28 -72 85.5 -113.5t129.5 -41.5q79 0 131.5 40.5
t52.5 101.5q0 53 -46.5 88t-146.5 56z" />
    <glyph glyph-name="scedilla" unicode="&#x15f;" horiz-adv-x="474" 
d="M273 -66q17 17 41 17q28 0 47.5 -24.5t19.5 -58.5q0 -38 -24.5 -62.5t-63.5 -24.5q-31 0 -54 15.5t-31 42.5l38 15q8 -33 45 -33q22 0 35 13.5t13 34.5q0 18 -9.5 29.5t-23.5 11.5q-19 0 -33 -20l-40 20v110h40v-86zM236 230q-93 18 -137.5 52.5t-44.5 88.5
q0 61 48 101.5t120 40.5q67 0 120.5 -39t77.5 -104l-46 -20q-20 53 -60 83t-91 30t-85 -25.5t-34 -64.5q0 -34 31.5 -55.5t101.5 -35.5q197 -39 197 -151q0 -60 -53.5 -101t-127.5 -41q-72 0 -130 36t-83 97l43 26q22 -51 66.5 -80t101.5 -29t95 26.5t38 65.5q0 72 -148 99z
" />
    <glyph glyph-name="Scaron" unicode="&#x160;" horiz-adv-x="574" 
d="M281 777l154 162l-41 30l-123 -132l-123 132l-41 -30l154 -162h20zM291 325q-123 28 -182 76.5t-59 123.5q0 81 63 134.5t159 53.5q85 0 153.5 -47t98.5 -126l-43 -21q-27 67 -82.5 105.5t-125.5 38.5q-76 0 -124.5 -38.5t-48.5 -98.5q0 -55 47 -90t150 -58
q237 -52 237 -198q0 -82 -66 -136.5t-165 -54.5q-89 0 -160.5 49.5t-102.5 133.5l45 22q28 -72 85.5 -113.5t129.5 -41.5q79 0 131.5 40.5t52.5 101.5q0 53 -46.5 88t-146.5 56z" />
    <glyph glyph-name="scaron" unicode="&#x161;" horiz-adv-x="474" 
d="M252 568l154 162l-41 30l-123 -132l-123 132l-41 -30l154 -162h20zM236 230q-93 18 -137.5 52.5t-44.5 88.5q0 61 48 101.5t120 40.5q67 0 120.5 -39t77.5 -104l-46 -20q-20 53 -60 83t-91 30t-85 -25.5t-34 -64.5q0 -34 31.5 -55.5t101.5 -35.5q197 -39 197 -151
q0 -60 -53.5 -101t-127.5 -41q-72 0 -130 36t-83 97l43 26q22 -51 66.5 -80t101.5 -29t95 26.5t38 65.5q0 72 -148 99z" />
    <glyph glyph-name="uni0162" unicode="&#x162;" horiz-adv-x="590" 
d="M315 -66q17 17 41 17q28 0 47.5 -24.5t19.5 -58.5q0 -38 -24.5 -62.5t-63.5 -24.5q-31 0 -54 15.5t-31 42.5l38 15q8 -33 45 -33q22 0 35 13.5t13 34.5q0 18 -9.5 29.5t-23.5 11.5q-19 0 -33 -20l-40 20v110h40v-86zM560 700v-48h-240v-652h-50v652h-240v48h530z" />
    <glyph glyph-name="uni0163" unicode="&#x163;" horiz-adv-x="362" 
d="M253 -66q17 17 41 17q28 0 47.5 -24.5t19.5 -58.5q0 -38 -24.5 -62.5t-63.5 -24.5q-31 0 -54 15.5t-31 42.5l38 15q8 -33 45 -33q22 0 35 13.5t13 34.5q0 18 -9.5 29.5t-23.5 11.5q-19 0 -33 -20l-40 20v110h40v-86zM273 48h59v-48h-66q-65 0 -103 33.5t-38 90.5v329h-95
v47h95v150l50 10v-160h157v-47h-157v-318q0 -87 98 -87z" />
    <glyph glyph-name="Tcaron" unicode="&#x164;" horiz-adv-x="590" 
d="M305 780l154 162l-41 30l-123 -132l-123 132l-41 -30l154 -162h20zM560 700v-48h-240v-652h-50v652h-240v48h530z" />
    <glyph glyph-name="tcaron" unicode="&#x165;" horiz-adv-x="362" 
d="M302 799l50 -13l-59 -221l-45 11zM273 48h59v-48h-66q-65 0 -103 33.5t-38 90.5v329h-95v47h95v150l50 10v-160h157v-47h-157v-318q0 -87 98 -87z" />
    <glyph glyph-name="Tbar" unicode="&#x166;" horiz-adv-x="590" 
d="M462 380v-47h-342v47h342zM560 700v-48h-240v-652h-50v652h-240v48h530z" />
    <glyph glyph-name="tbar" unicode="&#x167;" horiz-adv-x="362" 
d="M328 300v-47h-298v47h298zM273 48h59v-48h-66q-65 0 -103 33.5t-38 90.5v329h-95v47h95v150l50 10v-160h157v-47h-157v-318q0 -87 98 -87z" />
    <glyph glyph-name="Utilde" unicode="&#x168;" horiz-adv-x="690" 
d="M271 911q-34 0 -60 -29.5t-38 -80.5l44 -18q15 79 53 79q15 0 27 -8t33 -32q42 -45 88 -45q35 0 61.5 29.5t37.5 80.5l-44 18q-16 -76 -58 -76q-15 0 -27 7.5t-33 31.5q-42 43 -84 43zM345 -11q-121 0 -203 79t-82 199v433h50v-423q0 -112 65.5 -175t169.5 -63t169.5 63
t65.5 175v423h50v-433q0 -120 -82 -199t-203 -79z" />
    <glyph glyph-name="utilde" unicode="&#x169;" horiz-adv-x="508" 
d="M182 702q-34 0 -60 -29.5t-38 -80.5l44 -18q15 79 53 79q15 0 27 -8t33 -32q42 -45 88 -45q35 0 61.5 29.5t37.5 80.5l-44 18q-16 -76 -58 -76q-15 0 -27 7.5t-33 31.5q-42 43 -84 43zM448 500v-500h-50v500h50zM110 500v-323q0 -65 37.5 -101.5t97.5 -36.5
q64 0 108.5 40.5t44.5 97.5h38q0 -76 -58 -132t-143 -56q-74 0 -124.5 50.5t-50.5 127.5v333h50z" />
    <glyph glyph-name="Umacron" unicode="&#x16a;" horiz-adv-x="690" 
d="M495 834v-47h-292v47h292zM345 -11q-121 0 -203 79t-82 199v433h50v-423q0 -112 65.5 -175t169.5 -63t169.5 63t65.5 175v423h50v-433q0 -120 -82 -199t-203 -79z" />
    <glyph glyph-name="umacron" unicode="&#x16b;" horiz-adv-x="508" 
d="M406 625v-47h-292v47h292zM448 500v-500h-50v500h50zM110 500v-323q0 -65 37.5 -101.5t97.5 -36.5q64 0 108.5 40.5t44.5 97.5h38q0 -76 -58 -132t-143 -56q-74 0 -124.5 50.5t-50.5 127.5v333h50z" />
    <glyph glyph-name="Ubreve" unicode="&#x16c;" horiz-adv-x="690" 
d="M344 788q-62 0 -106 41.5t-44 100.5h47q0 -42 29.5 -69.5t74.5 -27.5q46 0 78 28.5t32 68.5h47q0 -57 -47 -99.5t-111 -42.5zM345 -11q-121 0 -203 79t-82 199v433h50v-423q0 -112 65.5 -175t169.5 -63t169.5 63t65.5 175v423h50v-433q0 -120 -82 -199t-203 -79z" />
    <glyph glyph-name="ubreve" unicode="&#x16d;" horiz-adv-x="508" 
d="M255 579q-62 0 -106 41.5t-44 100.5h47q0 -42 29.5 -69.5t74.5 -27.5q46 0 78 28.5t32 68.5h47q0 -57 -47 -99.5t-111 -42.5zM448 500v-500h-50v500h50zM110 500v-323q0 -65 37.5 -101.5t97.5 -36.5q64 0 108.5 40.5t44.5 97.5h38q0 -76 -58 -132t-143 -56
q-74 0 -124.5 50.5t-50.5 127.5v333h50z" />
    <glyph glyph-name="Uring" unicode="&#x16e;" horiz-adv-x="690" 
d="M292 876q0 -23 15.5 -38t37.5 -15t37.5 15t15.5 38t-15.5 38t-37.5 15t-37.5 -15t-15.5 -38zM246 876q0 43 29 71t70 28t70 -28t29 -71t-29 -71t-70 -28t-70 28t-29 71zM345 -11q-121 0 -203 79t-82 199v433h50v-423q0 -112 65.5 -175t169.5 -63t169.5 63t65.5 175v423
h50v-433q0 -120 -82 -199t-203 -79z" />
    <glyph glyph-name="uring" unicode="&#x16f;" horiz-adv-x="508" 
d="M203 667q0 -23 15.5 -38t37.5 -15t37.5 15t15.5 38t-15.5 38t-37.5 15t-37.5 -15t-15.5 -38zM157 667q0 43 29 71t70 28t70 -28t29 -71t-29 -71t-70 -28t-70 28t-29 71zM448 500v-500h-50v500h50zM110 500v-323q0 -65 37.5 -101.5t97.5 -36.5q64 0 108.5 40.5t44.5 97.5
h38q0 -76 -58 -132t-143 -56q-74 0 -124.5 50.5t-50.5 127.5v333h50z" />
    <glyph glyph-name="Uhungarumlaut" unicode="&#x170;" horiz-adv-x="690" 
d="M531 935l-36 37l-162 -162l32 -33zM371 935l-36 37l-162 -162l32 -33zM345 -11q-121 0 -203 79t-82 199v433h50v-423q0 -112 65.5 -175t169.5 -63t169.5 63t65.5 175v423h50v-433q0 -120 -82 -199t-203 -79z" />
    <glyph glyph-name="uhungarumlaut" unicode="&#x171;" horiz-adv-x="508" 
d="M442 726l-36 37l-162 -162l32 -33zM282 726l-36 37l-162 -162l32 -33zM448 500v-500h-50v500h50zM110 500v-323q0 -65 37.5 -101.5t97.5 -36.5q64 0 108.5 40.5t44.5 97.5h38q0 -76 -58 -132t-143 -56q-74 0 -124.5 50.5t-50.5 127.5v333h50z" />
    <glyph glyph-name="Uogonek" unicode="&#x172;" horiz-adv-x="690" 
d="M323 -18v19h40v-39l-53 -32q-33 -22 -33 -57q0 -23 15 -37.5t38 -14.5q40 0 50 43l38 -15q-9 -32 -33 -50t-57 -18q-41 0 -67 25.5t-26 66.5q0 58 67 95zM345 -11q-121 0 -203 79t-82 199v433h50v-423q0 -112 65.5 -175t169.5 -63t169.5 63t65.5 175v423h50v-433
q0 -120 -82 -199t-203 -79z" />
    <glyph glyph-name="uogonek" unicode="&#x173;" horiz-adv-x="508" 
d="M404 -18v19h40v-39l-53 -32q-33 -22 -33 -57q0 -23 15 -37.5t38 -14.5q40 0 50 43l38 -15q-9 -32 -33 -50t-57 -18q-41 0 -67 25.5t-26 66.5q0 58 67 95zM448 500v-500h-50v500h50zM110 500v-323q0 -65 37.5 -101.5t97.5 -36.5q64 0 108.5 40.5t44.5 97.5h38
q0 -76 -58 -132t-143 -56q-74 0 -124.5 50.5t-50.5 127.5v333h50z" />
    <glyph glyph-name="Wcircumflex" unicode="&#x174;" horiz-adv-x="1021" 
d="M498 969l-154 -162l41 -30l123 132l123 -132l41 30l-154 162h-20zM933 700h56l-224 -700h-58l-197 619l-196 -619h-58l-224 700h56l197 -638l203 638h45l203 -638z" />
    <glyph glyph-name="wcircumflex" unicode="&#x175;" horiz-adv-x="785" 
d="M383 760l-154 -162l41 -30l123 132l123 -132l41 30l-154 162h-20zM697 500h56l-166 -500h-58l-137 421l-136 -421h-58l-166 500h56l139 -438l143 438h45l143 -438z" />
    <glyph glyph-name="Ycircumflex" unicode="&#x176;" horiz-adv-x="656" 
d="M325 969l-154 -162l41 -30l123 132l123 -132l41 30l-154 162h-20zM313 0h50v240l261 460h-59l-227 -402l-246 402h-60l281 -460v-240z" />
    <glyph glyph-name="ycircumflex" unicode="&#x177;" horiz-adv-x="534" 
d="M256 760l-154 -162l41 -30l123 132l123 -132l41 30l-154 162h-20zM443 500l-176 -420l-176 420h-59l203 -480l-88 -220h59l296 700h-59z" />
    <glyph glyph-name="Ydieresis" unicode="&#x178;" horiz-adv-x="656" 
d="M385 816q0 17 11 28t28 11t28 -11t11 -28t-11 -28t-28 -11t-28 11t-11 28zM205 816q0 17 11 28t28 11t28 -11t11 -28t-11 -28t-28 -11t-28 11t-11 28zM313 0h50v240l261 460h-59l-227 -402l-246 402h-60l281 -460v-240z" />
    <glyph glyph-name="Zacute" unicode="&#x179;" horiz-adv-x="628" 
d="M441 935l-36 37l-162 -162l32 -33zM588 0v47h-495l495 596v57h-548v-47h495l-495 -590v-63h548z" />
    <glyph glyph-name="zacute" unicode="&#x17a;" horiz-adv-x="482" 
d="M373 726l-36 37l-162 -162l32 -33zM442 0v47h-349l349 391v62h-402v-47h349l-349 -391v-62h402z" />
    <glyph glyph-name="Zdotaccent" unicode="&#x17b;" horiz-adv-x="628" 
d="M276 816q0 17 11 28t28 11t28 -11t11 -28t-11 -28t-28 -11t-28 11t-11 28zM588 0v47h-495l495 596v57h-548v-47h495l-495 -590v-63h548z" />
    <glyph glyph-name="zdotaccent" unicode="&#x17c;" horiz-adv-x="482" 
d="M208 607q0 17 11 28t28 11t28 -11t11 -28t-11 -28t-28 -11t-28 11t-11 28zM442 0v47h-349l349 391v62h-402v-47h349l-349 -391v-62h402z" />
    <glyph glyph-name="Zcaron" unicode="&#x17d;" horiz-adv-x="628" 
d="M325 777l154 162l-41 30l-123 -132l-123 132l-41 -30l154 -162h20zM588 0v47h-495l495 596v57h-548v-47h495l-495 -590v-63h548z" />
    <glyph glyph-name="zcaron" unicode="&#x17e;" horiz-adv-x="482" 
d="M257 568l154 162l-41 30l-123 -132l-123 132l-41 -30l154 -162h20zM442 0v47h-349l349 391v62h-402v-47h349l-349 -391v-62h402z" />
    <glyph glyph-name="Ohorn" unicode="&#x1a0;" horiz-adv-x="788" 
d="M569 618v43h60q26 0 41 13.5t15 38.5t-24 43l34 33q37 -25 37 -76q0 -40 -28 -67.5t-69 -27.5h-66zM90 353q0 -141 88 -231t216 -90t216 90t88 231q0 139 -88 228t-216 89t-216 -89t-88 -228zM40 353q0 160 102.5 263.5t251.5 103.5t251.5 -103.5t102.5 -263.5
q0 -161 -102.5 -266t-251.5 -105t-251.5 105t-102.5 266z" />
    <glyph glyph-name="ohorn" unicode="&#x1a1;" horiz-adv-x="618" 
d="M468 410v43h60q26 0 41 13.5t15 38.5t-24 43l34 33q37 -25 37 -76q0 -40 -28 -67.5t-69 -27.5h-66zM90 251q0 -96 63.5 -157.5t155.5 -61.5t155.5 61.5t63.5 157.5t-63.5 157.5t-155.5 61.5t-155.5 -61.5t-63.5 -157.5zM40 251q0 117 78 193t191 76t191 -76t78 -193
t-78 -193t-191 -76t-191 76t-78 193z" />
    <glyph glyph-name="Uhorn" unicode="&#x1af;" horiz-adv-x="690" 
d="M589 618v43h60q26 0 41 13.5t15 38.5t-24 43l34 33q37 -25 37 -76q0 -40 -28 -67.5t-69 -27.5h-66zM345 -11q-121 0 -203 79t-82 199v433h50v-423q0 -112 65.5 -175t169.5 -63t169.5 63t65.5 175v423h50v-433q0 -120 -82 -199t-203 -79z" />
    <glyph glyph-name="uhorn" unicode="&#x1b0;" horiz-adv-x="568" 
d="M418 410v43h60q26 0 41 13.5t15 38.5t-24 43l34 33q37 -25 37 -76q0 -40 -28 -67.5t-69 -27.5h-66zM448 500v-500h-50v500h50zM110 500v-323q0 -65 37.5 -101.5t97.5 -36.5q64 0 108.5 40.5t44.5 97.5h38q0 -76 -58 -132t-143 -56q-74 0 -124.5 50.5t-50.5 127.5v333h50z
" />
    <glyph glyph-name="uni0237" unicode="&#x237;" 
d="M-18 -122q37 0 57.5 24.5t20.5 62.5v535h50v-549q0 -49 -33 -85t-85 -36h-29v48h19z" />
    <glyph glyph-name="uni02BC" unicode="&#x2bc;" horiz-adv-x="137" 
d="M87 750l50 -13l-59 -221l-45 11z" />
    <glyph glyph-name="gravecomb" unicode="&#x300;" horiz-adv-x="264" 
d="M33 658l36 37l162 -162l-32 -33z" />
    <glyph glyph-name="acutecomb" unicode="&#x301;" horiz-adv-x="264" 
d="M231 658l-36 37l-162 -162l32 -33z" />
    <glyph glyph-name="uni0302" unicode="&#x302;" horiz-adv-x="388" 
d="M184 692l-154 -162l41 -30l123 132l123 -132l41 30l-154 162h-20z" />
    <glyph glyph-name="tildecomb" unicode="&#x303;" horiz-adv-x="404" 
d="M128 634q-34 0 -60 -29.5t-38 -80.5l44 -18q15 79 53 79q15 0 27 -8t33 -32q42 -45 88 -45q35 0 61.5 29.5t37.5 80.5l-44 18q-16 -76 -58 -76q-15 0 -27 7.5t-33 31.5q-42 43 -84 43z" />
    <glyph glyph-name="uni0304" unicode="&#x304;" horiz-adv-x="352" 
d="M322 557v-47h-292v47h292z" />
    <glyph glyph-name="uni0306" unicode="&#x306;" horiz-adv-x="338" 
d="M165 511q-62 0 -106 41.5t-44 100.5h47q0 -42 29.5 -69.5t74.5 -27.5q46 0 78 28.5t32 68.5h47q0 -57 -47 -99.5t-111 -42.5z" />
    <glyph glyph-name="uni0307" unicode="&#x307;" 
d="M46 539q0 17 11 28t28 11t28 -11t11 -28t-11 -28t-28 -11t-28 11t-11 28z" />
    <glyph glyph-name="uni0308" unicode="&#x308;" horiz-adv-x="390" 
d="M246 539q0 17 11 28t28 11t28 -11t11 -28t-11 -28t-28 -11t-28 11t-11 28zM66 539q0 17 11 28t28 11t28 -11t11 -28t-11 -28t-28 -11t-28 11t-11 28z" />
    <glyph glyph-name="hookabovecomb" unicode="&#x309;" horiz-adv-x="260" 
d="M127 490l-28 36l34 23q33 19 33 50q0 20 -13 32.5t-33 12.5q-37 0 -45 -36l-43 15q9 32 33 50t57 18q41 0 67 -25.5t26 -66.5q0 -30 -16 -51t-51 -44z" />
    <glyph glyph-name="uni030A" unicode="&#x30a;" horiz-adv-x="298" 
d="M96 599q0 -23 15.5 -38t37.5 -15t37.5 15t15.5 38t-15.5 38t-37.5 15t-37.5 -15t-15.5 -38zM50 599q0 43 29 71t70 28t70 -28t29 -71t-29 -71t-70 -28t-70 28t-29 71z" />
    <glyph glyph-name="uni030B" unicode="&#x30b;" horiz-adv-x="424" 
d="M391 658l-36 37l-162 -162l32 -33zM231 658l-36 37l-162 -162l32 -33z" />
    <glyph glyph-name="uni030C" unicode="&#x30c;" horiz-adv-x="388" 
d="M204 500l154 162l-41 30l-123 -132l-123 132l-41 -30l154 -162h20z" />
    <glyph glyph-name="uni0312" unicode="&#x312;" 
d="M136 549q0 -20 -13.5 -34.5t-34.5 -14.5t-35.5 14t-14.5 34q0 19 10 32l75 107l31 -23l-49 -69q31 -13 31 -46z" />
    <glyph glyph-name="uni0313" unicode="&#x313;" 
d="M56 638q0 20 13.5 34.5t34.5 14.5t35.5 -14t14.5 -34q0 -19 -10 -32l-75 -107l-31 23l49 69q-31 13 -31 46z" />
    <glyph glyph-name="uni0315" unicode="&#x315;" 
d="M119 723l50 -13l-59 -221l-45 11z" />
    <glyph glyph-name="uni031B" unicode="&#x31b;" horiz-adv-x="247" 
d="M46 482v43h60q26 0 41 13.5t15 38.5t-24 43l34 33q37 -25 37 -76q0 -40 -28 -67.5t-69 -27.5h-66z" />
    <glyph glyph-name="dotbelowcomb" unicode="&#x323;" 
d="M46 -130q0 16 11 27.5t28 11.5t28 -11.5t11 -27.5t-11 -27.5t-28 -11.5t-28 11.5t-11 27.5z" />
    <glyph glyph-name="uni0326" unicode="&#x326;" 
d="M110 -185q0 -20 -13.5 -34.5t-34.5 -14.5t-35.5 14t-14.5 34q0 19 10 32l75 107l31 -23l-49 -69q31 -13 31 -46z" />
    <glyph glyph-name="uni0327" unicode="&#x327;" horiz-adv-x="243" 
d="M95 -66q17 17 41 17q28 0 47.5 -24.5t19.5 -58.5q0 -38 -24.5 -62.5t-63.5 -24.5q-31 0 -54 15.5t-31 42.5l38 15q8 -33 45 -33q22 0 35 13.5t13 34.5q0 18 -9.5 29.5t-23.5 11.5q-19 0 -33 -20l-40 20v110h40v-86z" />
    <glyph glyph-name="uni0328" unicode="&#x328;" horiz-adv-x="247" 
d="M118 -18v19h40v-39l-53 -32q-33 -22 -33 -57q0 -23 15 -37.5t38 -14.5q40 0 50 43l38 -15q-9 -32 -33 -50t-57 -18q-41 0 -67 25.5t-26 66.5q0 58 67 95z" />
    <glyph glyph-name="uni0400" unicode="&#x400;" horiz-adv-x="550" 
d="M159 935l36 37l162 -162l-32 -33zM110 375h376v-48h-376v-279h400v-48h-450v700h450v-48h-400v-277z" />
    <glyph glyph-name="uni0401" unicode="&#x401;" horiz-adv-x="550" 
d="M335 816q0 17 11 28t28 11t28 -11t11 -28t-11 -28t-28 -11t-28 11t-11 28zM155 816q0 17 11 28t28 11t28 -11t11 -28t-11 -28t-28 -11t-28 11t-11 28zM110 375h376v-48h-376v-279h400v-48h-450v700h450v-48h-400v-277z" />
    <glyph glyph-name="uni0402" unicode="&#x402;" horiz-adv-x="720" 
d="M471 388q87 0 148 -57t61 -139t-56.5 -137t-142.5 -55h-72v48h62q68 0 113.5 41t45.5 103q0 63 -45.5 105.5t-113.5 42.5h-219v-340h-50v653h-172v47h564v-47h-342v-265h219z" />
    <glyph glyph-name="uni0403" unicode="&#x403;" horiz-adv-x="550" 
d="M411 935l-36 37l-162 -162l32 -33zM60 0h50v652h410v48h-460v-700z" />
    <glyph glyph-name="uni0404" unicode="&#x404;" horiz-adv-x="778" 
d="M542 376v-47h-482v47h482zM40 351q0 160 104 264.5t255 104.5q109 0 198.5 -57t135.5 -156l-45 -20q-40 85 -117.5 134t-171.5 49q-129 0 -219 -90t-90 -229t90 -229t219 -90q97 0 175.5 51.5t117.5 140.5l46 -19q-44 -102 -135.5 -162.5t-203.5 -60.5q-151 0 -255 104.5
t-104 264.5z" />
    <glyph glyph-name="uni0405" unicode="&#x405;" horiz-adv-x="514" 
d="M249 326q-209 51 -209 187q0 88 57.5 144t144.5 56q78 0 141 -47t91 -126l-46 -19q-24 66 -73.5 104t-111.5 38q-66 0 -109.5 -41t-43.5 -107q0 -50 40.5 -83t132.5 -54q211 -52 211 -192q0 -86 -57 -141.5t-144 -55.5q-79 0 -142 47t-91 126l46 19q24 -66 73 -104
t111 -38q66 0 110 41.5t44 106.5q0 99 -175 139z" />
    <glyph glyph-name="uni0406" unicode="&#x406;" 
d="M110 0h-50v700h50v-700z" />
    <glyph glyph-name="uni0407" unicode="&#x407;" 
d="M135 816q0 17 11 28t28 11t28 -11t11 -28t-11 -28t-28 -11t-28 11t-11 28zM-45 816q0 17 11 28t28 11t28 -11t11 -28t-11 -28t-28 -11t-28 11t-11 28zM110 0h-50v700h50v-700z" />
    <glyph glyph-name="uni0408" unicode="&#x408;" horiz-adv-x="577" 
d="M40 151l45 17q45 -129 187 -129q86 0 140.5 52.5t54.5 145.5v463h50v-473q0 -103 -70.5 -170.5t-174.5 -67.5q-85 0 -146 43t-86 119z" />
    <glyph glyph-name="uni0409" unicode="&#x409;" horiz-adv-x="1130" 
d="M54 48h-19v-48h29q83 0 135.5 56.5t52.5 134.5v461h300v-652h329q86 0 142.5 55t56.5 137t-61 139t-148 57h-269v312h-400v-495q0 -68 -38.5 -112.5t-109.5 -44.5zM602 340h269q68 0 113.5 -42.5t45.5 -105.5q0 -62 -45.5 -103t-113.5 -41h-269v292z" />
    <glyph glyph-name="uni040A" unicode="&#x40a;" horiz-adv-x="1018" 
d="M500 700h-50v-700h329q86 0 142.5 55t56.5 137t-61 139t-148 57h-269v312zM769 48h-269v292h269q68 0 113.5 -42.5t45.5 -105.5q0 -62 -45.5 -103t-113.5 -41zM460 386h-350v314h-50v-700h50v338h350v48z" />
    <glyph glyph-name="uni040B" unicode="&#x40b;" horiz-adv-x="690" 
d="M640 192v-192h-50v192q0 63 -45.5 105.5t-113.5 42.5h-179v-340h-50v653h-172v47h474v-47h-252v-265h179q87 0 148 -57t61 -139z" />
    <glyph glyph-name="uni040C" unicode="&#x40c;" horiz-adv-x="585" 
d="M421 935l-36 37l-162 -162l32 -33zM60 0v700h50v-327h37l335 327h71l-360 -352l360 -348h-71l-335 320h-37v-320h-50z" />
    <glyph glyph-name="uni040D" unicode="&#x40d;" horiz-adv-x="680" 
d="M219 935l36 37l162 -162l-32 -33zM620 0h-50v637l-447 -637h-63v700h50v-627l447 627h63v-700z" />
    <glyph glyph-name="uni040E" unicode="&#x40e;" horiz-adv-x="596" 
d="M304 788q-62 0 -106 41.5t-44 100.5h47q0 -42 29.5 -69.5t74.5 -27.5q46 0 78 28.5t32 68.5h47q0 -57 -47 -99.5t-111 -42.5zM161 0h62l341 700h-59l-187 -380l-226 380h-60l259 -432z" />
    <glyph glyph-name="uni040F" unicode="&#x40f;" horiz-adv-x="680" 
d="M620 0v700h-50v-652h-460v652h-50v-700h259v-175h50v175h251z" />
    <glyph glyph-name="uni0410" unicode="&#x410;" horiz-adv-x="750" 
d="M160 254h425v-48h-425v48zM88 0h-56l311 700h64l311 -700h-56l-287 646z" />
    <glyph glyph-name="uni0411" unicode="&#x411;" horiz-adv-x="628" 
d="M379 388q87 0 148 -57t61 -139t-56.5 -137t-142.5 -55h-329v700h442v-47h-392v-265h269zM379 48q68 0 113.5 41t45.5 103q0 63 -45.5 105.5t-113.5 42.5h-269v-292h269z" />
    <glyph glyph-name="uni0412" unicode="&#x412;" horiz-adv-x="648" 
d="M389 652h-279v-277h289q59 0 99 44t40 109q0 54 -42.5 89t-106.5 35zM399 327h-289v-279h289q64 0 106.5 37t42.5 91q0 65 -42.5 108t-106.5 43zM409 0h-349v700h339q81 0 135 -49t54 -123q0 -57 -27.5 -103t-75.5 -71q52 -25 82.5 -72t30.5 -106q0 -75 -54 -125.5
t-135 -50.5z" />
    <glyph glyph-name="uni0413" unicode="&#x413;" horiz-adv-x="550" 
d="M60 0h50v652h410v48h-460v-700z" />
    <glyph glyph-name="uni0414" unicode="&#x414;" horiz-adv-x="740" 
d="M30 48v-164h50v116h580v-116h50v164h-680zM64 48h-34l15 -37h29q83 0 135.5 53.5t52.5 126.5v461h330v-651h50v699h-430v-495q0 -68 -38.5 -112.5t-109.5 -44.5z" />
    <glyph glyph-name="uni0415" unicode="&#x415;" horiz-adv-x="550" 
d="M110 375h376v-48h-376v-279h400v-48h-450v700h450v-48h-400v-277z" />
    <glyph glyph-name="uni0416" unicode="&#x416;" horiz-adv-x="880" 
d="M415 700h50v-323h77l240 323h66l-260 -348l260 -352h-66l-240 324h-77v-324h-50v324h-77l-245 -324h-61l260 349l-260 351h61l245 -323h77v323z" />
    <glyph glyph-name="uni0417" unicode="&#x417;" horiz-adv-x="536" 
d="M59 571q29 68 85 107.5t126 39.5q88 0 147 -56t59 -139q0 -51 -24 -94.5t-67 -67.5q52 -25 81.5 -72.5t29.5 -104.5q0 -86 -64.5 -144t-160.5 -58q-77 0 -138.5 40.5t-92.5 111.5l44 23q24 -58 74 -91.5t113 -33.5q75 0 125 44t50 110q0 63 -46 106.5t-113 43.5h-81v48
h81q59 0 99 39.5t40 98.5q0 62 -45 104t-112 42q-55 0 -99 -31.5t-66 -86.5z" />
    <glyph glyph-name="uni0418" unicode="&#x418;" horiz-adv-x="680" 
d="M620 0h-50v637l-447 -637h-63v700h50v-627l447 627h63v-700z" />
    <glyph glyph-name="uni0419" unicode="&#x419;" horiz-adv-x="680" 
d="M344 788q-62 0 -106 41.5t-44 100.5h47q0 -42 29.5 -69.5t74.5 -27.5q46 0 78 28.5t32 68.5h47q0 -57 -47 -99.5t-111 -42.5zM620 0h-50v637l-447 -637h-63v700h50v-627l447 627h63v-700z" />
    <glyph glyph-name="uni041A" unicode="&#x41a;" horiz-adv-x="585" 
d="M60 0v700h50v-327h37l335 327h71l-360 -352l360 -348h-71l-335 320h-37v-320h-50z" />
    <glyph glyph-name="uni041B" unicode="&#x41b;" horiz-adv-x="662" 
d="M54 48h-19v-48h29q83 0 135.5 56.5t52.5 134.5v461h300v-652h50v700h-400v-495q0 -68 -38.5 -112.5t-109.5 -44.5z" />
    <glyph glyph-name="uni041C" unicode="&#x41c;" horiz-adv-x="836" 
d="M60 0v700h65l293 -525l293 525h65v-700h-50v622l-285 -508h-45l-286 508v-622h-50z" />
    <glyph glyph-name="uni041D" unicode="&#x41d;" horiz-adv-x="680" 
d="M60 0v700h50v-325h460v325h50v-700h-50v327h-460v-327h-50z" />
    <glyph glyph-name="uni041E" unicode="&#x41e;" horiz-adv-x="788" 
d="M90 353q0 -141 88 -231t216 -90t216 90t88 231q0 139 -88 228t-216 89t-216 -89t-88 -228zM40 353q0 160 102.5 263.5t251.5 103.5t251.5 -103.5t102.5 -263.5q0 -161 -102.5 -266t-251.5 -105t-251.5 105t-102.5 266z" />
    <glyph glyph-name="uni041F" unicode="&#x41f;" horiz-adv-x="680" 
d="M60 700v-700h50v652h460v-652h50v700h-560z" />
    <glyph glyph-name="uni0420" unicode="&#x420;" horiz-adv-x="618" 
d="M339 652h-229v-352h229q85 0 142 51t57 127q0 75 -56.5 124.5t-142.5 49.5zM339 252h-229v-252h-50v700h289q103 0 171 -63.5t68 -158.5t-72.5 -160.5t-176.5 -65.5z" />
    <glyph glyph-name="uni0421" unicode="&#x421;" horiz-adv-x="778" 
d="M40 351q0 160 104 264.5t255 104.5q109 0 198.5 -57t135.5 -156l-45 -20q-40 85 -117.5 134t-171.5 49q-129 0 -219 -90t-90 -229t90 -229t219 -90q97 0 175.5 51.5t117.5 140.5l46 -19q-44 -102 -135.5 -162.5t-203.5 -60.5q-151 0 -255 104.5t-104 264.5z" />
    <glyph glyph-name="uni0422" unicode="&#x422;" horiz-adv-x="590" 
d="M560 700v-48h-240v-652h-50v652h-240v48h530z" />
    <glyph glyph-name="uni0423" unicode="&#x423;" horiz-adv-x="596" 
d="M161 0h62l341 700h-59l-187 -380l-226 380h-60l259 -432z" />
    <glyph glyph-name="uni0424" unicode="&#x424;" horiz-adv-x="788" 
d="M368 0v750h50v-750h-50zM90 385q0 -99 82.5 -160t221.5 -61t221.5 61t82.5 160q0 97 -82.5 157t-221.5 60t-221.5 -60t-82.5 -157zM40 385q0 119 97 193t257 74t257 -74t97 -193q0 -120 -97 -195.5t-257 -75.5t-257 75.5t-97 195.5z" />
    <glyph glyph-name="uni0425" unicode="&#x425;" horiz-adv-x="696" 
d="M664 0h-64l-252 305l-251 -305h-65l281 344l-281 356h65l251 -317l252 317h64l-281 -356z" />
    <glyph glyph-name="uni0426" unicode="&#x426;" horiz-adv-x="700" 
d="M580 48v652h-50v-652h-420v652h-50v-700h560v-116h50v164h-90z" />
    <glyph glyph-name="uni0427" unicode="&#x427;" horiz-adv-x="628" 
d="M568 700v-700h-50v700h50zM110 700v-233q0 -97 54.5 -152.5t140.5 -55.5q88 0 150.5 55t62.5 133h38q0 -96 -75.5 -167t-185.5 -71q-99 0 -167 70t-68 178v243h50z" />
    <glyph glyph-name="uni0428" unicode="&#x428;" horiz-adv-x="940" 
d="M880 0v700h-50v-652h-333v652h-50v-652h-337v652h-50v-700h820z" />
    <glyph glyph-name="uni0429" unicode="&#x429;" horiz-adv-x="1000" 
d="M880 48v652h-50v-652h-333v652h-50v-652h-337v652h-50v-700h860v-116h50v164h-90z" />
    <glyph glyph-name="uni042A" unicode="&#x42a;" horiz-adv-x="760" 
d="M511 48q68 0 113.5 41t45.5 103q0 63 -45.5 105.5t-113.5 42.5h-239v-292h239zM272 700v-312h239q87 0 148 -57t61 -139t-56.5 -137t-142.5 -55h-299v653h-192v47h242z" />
    <glyph glyph-name="uni042B" unicode="&#x42b;" horiz-adv-x="742" 
d="M682 0h-50v700h50v-700zM110 700v-312h219q87 0 148 -57t61 -139t-56.5 -137t-142.5 -55h-279v700h50zM329 48q68 0 113.5 41t45.5 103q0 63 -45.5 105.5t-113.5 42.5h-219v-292h219z" />
    <glyph glyph-name="uni042C" unicode="&#x42c;" horiz-adv-x="628" 
d="M110 700v-312h269q87 0 148 -57t61 -139t-56.5 -137t-142.5 -55h-329v700h50zM379 48q68 0 113.5 41t45.5 103q0 63 -45.5 105.5t-113.5 42.5h-269v-292h269z" />
    <glyph glyph-name="uni042D" unicode="&#x42d;" horiz-adv-x="778" 
d="M236 326v47h482v-47h-482zM738 351q0 -160 -104 -264.5t-255 -104.5q-109 0 -198.5 57t-135.5 156l45 20q40 -85 117.5 -134t171.5 -49q129 0 219 90t90 229t-90 229t-219 90q-97 0 -175.5 -51.5t-117.5 -140.5l-46 19q44 102 135.5 162.5t203.5 60.5q151 0 255 -104.5
t104 -264.5z" />
    <glyph glyph-name="uni042E" unicode="&#x42e;" horiz-adv-x="1078" 
d="M380 353q0 139 88 228t216 89t216 -89t88 -228q0 -141 -88 -231t-216 -90t-216 90t-88 231zM330 353q0 -161 102.5 -266t251.5 -105t251.5 105t102.5 266q0 160 -102.5 263.5t-251.5 103.5t-251.5 -103.5t-102.5 -263.5zM360 375h-250v325h-50v-700h50v327h250v48z" />
    <glyph glyph-name="uni042F" unicode="&#x42f;" horiz-adv-x="628" 
d="M289 652q-77 0 -128 -46.5t-51 -117.5t51.5 -119.5t127.5 -48.5h249v332h-249zM289 272q-96 0 -162.5 62.5t-66.5 153.5t62.5 151.5t156.5 60.5h309v-700h-50v272h-185l-229 -272h-64z" />
    <glyph glyph-name="uni0430" unicode="&#x430;" horiz-adv-x="487" 
d="M377 246l-163 -19q-124 -15 -124 -94q0 -43 35 -69t91 -26q73 0 117 45t44 120h35q0 -91 -58.5 -152.5t-145.5 -61.5q-73 0 -120.5 40.5t-47.5 105.5q0 58 43 94.5t121 45.5l173 19v29q0 55 -40.5 96.5t-99.5 41.5q-53 0 -93 -29t-51 -75l-47 13q18 63 69.5 102t117.5 39
q79 0 136.5 -52.5t57.5 -125.5v-333h-50v246z" />
    <glyph glyph-name="uni0431" unicode="&#x431;" horiz-adv-x="610" 
d="M542 731q-29 -30 -75 -44t-123 -25q-112 -16 -178.5 -96t-75.5 -217q32 60 94.5 95.5t136.5 35.5q106 0 177.5 -71.5t71.5 -177.5q0 -107 -73 -178t-183 -71q-75 0 -137 34t-95 96q-42 80 -42 202q0 339 297 393q7 1 24 4t23.5 4.5t21.5 4.5t22 5t19 5t19 6.5l16 8
t15.5 9.5t12.5 11zM100 238q0 -86 63.5 -146t154.5 -60q87 0 144.5 57t57.5 143t-58.5 142t-149.5 56t-151.5 -55t-60.5 -137z" />
    <glyph glyph-name="uni0432" unicode="&#x432;" horiz-adv-x="538" 
d="M329 452h-219v-175h229q42 0 70.5 23.5t28.5 57.5q0 41 -31 67.5t-78 26.5zM339 229h-229v-181h229q46 0 77.5 25.5t31.5 62.5q0 40 -31 66.5t-78 26.5zM349 0h-289v500h279q64 0 106.5 -40.5t42.5 -101.5q0 -70 -66 -102q35 -17 55.5 -48.5t20.5 -71.5q0 -58 -42.5 -97
t-106.5 -39z" />
    <glyph glyph-name="uni0433" unicode="&#x433;" horiz-adv-x="420" 
d="M60 0h50v452h270v48h-320v-500z" />
    <glyph glyph-name="uni0434" unicode="&#x434;" horiz-adv-x="582" 
d="M30 48v-164h50v116h422v-116h50v164h-522zM54 48h-19v-48h29q61 0 99.5 42t38.5 99v311h230v-452h50v500h-330v-345q0 -47 -25.5 -77t-72.5 -30z" />
    <glyph glyph-name="uni0435" unicode="&#x435;" horiz-adv-x="598" 
d="M508 275q-5 86 -64.5 140.5t-144.5 54.5q-82 0 -141 -54t-67 -141h417zM91 228q8 -87 68.5 -141.5t144.5 -54.5q63 0 114.5 31t77.5 86l46 -19q-32 -68 -96 -108t-142 -40q-111 0 -187.5 76t-76.5 193t75.5 193t183.5 76t183.5 -73.5t75.5 -185.5q0 -11 -2 -33h-465z" />
    <glyph glyph-name="uni0436" unicode="&#x436;" horiz-adv-x="724" 
d="M337 500h50v-225h50l188 225h64l-210 -250l210 -250h-64l-188 222h-50v-222h-50v225h-50l-188 -225h-64l210 250l-210 250h64l188 -222h50v222z" />
    <glyph glyph-name="uni0437" unicode="&#x437;" horiz-adv-x="466" 
d="M59 401q24 54 72.5 85.5t108.5 31.5q75 0 125.5 -44.5t50.5 -110.5q0 -36 -18.5 -65.5t-50.5 -46.5q37 -18 58 -52t21 -75q0 -61 -53 -101.5t-132 -40.5q-67 0 -120.5 32.5t-80.5 89.5l44 23q20 -44 62 -69.5t95 -25.5q58 0 96.5 27t38.5 67q0 42 -34 71t-83 29h-81v48
h81q45 0 76 25t31 63q0 45 -36.5 75.5t-90.5 30.5q-45 0 -81 -23.5t-54 -64.5z" />
    <glyph glyph-name="uni0438" unicode="&#x438;" horiz-adv-x="540" 
d="M480 0h-50v437l-307 -437h-63v500h50v-427l307 427h63v-500z" />
    <glyph glyph-name="uni0439" unicode="&#x439;" horiz-adv-x="540" 
d="M272 579q-62 0 -106 41.5t-44 100.5h47q0 -42 29.5 -69.5t74.5 -27.5q46 0 78 28.5t32 68.5h47q0 -57 -47 -99.5t-111 -42.5zM480 0h-50v437l-307 -437h-63v500h50v-427l307 427h63v-500z" />
    <glyph glyph-name="uni043A" unicode="&#x43a;" horiz-adv-x="464" 
d="M60 0v500h50v-225h27l228 225h67l-250 -250l250 -250h-67l-228 222h-27v-222h-50z" />
    <glyph glyph-name="uni043B" unicode="&#x43b;" horiz-adv-x="542" 
d="M54 48h-19v-48h29q61 0 99.5 42t38.5 99v311h230v-452h50v500h-330v-345q0 -47 -25.5 -77t-72.5 -30z" />
    <glyph glyph-name="uni043C" unicode="&#x43c;" horiz-adv-x="676" 
d="M60 0v500h65l213 -365l213 365h65v-500h-50v422l-205 -348h-45l-206 348v-422h-50z" />
    <glyph glyph-name="uni043D" unicode="&#x43d;" horiz-adv-x="580" 
d="M60 0v500h50v-225h360v225h50v-500h-50v227h-360v-227h-50z" />
    <glyph glyph-name="uni043E" unicode="&#x43e;" horiz-adv-x="618" 
d="M90 251q0 -96 63.5 -157.5t155.5 -61.5t155.5 61.5t63.5 157.5t-63.5 157.5t-155.5 61.5t-155.5 -61.5t-63.5 -157.5zM40 251q0 117 78 193t191 76t191 -76t78 -193t-78 -193t-191 -76t-191 76t-78 193z" />
    <glyph glyph-name="uni043F" unicode="&#x43f;" horiz-adv-x="530" 
d="M470 500v-500h-50v452h-310v-452h-50v500h410z" />
    <glyph glyph-name="uni0440" unicode="&#x440;" horiz-adv-x="638" 
d="M60 500h50v-700h-50v700zM110 249q0 -96 63.5 -157.5t155.5 -61.5t155.5 61.5t63.5 157.5t-63.5 157.5t-155.5 61.5t-155.5 -61.5t-63.5 -157.5zM77 249q0 117 74.5 193t181.5 76q111 0 188 -76t77 -193t-77 -193t-188 -76q-107 0 -181.5 76t-74.5 193z" />
    <glyph glyph-name="uni0441" unicode="&#x441;" horiz-adv-x="584" 
d="M90 251q0 -96 62 -157.5t152 -61.5q63 0 114.5 31t77.5 86l46 -19q-32 -68 -96 -108t-142 -40q-111 0 -187.5 76t-76.5 193t76.5 193t187.5 76q79 0 143.5 -41t96.5 -112l-46 -19q-25 57 -77 89.5t-117 32.5q-90 0 -152 -61.5t-62 -157.5z" />
    <glyph glyph-name="uni0442" unicode="&#x442;" horiz-adv-x="470" 
d="M440 500v-48h-180v-452h-50v452h-180v48h410z" />
    <glyph glyph-name="uni0443" unicode="&#x443;" horiz-adv-x="534" 
d="M443 500l-176 -420l-176 420h-59l203 -480l-88 -220h59l296 700h-59z" />
    <glyph glyph-name="uni0444" unicode="&#x444;" horiz-adv-x="618" 
d="M282 -190v870h50v-870h-50zM90 251q0 -96 63.5 -157.5t155.5 -61.5t155.5 61.5t63.5 157.5t-63.5 157.5t-155.5 61.5t-155.5 -61.5t-63.5 -157.5zM40 251q0 117 78 193t191 76t191 -76t78 -193t-78 -193t-191 -76t-191 76t-78 193z" />
    <glyph glyph-name="uni0445" unicode="&#x445;" horiz-adv-x="534" 
d="M502 0h-64l-171 211l-170 -211h-65l200 250l-200 250h65l170 -211l171 211h64l-200 -250z" />
    <glyph glyph-name="uni0446" unicode="&#x446;" horiz-adv-x="592" 
d="M60 0v500h50v-452h340v452h50v-452h62v-164h-50v116h-452z" />
    <glyph glyph-name="uni0447" unicode="&#x447;" horiz-adv-x="508" 
d="M448 500v-500h-50v500h50zM110 500v-173q0 -65 37.5 -101.5t97.5 -36.5q64 0 108.5 40.5t44.5 97.5h38q0 -76 -58 -132t-143 -56q-74 0 -124.5 50.5t-50.5 127.5v183h50z" />
    <glyph glyph-name="uni0448" unicode="&#x448;" horiz-adv-x="830" 
d="M770 0v500h-50v-452h-280v452h-50v-452h-280v452h-50v-500h710z" />
    <glyph glyph-name="uni0449" unicode="&#x449;" horiz-adv-x="872" 
d="M770 48v452h-50v-452h-280v452h-50v-452h-280v452h-50v-500h732v-116h50v164h-72z" />
    <glyph glyph-name="uni044A" unicode="&#x44a;" horiz-adv-x="660" 
d="M471 277q64 0 106.5 -41t42.5 -100q0 -58 -42.5 -97t-106.5 -39h-259v453h-172v47h222v-223h209zM461 229h-199v-181h199q46 0 77.5 25.5t31.5 62.5q0 40 -31 66.5t-78 26.5z" />
    <glyph glyph-name="uni044B" unicode="&#x44b;" horiz-adv-x="698" 
d="M588 0v500h50v-500h-50zM339 229h-229v-181h229q46 0 77.5 25.5t31.5 62.5q0 40 -31 66.5t-78 26.5zM349 277q64 0 106.5 -41t42.5 -100q0 -58 -42.5 -97t-106.5 -39h-289v500h50v-223h239z" />
    <glyph glyph-name="uni044C" unicode="&#x44c;" horiz-adv-x="538" 
d="M339 229h-229v-181h229q46 0 77.5 25.5t31.5 62.5q0 40 -31 66.5t-78 26.5zM349 277q64 0 106.5 -41t42.5 -100q0 -58 -42.5 -97t-106.5 -39h-289v500h50v-223h239z" />
    <glyph glyph-name="uni044D" unicode="&#x44d;" horiz-adv-x="584" 
d="M194 226v47h322v-47h-322zM494 251q0 96 -62 157.5t-152 61.5q-63 0 -114.5 -31t-77.5 -86l-46 19q32 68 96 108t142 40q111 0 187.5 -76t76.5 -193t-76.5 -193t-187.5 -76q-79 0 -143.5 41t-96.5 112l46 19q25 -57 77 -89.5t117 -32.5q90 0 152 61.5t62 157.5z" />
    <glyph glyph-name="uni044E" unicode="&#x44e;" horiz-adv-x="868" 
d="M340 251q0 96 63.5 157.5t155.5 61.5t155.5 -61.5t63.5 -157.5t-63.5 -157.5t-155.5 -61.5t-155.5 61.5t-63.5 157.5zM290 251q0 -117 78 -193t191 -76t191 76t78 193t-78 193t-191 76t-191 -76t-78 -193zM310 275h-200v225h-50v-500h50v227h200v48z" />
    <glyph glyph-name="uni044F" unicode="&#x44f;" horiz-adv-x="538" 
d="M214 241h214v211h-214q-53 0 -88.5 -29.5t-35.5 -73.5q0 -47 35.5 -77.5t88.5 -30.5zM270 193l-161 -193h-69l164 193q-70 0 -117 45.5t-47 110.5q0 64 47 107.5t117 43.5h274v-500h-50v193h-158z" />
    <glyph glyph-name="uni0450" unicode="&#x450;" horiz-adv-x="598" 
d="M175 726l36 37l162 -162l-32 -33zM508 275q-5 86 -64.5 140.5t-144.5 54.5q-82 0 -141 -54t-67 -141h417zM91 228q8 -87 68.5 -141.5t144.5 -54.5q63 0 114.5 31t77.5 86l46 -19q-32 -68 -96 -108t-142 -40q-111 0 -187.5 76t-76.5 193t75.5 193t183.5 76t183.5 -73.5
t75.5 -185.5q0 -11 -2 -33h-465z" />
    <glyph glyph-name="uni0451" unicode="&#x451;" horiz-adv-x="598" 
d="M351 607q0 17 11 28t28 11t28 -11t11 -28t-11 -28t-28 -11t-28 11t-11 28zM171 607q0 17 11 28t28 11t28 -11t11 -28t-11 -28t-28 -11t-28 11t-11 28zM508 275q-5 86 -64.5 140.5t-144.5 54.5q-82 0 -141 -54t-67 -141h417zM91 228q8 -87 68.5 -141.5t144.5 -54.5
q63 0 114.5 31t77.5 86l46 -19q-32 -68 -96 -108t-142 -40q-111 0 -187.5 76t-76.5 193t75.5 193t183.5 76t183.5 -73.5t75.5 -185.5q0 -11 -2 -33h-465z" />
    <glyph glyph-name="uni0452" unicode="&#x452;" horiz-adv-x="528" 
d="M60 0v616h-60v47h60v87h50v-87h272v-47h-272v-616h-50zM418 0v303q0 74 -40.5 116t-104.5 42q-67 0 -115 -46.5t-48 -111.5h-38q0 84 61 146t150 62q78 0 131.5 -56t53.5 -142v-327q0 -58 -38.5 -99.5t-99.5 -41.5h-79v48h69q47 0 72.5 30t25.5 77z" />
    <glyph glyph-name="uni0453" unicode="&#x453;" horiz-adv-x="420" 
d="M349 726l-36 37l-162 -162l32 -33zM60 0h50v452h270v48h-320v-500z" />
    <glyph glyph-name="uni0454" unicode="&#x454;" horiz-adv-x="584" 
d="M390 276v-47h-322v47h322zM90 251q0 -96 62 -157.5t152 -61.5q63 0 114.5 31t77.5 86l46 -19q-32 -68 -96 -108t-142 -40q-111 0 -187.5 76t-76.5 193t76.5 193t187.5 76q79 0 143.5 -41t96.5 -112l-46 -19q-25 57 -77 89.5t-117 32.5q-90 0 -152 -61.5t-62 -157.5z" />
    <glyph glyph-name="uni0455" unicode="&#x455;" horiz-adv-x="434" 
d="M208 231q-164 34 -164 141q0 60 45.5 100.5t113.5 40.5q62 0 113 -36t74 -97l-46 -19q-18 47 -55.5 74.5t-84.5 27.5t-78.5 -25.5t-31.5 -63.5q0 -35 29.5 -57t95.5 -36q175 -37 175 -150q0 -61 -46.5 -101.5t-116.5 -40.5q-63 0 -115.5 36t-75.5 97l46 19
q19 -47 57 -74.5t87 -27.5t81.5 26t32.5 65q0 38 -33 62.5t-103 38.5z" />
    <glyph glyph-name="uni0456" unicode="&#x456;" 
d="M46 631q0 17 11 28t28 11t28 -11t11 -28t-11 -28t-28 -11t-28 11t-11 28zM60 0v500h50v-500h-50z" />
    <glyph glyph-name="uni0457" unicode="&#x457;" 
d="M135 607q0 17 11 28t28 11t28 -11t11 -28t-11 -28t-28 -11t-28 11t-11 28zM-45 607q0 17 11 28t28 11t28 -11t11 -28t-11 -28t-28 -11t-28 11t-11 28zM60 0v500h50v-500h-50z" />
    <glyph glyph-name="uni0458" unicode="&#x458;" 
d="M46 631q0 17 11 28t28 11t28 -11t11 -28t-11 -28t-28 -11t-28 11t-11 28zM-18 -122q37 0 57.5 24.5t20.5 62.5v535h50v-549q0 -49 -33 -85t-85 -36h-29v48h19z" />
    <glyph glyph-name="uni0459" unicode="&#x459;" horiz-adv-x="920" 
d="M54 48h-19v-48h29q61 0 99.5 42t38.5 99v311h230v-452h289q64 0 106.5 39t42.5 97q0 59 -42.5 100t-106.5 41h-239v223h-330v-345q0 -47 -25.5 -77t-72.5 -30zM711 229q47 0 78 -26.5t31 -66.5q0 -37 -31.5 -62.5t-77.5 -25.5h-229v181h229z" />
    <glyph glyph-name="uni045A" unicode="&#x45a;" horiz-adv-x="808" 
d="M599 229q47 0 78 -26.5t31 -66.5q0 -37 -31.5 -62.5t-77.5 -25.5h-199v181h199zM609 277h-209v223h-50v-500h259q64 0 106.5 39t42.5 97q0 59 -42.5 100t-106.5 41zM360 277h-250v223h-50v-500h50v229h250v48z" />
    <glyph glyph-name="uni045B" unicode="&#x45b;" horiz-adv-x="528" 
d="M60 0v616h-60v47h60v87h50v-87h272v-47h-272v-616h-50zM418 0v303q0 74 -40.5 116t-104.5 42q-67 0 -115 -46.5t-48 -111.5h-38q0 84 61 146t150 62q78 0 131.5 -56t53.5 -142v-313h-50z" />
    <glyph glyph-name="uni045C" unicode="&#x45c;" horiz-adv-x="464" 
d="M359 726l-36 37l-162 -162l32 -33zM60 0v500h50v-225h27l228 225h67l-250 -250l250 -250h-67l-228 222h-27v-222h-50z" />
    <glyph glyph-name="uni045D" unicode="&#x45d;" horiz-adv-x="540" 
d="M147 726l36 37l162 -162l-32 -33zM480 0h-50v437l-307 -437h-63v500h50v-427l307 427h63v-500z" />
    <glyph glyph-name="uni045E" unicode="&#x45e;" horiz-adv-x="534" 
d="M265 579q-62 0 -106 41.5t-44 100.5h47q0 -42 29.5 -69.5t74.5 -27.5q46 0 78 28.5t32 68.5h47q0 -57 -47 -99.5t-111 -42.5zM443 500l-176 -420l-176 420h-59l203 -480l-88 -220h59l296 700h-59z" />
    <glyph glyph-name="uni045F" unicode="&#x45f;" horiz-adv-x="530" 
d="M60 0v500h50v-452h310v452h50v-500h-175v-165h-50v165h-185z" />
    <glyph glyph-name="uni1EA0" unicode="&#x1ea0;" horiz-adv-x="750" 
d="M345 -130q0 16 11 27.5t28 11.5t28 -11.5t11 -27.5t-11 -27.5t-28 -11.5t-28 11.5t-11 27.5zM160 254h425v-48h-425v48zM88 0h-56l311 700h64l311 -700h-56l-287 646z" />
    <glyph glyph-name="uni1EA1" unicode="&#x1ea1;" horiz-adv-x="487" 
d="M205 -130q0 16 11 27.5t28 11.5t28 -11.5t11 -27.5t-11 -27.5t-28 -11.5t-28 11.5t-11 27.5zM377 246l-163 -19q-124 -14 -124 -94q0 -43 35 -69t91 -26q73 0 117 45t44 120h35q0 -91 -58.5 -152.5t-145.5 -61.5q-73 0 -120.5 40.5t-47.5 105.5q0 58 43 94.5t121 45.5
l173 19v29q0 55 -41.5 96.5t-103.5 41.5q-55 0 -96 -29t-53 -75l-47 13q19 63 72 102t120 39q81 0 140 -52.5t59 -125.5v-333h-50v246z" />
    <glyph glyph-name="uni1EA2" unicode="&#x1ea2;" horiz-adv-x="750" 
d="M375 767l-28 36l34 23q33 19 33 50q0 20 -13 32.5t-33 12.5q-37 0 -45 -36l-43 15q9 32 33 50t57 18q41 0 67 -25.5t26 -66.5q0 -30 -16 -51t-51 -44zM160 254h425v-48h-425v48zM88 0h-56l311 700h64l311 -700h-56l-287 646z" />
    <glyph glyph-name="uni1EA3" unicode="&#x1ea3;" horiz-adv-x="487" 
d="M233 558l-28 36l34 23q33 19 33 50q0 20 -13 32.5t-33 12.5q-37 0 -45 -36l-43 15q9 32 33 50t57 18q41 0 67 -25.5t26 -66.5q0 -30 -16 -51t-51 -44zM377 246l-163 -19q-124 -14 -124 -94q0 -43 35 -69t91 -26q73 0 117 45t44 120h35q0 -91 -58.5 -152.5t-145.5 -61.5
q-73 0 -120.5 40.5t-47.5 105.5q0 58 43 94.5t121 45.5l173 19v29q0 55 -41.5 96.5t-103.5 41.5q-55 0 -96 -29t-53 -75l-47 13q19 63 72 102t120 39q81 0 140 -52.5t59 -125.5v-333h-50v246z" />
    <glyph glyph-name="uni1EA4" unicode="&#x1ea4;" horiz-adv-x="750" 
d="M684 1108l-36 37l-162 -162l32 -33zM365 969l-154 -162l41 -30l123 132l123 -132l41 30l-154 162h-20zM160 254h425v-48h-425v48zM88 0h-56l311 700h64l311 -700h-56l-287 646z" />
    <glyph glyph-name="uni1EA5" unicode="&#x1ea5;" horiz-adv-x="487" 
d="M543 864l-36 37l-162 -162l32 -33zM223 760l-154 -162l41 -30l123 132l123 -132l41 30l-154 162h-20zM377 246l-163 -19q-124 -14 -124 -94q0 -43 35 -69t91 -26q73 0 117 45t44 120h35q0 -91 -58.5 -152.5t-145.5 -61.5q-73 0 -120.5 40.5t-47.5 105.5q0 58 43 94.5
t121 45.5l173 19v29q0 55 -41.5 96.5t-103.5 41.5q-55 0 -96 -29t-53 -75l-47 13q19 63 72 102t120 39q81 0 140 -52.5t59 -125.5v-333h-50v246z" />
    <glyph glyph-name="uni1EA6" unicode="&#x1ea6;" horiz-adv-x="750" 
d="M432 1108l36 37l162 -162l-32 -33zM365 969l-154 -162l41 -30l123 132l123 -132l41 30l-154 162h-20zM160 254h425v-48h-425v48zM88 0h-56l311 700h64l311 -700h-56l-287 646z" />
    <glyph glyph-name="uni1EA7" unicode="&#x1ea7;" horiz-adv-x="487" 
d="M291 864l36 37l162 -162l-32 -33zM223 760l-154 -162l41 -30l123 132l123 -132l41 30l-154 162h-20zM377 246l-163 -19q-124 -14 -124 -94q0 -43 35 -69t91 -26q73 0 117 45t44 120h35q0 -91 -58.5 -152.5t-145.5 -61.5q-73 0 -120.5 40.5t-47.5 105.5q0 58 43 94.5
t121 45.5l173 19v29q0 55 -41.5 96.5t-103.5 41.5q-55 0 -96 -29t-53 -75l-47 13q19 63 72 102t120 39q81 0 140 -52.5t59 -125.5v-333h-50v246z" />
    <glyph glyph-name="uni1EA8" unicode="&#x1ea8;" horiz-adv-x="750" 
d="M558 940l-28 36l34 23q33 19 33 50q0 20 -13 32.5t-33 12.5q-37 0 -45 -36l-43 15q9 32 33 50t57 18q41 0 67 -25.5t26 -66.5q0 -30 -16 -51t-51 -44zM365 969l-154 -162l41 -30l123 132l123 -132l41 30l-154 162h-20zM160 254h425v-48h-425v48zM88 0h-56l311 700h64
l311 -700h-56l-287 646z" />
    <glyph glyph-name="uni1EA9" unicode="&#x1ea9;" horiz-adv-x="487" 
d="M417 696l-28 36l34 23q33 19 33 50q0 20 -13 32.5t-33 12.5q-37 0 -45 -36l-43 15q9 32 33 50t57 18q41 0 67 -25.5t26 -66.5q0 -30 -16 -51t-51 -44zM223 760l-154 -162l41 -30l123 132l123 -132l41 30l-154 162h-20zM377 246l-163 -19q-124 -14 -124 -94q0 -43 35 -69
t91 -26q73 0 117 45t44 120h35q0 -91 -58.5 -152.5t-145.5 -61.5q-73 0 -120.5 40.5t-47.5 105.5q0 58 43 94.5t121 45.5l173 19v29q0 55 -41.5 96.5t-103.5 41.5q-55 0 -96 -29t-53 -75l-47 13q19 63 72 102t120 39q81 0 140 -52.5t59 -125.5v-333h-50v246z" />
    <glyph glyph-name="uni1EAA" unicode="&#x1eaa;" horiz-adv-x="750" 
d="M301 1161q-34 0 -60 -29.5t-38 -80.5l44 -18q15 79 53 79q15 0 27 -8t33 -32q42 -45 88 -45q35 0 61.5 29.5t37.5 80.5l-44 18q-16 -76 -58 -76q-15 0 -27 7.5t-33 31.5q-42 43 -84 43zM365 969l-154 -162l41 -30l123 132l123 -132l41 30l-154 162h-20zM160 254h425v-48
h-425v48zM88 0h-56l311 700h64l311 -700h-56l-287 646z" />
    <glyph glyph-name="uni1EAB" unicode="&#x1eab;" horiz-adv-x="487" 
d="M159 962q-34 0 -60 -29.5t-38 -80.5l44 -18q15 79 53 79q15 0 27 -8t33 -32q42 -45 88 -45q35 0 61.5 29.5t37.5 80.5l-44 18q-16 -76 -58 -76q-15 0 -27 7.5t-33 31.5q-42 43 -84 43zM223 760l-154 -162l41 -30l123 132l123 -132l41 30l-154 162h-20zM377 246l-163 -19
q-124 -14 -124 -94q0 -43 35 -69t91 -26q73 0 117 45t44 120h35q0 -91 -58.5 -152.5t-145.5 -61.5q-73 0 -120.5 40.5t-47.5 105.5q0 58 43 94.5t121 45.5l173 19v29q0 55 -41.5 96.5t-103.5 41.5q-55 0 -96 -29t-53 -75l-47 13q19 63 72 102t120 39q81 0 140 -52.5
t59 -125.5v-333h-50v246z" />
    <glyph glyph-name="uni1EAC" unicode="&#x1eac;" horiz-adv-x="750" 
d="M365 972l-154 -162l41 -30l123 132l123 -132l41 30l-154 162h-20zM345 -130q0 16 11 27.5t28 11.5t28 -11.5t11 -27.5t-11 -27.5t-28 -11.5t-28 11.5t-11 27.5zM160 254h425v-48h-425v48zM88 0h-56l311 700h64l311 -700h-56l-287 646z" />
    <glyph glyph-name="uni1EAD" unicode="&#x1ead;" horiz-adv-x="487" 
d="M223 772l-154 -162l41 -30l123 132l123 -132l41 30l-154 162h-20zM205 -130q0 16 11 27.5t28 11.5t28 -11.5t11 -27.5t-11 -27.5t-28 -11.5t-28 11.5t-11 27.5zM377 246l-163 -19q-124 -14 -124 -94q0 -43 35 -69t91 -26q73 0 117 45t44 120h35q0 -91 -58.5 -152.5
t-145.5 -61.5q-73 0 -120.5 40.5t-47.5 105.5q0 58 43 94.5t121 45.5l173 19v29q0 55 -41.5 96.5t-103.5 41.5q-55 0 -96 -29t-53 -75l-47 13q19 63 72 102t120 39q81 0 140 -52.5t59 -125.5v-333h-50v246z" />
    <glyph glyph-name="uni1EAE" unicode="&#x1eae;" horiz-adv-x="750" 
d="M501 1155l-36 37l-162 -162l32 -33zM374 788q-62 0 -106 41.5t-44 100.5h47q0 -42 29.5 -69.5t74.5 -27.5q46 0 78 28.5t32 68.5h47q0 -57 -47 -99.5t-111 -42.5zM160 254h425v-48h-425v48zM88 0h-56l311 700h64l311 -700h-56l-287 646z" />
    <glyph glyph-name="uni1EAF" unicode="&#x1eaf;" horiz-adv-x="487" 
d="M359 926l-36 37l-162 -162l32 -33zM232 579q-62 0 -106 41.5t-44 100.5h47q0 -42 29.5 -69.5t74.5 -27.5q46 0 78 28.5t32 68.5h47q0 -57 -47 -99.5t-111 -42.5zM377 246l-163 -19q-124 -14 -124 -94q0 -43 35 -69t91 -26q73 0 117 45t44 120h35q0 -91 -58.5 -152.5
t-145.5 -61.5q-73 0 -120.5 40.5t-47.5 105.5q0 58 43 94.5t121 45.5l173 19v29q0 55 -41.5 96.5t-103.5 41.5q-55 0 -96 -29t-53 -75l-47 13q19 63 72 102t120 39q81 0 140 -52.5t59 -125.5v-333h-50v246z" />
    <glyph glyph-name="uni1EB0" unicode="&#x1eb0;" horiz-adv-x="750" 
d="M249 1155l36 37l162 -162l-32 -33zM374 788q-62 0 -106 41.5t-44 100.5h47q0 -42 29.5 -69.5t74.5 -27.5q46 0 78 28.5t32 68.5h47q0 -57 -47 -99.5t-111 -42.5zM160 254h425v-48h-425v48zM88 0h-56l311 700h64l311 -700h-56l-287 646z" />
    <glyph glyph-name="uni1EB1" unicode="&#x1eb1;" horiz-adv-x="487" 
d="M107 926l36 37l162 -162l-32 -33zM232 579q-62 0 -106 41.5t-44 100.5h47q0 -42 29.5 -69.5t74.5 -27.5q46 0 78 28.5t32 68.5h47q0 -57 -47 -99.5t-111 -42.5zM377 246l-163 -19q-124 -14 -124 -94q0 -43 35 -69t91 -26q73 0 117 45t44 120h35q0 -91 -58.5 -152.5
t-145.5 -61.5q-73 0 -120.5 40.5t-47.5 105.5q0 58 43 94.5t121 45.5l173 19v29q0 55 -41.5 96.5t-103.5 41.5q-55 0 -96 -29t-53 -75l-47 13q19 63 72 102t120 39q81 0 140 -52.5t59 -125.5v-333h-50v246z" />
    <glyph glyph-name="uni1EB2" unicode="&#x1eb2;" horiz-adv-x="750" 
d="M375 987l-28 36l34 23q33 19 33 50q0 20 -13 32.5t-33 12.5q-37 0 -45 -36l-43 15q9 32 33 50t57 18q41 0 67 -25.5t26 -66.5q0 -30 -16 -51t-51 -44zM374 788q-62 0 -106 41.5t-44 100.5h47q0 -42 29.5 -69.5t74.5 -27.5q46 0 78 28.5t32 68.5h47q0 -57 -47 -99.5
t-111 -42.5zM160 254h425v-48h-425v48zM88 0h-56l311 700h64l311 -700h-56l-287 646z" />
    <glyph glyph-name="uni1EB3" unicode="&#x1eb3;" horiz-adv-x="487" 
d="M233 758l-28 36l34 23q33 19 33 50q0 20 -13 32.5t-33 12.5q-37 0 -45 -36l-43 15q9 32 33 50t57 18q41 0 67 -25.5t26 -66.5q0 -30 -16 -51t-51 -44zM232 579q-62 0 -106 41.5t-44 100.5h47q0 -42 29.5 -69.5t74.5 -27.5q46 0 78 28.5t32 68.5h47q0 -57 -47 -99.5
t-111 -42.5zM377 246l-163 -19q-124 -14 -124 -94q0 -43 35 -69t91 -26q73 0 117 45t44 120h35q0 -91 -58.5 -152.5t-145.5 -61.5q-73 0 -120.5 40.5t-47.5 105.5q0 58 43 94.5t121 45.5l173 19v29q0 55 -41.5 96.5t-103.5 41.5q-55 0 -96 -29t-53 -75l-47 13q19 63 72 102
t120 39q81 0 140 -52.5t59 -125.5v-333h-50v246z" />
    <glyph glyph-name="uni1EB4" unicode="&#x1eb4;" horiz-adv-x="750" 
d="M301 1131q-34 0 -60 -29.5t-38 -80.5l44 -18q15 79 53 79q15 0 27 -8t33 -32q42 -45 88 -45q35 0 61.5 29.5t37.5 80.5l-44 18q-16 -76 -58 -76q-15 0 -27 7.5t-33 31.5q-42 43 -84 43zM374 788q-62 0 -106 41.5t-44 100.5h47q0 -42 29.5 -69.5t74.5 -27.5q46 0 78 28.5
t32 68.5h47q0 -57 -47 -99.5t-111 -42.5zM160 254h425v-48h-425v48zM88 0h-56l311 700h64l311 -700h-56l-287 646z" />
    <glyph glyph-name="uni1EB5" unicode="&#x1eb5;" horiz-adv-x="487" 
d="M159 902q-34 0 -60 -29.5t-38 -80.5l44 -18q15 79 53 79q15 0 27 -8t33 -32q42 -45 88 -45q35 0 61.5 29.5t37.5 80.5l-44 18q-16 -76 -58 -76q-15 0 -27 7.5t-33 31.5q-42 43 -84 43zM232 579q-62 0 -106 41.5t-44 100.5h47q0 -42 29.5 -69.5t74.5 -27.5q46 0 78 28.5
t32 68.5h47q0 -57 -47 -99.5t-111 -42.5zM377 246l-163 -19q-124 -14 -124 -94q0 -43 35 -69t91 -26q73 0 117 45t44 120h35q0 -91 -58.5 -152.5t-145.5 -61.5q-73 0 -120.5 40.5t-47.5 105.5q0 58 43 94.5t121 45.5l173 19v29q0 55 -41.5 96.5t-103.5 41.5q-55 0 -96 -29
t-53 -75l-47 13q19 63 72 102t120 39q81 0 140 -52.5t59 -125.5v-333h-50v246z" />
    <glyph glyph-name="uni1EB6" unicode="&#x1eb6;" horiz-adv-x="750" 
d="M371 787q-62 0 -106 41.5t-44 100.5h47q0 -42 29.5 -69.5t74.5 -27.5q46 0 78 28.5t32 68.5h47q0 -57 -47 -99.5t-111 -42.5zM345 -130q0 16 11 27.5t28 11.5t28 -11.5t11 -27.5t-11 -27.5t-28 -11.5t-28 11.5t-11 27.5zM160 254h425v-48h-425v48zM88 0h-56l311 700h64
l311 -700h-56l-287 646z" />
    <glyph glyph-name="uni1EB7" unicode="&#x1eb7;" horiz-adv-x="487" 
d="M229 587q-62 0 -106 41.5t-44 100.5h47q0 -42 29.5 -69.5t74.5 -27.5q46 0 78 28.5t32 68.5h47q0 -57 -47 -99.5t-111 -42.5zM205 -130q0 16 11 27.5t28 11.5t28 -11.5t11 -27.5t-11 -27.5t-28 -11.5t-28 11.5t-11 27.5zM377 246l-163 -19q-124 -14 -124 -94
q0 -43 35 -69t91 -26q73 0 117 45t44 120h35q0 -91 -58.5 -152.5t-145.5 -61.5q-73 0 -120.5 40.5t-47.5 105.5q0 58 43 94.5t121 45.5l173 19v29q0 55 -41.5 96.5t-103.5 41.5q-55 0 -96 -29t-53 -75l-47 13q19 63 72 102t120 39q81 0 140 -52.5t59 -125.5v-333h-50v246z
" />
    <glyph glyph-name="uni1EB8" unicode="&#x1eb8;" horiz-adv-x="550" 
d="M255 -130q0 16 11 27.5t28 11.5t28 -11.5t11 -27.5t-11 -27.5t-28 -11.5t-28 11.5t-11 27.5zM110 375h376v-48h-376v-279h400v-48h-450v700h450v-48h-400v-277z" />
    <glyph glyph-name="uni1EB9" unicode="&#x1eb9;" horiz-adv-x="598" 
d="M265 -130q0 16 11 27.5t28 11.5t28 -11.5t11 -27.5t-11 -27.5t-28 -11.5t-28 11.5t-11 27.5zM508 275q-5 86 -64.5 140.5t-144.5 54.5q-82 0 -141 -54t-67 -141h417zM91 228q8 -87 68.5 -141.5t144.5 -54.5q63 0 114.5 31t77.5 86l46 -19q-32 -68 -96 -108t-142 -40
q-111 0 -187.5 76t-76.5 193t75.5 193t183.5 76t183.5 -73.5t75.5 -185.5q0 -11 -2 -33h-465z" />
    <glyph glyph-name="uni1EBA" unicode="&#x1eba;" horiz-adv-x="550" 
d="M285 767l-28 36l34 23q33 19 33 50q0 20 -13 32.5t-33 12.5q-37 0 -45 -36l-43 15q9 32 33 50t57 18q41 0 67 -25.5t26 -66.5q0 -30 -16 -51t-51 -44zM110 375h376v-48h-376v-279h400v-48h-450v700h450v-48h-400v-277z" />
    <glyph glyph-name="uni1EBB" unicode="&#x1ebb;" horiz-adv-x="598" 
d="M301 558l-28 36l34 23q33 19 33 50q0 20 -13 32.5t-33 12.5q-37 0 -45 -36l-43 15q9 32 33 50t57 18q41 0 67 -25.5t26 -66.5q0 -30 -16 -51t-51 -44zM508 275q-5 86 -64.5 140.5t-144.5 54.5q-82 0 -141 -54t-67 -141h417zM91 228q8 -87 68.5 -141.5t144.5 -54.5
q63 0 114.5 31t77.5 86l46 -19q-32 -68 -96 -108t-142 -40q-111 0 -187.5 76t-76.5 193t75.5 193t183.5 76t183.5 -73.5t75.5 -185.5q0 -11 -2 -33h-465z" />
    <glyph glyph-name="uni1EBC" unicode="&#x1ebc;" horiz-adv-x="550" 
d="M211 911q-34 0 -60 -29.5t-38 -80.5l44 -18q15 79 53 79q15 0 27 -8t33 -32q42 -45 88 -45q35 0 61.5 29.5t37.5 80.5l-44 18q-16 -76 -58 -76q-15 0 -27 7.5t-33 31.5q-42 43 -84 43zM110 375h376v-48h-376v-279h400v-48h-450v700h450v-48h-400v-277z" />
    <glyph glyph-name="uni1EBD" unicode="&#x1ebd;" horiz-adv-x="598" 
d="M227 702q-34 0 -60 -29.5t-38 -80.5l44 -18q15 79 53 79q15 0 27 -8t33 -32q42 -45 88 -45q35 0 61.5 29.5t37.5 80.5l-44 18q-16 -76 -58 -76q-15 0 -27 7.5t-33 31.5q-42 43 -84 43zM508 275q-5 86 -64.5 140.5t-144.5 54.5q-82 0 -141 -54t-67 -141h417zM91 228
q8 -87 68.5 -141.5t144.5 -54.5q63 0 114.5 31t77.5 86l46 -19q-32 -68 -96 -108t-142 -40q-111 0 -187.5 76t-76.5 193t75.5 193t183.5 76t183.5 -73.5t75.5 -185.5q0 -11 -2 -33h-465z" />
    <glyph glyph-name="uni1EBE" unicode="&#x1ebe;" horiz-adv-x="550" 
d="M600 1083l-36 37l-162 -162l32 -33zM275 969l-154 -162l41 -30l123 132l123 -132l41 30l-154 162h-20zM110 375h376v-48h-376v-279h400v-48h-450v700h450v-48h-400v-277z" />
    <glyph glyph-name="uni1EBF" unicode="&#x1ebf;" horiz-adv-x="598" 
d="M631 855l-36 37l-162 -162l32 -33zM291 760l-154 -162l41 -30l123 132l123 -132l41 30l-154 162h-20zM508 275q-5 86 -64.5 140.5t-144.5 54.5q-82 0 -141 -54t-67 -141h417zM91 228q8 -87 68.5 -141.5t144.5 -54.5q63 0 114.5 31t77.5 86l46 -19q-32 -68 -96 -108
t-142 -40q-111 0 -187.5 76t-76.5 193t75.5 193t183.5 76t183.5 -73.5t75.5 -185.5q0 -11 -2 -33h-465z" />
    <glyph glyph-name="uni1EC0" unicode="&#x1ec0;" horiz-adv-x="550" 
d="M348 1083l36 37l162 -162l-32 -33zM275 969l-154 -162l41 -30l123 132l123 -132l41 30l-154 162h-20zM110 375h376v-48h-376v-279h400v-48h-450v700h450v-48h-400v-277z" />
    <glyph glyph-name="uni1EC1" unicode="&#x1ec1;" horiz-adv-x="598" 
d="M379 855l36 37l162 -162l-32 -33zM291 760l-154 -162l41 -30l123 132l123 -132l41 30l-154 162h-20zM508 275q-5 86 -64.5 140.5t-144.5 54.5q-82 0 -141 -54t-67 -141h417zM91 228q8 -87 68.5 -141.5t144.5 -54.5q63 0 114.5 31t77.5 86l46 -19q-32 -68 -96 -108
t-142 -40q-111 0 -187.5 76t-76.5 193t75.5 193t183.5 76t183.5 -73.5t75.5 -185.5q0 -11 -2 -33h-465z" />
    <glyph glyph-name="uni1EC2" unicode="&#x1ec2;" horiz-adv-x="550" 
d="M474 915l-28 36l34 23q33 19 33 50q0 20 -13 32.5t-33 12.5q-37 0 -45 -36l-43 15q9 32 33 50t57 18q41 0 67 -25.5t26 -66.5q0 -30 -16 -51t-51 -44zM275 969l-154 -162l41 -30l123 132l123 -132l41 30l-154 162h-20zM110 375h376v-48h-376v-279h400v-48h-450v700h450
v-48h-400v-277z" />
    <glyph glyph-name="uni1EC3" unicode="&#x1ec3;" horiz-adv-x="598" 
d="M505 687l-28 36l34 23q33 19 33 50q0 20 -13 32.5t-33 12.5q-37 0 -45 -36l-43 15q9 32 33 50t57 18q41 0 67 -25.5t26 -66.5q0 -30 -16 -51t-51 -44zM291 760l-154 -162l41 -30l123 132l123 -132l41 30l-154 162h-20zM508 275q-5 86 -64.5 140.5t-144.5 54.5
q-82 0 -141 -54t-67 -141h417zM91 228q8 -87 68.5 -141.5t144.5 -54.5q63 0 114.5 31t77.5 86l46 -19q-32 -68 -96 -108t-142 -40q-111 0 -187.5 76t-76.5 193t75.5 193t183.5 76t183.5 -73.5t75.5 -185.5q0 -11 -2 -33h-465z" />
    <glyph glyph-name="uni1EC4" unicode="&#x1ec4;" horiz-adv-x="550" 
d="M211 1161q-34 0 -60 -29.5t-38 -80.5l44 -18q15 79 53 79q15 0 27 -8t33 -32q42 -45 88 -45q35 0 61.5 29.5t37.5 80.5l-44 18q-16 -76 -58 -76q-15 0 -27 7.5t-33 31.5q-42 43 -84 43zM275 969l-154 -162l41 -30l123 132l123 -132l41 30l-154 162h-20zM110 375h376v-48
h-376v-279h400v-48h-450v700h450v-48h-400v-277z" />
    <glyph glyph-name="uni1EC5" unicode="&#x1ec5;" horiz-adv-x="598" 
d="M227 962q-34 0 -60 -29.5t-38 -80.5l44 -18q15 79 53 79q15 0 27 -8t33 -32q42 -45 88 -45q35 0 61.5 29.5t37.5 80.5l-44 18q-16 -76 -58 -76q-15 0 -27 7.5t-33 31.5q-42 43 -84 43zM291 760l-154 -162l41 -30l123 132l123 -132l41 30l-154 162h-20zM508 275
q-5 86 -64.5 140.5t-144.5 54.5q-82 0 -141 -54t-67 -141h417zM91 228q8 -87 68.5 -141.5t144.5 -54.5q63 0 114.5 31t77.5 86l46 -19q-32 -68 -96 -108t-142 -40q-111 0 -187.5 76t-76.5 193t75.5 193t183.5 76t183.5 -73.5t75.5 -185.5q0 -11 -2 -33h-465z" />
    <glyph glyph-name="uni1EC6" unicode="&#x1ec6;" horiz-adv-x="550" 
d="M275 972l-154 -162l41 -30l123 132l123 -132l41 30l-154 162h-20zM255 -130q0 16 11 27.5t28 11.5t28 -11.5t11 -27.5t-11 -27.5t-28 -11.5t-28 11.5t-11 27.5zM110 375h376v-48h-376v-279h400v-48h-450v700h450v-48h-400v-277z" />
    <glyph glyph-name="uni1EC7" unicode="&#x1ec7;" horiz-adv-x="598" 
d="M289 772l-154 -162l41 -30l123 132l123 -132l41 30l-154 162h-20zM265 -130q0 16 11 27.5t28 11.5t28 -11.5t11 -27.5t-11 -27.5t-28 -11.5t-28 11.5t-11 27.5zM508 275q-5 86 -64.5 140.5t-144.5 54.5q-82 0 -141 -54t-67 -141h417zM91 228q8 -87 68.5 -141.5
t144.5 -54.5q63 0 114.5 31t77.5 86l46 -19q-32 -68 -96 -108t-142 -40q-111 0 -187.5 76t-76.5 193t75.5 193t183.5 76t183.5 -73.5t75.5 -185.5q0 -11 -2 -33h-465z" />
    <glyph glyph-name="uni1EC8" unicode="&#x1ec8;" 
d="M85 767l-28 36l34 23q33 19 33 50q0 20 -13 32.5t-33 12.5q-37 0 -45 -36l-43 15q9 32 33 50t57 18q41 0 67 -25.5t26 -66.5q0 -30 -16 -51t-51 -44zM110 0h-50v700h50v-700z" />
    <glyph glyph-name="uni1EC9" unicode="&#x1ec9;" 
d="M85 558l-28 36l34 23q33 19 33 50q0 20 -13 32.5t-33 12.5q-37 0 -45 -36l-43 15q9 32 33 50t57 18q41 0 67 -25.5t26 -66.5q0 -30 -16 -51t-51 -44zM60 0v500h50v-500h-50z" />
    <glyph glyph-name="uni1ECA" unicode="&#x1eca;" 
d="M46 -130q0 16 11 27.5t28 11.5t28 -11.5t11 -27.5t-11 -27.5t-28 -11.5t-28 11.5t-11 27.5zM110 0h-50v700h50v-700z" />
    <glyph glyph-name="uni1ECB" unicode="&#x1ecb;" 
d="M46 -130q0 16 11 27.5t28 11.5t28 -11.5t11 -27.5t-11 -27.5t-28 -11.5t-28 11.5t-11 27.5zM46 631q0 17 11 28t28 11t28 -11t11 -28t-11 -28t-28 -11t-28 11t-11 28zM60 0v500h50v-500h-50z" />
    <glyph glyph-name="uni1ECC" unicode="&#x1ecc;" horiz-adv-x="788" 
d="M355 -130q0 16 11 27.5t28 11.5t28 -11.5t11 -27.5t-11 -27.5t-28 -11.5t-28 11.5t-11 27.5zM90 353q0 -141 88 -231t216 -90t216 90t88 231q0 139 -88 228t-216 89t-216 -89t-88 -228zM40 353q0 160 102.5 263.5t251.5 103.5t251.5 -103.5t102.5 -263.5
q0 -161 -102.5 -266t-251.5 -105t-251.5 105t-102.5 266z" />
    <glyph glyph-name="uni1ECD" unicode="&#x1ecd;" horiz-adv-x="618" 
d="M268 -130q0 16 11 27.5t28 11.5t28 -11.5t11 -27.5t-11 -27.5t-28 -11.5t-28 11.5t-11 27.5zM90 251q0 -96 63.5 -157.5t155.5 -61.5t155.5 61.5t63.5 157.5t-63.5 157.5t-155.5 61.5t-155.5 -61.5t-63.5 -157.5zM40 251q0 117 78 193t191 76t191 -76t78 -193t-78 -193
t-191 -76t-191 76t-78 193z" />
    <glyph glyph-name="uni1ECE" unicode="&#x1ece;" horiz-adv-x="788" 
d="M394 767l-28 36l34 23q33 19 33 50q0 20 -13 32.5t-33 12.5q-37 0 -45 -36l-43 15q9 32 33 50t57 18q41 0 67 -25.5t26 -66.5q0 -30 -16 -51t-51 -44zM90 353q0 -141 88 -231t216 -90t216 90t88 231q0 139 -88 228t-216 89t-216 -89t-88 -228zM40 353q0 160 102.5 263.5
t251.5 103.5t251.5 -103.5t102.5 -263.5q0 -161 -102.5 -266t-251.5 -105t-251.5 105t-102.5 266z" />
    <glyph glyph-name="uni1ECF" unicode="&#x1ecf;" horiz-adv-x="618" 
d="M308 558l-28 36l34 23q33 19 33 50q0 20 -13 32.5t-33 12.5q-37 0 -45 -36l-43 15q9 32 33 50t57 18q41 0 67 -25.5t26 -66.5q0 -30 -16 -51t-51 -44zM90 251q0 -96 63.5 -157.5t155.5 -61.5t155.5 61.5t63.5 157.5t-63.5 157.5t-155.5 61.5t-155.5 -61.5t-63.5 -157.5z
M40 251q0 117 78 193t191 76t191 -76t78 -193t-78 -193t-191 -76t-191 76t-78 193z" />
    <glyph glyph-name="uni1ED0" unicode="&#x1ed0;" horiz-adv-x="788" 
d="M727 1068l-36 37l-162 -162l32 -33zM384 969l-154 -162l41 -30l123 132l123 -132l41 30l-154 162h-20zM90 353q0 -141 88 -231t216 -90t216 90t88 231q0 139 -88 228t-216 89t-216 -89t-88 -228zM40 353q0 160 102.5 263.5t251.5 103.5t251.5 -103.5t102.5 -263.5
q0 -161 -102.5 -266t-251.5 -105t-251.5 105t-102.5 266z" />
    <glyph glyph-name="uni1ED1" unicode="&#x1ed1;" horiz-adv-x="618" 
d="M642 849l-36 37l-162 -162l32 -33zM298 760l-154 -162l41 -30l123 132l123 -132l41 30l-154 162h-20zM90 251q0 -96 63.5 -157.5t155.5 -61.5t155.5 61.5t63.5 157.5t-63.5 157.5t-155.5 61.5t-155.5 -61.5t-63.5 -157.5zM40 251q0 117 78 193t191 76t191 -76t78 -193
t-78 -193t-191 -76t-191 76t-78 193z" />
    <glyph glyph-name="uni1ED2" unicode="&#x1ed2;" horiz-adv-x="788" 
d="M475 1068l36 37l162 -162l-32 -33zM384 969l-154 -162l41 -30l123 132l123 -132l41 30l-154 162h-20zM90 353q0 -141 88 -231t216 -90t216 90t88 231q0 139 -88 228t-216 89t-216 -89t-88 -228zM40 353q0 160 102.5 263.5t251.5 103.5t251.5 -103.5t102.5 -263.5
q0 -161 -102.5 -266t-251.5 -105t-251.5 105t-102.5 266z" />
    <glyph glyph-name="uni1ED3" unicode="&#x1ed3;" horiz-adv-x="618" 
d="M390 849l36 37l162 -162l-32 -33zM298 760l-154 -162l41 -30l123 132l123 -132l41 30l-154 162h-20zM90 251q0 -96 63.5 -157.5t155.5 -61.5t155.5 61.5t63.5 157.5t-63.5 157.5t-155.5 61.5t-155.5 -61.5t-63.5 -157.5zM40 251q0 117 78 193t191 76t191 -76t78 -193
t-78 -193t-191 -76t-191 76t-78 193z" />
    <glyph glyph-name="uni1ED4" unicode="&#x1ed4;" horiz-adv-x="788" 
d="M601 900l-28 36l34 23q33 19 33 50q0 20 -13 32.5t-33 12.5q-37 0 -45 -36l-43 15q9 32 33 50t57 18q41 0 67 -25.5t26 -66.5q0 -30 -16 -51t-51 -44zM384 969l-154 -162l41 -30l123 132l123 -132l41 30l-154 162h-20zM90 353q0 -141 88 -231t216 -90t216 90t88 231
q0 139 -88 228t-216 89t-216 -89t-88 -228zM40 353q0 160 102.5 263.5t251.5 103.5t251.5 -103.5t102.5 -263.5q0 -161 -102.5 -266t-251.5 -105t-251.5 105t-102.5 266z" />
    <glyph glyph-name="uni1ED5" unicode="&#x1ed5;" horiz-adv-x="618" 
d="M516 681l-28 36l34 23q33 19 33 50q0 20 -13 32.5t-33 12.5q-37 0 -45 -36l-43 15q9 32 33 50t57 18q41 0 67 -25.5t26 -66.5q0 -30 -16 -51t-51 -44zM298 760l-154 -162l41 -30l123 132l123 -132l41 30l-154 162h-20zM90 251q0 -96 63.5 -157.5t155.5 -61.5t155.5 61.5
t63.5 157.5t-63.5 157.5t-155.5 61.5t-155.5 -61.5t-63.5 -157.5zM40 251q0 117 78 193t191 76t191 -76t78 -193t-78 -193t-191 -76t-191 76t-78 193z" />
    <glyph glyph-name="uni1ED6" unicode="&#x1ed6;" horiz-adv-x="788" 
d="M320 1161q-34 0 -60 -29.5t-38 -80.5l44 -18q15 79 53 79q15 0 27 -8t33 -32q42 -45 88 -45q35 0 61.5 29.5t37.5 80.5l-44 18q-16 -76 -58 -76q-15 0 -27 7.5t-33 31.5q-42 43 -84 43zM384 969l-154 -162l41 -30l123 132l123 -132l41 30l-154 162h-20zM90 353
q0 -141 88 -231t216 -90t216 90t88 231q0 139 -88 228t-216 89t-216 -89t-88 -228zM40 353q0 160 102.5 263.5t251.5 103.5t251.5 -103.5t102.5 -263.5q0 -161 -102.5 -266t-251.5 -105t-251.5 105t-102.5 266z" />
    <glyph glyph-name="uni1ED7" unicode="&#x1ed7;" horiz-adv-x="618" 
d="M234 962q-34 0 -60 -29.5t-38 -80.5l44 -18q15 79 53 79q15 0 27 -8t33 -32q42 -45 88 -45q35 0 61.5 29.5t37.5 80.5l-44 18q-16 -76 -58 -76q-15 0 -27 7.5t-33 31.5q-42 43 -84 43zM298 760l-154 -162l41 -30l123 132l123 -132l41 30l-154 162h-20zM90 251
q0 -96 63.5 -157.5t155.5 -61.5t155.5 61.5t63.5 157.5t-63.5 157.5t-155.5 61.5t-155.5 -61.5t-63.5 -157.5zM40 251q0 117 78 193t191 76t191 -76t78 -193t-78 -193t-191 -76t-191 76t-78 193z" />
    <glyph glyph-name="uni1ED8" unicode="&#x1ed8;" horiz-adv-x="788" 
d="M384 972l-154 -162l41 -30l123 132l123 -132l41 30l-154 162h-20zM355 -130q0 16 11 27.5t28 11.5t28 -11.5t11 -27.5t-11 -27.5t-28 -11.5t-28 11.5t-11 27.5zM90 353q0 -141 88 -231t216 -90t216 90t88 231q0 139 -88 228t-216 89t-216 -89t-88 -228zM40 353
q0 160 102.5 263.5t251.5 103.5t251.5 -103.5t102.5 -263.5q0 -161 -102.5 -266t-251.5 -105t-251.5 105t-102.5 266z" />
    <glyph glyph-name="uni1ED9" unicode="&#x1ed9;" horiz-adv-x="618" 
d="M299 772l-154 -162l41 -30l123 132l123 -132l41 30l-154 162h-20zM268 -130q0 16 11 27.5t28 11.5t28 -11.5t11 -27.5t-11 -27.5t-28 -11.5t-28 11.5t-11 27.5zM90 251q0 -96 63.5 -157.5t155.5 -61.5t155.5 61.5t63.5 157.5t-63.5 157.5t-155.5 61.5t-155.5 -61.5
t-63.5 -157.5zM40 251q0 117 78 193t191 76t191 -76t78 -193t-78 -193t-191 -76t-191 76t-78 193z" />
    <glyph glyph-name="uni1EDA" unicode="&#x1eda;" horiz-adv-x="788" 
d="M520 935l-36 37l-162 -162l32 -33zM569 618v43h60q26 0 41 13.5t15 38.5t-24 43l34 33q37 -25 37 -76q0 -40 -28 -67.5t-69 -27.5h-66zM90 353q0 -141 88 -231t216 -90t216 90t88 231q0 139 -88 228t-216 89t-216 -89t-88 -228zM40 353q0 160 102.5 263.5t251.5 103.5
t251.5 -103.5t102.5 -263.5q0 -161 -102.5 -266t-251.5 -105t-251.5 105t-102.5 266z" />
    <glyph glyph-name="uni1EDB" unicode="&#x1edb;" horiz-adv-x="618" 
d="M434 726l-36 37l-162 -162l32 -33zM468 410v43h60q26 0 41 13.5t15 38.5t-24 43l34 33q37 -25 37 -76q0 -40 -28 -67.5t-69 -27.5h-66zM90 251q0 -96 63.5 -157.5t155.5 -61.5t155.5 61.5t63.5 157.5t-63.5 157.5t-155.5 61.5t-155.5 -61.5t-63.5 -157.5zM40 251
q0 117 78 193t191 76t191 -76t78 -193t-78 -193t-191 -76t-191 76t-78 193z" />
    <glyph glyph-name="uni1EDC" unicode="&#x1edc;" horiz-adv-x="788" 
d="M268 935l36 37l162 -162l-32 -33zM569 618v43h60q26 0 41 13.5t15 38.5t-24 43l34 33q37 -25 37 -76q0 -40 -28 -67.5t-69 -27.5h-66zM90 353q0 -141 88 -231t216 -90t216 90t88 231q0 139 -88 228t-216 89t-216 -89t-88 -228zM40 353q0 160 102.5 263.5t251.5 103.5
t251.5 -103.5t102.5 -263.5q0 -161 -102.5 -266t-251.5 -105t-251.5 105t-102.5 266z" />
    <glyph glyph-name="uni1EDD" unicode="&#x1edd;" horiz-adv-x="618" 
d="M182 726l36 37l162 -162l-32 -33zM468 410v43h60q26 0 41 13.5t15 38.5t-24 43l34 33q37 -25 37 -76q0 -40 -28 -67.5t-69 -27.5h-66zM90 251q0 -96 63.5 -157.5t155.5 -61.5t155.5 61.5t63.5 157.5t-63.5 157.5t-155.5 61.5t-155.5 -61.5t-63.5 -157.5zM40 251
q0 117 78 193t191 76t191 -76t78 -193t-78 -193t-191 -76t-191 76t-78 193z" />
    <glyph glyph-name="uni1EDE" unicode="&#x1ede;" horiz-adv-x="788" 
d="M394 767l-28 36l34 23q33 19 33 50q0 20 -13 32.5t-33 12.5q-37 0 -45 -36l-43 15q9 32 33 50t57 18q41 0 67 -25.5t26 -66.5q0 -30 -16 -51t-51 -44zM569 618v43h60q26 0 41 13.5t15 38.5t-24 43l34 33q37 -25 37 -76q0 -40 -28 -67.5t-69 -27.5h-66zM90 353
q0 -141 88 -231t216 -90t216 90t88 231q0 139 -88 228t-216 89t-216 -89t-88 -228zM40 353q0 160 102.5 263.5t251.5 103.5t251.5 -103.5t102.5 -263.5q0 -161 -102.5 -266t-251.5 -105t-251.5 105t-102.5 266z" />
    <glyph glyph-name="uni1EDF" unicode="&#x1edf;" horiz-adv-x="618" 
d="M308 558l-28 36l34 23q33 19 33 50q0 20 -13 32.5t-33 12.5q-37 0 -45 -36l-43 15q9 32 33 50t57 18q41 0 67 -25.5t26 -66.5q0 -30 -16 -51t-51 -44zM468 410v43h60q26 0 41 13.5t15 38.5t-24 43l34 33q37 -25 37 -76q0 -40 -28 -67.5t-69 -27.5h-66zM90 251
q0 -96 63.5 -157.5t155.5 -61.5t155.5 61.5t63.5 157.5t-63.5 157.5t-155.5 61.5t-155.5 -61.5t-63.5 -157.5zM40 251q0 117 78 193t191 76t191 -76t78 -193t-78 -193t-191 -76t-191 76t-78 193z" />
    <glyph glyph-name="uni1EE0" unicode="&#x1ee0;" horiz-adv-x="788" 
d="M320 911q-34 0 -60 -29.5t-38 -80.5l44 -18q15 79 53 79q15 0 27 -8t33 -32q42 -45 88 -45q35 0 61.5 29.5t37.5 80.5l-44 18q-16 -76 -58 -76q-15 0 -27 7.5t-33 31.5q-42 43 -84 43zM569 618v43h60q26 0 41 13.5t15 38.5t-24 43l34 33q37 -25 37 -76q0 -40 -28 -67.5
t-69 -27.5h-66zM90 353q0 -141 88 -231t216 -90t216 90t88 231q0 139 -88 228t-216 89t-216 -89t-88 -228zM40 353q0 160 102.5 263.5t251.5 103.5t251.5 -103.5t102.5 -263.5q0 -161 -102.5 -266t-251.5 -105t-251.5 105t-102.5 266z" />
    <glyph glyph-name="uni1EE1" unicode="&#x1ee1;" horiz-adv-x="618" 
d="M234 702q-34 0 -60 -29.5t-38 -80.5l44 -18q15 79 53 79q15 0 27 -8t33 -32q42 -45 88 -45q35 0 61.5 29.5t37.5 80.5l-44 18q-16 -76 -58 -76q-15 0 -27 7.5t-33 31.5q-42 43 -84 43zM468 410v43h60q26 0 41 13.5t15 38.5t-24 43l34 33q37 -25 37 -76q0 -40 -28 -67.5
t-69 -27.5h-66zM90 251q0 -96 63.5 -157.5t155.5 -61.5t155.5 61.5t63.5 157.5t-63.5 157.5t-155.5 61.5t-155.5 -61.5t-63.5 -157.5zM40 251q0 117 78 193t191 76t191 -76t78 -193t-78 -193t-191 -76t-191 76t-78 193z" />
    <glyph glyph-name="uni1EE2" unicode="&#x1ee2;" horiz-adv-x="788" 
d="M355 -130q0 16 11 27.5t28 11.5t28 -11.5t11 -27.5t-11 -27.5t-28 -11.5t-28 11.5t-11 27.5zM569 618v43h60q26 0 41 13.5t15 38.5t-24 43l34 33q37 -25 37 -76q0 -40 -28 -67.5t-69 -27.5h-66zM90 353q0 -141 88 -231t216 -90t216 90t88 231q0 139 -88 228t-216 89
t-216 -89t-88 -228zM40 353q0 160 102.5 263.5t251.5 103.5t251.5 -103.5t102.5 -263.5q0 -161 -102.5 -266t-251.5 -105t-251.5 105t-102.5 266z" />
    <glyph glyph-name="uni1EE3" unicode="&#x1ee3;" horiz-adv-x="618" 
d="M268 -130q0 16 11 27.5t28 11.5t28 -11.5t11 -27.5t-11 -27.5t-28 -11.5t-28 11.5t-11 27.5zM468 410v43h60q26 0 41 13.5t15 38.5t-24 43l34 33q37 -25 37 -76q0 -40 -28 -67.5t-69 -27.5h-66zM90 251q0 -96 63.5 -157.5t155.5 -61.5t155.5 61.5t63.5 157.5t-63.5 157.5
t-155.5 61.5t-155.5 -61.5t-63.5 -157.5zM40 251q0 117 78 193t191 76t191 -76t78 -193t-78 -193t-191 -76t-191 76t-78 193z" />
    <glyph glyph-name="uni1EE4" unicode="&#x1ee4;" horiz-adv-x="690" 
d="M305 -130q0 16 11 27.5t28 11.5t28 -11.5t11 -27.5t-11 -27.5t-28 -11.5t-28 11.5t-11 27.5zM345 -11q-121 0 -203 79t-82 199v433h50v-423q0 -112 65.5 -175t169.5 -63t169.5 63t65.5 175v423h50v-433q0 -120 -82 -199t-203 -79z" />
    <glyph glyph-name="uni1EE5" unicode="&#x1ee5;" horiz-adv-x="508" 
d="M225 -130q0 16 11 27.5t28 11.5t28 -11.5t11 -27.5t-11 -27.5t-28 -11.5t-28 11.5t-11 27.5zM448 500v-500h-50v500h50zM110 500v-323q0 -65 37.5 -101.5t97.5 -36.5q64 0 108.5 40.5t44.5 97.5h38q0 -76 -58 -132t-143 -56q-74 0 -124.5 50.5t-50.5 127.5v333h50z" />
    <glyph glyph-name="uni1EE6" unicode="&#x1ee6;" horiz-adv-x="690" 
d="M345 767l-28 36l34 23q33 19 33 50q0 20 -13 32.5t-33 12.5q-37 0 -45 -36l-43 15q9 32 33 50t57 18q41 0 67 -25.5t26 -66.5q0 -30 -16 -51t-51 -44zM345 -11q-121 0 -203 79t-82 199v433h50v-423q0 -112 65.5 -175t169.5 -63t169.5 63t65.5 175v423h50v-433
q0 -120 -82 -199t-203 -79z" />
    <glyph glyph-name="uni1EE7" unicode="&#x1ee7;" horiz-adv-x="508" 
d="M256 558l-28 36l34 23q33 19 33 50q0 20 -13 32.5t-33 12.5q-37 0 -45 -36l-43 15q9 32 33 50t57 18q41 0 67 -25.5t26 -66.5q0 -30 -16 -51t-51 -44zM448 500v-500h-50v500h50zM110 500v-323q0 -65 37.5 -101.5t97.5 -36.5q64 0 108.5 40.5t44.5 97.5h38q0 -76 -58 -132
t-143 -56q-74 0 -124.5 50.5t-50.5 127.5v333h50z" />
    <glyph glyph-name="uni1EE8" unicode="&#x1ee8;" horiz-adv-x="690" 
d="M471 935l-36 37l-162 -162l32 -33zM589 618v43h60q26 0 41 13.5t15 38.5t-24 43l34 33q37 -25 37 -76q0 -40 -28 -67.5t-69 -27.5h-66zM345 -11q-121 0 -203 79t-82 199v433h50v-423q0 -112 65.5 -175t169.5 -63t169.5 63t65.5 175v423h50v-433q0 -120 -82 -199t-203 -79
z" />
    <glyph glyph-name="uni1EE9" unicode="&#x1ee9;" horiz-adv-x="568" 
d="M382 726l-36 37l-162 -162l32 -33zM418 410v43h60q26 0 41 13.5t15 38.5t-24 43l34 33q37 -25 37 -76q0 -40 -28 -67.5t-69 -27.5h-66zM448 500v-500h-50v500h50zM110 500v-323q0 -65 37.5 -101.5t97.5 -36.5q64 0 108.5 40.5t44.5 97.5h38q0 -76 -58 -132t-143 -56
q-74 0 -124.5 50.5t-50.5 127.5v333h50z" />
    <glyph glyph-name="uni1EEA" unicode="&#x1eea;" horiz-adv-x="690" 
d="M219 935l36 37l162 -162l-32 -33zM589 618v43h60q26 0 41 13.5t15 38.5t-24 43l34 33q37 -25 37 -76q0 -40 -28 -67.5t-69 -27.5h-66zM345 -11q-121 0 -203 79t-82 199v433h50v-423q0 -112 65.5 -175t169.5 -63t169.5 63t65.5 175v423h50v-433q0 -120 -82 -199t-203 -79z
" />
    <glyph glyph-name="uni1EEB" unicode="&#x1eeb;" horiz-adv-x="568" 
d="M130 726l36 37l162 -162l-32 -33zM418 410v43h60q26 0 41 13.5t15 38.5t-24 43l34 33q37 -25 37 -76q0 -40 -28 -67.5t-69 -27.5h-66zM448 500v-500h-50v500h50zM110 500v-323q0 -65 37.5 -101.5t97.5 -36.5q64 0 108.5 40.5t44.5 97.5h38q0 -76 -58 -132t-143 -56
q-74 0 -124.5 50.5t-50.5 127.5v333h50z" />
    <glyph glyph-name="uni1EEC" unicode="&#x1eec;" horiz-adv-x="690" 
d="M345 767l-28 36l34 23q33 19 33 50q0 20 -13 32.5t-33 12.5q-37 0 -45 -36l-43 15q9 32 33 50t57 18q41 0 67 -25.5t26 -66.5q0 -30 -16 -51t-51 -44zM589 618v43h60q26 0 41 13.5t15 38.5t-24 43l34 33q37 -25 37 -76q0 -40 -28 -67.5t-69 -27.5h-66zM345 -11
q-121 0 -203 79t-82 199v433h50v-423q0 -112 65.5 -175t169.5 -63t169.5 63t65.5 175v423h50v-433q0 -120 -82 -199t-203 -79z" />
    <glyph glyph-name="uni1EED" unicode="&#x1eed;" horiz-adv-x="568" 
d="M256 558l-28 36l34 23q33 19 33 50q0 20 -13 32.5t-33 12.5q-37 0 -45 -36l-43 15q9 32 33 50t57 18q41 0 67 -25.5t26 -66.5q0 -30 -16 -51t-51 -44zM418 410v43h60q26 0 41 13.5t15 38.5t-24 43l34 33q37 -25 37 -76q0 -40 -28 -67.5t-69 -27.5h-66zM448 500v-500h-50
v500h50zM110 500v-323q0 -65 37.5 -101.5t97.5 -36.5q64 0 108.5 40.5t44.5 97.5h38q0 -76 -58 -132t-143 -56q-74 0 -124.5 50.5t-50.5 127.5v333h50z" />
    <glyph glyph-name="uni1EEE" unicode="&#x1eee;" horiz-adv-x="690" 
d="M271 911q-34 0 -60 -29.5t-38 -80.5l44 -18q15 79 53 79q15 0 27 -8t33 -32q42 -45 88 -45q35 0 61.5 29.5t37.5 80.5l-44 18q-16 -76 -58 -76q-15 0 -27 7.5t-33 31.5q-42 43 -84 43zM589 618v43h60q26 0 41 13.5t15 38.5t-24 43l34 33q37 -25 37 -76q0 -40 -28 -67.5
t-69 -27.5h-66zM345 -11q-121 0 -203 79t-82 199v433h50v-423q0 -112 65.5 -175t169.5 -63t169.5 63t65.5 175v423h50v-433q0 -120 -82 -199t-203 -79z" />
    <glyph glyph-name="uni1EEF" unicode="&#x1eef;" horiz-adv-x="568" 
d="M182 702q-34 0 -60 -29.5t-38 -80.5l44 -18q15 79 53 79q15 0 27 -8t33 -32q42 -45 88 -45q35 0 61.5 29.5t37.5 80.5l-44 18q-16 -76 -58 -76q-15 0 -27 7.5t-33 31.5q-42 43 -84 43zM418 410v43h60q26 0 41 13.5t15 38.5t-24 43l34 33q37 -25 37 -76q0 -40 -28 -67.5
t-69 -27.5h-66zM448 500v-500h-50v500h50zM110 500v-323q0 -65 37.5 -101.5t97.5 -36.5q64 0 108.5 40.5t44.5 97.5h38q0 -76 -58 -132t-143 -56q-74 0 -124.5 50.5t-50.5 127.5v333h50z" />
    <glyph glyph-name="uni1EF0" unicode="&#x1ef0;" horiz-adv-x="690" 
d="M305 -130q0 16 11 27.5t28 11.5t28 -11.5t11 -27.5t-11 -27.5t-28 -11.5t-28 11.5t-11 27.5zM589 618v43h60q26 0 41 13.5t15 38.5t-24 43l34 33q37 -25 37 -76q0 -40 -28 -67.5t-69 -27.5h-66zM345 -11q-121 0 -203 79t-82 199v433h50v-423q0 -112 65.5 -175t169.5 -63
t169.5 63t65.5 175v423h50v-433q0 -120 -82 -199t-203 -79z" />
    <glyph glyph-name="uni1EF1" unicode="&#x1ef1;" horiz-adv-x="568" 
d="M225 -130q0 16 11 27.5t28 11.5t28 -11.5t11 -27.5t-11 -27.5t-28 -11.5t-28 11.5t-11 27.5zM418 410v43h60q26 0 41 13.5t15 38.5t-24 43l34 33q37 -25 37 -76q0 -40 -28 -67.5t-69 -27.5h-66zM448 500v-500h-50v500h50zM110 500v-323q0 -65 37.5 -101.5t97.5 -36.5
q64 0 108.5 40.5t44.5 97.5h38q0 -76 -58 -132t-143 -56q-74 0 -124.5 50.5t-50.5 127.5v333h50z" />
    <glyph glyph-name="Ygrave" unicode="&#x1ef2;" horiz-adv-x="656" 
d="M209 935l36 37l162 -162l-32 -33zM313 0h50v240l261 460h-59l-227 -402l-246 402h-60l281 -460v-240z" />
    <glyph glyph-name="ygrave" unicode="&#x1ef3;" horiz-adv-x="534" 
d="M140 726l36 37l162 -162l-32 -33zM443 500l-176 -420l-176 420h-59l203 -480l-88 -220h59l296 700h-59z" />
    <glyph glyph-name="uni1EF4" unicode="&#x1ef4;" horiz-adv-x="656" 
d="M300 -130q0 16 11 27.5t28 11.5t28 -11.5t11 -27.5t-11 -27.5t-28 -11.5t-28 11.5t-11 27.5zM313 0h50v240l261 460h-59l-227 -402l-246 402h-60l281 -460v-240z" />
    <glyph glyph-name="uni1EF5" unicode="&#x1ef5;" horiz-adv-x="534" 
d="M345 -130q0 16 11 27.5t28 11.5t28 -11.5t11 -27.5t-11 -27.5t-28 -11.5t-28 11.5t-11 27.5zM443 500l-176 -420l-176 420h-59l203 -480l-88 -220h59l296 700h-59z" />
    <glyph glyph-name="uni1EF6" unicode="&#x1ef6;" horiz-adv-x="656" 
d="M335 767l-28 36l34 23q33 19 33 50q0 20 -13 32.5t-33 12.5q-37 0 -45 -36l-43 15q9 32 33 50t57 18q41 0 67 -25.5t26 -66.5q0 -30 -16 -51t-51 -44zM313 0h50v240l261 460h-59l-227 -402l-246 402h-60l281 -460v-240z" />
    <glyph glyph-name="uni1EF7" unicode="&#x1ef7;" horiz-adv-x="534" 
d="M266 558l-28 36l34 23q33 19 33 50q0 20 -13 32.5t-33 12.5q-37 0 -45 -36l-43 15q9 32 33 50t57 18q41 0 67 -25.5t26 -66.5q0 -30 -16 -51t-51 -44zM443 500l-176 -420l-176 420h-59l203 -480l-88 -220h59l296 700h-59z" />
    <glyph glyph-name="uni1EF8" unicode="&#x1ef8;" horiz-adv-x="656" 
d="M261 911q-34 0 -60 -29.5t-38 -80.5l44 -18q15 79 53 79q15 0 27 -8t33 -32q42 -45 88 -45q35 0 61.5 29.5t37.5 80.5l-44 18q-16 -76 -58 -76q-15 0 -27 7.5t-33 31.5q-42 43 -84 43zM313 0h50v240l261 460h-59l-227 -402l-246 402h-60l281 -460v-240z" />
    <glyph glyph-name="uni1EF9" unicode="&#x1ef9;" horiz-adv-x="534" 
d="M192 702q-34 0 -60 -29.5t-38 -80.5l44 -18q15 79 53 79q15 0 27 -8t33 -32q42 -45 88 -45q35 0 61.5 29.5t37.5 80.5l-44 18q-16 -76 -58 -76q-15 0 -27 7.5t-33 31.5q-42 43 -84 43zM443 500l-176 -420l-176 420h-59l203 -480l-88 -220h59l296 700h-59z" />
    <glyph glyph-name="uni2010" unicode="&#x2010;" horiz-adv-x="302" 
d="M272 290v-47h-242v47h242z" />
    <glyph glyph-name="endash" unicode="&#x2013;" horiz-adv-x="502" 
d="M472 290v-47h-442v47h442z" />
    <glyph glyph-name="emdash" unicode="&#x2014;" horiz-adv-x="802" 
d="M772 290v-47h-742v47h742z" />
    <glyph glyph-name="quoteleft" unicode="&#x2018;" horiz-adv-x="216" 
d="M169 738q-43 -10 -71 -44t-28 -76q15 23 50 23q28 0 47 -19.5t19 -48.5q0 -28 -20.5 -47t-51.5 -19q-42 0 -66 39q-18 28 -18 70q0 50 36.5 98t86.5 62z" />
    <glyph glyph-name="quoteright" unicode="&#x2019;" horiz-adv-x="216" 
d="M47 545q43 10 71 44t28 76q-15 -23 -50 -23q-28 0 -47 19.5t-19 47.5q0 29 20.5 48t51.5 19q42 0 66 -39q18 -29 18 -71q0 -50 -36.5 -97.5t-86.5 -61.5z" />
    <glyph glyph-name="quotesinglbase" unicode="&#x201a;" horiz-adv-x="216" 
d="M47 -97q43 10 71 44t28 76q-15 -23 -50 -23q-28 0 -47 19.5t-19 47.5q0 29 20.5 48t51.5 19q42 0 66 -39q18 -29 18 -71q0 -50 -36.5 -97.5t-86.5 -61.5z" />
    <glyph glyph-name="quotereversed" unicode="&#x201b;" horiz-adv-x="216" 
d="M169 545l-16 -38q-50 14 -86.5 62t-36.5 98q0 41 18 70q24 39 66 39q31 0 51.5 -19t20.5 -47q0 -29 -19 -48.5t-47 -19.5q-35 0 -50 23q0 -42 28 -76t71 -44z" />
    <glyph glyph-name="quotedblleft" unicode="&#x201c;" horiz-adv-x="406" 
d="M359 738q-43 -10 -71 -44t-28 -76q15 23 50 23q28 0 47 -19.5t19 -48.5q0 -28 -20.5 -47t-51.5 -19q-42 0 -66 39q-18 28 -18 70q0 50 36.5 98t86.5 62zM169 738q-43 -10 -71 -44t-28 -76q15 23 50 23q28 0 47 -19.5t19 -48.5q0 -28 -20.5 -47t-51.5 -19q-42 0 -66 39
q-18 28 -18 70q0 50 36.5 98t86.5 62z" />
    <glyph glyph-name="quotedblright" unicode="&#x201d;" horiz-adv-x="406" 
d="M47 545q43 10 71 44t28 76q-15 -23 -50 -23q-28 0 -47 19.5t-19 48.5q0 28 20.5 47t51.5 19q42 0 66 -39q18 -29 18 -70q0 -50 -36.5 -98t-86.5 -62zM237 545q43 10 71 44t28 76q-15 -23 -50 -23q-28 0 -47 19.5t-19 48.5q0 28 20.5 47t51.5 19q42 0 66 -39
q18 -29 18 -70q0 -50 -36.5 -98t-86.5 -62z" />
    <glyph glyph-name="quotedblbase" unicode="&#x201e;" horiz-adv-x="406" 
d="M47 -97q43 10 71 44t28 76q-15 -23 -50 -23q-28 0 -47 19.5t-19 48.5q0 28 20.5 47t51.5 19q42 0 66 -39q18 -29 18 -70q0 -50 -36.5 -98t-86.5 -62zM237 -97q43 10 71 44t28 76q-15 -23 -50 -23q-28 0 -47 19.5t-19 48.5q0 28 20.5 47t51.5 19q42 0 66 -39
q18 -29 18 -70q0 -50 -36.5 -98t-86.5 -62z" />
    <glyph glyph-name="uni201F" unicode="&#x201f;" horiz-adv-x="406" 
d="M359 545l-16 -38q-50 14 -86.5 62t-36.5 98q0 41 18 70q24 39 66 39q31 0 51.5 -19t20.5 -47q0 -29 -19 -48.5t-47 -19.5q-35 0 -50 23q0 -42 28 -76t71 -44zM169 545l-16 -38q-50 14 -86.5 62t-36.5 98q0 41 18 70q24 39 66 39q31 0 51.5 -19t20.5 -47q0 -29 -19 -48.5
t-47 -19.5q-35 0 -50 23q0 -42 28 -76t71 -44z" />
    <glyph glyph-name="dagger" unicode="&#x2020;" horiz-adv-x="352" 
d="M142 614h70l-10 -122h120v-47h-120v-445h-50v445h-122v47h122z" />
    <glyph glyph-name="daggerdbl" unicode="&#x2021;" horiz-adv-x="352" 
d="M140 614h70l-10 -122h120v-47h-120v-276h122v-47h-122l10 -122h-70l10 122h-120v47h120v276h-122v47h122z" />
    <glyph glyph-name="bullet" unicode="&#x2022;" 
d="M36 289q0 21 14 35t35 14t35 -14t14 -35t-14 -35t-35 -14t-35 14t-14 35z" />
    <glyph glyph-name="uni2023" unicode="&#x2023;" 
d="M45 358l89 -69l-89 -69v138z" />
    <glyph glyph-name="ellipsis" unicode="&#x2026;" horiz-adv-x="510" 
d="M376 39q0 21 14 35t35 14t35 -14t14 -35t-14 -35t-35 -14t-35 14t-14 35zM206 39q0 21 14 35t35 14t35 -14t14 -35t-14 -35t-35 -14t-35 14t-14 35zM36 39q0 21 14 35t35 14t35 -14t14 -35t-14 -35t-35 -14t-35 14t-14 35z" />
    <glyph glyph-name="perthousand" unicode="&#x2030;" horiz-adv-x="1192" 
d="M874 159q0 -52 34.5 -85.5t84.5 -33.5t84.5 33.5t34.5 85.5t-34.5 85.5t-84.5 33.5t-84.5 -33.5t-34.5 -85.5zM824 159q0 73 49 121t120 48t120 -48t49 -121t-49 -121t-120 -48t-120 48t-49 121zM484 159q0 -52 34.5 -85.5t84.5 -33.5t84.5 33.5t34.5 85.5t-34.5 85.5
t-84.5 33.5t-84.5 -33.5t-34.5 -85.5zM434 159q0 73 49 121t120 48t120 -48t49 -121t-49 -121t-120 -48t-120 48t-49 121zM80 541q0 -52 34.5 -85.5t84.5 -33.5t84.5 33.5t34.5 85.5t-34.5 85.5t-84.5 33.5t-84.5 -33.5t-34.5 -85.5zM30 541q0 73 49 121t120 48t120 -48
t49 -121t-49 -121t-120 -48t-120 48t-49 121zM286 0h-57l287 700h57z" />
    <glyph glyph-name="minute" unicode="&#x2032;" 
d="M87 750l50 -13l-59 -221l-45 11z" />
    <glyph glyph-name="second" unicode="&#x2033;" horiz-adv-x="290" 
d="M207 750l50 -13l-59 -221l-45 11zM87 750l50 -13l-59 -221l-45 11z" />
    <glyph glyph-name="uni2034" unicode="&#x2034;" horiz-adv-x="410" 
d="M327 750l50 -13l-59 -221l-45 11zM207 750l50 -13l-59 -221l-45 11zM87 750l50 -13l-59 -221l-45 11z" />
    <glyph glyph-name="uni2035" unicode="&#x2035;" 
d="M83 750l54 -223l-45 -11l-59 221z" />
    <glyph glyph-name="uni2036" unicode="&#x2036;" horiz-adv-x="290" 
d="M83 750l54 -223l-45 -11l-59 221zM203 750l54 -223l-45 -11l-59 221z" />
    <glyph glyph-name="uni2037" unicode="&#x2037;" horiz-adv-x="410" 
d="M83 750l54 -223l-45 -11l-59 221zM203 750l54 -223l-45 -11l-59 221zM323 750l54 -223l-45 -11l-59 221z" />
    <glyph glyph-name="fractionslash" unicode="&#x2044;" horiz-adv-x="44" 
d="M-93 0h-57l287 700h57z" />
    <glyph glyph-name="uni2070" unicode="&#x2070;" horiz-adv-x="270" 
d="M75 670q0 -27 18 -45t43 -18q24 0 41.5 18t17.5 45v73q0 28 -17 46t-42 18t-43 -18t-18 -46v-73zM25 670v73q0 49 32.5 81.5t78.5 32.5t77.5 -32t31.5 -82v-73q0 -49 -31.5 -81t-77.5 -32t-78.5 32t-32.5 81z" />
    <glyph glyph-name="uni2074" unicode="&#x2074;" horiz-adv-x="260" 
d="M72 671h79v114zM201 850v-179h34v-47h-34v-60h-50v60h-126v57l116 169h60z" />
    <glyph glyph-name="uni2075" unicode="&#x2075;" horiz-adv-x="270" 
d="M75 737v66h159v47h-209v-143l50 -20q31 36 67 36q23 0 38 -16.5t15 -42.5t-16.5 -41.5t-43.5 -15.5q-51 0 -62 48l-48 -15q11 -38 41.5 -60.5t70.5 -22.5q47 0 77.5 30t30.5 77q0 45 -27 76t-67 31q-44 0 -76 -34z" />
    <glyph glyph-name="uni2076" unicode="&#x2076;" horiz-adv-x="270" 
d="M206 770q-20 37 -60 37q-30 0 -49 -25t-22 -68q21 41 72 41q39 0 66.5 -29t27.5 -70q0 -42 -29.5 -70.5t-74.5 -28.5q-51 0 -81 39q-31 40 -31 104q0 70 34 113.5t89 43.5q67 0 97 -55zM85 658q0 -22 15.5 -36.5t38.5 -14.5t37.5 13.5t14.5 34.5q0 22 -15.5 36t-38.5 14
q-22 0 -37 -13.5t-15 -33.5z" />
    <glyph glyph-name="uni2077" unicode="&#x2077;" horiz-adv-x="263" 
d="M149 564l89 229v57h-213v-47h166l-98 -239h56z" />
    <glyph glyph-name="uni2078" unicode="&#x2078;" horiz-adv-x="268" 
d="M75 647q0 -17 17 -28.5t42 -11.5t42 11.5t17 28.5t-17 28.5t-42 11.5t-42 -11.5t-17 -28.5zM35 776q0 34 29 57.5t70 23.5t70 -23.5t29 -57.5q0 -46 -51 -66q61 -19 61 -69q0 -35 -31.5 -59.5t-77.5 -24.5t-77.5 24.5t-31.5 59.5q0 50 61 69q-51 20 -51 66zM134 731
q20 0 34.5 11.5t14.5 28.5q0 16 -13.5 26t-35.5 10t-35.5 -10t-13.5 -26q0 -17 14.5 -28.5t34.5 -11.5z" />
    <glyph glyph-name="uni2079" unicode="&#x2079;" horiz-adv-x="270" 
d="M64 644q20 -37 60 -37q30 0 49 25t22 68q-21 -41 -72 -41q-39 0 -66.5 29t-27.5 70q0 42 29.5 70.5t74.5 28.5q51 0 81 -39q31 -40 31 -104q0 -70 -34 -113.5t-89 -43.5q-67 0 -97 55zM185 756q0 22 -15.5 36.5t-38.5 14.5t-37.5 -13.5t-14.5 -34.5q0 -22 15.5 -36
t38.5 -14q22 0 37 13.5t15 33.5z" />
    <glyph glyph-name="uni2080" unicode="&#x2080;" horiz-adv-x="270" 
d="M75 -45q0 -27 18 -45t43 -18q24 0 41.5 18t17.5 45v73q0 28 -17 46t-42 18t-43 -18t-18 -46v-73zM25 -45v73q0 50 32.5 82t78.5 32t77.5 -32t31.5 -82v-73q0 -49 -31.5 -81t-77.5 -32t-78.5 32t-32.5 81z" />
    <glyph glyph-name="uni2081" unicode="&#x2081;" horiz-adv-x="192" 
d="M167 136v-286h-50v224l-58 -44l-34 38l90 68h52z" />
    <glyph glyph-name="uni2082" unicode="&#x2082;" horiz-adv-x="262" 
d="M236 38q0 44 -30.5 73t-73.5 29q-81 0 -107 -85l48 -17q15 52 59 52q23 0 38.5 -14.5t15.5 -37.5q0 -30 -64 -67l-96 -59v-62h211v47h-149l64 36q84 44 84 105z" />
    <glyph glyph-name="uni2083" unicode="&#x2083;" horiz-adv-x="262" 
d="M169 21l62 54v62h-194v-47h142l-74 -68l24 -37q58 0 58 -47q0 -19 -14.5 -31t-37.5 -12q-24 0 -40.5 15.5t-21.5 42.5l-48 -15q10 -42 39 -67.5t69 -25.5q45 0 74.5 27.5t29.5 70.5q0 33 -18.5 53.5t-49.5 24.5z" />
    <glyph glyph-name="uni2084" unicode="&#x2084;" horiz-adv-x="260" 
d="M72 -43h79v114zM201 136v-179h34v-47h-34v-60h-50v60h-126v57l116 169h60z" />
    <glyph glyph-name="uni2085" unicode="&#x2085;" horiz-adv-x="270" 
d="M75 22v66h159v47h-209v-143l50 -20q31 36 67 36q23 0 38 -16.5t15 -42.5t-16.5 -41.5t-43.5 -15.5q-51 0 -62 48l-48 -15q11 -38 41.5 -60.5t70.5 -22.5q47 0 77.5 30t30.5 77q0 45 -27 76t-67 31q-44 0 -76 -34z" />
    <glyph glyph-name="uni2086" unicode="&#x2086;" horiz-adv-x="270" 
d="M206 55q-20 37 -60 37q-30 0 -49 -25t-22 -68q21 41 72 41q39 0 66.5 -29t27.5 -70q0 -42 -29.5 -70.5t-74.5 -28.5q-51 0 -81 39q-31 40 -31 104q0 70 34 113.5t89 43.5q67 0 97 -55zM85 -57q0 -22 15.5 -36.5t38.5 -14.5t37.5 13.5t14.5 34.5q0 22 -15.5 36t-38.5 14
q-22 0 -37 -13.5t-15 -33.5z" />
    <glyph glyph-name="uni2087" unicode="&#x2087;" horiz-adv-x="263" 
d="M149 -150l89 229v57h-213v-47h166l-98 -239h56z" />
    <glyph glyph-name="uni2088" unicode="&#x2088;" horiz-adv-x="268" 
d="M75 -68q0 -17 17 -28.5t42 -11.5t42 11.5t17 28.5t-17 28.5t-42 11.5t-42 -11.5t-17 -28.5zM35 61q0 34 29 57.5t70 23.5t70 -23.5t29 -57.5q0 -46 -51 -66q61 -19 61 -69q0 -35 -31.5 -59.5t-77.5 -24.5t-77.5 24.5t-31.5 59.5q0 50 61 69q-51 20 -51 66zM134 16
q20 0 34.5 11.5t14.5 28.5q0 16 -13.5 26t-35.5 10t-35.5 -10t-13.5 -26q0 -17 14.5 -28.5t34.5 -11.5z" />
    <glyph glyph-name="uni2089" unicode="&#x2089;" horiz-adv-x="270" 
d="M64 -71q20 -37 60 -37q30 0 49 25t22 68q-21 -41 -72 -41q-39 0 -66.5 29t-27.5 70q0 42 29.5 70.5t74.5 28.5q51 0 81 -39q31 -40 31 -104q0 -70 -34 -113.5t-89 -43.5q-67 0 -97 55zM185 41q0 22 -15.5 36.5t-38.5 14.5t-37.5 -13.5t-14.5 -34.5q0 -22 15.5 -36
t38.5 -14q22 0 37 13.5t15 33.5z" />
    <glyph glyph-name="dong" unicode="&#x20ab;" horiz-adv-x="668" 
d="M642 -90v-47h-612v47h612zM561 251q0 -117 -74.5 -193t-181.5 -76q-111 0 -188 76t-77 193t77 193t188 76q107 0 181.5 -76t74.5 -193zM528 251q0 96 -63.5 157.5t-155.5 61.5t-155.5 -61.5t-63.5 -157.5t63.5 -157.5t155.5 -61.5t155.5 61.5t63.5 157.5zM578 0h-50v616
h-242v47h242v87h50v-87h90v-47h-90v-616z" />
    <glyph glyph-name="Euro" unicode="&#x20ac;" horiz-adv-x="838" 
d="M552 298v-47h-522v47h522zM552 468v-47h-522v47h522zM120 351q0 160 101.5 264.5t247.5 104.5q106 0 193 -57t131 -156l-45 -20q-38 85 -113 134t-166 49q-125 0 -212 -90t-87 -229t87 -229t212 -90q93 0 169 51.5t114 140.5l46 -19q-43 -102 -131.5 -162.5t-197.5 -60.5
q-146 0 -247.5 104.5t-101.5 264.5z" />
    <glyph glyph-name="uni20B4" unicode="&#x20b4;" horiz-adv-x="574" 
d="M532 308v-47h-374q-48 -39 -48 -94.5t46.5 -91.5t116.5 -36q73 0 130 41t86 114l45 -22q-32 -83 -103.5 -133t-160.5 -50q-90 0 -150 49.5t-60 123.5q0 55 35 99h-65v47h502zM474 448h58v-47h-502v47h383q41 36 41 91q0 56 -42.5 90t-109.5 34q-70 0 -126 -38.5
t-83 -105.5l-43 21q30 79 98.5 126t154.5 47q87 0 144 -48.5t57 -123.5q0 -53 -30 -93z" />
    <glyph glyph-name="uni20B8" unicode="&#x20b8;" horiz-adv-x="590" 
d="M30 652v48h530v-48h-530zM560 570v-48h-240v-522h-50v522h-240v48h530z" />
    <glyph glyph-name="uni20BD" unicode="&#x20bd;" horiz-adv-x="618" 
d="M389 332h-209v-102h142v-47h-142v-183h-50v183h-100v47h100v103h-100v47h100v320h269q81 0 135 -52t54 -130t-58 -132t-141 -54zM389 652h-209v-272h209q63 0 106 39.5t43 98.5q0 58 -42.5 96t-106.5 38z" />
    <glyph glyph-name="uni2103" unicode="&#x2103;" horiz-adv-x="1136" 
d="M398 351q0 160 104 264.5t255 104.5q109 0 198.5 -57t135.5 -156l-45 -20q-40 85 -117.5 134t-171.5 49q-129 0 -219 -90t-90 -229t90 -229t219 -90q97 0 175.5 51.5t117.5 140.5l46 -19q-44 -102 -135.5 -162.5t-203.5 -60.5q-151 0 -255 104.5t-104 264.5zM80 561
q0 -43 29 -71t70 -28t70 28t29 71t-29 71t-70 28t-70 -28t-29 -71zM30 561q0 65 43 107t106 42t106 -42t43 -107t-43 -107t-106 -42t-106 42t-43 107z" />
    <glyph glyph-name="uni2109" unicode="&#x2109;" horiz-adv-x="908" 
d="M468 375h376v-48h-376v-327h-50v700h450v-48h-400v-277zM80 561q0 -43 29 -71t70 -28t70 28t29 71t-29 71t-70 28t-70 -28t-29 -71zM30 561q0 65 43 107t106 42t106 -42t43 -107t-43 -107t-106 -42t-106 42t-43 107z" />
    <glyph glyph-name="trademark" unicode="&#x2122;" horiz-adv-x="431" 
d="M179 700v-31h-54v-153h-33v153h-52v31h139zM202 516v184h47l47 -108l47 108h48v-184h-33v134l-46 -104h-31l-46 104v-134h-33z" />
    <glyph glyph-name="estimated" unicode="&#x212e;" horiz-adv-x="598" 
d="M151 509v-134h297v136q-61 59 -149 59q-89 0 -148 -61zM151 195q61 -63 153 -63q63 0 114.5 31t77.5 86l46 -19q-32 -68 -96 -108t-142 -40q-111 0 -187.5 76t-76.5 193t75.5 193t183.5 76t183.5 -73.5t75.5 -185.5q0 -11 -2 -33h-405v-133z" />
    <glyph glyph-name="arrowleft" unicode="&#x2190;" horiz-adv-x="726" 
d="M306 625l34 -33l-200 -200h536v-47h-535l199 -199l-34 -33l-256 256z" />
    <glyph glyph-name="arrowup" unicode="&#x2191;" horiz-adv-x="611" 
d="M561 425l-33 -33l-200 200v-536h-47v535l-198 -199l-33 33l256 256z" />
    <glyph glyph-name="arrowright" unicode="&#x2192;" horiz-adv-x="726" 
d="M420 96l-34 33l200 200h-536v47h535l-199 199l34 33l256 -256z" />
    <glyph glyph-name="arrowdown" unicode="&#x2193;" horiz-adv-x="611" 
d="M50 296l33 33l200 -200v536h47v-535l198 199l33 -33l-256 -256z" />
    <glyph glyph-name="arrowboth" unicode="&#x2194;" horiz-adv-x="856" 
d="M550 96l-34 33l200 200h-574l198 -198l-34 -33l-256 256l256 256l34 -33l-200 -200h574l-198 198l34 33l256 -256z" />
    <glyph glyph-name="arrowupdn" unicode="&#x2195;" horiz-adv-x="614" 
d="M50 231l33 34l200 -200v574l-198 -198l-33 34l256 256l256 -256l-33 -34l-200 200v-574l198 198l33 -34l-256 -256z" />
    <glyph glyph-name="uni2196" unicode="&#x2196;" horiz-adv-x="558" 
d="M412 590v-47h-283l379 -379l-33 -33l-378 378v-281h-47v362h362z" />
    <glyph glyph-name="uni2197" unicode="&#x2197;" horiz-adv-x="558" 
d="M508 228h-46v282l-380 -378l-32 32l378 378h-282v48h362v-362z" />
    <glyph glyph-name="uni2198" unicode="&#x2198;" horiz-adv-x="558" 
d="M146 131v47h283l-379 379l33 33l378 -378v281h47v-362h-362z" />
    <glyph glyph-name="uni2199" unicode="&#x2199;" horiz-adv-x="558" 
d="M50 494h46v-284l380 380l32 -34l-378 -378h282v-46h-362v362z" />
    <glyph glyph-name="approxequal" unicode="&#x2248;" horiz-adv-x="464" 
d="M158 258q-34 0 -60 -29.5t-38 -80.5l44 -18q15 76 53 76q15 0 27 -7t33 -30q42 -45 88 -45q35 0 61.5 29.5t37.5 80.5l-44 18q-16 -73 -58 -73q-16 0 -27.5 7t-32.5 29q-42 43 -84 43zM158 418q-34 0 -60 -29.5t-38 -80.5l44 -18q15 76 53 76q15 0 27 -7t33 -30
q42 -45 88 -45q35 0 61.5 29.5t37.5 80.5l-44 18q-16 -73 -58 -73q-16 0 -27.5 7t-32.5 29q-42 43 -84 43z" />
    <glyph glyph-name="notequal" unicode="&#x2260;" horiz-adv-x="352" 
d="M107 10h-57l205 500h57zM322 208v-47h-292v47h292zM322 378v-47h-292v47h292z" />
    <glyph glyph-name="lessequal" unicode="&#x2264;" horiz-adv-x="500" 
d="M460 10v-47h-430v47h430zM460 121v-56l-420 173v64l420 173v-56l-368 -149z" />
    <glyph glyph-name="greaterequal" unicode="&#x2265;" horiz-adv-x="500" 
d="M460 10v-47h-430v47h430zM40 419v56l420 -173v-64l-420 -173v56l368 149z" />
    <glyph glyph-name="filledbox" unicode="&#x25a0;" horiz-adv-x="820" 
d="M60 700h700v-700h-700v700z" />
    <glyph glyph-name="H22073" unicode="&#x25a1;" horiz-adv-x="820" 
d="M110 650v-600h600v600h-600zM60 700h700v-700h-700v700z" />
    <glyph glyph-name="H18543" unicode="&#x25aa;" horiz-adv-x="520" 
d="M60 570h400v-400h-400v400z" />
    <glyph glyph-name="H18551" unicode="&#x25ab;" horiz-adv-x="520" 
d="M110 520v-300h300v300h-300zM60 570h400v-400h-400v400z" />
    <glyph glyph-name="triagup" unicode="&#x25b2;" horiz-adv-x="820" 
d="M410 700l350 -700h-700z" />
    <glyph glyph-name="uni25B3" unicode="&#x25b3;" horiz-adv-x="820" 
d="M410 700l350 -700h-700zM410 583l-263 -533h526z" />
    <glyph glyph-name="uni25B6" unicode="&#x25b6;" horiz-adv-x="820" 
d="M760 350l-700 -350v700z" />
    <glyph glyph-name="uni25B7" unicode="&#x25b7;" horiz-adv-x="820" 
d="M760 350l-700 -350v700zM643 350l-533 263v-526z" />
    <glyph glyph-name="triagdn" unicode="&#x25bc;" horiz-adv-x="820" 
d="M410 0l-350 700h700z" />
    <glyph glyph-name="uni25BD" unicode="&#x25bd;" horiz-adv-x="820" 
d="M410 0l-350 700h700zM410 117l263 533h-526z" />
    <glyph glyph-name="uni25C0" unicode="&#x25c0;" horiz-adv-x="820" 
d="M60 350l700 350v-700z" />
    <glyph glyph-name="uni25C1" unicode="&#x25c1;" horiz-adv-x="820" 
d="M60 350l700 350v-700zM177 350l533 -263v526z" />
    <glyph glyph-name="uni25C6" unicode="&#x25c6;" horiz-adv-x="820" 
d="M53 350l357 357l357 -357l-357 -357z" />
    <glyph glyph-name="uni25C7" unicode="&#x25c7;" horiz-adv-x="820" 
d="M133 350l277 -277l277 277l-277 277zM53 350l357 357l357 -357l-357 -357z" />
    <glyph glyph-name="lozenge" unicode="&#x25ca;" horiz-adv-x="620" 
d="M123 350l187 -287l187 287l-187 287zM53 350l232 357h50l232 -357l-232 -357h-50z" />
    <glyph glyph-name="circle" unicode="&#x25cb;" horiz-adv-x="820" 
d="M123 350q0 -119 84 -203t203 -84t203 84t84 203t-84 203t-203 84t-203 -84t-84 -203zM53 350q0 148 104.5 252.5t252.5 104.5t252.5 -104.5t104.5 -252.5t-104.5 -252.5t-252.5 -104.5t-252.5 104.5t-104.5 252.5z" />
    <glyph glyph-name="H18533" unicode="&#x25cf;" horiz-adv-x="820" 
d="M53 350q0 148 104.5 252.5t252.5 104.5t252.5 -104.5t104.5 -252.5t-104.5 -252.5t-252.5 -104.5t-252.5 104.5t-104.5 252.5z" />
    <glyph glyph-name="zero.dnom" horiz-adv-x="270" 
d="M75 105q0 -27 18 -45t43 -18q24 0 41.5 18t17.5 45v73q0 28 -17 46t-42 18t-43 -18t-18 -46v-73zM25 105v73q0 50 32.5 82t78.5 32t77.5 -32t31.5 -82v-73q0 -49 -31.5 -81t-77.5 -32t-78.5 32t-32.5 81z" />
    <glyph glyph-name="one.dnom" horiz-adv-x="192" 
d="M167 286v-286h-50v224l-58 -44l-34 38l90 68h52z" />
    <glyph glyph-name="two.dnom" horiz-adv-x="262" 
d="M236 188q0 44 -30.5 73t-73.5 29q-81 0 -107 -85l48 -17q15 52 59 52q23 0 38.5 -14.5t15.5 -37.5q0 -30 -64 -67l-96 -59v-62h211v47h-149l64 36q84 44 84 105z" />
    <glyph glyph-name="three.dnom" horiz-adv-x="262" 
d="M169 171l62 54v62h-194v-47h142l-74 -68l24 -37q58 0 58 -47q0 -19 -14.5 -31t-37.5 -12q-24 0 -40.5 15.5t-21.5 42.5l-48 -15q10 -42 39 -67.5t69 -25.5q45 0 74.5 27.5t29.5 70.5q0 33 -18.5 53.5t-49.5 24.5z" />
    <glyph glyph-name="four.dnom" horiz-adv-x="260" 
d="M72 107h79v114zM201 286v-179h34v-47h-34v-60h-50v60h-126v57l116 169h60z" />
    <glyph glyph-name="five.dnom" horiz-adv-x="270" 
d="M75 172v66h159v47h-209v-143l50 -20q31 36 67 36q23 0 38 -16.5t15 -42.5t-16.5 -41.5t-43.5 -15.5q-51 0 -62 48l-48 -15q11 -38 41.5 -60.5t70.5 -22.5q47 0 77.5 30t30.5 77q0 45 -27 76t-67 31q-44 0 -76 -34z" />
    <glyph glyph-name="six.dnom" horiz-adv-x="270" 
d="M206 205q-20 37 -60 37q-30 0 -49 -25t-22 -68q21 41 72 41q39 0 66.5 -29t27.5 -70q0 -42 -29.5 -70.5t-74.5 -28.5q-51 0 -81 39q-31 40 -31 104q0 70 34 113.5t89 43.5q67 0 97 -55zM85 93q0 -22 15.5 -36.5t38.5 -14.5t37.5 13.5t14.5 34.5q0 22 -15.5 36t-38.5 14
q-22 0 -37 -13.5t-15 -33.5z" />
    <glyph glyph-name="seven.dnom" horiz-adv-x="263" 
d="M149 0l89 229v57h-213v-47h166l-98 -239h56z" />
    <glyph glyph-name="eight.dnom" horiz-adv-x="268" 
d="M75 82q0 -17 17 -28.5t42 -11.5t42 11.5t17 28.5t-17 28.5t-42 11.5t-42 -11.5t-17 -28.5zM35 211q0 34 29 57.5t70 23.5t70 -23.5t29 -57.5q0 -46 -51 -66q61 -19 61 -69q0 -35 -31.5 -59.5t-77.5 -24.5t-77.5 24.5t-31.5 59.5q0 50 61 69q-51 20 -51 66zM134 166
q20 0 34.5 11.5t14.5 28.5q0 16 -13.5 26t-35.5 10t-35.5 -10t-13.5 -26q0 -17 14.5 -28.5t34.5 -11.5z" />
    <glyph glyph-name="nine.dnom" horiz-adv-x="270" 
d="M64 79q20 -37 60 -37q30 0 49 25t22 68q-21 -41 -72 -41q-39 0 -66.5 29t-27.5 70q0 42 29.5 70.5t74.5 28.5q51 0 81 -39q31 -40 31 -104q0 -70 -34 -113.5t-89 -43.5q-67 0 -97 55zM185 191q0 22 -15.5 36.5t-38.5 14.5t-37.5 -13.5t-14.5 -34.5q0 -22 15.5 -36
t38.5 -14q22 0 37 13.5t15 33.5z" />
    <glyph glyph-name="zero.numr" horiz-adv-x="270" 
d="M75 520q0 -27 18 -45t43 -18q24 0 41.5 18t17.5 45v73q0 28 -17 46t-42 18t-43 -18t-18 -46v-73zM25 520v73q0 49 32.5 81.5t78.5 32.5t77.5 -32t31.5 -82v-73q0 -49 -31.5 -81t-77.5 -32t-78.5 32t-32.5 81z" />
    <glyph glyph-name="one.numr" horiz-adv-x="192" 
d="M167 700v-286h-50v224l-58 -44l-34 38l90 68h52z" />
    <glyph glyph-name="two.numr" horiz-adv-x="262" 
d="M236 602q0 44 -30.5 73t-73.5 29q-81 0 -107 -85l48 -17q15 52 59 52q23 0 38.5 -14.5t15.5 -37.5q0 -30 -64 -67l-96 -59v-62h211v47h-149l64 36q84 44 84 105z" />
    <glyph glyph-name="three.numr" horiz-adv-x="262" 
d="M169 584l62 54v62h-194v-47h142l-74 -68l24 -37q58 0 58 -47q0 -19 -14.5 -31t-37.5 -12q-24 0 -40.5 15.5t-21.5 42.5l-48 -15q10 -42 39 -67.5t69 -25.5q45 0 74.5 27.5t29.5 70.5q0 33 -18.5 53.5t-49.5 24.5z" />
    <glyph glyph-name="four.numr" horiz-adv-x="260" 
d="M72 521h79v114zM201 700v-179h34v-47h-34v-60h-50v60h-126v57l116 169h60z" />
    <glyph glyph-name="five.numr" horiz-adv-x="270" 
d="M75 587v66h159v47h-209v-143l50 -20q31 36 67 36q23 0 38 -16.5t15 -42.5t-16.5 -41.5t-43.5 -15.5q-51 0 -62 48l-48 -15q11 -38 41.5 -60.5t70.5 -22.5q47 0 77.5 30t30.5 77q0 45 -27 76t-67 31q-44 0 -76 -34z" />
    <glyph glyph-name="six.numr" horiz-adv-x="270" 
d="M206 620q-20 37 -60 37q-30 0 -49 -25t-22 -68q21 41 72 41q39 0 66.5 -29t27.5 -70q0 -42 -29.5 -70.5t-74.5 -28.5q-51 0 -81 39q-31 40 -31 104q0 70 34 113.5t89 43.5q67 0 97 -55zM85 508q0 -22 15.5 -36.5t38.5 -14.5t37.5 13.5t14.5 34.5q0 22 -15.5 36t-38.5 14
q-22 0 -37 -13.5t-15 -33.5z" />
    <glyph glyph-name="seven.numr" horiz-adv-x="263" 
d="M149 414l89 229v57h-213v-47h166l-98 -239h56z" />
    <glyph glyph-name="eight.numr" horiz-adv-x="268" 
d="M75 497q0 -17 17 -28.5t42 -11.5t42 11.5t17 28.5t-17 28.5t-42 11.5t-42 -11.5t-17 -28.5zM35 626q0 34 29 57.5t70 23.5t70 -23.5t29 -57.5q0 -46 -51 -66q61 -19 61 -69q0 -35 -31.5 -59.5t-77.5 -24.5t-77.5 24.5t-31.5 59.5q0 50 61 69q-51 20 -51 66zM134 581
q20 0 34.5 11.5t14.5 28.5q0 16 -13.5 26t-35.5 10t-35.5 -10t-13.5 -26q0 -17 14.5 -28.5t34.5 -11.5z" />
    <glyph glyph-name="nine.numr" horiz-adv-x="270" 
d="M64 494q20 -37 60 -37q30 0 49 25t22 68q-21 -41 -72 -41q-39 0 -66.5 29t-27.5 70q0 42 29.5 70.5t74.5 28.5q51 0 81 -39q31 -40 31 -104q0 -70 -34 -113.5t-89 -43.5q-67 0 -97 55zM185 606q0 22 -15.5 36.5t-38.5 14.5t-37.5 -13.5t-14.5 -34.5q0 -22 15.5 -36
t38.5 -14q22 0 37 13.5t15 33.5z" />
    <glyph glyph-name="zero.tabl" horiz-adv-x="610" 
d="M91 303q0 -118 62 -194.5t152 -76.5t152 76.5t62 194.5v93q0 118 -62 194.5t-152 76.5t-152 -76.5t-62 -194.5v-93zM41 303v93q0 139 76.5 230t187.5 91t187.5 -91t76.5 -230v-93q0 -139 -76.5 -230t-187.5 -91t-187.5 91t-76.5 230z" />
    <glyph glyph-name="one.tabl" horiz-adv-x="610" 
d="M566 47v-47h-522v47h240v591l-208 -164l-33 35l240 191h51v-653h232z" />
    <glyph glyph-name="two.tabl" horiz-adv-x="610" 
d="M560 477q0 101 -73.5 167.5t-178.5 66.5q-101 0 -165.5 -56t-92.5 -145l48 -17q54 168 210 168q84 0 143 -52t59 -132q0 -24 -12 -50t-25 -44t-43 -44t-43 -36t-47 -36l-282 -205v-62h502v47h-438l248 182q40 30 62 48.5t57.5 53.5t53 71.5t17.5 74.5z" />
    <glyph glyph-name="three.tabl" horiz-adv-x="610" 
d="M334 430l226 208v62h-502v-47h450l-250 -232l26 -37q110 0 168 -49.5t58 -136.5q0 -69 -58 -114t-148 -45q-80 0 -134.5 39t-71.5 109l-48 -15q24 -82 91 -132.5t161 -50.5q113 0 185.5 60t72.5 154q0 95 -61 155t-165 72z" />
    <glyph glyph-name="four.tabl" horiz-adv-x="610" 
d="M94 270h305v362zM449 700v-430h117v-47h-117v-223h-50v223h-355v57l345 420h60z" />
    <glyph glyph-name="five.tabl" horiz-adv-x="610" 
d="M120 402v251h410v47h-460v-337l50 -20q88 99 198 99q79 0 130.5 -57t51.5 -145q0 -90 -55 -145.5t-144 -55.5q-74 0 -125 39.5t-68 108.5l-48 -15q24 -85 89.5 -134t154.5 -49q107 0 176.5 69t69.5 176t-66.5 181.5t-163.5 74.5q-112 0 -200 -88z" />
    <glyph glyph-name="six.tabl" horiz-adv-x="610" 
d="M521 580q-61 87 -179 87q-108 0 -175.5 -87t-76.5 -231q32 60 94.5 95.5t136.5 35.5q106 0 177.5 -71.5t71.5 -177.5q0 -107 -73 -178t-183 -71q-74 0 -136.5 34t-95.5 96q-42 80 -42 202q0 183 85.5 293t221.5 110q68 0 124.5 -28t88.5 -77zM100 238q0 -86 63.5 -146
t154.5 -60q87 0 144.5 57t57.5 143t-58.5 142t-149.5 56t-151.5 -55t-60.5 -137z" />
    <glyph glyph-name="seven.tabl" horiz-adv-x="610" 
d="M271 0l298 643v57h-528v-47h481l-307 -653h56z" />
    <glyph glyph-name="eight.tabl" horiz-adv-x="610" 
d="M96 181q0 -65 60.5 -107t148.5 -42t148.5 42t60.5 107q0 69 -60.5 113t-148.5 44t-148.5 -44t-60.5 -113zM66 524q0 84 69.5 139t169.5 55t169.5 -55t69.5 -139q0 -54 -33 -96.5t-88 -66.5q64 -25 102.5 -72t38.5 -108q0 -86 -75.5 -142.5t-183.5 -56.5t-183.5 56.5
t-75.5 142.5q0 61 38.5 108t102.5 72q-55 24 -88 66.5t-33 96.5zM305 382q79 0 134 40t55 102q0 63 -55 103.5t-134 40.5t-134 -40.5t-55 -103.5q0 -62 55 -102t134 -40z" />
    <glyph glyph-name="nine.tabl" horiz-adv-x="610" 
d="M89 119q61 -87 179 -87q108 0 175.5 87t76.5 231q-32 -60 -94.5 -95.5t-136.5 -35.5q-106 0 -177.5 71.5t-71.5 177.5q0 107 73 178t183 71q74 0 136.5 -34t95.5 -96q42 -79 42 -202q0 -183 -85.5 -293t-221.5 -110q-68 0 -124.5 28t-88.5 77zM510 461q0 86 -63.5 146
t-154.5 60q-87 0 -144.5 -57t-57.5 -143t58.5 -142t149.5 -56t151.5 55t60.5 137z" />
    <glyph glyph-name="zero.slsh" horiz-adv-x="648" 
d="M90 139l444 444l33 -38l-441 -441zM90 323q0 -127 68 -209t166 -82t166 82t68 209v53q0 127 -68 209t-166 82t-166 -82t-68 -209v-53zM40 323v53q0 148 82.5 244.5t201.5 96.5t201.5 -96.5t82.5 -244.5v-53q0 -148 -82.5 -244.5t-201.5 -96.5t-201.5 96.5t-82.5 244.5z
" />
    <glyph glyph-name="a.ss01" horiz-adv-x="638" 
d="M578 0h-50v500h50v-500zM528 251q0 96 -63.5 157.5t-155.5 61.5t-155.5 -61.5t-63.5 -157.5t63.5 -157.5t155.5 -61.5t155.5 61.5t63.5 157.5zM561 251q0 -117 -74.5 -193t-181.5 -76q-111 0 -188 76t-77 193t77 193t188 76q107 0 181.5 -76t74.5 -193z" />
    <glyph glyph-name="agrave.ss01" horiz-adv-x="638" 
d="M177 726l36 37l162 -162l-32 -33zM578 0h-50v500h50v-500zM528 251q0 96 -63.5 157.5t-155.5 61.5t-155.5 -61.5t-63.5 -157.5t63.5 -157.5t155.5 -61.5t155.5 61.5t63.5 157.5zM561 251q0 -117 -74.5 -193t-181.5 -76q-111 0 -188 76t-77 193t77 193t188 76
q107 0 181.5 -76t74.5 -193z" />
    <glyph glyph-name="aacute.ss01" horiz-adv-x="638" 
d="M429 726l-36 37l-162 -162l32 -33zM578 0h-50v500h50v-500zM528 251q0 96 -63.5 157.5t-155.5 61.5t-155.5 -61.5t-63.5 -157.5t63.5 -157.5t155.5 -61.5t155.5 61.5t63.5 157.5zM561 251q0 -117 -74.5 -193t-181.5 -76q-111 0 -188 76t-77 193t77 193t188 76
q107 0 181.5 -76t74.5 -193z" />
    <glyph glyph-name="acircumflex.ss01" horiz-adv-x="638" 
d="M293 760l-154 -162l41 -30l123 132l123 -132l41 30l-154 162h-20zM578 0h-50v500h50v-500zM528 251q0 96 -63.5 157.5t-155.5 61.5t-155.5 -61.5t-63.5 -157.5t63.5 -157.5t155.5 -61.5t155.5 61.5t63.5 157.5zM561 251q0 -117 -74.5 -193t-181.5 -76q-111 0 -188 76
t-77 193t77 193t188 76q107 0 181.5 -76t74.5 -193z" />
    <glyph glyph-name="atilde.ss01" horiz-adv-x="638" 
d="M229 702q-34 0 -60 -29.5t-38 -80.5l44 -18q15 79 53 79q15 0 27 -8t33 -32q42 -45 88 -45q35 0 61.5 29.5t37.5 80.5l-44 18q-16 -76 -58 -76q-15 0 -27 7.5t-33 31.5q-42 43 -84 43zM578 0h-50v500h50v-500zM528 251q0 96 -63.5 157.5t-155.5 61.5t-155.5 -61.5
t-63.5 -157.5t63.5 -157.5t155.5 -61.5t155.5 61.5t63.5 157.5zM561 251q0 -117 -74.5 -193t-181.5 -76q-111 0 -188 76t-77 193t77 193t188 76q107 0 181.5 -76t74.5 -193z" />
    <glyph glyph-name="adieresis.ss01" horiz-adv-x="638" 
d="M353 607q0 17 11 28t28 11t28 -11t11 -28t-11 -28t-28 -11t-28 11t-11 28zM173 607q0 17 11 28t28 11t28 -11t11 -28t-11 -28t-28 -11t-28 11t-11 28zM578 0h-50v500h50v-500zM528 251q0 96 -63.5 157.5t-155.5 61.5t-155.5 -61.5t-63.5 -157.5t63.5 -157.5t155.5 -61.5
t155.5 61.5t63.5 157.5zM561 251q0 -117 -74.5 -193t-181.5 -76q-111 0 -188 76t-77 193t77 193t188 76q107 0 181.5 -76t74.5 -193z" />
    <glyph glyph-name="aring.ss01" horiz-adv-x="638" 
d="M250 667q0 -23 15.5 -38t37.5 -15t37.5 15t15.5 38t-15.5 38t-37.5 15t-37.5 -15t-15.5 -38zM204 667q0 43 29 71t70 28t70 -28t29 -71t-29 -71t-70 -28t-70 28t-29 71zM578 0h-50v500h50v-500zM528 251q0 96 -63.5 157.5t-155.5 61.5t-155.5 -61.5t-63.5 -157.5
t63.5 -157.5t155.5 -61.5t155.5 61.5t63.5 157.5zM561 251q0 -117 -74.5 -193t-181.5 -76q-111 0 -188 76t-77 193t77 193t188 76q107 0 181.5 -76t74.5 -193z" />
    <glyph glyph-name="ae.ss01" horiz-adv-x="1098" 
d="M1008 275q-5 85 -63.5 140t-144.5 55q-84 0 -142.5 -54.5t-66.5 -140.5h417zM591 228q8 -86 68 -141t146 -55q63 0 114 31.5t77 85.5l46 -19q-32 -68 -95.5 -108t-140.5 -40q-109 0 -182.5 77t-73.5 193q0 115 72.5 191.5t180.5 76.5q107 0 181 -74t74 -182q0 -14 -2 -36
h-465zM578 0h-50v500h50v-500zM528 251q0 94 -62.5 156.5t-156.5 62.5t-156.5 -62.5t-62.5 -156.5t62.5 -156.5t156.5 -62.5t156.5 62.5t62.5 156.5zM561 251q0 -115 -74 -192t-185 -77t-186.5 77.5t-75.5 191.5t75.5 191.5t186.5 77.5t185 -77t74 -192z" />
    <glyph glyph-name="amacron.ss01" horiz-adv-x="638" 
d="M453 625v-47h-292v47h292zM578 0h-50v500h50v-500zM528 251q0 96 -63.5 157.5t-155.5 61.5t-155.5 -61.5t-63.5 -157.5t63.5 -157.5t155.5 -61.5t155.5 61.5t63.5 157.5zM561 251q0 -117 -74.5 -193t-181.5 -76q-111 0 -188 76t-77 193t77 193t188 76q107 0 181.5 -76
t74.5 -193z" />
    <glyph glyph-name="abreve.ss01" horiz-adv-x="638" 
d="M302 579q-62 0 -106 41.5t-44 100.5h47q0 -42 29.5 -69.5t74.5 -27.5q46 0 78 28.5t32 68.5h47q0 -57 -47 -99.5t-111 -42.5zM578 0h-50v500h50v-500zM528 251q0 96 -63.5 157.5t-155.5 61.5t-155.5 -61.5t-63.5 -157.5t63.5 -157.5t155.5 -61.5t155.5 61.5t63.5 157.5z
M561 251q0 -117 -74.5 -193t-181.5 -76q-111 0 -188 76t-77 193t77 193t188 76q107 0 181.5 -76t74.5 -193z" />
    <glyph glyph-name="aogonek.ss01" horiz-adv-x="638" 
d="M482 -18v19h40v-39l-53 -32q-33 -22 -33 -57q0 -23 15 -37.5t38 -14.5q40 0 50 43l38 -15q-9 -32 -33 -50t-57 -18q-41 0 -67 25.5t-26 66.5q0 58 67 95zM578 0h-50v500h50v-500zM528 251q0 96 -63.5 157.5t-155.5 61.5t-155.5 -61.5t-63.5 -157.5t63.5 -157.5
t155.5 -61.5t155.5 61.5t63.5 157.5zM561 251q0 -117 -74.5 -193t-181.5 -76q-111 0 -188 76t-77 193t77 193t188 76q107 0 181.5 -76t74.5 -193z" />
    <glyph glyph-name="uni1EA1.ss01" horiz-adv-x="638" 
d="M275 -130q0 16 11 27.5t28 11.5t28 -11.5t11 -27.5t-11 -27.5t-28 -11.5t-28 11.5t-11 27.5zM578 0h-50v500h50v-500zM528 251q0 96 -63.5 157.5t-155.5 61.5t-155.5 -61.5t-63.5 -157.5t63.5 -157.5t155.5 -61.5t155.5 61.5t63.5 157.5zM561 251q0 -117 -74.5 -193
t-181.5 -76q-111 0 -188 76t-77 193t77 193t188 76q107 0 181.5 -76t74.5 -193z" />
    <glyph glyph-name="uni1EA3.ss01" horiz-adv-x="638" 
d="M303 558l-28 36l34 23q33 19 33 50q0 20 -13 32.5t-33 12.5q-37 0 -45 -36l-43 15q9 32 33 50t57 18q41 0 67 -25.5t26 -66.5q0 -30 -16 -51t-51 -44zM578 0h-50v500h50v-500zM528 251q0 96 -63.5 157.5t-155.5 61.5t-155.5 -61.5t-63.5 -157.5t63.5 -157.5t155.5 -61.5
t155.5 61.5t63.5 157.5zM561 251q0 -117 -74.5 -193t-181.5 -76q-111 0 -188 76t-77 193t77 193t188 76q107 0 181.5 -76t74.5 -193z" />
    <glyph glyph-name="uni1EA5.ss01" horiz-adv-x="638" 
d="M606 859l-36 37l-162 -162l32 -33zM293 760l-154 -162l41 -30l123 132l123 -132l41 30l-154 162h-20zM578 0h-50v500h50v-500zM528 251q0 96 -63.5 157.5t-155.5 61.5t-155.5 -61.5t-63.5 -157.5t63.5 -157.5t155.5 -61.5t155.5 61.5t63.5 157.5zM561 251
q0 -117 -74.5 -193t-181.5 -76q-111 0 -188 76t-77 193t77 193t188 76q107 0 181.5 -76t74.5 -193z" />
    <glyph glyph-name="uni1EA7.ss01" horiz-adv-x="638" 
d="M354 859l36 37l162 -162l-32 -33zM293 760l-154 -162l41 -30l123 132l123 -132l41 30l-154 162h-20zM578 0h-50v500h50v-500zM528 251q0 96 -63.5 157.5t-155.5 61.5t-155.5 -61.5t-63.5 -157.5t63.5 -157.5t155.5 -61.5t155.5 61.5t63.5 157.5zM561 251
q0 -117 -74.5 -193t-181.5 -76q-111 0 -188 76t-77 193t77 193t188 76q107 0 181.5 -76t74.5 -193z" />
    <glyph glyph-name="uni1EA9.ss01" horiz-adv-x="638" 
d="M480 691l-28 36l34 23q33 19 33 50q0 20 -13 32.5t-33 12.5q-37 0 -45 -36l-43 15q9 32 33 50t57 18q41 0 67 -25.5t26 -66.5q0 -30 -16 -51t-51 -44zM293 760l-154 -162l41 -30l123 132l123 -132l41 30l-154 162h-20zM578 0h-50v500h50v-500zM528 251q0 96 -63.5 157.5
t-155.5 61.5t-155.5 -61.5t-63.5 -157.5t63.5 -157.5t155.5 -61.5t155.5 61.5t63.5 157.5zM561 251q0 -117 -74.5 -193t-181.5 -76q-111 0 -188 76t-77 193t77 193t188 76q107 0 181.5 -76t74.5 -193z" />
    <glyph glyph-name="uni1EAB.ss01" horiz-adv-x="638" 
d="M229 974q-34 0 -60 -29.5t-38 -80.5l44 -18q15 79 53 79q15 0 27 -8t33 -32q42 -45 88 -45q35 0 61.5 29.5t37.5 80.5l-44 18q-16 -76 -58 -76q-15 0 -27 7.5t-33 31.5q-42 43 -84 43zM293 760l-154 -162l41 -30l123 132l123 -132l41 30l-154 162h-20zM578 0h-50v500h50
v-500zM528 251q0 96 -63.5 157.5t-155.5 61.5t-155.5 -61.5t-63.5 -157.5t63.5 -157.5t155.5 -61.5t155.5 61.5t63.5 157.5zM561 251q0 -117 -74.5 -193t-181.5 -76q-111 0 -188 76t-77 193t77 193t188 76q107 0 181.5 -76t74.5 -193z" />
    <glyph glyph-name="uni1EAD.ss01" horiz-adv-x="638" 
d="M293 760l-154 -162l41 -30l123 132l123 -132l41 30l-154 162h-20zM275 -130q0 16 11 27.5t28 11.5t28 -11.5t11 -27.5t-11 -27.5t-28 -11.5t-28 11.5t-11 27.5zM578 0h-50v500h50v-500zM528 251q0 96 -63.5 157.5t-155.5 61.5t-155.5 -61.5t-63.5 -157.5t63.5 -157.5
t155.5 -61.5t155.5 61.5t63.5 157.5zM561 251q0 -117 -74.5 -193t-181.5 -76q-111 0 -188 76t-77 193t77 193t188 76q107 0 181.5 -76t74.5 -193z" />
    <glyph glyph-name="uni1EAF.ss01" horiz-adv-x="638" 
d="M472 932l-36 37l-162 -162l32 -33zM302 579q-62 0 -106 41.5t-44 100.5h47q0 -42 29.5 -69.5t74.5 -27.5q46 0 78 28.5t32 68.5h47q0 -57 -47 -99.5t-111 -42.5zM578 0h-50v500h50v-500zM528 251q0 96 -63.5 157.5t-155.5 61.5t-155.5 -61.5t-63.5 -157.5t63.5 -157.5
t155.5 -61.5t155.5 61.5t63.5 157.5zM561 251q0 -117 -74.5 -193t-181.5 -76q-111 0 -188 76t-77 193t77 193t188 76q107 0 181.5 -76t74.5 -193z" />
    <glyph glyph-name="uni1EB1.ss01" horiz-adv-x="638" 
d="M140 932l36 37l162 -162l-32 -33zM302 579q-62 0 -106 41.5t-44 100.5h47q0 -42 29.5 -69.5t74.5 -27.5q46 0 78 28.5t32 68.5h47q0 -57 -47 -99.5t-111 -42.5zM578 0h-50v500h50v-500zM528 251q0 96 -63.5 157.5t-155.5 61.5t-155.5 -61.5t-63.5 -157.5t63.5 -157.5
t155.5 -61.5t155.5 61.5t63.5 157.5zM561 251q0 -117 -74.5 -193t-181.5 -76q-111 0 -188 76t-77 193t77 193t188 76q107 0 181.5 -76t74.5 -193z" />
    <glyph glyph-name="uni1EB3.ss01" horiz-adv-x="638" 
d="M306 774l-28 36l34 23q33 19 33 50q0 20 -13 32.5t-33 12.5q-37 0 -45 -36l-43 15q9 32 33 50t57 18q41 0 67 -25.5t26 -66.5q0 -30 -16 -51t-51 -44zM302 579q-62 0 -106 41.5t-44 100.5h47q0 -42 29.5 -69.5t74.5 -27.5q46 0 78 28.5t32 68.5h47q0 -57 -47 -99.5
t-111 -42.5zM578 0h-50v500h50v-500zM528 251q0 96 -63.5 157.5t-155.5 61.5t-155.5 -61.5t-63.5 -157.5t63.5 -157.5t155.5 -61.5t155.5 61.5t63.5 157.5zM561 251q0 -117 -74.5 -193t-181.5 -76q-111 0 -188 76t-77 193t77 193t188 76q107 0 181.5 -76t74.5 -193z" />
    <glyph glyph-name="uni1EB5.ss01" horiz-adv-x="638" 
d="M232 908q-34 0 -60 -29.5t-38 -80.5l44 -18q15 79 53 79q15 0 27 -8t33 -32q42 -45 88 -45q35 0 61.5 29.5t37.5 80.5l-44 18q-16 -76 -58 -76q-15 0 -27 7.5t-33 31.5q-42 43 -84 43zM302 579q-62 0 -106 41.5t-44 100.5h47q0 -42 29.5 -69.5t74.5 -27.5q46 0 78 28.5
t32 68.5h47q0 -57 -47 -99.5t-111 -42.5zM578 0h-50v500h50v-500zM528 251q0 96 -63.5 157.5t-155.5 61.5t-155.5 -61.5t-63.5 -157.5t63.5 -157.5t155.5 -61.5t155.5 61.5t63.5 157.5zM561 251q0 -117 -74.5 -193t-181.5 -76q-111 0 -188 76t-77 193t77 193t188 76
q107 0 181.5 -76t74.5 -193z" />
    <glyph glyph-name="uni1EB7.ss01" horiz-adv-x="638" 
d="M302 579q-62 0 -106 41.5t-44 100.5h47q0 -42 29.5 -69.5t74.5 -27.5q46 0 78 28.5t32 68.5h47q0 -57 -47 -99.5t-111 -42.5zM275 -130q0 16 11 27.5t28 11.5t28 -11.5t11 -27.5t-11 -27.5t-28 -11.5t-28 11.5t-11 27.5zM578 0h-50v500h50v-500zM528 251
q0 96 -63.5 157.5t-155.5 61.5t-155.5 -61.5t-63.5 -157.5t63.5 -157.5t155.5 -61.5t155.5 61.5t63.5 157.5zM561 251q0 -117 -74.5 -193t-181.5 -76q-111 0 -188 76t-77 193t77 193t188 76q107 0 181.5 -76t74.5 -193z" />
    <glyph glyph-name="G.ss02" horiz-adv-x="797" 
d="M90 351q0 -139 88.5 -229t215.5 -90q123 0 210.5 80t92.5 206h-321v49h371v-367h-50v165q-44 -85 -125 -134t-178 -49q-148 0 -251 104.5t-103 264.5t103 264.5t251 104.5q103 0 188 -57.5t129 -155.5l-45 -20q-38 85 -111 134t-161 49q-127 0 -215.5 -90t-88.5 -229z
" />
    <glyph glyph-name="Gcircumflex.ss02" horiz-adv-x="797" 
d="M384 969l-154 -162l41 -30l123 132l123 -132l41 30l-154 162h-20zM90 351q0 -139 88.5 -229t215.5 -90q123 0 210.5 80t92.5 206h-321v49h371v-367h-50v165q-44 -85 -125 -134t-178 -49q-148 0 -251 104.5t-103 264.5t103 264.5t251 104.5q103 0 188 -57.5t129 -155.5
l-45 -20q-38 85 -111 134t-161 49q-127 0 -215.5 -90t-88.5 -229z" />
    <glyph glyph-name="Gbreve.ss02" horiz-adv-x="797" 
d="M393 788q-62 0 -106 41.5t-44 100.5h47q0 -42 29.5 -69.5t74.5 -27.5q46 0 78 28.5t32 68.5h47q0 -57 -47 -99.5t-111 -42.5zM90 351q0 -139 88.5 -229t215.5 -90q123 0 210.5 80t92.5 206h-321v49h371v-367h-50v165q-44 -85 -125 -134t-178 -49q-148 0 -251 104.5
t-103 264.5t103 264.5t251 104.5q103 0 188 -57.5t129 -155.5l-45 -20q-38 85 -111 134t-161 49q-127 0 -215.5 -90t-88.5 -229z" />
    <glyph glyph-name="Gdotaccent.ss02" horiz-adv-x="797" 
d="M355 816q0 17 11 28t28 11t28 -11t11 -28t-11 -28t-28 -11t-28 11t-11 28zM90 351q0 -139 88.5 -229t215.5 -90q123 0 210.5 80t92.5 206h-321v49h371v-367h-50v165q-44 -85 -125 -134t-178 -49q-148 0 -251 104.5t-103 264.5t103 264.5t251 104.5q103 0 188 -57.5
t129 -155.5l-45 -20q-38 85 -111 134t-161 49q-127 0 -215.5 -90t-88.5 -229z" />
    <glyph glyph-name="uni0122.ss02" horiz-adv-x="797" 
d="M428 -185q0 -20 -13.5 -34.5t-34.5 -14.5t-35.5 14t-14.5 34q0 19 10 32l75 107l31 -23l-49 -69q31 -13 31 -46zM90 351q0 -139 88.5 -229t215.5 -90q123 0 210.5 80t92.5 206h-321v49h371v-367h-50v165q-44 -85 -125 -134t-178 -49q-148 0 -251 104.5t-103 264.5
t103 264.5t251 104.5q103 0 188 -57.5t129 -155.5l-45 -20q-38 85 -111 134t-161 49q-127 0 -215.5 -90t-88.5 -229z" />
    </font>
</defs>
</svg>
