<?xml version="1.0" standalone="no"?>
<!DOCTYPE svg PUBLIC "-//W3C//DTD SVG 1.1//EN" "http://www.w3.org/Graphics/SVG/1.1/DTD/svg11.dtd" >
<svg xmlns="http://www.w3.org/2000/svg" xmlns:xlink="http://www.w3.org/1999/xlink" version="1.1">
<metadata>
Created by FontForge 20201107 at Sat Feb 25 09:18:39 2023
 By 
Copyright (c) 2022, RandomMaerks (Bao Nguyen) || For more information, send an email to rmforbusuness@gmail.com
</metadata>
<defs>
<font id="Cygre-Medium" horiz-adv-x="207" >
  <font-face 
    font-family="Cygre Medium"
    font-weight="500"
    font-stretch="normal"
    units-per-em="1000"
    panose-1="2 0 6 3 0 0 0 0 0 0"
    ascent="800"
    descent="-200"
    x-height="500"
    cap-height="700"
    bbox="-148 -290 1303 1235"
    underline-thickness="50"
    underline-position="-100"
    unicode-range="U+0020-25CF"
  />
<missing-glyph horiz-adv-x="364" 
d="M33 0v666h265v-666h-265zM66 33h199v600h-199v-600z" />
    <glyph glyph-name="f_i" unicode="fi" horiz-adv-x="589" 
d="M320 661q-40 0 -63.5 -25t-23.5 -67v-69h301l-70 -88h-231v-412h-95v412h-110v88h110v90q0 66 49.5 113t118.5 47h67v-89h-53zM425 638.5q0 26.5 18 44t44 17.5t43.5 -17.5t17.5 -44t-17.5 -44t-43.5 -17.5t-44 17.5t-18 44zM439 0v494l95 6v-500h-95z" />
    <glyph glyph-name="f_l" unicode="fl" horiz-adv-x="617" 
d="M320 661q-40 0 -63.5 -25t-23.5 -67v-69h160v-88h-160v-412h-95v412h-110v88h110v90q0 66 49.5 113t118.5 47h255l-70 -89h-171zM466 0v744l95 6v-750h-95z" />
    <glyph glyph-name="f_f_i" unicode="ffi" horiz-adv-x="956" 
d="M320 661q-40 0 -63.5 -25t-23.5 -67v-69h167v-88h-167v-412h-95v412h-110v88h110v90q0 66 49.5 113t118.5 47h67v-89h-53zM684 661q-40 0 -63 -25t-23 -67v-69h303l-64 -88h-239v-412h-95v412h-103v88h103v90q0 66 49 113t119 47h66v-89h-53zM792 638.5q0 26.5 18 44
t44 17.5t43.5 -17.5t17.5 -44t-17.5 -44t-43.5 -17.5t-44 17.5t-18 44zM806 0v499l95 1v-500h-95z" />
    <glyph glyph-name="f_f_l" unicode="ffl" horiz-adv-x="989" 
d="M320 661q-40 0 -63.5 -25t-23.5 -67v-69h167v-88h-167v-412h-95v412h-110v88h110v90q0 66 49.5 113t118.5 47h67v-89h-53zM692 661q-40 0 -63.5 -25t-23.5 -67v-69h160v-88h-160v-412h-95v412h-110v88h110v90q0 66 49.5 113t118.5 47h255l-65 -89h-176zM838 0v749l95 1
v-750h-95z" />
    <glyph glyph-name="f_f" unicode="ff" horiz-adv-x="789" 
d="M320 661q-40 0 -63.5 -25t-23.5 -67v-69h160v-88h-160v-412h-95v412h-110v88h110v90q0 66 49.5 113t118.5 47h67v-89h-53zM684 661q-40 0 -63 -25t-23 -67v-69h159v-88h-159v-412h-95v412h-110v88h110v90q0 66 49 113t119 47h66v-89h-53z" />
    <glyph glyph-name=".notdef" horiz-adv-x="364" 
d="M33 0v666h265v-666h-265zM66 33h199v600h-199v-600z" />
    <glyph glyph-name=".null" horiz-adv-x="0" 
 />
    <glyph glyph-name="nonmarkingreturn" horiz-adv-x="333" 
 />
    <glyph glyph-name="space" unicode=" " horiz-adv-x="270" 
 />
    <glyph glyph-name="exclam" unicode="!" horiz-adv-x="206" 
d="M146 206h-88l-7 494h102zM32 58q0 31 20 51.5t50 20.5q31 0 52 -20.5t21 -51.5t-20.5 -51.5t-51 -20.5t-51 20.5t-20.5 51.5z" />
    <glyph glyph-name="quotedbl" unicode="&#x22;" horiz-adv-x="353" 
d="M236 761l87 -24l-59 -232l-82 22zM84 761l88 -24l-59 -232l-83 22z" />
    <glyph glyph-name="numbersign" unicode="#" horiz-adv-x="697" 
d="M670 520v-92h-642v92h642zM670 295v-92h-642v92h642zM394 0h-106l276 700h106zM134 0h-106l276 700h106z" />
    <glyph glyph-name="dollar" unicode="$" horiz-adv-x="456" 
d="M214 315q-178 30 -178 151q0 65 51 108.5t128 43.5q68 0 124 -36t81 -97l-91 -29q-15 35 -45 56t-68 21q-36 0 -60.5 -18.5t-24.5 -46.5q0 -25 24.5 -41.5t79.5 -26.5q91 -16 138 -55.5t47 -100.5q0 -65 -50 -107.5t-127 -42.5q-69 0 -125.5 36t-81.5 97l91 29
q15 -37 45.5 -58.5t67.5 -21.5t61 19t24 47t-26.5 45.5t-84.5 27.5zM185 596v104h87v-104h-87zM185 118h87v-118h-87v118z" />
    <glyph glyph-name="percent" unicode="%" horiz-adv-x="914" 
d="M598 178q0 -44 29.5 -72t71.5 -28t71 28t29 72t-29 72t-71 28t-71.5 -28t-29.5 -72zM511 177.5q0 81.5 54.5 135t133 53.5t133 -53.5t54.5 -135t-54.5 -134.5t-133 -53t-133 53t-54.5 134.5zM116 522q0 -44 29 -72t71 -28t71 28t29 72t-29 72t-71 28t-71 -28t-29 -72z
M28 522.5q0 81.5 54.5 134.5t133.5 53t133.5 -53t54.5 -134.5t-54.5 -135t-133.5 -53.5t-133.5 53.5t-54.5 135zM367 0h-106l287 700h106z" />
    <glyph glyph-name="ampersand" unicode="&#x26;" horiz-adv-x="664" 
d="M244 636q32 0 53 -19t21 -49q0 -49 -52 -95l-47 -42l-24 29q-24 29 -33 48t-9 40q0 37 26.5 62.5t64.5 25.5zM246 722q-77 0 -130 -50t-53 -122q0 -76 69 -149l28 -29l-62 -57q-67 -56 -67 -141q0 -82 61.5 -137.5t152.5 -55.5q93 0 148 60l49 51l111 -117l64 60
l-109 115l97 96l-65 66l-96 -95l-161 159l48 42q36 29 56 70.5t20 83.5q0 65 -45.5 107.5t-115.5 42.5zM220 313l157 -155l-44 -45q-37 -37 -90 -37q-48 0 -80.5 30.5t-32.5 75.5t40 81z" />
    <glyph glyph-name="quotesingle" unicode="'" horiz-adv-x="202" 
d="M84 761l88 -24l-59 -232l-83 22z" />
    <glyph glyph-name="parenleft" unicode="(" horiz-adv-x="295" 
d="M36 253v213q0 109 51.5 188.5t134.5 106.5l35 -91q-55 -17 -90.5 -74.5t-35.5 -137.5v-198q0 -83 38.5 -141.5t97.5 -72.5l-34 -91q-86 24 -141.5 104.5t-55.5 193.5z" />
    <glyph glyph-name="parenright" unicode=")" horiz-adv-x="295" 
d="M259 463v-213q0 -109 -51.5 -188.5t-134.5 -106.5l-35 91q56 17 91 74.5t35 137.5v198q0 83 -38.5 141.5t-97.5 72.5l34 91q87 -24 142 -104.5t55 -193.5z" />
    <glyph glyph-name="asterisk" unicode="*" horiz-adv-x="493" 
d="M202 800h89l-4 -160l151 54l27 -86l-153 -45l98 -127l-73 -52l-90 131l-91 -131l-72 52l98 127l-154 45l28 86l150 -54z" />
    <glyph glyph-name="plus" unicode="+" horiz-adv-x="389" 
d="M152 433h87v-124h122v-85h-122v-124h-87v124h-124v85h124v124z" />
    <glyph glyph-name="comma" unicode="," horiz-adv-x="210" 
d="M81 118l96 -19l-61 -255l-79 15z" />
    <glyph glyph-name="hyphen" unicode="-" horiz-adv-x="389" 
d="M361 309v-85h-333v85h333z" />
    <glyph glyph-name="period" unicode="." horiz-adv-x="210" 
d="M34 58q0 31 20 51.5t50 20.5q31 0 52 -20.5t21 -51.5t-20.5 -51.5t-51 -20.5t-51 20.5t-20.5 51.5z" />
    <glyph glyph-name="slash" unicode="/" horiz-adv-x="438" 
d="M134 0h-106l276 700h106z" />
    <glyph glyph-name="zero" unicode="0" horiz-adv-x="648" 
d="M131 323q0 -108 56 -177t137 -69t137 69t56 177v53q0 108 -56 177t-137 69t-137 -69t-56 -177v-53zM36 323v53q0 148 83.5 244.5t204.5 96.5t204.5 -96.5t83.5 -244.5v-53q0 -148 -83.5 -244.5t-204.5 -96.5t-204.5 96.5t-83.5 244.5z" />
    <glyph glyph-name="one" unicode="1" horiz-adv-x="391" 
d="M336 700v-700h-95v590l-157 -119l-56 75l208 154h100z" />
    <glyph glyph-name="two" unicode="2" horiz-adv-x="571" 
d="M535 473q0 103 -71.5 170.5t-174.5 67.5q-98 0 -161.5 -56t-91.5 -145l93 -28q40 134 160 134q63 0 107 -40t44 -103q0 -21 -10 -42.5t-21 -36.5t-36 -37t-37 -31.5t-42 -31.5l-249 -183v-111h490v92h-363l197 146q166 124 166 235z" />
    <glyph glyph-name="three" unicode="3" horiz-adv-x="571" 
d="M348 426l187 163v111h-490v-92h381l-202 -180l25 -66q91 0 141 -41t50 -111q0 -55 -43.5 -90.5t-111.5 -35.5q-62 0 -104 32t-55 90l-90 -30q24 -85 90.5 -136t158.5 -51q110 0 180 62t70 159q0 88 -51 146t-136 70z" />
    <glyph glyph-name="four" unicode="4" horiz-adv-x="600" 
d="M127 292h241v288zM463 700v-408h110v-92h-110v-200h-95v200h-340v106l326 394h109z" />
    <glyph glyph-name="five" unicode="5" horiz-adv-x="571" 
d="M141 413v195h374v92h-469v-352l95 -28q32 37 73 57t82 20q62 0 103 -44.5t41 -112.5q0 -70 -44 -113t-114 -43q-59 0 -99.5 31.5t-53.5 86.5l-93 -30q25 -85 91 -134t157 -49q110 0 180.5 69.5t70.5 178.5q0 104 -63.5 176.5t-154.5 72.5q-46 0 -92.5 -19.5t-83.5 -53.5z
" />
    <glyph glyph-name="six" unicode="6" horiz-adv-x="610" 
d="M504 546q-55 76 -163 76q-89 0 -145.5 -70.5t-64.5 -187.5q28 53 83 84.5t121 31.5q101 0 170 -71.5t69 -175.5q0 -108 -74 -179.5t-186 -71.5q-76 0 -139 34.5t-97 96.5q-42 78 -42 201q0 182 86.5 292.5t224.5 110.5q69 0 126.5 -28t90.5 -77zM141 237q0 -66 51.5 -113
t124.5 -47q70 0 116 44t46 111t-47 110t-120.5 43t-122 -42t-48.5 -106z" />
    <glyph glyph-name="seven" unicode="7" horiz-adv-x="526" 
d="M256 0l243 598v102h-471v-92h375l-252 -608h105z" />
    <glyph glyph-name="eight" unicode="8" horiz-adv-x="598" 
d="M131 193q0 -50 48.5 -83t119.5 -33t119.5 33t48.5 83q0 53 -48.5 88t-119.5 35t-119.5 -35t-48.5 -88zM56 523q0 84 70.5 139.5t172.5 55.5t172.5 -55.5t70.5 -139.5q0 -52 -30.5 -95t-83.5 -67q61 -25 97.5 -72t36.5 -106q0 -87 -76 -144t-187 -57t-187 57t-76 144
q0 59 36.5 106t97.5 72q-53 24 -83.5 67t-30.5 95zM299 404q62 0 105 31t43 78q0 48 -43 79t-105 31t-105 -31t-43 -79q0 -47 43 -78t105 -31z" />
    <glyph glyph-name="nine" unicode="9" horiz-adv-x="610" 
d="M106 154q55 -77 163 -77q89 0 145.5 70.5t64.5 187.5q-28 -53 -83 -84.5t-121 -31.5q-101 0 -170 71.5t-69 175.5q0 108 74 179.5t186 71.5q76 0 139 -34.5t97 -96.5q42 -78 42 -201q0 -182 -86.5 -292.5t-224.5 -110.5q-69 0 -126.5 28t-90.5 77zM469 462
q0 66 -51.5 113t-124.5 47q-70 0 -116 -44t-46 -111t47 -110t120.5 -43t122 42t48.5 106z" />
    <glyph glyph-name="colon" unicode=":" horiz-adv-x="210" 
d="M34 400q0 31 20 51.5t50 20.5q31 0 52 -20.5t21 -51.5t-20.5 -51.5t-51 -20.5t-51 20.5t-20.5 51.5zM34 58q0 31 20 51.5t50 20.5q31 0 52 -20.5t21 -51.5t-20.5 -51.5t-51 -20.5t-51 20.5t-20.5 51.5z" />
    <glyph glyph-name="semicolon" unicode=";" horiz-adv-x="210" 
d="M34 400q0 31 20 51.5t50 20.5q31 0 52 -20.5t21 -51.5t-20.5 -51.5t-51 -20.5t-51 20.5t-20.5 51.5zM74 118l103 -19l-67 -255l-73 15z" />
    <glyph glyph-name="less" unicode="&#x3c;" horiz-adv-x="503" 
d="M468 146v-101l-432 161v124l432 162v-101l-345 -121z" />
    <glyph glyph-name="equal" unicode="=" horiz-adv-x="389" 
d="M361 220v-84h-333v84h333zM361 409v-85h-333v85h333z" />
    <glyph glyph-name="greater" unicode="&#x3e;" horiz-adv-x="503" 
d="M36 391v101l432 -162v-124l-432 -161v101l345 121z" />
    <glyph glyph-name="question" unicode="?" horiz-adv-x="551" 
d="M209 58q0 31 20 51.5t51 20.5q30 0 51 -20.5t21 -51.5t-20.5 -51.5t-51 -20.5t-51 20.5t-20.5 51.5zM511 484q0 99 -67 163t-166 64q-89 0 -150 -52t-88 -139l89 -32q38 128 149 128q59 0 98.5 -37t39.5 -95q0 -66 -91 -138l-96 -64l40 -78l100 66q61 39 101.5 93.5
t40.5 120.5z" />
    <glyph glyph-name="at" unicode="@" horiz-adv-x="793" 
d="M482 351q0 40 -26.5 66.5t-66.5 26.5t-66.5 -26.5t-26.5 -66.5t26.5 -66.5t66.5 -26.5t66.5 26.5t26.5 66.5zM510 351q0 -73 -40.5 -121t-102.5 -48q-64 0 -107.5 49t-43.5 120t43.5 120t107.5 49q62 0 102.5 -48t40.5 -121zM764 372q0 -88 -41.5 -141t-111.5 -53
q-52 0 -90.5 27.5t-38.5 64.5v230h80v-195q0 -26 13 -40.5t37 -14.5q34 0 53 29.5t19 82.5q0 120 -82 201t-204 81q-124 0 -206.5 -84t-82.5 -210t83.5 -210.5t210.5 -85.5q102 0 185 58l38 -65q-100 -69 -226 -69q-105 0 -190 48.5t-133 134t-48 190t48 190t133 134.5
t188 49q101 0 185 -46.5t132.5 -127.5t48.5 -178z" />
    <glyph glyph-name="A" unicode="A" horiz-adv-x="770" 
d="M181 270h407v-89h-407v89zM139 0h-109l293 700h124l293 -700h-108l-246 601z" />
    <glyph glyph-name="B" unicode="B" horiz-adv-x="651" 
d="M392 607h-241v-211h247q45 0 75.5 33.5t30.5 82.5q0 41 -32 68t-80 27zM398 306h-247v-213h251q48 0 80 28.5t32 69.5q0 50 -33 82.5t-83 32.5zM413 0h-357v700h347q85 0 140.5 -50.5t55.5 -127.5q0 -54 -25.5 -99t-69.5 -69q49 -25 77 -70.5t28 -101.5q0 -78 -56 -130
t-140 -52z" />
    <glyph glyph-name="C" unicode="C" horiz-adv-x="778" 
d="M36 351q0 105 48.5 189.5t131 132t182.5 47.5q111 0 201.5 -59t137.5 -161l-93 -36q-34 75 -100 118t-147 43q-111 0 -188.5 -77.5t-77.5 -196.5t77.5 -196.5t188.5 -77.5q83 0 150.5 45.5t100.5 123.5l94 -34q-45 -106 -137.5 -168t-206.5 -62q-100 0 -182.5 47.5
t-131 132t-48.5 189.5z" />
    <glyph glyph-name="D" unicode="D" horiz-adv-x="701" 
d="M320 0h-264v700h264q95 0 173.5 -44t125.5 -124.5t47 -180.5q0 -101 -47 -181.5t-125.5 -125t-173.5 -44.5zM310 608h-159v-516h159q109 0 184.5 73t75.5 186t-75.5 185t-184.5 72z" />
    <glyph glyph-name="E" unicode="E" horiz-adv-x="566" 
d="M151 398h354v-94h-354v-211h378v-93h-473v700h473v-93h-378v-209z" />
    <glyph glyph-name="F" unicode="F" horiz-adv-x="565" 
d="M151 398h354v-94h-354v-304h-95v700h473v-93h-378v-209z" />
    <glyph glyph-name="G" unicode="G" horiz-adv-x="788" 
d="M131 351q0 -120 76.5 -197t186.5 -77q101 0 173.5 61.5t82.5 159.5h-285v88h385q2 -16 2 -49q0 -101 -48.5 -182.5t-130 -127t-179.5 -45.5q-73 0 -139 27.5t-114 75.5t-76.5 117.5t-28.5 148.5t28.5 148.5t76.5 117.5t114 75.5t139 27.5q104 0 190 -55.5t130 -150.5
l-86 -42q-32 71 -95 112t-139 41q-110 0 -186.5 -77t-76.5 -197z" />
    <glyph glyph-name="H" unicode="H" horiz-adv-x="687" 
d="M56 0v700h95v-302h385v302h95v-700h-95v304h-385v-304h-95z" />
    <glyph glyph-name="I" unicode="I" 
d="M151 0h-95v700h95v-700z" />
    <glyph glyph-name="J" unicode="J" horiz-adv-x="609" 
d="M36 172l88 34q19 -59 61.5 -90.5t104.5 -31.5q74 0 121 46.5t47 129.5v440h95v-450q0 -113 -76 -187t-187 -74q-93 0 -160 48.5t-94 134.5z" />
    <glyph glyph-name="K" unicode="K" horiz-adv-x="627" 
d="M56 0v700h95v-304h33l288 304h126l-330 -351l330 -349h-126l-288 298h-33v-298h-95z" />
    <glyph glyph-name="L" unicode="L" horiz-adv-x="556" 
d="M151 93h378v-93h-473v700h95v-607z" />
    <glyph glyph-name="M" unicode="M" horiz-adv-x="836" 
d="M52 0v700h114l252 -465l252 465h114v-700h-96v547l-236 -437h-67l-237 437v-547h-96z" />
    <glyph glyph-name="N" unicode="N" horiz-adv-x="687" 
d="M56 0v700h112l368 -552v552h95v-700h-111l-369 558v-558h-95z" />
    <glyph glyph-name="O" unicode="O" horiz-adv-x="788" 
d="M131 353q0 -121 76.5 -198.5t186.5 -77.5t186.5 77.5t76.5 198.5q0 119 -76.5 195.5t-186.5 76.5t-186.5 -76.5t-76.5 -195.5zM36 353q0 79 28.5 148t76.5 116.5t114 75t139 27.5t139 -27.5t114 -75t76.5 -116.5t28.5 -148q0 -80 -28.5 -149.5t-76.5 -118t-114 -76
t-139 -27.5t-139 27.5t-114 76t-76.5 118t-28.5 149.5z" />
    <glyph glyph-name="P" unicode="P" horiz-adv-x="629" 
d="M343 607h-192v-285h192q69 0 115 41.5t46 103.5q0 60 -46 100t-115 40zM343 230h-192v-230h-95v700h297q106 0 176 -66.5t70 -166.5q0 -99 -74.5 -168t-181.5 -69z" />
    <glyph glyph-name="Q" unicode="Q" horiz-adv-x="788" 
d="M131 353q0 -121 76.5 -198.5t186.5 -77.5t186.5 77.5t76.5 198.5q0 119 -76.5 195.5t-186.5 76.5t-186.5 -76.5t-76.5 -195.5zM36 353q0 79 28.5 148t76.5 116.5t114 75t139 27.5t139 -27.5t114 -75t76.5 -116.5t28.5 -148q0 -80 -28.5 -149.5t-76.5 -118t-114 -76
t-139 -27.5t-139 27.5t-114 76t-76.5 118t-28.5 149.5zM690 -21l-331 331l65 69l332 -331z" />
    <glyph glyph-name="R" unicode="R" horiz-adv-x="635" 
d="M355 607h-204v-257h204q62 0 103.5 37.5t41.5 92.5t-41 91t-104 36zM397 265l202 -265h-113l-197 258h-138v-258h-95v700h309q102 0 168 -62t66 -160q0 -85 -57.5 -145.5t-144.5 -67.5z" />
    <glyph glyph-name="S" unicode="S" horiz-adv-x="581" 
d="M287 303q-242 48 -242 211q0 86 65 142.5t166 56.5q87 0 158.5 -47t102.5 -126l-89 -35q-23 54 -68 85t-102 31q-59 0 -97 -29.5t-38 -76.5q0 -43 38 -70t122 -44q118 -24 180 -79t62 -134q0 -86 -68 -142.5t-172 -56.5q-90 0 -163.5 47.5t-105.5 126.5l91 44
q23 -59 70 -92.5t105 -33.5q63 0 104 31t41 78q0 42 -39 69.5t-121 43.5z" />
    <glyph glyph-name="T" unicode="T" horiz-adv-x="599" 
d="M572 700v-93h-225v-607h-95v607h-225v93h545z" />
    <glyph glyph-name="U" unicode="U" horiz-adv-x="690" 
d="M345 -11q-123 0 -206 81t-83 204v426h95v-416q0 -94 54.5 -147t139.5 -53t139.5 53t54.5 147v416h95v-426q0 -123 -83 -204t-206 -81z" />
    <glyph glyph-name="V" unicode="V" horiz-adv-x="770" 
d="M632 700h108l-291 -700h-127l-292 700h109l245 -593z" />
    <glyph glyph-name="W" unicode="W" horiz-adv-x="1033" 
d="M898 700h105l-194 -700h-131l-162 558l-153 -558h-132l-201 700h105l165 -585l166 585h102l171 -585z" />
    <glyph glyph-name="X" unicode="X" horiz-adv-x="706" 
d="M678 0h-117l-207 288l-208 -288h-117l248 346l-248 354h117l208 -296l207 296h117l-248 -354z" />
    <glyph glyph-name="Y" unicode="Y" horiz-adv-x="671" 
d="M298 0h95v232l250 468h-111l-186 -353l-205 353h-112l269 -468v-232z" />
    <glyph glyph-name="Z" unicode="Z" horiz-adv-x="628" 
d="M588 0v92h-439l439 498v110h-548v-92h439l-439 -492v-116h548z" />
    <glyph glyph-name="bracketleft" unicode="[" horiz-adv-x="317" 
d="M151 46h130v-90h-225v798h225v-93h-130v-615z" />
    <glyph glyph-name="backslash" unicode="\" horiz-adv-x="438" 
d="M304 0l-276 700h106l276 -700h-106z" />
    <glyph glyph-name="bracketright" unicode="]" horiz-adv-x="317" 
d="M166 664h-130v90h225v-798h-225v93h130v615z" />
    <glyph glyph-name="asciicircum" unicode="^" horiz-adv-x="433" 
d="M203 750l-173 -147l48 -56l138 119l138 -119l49 56l-173 147h-27z" />
    <glyph glyph-name="underscore" unicode="_" horiz-adv-x="439" 
d="M411 60v-77h-383v77h383z" />
    <glyph glyph-name="grave" unicode="`" horiz-adv-x="283" 
d="M32 671l50 60l170 -153l-46 -56z" />
    <glyph glyph-name="a" unicode="a" horiz-adv-x="505" 
d="M354 223l-132 -16q-91 -11 -91 -68q0 -30 25 -47.5t68 -17.5q59 0 94.5 34t35.5 90h36q0 -90 -55 -149.5t-137 -59.5q-71 0 -116.5 40.5t-45.5 104.5q0 63 44 104.5t120 49.5l154 18v16q0 41 -33 71t-81 30q-43 0 -76.5 -23t-42.5 -59l-89 29q20 63 76.5 102t127.5 39
q87 0 150.5 -54t63.5 -128v-329h-96v223z" />
    <glyph glyph-name="b" unicode="b" horiz-adv-x="638" 
d="M56 0v750h95v-750h-95zM151 251q0 -77 51.5 -127.5t126.5 -50.5t126.5 50.5t51.5 127.5t-51.5 127.5t-126.5 50.5t-126.5 -50.5t-51.5 -127.5zM111 251q0 116 69.5 192.5t171.5 76.5q105 0 177.5 -76.5t72.5 -192.5t-72.5 -192.5t-177.5 -76.5q-102 0 -171.5 76.5
t-69.5 192.5z" />
    <glyph glyph-name="c" unicode="c" horiz-adv-x="587" 
d="M131 251q0 -78 50 -128t123 -50q52 0 94.5 25.5t63.5 71.5l88 -40q-34 -68 -100 -108t-146 -40q-112 0 -190 76t-78 193t78 193t190 76q82 0 148.5 -41t99.5 -112l-88 -40q-21 48 -64 75t-96 27q-73 0 -123 -50t-50 -128z" />
    <glyph glyph-name="d" unicode="d" horiz-adv-x="638" 
d="M582 0h-95v750h95v-750zM487 251q0 77 -51.5 127.5t-126.5 50.5t-126.5 -50.5t-51.5 -127.5t51.5 -127.5t126.5 -50.5t126.5 50.5t51.5 127.5zM527 251q0 -116 -69.5 -192.5t-171.5 -76.5q-105 0 -177.5 76.5t-72.5 192.5t72.5 192.5t177.5 76.5q102 0 171.5 -76.5
t69.5 -192.5z" />
    <glyph glyph-name="e" unicode="e" horiz-adv-x="595" 
d="M463 294q-7 63 -53.5 100t-111.5 37q-63 0 -108 -37t-54 -100h327zM136 208q9 -63 55 -100t111 -37q49 0 89 23t60 62l87 -34q-32 -64 -95.5 -102t-140.5 -38q-112 0 -189 76.5t-77 192.5t75 192.5t185 76.5t187 -75.5t77 -188.5q0 -20 -6 -48h-418z" />
    <glyph glyph-name="f" unicode="f" horiz-adv-x="420" 
d="M320 661q-40 0 -63.5 -25t-23.5 -67v-69h160v-88h-160v-412h-95v412h-110v88h110v90q0 66 49.5 113t118.5 47h67v-89h-53z" />
    <glyph glyph-name="g" unicode="g" horiz-adv-x="598" 
d="M491 270.5q0 -106.5 -64 -176.5t-158 -70q-98 0 -165.5 70t-67.5 176t68 177t165 71q93 0 157.5 -70.5t64.5 -177zM447 269q0 67 -45.5 110.5t-112.5 43.5t-112.5 -43.5t-45.5 -110.5t45.5 -110.5t112.5 -43.5t112.5 43.5t45.5 110.5zM447 -5v505h95v-505
q0 -99 -70.5 -161.5t-178.5 -62.5q-82 0 -148 41t-99 112l82 50q23 -49 65.5 -77.5t95.5 -28.5q67 0 112.5 36t45.5 91z" />
    <glyph glyph-name="h" unicode="h" horiz-adv-x="550" 
d="M56 0v750h95v-750h-95zM399 0v292q0 60 -33 94t-85 34q-53 0 -91.5 -37.5t-38.5 -90.5h-45q0 91 58.5 155t144.5 64q79 0 132 -54.5t53 -143.5v-313h-95z" />
    <glyph glyph-name="i" unicode="i" horiz-adv-x="204" 
d="M41 638.5q0 26.5 17.5 44t43.5 17.5t44 -17.5t18 -44t-18 -44t-44 -17.5t-43.5 17.5t-17.5 44zM55 0v500h95v-500h-95z" />
    <glyph glyph-name="j" unicode="j" horiz-adv-x="204" 
d="M41 638.5q0 26.5 17.5 44t43.5 17.5t44 -17.5t18 -44t-18 -44t-44 -17.5t-43.5 17.5t-17.5 44zM-20 -100q36 0 55.5 25t19.5 63v512h95v-542q0 -61 -42.5 -105.5t-109.5 -44.5h-40v92h22z" />
    <glyph glyph-name="k" unicode="k" horiz-adv-x="519" 
d="M56 0v750h95v-452h27l191 202h123l-231 -250l231 -250h-123l-191 200h-27v-200h-95z" />
    <glyph glyph-name="l" unicode="l" 
d="M56 0v750h95v-750h-95z" />
    <glyph glyph-name="m" unicode="m" horiz-adv-x="821" 
d="M670 0v308q0 52 -28 82t-72 30q-46 0 -79 -33t-33 -79h-45q0 85 53.5 144t131.5 59q72 0 119.5 -50t47.5 -132v-329h-95zM56 0v500h95v-500h-95zM363 0v308q0 52 -28 82t-72 30q-46 0 -79 -33t-33 -79h-45q0 85 53 144t132 59q72 0 119.5 -50t47.5 -132v-329h-95z" />
    <glyph glyph-name="n" unicode="n" horiz-adv-x="550" 
d="M56 0v500h95v-500h-95zM399 0v292q0 60 -33 94t-85 34q-53 0 -91.5 -37.5t-38.5 -90.5h-45q0 91 58.5 155t144.5 64q79 0 132 -54.5t53 -143.5v-313h-95z" />
    <glyph glyph-name="o" unicode="o" horiz-adv-x="618" 
d="M131 251q0 -78 51.5 -128t126.5 -50t126.5 50t51.5 128t-51.5 128t-126.5 50t-126.5 -50t-51.5 -128zM36 251q0 117 79.5 193t193.5 76t193.5 -76t79.5 -193t-79.5 -193t-193.5 -76t-193.5 76t-79.5 193z" />
    <glyph glyph-name="p" unicode="p" horiz-adv-x="638" 
d="M56 500h95v-700h-95v700zM151 249.5q0 -77.5 51.5 -127.5t126.5 -50t126.5 50t51.5 127.5t-51.5 128t-126.5 50.5t-126.5 -50.5t-51.5 -128zM111 249.5q0 116.5 69.5 193t171.5 76.5q105 0 177.5 -76.5t72.5 -192.5t-72.5 -192.5t-177.5 -76.5q-102 0 -171.5 76
t-69.5 192.5z" />
    <glyph glyph-name="q" unicode="q" horiz-adv-x="638" 
d="M582 500v-700h-95v700h95zM487 249.5q0 77.5 -51.5 128t-126.5 50.5t-126.5 -50.5t-51.5 -128t51.5 -127.5t126.5 -50t126.5 50t51.5 127.5zM527 249.5q0 -116.5 -69.5 -192.5t-171.5 -76q-105 0 -177.5 76.5t-72.5 192.5t72.5 192.5t177.5 76.5q102 0 171.5 -76.5
t69.5 -193z" />
    <glyph glyph-name="r" unicode="r" horiz-adv-x="350" 
d="M56 0v500h95v-500h-95zM304 413q-63 0 -108 -37t-45 -89h-45q0 89 56 155t136 66h28v-95h-22z" />
    <glyph glyph-name="s" unicode="s" horiz-adv-x="481" 
d="M236 209q-188 31 -188 150q0 67 50.5 110.5t128.5 43.5q69 0 125.5 -38t81.5 -101l-92 -30q-15 39 -45 61.5t-69 22.5q-37 0 -61 -18.5t-24 -46.5q0 -26 25.5 -42t81.5 -26q96 -15 145.5 -55t49.5 -100q0 -65 -54.5 -108t-134.5 -43q-74 0 -134 36t-86 97l89 34
q17 -40 51.5 -63t77.5 -23q41 0 68.5 19.5t27.5 48.5q0 52 -114 71z" />
    <glyph glyph-name="t" unicode="t" horiz-adv-x="392" 
d="M297 89h67v-89h-81q-76 0 -120 38.5t-44 104.5v269h-91v88h91v144l95 20v-164h150v-88h-150v-247q0 -37 21.5 -56.5t61.5 -19.5z" />
    <glyph glyph-name="u" unicode="u" horiz-adv-x="530" 
d="M474 500v-500h-95v500h95zM151 500v-308q0 -52 30.5 -82t77.5 -30q50 0 85 32t35 76h46q0 -83 -56 -141t-138 -58q-75 0 -125 50t-50 132v329h95z" />
    <glyph glyph-name="v" unicode="v" horiz-adv-x="567" 
d="M437 500h101l-192 -500h-124l-192 500h101l152 -409z" />
    <glyph glyph-name="w" unicode="w" horiz-adv-x="842" 
d="M711 500h101l-152 -500h-124l-115 371l-111 -371h-124l-156 500h101l119 -404l124 404h94l126 -404z" />
    <glyph glyph-name="x" unicode="x" horiz-adv-x="558" 
d="M529 0h-113l-137 192l-136 -192h-114l181 250l-181 250h114l136 -192l137 192h113l-181 -250z" />
    <glyph glyph-name="y" unicode="y" horiz-adv-x="567" 
d="M434 500l-150 -379l-150 379h-104l198 -484l-83 -216h104l289 700h-104z" />
    <glyph glyph-name="z" unicode="z" horiz-adv-x="485" 
d="M450 0v84h-308l308 313v103h-414v-84h297l-297 -313v-103h414z" />
    <glyph glyph-name="braceleft" unicode="{" horiz-adv-x="338" 
d="M84 488q0 101 50.5 174.5t131.5 98.5l35 -91q-55 -17 -90.5 -73t-35.5 -135q0 -88 -60 -106q32 -10 46 -32t14 -67q0 -82 38.5 -139.5t97.5 -71.5l-34 -91q-85 22 -139 95.5t-54 176.5q0 83 -74 83v92q36 0 55 24.5t19 61.5z" />
    <glyph glyph-name="bar" unicode="|" 
d="M56 -200v1000h95v-1000h-95z" />
    <glyph glyph-name="braceright" unicode="}" horiz-adv-x="338" 
d="M255 228q0 -101 -50.5 -174.5t-131.5 -98.5l-35 91q56 17 91 73t35 135q0 88 60 106q-32 10 -46 32t-14 67q0 82 -38.5 139.5t-97.5 71.5l34 91q85 -22 139 -95.5t54 -176.5q0 -83 74 -83v-92q-36 0 -55 -24.5t-19 -61.5z" />
    <glyph glyph-name="asciitilde" unicode="~" horiz-adv-x="471" 
d="M160 353q-43 0 -72 -33t-39 -92l66 -18q13 70 49 70q12 0 23 -6.5t29 -24.5q28 -25 49.5 -35t46.5 -10q43 0 72 33t39 92l-67 18q-13 -67 -53 -67q-13 0 -24.5 6.5t-28.5 23.5q-26 24 -45.5 33.5t-44.5 9.5z" />
    <glyph glyph-name="exclamdown" unicode="&#xa1;" horiz-adv-x="206" 
d="M61 382h88l7 -493h-102zM175 531q0 -31 -20 -52t-50 -21q-31 0 -52 21t-21 52t20.5 51t51 20t51 -20t20.5 -51z" />
    <glyph glyph-name="cent" unicode="&#xa2;" horiz-adv-x="587" 
d="M260 596v104h87v-104h-87zM260 118h87v-118h-87v118zM131 358.5q0 -77.5 50 -127.5t123 -50q52 0 94.5 25.5t63.5 70.5l88 -39q-34 -69 -100 -108.5t-146 -39.5q-112 0 -190 76t-78 192.5t78 193t190 76.5q82 0 148.5 -41.5t99.5 -112.5l-88 -39q-21 47 -64 74t-96 27
q-73 0 -123 -50t-50 -127.5z" />
    <glyph glyph-name="sterling" unicode="&#xa3;" horiz-adv-x="589" 
d="M561 92v-92h-533v92h106v196h-86v92h86v124q0 94 63 156t156 62q76 0 131 -38.5t77 -106.5l-90 -32q-28 81 -118 81q-54 0 -89 -34.5t-35 -97.5v-114h211v-92h-211v-196h332z" />
    <glyph glyph-name="currency" unicode="&#xa4;" horiz-adv-x="385" 
d="M29 398l43 43l36 -37q37 27 85 27q46 0 84 -26l37 37l44 -45l-37 -36q26 -36 26 -84t-27 -85l38 -36l-44 -43l-35 37q-38 -27 -86 -27q-46 0 -83 26l-37 -36l-45 44l37 37q-25 35 -25 83t26 85zM111 277q0 -36 24 -59t58.5 -23t58.5 23t24 59t-24 59t-58.5 23t-58.5 -23
t-24 -59z" />
    <glyph glyph-name="yen" unicode="&#xa5;" horiz-adv-x="589" 
d="M464 162h-333v-69h333v69zM464 290h-333v-70h333v70zM253 0h95v341l213 359h-111l-150 -260l-159 260h-112l224 -359v-341z" />
    <glyph glyph-name="brokenbar" unicode="&#xa6;" 
d="M151 411h-95v389h95v-389zM151 209v-409h-95v409h95z" />
    <glyph glyph-name="section" unicode="&#xa7;" horiz-adv-x="456" 
d="M238 284q-56 11 -81.5 27.5t-25.5 43.5q0 26 25 43.5t62 18.5q56 -11 81.5 -27.5t25.5 -43.5q0 -26 -24.5 -43t-62.5 -19zM130 443q-43 -14 -68.5 -43t-25.5 -65q0 -108 177 -135q59 -10 85.5 -26.5t26.5 -42.5t-24 -43.5t-61 -17.5t-67.5 22t-45.5 60l-91 -30
q25 -61 81.5 -97t125.5 -36q77 0 127 41t50 104q0 81 -93 124q43 14 68 42.5t25 64.5q0 102 -178 136q-59 12 -85 27.5t-26 41.5t24.5 43t60.5 17q38 0 68 -21.5t45 -58.5l91 29q-25 61 -81 97t-125 36q-78 0 -128 -41t-50 -104q0 -81 94 -124z" />
    <glyph glyph-name="dieresis" unicode="&#xa8;" horiz-adv-x="434" 
d="M273 626.5q0 26.5 18 44t44 17.5t43.5 -17.5t17.5 -44t-17.5 -44t-43.5 -17.5t-44 17.5t-18 44zM38 626.5q0 26.5 18 44t44 17.5t43.5 -17.5t17.5 -44t-17.5 -44t-43.5 -17.5t-44 17.5t-18 44z" />
    <glyph glyph-name="copyright" unicode="&#xa9;" horiz-adv-x="788" 
d="M298 351q0 -44 27.5 -72t68.5 -28q29 0 53 17.5t36 47.5l64 -26q-21 -50 -62 -79t-91 -29q-69 0 -116.5 48t-47.5 121t47.5 121t116.5 48q51 0 93 -28t62 -75l-64 -27q-12 29 -36.5 45t-54.5 16q-41 0 -68.5 -28t-27.5 -72zM112 353q0 -131 81.5 -215t200.5 -84t200.5 84
t81.5 215q0 129 -82 212t-200 83t-200 -83t-82 -212zM40 353q0 160 102.5 263.5t251.5 103.5t251.5 -103.5t102.5 -263.5q0 -161 -102.5 -266t-251.5 -105t-251.5 105t-102.5 266z" />
    <glyph glyph-name="ordfeminine" unicode="&#xaa;" horiz-adv-x="358" 
d="M249 700h69v-278h-69v278zM328 341v-69h-298v69h298zM99 561q0 -34 22 -57t55 -23q32 0 52.5 22.5t20.5 57.5t-20.5 57.5t-52.5 22.5q-33 0 -55 -23t-22 -57zM30 561q0 62 37.5 105.5t91.5 43.5t89 -42t35 -107t-35 -107t-89 -42t-91.5 43.5t-37.5 105.5z" />
    <glyph glyph-name="guillemotleft" unicode="&#xab;" horiz-adv-x="552" 
d="M516 178v-108l-232 136v124l232 137v-108l-156 -89zM269 178v-108l-233 136v124l233 137v-108l-156 -89z" />
    <glyph glyph-name="logicalnot" unicode="&#xac;" horiz-adv-x="449" 
d="M421 355v-196h-91v111h-302v85h393z" />
    <glyph glyph-name="uni00AD" unicode="&#xad;" horiz-adv-x="335" 
d="M308 309v-85h-280v85h280z" />
    <glyph glyph-name="registered" unicode="&#xae;" horiz-adv-x="788" 
d="M428 450h-123v-93h123q23 0 39 14t16 35q0 19 -15.5 31.5t-39.5 12.5zM441 300l107 -112h-83l-105 108h-55v-108h-65v325h202q46 0 76 -30.5t30 -77.5q0 -41 -31 -71.5t-76 -33.5zM112 353q0 -131 81.5 -215t200.5 -84t200.5 84t81.5 215q0 129 -82 212t-200 83t-200 -83
t-82 -212zM40 353q0 160 102.5 263.5t251.5 103.5t251.5 -103.5t102.5 -263.5q0 -161 -102.5 -266t-251.5 -105t-251.5 105t-102.5 266z" />
    <glyph glyph-name="macron" unicode="&#xaf;" horiz-adv-x="370" 
d="M343 700v-77h-315v77h315z" />
    <glyph glyph-name="degree" unicode="&#xb0;" horiz-adv-x="406" 
d="M116 534.5q0 -38.5 25.5 -63t62 -24.5t62 24.5t25.5 63t-25.5 63t-62 24.5t-62 -24.5t-25.5 -63zM28 535q0 76 51 125.5t124.5 49.5t124.5 -49.5t51 -125.5t-51 -125.5t-124.5 -49.5t-124.5 49.5t-51 125.5z" />
    <glyph glyph-name="plusminus" unicode="&#xb1;" horiz-adv-x="389" 
d="M361 29v-85h-333v85h333zM152 448h87v-124h122v-85h-122v-124h-87v124h-124v85h124v124z" />
    <glyph glyph-name="uni00B2" unicode="&#xb2;" horiz-adv-x="304" 
d="M277 732q0 51 -36 84.5t-87 33.5q-50 0 -82 -27.5t-45 -70.5l75 -27q12 45 49 45q18 0 30 -12t12 -31q0 -28 -70 -64l-95 -53v-94h250v77h-149l51 27q97 48 97 112z" />
    <glyph glyph-name="uni00B3" unicode="&#xb3;" horiz-adv-x="312" 
d="M200 705l79 51v90h-238v-73h159l-74 -56l24 -54q25 0 38.5 -10t13.5 -28q0 -15 -12 -25t-31 -10q-20 0 -33 12t-18 34l-81 -17q12 -50 48 -79.5t86 -29.5q54 0 89.5 30t35.5 77q0 37 -24 61t-62 27z" />
    <glyph glyph-name="acute" unicode="&#xb4;" horiz-adv-x="279" 
d="M250 690l-50 60l-170 -153l46 -56z" />
    <glyph glyph-name="mu" unicode="&#xb5;" horiz-adv-x="571" 
d="M516 500v-500h-96v500h96zM56 500h95v-700h-95v700zM464 220q0 -99 -50 -165t-125 -66t-129 67.5t-54 163.5h45q0 -59 41.5 -99.5t100.5 -40.5q57 0 92 38.5t35 101.5h44z" />
    <glyph glyph-name="paragraph" unicode="&#xb6;" horiz-adv-x="557" 
d="M501 0h-69v700h69v-700zM256 350q-84 0 -142 52t-58 128q0 72 54.5 121t135.5 49h122v-700h-94v350h-18z" />
    <glyph glyph-name="periodcentered" unicode="&#xb7;" horiz-adv-x="210" 
d="M40 364q0 28 18.5 47t45.5 19q28 0 47 -19t19 -47t-18.5 -46.5t-46.5 -18.5t-46.5 18.5t-18.5 46.5z" />
    <glyph glyph-name="cedilla" unicode="&#xb8;" horiz-adv-x="303" 
d="M130 -71q23 25 55 25q35 0 59.5 -31t24.5 -76q0 -51 -33 -83t-86 -32q-44 0 -77 22t-45 61l72 26q3 -17 16 -26.5t32 -9.5q20 0 32.5 12.5t12.5 32.5q0 17 -9 28t-23 11q-18 0 -31 -17l-74 27v122h74v-92z" />
    <glyph glyph-name="uni00B9" unicode="&#xb9;" horiz-adv-x="235" 
d="M209 845v-329h-80v235l-55 -43l-47 59l100 78h82z" />
    <glyph glyph-name="ordmasculine" unicode="&#xba;" horiz-adv-x="358" 
d="M328 341v-69h-298v69h298zM99 561q0 -35 23 -57.5t57 -22.5t57 22.5t23 57.5t-23 57.5t-57 22.5t-57 -22.5t-23 -57.5zM30 561q0 65 43 107t106 42t106 -42t43 -107t-43 -107t-106 -42t-106 42t-43 107z" />
    <glyph glyph-name="guillemotright" unicode="&#xbb;" horiz-adv-x="552" 
d="M36 359v108l233 -137v-124l-233 -136v108l156 89zM284 359v108l232 -137v-124l-232 -136v108l156 89z" />
    <glyph glyph-name="onequarter" unicode="&#xbc;" horiz-adv-x="742" 
d="M503 129h69v97zM652 324v-195h39v-69h-39v-65h-80v65h-145v81l133 183h92zM261 0h-106l287 700h106zM209 695v-329h-80v235l-55 -43l-47 59l100 78h82z" />
    <glyph glyph-name="onehalf" unicode="&#xbd;" horiz-adv-x="728" 
d="M677 211q0 51 -36 84t-87 33q-50 0 -82 -27.5t-45 -70.5l75 -26q12 44 49 44q18 0 30 -12t12 -31q0 -28 -70 -64l-95 -53v-94h250v77h-149l51 28q97 47 97 112zM261 0h-106l287 700h106zM209 695v-329h-80v235l-55 -43l-47 59l100 78h82z" />
    <glyph glyph-name="threequarters" unicode="&#xbe;" horiz-adv-x="775" 
d="M535 129h69v97zM684 324v-195h39v-69h-39v-65h-80v65h-145v81l133 183h92zM294 0h-106l287 700h106zM200 555l79 51v90h-238v-73h159l-74 -56l24 -54q25 0 38.5 -10t13.5 -28q0 -15 -12 -25t-31 -10q-20 0 -33 12t-18 34l-81 -17q12 -50 48 -79.5t86 -29.5q54 0 89.5 30
t35.5 77q0 37 -24 61t-62 27z" />
    <glyph glyph-name="questiondown" unicode="&#xbf;" horiz-adv-x="551" 
d="M342 531q0 -31 -20 -51.5t-51 -20.5q-30 0 -51 20.5t-21 51.5t20.5 51.5t51 20.5t51 -20.5t20.5 -51.5zM40 105q0 -99 67 -163t166 -64q89 0 150 52t88 139l-89 32q-38 -128 -149 -128q-59 0 -98.5 37t-39.5 95q0 76 91 139l96 63l-40 79l-100 -67q-61 -36 -101.5 -91.5
t-40.5 -122.5z" />
    <glyph glyph-name="Agrave" unicode="&#xc0;" horiz-adv-x="770" 
d="M240 933l65 60l163 -160l-61 -56zM181 270h407v-89h-407v89zM139 0h-109l293 700h124l293 -700h-108l-246 601z" />
    <glyph glyph-name="Aacute" unicode="&#xc1;" horiz-adv-x="770" 
d="M525 933l-65 64l-158 -164l53 -56zM181 270h407v-89h-407v89zM139 0h-109l293 700h124l293 -700h-108l-246 601z" />
    <glyph glyph-name="Acircumflex" unicode="&#xc2;" horiz-adv-x="770" 
d="M372 977l-165 -148l49 -56l130 119l130 -119l49 56l-165 148h-28zM181 270h407v-89h-407v89zM139 0h-109l293 700h124l293 -700h-108l-246 601z" />
    <glyph glyph-name="Atilde" unicode="&#xc3;" horiz-adv-x="770" 
d="M311 926q-44 0 -73 -33t-39 -92l67 -18q12 72 48 72q12 0 23 -7t30 -26q27 -25 48.5 -35t46.5 -10q43 0 72 33t39 92l-67 18q-13 -69 -52 -69q-14 0 -25.5 7t-28.5 25q-26 24 -45.5 33.5t-43.5 9.5zM181 270h407v-89h-407v89zM139 0h-109l293 700h124l293 -700h-108
l-246 601z" />
    <glyph glyph-name="Adieresis" unicode="&#xc4;" horiz-adv-x="770" 
d="M428 838.5q0 26.5 18 44t44 17.5t44 -17.5t18 -44t-18 -44t-44 -17.5t-44 17.5t-18 44zM218 838.5q0 26.5 18 44t44 17.5t44 -17.5t18 -44t-18 -44t-44 -17.5t-44 17.5t-18 44zM181 270h407v-89h-407v89zM139 0h-109l293 700h124l293 -700h-108l-246 601z" />
    <glyph glyph-name="Aring" unicode="&#xc5;" horiz-adv-x="770" 
d="M334 896.5q0 -22.5 15 -37t36 -14.5t36 14.5t15 37t-15 37t-36 14.5t-36 -14.5t-15 -37zM266 896.5q0 51.5 34.5 85.5t84.5 34t84.5 -34t34.5 -85.5t-34.5 -85.5t-84.5 -34t-84.5 34t-34.5 85.5zM181 270h407v-89h-407v89zM139 0h-109l293 700h124l293 -700h-108
l-246 601z" />
    <glyph glyph-name="AE" unicode="&#xc6;" horiz-adv-x="981" 
d="M568 398h353v-94h-353v-211h377v-93h-472v700h472v-93h-377v-209zM210 280h288v-93h-288v93zM135 0h-106l361 700h83v-99h-23z" />
    <glyph glyph-name="Ccedilla" unicode="&#xc7;" horiz-adv-x="778" 
d="M426 -71q23 25 56 25q35 0 59.5 -31t24.5 -76q0 -51 -33.5 -83.5t-86.5 -32.5q-44 0 -76.5 22.5t-44.5 61.5l71 26q9 -36 48 -36q21 0 33.5 12.5t12.5 31.5q0 18 -9 29t-23 11q-18 0 -32 -17l-73 27v122h73v-92zM36 351q0 105 48.5 189.5t131 132t182.5 47.5
q111 0 201.5 -59t137.5 -161l-93 -36q-34 75 -100 118t-147 43q-111 0 -188.5 -77.5t-77.5 -196.5t77.5 -196.5t188.5 -77.5q83 0 150.5 45.5t100.5 123.5l94 -34q-45 -106 -137.5 -168t-206.5 -62q-100 0 -182.5 47.5t-131 132t-48.5 189.5z" />
    <glyph glyph-name="Egrave" unicode="&#xc8;" horiz-adv-x="566" 
d="M151 933l65 60l163 -160l-61 -56zM151 398h354v-94h-354v-211h378v-93h-473v700h473v-93h-378v-209z" />
    <glyph glyph-name="Eacute" unicode="&#xc9;" horiz-adv-x="566" 
d="M436 933l-65 64l-158 -164l53 -56zM151 398h354v-94h-354v-211h378v-93h-473v700h473v-93h-378v-209z" />
    <glyph glyph-name="Ecircumflex" unicode="&#xca;" horiz-adv-x="566" 
d="M282 977l-165 -148l49 -56l130 119l130 -119l49 56l-165 148h-28zM151 398h354v-94h-354v-211h378v-93h-473v700h473v-93h-378v-209z" />
    <glyph glyph-name="Edieresis" unicode="&#xcb;" horiz-adv-x="566" 
d="M338 838.5q0 26.5 18 44t44 17.5t44 -17.5t18 -44t-18 -44t-44 -17.5t-44 17.5t-18 44zM128 838.5q0 26.5 18 44t44 17.5t44 -17.5t18 -44t-18 -44t-44 -17.5t-44 17.5t-18 44zM151 398h354v-94h-354v-211h378v-93h-473v700h473v-93h-378v-209z" />
    <glyph glyph-name="Igrave" unicode="&#xcc;" 
d="M-41 933l65 60l163 -160l-61 -56zM151 0h-95v700h95v-700z" />
    <glyph glyph-name="Iacute" unicode="&#xcd;" 
d="M244 933l-65 64l-158 -164l53 -56zM151 0h-95v700h95v-700z" />
    <glyph glyph-name="Icircumflex" unicode="&#xce;" 
d="M90 977l-165 -148l49 -56l130 119l130 -119l49 56l-165 148h-28zM151 0h-95v700h95v-700z" />
    <glyph glyph-name="Idieresis" unicode="&#xcf;" 
d="M146 838.5q0 26.5 18 44t44 17.5t44 -17.5t18 -44t-18 -44t-44 -17.5t-44 17.5t-18 44zM-64 838.5q0 26.5 18 44t44 17.5t44 -17.5t18 -44t-18 -44t-44 -17.5t-44 17.5t-18 44zM151 0h-95v700h95v-700z" />
    <glyph glyph-name="Eth" unicode="&#xd0;" horiz-adv-x="705" 
d="M346 401v-85h-346v85h346zM324 0h-252v700h252q94 0 173 -44t125.5 -124.5t46.5 -180.5q0 -101 -46.5 -181.5t-125.5 -125t-173 -44.5zM314 608h-146v-516h146q109 0 184.5 73t75.5 186t-75.5 185t-184.5 72z" />
    <glyph glyph-name="Ntilde" unicode="&#xd1;" horiz-adv-x="687" 
d="M274 926q-44 0 -73 -33t-39 -92l67 -18q12 72 48 72q12 0 23 -7t30 -26q27 -25 48.5 -35t46.5 -10q43 0 72 33t39 92l-67 18q-13 -69 -52 -69q-14 0 -25.5 7t-28.5 25q-26 24 -45.5 33.5t-43.5 9.5zM56 0v700h112l368 -552v552h95v-700h-111l-369 558v-558h-95z" />
    <glyph glyph-name="Ograve" unicode="&#xd2;" horiz-adv-x="788" 
d="M249 933l65 60l163 -160l-61 -56zM131 353q0 -121 76.5 -198.5t186.5 -77.5t186.5 77.5t76.5 198.5q0 119 -76.5 195.5t-186.5 76.5t-186.5 -76.5t-76.5 -195.5zM36 353q0 79 28.5 148t76.5 116.5t114 75t139 27.5t139 -27.5t114 -75t76.5 -116.5t28.5 -148
q0 -80 -28.5 -149.5t-76.5 -118t-114 -76t-139 -27.5t-139 27.5t-114 76t-76.5 118t-28.5 149.5z" />
    <glyph glyph-name="Oacute" unicode="&#xd3;" horiz-adv-x="788" 
d="M534 933l-65 64l-158 -164l53 -56zM131 353q0 -121 76.5 -198.5t186.5 -77.5t186.5 77.5t76.5 198.5q0 119 -76.5 195.5t-186.5 76.5t-186.5 -76.5t-76.5 -195.5zM36 353q0 79 28.5 148t76.5 116.5t114 75t139 27.5t139 -27.5t114 -75t76.5 -116.5t28.5 -148
q0 -80 -28.5 -149.5t-76.5 -118t-114 -76t-139 -27.5t-139 27.5t-114 76t-76.5 118t-28.5 149.5z" />
    <glyph glyph-name="Ocircumflex" unicode="&#xd4;" horiz-adv-x="788" 
d="M380 977l-165 -148l49 -56l130 119l130 -119l49 56l-165 148h-28zM131 353q0 -121 76.5 -198.5t186.5 -77.5t186.5 77.5t76.5 198.5q0 119 -76.5 195.5t-186.5 76.5t-186.5 -76.5t-76.5 -195.5zM36 353q0 79 28.5 148t76.5 116.5t114 75t139 27.5t139 -27.5t114 -75
t76.5 -116.5t28.5 -148q0 -80 -28.5 -149.5t-76.5 -118t-114 -76t-139 -27.5t-139 27.5t-114 76t-76.5 118t-28.5 149.5z" />
    <glyph glyph-name="Otilde" unicode="&#xd5;" horiz-adv-x="788" 
d="M319 926q-44 0 -73 -33t-39 -92l67 -18q12 72 48 72q12 0 23 -7t30 -26q27 -25 48.5 -35t46.5 -10q43 0 72 33t39 92l-67 18q-13 -69 -52 -69q-14 0 -25.5 7t-28.5 25q-26 24 -45.5 33.5t-43.5 9.5zM131 353q0 -121 76.5 -198.5t186.5 -77.5t186.5 77.5t76.5 198.5
q0 119 -76.5 195.5t-186.5 76.5t-186.5 -76.5t-76.5 -195.5zM36 353q0 79 28.5 148t76.5 116.5t114 75t139 27.5t139 -27.5t114 -75t76.5 -116.5t28.5 -148q0 -80 -28.5 -149.5t-76.5 -118t-114 -76t-139 -27.5t-139 27.5t-114 76t-76.5 118t-28.5 149.5z" />
    <glyph glyph-name="Odieresis" unicode="&#xd6;" horiz-adv-x="788" 
d="M436 838.5q0 26.5 18 44t44 17.5t44 -17.5t18 -44t-18 -44t-44 -17.5t-44 17.5t-18 44zM226 838.5q0 26.5 18 44t44 17.5t44 -17.5t18 -44t-18 -44t-44 -17.5t-44 17.5t-18 44zM131 353q0 -121 76.5 -198.5t186.5 -77.5t186.5 77.5t76.5 198.5q0 119 -76.5 195.5
t-186.5 76.5t-186.5 -76.5t-76.5 -195.5zM36 353q0 79 28.5 148t76.5 116.5t114 75t139 27.5t139 -27.5t114 -75t76.5 -116.5t28.5 -148q0 -80 -28.5 -149.5t-76.5 -118t-114 -76t-139 -27.5t-139 27.5t-114 76t-76.5 118t-28.5 149.5z" />
    <glyph glyph-name="multiply" unicode="&#xd7;" horiz-adv-x="389" 
d="M43 358l61 61l91 -93l91 92l60 -60l-91 -91l93 -92l-62 -61l-92 94l-91 -94l-60 61l92 91z" />
    <glyph glyph-name="Oslash" unicode="&#xd8;" horiz-adv-x="788" 
d="M749 632l-637 -637l-73 73l637 637zM131 353q0 -121 76.5 -198.5t186.5 -77.5t186.5 77.5t76.5 198.5q0 119 -76.5 195.5t-186.5 76.5t-186.5 -76.5t-76.5 -195.5zM36 353q0 79 28.5 148t76.5 116.5t114 75t139 27.5t139 -27.5t114 -75t76.5 -116.5t28.5 -148
q0 -80 -28.5 -149.5t-76.5 -118t-114 -76t-139 -27.5t-139 27.5t-114 76t-76.5 118t-28.5 149.5z" />
    <glyph glyph-name="Ugrave" unicode="&#xd9;" horiz-adv-x="690" 
d="M200 933l65 60l163 -160l-61 -56zM345 -11q-123 0 -206 81t-83 204v426h95v-416q0 -94 54.5 -147t139.5 -53t139.5 53t54.5 147v416h95v-426q0 -123 -83 -204t-206 -81z" />
    <glyph glyph-name="Uacute" unicode="&#xda;" horiz-adv-x="690" 
d="M485 933l-65 64l-158 -164l53 -56zM345 -11q-123 0 -206 81t-83 204v426h95v-416q0 -94 54.5 -147t139.5 -53t139.5 53t54.5 147v416h95v-426q0 -123 -83 -204t-206 -81z" />
    <glyph glyph-name="Ucircumflex" unicode="&#xdb;" horiz-adv-x="690" 
d="M331 977l-165 -148l49 -56l130 119l130 -119l49 56l-165 148h-28zM345 -11q-123 0 -206 81t-83 204v426h95v-416q0 -94 54.5 -147t139.5 -53t139.5 53t54.5 147v416h95v-426q0 -123 -83 -204t-206 -81z" />
    <glyph glyph-name="Udieresis" unicode="&#xdc;" horiz-adv-x="690" 
d="M387 838.5q0 26.5 18 44t44 17.5t44 -17.5t18 -44t-18 -44t-44 -17.5t-44 17.5t-18 44zM177 838.5q0 26.5 18 44t44 17.5t44 -17.5t18 -44t-18 -44t-44 -17.5t-44 17.5t-18 44zM345 -11q-123 0 -206 81t-83 204v426h95v-416q0 -94 54.5 -147t139.5 -53t139.5 53t54.5 147
v416h95v-426q0 -123 -83 -204t-206 -81z" />
    <glyph glyph-name="Yacute" unicode="&#xdd;" horiz-adv-x="671" 
d="M483 933l-65 64l-158 -164l53 -56zM298 0h95v232l250 468h-111l-186 -353l-205 353h-112l269 -468v-232z" />
    <glyph glyph-name="Thorn" unicode="&#xde;" horiz-adv-x="635" 
d="M151 498v-284h192q69 0 115 41.5t46 102.5q0 60 -46 100t-115 40h-192zM151 121v-121h-95v700h95v-109h202q106 0 176 -66.5t70 -166.5q0 -99 -74.5 -168t-181.5 -69h-192z" />
    <glyph glyph-name="germandbls" unicode="&#xdf;" horiz-adv-x="672" 
d="M473 392q65 -14 108 -72.5t43 -132.5q0 -86 -59.5 -142t-150.5 -56q-71 0 -122.5 38t-70.5 103l89 30q9 -36 36 -56t67 -20q52 0 83.5 33.5t31.5 87.5q0 62 -44.5 100.5t-114.5 38.5h-59v92h59q52 0 84.5 30.5t32.5 79.5q0 55 -39.5 88t-105.5 33q-89 0 -139.5 -56
t-50.5 -155v-456h-95v466q0 129 82 211.5t210 82.5q105 0 169.5 -57.5t64.5 -151.5q0 -114 -109 -159z" />
    <glyph glyph-name="agrave" unicode="&#xe0;" horiz-adv-x="505" 
d="M96 724l65 60l163 -160l-61 -56zM354 223l-132 -16q-91 -11 -91 -68q0 -30 25 -47.5t68 -17.5q59 0 94.5 34t35.5 90h36q0 -90 -55 -149.5t-137 -59.5q-71 0 -116.5 40.5t-45.5 104.5q0 63 44 104.5t120 49.5l154 18v16q0 41 -33 71t-81 30q-43 0 -76.5 -23t-42.5 -59
l-89 29q20 63 76.5 102t127.5 39q87 0 150.5 -54t63.5 -128v-329h-96v223z" />
    <glyph glyph-name="aacute" unicode="&#xe1;" horiz-adv-x="505" 
d="M381 724l-65 64l-158 -164l53 -56zM354 223l-132 -16q-91 -11 -91 -68q0 -30 25 -47.5t68 -17.5q59 0 94.5 34t35.5 90h36q0 -90 -55 -149.5t-137 -59.5q-71 0 -116.5 40.5t-45.5 104.5q0 63 44 104.5t120 49.5l154 18v16q0 41 -33 71t-81 30q-43 0 -76.5 -23t-42.5 -59
l-89 29q20 63 76.5 102t127.5 39q87 0 150.5 -54t63.5 -128v-329h-96v223z" />
    <glyph glyph-name="acircumflex" unicode="&#xe2;" horiz-adv-x="505" 
d="M226 768l-165 -148l49 -56l130 119l130 -119l49 56l-165 148h-28zM354 223l-132 -16q-91 -11 -91 -68q0 -30 25 -47.5t68 -17.5q59 0 94.5 34t35.5 90h36q0 -90 -55 -149.5t-137 -59.5q-71 0 -116.5 40.5t-45.5 104.5q0 63 44 104.5t120 49.5l154 18v16q0 41 -33 71
t-81 30q-43 0 -76.5 -23t-42.5 -59l-89 29q20 63 76.5 102t127.5 39q87 0 150.5 -54t63.5 -128v-329h-96v223z" />
    <glyph glyph-name="atilde" unicode="&#xe3;" horiz-adv-x="505" 
d="M165 717q-44 0 -73 -33t-39 -92l67 -18q12 72 48 72q12 0 23 -7t30 -26q27 -25 48.5 -35t46.5 -10q43 0 72 33t39 92l-67 18q-13 -69 -52 -69q-14 0 -25.5 7t-28.5 25q-26 24 -45.5 33.5t-43.5 9.5zM354 223l-132 -16q-91 -11 -91 -68q0 -30 25 -47.5t68 -17.5
q59 0 94.5 34t35.5 90h36q0 -90 -55 -149.5t-137 -59.5q-71 0 -116.5 40.5t-45.5 104.5q0 63 44 104.5t120 49.5l154 18v16q0 41 -33 71t-81 30q-43 0 -76.5 -23t-42.5 -59l-89 29q20 63 76.5 102t127.5 39q87 0 150.5 -54t63.5 -128v-329h-96v223z" />
    <glyph glyph-name="adieresis" unicode="&#xe4;" horiz-adv-x="505" 
d="M282 629.5q0 26.5 18 44t44 17.5t44 -17.5t18 -44t-18 -44t-44 -17.5t-44 17.5t-18 44zM72 629.5q0 26.5 18 44t44 17.5t44 -17.5t18 -44t-18 -44t-44 -17.5t-44 17.5t-18 44zM354 223l-132 -16q-91 -11 -91 -68q0 -30 25 -47.5t68 -17.5q59 0 94.5 34t35.5 90h36
q0 -90 -55 -149.5t-137 -59.5q-71 0 -116.5 40.5t-45.5 104.5q0 63 44 104.5t120 49.5l154 18v16q0 41 -33 71t-81 30q-43 0 -76.5 -23t-42.5 -59l-89 29q20 63 76.5 102t127.5 39q87 0 150.5 -54t63.5 -128v-329h-96v223z" />
    <glyph glyph-name="aring" unicode="&#xe5;" horiz-adv-x="505" 
d="M190 687.5q0 -22.5 15 -37t36 -14.5t36 14.5t15 37t-15 37t-36 14.5t-36 -14.5t-15 -37zM122 687.5q0 51.5 34.5 85.5t84.5 34t84.5 -34t34.5 -85.5t-34.5 -85.5t-84.5 -34t-84.5 34t-34.5 85.5zM354 223l-132 -16q-91 -11 -91 -68q0 -30 25 -47.5t68 -17.5q59 0 94.5 34
t35.5 90h36q0 -90 -55 -149.5t-137 -59.5q-71 0 -116.5 40.5t-45.5 104.5q0 63 44 104.5t120 49.5l154 18v16q0 41 -33 71t-81 30q-43 0 -76.5 -23t-42.5 -59l-89 29q20 63 76.5 102t127.5 39q87 0 150.5 -54t63.5 -128v-329h-96v223z" />
    <glyph glyph-name="ae" unicode="&#xe6;" horiz-adv-x="917" 
d="M354 222l-132 -16q-91 -11 -91 -66q0 -30 25.5 -48t68.5 -18q58 0 93.5 34t35.5 90v24zM458 208q9 -61 55.5 -99t110.5 -38q49 0 89 23t60 62l87 -34q-32 -64 -95.5 -102t-138.5 -38q-108 0 -181 76.5t-73 193.5q0 116 71.5 192t176.5 76q110 0 186 -76t76 -190
q0 -19 -6 -46h-418zM785 294q-7 61 -53.5 99t-111.5 38q-62 0 -107.5 -37.5t-54.5 -99.5h327zM208 -11q-75 0 -123.5 42t-48.5 108q0 60 43.5 98t120.5 48l154 18v20q0 40 -32.5 70t-80.5 30q-43 0 -75.5 -22.5t-41.5 -58.5l-92 28q19 62 73.5 101.5t122.5 39.5
q80 0 138 -53.5t58 -128.5v-120q0 -95 -61.5 -157.5t-154.5 -62.5z" />
    <glyph glyph-name="ccedilla" unicode="&#xe7;" horiz-adv-x="587" 
d="M331 -71q23 25 56 25q35 0 59.5 -31t24.5 -76q0 -51 -33.5 -83.5t-86.5 -32.5q-44 0 -76.5 22.5t-44.5 61.5l71 26q9 -36 48 -36q21 0 33.5 12.5t12.5 31.5q0 18 -9 29t-23 11q-18 0 -32 -17l-73 27v122h73v-92zM131 251q0 -78 50 -128t123 -50q52 0 94.5 25.5t63.5 71.5
l88 -40q-34 -68 -100 -108t-146 -40q-112 0 -190 76t-78 193t78 193t190 76q82 0 148.5 -41t99.5 -112l-88 -40q-21 48 -64 75t-96 27q-73 0 -123 -50t-50 -128z" />
    <glyph glyph-name="egrave" unicode="&#xe8;" horiz-adv-x="595" 
d="M149 724l65 60l163 -160l-61 -56zM463 294q-7 63 -53.5 100t-111.5 37q-63 0 -108 -37t-54 -100h327zM136 208q9 -63 55 -100t111 -37q49 0 89 23t60 62l87 -34q-32 -64 -95.5 -102t-140.5 -38q-112 0 -189 76.5t-77 192.5t75 192.5t185 76.5t187 -75.5t77 -188.5
q0 -20 -6 -48h-418z" />
    <glyph glyph-name="eacute" unicode="&#xe9;" horiz-adv-x="595" 
d="M434 724l-65 64l-158 -164l53 -56zM463 294q-7 63 -53.5 100t-111.5 37q-63 0 -108 -37t-54 -100h327zM136 208q9 -63 55 -100t111 -37q49 0 89 23t60 62l87 -34q-32 -64 -95.5 -102t-140.5 -38q-112 0 -189 76.5t-77 192.5t75 192.5t185 76.5t187 -75.5t77 -188.5
q0 -20 -6 -48h-418z" />
    <glyph glyph-name="ecircumflex" unicode="&#xea;" horiz-adv-x="595" 
d="M280 768l-165 -148l49 -56l130 119l130 -119l49 56l-165 148h-28zM463 294q-7 63 -53.5 100t-111.5 37q-63 0 -108 -37t-54 -100h327zM136 208q9 -63 55 -100t111 -37q49 0 89 23t60 62l87 -34q-32 -64 -95.5 -102t-140.5 -38q-112 0 -189 76.5t-77 192.5t75 192.5
t185 76.5t187 -75.5t77 -188.5q0 -20 -6 -48h-418z" />
    <glyph glyph-name="edieresis" unicode="&#xeb;" horiz-adv-x="595" 
d="M336 629.5q0 26.5 18 44t44 17.5t44 -17.5t18 -44t-18 -44t-44 -17.5t-44 17.5t-18 44zM126 629.5q0 26.5 18 44t44 17.5t44 -17.5t18 -44t-18 -44t-44 -17.5t-44 17.5t-18 44zM463 294q-7 63 -53.5 100t-111.5 37q-63 0 -108 -37t-54 -100h327zM136 208q9 -63 55 -100
t111 -37q49 0 89 23t60 62l87 -34q-32 -64 -95.5 -102t-140.5 -38q-112 0 -189 76.5t-77 192.5t75 192.5t185 76.5t187 -75.5t77 -188.5q0 -20 -6 -48h-418z" />
    <glyph glyph-name="igrave" unicode="&#xec;" 
d="M-41 724l65 60l163 -160l-61 -56zM56 0v500h95v-500h-95z" />
    <glyph glyph-name="iacute" unicode="&#xed;" 
d="M244 724l-65 64l-158 -164l53 -56zM56 0v500h95v-500h-95z" />
    <glyph glyph-name="icircumflex" unicode="&#xee;" 
d="M90 768l-165 -148l49 -56l130 119l130 -119l49 56l-165 148h-28zM56 0v500h95v-500h-95z" />
    <glyph glyph-name="idieresis" unicode="&#xef;" 
d="M146 629.5q0 26.5 18 44t44 17.5t44 -17.5t18 -44t-18 -44t-44 -17.5t-44 17.5t-18 44zM-64 629.5q0 26.5 18 44t44 17.5t44 -17.5t18 -44t-18 -44t-44 -17.5t-44 17.5t-18 44zM56 0v500h95v-500h-95z" />
    <glyph glyph-name="eth" unicode="&#xf0;" horiz-adv-x="610" 
d="M516 759l-255 -183l44 -55l253 181zM469 233q0 -64 -51.5 -110t-124.5 -46q-69 0 -115.5 43t-46.5 108t47.5 107.5t120.5 42.5t121.5 -41.5t48.5 -103.5zM228 674q110 -14 175.5 -95.5t75.5 -214.5q-28 46 -83 73.5t-120 27.5q-101 0 -170.5 -69.5t-69.5 -170.5
q0 -105 74.5 -174t186.5 -69q76 0 139 35t96 96q42 76 42 202q0 189 -86.5 310t-234.5 139z" />
    <glyph glyph-name="ntilde" unicode="&#xf1;" horiz-adv-x="550" 
d="M199 717q-44 0 -73 -33t-39 -92l67 -18q12 72 48 72q12 0 23 -7t30 -26q27 -25 48.5 -35t46.5 -10q43 0 72 33t39 92l-67 18q-13 -69 -52 -69q-14 0 -25.5 7t-28.5 25q-26 24 -45.5 33.5t-43.5 9.5zM56 0v500h95v-500h-95zM399 0v292q0 60 -33 94t-85 34
q-53 0 -91.5 -37.5t-38.5 -90.5h-45q0 91 58.5 155t144.5 64q79 0 132 -54.5t53 -143.5v-313h-95z" />
    <glyph glyph-name="ograve" unicode="&#xf2;" horiz-adv-x="618" 
d="M163 724l65 60l163 -160l-61 -56zM131 251q0 -78 51.5 -128t126.5 -50t126.5 50t51.5 128t-51.5 128t-126.5 50t-126.5 -50t-51.5 -128zM36 251q0 117 79.5 193t193.5 76t193.5 -76t79.5 -193t-79.5 -193t-193.5 -76t-193.5 76t-79.5 193z" />
    <glyph glyph-name="oacute" unicode="&#xf3;" horiz-adv-x="618" 
d="M448 724l-65 64l-158 -164l53 -56zM131 251q0 -78 51.5 -128t126.5 -50t126.5 50t51.5 128t-51.5 128t-126.5 50t-126.5 -50t-51.5 -128zM36 251q0 117 79.5 193t193.5 76t193.5 -76t79.5 -193t-79.5 -193t-193.5 -76t-193.5 76t-79.5 193z" />
    <glyph glyph-name="ocircumflex" unicode="&#xf4;" horiz-adv-x="618" 
d="M294 768l-165 -148l49 -56l130 119l130 -119l49 56l-165 148h-28zM131 251q0 -78 51.5 -128t126.5 -50t126.5 50t51.5 128t-51.5 128t-126.5 50t-126.5 -50t-51.5 -128zM36 251q0 117 79.5 193t193.5 76t193.5 -76t79.5 -193t-79.5 -193t-193.5 -76t-193.5 76t-79.5 193z
" />
    <glyph glyph-name="otilde" unicode="&#xf5;" horiz-adv-x="618" 
d="M233 717q-44 0 -73 -33t-39 -92l67 -18q12 72 48 72q12 0 23 -7t30 -26q27 -25 48.5 -35t46.5 -10q43 0 72 33t39 92l-67 18q-13 -69 -52 -69q-14 0 -25.5 7t-28.5 25q-26 24 -45.5 33.5t-43.5 9.5zM131 251q0 -78 51.5 -128t126.5 -50t126.5 50t51.5 128t-51.5 128
t-126.5 50t-126.5 -50t-51.5 -128zM36 251q0 117 79.5 193t193.5 76t193.5 -76t79.5 -193t-79.5 -193t-193.5 -76t-193.5 76t-79.5 193z" />
    <glyph glyph-name="odieresis" unicode="&#xf6;" horiz-adv-x="618" 
d="M350 629.5q0 26.5 18 44t44 17.5t44 -17.5t18 -44t-18 -44t-44 -17.5t-44 17.5t-18 44zM140 629.5q0 26.5 18 44t44 17.5t44 -17.5t18 -44t-18 -44t-44 -17.5t-44 17.5t-18 44zM131 251q0 -78 51.5 -128t126.5 -50t126.5 50t51.5 128t-51.5 128t-126.5 50t-126.5 -50
t-51.5 -128zM36 251q0 117 79.5 193t193.5 76t193.5 -76t79.5 -193t-79.5 -193t-193.5 -76t-193.5 76t-79.5 193z" />
    <glyph glyph-name="divide" unicode="&#xf7;" horiz-adv-x="389" 
d="M126 435q0 31 20 52t50 21q31 0 52 -21t21 -52t-20.5 -51t-51.5 -20t-51 20t-20 51zM126 93q0 31 20 52t50 21q31 0 52 -21t21 -52q0 -30 -20.5 -50.5t-51.5 -20.5t-51 20.5t-20 50.5zM361 309v-85h-333v85h333z" />
    <glyph glyph-name="oslash" unicode="&#xf8;" horiz-adv-x="618" 
d="M524 532l65 -65l-495 -495l-65 65zM127.5 251q0.5 -79 53 -130t128.5 -51t128.5 51t52.5 130t-52.5 130t-128.5 51t-129 -51t-52.5 -130zM36 251q0 117 79.5 193t193.5 76t193.5 -76t79.5 -193t-79.5 -193t-193.5 -76t-193.5 76t-79.5 193z" />
    <glyph glyph-name="ugrave" unicode="&#xf9;" horiz-adv-x="530" 
d="M118 724l65 60l163 -160l-61 -56zM474 500v-500h-95v500h95zM151 500v-308q0 -52 30.5 -82t77.5 -30q50 0 85 32t35 76h46q0 -83 -56 -141t-138 -58q-75 0 -125 50t-50 132v329h95z" />
    <glyph glyph-name="uacute" unicode="&#xfa;" horiz-adv-x="530" 
d="M403 724l-65 64l-158 -164l53 -56zM474 500v-500h-95v500h95zM151 500v-308q0 -52 30.5 -82t77.5 -30q50 0 85 32t35 76h46q0 -83 -56 -141t-138 -58q-75 0 -125 50t-50 132v329h95z" />
    <glyph glyph-name="ucircumflex" unicode="&#xfb;" horiz-adv-x="530" 
d="M250 768l-165 -148l49 -56l130 119l130 -119l49 56l-165 148h-28zM474 500v-500h-95v500h95zM151 500v-308q0 -52 30.5 -82t77.5 -30q50 0 85 32t35 76h46q0 -83 -56 -141t-138 -58q-75 0 -125 50t-50 132v329h95z" />
    <glyph glyph-name="udieresis" unicode="&#xfc;" horiz-adv-x="530" 
d="M306 629.5q0 26.5 18 44t44 17.5t44 -17.5t18 -44t-18 -44t-44 -17.5t-44 17.5t-18 44zM96 629.5q0 26.5 18 44t44 17.5t44 -17.5t18 -44t-18 -44t-44 -17.5t-44 17.5t-18 44zM474 500v-500h-95v500h95zM151 500v-308q0 -52 30.5 -82t77.5 -30q50 0 85 32t35 76h46
q0 -83 -56 -141t-138 -58q-75 0 -125 50t-50 132v329h95z" />
    <glyph glyph-name="yacute" unicode="&#xfd;" horiz-adv-x="567" 
d="M423 724l-65 64l-158 -164l53 -56zM434 500l-150 -379l-150 379h-104l198 -484l-83 -216h104l289 700h-104z" />
    <glyph glyph-name="thorn" unicode="&#xfe;" horiz-adv-x="638" 
d="M56 -200v950h95v-950h-95zM151 251q0 -77 51.5 -127.5t126.5 -50.5t126.5 50.5t51.5 127.5t-51.5 127.5t-126.5 50.5t-126.5 -50.5t-51.5 -127.5zM111 251q0 116 69.5 192.5t171.5 76.5q105 0 177.5 -76.5t72.5 -192.5t-72.5 -192.5t-177.5 -76.5q-102 0 -171.5 76.5
t-69.5 192.5z" />
    <glyph glyph-name="ydieresis" unicode="&#xff;" horiz-adv-x="567" 
d="M325 629.5q0 26.5 18 44t44 17.5t44 -17.5t18 -44t-18 -44t-44 -17.5t-44 17.5t-18 44zM115 629.5q0 26.5 18 44t44 17.5t44 -17.5t18 -44t-18 -44t-44 -17.5t-44 17.5t-18 44zM434 500l-150 -379l-150 379h-104l198 -484l-83 -216h104l289 700h-104z" />
    <glyph glyph-name="Amacron" unicode="&#x100;" horiz-adv-x="770" 
d="M547 864v-77h-314v77h314zM181 270h407v-89h-407v89zM139 0h-109l293 700h124l293 -700h-108l-246 601z" />
    <glyph glyph-name="amacron" unicode="&#x101;" horiz-adv-x="505" 
d="M401 655v-77h-314v77h314zM354 223l-132 -16q-91 -11 -91 -68q0 -30 25 -47.5t68 -17.5q59 0 94.5 34t35.5 90h36q0 -90 -55 -149.5t-137 -59.5q-71 0 -116.5 40.5t-45.5 104.5q0 63 44 104.5t120 49.5l154 18v16q0 41 -33 71t-81 30q-43 0 -76.5 -23t-42.5 -59l-89 29
q20 63 76.5 102t127.5 39q87 0 150.5 -54t63.5 -128v-329h-96v223z" />
    <glyph glyph-name="Abreve" unicode="&#x102;" horiz-adv-x="770" 
d="M385 784q-72 0 -122 47t-51 114h78q0 -39 27 -64.5t69 -25.5q43 0 72.5 26.5t29.5 63.5h78q0 -65 -54 -113t-127 -48zM181 270h407v-89h-407v89zM139 0h-109l293 700h124l293 -700h-108l-246 601z" />
    <glyph glyph-name="abreve" unicode="&#x103;" horiz-adv-x="505" 
d="M239 575q-72 0 -122 47t-51 114h78q0 -39 27 -64.5t69 -25.5q43 0 72.5 26.5t29.5 63.5h78q0 -65 -54 -113t-127 -48zM354 223l-132 -16q-91 -11 -91 -68q0 -30 25 -47.5t68 -17.5q59 0 94.5 34t35.5 90h36q0 -90 -55 -149.5t-137 -59.5q-71 0 -116.5 40.5t-45.5 104.5
q0 63 44 104.5t120 49.5l154 18v16q0 41 -33 71t-81 30q-43 0 -76.5 -23t-42.5 -59l-89 29q20 63 76.5 102t127.5 39q87 0 150.5 -54t63.5 -128v-329h-96v223z" />
    <glyph glyph-name="Aogonek" unicode="&#x104;" horiz-adv-x="770" 
d="M650 -22v26h69v-48l-59 -38q-37 -25 -37 -59q0 -20 13 -33t32 -13q37 0 46 38l66 -16q-11 -42 -41 -66.5t-71 -24.5q-51 0 -83.5 30t-32.5 78q0 33 17 57.5t58 52.5zM181 270h407v-89h-407v89zM139 0h-109l293 700h124l293 -700h-108l-246 601z" />
    <glyph glyph-name="aogonek" unicode="&#x105;" horiz-adv-x="505" 
d="M368 -22v26h69v-48l-59 -38q-37 -25 -37 -59q0 -20 13 -33t32 -13q37 0 46 38l66 -16q-11 -42 -41 -66.5t-71 -24.5q-51 0 -83.5 30t-32.5 78q0 33 17 57.5t58 52.5zM354 223l-132 -16q-91 -11 -91 -68q0 -30 25 -47.5t68 -17.5q59 0 94.5 34t35.5 90h36
q0 -90 -55 -149.5t-137 -59.5q-71 0 -116.5 40.5t-45.5 104.5q0 63 44 104.5t120 49.5l154 18v16q0 41 -33 71t-81 30q-43 0 -76.5 -23t-42.5 -59l-89 29q20 63 76.5 102t127.5 39q87 0 150.5 -54t63.5 -128v-329h-96v223z" />
    <glyph glyph-name="Cacute" unicode="&#x106;" horiz-adv-x="778" 
d="M534 933l-65 64l-158 -164l53 -56zM36 351q0 105 48.5 189.5t131 132t182.5 47.5q111 0 201.5 -59t137.5 -161l-93 -36q-34 75 -100 118t-147 43q-111 0 -188.5 -77.5t-77.5 -196.5t77.5 -196.5t188.5 -77.5q83 0 150.5 45.5t100.5 123.5l94 -34q-45 -106 -137.5 -168
t-206.5 -62q-100 0 -182.5 47.5t-131 132t-48.5 189.5z" />
    <glyph glyph-name="cacute" unicode="&#x107;" horiz-adv-x="587" 
d="M445 724l-65 64l-158 -164l53 -56zM131 251q0 -78 50 -128t123 -50q52 0 94.5 25.5t63.5 71.5l88 -40q-34 -68 -100 -108t-146 -40q-112 0 -190 76t-78 193t78 193t190 76q82 0 148.5 -41t99.5 -112l-88 -40q-21 48 -64 75t-96 27q-73 0 -123 -50t-50 -128z" />
    <glyph glyph-name="Ccircumflex" unicode="&#x108;" horiz-adv-x="778" 
d="M380 977l-165 -148l49 -56l130 119l130 -119l49 56l-165 148h-28zM36 351q0 105 48.5 189.5t131 132t182.5 47.5q111 0 201.5 -59t137.5 -161l-93 -36q-34 75 -100 118t-147 43q-111 0 -188.5 -77.5t-77.5 -196.5t77.5 -196.5t188.5 -77.5q83 0 150.5 45.5t100.5 123.5
l94 -34q-45 -106 -137.5 -168t-206.5 -62q-100 0 -182.5 47.5t-131 132t-48.5 189.5z" />
    <glyph glyph-name="ccircumflex" unicode="&#x109;" horiz-adv-x="587" 
d="M291 768l-165 -148l49 -56l130 119l130 -119l49 56l-165 148h-28zM131 251q0 -78 50 -128t123 -50q52 0 94.5 25.5t63.5 71.5l88 -40q-34 -68 -100 -108t-146 -40q-112 0 -190 76t-78 193t78 193t190 76q82 0 148.5 -41t99.5 -112l-88 -40q-21 48 -64 75t-96 27
q-73 0 -123 -50t-50 -128z" />
    <glyph glyph-name="Cdotaccent" unicode="&#x10a;" horiz-adv-x="778" 
d="M333 838.5q0 26.5 17.5 44t43.5 17.5t43.5 -17.5t17.5 -44t-17.5 -44t-43.5 -17.5t-43.5 17.5t-17.5 44zM36 351q0 105 48.5 189.5t131 132t182.5 47.5q111 0 201.5 -59t137.5 -161l-93 -36q-34 75 -100 118t-147 43q-111 0 -188.5 -77.5t-77.5 -196.5t77.5 -196.5
t188.5 -77.5q83 0 150.5 45.5t100.5 123.5l94 -34q-45 -106 -137.5 -168t-206.5 -62q-100 0 -182.5 47.5t-131 132t-48.5 189.5z" />
    <glyph glyph-name="cdotaccent" unicode="&#x10b;" horiz-adv-x="587" 
d="M244 629.5q0 26.5 17.5 44t43.5 17.5t43.5 -17.5t17.5 -44t-17.5 -44t-43.5 -17.5t-43.5 17.5t-17.5 44zM131 251q0 -78 50 -128t123 -50q52 0 94.5 25.5t63.5 71.5l88 -40q-34 -68 -100 -108t-146 -40q-112 0 -190 76t-78 193t78 193t190 76q82 0 148.5 -41t99.5 -112
l-88 -40q-21 48 -64 75t-96 27q-73 0 -123 -50t-50 -128z" />
    <glyph glyph-name="Ccaron" unicode="&#x10c;" horiz-adv-x="778" 
d="M408 773l165 147l-49 57l-130 -119l-130 119l-49 -57l165 -147h28zM36 351q0 105 48.5 189.5t131 132t182.5 47.5q111 0 201.5 -59t137.5 -161l-93 -36q-34 75 -100 118t-147 43q-111 0 -188.5 -77.5t-77.5 -196.5t77.5 -196.5t188.5 -77.5q83 0 150.5 45.5t100.5 123.5
l94 -34q-45 -106 -137.5 -168t-206.5 -62q-100 0 -182.5 47.5t-131 132t-48.5 189.5z" />
    <glyph glyph-name="ccaron" unicode="&#x10d;" horiz-adv-x="587" 
d="M319 564l165 147l-49 57l-130 -119l-130 119l-49 -57l165 -147h28zM131 251q0 -78 50 -128t123 -50q52 0 94.5 25.5t63.5 71.5l88 -40q-34 -68 -100 -108t-146 -40q-112 0 -190 76t-78 193t78 193t190 76q82 0 148.5 -41t99.5 -112l-88 -40q-21 48 -64 75t-96 27
q-73 0 -123 -50t-50 -128z" />
    <glyph glyph-name="Dcaron" unicode="&#x10e;" horiz-adv-x="701" 
d="M348 773l165 147l-49 57l-130 -119l-130 119l-49 -57l165 -147h28zM320 0h-264v700h264q95 0 173.5 -44t125.5 -124.5t47 -180.5q0 -101 -47 -181.5t-125.5 -125t-173.5 -44.5zM310 608h-159v-516h159q109 0 184.5 73t75.5 186t-75.5 185t-184.5 72z" />
    <glyph glyph-name="dcaron" unicode="&#x10f;" horiz-adv-x="782" 
d="M686 810l87 -24l-58 -232l-83 22zM582 0h-95v750h95v-750zM487 251q0 77 -51.5 127.5t-126.5 50.5t-126.5 -50.5t-51.5 -127.5t51.5 -127.5t126.5 -50.5t126.5 50.5t51.5 127.5zM527 251q0 -116 -69.5 -192.5t-171.5 -76.5q-105 0 -177.5 76.5t-72.5 192.5t72.5 192.5
t177.5 76.5q102 0 171.5 -76.5t69.5 -192.5z" />
    <glyph glyph-name="Dcroat" unicode="&#x110;" horiz-adv-x="705" 
d="M346 401v-85h-346v85h346zM324 0h-252v700h252q94 0 173 -44t125.5 -124.5t46.5 -180.5q0 -101 -46.5 -181.5t-125.5 -125t-173 -44.5zM314 608h-146v-516h146q109 0 184.5 73t75.5 186t-75.5 185t-184.5 72z" />
    <glyph glyph-name="dcroat" unicode="&#x111;" horiz-adv-x="668" 
d="M527 251q0 -116 -69.5 -192.5t-171.5 -76.5q-105 0 -177.5 76.5t-72.5 192.5t72.5 192.5t177.5 76.5q102 0 171.5 -76.5t69.5 -192.5zM487 251q0 77 -51.5 127.5t-126.5 50.5t-126.5 -50.5t-51.5 -127.5t51.5 -127.5t126.5 -50.5t126.5 50.5t51.5 127.5zM582 0h-95v594
h-220v84h220v72h95v-72h86v-84h-86v-594z" />
    <glyph glyph-name="Emacron" unicode="&#x112;" horiz-adv-x="566" 
d="M457 864v-77h-314v77h314zM151 398h354v-94h-354v-211h378v-93h-473v700h473v-93h-378v-209z" />
    <glyph glyph-name="emacron" unicode="&#x113;" horiz-adv-x="595" 
d="M455 655v-77h-314v77h314zM463 294q-7 63 -53.5 100t-111.5 37q-63 0 -108 -37t-54 -100h327zM136 208q9 -63 55 -100t111 -37q49 0 89 23t60 62l87 -34q-32 -64 -95.5 -102t-140.5 -38q-112 0 -189 76.5t-77 192.5t75 192.5t185 76.5t187 -75.5t77 -188.5q0 -20 -6 -48
h-418z" />
    <glyph glyph-name="Ebreve" unicode="&#x114;" horiz-adv-x="566" 
d="M295 784q-72 0 -122 47t-51 114h78q0 -39 27 -64.5t69 -25.5q43 0 72.5 26.5t29.5 63.5h78q0 -65 -54 -113t-127 -48zM151 398h354v-94h-354v-211h378v-93h-473v700h473v-93h-378v-209z" />
    <glyph glyph-name="ebreve" unicode="&#x115;" horiz-adv-x="595" 
d="M293 575q-72 0 -122 47t-51 114h78q0 -39 27 -64.5t69 -25.5q43 0 72.5 26.5t29.5 63.5h78q0 -65 -54 -113t-127 -48zM463 294q-7 63 -53.5 100t-111.5 37q-63 0 -108 -37t-54 -100h327zM136 208q9 -63 55 -100t111 -37q49 0 89 23t60 62l87 -34q-32 -64 -95.5 -102
t-140.5 -38q-112 0 -189 76.5t-77 192.5t75 192.5t185 76.5t187 -75.5t77 -188.5q0 -20 -6 -48h-418z" />
    <glyph glyph-name="Edotaccent" unicode="&#x116;" horiz-adv-x="566" 
d="M235 838.5q0 26.5 17.5 44t43.5 17.5t43.5 -17.5t17.5 -44t-17.5 -44t-43.5 -17.5t-43.5 17.5t-17.5 44zM151 398h354v-94h-354v-211h378v-93h-473v700h473v-93h-378v-209z" />
    <glyph glyph-name="edotaccent" unicode="&#x117;" horiz-adv-x="595" 
d="M233 629.5q0 26.5 17.5 44t43.5 17.5t43.5 -17.5t17.5 -44t-17.5 -44t-43.5 -17.5t-43.5 17.5t-17.5 44zM463 294q-7 63 -53.5 100t-111.5 37q-63 0 -108 -37t-54 -100h327zM136 208q9 -63 55 -100t111 -37q49 0 89 23t60 62l87 -34q-32 -64 -95.5 -102t-140.5 -38
q-112 0 -189 76.5t-77 192.5t75 192.5t185 76.5t187 -75.5t77 -188.5q0 -20 -6 -48h-418z" />
    <glyph glyph-name="Eogonek" unicode="&#x118;" horiz-adv-x="566" 
d="M445 -22v26h69v-48l-59 -38q-37 -25 -37 -59q0 -20 13 -33t32 -13q37 0 46 38l66 -16q-11 -42 -41 -66.5t-71 -24.5q-51 0 -83.5 30t-32.5 78q0 33 17 57.5t58 52.5zM151 398h354v-94h-354v-211h378v-93h-473v700h473v-93h-378v-209z" />
    <glyph glyph-name="eogonek" unicode="&#x119;" horiz-adv-x="595" 
d="M261 -22v26h69v-48l-59 -38q-37 -25 -37 -59q0 -20 13 -33t32 -13q37 0 46 38l66 -16q-11 -42 -41 -66.5t-71 -24.5q-51 0 -83.5 30t-32.5 78q0 33 17 57.5t58 52.5zM463 294q-7 63 -53.5 100t-111.5 37q-63 0 -108 -37t-54 -100h327zM136 208q9 -63 55 -100t111 -37
q49 0 89 23t60 62l87 -34q-32 -64 -95.5 -102t-140.5 -38q-112 0 -189 76.5t-77 192.5t75 192.5t185 76.5t187 -75.5t77 -188.5q0 -20 -6 -48h-418z" />
    <glyph glyph-name="Ecaron" unicode="&#x11a;" horiz-adv-x="566" 
d="M310 773l165 147l-49 57l-130 -119l-130 119l-49 -57l165 -147h28zM151 398h354v-94h-354v-211h378v-93h-473v700h473v-93h-378v-209z" />
    <glyph glyph-name="ecaron" unicode="&#x11b;" horiz-adv-x="595" 
d="M308 564l165 147l-49 57l-130 -119l-130 119l-49 -57l165 -147h28zM463 294q-7 63 -53.5 100t-111.5 37q-63 0 -108 -37t-54 -100h327zM136 208q9 -63 55 -100t111 -37q49 0 89 23t60 62l87 -34q-32 -64 -95.5 -102t-140.5 -38q-112 0 -189 76.5t-77 192.5t75 192.5
t185 76.5t187 -75.5t77 -188.5q0 -20 -6 -48h-418z" />
    <glyph glyph-name="Gcircumflex" unicode="&#x11c;" horiz-adv-x="788" 
d="M380 977l-165 -148l49 -56l130 119l130 -119l49 56l-165 148h-28zM131 351q0 -120 76.5 -197t186.5 -77q101 0 173.5 61.5t82.5 159.5h-285v88h385q2 -16 2 -49q0 -101 -48.5 -182.5t-130 -127t-179.5 -45.5q-73 0 -139 27.5t-114 75.5t-76.5 117.5t-28.5 148.5
t28.5 148.5t76.5 117.5t114 75.5t139 27.5q104 0 190 -55.5t130 -150.5l-86 -42q-32 71 -95 112t-139 41q-110 0 -186.5 -77t-76.5 -197z" />
    <glyph glyph-name="gcircumflex" unicode="&#x11d;" horiz-adv-x="598" 
d="M274 768l-165 -148l49 -56l130 119l130 -119l49 56l-165 148h-28zM491 270.5q0 -106.5 -64 -176.5t-158 -70q-98 0 -165.5 70t-67.5 176t68 177t165 71q93 0 157.5 -70.5t64.5 -177zM447 269q0 67 -45.5 110.5t-112.5 43.5t-112.5 -43.5t-45.5 -110.5t45.5 -110.5
t112.5 -43.5t112.5 43.5t45.5 110.5zM447 -5v505h95v-505q0 -99 -70.5 -161.5t-178.5 -62.5q-82 0 -148 41t-99 112l82 50q23 -49 65.5 -77.5t95.5 -28.5q67 0 112.5 36t45.5 91z" />
    <glyph glyph-name="Gbreve" unicode="&#x11e;" horiz-adv-x="788" 
d="M393 784q-72 0 -122 47t-51 114h78q0 -39 27 -64.5t69 -25.5q43 0 72.5 26.5t29.5 63.5h78q0 -65 -54 -113t-127 -48zM131 351q0 -120 76.5 -197t186.5 -77q101 0 173.5 61.5t82.5 159.5h-285v88h385q2 -16 2 -49q0 -101 -48.5 -182.5t-130 -127t-179.5 -45.5
q-73 0 -139 27.5t-114 75.5t-76.5 117.5t-28.5 148.5t28.5 148.5t76.5 117.5t114 75.5t139 27.5q104 0 190 -55.5t130 -150.5l-86 -42q-32 71 -95 112t-139 41q-110 0 -186.5 -77t-76.5 -197z" />
    <glyph glyph-name="gbreve" unicode="&#x11f;" horiz-adv-x="598" 
d="M287 575q-72 0 -122 47t-51 114h78q0 -39 27 -64.5t69 -25.5q43 0 72.5 26.5t29.5 63.5h78q0 -65 -54 -113t-127 -48zM491 270.5q0 -106.5 -64 -176.5t-158 -70q-98 0 -165.5 70t-67.5 176t68 177t165 71q93 0 157.5 -70.5t64.5 -177zM447 269q0 67 -45.5 110.5
t-112.5 43.5t-112.5 -43.5t-45.5 -110.5t45.5 -110.5t112.5 -43.5t112.5 43.5t45.5 110.5zM447 -5v505h95v-505q0 -99 -70.5 -161.5t-178.5 -62.5q-82 0 -148 41t-99 112l82 50q23 -49 65.5 -77.5t95.5 -28.5q67 0 112.5 36t45.5 91z" />
    <glyph glyph-name="Gdotaccent" unicode="&#x120;" horiz-adv-x="788" 
d="M333 838.5q0 26.5 17.5 44t43.5 17.5t43.5 -17.5t17.5 -44t-17.5 -44t-43.5 -17.5t-43.5 17.5t-17.5 44zM131 351q0 -120 76.5 -197t186.5 -77q101 0 173.5 61.5t82.5 159.5h-285v88h385q2 -16 2 -49q0 -101 -48.5 -182.5t-130 -127t-179.5 -45.5q-73 0 -139 27.5
t-114 75.5t-76.5 117.5t-28.5 148.5t28.5 148.5t76.5 117.5t114 75.5t139 27.5q104 0 190 -55.5t130 -150.5l-86 -42q-32 71 -95 112t-139 41q-110 0 -186.5 -77t-76.5 -197z" />
    <glyph glyph-name="gdotaccent" unicode="&#x121;" horiz-adv-x="598" 
d="M227 629.5q0 26.5 17.5 44t43.5 17.5t43.5 -17.5t17.5 -44t-17.5 -44t-43.5 -17.5t-43.5 17.5t-17.5 44zM491 270.5q0 -106.5 -64 -176.5t-158 -70q-98 0 -165.5 70t-67.5 176t68 177t165 71q93 0 157.5 -70.5t64.5 -177zM447 269q0 67 -45.5 110.5t-112.5 43.5
t-112.5 -43.5t-45.5 -110.5t45.5 -110.5t112.5 -43.5t112.5 43.5t45.5 110.5zM447 -5v505h95v-505q0 -99 -70.5 -161.5t-178.5 -62.5q-82 0 -148 41t-99 112l82 50q23 -49 65.5 -77.5t95.5 -28.5q67 0 112.5 36t45.5 91z" />
    <glyph glyph-name="uni0122" unicode="&#x122;" horiz-adv-x="788" 
d="M432 -227q0 -25 -17.5 -44t-45 -19t-46.5 18t-19 44q0 24 14 42l97 139l40 -30l-64 -90q19 -7 30 -23.5t11 -36.5zM131 351q0 -120 76.5 -197t186.5 -77q101 0 173.5 61.5t82.5 159.5h-285v88h385q2 -16 2 -49q0 -101 -48.5 -182.5t-130 -127t-179.5 -45.5
q-73 0 -139 27.5t-114 75.5t-76.5 117.5t-28.5 148.5t28.5 148.5t76.5 117.5t114 75.5t139 27.5q104 0 190 -55.5t130 -150.5l-86 -42q-32 71 -95 112t-139 41q-110 0 -186.5 -77t-76.5 -197z" />
    <glyph glyph-name="uni0123" unicode="&#x123;" horiz-adv-x="598" 
d="M350 632q0 -26 -17.5 -45t-45 -19t-46.5 18t-19 45q0 23 13 41l98 139l40 -30l-64 -89q19 -8 30 -24.5t11 -35.5zM491 270.5q0 -106.5 -64 -176.5t-158 -70q-98 0 -165.5 70t-67.5 176t68 177t165 71q93 0 157.5 -70.5t64.5 -177zM447 269q0 67 -45.5 110.5t-112.5 43.5
t-112.5 -43.5t-45.5 -110.5t45.5 -110.5t112.5 -43.5t112.5 43.5t45.5 110.5zM447 -5v505h95v-505q0 -99 -70.5 -161.5t-178.5 -62.5q-82 0 -148 41t-99 112l82 50q23 -49 65.5 -77.5t95.5 -28.5q67 0 112.5 36t45.5 91z" />
    <glyph glyph-name="Hcircumflex" unicode="&#x124;" horiz-adv-x="687" 
d="M331 977l-165 -148l49 -56l130 119l130 -119l49 56l-165 148h-28zM56 0v700h95v-302h385v302h95v-700h-95v304h-385v-304h-95z" />
    <glyph glyph-name="hcircumflex" unicode="&#x125;" horiz-adv-x="550" 
d="M89 1000l-165 -148l49 -56l130 119l130 -119l49 56l-165 148h-28zM56 0v750h95v-750h-95zM399 0v292q0 60 -33 94t-85 34q-53 0 -91.5 -37.5t-38.5 -90.5h-45q0 91 58.5 155t144.5 64q79 0 132 -54.5t53 -143.5v-313h-95z" />
    <glyph glyph-name="Hbar" unicode="&#x126;" horiz-adv-x="687" 
d="M688 578v-84h-57v-494h-95v301h-385v-301h-95v494h-56v84h56v122h95v-122h385v122h95v-122h57zM151 494v-100h385v100h-385z" />
    <glyph glyph-name="hbar" unicode="&#x127;" horiz-adv-x="554" 
d="M60 0v590h-60v84h60v76h95v-76h242v-84h-242v-590h-95zM403 0v292q0 60 -33 94t-85 34q-54 0 -92 -37.5t-38 -90.5h-45q0 91 58.5 155t144.5 64q79 0 132 -54.5t53 -143.5v-313h-95z" />
    <glyph glyph-name="Itilde" unicode="&#x128;" 
d="M29 926q-44 0 -73 -33t-39 -92l67 -18q12 72 48 72q12 0 23 -7t30 -26q27 -25 48.5 -35t46.5 -10q43 0 72 33t39 92l-67 18q-13 -69 -52 -69q-14 0 -25.5 7t-28.5 25q-26 24 -45.5 33.5t-43.5 9.5zM151 0h-95v700h95v-700z" />
    <glyph glyph-name="itilde" unicode="&#x129;" 
d="M29 717q-44 0 -73 -33t-39 -92l67 -18q12 72 48 72q12 0 23 -7t30 -26q27 -25 48.5 -35t46.5 -10q43 0 72 33t39 92l-67 18q-13 -69 -52 -69q-14 0 -25.5 7t-28.5 25q-26 24 -45.5 33.5t-43.5 9.5zM56 0v500h95v-500h-95z" />
    <glyph glyph-name="Imacron" unicode="&#x12a;" 
d="M265 864v-77h-314v77h314zM151 0h-95v700h95v-700z" />
    <glyph glyph-name="imacron" unicode="&#x12b;" 
d="M265 655v-77h-314v77h314zM56 0v500h95v-500h-95z" />
    <glyph glyph-name="Ibreve" unicode="&#x12c;" 
d="M103 784q-72 0 -122 47t-51 114h78q0 -39 27 -64.5t69 -25.5q43 0 72.5 26.5t29.5 63.5h78q0 -65 -54 -113t-127 -48zM151 0h-95v700h95v-700z" />
    <glyph glyph-name="ibreve" unicode="&#x12d;" 
d="M103 575q-72 0 -122 47t-51 114h78q0 -39 27 -64.5t69 -25.5q43 0 72.5 26.5t29.5 63.5h78q0 -65 -54 -113t-127 -48zM56 0v500h95v-500h-95z" />
    <glyph glyph-name="Iogonek" unicode="&#x12e;" 
d="M69 -22v26h69v-48l-59 -38q-37 -25 -37 -59q0 -20 13 -33t32 -13q37 0 46 38l66 -16q-11 -42 -41 -66.5t-71 -24.5q-51 0 -83.5 30t-32.5 78q0 33 17 57.5t58 52.5zM151 0h-95v700h95v-700z" />
    <glyph glyph-name="iogonek" unicode="&#x12f;" horiz-adv-x="204" 
d="M67 -22v26h69v-48l-59 -38q-37 -25 -37 -59q0 -20 13 -33t32 -13q37 0 46 38l66 -16q-11 -42 -41 -66.5t-71 -24.5q-51 0 -83.5 30t-32.5 78q0 33 17 57.5t58 52.5zM41 638.5q0 26.5 17.5 44t43.5 17.5t44 -17.5t18 -44t-18 -44t-44 -17.5t-43.5 17.5t-17.5 44zM55 0v500
h95v-500h-95z" />
    <glyph glyph-name="Idotaccent" unicode="&#x130;" 
d="M43 838.5q0 26.5 17.5 44t43.5 17.5t43.5 -17.5t17.5 -44t-17.5 -44t-43.5 -17.5t-43.5 17.5t-17.5 44zM151 0h-95v700h95v-700z" />
    <glyph glyph-name="dotlessi" unicode="&#x131;" 
d="M56 0v500h95v-500h-95z" />
    <glyph glyph-name="IJ" unicode="&#x132;" horiz-adv-x="816" 
d="M244 172l88 34q19 -59 61.5 -90.5t104.5 -31.5q74 0 121 46.5t47 129.5v440h95v-450q0 -113 -76 -187t-187 -74q-93 0 -160 48.5t-94 134.5zM151 0h-95v700h95v-700z" />
    <glyph glyph-name="ij" unicode="&#x133;" horiz-adv-x="409" 
d="M245 638.5q0 26.5 17.5 44t43.5 17.5t44 -17.5t18 -44t-18 -44t-44 -17.5t-43.5 17.5t-17.5 44zM184 -100q36 0 55.5 25t19.5 63v512h95v-542q0 -61 -42.5 -105.5t-109.5 -44.5h-40v92h22zM41 638.5q0 26.5 17.5 44t43.5 17.5t44 -17.5t18 -44t-18 -44t-44 -17.5
t-43.5 17.5t-17.5 44zM55 0v500h95v-500h-95z" />
    <glyph glyph-name="Jcircumflex" unicode="&#x134;" horiz-adv-x="609" 
d="M489 977l-165 -148l49 -56l130 119l130 -119l49 56l-165 148h-28zM36 172l88 34q19 -59 61.5 -90.5t104.5 -31.5q74 0 121 46.5t47 129.5v440h95v-450q0 -113 -76 -187t-187 -74q-93 0 -160 48.5t-94 134.5z" />
    <glyph glyph-name="jcircumflex" unicode="&#x135;" horiz-adv-x="204" 
d="M88 768l-165 -148l49 -56l130 119l130 -119l49 56l-165 148h-28zM-20 -100q36 0 55.5 25t19.5 63v512h95v-542q0 -61 -42.5 -105.5t-109.5 -44.5h-40v92h22z" />
    <glyph glyph-name="uni0136" unicode="&#x136;" horiz-adv-x="627" 
d="M342 -227q0 -25 -17.5 -44t-45 -19t-46.5 18t-19 44q0 24 14 42l97 139l40 -30l-64 -90q19 -7 30 -23.5t11 -36.5zM56 0v700h95v-304h33l288 304h126l-330 -351l330 -349h-126l-288 298h-33v-298h-95z" />
    <glyph glyph-name="uni0137" unicode="&#x137;" horiz-adv-x="519" 
d="M303 -227q0 -25 -17.5 -44t-45 -19t-46.5 18t-19 44q0 24 14 42l97 139l40 -30l-64 -90q19 -7 30 -23.5t11 -36.5zM56 0v750h95v-452h27l191 202h123l-231 -250l231 -250h-123l-191 200h-27v-200h-95z" />
    <glyph glyph-name="kgreenlandic" unicode="&#x138;" horiz-adv-x="519" 
d="M56 0v500h95v-202h27l191 202h123l-231 -250l231 -250h-123l-191 200h-27v-200h-95z" />
    <glyph glyph-name="Lacute" unicode="&#x139;" horiz-adv-x="556" 
d="M244 933l-65 64l-158 -164l53 -56zM151 93h378v-93h-473v700h95v-607z" />
    <glyph glyph-name="lacute" unicode="&#x13a;" 
d="M243 956l-65 64l-158 -164l53 -56zM56 0v750h95v-750h-95z" />
    <glyph glyph-name="uni013B" unicode="&#x13b;" horiz-adv-x="556" 
d="M336 -227q0 -25 -17.5 -44t-45 -19t-46.5 18t-19 44q0 24 14 42l97 139l40 -30l-64 -90q19 -7 30 -23.5t11 -36.5zM151 93h378v-93h-473v700h95v-607z" />
    <glyph glyph-name="uni013C" unicode="&#x13c;" 
d="M142 -227q0 -25 -17.5 -44t-45 -19t-46.5 18t-19 44q0 24 14 42l97 139l40 -30l-64 -90q19 -7 30 -23.5t11 -36.5zM56 0v750h95v-750h-95z" />
    <glyph glyph-name="Lcaron" unicode="&#x13d;" horiz-adv-x="556" 
d="M339 732l87 -24l-58 -232l-83 22zM151 93h378v-93h-473v700h95v-607z" />
    <glyph glyph-name="lcaron" unicode="&#x13e;" horiz-adv-x="344" 
d="M253 810l87 -24l-58 -232l-83 22zM56 0v750h95v-750h-95z" />
    <glyph glyph-name="Ldot" unicode="&#x13f;" horiz-adv-x="556" 
d="M272 359q0 28 18.5 47t45.5 19q28 0 47 -19t19 -47t-18.5 -46.5t-46.5 -18.5t-46.5 18.5t-18.5 46.5zM151 93h378v-93h-473v700h95v-607z" />
    <glyph glyph-name="ldot" unicode="&#x140;" horiz-adv-x="418" 
d="M248 364q0 28 18.5 47t45.5 19q28 0 47 -19t19 -47t-18.5 -46.5t-46.5 -18.5t-46.5 18.5t-18.5 46.5zM56 0v750h95v-750h-95z" />
    <glyph glyph-name="Lslash" unicode="&#x141;" horiz-adv-x="562" 
d="M314 436l17 -83l-312 -62l-16 83zM158 93h377v-93h-473v700h96v-607z" />
    <glyph glyph-name="lslash" unicode="&#x142;" horiz-adv-x="252" 
d="M230 446l16 -83l-223 -40l-16 84zM78 0v750h94v-750h-94z" />
    <glyph glyph-name="Nacute" unicode="&#x143;" horiz-adv-x="687" 
d="M489 933l-65 64l-158 -164l53 -56zM56 0v700h112l368 -552v552h95v-700h-111l-369 558v-558h-95z" />
    <glyph glyph-name="nacute" unicode="&#x144;" horiz-adv-x="550" 
d="M414 724l-65 64l-158 -164l53 -56zM56 0v500h95v-500h-95zM399 0v292q0 60 -33 94t-85 34q-53 0 -91.5 -37.5t-38.5 -90.5h-45q0 91 58.5 155t144.5 64q79 0 132 -54.5t53 -143.5v-313h-95z" />
    <glyph glyph-name="uni0145" unicode="&#x145;" horiz-adv-x="687" 
d="M396 -227q0 -25 -17.5 -44t-45 -19t-46.5 18t-19 44q0 24 14 42l97 139l40 -30l-64 -90q19 -7 30 -23.5t11 -36.5zM56 0v700h112l368 -552v552h95v-700h-111l-369 558v-558h-95z" />
    <glyph glyph-name="uni0146" unicode="&#x146;" horiz-adv-x="550" 
d="M323 -227q0 -25 -17.5 -44t-45 -19t-46.5 18t-19 44q0 24 14 42l97 139l40 -30l-64 -90q19 -7 30 -23.5t11 -36.5zM56 0v500h95v-500h-95zM399 0v292q0 60 -33 94t-85 34q-53 0 -91.5 -37.5t-38.5 -90.5h-45q0 91 58.5 155t144.5 64q79 0 132 -54.5t53 -143.5v-313h-95z
" />
    <glyph glyph-name="Ncaron" unicode="&#x147;" horiz-adv-x="687" 
d="M363 773l165 147l-49 57l-130 -119l-130 119l-49 -57l165 -147h28zM56 0v700h112l368 -552v552h95v-700h-111l-369 558v-558h-95z" />
    <glyph glyph-name="ncaron" unicode="&#x148;" horiz-adv-x="550" 
d="M288 564l165 147l-49 57l-130 -119l-130 119l-49 -57l165 -147h28zM56 0v500h95v-500h-95zM399 0v292q0 60 -33 94t-85 34q-53 0 -91.5 -37.5t-38.5 -90.5h-45q0 91 58.5 155t144.5 64q79 0 132 -54.5t53 -143.5v-313h-95z" />
    <glyph glyph-name="napostrophe" unicode="&#x149;" horiz-adv-x="722" 
d="M228 0v500h95v-500h-95zM571 0v292q0 60 -33 94t-85 34q-53 0 -91.5 -37.5t-38.5 -90.5h-45q0 91 58.5 155t144.5 64q79 0 132 -54.5t53 -143.5v-313h-95zM84 761l88 -24l-59 -232l-83 22z" />
    <glyph glyph-name="Eng" unicode="&#x14a;" horiz-adv-x="655" 
d="M56 0v700h95v-700h-95zM390 -72q55 0 84.5 35t29.5 89v384q0 84 -46.5 132t-120.5 48q-77 0 -131.5 -53t-54.5 -127h-45q0 111 75 193t185 82q98 0 165.5 -73t67.5 -185v-415q0 -83 -55.5 -142.5t-143.5 -59.5h-75v92h65z" />
    <glyph glyph-name="eng" unicode="&#x14b;" horiz-adv-x="550" 
d="M56 0v500h95v-500h-95zM399 11v281q0 59 -33 93.5t-86 34.5t-91 -37.5t-38 -90.5h-45q0 89 59 154t144 65q79 0 132 -55t53 -139v-323q0 -67 -45.5 -113.5t-114.5 -46.5h-72v89h58q38 0 58.5 24.5t20.5 63.5z" />
    <glyph glyph-name="Omacron" unicode="&#x14c;" horiz-adv-x="788" 
d="M555 864v-77h-314v77h314zM131 353q0 -121 76.5 -198.5t186.5 -77.5t186.5 77.5t76.5 198.5q0 119 -76.5 195.5t-186.5 76.5t-186.5 -76.5t-76.5 -195.5zM36 353q0 79 28.5 148t76.5 116.5t114 75t139 27.5t139 -27.5t114 -75t76.5 -116.5t28.5 -148q0 -80 -28.5 -149.5
t-76.5 -118t-114 -76t-139 -27.5t-139 27.5t-114 76t-76.5 118t-28.5 149.5z" />
    <glyph glyph-name="omacron" unicode="&#x14d;" horiz-adv-x="618" 
d="M469 655v-77h-314v77h314zM131 251q0 -78 51.5 -128t126.5 -50t126.5 50t51.5 128t-51.5 128t-126.5 50t-126.5 -50t-51.5 -128zM36 251q0 117 79.5 193t193.5 76t193.5 -76t79.5 -193t-79.5 -193t-193.5 -76t-193.5 76t-79.5 193z" />
    <glyph glyph-name="Obreve" unicode="&#x14e;" horiz-adv-x="788" 
d="M393 784q-72 0 -122 47t-51 114h78q0 -39 27 -64.5t69 -25.5q43 0 72.5 26.5t29.5 63.5h78q0 -65 -54 -113t-127 -48zM131 353q0 -121 76.5 -198.5t186.5 -77.5t186.5 77.5t76.5 198.5q0 119 -76.5 195.5t-186.5 76.5t-186.5 -76.5t-76.5 -195.5zM36 353q0 79 28.5 148
t76.5 116.5t114 75t139 27.5t139 -27.5t114 -75t76.5 -116.5t28.5 -148q0 -80 -28.5 -149.5t-76.5 -118t-114 -76t-139 -27.5t-139 27.5t-114 76t-76.5 118t-28.5 149.5z" />
    <glyph glyph-name="obreve" unicode="&#x14f;" horiz-adv-x="618" 
d="M307 575q-72 0 -122 47t-51 114h78q0 -39 27 -64.5t69 -25.5q43 0 72.5 26.5t29.5 63.5h78q0 -65 -54 -113t-127 -48zM131 251q0 -78 51.5 -128t126.5 -50t126.5 50t51.5 128t-51.5 128t-126.5 50t-126.5 -50t-51.5 -128zM36 251q0 117 79.5 193t193.5 76t193.5 -76
t79.5 -193t-79.5 -193t-193.5 -76t-193.5 76t-79.5 193z" />
    <glyph glyph-name="Ohungarumlaut" unicode="&#x150;" horiz-adv-x="788" 
d="M607 926l-50 60l-165 -161l41 -48zM409 926l-50 60l-165 -161l41 -48zM131 353q0 -121 76.5 -198.5t186.5 -77.5t186.5 77.5t76.5 198.5q0 119 -76.5 195.5t-186.5 76.5t-186.5 -76.5t-76.5 -195.5zM36 353q0 79 28.5 148t76.5 116.5t114 75t139 27.5t139 -27.5t114 -75
t76.5 -116.5t28.5 -148q0 -80 -28.5 -149.5t-76.5 -118t-114 -76t-139 -27.5t-139 27.5t-114 76t-76.5 118t-28.5 149.5z" />
    <glyph glyph-name="ohungarumlaut" unicode="&#x151;" horiz-adv-x="618" 
d="M521 717l-50 60l-165 -161l41 -48zM323 717l-50 60l-165 -161l41 -48zM131 251q0 -78 51.5 -128t126.5 -50t126.5 50t51.5 128t-51.5 128t-126.5 50t-126.5 -50t-51.5 -128zM36 251q0 117 79.5 193t193.5 76t193.5 -76t79.5 -193t-79.5 -193t-193.5 -76t-193.5 76
t-79.5 193z" />
    <glyph glyph-name="OE" unicode="&#x152;" horiz-adv-x="1180" 
d="M752 398h368v-94h-368v-211h392v-93h-487v700h487v-93h-392v-209zM131 352q0 -117 75.5 -196t187.5 -79t187.5 79t75.5 196t-75 195t-188 78t-188 -78t-75 -195zM36 352q0 103 45.5 187.5t125.5 132.5t178 48q146 0 244 -105t98 -263q0 -104 -44.5 -189t-123 -133
t-174.5 -48q-98 0 -178 48.5t-125.5 133.5t-45.5 188z" />
    <glyph glyph-name="oe" unicode="&#x153;" horiz-adv-x="1054" 
d="M922 295q-8 61 -55.5 98.5t-113.5 37.5q-64 0 -110 -37.5t-56 -98.5h335zM587 208q10 -61 57.5 -99t112.5 -38q50 0 91 23t62 62l87 -34q-32 -64 -96 -102t-140 -38q-109 0 -184 76.5t-75 193.5q0 116 73.5 192t180.5 76q110 0 186 -76t76 -190q0 -19 -5 -46h-426z
M131 251q0 -77 51.5 -127.5t126.5 -50.5t126.5 50.5t51.5 127.5t-51.5 127.5t-126.5 50.5t-126.5 -50.5t-51.5 -127.5zM36 251q0 116 77.5 192.5t189.5 76.5q109 0 183 -76.5t74 -192.5t-74 -192.5t-183 -76.5q-112 0 -189.5 76.5t-77.5 192.5z" />
    <glyph glyph-name="Racute" unicode="&#x154;" horiz-adv-x="635" 
d="M453 933l-65 64l-158 -164l53 -56zM355 607h-204v-257h204q62 0 103.5 37.5t41.5 92.5t-41 91t-104 36zM397 265l202 -265h-113l-197 258h-138v-258h-95v700h309q102 0 168 -62t66 -160q0 -85 -57.5 -145.5t-144.5 -67.5z" />
    <glyph glyph-name="racute" unicode="&#x155;" horiz-adv-x="350" 
d="M348 724l-65 64l-158 -164l53 -56zM56 0v500h95v-500h-95zM304 413q-63 0 -108 -37t-45 -89h-45q0 89 56 155t136 66h28v-95h-22z" />
    <glyph glyph-name="uni0156" unicode="&#x156;" horiz-adv-x="635" 
d="M352 -227q0 -25 -17.5 -44t-45 -19t-46.5 18t-19 44q0 24 14 42l97 139l40 -30l-64 -90q19 -7 30 -23.5t11 -36.5zM355 607h-204v-257h204q62 0 103.5 37.5t41.5 92.5t-41 91t-104 36zM397 265l202 -265h-113l-197 258h-138v-258h-95v700h309q102 0 168 -62t66 -160
q0 -85 -57.5 -145.5t-144.5 -67.5z" />
    <glyph glyph-name="uni0157" unicode="&#x157;" horiz-adv-x="350" 
d="M143 -227q0 -25 -17.5 -44t-45 -19t-46.5 18t-19 44q0 24 14 42l97 139l40 -30l-64 -90q19 -7 30 -23.5t11 -36.5zM56 0v500h95v-500h-95zM304 413q-63 0 -108 -37t-45 -89h-45q0 89 56 155t136 66h28v-95h-22z" />
    <glyph glyph-name="Rcaron" unicode="&#x158;" horiz-adv-x="635" 
d="M326 773l165 147l-49 57l-130 -119l-130 119l-49 -57l165 -147h28zM355 607h-204v-257h204q62 0 103.5 37.5t41.5 92.5t-41 91t-104 36zM397 265l202 -265h-113l-197 258h-138v-258h-95v700h309q102 0 168 -62t66 -160q0 -85 -57.5 -145.5t-144.5 -67.5z" />
    <glyph glyph-name="rcaron" unicode="&#x159;" horiz-adv-x="350" 
d="M222 564l165 147l-49 57l-130 -119l-130 119l-49 -57l165 -147h28zM56 0v500h95v-500h-95zM304 413q-63 0 -108 -37t-45 -89h-45q0 89 56 155t136 66h28v-95h-22z" />
    <glyph glyph-name="Sacute" unicode="&#x15a;" horiz-adv-x="581" 
d="M415 933l-65 64l-158 -164l53 -56zM287 303q-242 48 -242 211q0 86 65 142.5t166 56.5q87 0 158.5 -47t102.5 -126l-89 -35q-23 54 -68 85t-102 31q-59 0 -97 -29.5t-38 -76.5q0 -43 38 -70t122 -44q118 -24 180 -79t62 -134q0 -86 -68 -142.5t-172 -56.5
q-90 0 -163.5 47.5t-105.5 126.5l91 44q23 -59 70 -92.5t105 -33.5q63 0 104 31t41 78q0 42 -39 69.5t-121 43.5z" />
    <glyph glyph-name="sacute" unicode="&#x15b;" horiz-adv-x="481" 
d="M386 724l-65 64l-158 -164l53 -56zM236 209q-188 31 -188 150q0 67 50.5 110.5t128.5 43.5q69 0 125.5 -38t81.5 -101l-92 -30q-15 39 -45 61.5t-69 22.5q-37 0 -61 -18.5t-24 -46.5q0 -26 25.5 -42t81.5 -26q96 -15 145.5 -55t49.5 -100q0 -65 -54.5 -108t-134.5 -43
q-74 0 -134 36t-86 97l89 34q17 -40 51.5 -63t77.5 -23q41 0 68.5 19.5t27.5 48.5q0 52 -114 71z" />
    <glyph glyph-name="Scircumflex" unicode="&#x15c;" horiz-adv-x="581" 
d="M261 977l-165 -148l49 -56l130 119l130 -119l49 56l-165 148h-28zM287 303q-242 48 -242 211q0 86 65 142.5t166 56.5q87 0 158.5 -47t102.5 -126l-89 -35q-23 54 -68 85t-102 31q-59 0 -97 -29.5t-38 -76.5q0 -43 38 -70t122 -44q118 -24 180 -79t62 -134
q0 -86 -68 -142.5t-172 -56.5q-90 0 -163.5 47.5t-105.5 126.5l91 44q23 -59 70 -92.5t105 -33.5q63 0 104 31t41 78q0 42 -39 69.5t-121 43.5z" />
    <glyph glyph-name="scircumflex" unicode="&#x15d;" horiz-adv-x="481" 
d="M232 768l-165 -148l49 -56l130 119l130 -119l49 56l-165 148h-28zM236 209q-188 31 -188 150q0 67 50.5 110.5t128.5 43.5q69 0 125.5 -38t81.5 -101l-92 -30q-15 39 -45 61.5t-69 22.5q-37 0 -61 -18.5t-24 -46.5q0 -26 25.5 -42t81.5 -26q96 -15 145.5 -55t49.5 -100
q0 -65 -54.5 -108t-134.5 -43q-74 0 -134 36t-86 97l89 34q17 -40 51.5 -63t77.5 -23q41 0 68.5 19.5t27.5 48.5q0 52 -114 71z" />
    <glyph glyph-name="Scedilla" unicode="&#x15e;" horiz-adv-x="581" 
d="M335 -71q23 25 56 25q35 0 59.5 -31t24.5 -76q0 -51 -33.5 -83.5t-86.5 -32.5q-44 0 -76.5 22.5t-44.5 61.5l71 26q9 -36 48 -36q21 0 33.5 12.5t12.5 31.5q0 18 -9 29t-23 11q-18 0 -32 -17l-73 27v122h73v-92zM287 303q-242 48 -242 211q0 86 65 142.5t166 56.5
q87 0 158.5 -47t102.5 -126l-89 -35q-23 54 -68 85t-102 31q-59 0 -97 -29.5t-38 -76.5q0 -43 38 -70t122 -44q118 -24 180 -79t62 -134q0 -86 -68 -142.5t-172 -56.5q-90 0 -163.5 47.5t-105.5 126.5l91 44q23 -59 70 -92.5t105 -33.5q63 0 104 31t41 78q0 42 -39 69.5
t-121 43.5z" />
    <glyph glyph-name="scedilla" unicode="&#x15f;" horiz-adv-x="481" 
d="M285 -71q23 25 56 25q35 0 59.5 -31t24.5 -76q0 -51 -33.5 -83.5t-86.5 -32.5q-44 0 -76.5 22.5t-44.5 61.5l71 26q9 -36 48 -36q21 0 33.5 12.5t12.5 31.5q0 18 -9 29t-23 11q-18 0 -32 -17l-73 27v122h73v-92zM236 209q-188 31 -188 150q0 67 50.5 110.5t128.5 43.5
q69 0 125.5 -38t81.5 -101l-92 -30q-15 39 -45 61.5t-69 22.5q-37 0 -61 -18.5t-24 -46.5q0 -26 25.5 -42t81.5 -26q96 -15 145.5 -55t49.5 -100q0 -65 -54.5 -108t-134.5 -43q-74 0 -134 36t-86 97l89 34q17 -40 51.5 -63t77.5 -23q41 0 68.5 19.5t27.5 48.5q0 52 -114 71z
" />
    <glyph glyph-name="Scaron" unicode="&#x160;" horiz-adv-x="581" 
d="M289 773l165 147l-49 57l-130 -119l-130 119l-49 -57l165 -147h28zM287 303q-242 48 -242 211q0 86 65 142.5t166 56.5q87 0 158.5 -47t102.5 -126l-89 -35q-23 54 -68 85t-102 31q-59 0 -97 -29.5t-38 -76.5q0 -43 38 -70t122 -44q118 -24 180 -79t62 -134
q0 -86 -68 -142.5t-172 -56.5q-90 0 -163.5 47.5t-105.5 126.5l91 44q23 -59 70 -92.5t105 -33.5q63 0 104 31t41 78q0 42 -39 69.5t-121 43.5z" />
    <glyph glyph-name="scaron" unicode="&#x161;" horiz-adv-x="481" 
d="M260 564l165 147l-49 57l-130 -119l-130 119l-49 -57l165 -147h28zM236 209q-188 31 -188 150q0 67 50.5 110.5t128.5 43.5q69 0 125.5 -38t81.5 -101l-92 -30q-15 39 -45 61.5t-69 22.5q-37 0 -61 -18.5t-24 -46.5q0 -26 25.5 -42t81.5 -26q96 -15 145.5 -55t49.5 -100
q0 -65 -54.5 -108t-134.5 -43q-74 0 -134 36t-86 97l89 34q17 -40 51.5 -63t77.5 -23q41 0 68.5 19.5t27.5 48.5q0 52 -114 71z" />
    <glyph glyph-name="uni0162" unicode="&#x162;" horiz-adv-x="599" 
d="M328 -71q23 25 56 25q35 0 59.5 -31t24.5 -76q0 -51 -33.5 -83.5t-86.5 -32.5q-44 0 -76.5 22.5t-44.5 61.5l71 26q9 -36 48 -36q21 0 33.5 12.5t12.5 31.5q0 18 -9 29t-23 11q-18 0 -32 -17l-73 27v122h73v-92zM572 700v-93h-225v-607h-95v607h-225v93h545z" />
    <glyph glyph-name="uni0163" unicode="&#x163;" horiz-adv-x="392" 
d="M293 -71q23 25 56 25q35 0 59.5 -31t24.5 -76q0 -51 -33.5 -83.5t-86.5 -32.5q-44 0 -76.5 22.5t-44.5 61.5l71 26q9 -36 48 -36q21 0 33.5 12.5t12.5 31.5q0 18 -9 29t-23 11q-18 0 -32 -17l-73 27v122h73v-92zM297 89h67v-89h-81q-76 0 -120 38.5t-44 104.5v269h-91v88
h91v144l95 20v-164h150v-88h-150v-247q0 -37 21.5 -56.5t61.5 -19.5z" />
    <glyph glyph-name="Tcaron" unicode="&#x164;" horiz-adv-x="599" 
d="M314 776l165 147l-49 57l-130 -119l-130 119l-49 -57l165 -147h28zM572 700v-93h-225v-607h-95v607h-225v93h545z" />
    <glyph glyph-name="tcaron" unicode="&#x165;" horiz-adv-x="392" 
d="M342 810l87 -24l-58 -232l-83 22zM297 89h67v-89h-81q-76 0 -120 38.5t-44 104.5v269h-91v88h91v144l95 20v-164h150v-88h-150v-247q0 -37 21.5 -56.5t61.5 -19.5z" />
    <glyph glyph-name="Tbar" unicode="&#x166;" horiz-adv-x="599" 
d="M481 380v-92h-369v92h369zM572 700v-93h-225v-607h-95v607h-225v93h545z" />
    <glyph glyph-name="tbar" unicode="&#x167;" horiz-adv-x="392" 
d="M361 311v-77h-331v77h331zM297 89h67v-89h-81q-76 0 -120 37.5t-44 101.5v280h-91v81h91v144l95 20v-164h150v-81h-150v-261q0 -69 83 -69z" />
    <glyph glyph-name="Utilde" unicode="&#x168;" horiz-adv-x="690" 
d="M270 926q-44 0 -73 -33t-39 -92l67 -18q12 72 48 72q12 0 23 -7t30 -26q27 -25 48.5 -35t46.5 -10q43 0 72 33t39 92l-67 18q-13 -69 -52 -69q-14 0 -25.5 7t-28.5 25q-26 24 -45.5 33.5t-43.5 9.5zM345 -11q-123 0 -206 81t-83 204v426h95v-416q0 -94 54.5 -147
t139.5 -53t139.5 53t54.5 147v416h95v-426q0 -123 -83 -204t-206 -81z" />
    <glyph glyph-name="utilde" unicode="&#x169;" horiz-adv-x="530" 
d="M189 717q-44 0 -73 -33t-39 -92l67 -18q12 72 48 72q12 0 23 -7t30 -26q27 -25 48.5 -35t46.5 -10q43 0 72 33t39 92l-67 18q-13 -69 -52 -69q-14 0 -25.5 7t-28.5 25q-26 24 -45.5 33.5t-43.5 9.5zM474 500v-500h-95v500h95zM151 500v-308q0 -52 30.5 -82t77.5 -30
q50 0 85 32t35 76h46q0 -83 -56 -141t-138 -58q-75 0 -125 50t-50 132v329h95z" />
    <glyph glyph-name="Umacron" unicode="&#x16a;" horiz-adv-x="690" 
d="M506 864v-77h-314v77h314zM345 -11q-123 0 -206 81t-83 204v426h95v-416q0 -94 54.5 -147t139.5 -53t139.5 53t54.5 147v416h95v-426q0 -123 -83 -204t-206 -81z" />
    <glyph glyph-name="umacron" unicode="&#x16b;" horiz-adv-x="530" 
d="M425 655v-77h-314v77h314zM474 500v-500h-95v500h95zM151 500v-308q0 -52 30.5 -82t77.5 -30q50 0 85 32t35 76h46q0 -83 -56 -141t-138 -58q-75 0 -125 50t-50 132v329h95z" />
    <glyph glyph-name="Ubreve" unicode="&#x16c;" horiz-adv-x="690" 
d="M344 784q-72 0 -122 47t-51 114h78q0 -39 27 -64.5t69 -25.5q43 0 72.5 26.5t29.5 63.5h78q0 -65 -54 -113t-127 -48zM345 -11q-123 0 -206 81t-83 204v426h95v-416q0 -94 54.5 -147t139.5 -53t139.5 53t54.5 147v416h95v-426q0 -123 -83 -204t-206 -81z" />
    <glyph glyph-name="ubreve" unicode="&#x16d;" horiz-adv-x="530" 
d="M263 575q-72 0 -122 47t-51 114h78q0 -39 27 -64.5t69 -25.5q43 0 72.5 26.5t29.5 63.5h78q0 -65 -54 -113t-127 -48zM474 500v-500h-95v500h95zM151 500v-308q0 -52 30.5 -82t77.5 -30q50 0 85 32t35 76h46q0 -83 -56 -141t-138 -58q-75 0 -125 50t-50 132v329h95z" />
    <glyph glyph-name="Uring" unicode="&#x16e;" horiz-adv-x="690" 
d="M294 896.5q0 -22.5 15 -37t36 -14.5t36 14.5t15 37t-15 37t-36 14.5t-36 -14.5t-15 -37zM226 896.5q0 51.5 34.5 85.5t84.5 34t84.5 -34t34.5 -85.5t-34.5 -85.5t-84.5 -34t-84.5 34t-34.5 85.5zM345 -11q-123 0 -206 81t-83 204v426h95v-416q0 -94 54.5 -147t139.5 -53
t139.5 53t54.5 147v416h95v-426q0 -123 -83 -204t-206 -81z" />
    <glyph glyph-name="uring" unicode="&#x16f;" horiz-adv-x="530" 
d="M212 687.5q0 -22.5 15 -37t36 -14.5t36 14.5t15 37t-15 37t-36 14.5t-36 -14.5t-15 -37zM144 687.5q0 51.5 34.5 85.5t84.5 34t84.5 -34t34.5 -85.5t-34.5 -85.5t-84.5 -34t-84.5 34t-34.5 85.5zM474 500v-500h-95v500h95zM151 500v-308q0 -52 30.5 -82t77.5 -30
q50 0 85 32t35 76h46q0 -83 -56 -141t-138 -58q-75 0 -125 50t-50 132v329h95z" />
    <glyph glyph-name="Uhungarumlaut" unicode="&#x170;" horiz-adv-x="690" 
d="M558 926l-50 60l-165 -161l41 -48zM360 926l-50 60l-165 -161l41 -48zM345 -11q-123 0 -206 81t-83 204v426h95v-416q0 -94 54.5 -147t139.5 -53t139.5 53t54.5 147v416h95v-426q0 -123 -83 -204t-206 -81z" />
    <glyph glyph-name="uhungarumlaut" unicode="&#x171;" horiz-adv-x="530" 
d="M476 717l-50 60l-165 -161l41 -48zM278 717l-50 60l-165 -161l41 -48zM474 500v-500h-95v500h95zM151 500v-308q0 -52 30.5 -82t77.5 -30q50 0 85 32t35 76h46q0 -83 -56 -141t-138 -58q-75 0 -125 50t-50 132v329h95z" />
    <glyph glyph-name="Uogonek" unicode="&#x172;" horiz-adv-x="690" 
d="M309 -22v26h69v-48l-59 -38q-37 -25 -37 -59q0 -20 13 -33t32 -13q37 0 46 38l66 -16q-11 -42 -41 -66.5t-71 -24.5q-51 0 -83.5 30t-32.5 78q0 33 17 57.5t58 52.5zM345 -11q-123 0 -206 81t-83 204v426h95v-416q0 -94 54.5 -147t139.5 -53t139.5 53t54.5 147v416h95
v-426q0 -123 -83 -204t-206 -81z" />
    <glyph glyph-name="uogonek" unicode="&#x173;" horiz-adv-x="530" 
d="M398 -22v26h69v-48l-59 -38q-37 -25 -37 -59q0 -20 13 -33t32 -13q37 0 46 38l66 -16q-11 -42 -41 -66.5t-71 -24.5q-51 0 -83.5 30t-32.5 78q0 33 17 57.5t58 52.5zM474 500v-500h-95v500h95zM151 500v-308q0 -52 30.5 -82t77.5 -30q50 0 85 32t35 76h46q0 -83 -56 -141
t-138 -58q-75 0 -125 50t-50 132v329h95z" />
    <glyph glyph-name="Wcircumflex" unicode="&#x174;" horiz-adv-x="1033" 
d="M500 977l-165 -148l49 -56l130 119l130 -119l49 56l-165 148h-28zM898 700h105l-194 -700h-131l-162 558l-153 -558h-132l-201 700h105l165 -585l166 585h102l171 -585z" />
    <glyph glyph-name="wcircumflex" unicode="&#x175;" horiz-adv-x="842" 
d="M406 768l-165 -148l49 -56l130 119l130 -119l49 56l-165 148h-28zM711 500h101l-152 -500h-124l-115 371l-111 -371h-124l-156 500h101l119 -404l124 404h94l126 -404z" />
    <glyph glyph-name="Ycircumflex" unicode="&#x176;" horiz-adv-x="671" 
d="M329 977l-165 -148l49 -56l130 119l130 -119l49 56l-165 148h-28zM298 0h95v232l250 468h-111l-186 -353l-205 353h-112l269 -468v-232z" />
    <glyph glyph-name="ycircumflex" unicode="&#x177;" horiz-adv-x="567" 
d="M269 768l-165 -148l49 -56l130 119l130 -119l49 56l-165 148h-28zM434 500l-150 -379l-150 379h-104l198 -484l-83 -216h104l289 700h-104z" />
    <glyph glyph-name="Ydieresis" unicode="&#x178;" horiz-adv-x="671" 
d="M385 838.5q0 26.5 18 44t44 17.5t44 -17.5t18 -44t-18 -44t-44 -17.5t-44 17.5t-18 44zM175 838.5q0 26.5 18 44t44 17.5t44 -17.5t18 -44t-18 -44t-44 -17.5t-44 17.5t-18 44zM298 0h95v232l250 468h-111l-186 -353l-205 353h-112l269 -468v-232z" />
    <glyph glyph-name="Zacute" unicode="&#x179;" horiz-adv-x="628" 
d="M455 933l-65 64l-158 -164l53 -56zM588 0v92h-439l439 498v110h-548v-92h439l-439 -492v-116h548z" />
    <glyph glyph-name="zacute" unicode="&#x17a;" horiz-adv-x="485" 
d="M389 724l-65 64l-158 -164l53 -56zM450 0v84h-308l308 313v103h-414v-84h297l-297 -313v-103h414z" />
    <glyph glyph-name="Zdotaccent" unicode="&#x17b;" horiz-adv-x="628" 
d="M254 838.5q0 26.5 17.5 44t43.5 17.5t43.5 -17.5t17.5 -44t-17.5 -44t-43.5 -17.5t-43.5 17.5t-17.5 44zM588 0v92h-439l439 498v110h-548v-92h439l-439 -492v-116h548z" />
    <glyph glyph-name="zdotaccent" unicode="&#x17c;" horiz-adv-x="485" 
d="M188 629.5q0 26.5 17.5 44t43.5 17.5t43.5 -17.5t17.5 -44t-17.5 -44t-43.5 -17.5t-43.5 17.5t-17.5 44zM450 0v84h-308l308 313v103h-414v-84h297l-297 -313v-103h414z" />
    <glyph glyph-name="Zcaron" unicode="&#x17d;" horiz-adv-x="628" 
d="M329 773l165 147l-49 57l-130 -119l-130 119l-49 -57l165 -147h28zM588 0v92h-439l439 498v110h-548v-92h439l-439 -492v-116h548z" />
    <glyph glyph-name="zcaron" unicode="&#x17e;" horiz-adv-x="485" 
d="M263 564l165 147l-49 57l-130 -119l-130 119l-49 -57l165 -147h28zM450 0v84h-308l308 313v103h-414v-84h297l-297 -313v-103h414z" />
    <glyph glyph-name="Ohorn" unicode="&#x1a0;" horiz-adv-x="797" 
d="M569 596v65h60q25 0 38.5 12t13.5 34q0 26 -26 45l55 48q45 -28 45 -89q0 -48 -32 -81.5t-77 -33.5h-77zM131 353q0 -121 76.5 -198.5t186.5 -77.5t186.5 77.5t76.5 198.5q0 119 -76.5 195.5t-186.5 76.5t-186.5 -76.5t-76.5 -195.5zM36 353q0 79 28.5 148t76.5 116.5
t114 75t139 27.5t139 -27.5t114 -75t76.5 -116.5t28.5 -148q0 -80 -28.5 -149.5t-76.5 -118t-114 -76t-139 -27.5t-139 27.5t-114 76t-76.5 118t-28.5 149.5z" />
    <glyph glyph-name="ohorn" unicode="&#x1a1;" horiz-adv-x="651" 
d="M468 388v65h60q25 0 38.5 12t13.5 34q0 26 -26 45l55 48q45 -28 45 -89q0 -48 -32 -81.5t-77 -33.5h-77zM131 251q0 -78 51.5 -128t126.5 -50t126.5 50t51.5 128t-51.5 128t-126.5 50t-126.5 -50t-51.5 -128zM36 251q0 117 79.5 193t193.5 76t193.5 -76t79.5 -193
t-79.5 -193t-193.5 -76t-193.5 76t-79.5 193z" />
    <glyph glyph-name="Uhorn" unicode="&#x1af;" horiz-adv-x="742" 
d="M589 596v65h60q25 0 38.5 12t13.5 34q0 26 -26 45l55 48q45 -28 45 -89q0 -48 -32 -81.5t-77 -33.5h-77zM345 -11q-123 0 -206 81t-83 204v426h95v-416q0 -94 54.5 -147t139.5 -53t139.5 53t54.5 147v416h95v-426q0 -123 -83 -204t-206 -81z" />
    <glyph glyph-name="uhorn" unicode="&#x1b0;" horiz-adv-x="619" 
d="M440 388v65h60q25 0 38.5 12t13.5 34q0 26 -26 45l55 48q45 -28 45 -89q0 -48 -32 -81.5t-77 -33.5h-77zM474 500v-500h-95v500h95zM151 500v-308q0 -52 30.5 -82t77.5 -30q50 0 85 32t35 76h46q0 -83 -56 -141t-138 -58q-75 0 -125 50t-50 132v329h95z" />
    <glyph glyph-name="uni0237" unicode="&#x237;" horiz-adv-x="204" 
d="M-20 -100q36 0 55.5 25t19.5 63v512h95v-542q0 -61 -42.5 -105.5t-109.5 -44.5h-40v92h22z" />
    <glyph glyph-name="uni02BC" unicode="&#x2bc;" horiz-adv-x="171" 
d="M84 761l88 -24l-59 -232l-83 22z" />
    <glyph glyph-name="gravecomb" unicode="&#x300;" horiz-adv-x="264" 
d="M14 656l65 60l163 -160l-61 -56z" />
    <glyph glyph-name="acutecomb" unicode="&#x301;" horiz-adv-x="264" 
d="M245 656l-65 64l-158 -164l53 -56z" />
    <glyph glyph-name="uni0302" unicode="&#x302;" horiz-adv-x="388" 
d="M180 700l-165 -148l49 -56l130 119l130 -119l49 56l-165 148h-28z" />
    <glyph glyph-name="tildecomb" unicode="&#x303;" horiz-adv-x="404" 
d="M127 649q-44 0 -73 -33t-39 -92l67 -18q12 72 48 72q12 0 23 -7t30 -26q27 -25 48.5 -35t46.5 -10q43 0 72 33t39 92l-67 18q-13 -69 -52 -69q-14 0 -25.5 7t-28.5 25q-26 24 -45.5 33.5t-43.5 9.5z" />
    <glyph glyph-name="uni0304" unicode="&#x304;" horiz-adv-x="352" 
d="M333 587v-77h-314v77h314z" />
    <glyph glyph-name="uni0306" unicode="&#x306;" horiz-adv-x="338" 
d="M165 507q-72 0 -122 47t-51 114h78q0 -39 27 -64.5t69 -25.5q43 0 72.5 26.5t29.5 63.5h78q0 -65 -54 -113t-127 -48z" />
    <glyph glyph-name="uni0307" unicode="&#x307;" horiz-adv-x="170" 
d="M24 561.5q0 26.5 17.5 44t43.5 17.5t43.5 -17.5t17.5 -44t-17.5 -44t-43.5 -17.5t-43.5 17.5t-17.5 44z" />
    <glyph glyph-name="uni0308" unicode="&#x308;" horiz-adv-x="390" 
d="M238 561.5q0 26.5 18 44t44 17.5t44 -17.5t18 -44t-18 -44t-44 -17.5t-44 17.5t-18 44zM28 561.5q0 26.5 18 44t44 17.5t44 -17.5t18 -44t-18 -44t-44 -17.5t-44 17.5t-18 44z" />
    <glyph glyph-name="hookabovecomb" unicode="&#x309;" horiz-adv-x="260" 
d="M131 486l-42 56l44 30q33 19 33 50q0 20 -13 32t-33 12q-37 0 -45 -36l-65 19q11 41 41 64t71 23q51 0 83.5 -32t32.5 -82q0 -36 -18.5 -61.5t-58.5 -53.5z" />
    <glyph glyph-name="uni030A" unicode="&#x30a;" horiz-adv-x="298" 
d="M98 619.5q0 -22.5 15 -37t36 -14.5t36 14.5t15 37t-15 37t-36 14.5t-36 -14.5t-15 -37zM30 619.5q0 51.5 34.5 85.5t84.5 34t84.5 -34t34.5 -85.5t-34.5 -85.5t-84.5 -34t-84.5 34t-34.5 85.5z" />
    <glyph glyph-name="uni030B" unicode="&#x30b;" horiz-adv-x="424" 
d="M418 649l-50 60l-165 -161l41 -48zM220 649l-50 60l-165 -161l41 -48z" />
    <glyph glyph-name="uni030C" unicode="&#x30c;" horiz-adv-x="388" 
d="M208 496l165 147l-49 57l-130 -119l-130 119l-49 -57l165 -147h28z" />
    <glyph glyph-name="uni0312" unicode="&#x312;" horiz-adv-x="170" 
d="M151 564q0 -26 -17.5 -45t-45 -19t-46.5 18t-19 45q0 23 13 41l98 139l40 -30l-64 -89q19 -8 30 -24.5t11 -35.5z" />
    <glyph glyph-name="uni0313" unicode="&#x313;" horiz-adv-x="170" 
d="M47 680q0 25 17.5 44t44.5 19t46 -18t19 -44q0 -24 -13 -42l-98 -139l-40 30l64 90q-18 7 -29 23.5t-11 36.5z" />
    <glyph glyph-name="uni0315" unicode="&#x315;" horiz-adv-x="170" 
d="M119 734l87 -24l-58 -232l-83 22z" />
    <glyph glyph-name="uni031B" unicode="&#x31b;" horiz-adv-x="247" 
d="M46 460v65h60q25 0 38.5 12t13.5 34q0 26 -26 45l55 48q45 -28 45 -89q0 -48 -32 -81.5t-77 -33.5h-77z" />
    <glyph glyph-name="dotbelowcomb" unicode="&#x323;" horiz-adv-x="170" 
d="M24 -141q0 26 17.5 43.5t43.5 17.5t43.5 -17.5t17.5 -43.5t-17.5 -44t-43.5 -18t-43.5 18t-17.5 44z" />
    <glyph glyph-name="uni0326" unicode="&#x326;" horiz-adv-x="170" 
d="M114 -227q0 -25 -17.5 -44t-45 -19t-46.5 18t-19 44q0 24 14 42l97 139l40 -30l-64 -90q19 -7 30 -23.5t11 -36.5z" />
    <glyph glyph-name="uni0327" unicode="&#x327;" horiz-adv-x="243" 
d="M103 -71q23 25 56 25q35 0 59.5 -31t24.5 -76q0 -51 -33.5 -83.5t-86.5 -32.5q-44 0 -76.5 22.5t-44.5 61.5l71 26q9 -36 48 -36q21 0 33.5 12.5t12.5 31.5q0 18 -9 29t-23 11q-18 0 -32 -17l-73 27v122h73v-92z" />
    <glyph glyph-name="uni0328" unicode="&#x328;" horiz-adv-x="247" 
d="M104 -22v26h69v-48l-59 -38q-37 -25 -37 -59q0 -20 13 -33t32 -13q37 0 46 38l66 -16q-11 -42 -41 -66.5t-71 -24.5q-51 0 -83.5 30t-32.5 78q0 33 17 57.5t58 52.5z" />
    <glyph glyph-name="uni0400" unicode="&#x400;" horiz-adv-x="566" 
d="M140 933l65 60l163 -160l-61 -56zM151 398h354v-94h-354v-211h378v-93h-473v700h473v-93h-378v-209z" />
    <glyph glyph-name="uni0401" unicode="&#x401;" horiz-adv-x="566" 
d="M327 838.5q0 26.5 18 44t44 17.5t44 -17.5t18 -44t-18 -44t-44 -17.5t-44 17.5t-18 44zM117 838.5q0 26.5 18 44t44 17.5t44 -17.5t18 -44t-18 -44t-44 -17.5t-44 17.5t-18 44zM151 398h354v-94h-354v-211h378v-93h-473v700h473v-93h-378v-209z" />
    <glyph glyph-name="uni0402" unicode="&#x402;" horiz-adv-x="740" 
d="M484 403q91 0 154 -59t63 -144q0 -86 -59 -143t-148 -57h-76v93h66q52 0 87 30.5t35 76.5q0 47 -35 78.5t-87 31.5h-200v-310h-95v608h-161v92h564v-92h-308v-205h200z" />
    <glyph glyph-name="uni0403" unicode="&#x403;" horiz-adv-x="568" 
d="M436 933l-65 64l-158 -164l53 -56zM56 0h95v611h388v89h-483v-700z" />
    <glyph glyph-name="uni0404" unicode="&#x404;" horiz-adv-x="778" 
d="M542 398v-92h-482v92h482zM36 351q0 105 48.5 189.5t131 132t182.5 47.5q111 0 201.5 -57t137.5 -156l-93 -35q-34 71 -100 112t-147 41q-111 0 -188.5 -77.5t-77.5 -196.5t77.5 -196.5t188.5 -77.5q83 0 150.5 43.5t100.5 118.5l94 -34q-45 -103 -137.5 -163t-206.5 -60
q-100 0 -182.5 47.5t-131 132t-48.5 189.5z" />
    <glyph glyph-name="uni0405" unicode="&#x405;" horiz-adv-x="529" 
d="M252 304q-106 23 -161 74.5t-55 127.5q0 91 60 149t152 58q83 0 149.5 -49t95.5 -132l-91 -26q-20 53 -60 83.5t-90 30.5q-52 0 -85.5 -31t-33.5 -81q0 -39 33 -65t107 -42q106 -24 163 -78t57 -131q0 -89 -60 -146t-153 -57q-82 0 -148.5 47t-95.5 126l91 34
q20 -53 59.5 -83.5t89.5 -30.5q52 0 86 31.5t34 80.5q0 40 -35 67t-109 43z" />
    <glyph glyph-name="uni0406" unicode="&#x406;" 
d="M151 0h-95v700h95v-700z" />
    <glyph glyph-name="uni0407" unicode="&#x407;" 
d="M146 838.5q0 26.5 18 44t44 17.5t44 -17.5t18 -44t-18 -44t-44 -17.5t-44 17.5t-18 44zM-64 838.5q0 26.5 18 44t44 17.5t44 -17.5t18 -44t-18 -44t-44 -17.5t-44 17.5t-18 44zM151 0h-95v700h95v-700z" />
    <glyph glyph-name="uni0408" unicode="&#x408;" horiz-adv-x="609" 
d="M36 172l88 34q19 -59 61.5 -90.5t104.5 -31.5q74 0 121 46.5t47 129.5v440h95v-450q0 -113 -76 -187t-187 -74q-93 0 -160 48.5t-94 134.5z" />
    <glyph glyph-name="uni0409" unicode="&#x409;" horiz-adv-x="1157" 
d="M56 89h-23v-89h37q99 0 162 65.5t63 155.5v390h248v-611h359q90 0 150 59.5t60 149.5q0 87 -64 148t-156 61h-254v282h-438v-458q0 -66 -37.5 -109.5t-106.5 -43.5zM638 325h254q53 0 89 -33.5t36 -82.5q0 -50 -36 -83t-89 -33h-254v232z" />
    <glyph glyph-name="uni040A" unicode="&#x40a;" horiz-adv-x="1025" 
d="M534 700h-95v-700h340q89 0 148 58.5t59 146.5q0 86 -63 145.5t-154 59.5h-235v290zM769 93h-235v225h235q52 0 86.5 -32.5t34.5 -80.5t-34.5 -80t-86.5 -32zM449 408h-298v292h-95v-700h95v315h298v93z" />
    <glyph glyph-name="uni040B" unicode="&#x40b;" horiz-adv-x="695" 
d="M649 192v-192h-95v192q0 50 -36 84t-89 34h-145v-310h-95v608h-161v92h508v-92h-252v-205h145q92 0 156 -61.5t64 -149.5z" />
    <glyph glyph-name="uni040C" unicode="&#x40c;" horiz-adv-x="627" 
d="M450 933l-65 64l-158 -164l53 -56zM56 0v700h95v-304h33l288 304h126l-330 -351l330 -349h-126l-288 298h-33v-298h-95z" />
    <glyph glyph-name="uni040D" unicode="&#x40d;" horiz-adv-x="687" 
d="M200 933l65 60l163 -160l-61 -56zM631 0h-95v558l-368 -558h-112v700h95v-552l369 552h111v-700z" />
    <glyph glyph-name="uni040E" unicode="&#x40e;" horiz-adv-x="639" 
d="M326 784q-72 0 -122 47t-51 114h78q0 -39 27 -64.5t69 -25.5q43 0 72.5 26.5t29.5 63.5h78q0 -65 -54 -113t-127 -48zM164 0h111l333 700h-111l-161 -350l-192 350h-113l252 -440z" />
    <glyph glyph-name="uni040F" unicode="&#x40f;" horiz-adv-x="702" 
d="M646 0v700h-95v-611h-400v611h-95v-700h248v-175h102v175h240z" />
    <glyph glyph-name="uni0410" unicode="&#x410;" horiz-adv-x="770" 
d="M181 270h407v-89h-407v89zM139 0h-109l293 700h124l293 -700h-108l-246 601z" />
    <glyph glyph-name="uni0411" unicode="&#x411;" horiz-adv-x="659" 
d="M402 407q91 0 154.5 -60t63.5 -146t-59.5 -143.5t-148.5 -57.5h-356v700h465v-92h-370v-201h251zM402 93q53 0 88 31t35 77q0 48 -35.5 80.5t-87.5 32.5h-251v-221h251z" />
    <glyph glyph-name="uni0412" unicode="&#x412;" horiz-adv-x="651" 
d="M392 607h-241v-211h247q45 0 75.5 33.5t30.5 82.5q0 41 -32 68t-80 27zM398 306h-247v-213h251q48 0 80 28.5t32 69.5q0 50 -33 82.5t-83 32.5zM413 0h-357v700h347q85 0 140.5 -50.5t55.5 -127.5q0 -54 -25.5 -99t-69.5 -69q49 -25 77 -70.5t28 -101.5q0 -78 -56 -130
t-140 -52z" />
    <glyph glyph-name="uni0413" unicode="&#x413;" horiz-adv-x="568" 
d="M56 0h95v611h388v89h-483v-700z" />
    <glyph glyph-name="uni0414" unicode="&#x414;" horiz-adv-x="770" 
d="M28 89v-205h95v116h524v-116h95v205h-714zM62 89h-34l15 -67h29q103 0 168 63.5t65 150.5v371h263v-606h95v699h-453v-450q0 -70 -38.5 -115.5t-109.5 -45.5z" />
    <glyph glyph-name="uni0415" unicode="&#x415;" horiz-adv-x="566" 
d="M151 398h354v-94h-354v-211h378v-93h-473v700h473v-93h-378v-209z" />
    <glyph glyph-name="uni0416" unicode="&#x416;" horiz-adv-x="951" 
d="M428 700h95v-300h70l217 300h111l-252 -348l252 -352h-111l-217 302h-70v-302h-95v302h-69l-223 -302h-106l253 349l-253 351h106l223 -300h69v300z" />
    <glyph glyph-name="uni0417" unicode="&#x417;" horiz-adv-x="551" 
d="M55 571q30 68 89.5 107.5t133.5 39.5q92 0 154.5 -56t62.5 -139q0 -50 -24.5 -92t-66.5 -66q51 -26 81 -74t30 -105q0 -87 -67.5 -145.5t-168.5 -58.5q-81 0 -145.5 40.5t-97.5 111.5l89 46q20 -50 61 -78.5t93 -28.5q60 0 100.5 35.5t40.5 88.5q0 50 -36.5 84t-89.5 34
h-92v90h92q45 0 75.5 30.5t30.5 75.5q0 49 -35.5 82.5t-88.5 33.5q-45 0 -80.5 -25.5t-53.5 -70.5z" />
    <glyph glyph-name="uni0418" unicode="&#x418;" horiz-adv-x="687" 
d="M631 0h-95v558l-368 -558h-112v700h95v-552l369 552h111v-700z" />
    <glyph glyph-name="uni0419" unicode="&#x419;" horiz-adv-x="687" 
d="M348 784q-72 0 -122 47t-51 114h78q0 -39 27 -64.5t69 -25.5q43 0 72.5 26.5t29.5 63.5h78q0 -65 -54 -113t-127 -48zM631 0h-95v558l-368 -558h-112v700h95v-552l369 552h111v-700z" />
    <glyph glyph-name="uni041A" unicode="&#x41a;" horiz-adv-x="627" 
d="M56 0v700h95v-304h33l288 304h126l-330 -351l330 -349h-126l-288 298h-33v-298h-95z" />
    <glyph glyph-name="uni041B" unicode="&#x41b;" horiz-adv-x="693" 
d="M56 89h-23v-89h37q99 0 162 65.5t63 155.5v390h248v-611h95v700h-438v-458q0 -66 -37.5 -109.5t-106.5 -43.5z" />
    <glyph glyph-name="uni041C" unicode="&#x41c;" horiz-adv-x="836" 
d="M52 0v700h114l252 -465l252 465h114v-700h-96v547l-236 -437h-67l-237 437v-547h-96z" />
    <glyph glyph-name="uni041D" unicode="&#x41d;" horiz-adv-x="687" 
d="M56 0v700h95v-302h385v302h95v-700h-95v304h-385v-304h-95z" />
    <glyph glyph-name="uni041E" unicode="&#x41e;" horiz-adv-x="788" 
d="M131 353q0 -121 76.5 -198.5t186.5 -77.5t186.5 77.5t76.5 198.5q0 119 -76.5 195.5t-186.5 76.5t-186.5 -76.5t-76.5 -195.5zM36 353q0 79 28.5 148t76.5 116.5t114 75t139 27.5t139 -27.5t114 -75t76.5 -116.5t28.5 -148q0 -80 -28.5 -149.5t-76.5 -118t-114 -76
t-139 -27.5t-139 27.5t-114 76t-76.5 118t-28.5 149.5z" />
    <glyph glyph-name="uni041F" unicode="&#x41f;" horiz-adv-x="695" 
d="M56 700v-700h95v611h393v-611h95v700h-583z" />
    <glyph glyph-name="uni0420" unicode="&#x420;" horiz-adv-x="629" 
d="M343 607h-192v-285h192q69 0 115 41.5t46 103.5q0 60 -46 100t-115 40zM343 230h-192v-230h-95v700h297q106 0 176 -66.5t70 -166.5q0 -99 -74.5 -168t-181.5 -69z" />
    <glyph glyph-name="uni0421" unicode="&#x421;" horiz-adv-x="778" 
d="M36 351q0 105 48.5 189.5t131 132t182.5 47.5q111 0 201.5 -59t137.5 -161l-93 -36q-34 75 -100 118t-147 43q-111 0 -188.5 -77.5t-77.5 -196.5t77.5 -196.5t188.5 -77.5q83 0 150.5 45.5t100.5 123.5l94 -34q-45 -106 -137.5 -168t-206.5 -62q-100 0 -182.5 47.5
t-131 132t-48.5 189.5z" />
    <glyph glyph-name="uni0422" unicode="&#x422;" horiz-adv-x="599" 
d="M572 700v-93h-225v-607h-95v607h-225v93h545z" />
    <glyph glyph-name="uni0423" unicode="&#x423;" horiz-adv-x="639" 
d="M164 0h111l333 700h-111l-161 -350l-192 350h-113l252 -440z" />
    <glyph glyph-name="uni0424" unicode="&#x424;" horiz-adv-x="795" 
d="M349 0v750h95v-750h-95zM131 385q0 -84 72.5 -135.5t194.5 -51.5t194 51.5t72 135.5q0 82 -72 132.5t-194 50.5t-194.5 -50.5t-72.5 -132.5zM36 385q0 122 99 198.5t262.5 76.5t262.5 -76.5t99 -198.5q0 -124 -99 -201.5t-262.5 -77.5t-262.5 77.5t-99 201.5z" />
    <glyph glyph-name="uni0425" unicode="&#x425;" horiz-adv-x="706" 
d="M678 0h-117l-207 288l-208 -288h-117l248 346l-248 354h117l208 -296l207 296h117l-248 -354z" />
    <glyph glyph-name="uni0426" unicode="&#x426;" horiz-adv-x="726" 
d="M602 93v607h-94v-607h-357v607h-95v-700h545v-124h95v217h-94z" />
    <glyph glyph-name="uni0427" unicode="&#x427;" horiz-adv-x="643" 
d="M587 700v-700h-95v700h95zM151 700v-226q0 -81 46 -127.5t118.5 -46.5t124.5 45.5t52 108.5h45q0 -101 -72 -173t-177 -72q-99 0 -165.5 67.5t-66.5 176.5v247h95z" />
    <glyph glyph-name="uni0428" unicode="&#x428;" horiz-adv-x="955" 
d="M899 0v700h-95v-607h-277v607h-95v-607h-281v607h-95v-700h843z" />
    <glyph glyph-name="uni0429" unicode="&#x429;" horiz-adv-x="1018" 
d="M899 93v607h-95v-607h-277v607h-95v-607h-281v607h-95v-700h838v-124h95v217h-90z" />
    <glyph glyph-name="uni042A" unicode="&#x42a;" horiz-adv-x="786" 
d="M522 93q56 0 92.5 32.5t36.5 81.5q0 50 -37 84t-92 34h-216v-232h216zM306 700v-282h216q94 0 159 -61.5t65 -149.5q0 -89 -61 -148t-153 -59h-321v608h-181v92h276z" />
    <glyph glyph-name="uni042B" unicode="&#x42b;" horiz-adv-x="805" 
d="M750 0h-96v700h96v-700zM151 700v-282h197q92 0 156 -61t64 -148q0 -90 -60 -149.5t-150 -59.5h-302v700h95zM348 93q54 0 89.5 33t35.5 83q0 49 -36 82.5t-89 33.5h-197v-232h197z" />
    <glyph glyph-name="uni042C" unicode="&#x42c;" horiz-adv-x="663" 
d="M151 700v-282h254q92 0 156.5 -61t64.5 -148q0 -90 -60 -149.5t-151 -59.5h-359v700h95zM405 93q54 0 89.5 33t35.5 83q0 49 -35.5 82.5t-89.5 33.5h-254v-232h254z" />
    <glyph glyph-name="uni042D" unicode="&#x42d;" horiz-adv-x="778" 
d="M236 304v92h482v-92h-482zM742 351q0 -105 -48.5 -189.5t-131 -132t-182.5 -47.5q-111 0 -201.5 57t-137.5 156l93 35q34 -71 100 -112t147 -41q111 0 188.5 77.5t77.5 196.5t-77.5 196.5t-188.5 77.5q-83 0 -150.5 -43.5t-100.5 -118.5l-94 34q45 103 137.5 163
t206.5 60q100 0 182.5 -47.5t131 -132t48.5 -189.5z" />
    <glyph glyph-name="uni042E" unicode="&#x42e;" horiz-adv-x="1085" 
d="M425 353q0 119 76 195.5t186.5 76.5t186.5 -76.5t76 -195.5q0 -121 -76 -198.5t-186.5 -77.5t-186.5 77.5t-76 198.5zM330 353q0 -80 28.5 -149.5t76.5 -118t114 -76t139 -27.5t138.5 27.5t114 76t77 118t28.5 149.5q0 79 -28.5 148t-77 116.5t-114 75t-138.5 27.5
t-139 -27.5t-114 -75t-76.5 -116.5t-28.5 -148zM368 398h-217v302h-95v-700h95v304h217v94z" />
    <glyph glyph-name="uni042F" unicode="&#x42f;" horiz-adv-x="635" 
d="M293 607q-63 0 -104 -36t-41 -91t41.5 -92.5t103.5 -37.5h204v257h-204zM251 265q-87 7 -144.5 67.5t-57.5 145.5q0 98 66 160t168 62h309v-700h-95v258h-138l-197 -258h-113z" />
    <glyph glyph-name="uni0430" unicode="&#x430;" horiz-adv-x="505" 
d="M354 223l-132 -16q-91 -11 -91 -68q0 -30 25 -47.5t68 -17.5q59 0 94.5 34t35.5 90h36q0 -90 -55 -149.5t-137 -59.5q-71 0 -116.5 40.5t-45.5 104.5q0 63 44 104.5t120 49.5l154 18v16q0 41 -33 71t-79 30q-43 0 -76 -23t-42 -59l-89 29q19 63 75 102t127 39
q87 0 150 -54t63 -128v-329h-96v223z" />
    <glyph glyph-name="uni0431" unicode="&#x431;" horiz-adv-x="610" 
d="M547 691q-30 -29 -79.5 -44.5t-123.5 -25.5q-92 -13 -147 -79.5t-62 -181.5q29 54 85.5 85.5t121.5 31.5q98 0 165 -70t67 -173q0 -109 -74 -180.5t-185 -71.5q-76 0 -138.5 34.5t-95.5 96.5q-41 79 -41 203q0 173 75 269.5t215 118.5q64 10 104 22t63 33zM145 237
q0 -66 50.5 -113t122.5 -47q69 0 115 44.5t46 110.5t-47 109.5t-119 43.5t-120 -42t-48 -106z" />
    <glyph glyph-name="uni0432" unicode="&#x432;" horiz-adv-x="564" 
d="M344 414h-193v-124h201q30 0 50.5 16.5t20.5 41.5q0 29 -22.5 47.5t-56.5 18.5zM354 214h-203v-128h203q34 0 56.5 18t22.5 44q0 29 -22.5 47.5t-56.5 18.5zM364 0h-308v500h298q70 0 117 -39t47 -99q0 -33 -17.5 -60.5t-48.5 -41.5q35 -18 55.5 -50.5t20.5 -72.5
q0 -58 -47 -97.5t-117 -39.5z" />
    <glyph glyph-name="uni0433" unicode="&#x433;" horiz-adv-x="438" 
d="M56 0h95v411h251v89h-346v-500z" />
    <glyph glyph-name="uni0434" unicode="&#x434;" horiz-adv-x="615" 
d="M28 89v-205h95v116h370v-116h95v205h-560zM52 89h-19v-67h29q81 0 132 47.5t51 112.5v225h178v-407h95v500h-368v-304q0 -46 -25.5 -76.5t-72.5 -30.5z" />
    <glyph glyph-name="uni0435" unicode="&#x435;" horiz-adv-x="595" 
d="M463 294q-7 63 -53.5 100t-111.5 37q-63 0 -108 -37t-54 -100h327zM136 208q9 -63 55 -100t111 -37q49 0 89 23t60 62l87 -34q-32 -64 -95.5 -102t-140.5 -38q-112 0 -189 76.5t-77 192.5t75 192.5t185 76.5t187 -75.5t77 -188.5q0 -20 -6 -48h-418z" />
    <glyph glyph-name="uni0436" unicode="&#x436;" horiz-adv-x="791" 
d="M348 500h95v-204h43l165 204h109l-202 -250l202 -250h-109l-165 201h-43v-201h-95v204h-42l-166 -204h-109l203 250l-203 250h109l166 -201h42v201z" />
    <glyph glyph-name="uni0437" unicode="&#x437;" horiz-adv-x="480" 
d="M55 401q26 55 77.5 86t115.5 31q79 0 132.5 -45t53.5 -111q0 -35 -17.5 -64.5t-47.5 -46.5q34 -18 54.5 -51.5t20.5 -72.5q0 -62 -56 -103.5t-140 -41.5q-70 0 -126.5 32.5t-85.5 89.5l89 42q16 -33 48.5 -52.5t73.5 -19.5q43 0 72.5 20t29.5 49.5t-24.5 49.5t-60.5 20
h-79v74h79q32 0 53.5 17.5t21.5 43.5q0 33 -27 54.5t-67 21.5q-33 0 -59.5 -16.5t-40.5 -46.5z" />
    <glyph glyph-name="uni0438" unicode="&#x438;" horiz-adv-x="577" 
d="M521 0h-95v381l-258 -381h-112v500h95v-371l259 371h111v-500z" />
    <glyph glyph-name="uni0439" unicode="&#x439;" horiz-adv-x="577" 
d="M291 575q-72 0 -122 47t-51 114h78q0 -39 27 -64.5t69 -25.5q43 0 72.5 26.5t29.5 63.5h78q0 -65 -54 -113t-127 -48zM521 0h-95v381l-258 -381h-112v500h95v-371l259 371h111v-500z" />
    <glyph glyph-name="uni043A" unicode="&#x43a;" horiz-adv-x="519" 
d="M56 0v500h95v-202h27l191 202h123l-231 -250l231 -250h-123l-191 200h-27v-200h-95z" />
    <glyph glyph-name="uni043B" unicode="&#x43b;" horiz-adv-x="562" 
d="M56 93h-23v-93h33q74 0 121 49.5t47 117.5v240h177v-407h95v500h-368v-319q0 -38 -21.5 -63t-60.5 -25z" />
    <glyph glyph-name="uni043C" unicode="&#x43c;" horiz-adv-x="706" 
d="M56 0v500h110l187 -312l187 312h110v-500h-95v366l-171 -292h-60l-173 292v-366h-95z" />
    <glyph glyph-name="uni043D" unicode="&#x43d;" horiz-adv-x="591" 
d="M56 0v500h95v-204h289v204h95v-500h-95v206h-289v-206h-95z" />
    <glyph glyph-name="uni043E" unicode="&#x43e;" horiz-adv-x="618" 
d="M131 251q0 -78 51.5 -128t126.5 -50t126.5 50t51.5 128t-51.5 128t-126.5 50t-126.5 -50t-51.5 -128zM36 251q0 117 79.5 193t193.5 76t193.5 -76t79.5 -193t-79.5 -193t-193.5 -76t-193.5 76t-79.5 193z" />
    <glyph glyph-name="uni043F" unicode="&#x43f;" horiz-adv-x="552" 
d="M496 500v-500h-95v411h-250v-411h-95v500h440z" />
    <glyph glyph-name="uni0440" unicode="&#x440;" horiz-adv-x="638" 
d="M56 500h95v-700h-95v700zM151 249.5q0 -77.5 51.5 -127.5t126.5 -50t126.5 50t51.5 127.5t-51.5 128t-126.5 50.5t-126.5 -50.5t-51.5 -128zM111 249.5q0 116.5 69.5 193t171.5 76.5q105 0 177.5 -76.5t72.5 -192.5t-72.5 -192.5t-177.5 -76.5q-102 0 -171.5 76
t-69.5 192.5z" />
    <glyph glyph-name="uni0441" unicode="&#x441;" horiz-adv-x="587" 
d="M131 251q0 -78 50 -128t123 -50q52 0 94.5 25.5t63.5 71.5l88 -40q-34 -68 -100 -108t-146 -40q-112 0 -190 76t-78 193t78 193t190 76q82 0 148.5 -41t99.5 -112l-88 -40q-21 48 -64 75t-96 27q-73 0 -123 -50t-50 -128z" />
    <glyph glyph-name="uni0442" unicode="&#x442;" horiz-adv-x="485" 
d="M455 500v-89h-165v-411h-95v411h-165v89h425z" />
    <glyph glyph-name="uni0443" unicode="&#x443;" horiz-adv-x="567" 
d="M434 500l-150 -379l-150 379h-104l198 -484l-83 -216h104l289 700h-104z" />
    <glyph glyph-name="uni0444" unicode="&#x444;" horiz-adv-x="648" 
d="M276 -190v870h92v-870h-92zM131 251q0 -78 56 -128t137 -50t137 50t56 128t-56 128t-137 50t-137 -50t-56 -128zM36 251q0 117 83.5 193t204.5 76t204.5 -76t83.5 -193t-83.5 -193t-204.5 -76t-204.5 76t-83.5 193z" />
    <glyph glyph-name="uni0445" unicode="&#x445;" horiz-adv-x="558" 
d="M529 0h-113l-137 192l-136 -192h-114l181 250l-181 250h114l136 -192l137 192h113l-181 -250z" />
    <glyph glyph-name="uni0446" unicode="&#x446;" horiz-adv-x="610" 
d="M56 0v500h95v-411h273v411h95v-411h62v-205h-95v116h-430z" />
    <glyph glyph-name="uni0447" unicode="&#x447;" horiz-adv-x="530" 
d="M474 500v-500h-95v500h95zM151 500v-162q0 -52 30.5 -82t77.5 -30q50 0 85 32t35 76h46q0 -83 -56 -141t-138 -58q-75 0 -125 50.5t-50 131.5v183h95z" />
    <glyph glyph-name="uni0448" unicode="&#x448;" horiz-adv-x="845" 
d="M789 0v500h-95v-411h-224v411h-95v-411h-224v411h-95v-500h733z" />
    <glyph glyph-name="uni0449" unicode="&#x449;" horiz-adv-x="898" 
d="M789 89v411h-95v-411h-224v411h-95v-411h-224v411h-95v-500h710v-116h95v205h-72z" />
    <glyph glyph-name="uni044A" unicode="&#x44a;" horiz-adv-x="652" 
d="M453 314q70 0 116.5 -46t46.5 -113q0 -66 -46.5 -110.5t-116.5 -44.5h-271v408h-146v92h241v-186h176zM443 222h-166v-129h166q34 0 56 18t22 44q0 29 -22 48t-56 19z" />
    <glyph glyph-name="uni044B" unicode="&#x44b;" horiz-adv-x="746" 
d="M596 0v500h94v-500h-94zM343 222h-195v-129h195q34 0 56.5 18t22.5 44q0 29 -22.5 48t-56.5 19zM353 311q70 0 117 -45.5t47 -111.5q0 -65 -47 -109.5t-117 -44.5h-301v500h96v-189h205z" />
    <glyph glyph-name="uni044C" unicode="&#x44c;" horiz-adv-x="568" 
d="M358 222h-207v-129h207q34 0 56.5 18t22.5 44q0 29 -22.5 48t-56.5 19zM368 311q70 0 117 -45.5t47 -111.5q0 -65 -47 -109.5t-117 -44.5h-312v500h95v-189h217z" />
    <glyph glyph-name="uni044D" unicode="&#x44d;" horiz-adv-x="587" 
d="M198 211v77h322v-77h-322zM456 251q0 79 -50 130t-124 51q-51 0 -93 -24.5t-63 -67.5l-88 40q34 64 99 102t144 38q114 0 192.5 -76.5t78.5 -192.5t-78.5 -192.5t-192.5 -76.5q-80 0 -146 39.5t-99 106.5l88 39q20 -45 62.5 -71t95.5 -26q74 0 124 51t50 130z" />
    <glyph glyph-name="uni044E" unicode="&#x44e;" horiz-adv-x="868" 
d="M385 251q0 78 51 128t125 50t125 -50t51 -128t-51 -128t-125 -50t-125 50t-51 128zM290 251q0 -117 78.5 -193t192.5 -76t192.5 76t78.5 193t-78.5 193t-192.5 76t-192.5 -76t-78.5 -193zM310 298h-159v202h-95v-500h95v204h159v94z" />
    <glyph glyph-name="uni044F" unicode="&#x44f;" horiz-adv-x="545" 
d="M223 264h171v143h-171q-37 0 -62 -20t-25 -50q0 -32 25 -52.5t62 -20.5zM281 178l-131 -178h-114l142 186q-62 6 -102 49t-40 103q0 69 50.5 115.5t125.5 46.5h277v-500h-95v178h-113z" />
    <glyph glyph-name="uni0450" unicode="&#x450;" horiz-adv-x="595" 
d="M156 724l65 60l163 -160l-61 -56zM463 294q-7 63 -53.5 100t-111.5 37q-63 0 -108 -37t-54 -100h327zM136 208q9 -63 55 -100t111 -37q49 0 89 23t60 62l87 -34q-32 -64 -95.5 -102t-140.5 -38q-112 0 -189 76.5t-77 192.5t75 192.5t185 76.5t187 -75.5t77 -188.5
q0 -20 -6 -48h-418z" />
    <glyph glyph-name="uni0451" unicode="&#x451;" horiz-adv-x="595" 
d="M343 629.5q0 26.5 18 44t44 17.5t44 -17.5t18 -44t-18 -44t-44 -17.5t-44 17.5t-18 44zM133 629.5q0 26.5 18 44t44 17.5t44 -17.5t18 -44t-18 -44t-44 -17.5t-44 17.5t-18 44zM463 294q-7 63 -53.5 100t-111.5 37q-63 0 -108 -37t-54 -100h327zM136 208q9 -63 55 -100
t111 -37q49 0 89 23t60 62l87 -34q-32 -64 -95.5 -102t-140.5 -38q-112 0 -189 76.5t-77 192.5t75 192.5t185 76.5t187 -75.5t77 -188.5q0 -20 -6 -48h-418z" />
    <glyph glyph-name="uni0452" unicode="&#x452;" horiz-adv-x="554" 
d="M60 0v590h-60v84h60v76h95v-76h242v-84h-242v-590h-95zM403 24v268q0 60 -33 94t-85 34q-54 0 -92 -37.5t-38 -90.5h-45q0 91 58.5 155t144.5 64q79 0 132 -54.5t53 -143.5v-302q0 -77 -46 -125t-122 -48h-72v92h58q42 0 64.5 26.5t22.5 67.5z" />
    <glyph glyph-name="uni0453" unicode="&#x453;" horiz-adv-x="438" 
d="M374 724l-65 64l-158 -164l53 -56zM56 0h95v411h251v89h-346v-500z" />
    <glyph glyph-name="uni0454" unicode="&#x454;" horiz-adv-x="587" 
d="M390 291v-77h-322v77h322zM131 251q0 -79 50.5 -130t124.5 -51q51 0 93 24.5t63 67.5l88 -40q-34 -64 -99.5 -102t-143.5 -38q-115 0 -193 76.5t-78 192.5t78 192.5t193 76.5q80 0 146 -39.5t99 -106.5l-88 -39q-21 45 -63.5 71t-94.5 26q-74 0 -124.5 -51t-50.5 -130z
" />
    <glyph glyph-name="uni0455" unicode="&#x455;" horiz-adv-x="456" 
d="M214 210q-175 30 -175 151q0 65 50 108.5t126 43.5q67 0 122.5 -36t80.5 -97l-91 -30q-15 36 -44.5 57t-66.5 21q-35 0 -58.5 -18.5t-23.5 -45.5q0 -26 24 -42.5t77 -26.5q91 -16 138 -55.5t47 -100.5q0 -65 -50 -107.5t-127 -42.5q-69 0 -125.5 36t-81.5 97l91 30
q15 -38 45.5 -60t67.5 -22t61 19.5t24 48.5q0 27 -26.5 44.5t-84.5 27.5z" />
    <glyph glyph-name="uni0456" unicode="&#x456;" horiz-adv-x="204" 
d="M41 638.5q0 26.5 17.5 44t43.5 17.5t44 -17.5t18 -44t-18 -44t-44 -17.5t-43.5 17.5t-17.5 44zM55 0v500h95v-500h-95z" />
    <glyph glyph-name="uni0457" unicode="&#x457;" 
d="M146 629.5q0 26.5 18 44t44 17.5t44 -17.5t18 -44t-18 -44t-44 -17.5t-44 17.5t-18 44zM-64 629.5q0 26.5 18 44t44 17.5t44 -17.5t18 -44t-18 -44t-44 -17.5t-44 17.5t-18 44zM56 0v500h95v-500h-95z" />
    <glyph glyph-name="uni0458" unicode="&#x458;" horiz-adv-x="204" 
d="M41 638.5q0 26.5 17.5 44t43.5 17.5t44 -17.5t18 -44t-18 -44t-44 -17.5t-43.5 17.5t-17.5 44zM-20 -100q36 0 55.5 25t19.5 63v512h95v-542q0 -61 -42.5 -105.5t-109.5 -44.5h-40v92h22z" />
    <glyph glyph-name="uni0459" unicode="&#x459;" horiz-adv-x="929" 
d="M56 93h-23v-93h33q74 0 121 49.5t47 117.5v240h177v-407h311q70 0 117 44.5t47 109.5q0 66 -47 111.5t-117 45.5h-216v189h-368v-319q0 -38 -21.5 -63t-60.5 -25zM712 222q34 0 57 -19t23 -48q0 -26 -23 -44t-57 -18h-206v129h206z" />
    <glyph glyph-name="uni045A" unicode="&#x45a;" horiz-adv-x="835" 
d="M622 218q33 0 55 -18.5t22 -46.5q0 -25 -22.5 -42.5t-54.5 -17.5h-173v125h173zM632 307h-183v193h-95v-500h278q68 0 115 44t47 108q0 65 -46.5 110t-115.5 45zM371 299h-220v201h-95v-500h95v206h220v93z" />
    <glyph glyph-name="uni045B" unicode="&#x45b;" horiz-adv-x="554" 
d="M60 0v590h-60v84h60v76h95v-76h242v-84h-242v-590h-95zM403 0v292q0 60 -33 94t-85 34q-54 0 -92 -37.5t-38 -90.5h-45q0 91 58.5 155t144.5 64q79 0 132 -54.5t53 -143.5v-313h-95z" />
    <glyph glyph-name="uni045C" unicode="&#x45c;" horiz-adv-x="519" 
d="M395 724l-65 64l-158 -164l53 -56zM56 0v500h95v-202h27l191 202h123l-231 -250l231 -250h-123l-191 200h-27v-200h-95z" />
    <glyph glyph-name="uni045D" unicode="&#x45d;" horiz-adv-x="577" 
d="M147 724l65 60l163 -160l-61 -56zM521 0h-95v381l-258 -381h-112v500h95v-371l259 371h111v-500z" />
    <glyph glyph-name="uni045E" unicode="&#x45e;" horiz-adv-x="567" 
d="M282 575q-72 0 -122 47t-51 114h78q0 -39 27 -64.5t69 -25.5q43 0 72.5 26.5t29.5 63.5h78q0 -65 -54 -113t-127 -48zM434 500l-150 -379l-150 379h-104l198 -484l-83 -216h104l289 700h-104z" />
    <glyph glyph-name="uni045F" unicode="&#x45f;" horiz-adv-x="567" 
d="M56 0v500h95v-411h265v411h95v-500h-175v-165h-95v165h-185z" />
    <glyph glyph-name="uni1EA0" unicode="&#x1ea0;" horiz-adv-x="770" 
d="M334 -141q0 26 17.5 43.5t43.5 17.5t43.5 -17.5t17.5 -43.5t-17.5 -44t-43.5 -18t-43.5 18t-17.5 44zM181 270h407v-89h-407v89zM139 0h-109l293 700h124l293 -700h-108l-246 601z" />
    <glyph glyph-name="uni1EA1" unicode="&#x1ea1;" horiz-adv-x="505" 
d="M190 -141q0 26 17.5 43.5t43.5 17.5t43.5 -17.5t17.5 -43.5t-17.5 -44t-43.5 -18t-43.5 18t-17.5 44zM354 223l-132 -16q-91 -11 -91 -68q0 -30 25 -47.5t68 -17.5q59 0 94.5 34t35.5 90h36q0 -90 -55 -149.5t-137 -59.5q-71 0 -116.5 40.5t-45.5 104.5q0 63 44 104.5
t120 49.5l154 18v16q0 41 -33 71t-81 30q-43 0 -76.5 -23t-42.5 -59l-89 29q20 63 76.5 102t127.5 39q87 0 150.5 -54t63.5 -128v-329h-96v223z" />
    <glyph glyph-name="uni1EA2" unicode="&#x1ea2;" horiz-adv-x="770" 
d="M389 763l-42 56l44 30q33 19 33 50q0 20 -13 32t-33 12q-37 0 -45 -36l-65 19q11 41 41 64t71 23q51 0 83.5 -32t32.5 -82q0 -36 -18.5 -61.5t-58.5 -53.5zM181 270h407v-89h-407v89zM139 0h-109l293 700h124l293 -700h-108l-246 601z" />
    <glyph glyph-name="uni1EA3" unicode="&#x1ea3;" horiz-adv-x="505" 
d="M245 554l-42 56l44 30q33 19 33 50q0 20 -13 32t-33 12q-37 0 -45 -36l-65 19q11 41 41 64t71 23q51 0 83.5 -32t32.5 -82q0 -36 -18.5 -61.5t-58.5 -53.5zM354 223l-132 -16q-91 -11 -91 -68q0 -30 25 -47.5t68 -17.5q59 0 94.5 34t35.5 90h36q0 -90 -55 -149.5
t-137 -59.5q-71 0 -116.5 40.5t-45.5 104.5q0 63 44 104.5t120 49.5l154 18v16q0 41 -33 71t-81 30q-43 0 -76.5 -23t-42.5 -59l-89 29q20 63 76.5 102t127.5 39q87 0 150.5 -54t63.5 -128v-329h-96v223z" />
    <glyph glyph-name="uni1EA4" unicode="&#x1ea4;" horiz-adv-x="770" 
d="M723 1115l-65 64l-158 -164l53 -56zM372 977l-165 -148l49 -56l130 119l130 -119l49 56l-165 148h-28zM181 270h407v-89h-407v89zM139 0h-109l293 700h124l293 -700h-108l-246 601z" />
    <glyph glyph-name="uni1EA5" unicode="&#x1ea5;" horiz-adv-x="505" 
d="M577 894l-65 64l-158 -164l53 -56zM226 768l-165 -148l49 -56l130 119l130 -119l49 56l-165 148h-28zM354 223l-132 -16q-91 -11 -91 -68q0 -30 25 -47.5t68 -17.5q59 0 94.5 34t35.5 90h36q0 -90 -55 -149.5t-137 -59.5q-71 0 -116.5 40.5t-45.5 104.5q0 63 44 104.5
t120 49.5l154 18v16q0 41 -33 71t-81 30q-43 0 -76.5 -23t-42.5 -59l-89 29q20 63 76.5 102t127.5 39q87 0 150.5 -54t63.5 -128v-329h-96v223z" />
    <glyph glyph-name="uni1EA6" unicode="&#x1ea6;" horiz-adv-x="770" 
d="M438 1115l65 60l163 -160l-61 -56zM372 977l-165 -148l49 -56l130 119l130 -119l49 56l-165 148h-28zM181 270h407v-89h-407v89zM139 0h-109l293 700h124l293 -700h-108l-246 601z" />
    <glyph glyph-name="uni1EA7" unicode="&#x1ea7;" horiz-adv-x="505" 
d="M292 883l65 60l163 -160l-61 -56zM226 768l-165 -148l49 -56l130 119l130 -119l49 56l-165 148h-28zM354 223l-132 -16q-91 -11 -91 -68q0 -30 25 -47.5t68 -17.5q59 0 94.5 34t35.5 90h36q0 -90 -55 -149.5t-137 -59.5q-71 0 -116.5 40.5t-45.5 104.5q0 63 44 104.5
t120 49.5l154 18v16q0 41 -33 71t-81 30q-43 0 -76.5 -23t-42.5 -59l-89 29q20 63 76.5 102t127.5 39q87 0 150.5 -54t63.5 -128v-329h-96v223z" />
    <glyph glyph-name="uni1EA8" unicode="&#x1ea8;" horiz-adv-x="770" 
d="M587 945l-42 56l44 30q33 19 33 50q0 20 -13 32t-33 12q-37 0 -45 -36l-65 19q11 41 41 64t71 23q51 0 83.5 -32t32.5 -82q0 -36 -18.5 -61.5t-58.5 -53.5zM372 977l-165 -148l49 -56l130 119l130 -119l49 56l-165 148h-28zM181 270h407v-89h-407v89zM139 0h-109l293 700
h124l293 -700h-108l-246 601z" />
    <glyph glyph-name="uni1EA9" unicode="&#x1ea9;" horiz-adv-x="505" 
d="M441 724l-42 56l44 30q33 19 33 50q0 20 -13 32t-33 12q-37 0 -45 -36l-65 19q11 41 41 64t71 23q51 0 83.5 -32t32.5 -82q0 -36 -18.5 -61.5t-58.5 -53.5zM226 768l-165 -148l49 -56l130 119l130 -119l49 56l-165 148h-28zM354 223l-132 -16q-91 -11 -91 -68
q0 -30 25 -47.5t68 -17.5q59 0 94.5 34t35.5 90h36q0 -90 -55 -149.5t-137 -59.5q-71 0 -116.5 40.5t-45.5 104.5q0 63 44 104.5t120 49.5l154 18v16q0 41 -33 71t-81 30q-43 0 -76.5 -23t-42.5 -59l-89 29q20 63 76.5 102t127.5 39q87 0 150.5 -54t63.5 -128v-329h-96v223z
" />
    <glyph glyph-name="uni1EAA" unicode="&#x1eaa;" horiz-adv-x="770" 
d="M307 1176q-44 0 -73 -33t-39 -92l67 -18q12 72 48 72q12 0 23 -7t30 -26q27 -25 48.5 -35t46.5 -10q43 0 72 33t39 92l-67 18q-13 -69 -52 -69q-14 0 -25.5 7t-28.5 25q-26 24 -45.5 33.5t-43.5 9.5zM372 977l-165 -148l49 -56l130 119l130 -119l49 56l-165 148h-28z
M181 270h407v-89h-407v89zM139 0h-109l293 700h124l293 -700h-108l-246 601z" />
    <glyph glyph-name="uni1EAB" unicode="&#x1eab;" horiz-adv-x="505" 
d="M165 977q-44 0 -73 -33t-39 -92l67 -18q12 72 48 72q12 0 23 -7t30 -26q27 -25 48.5 -35t46.5 -10q43 0 72 33t39 92l-67 18q-13 -69 -52 -69q-14 0 -25.5 7t-28.5 25q-26 24 -45.5 33.5t-43.5 9.5zM226 768l-165 -148l49 -56l130 119l130 -119l49 56l-165 148h-28z
M354 223l-132 -16q-91 -11 -91 -68q0 -30 25 -47.5t68 -17.5q59 0 94.5 34t35.5 90h36q0 -90 -55 -149.5t-137 -59.5q-71 0 -116.5 40.5t-45.5 104.5q0 63 44 104.5t120 49.5l154 18v16q0 41 -33 71t-81 30q-43 0 -76.5 -23t-42.5 -59l-89 29q20 63 76.5 102t127.5 39
q87 0 150.5 -54t63.5 -128v-329h-96v223z" />
    <glyph glyph-name="uni1EAC" unicode="&#x1eac;" horiz-adv-x="770" 
d="M372 979l-165 -148l49 -56l130 119l130 -119l49 56l-165 148h-28zM334 -141q0 26 17.5 43.5t43.5 17.5t43.5 -17.5t17.5 -43.5t-17.5 -44t-43.5 -18t-43.5 18t-17.5 44zM181 270h407v-89h-407v89zM139 0h-109l293 700h124l293 -700h-108l-246 601z" />
    <glyph glyph-name="uni1EAD" unicode="&#x1ead;" horiz-adv-x="505" 
d="M226 776l-165 -148l49 -56l130 119l130 -119l49 56l-165 148h-28zM190 -141q0 26 17.5 43.5t43.5 17.5t43.5 -17.5t17.5 -43.5t-17.5 -44t-43.5 -18t-43.5 18t-17.5 44zM354 223l-132 -16q-91 -11 -91 -68q0 -30 25 -47.5t68 -17.5q59 0 94.5 34t35.5 90h36
q0 -90 -55 -149.5t-137 -59.5q-71 0 -116.5 40.5t-45.5 104.5q0 63 44 104.5t120 49.5l154 18v16q0 41 -33 71t-81 30q-43 0 -76.5 -23t-42.5 -59l-89 29q20 63 76.5 102t127.5 39q87 0 150.5 -54t63.5 -128v-329h-96v223z" />
    <glyph glyph-name="uni1EAE" unicode="&#x1eae;" horiz-adv-x="770" 
d="M526 1155l-65 64l-158 -164l53 -56zM385 784q-72 0 -122 47t-51 114h78q0 -39 27 -64.5t69 -25.5q43 0 72.5 26.5t29.5 63.5h78q0 -65 -54 -113t-127 -48zM181 270h407v-89h-407v89zM139 0h-109l293 700h124l293 -700h-108l-246 601z" />
    <glyph glyph-name="uni1EAF" unicode="&#x1eaf;" horiz-adv-x="505" 
d="M381 929l-65 64l-158 -164l53 -56zM239 575q-72 0 -122 47t-51 114h78q0 -39 27 -64.5t69 -25.5q43 0 72.5 26.5t29.5 63.5h78q0 -65 -54 -113t-127 -48zM354 223l-132 -16q-91 -11 -91 -68q0 -30 25 -47.5t68 -17.5q59 0 94.5 34t35.5 90h36q0 -90 -55 -149.5
t-137 -59.5q-71 0 -116.5 40.5t-45.5 104.5q0 63 44 104.5t120 49.5l154 18v16q0 41 -33 71t-81 30q-43 0 -76.5 -23t-42.5 -59l-89 29q20 63 76.5 102t127.5 39q87 0 150.5 -54t63.5 -128v-329h-96v223z" />
    <glyph glyph-name="uni1EB0" unicode="&#x1eb0;" horiz-adv-x="770" 
d="M241 1155l65 60l163 -160l-61 -56zM385 784q-72 0 -122 47t-51 114h78q0 -39 27 -64.5t69 -25.5q43 0 72.5 26.5t29.5 63.5h78q0 -65 -54 -113t-127 -48zM181 270h407v-89h-407v89zM139 0h-109l293 700h124l293 -700h-108l-246 601z" />
    <glyph glyph-name="uni1EB1" unicode="&#x1eb1;" horiz-adv-x="505" 
d="M96 929l65 60l163 -160l-61 -56zM239 575q-72 0 -122 47t-51 114h78q0 -39 27 -64.5t69 -25.5q43 0 72.5 26.5t29.5 63.5h78q0 -65 -54 -113t-127 -48zM354 223l-132 -16q-91 -11 -91 -68q0 -30 25 -47.5t68 -17.5q59 0 94.5 34t35.5 90h36q0 -90 -55 -149.5t-137 -59.5
q-71 0 -116.5 40.5t-45.5 104.5q0 63 44 104.5t120 49.5l154 18v16q0 41 -33 71t-81 30q-43 0 -76.5 -23t-42.5 -59l-89 29q20 63 76.5 102t127.5 39q87 0 150.5 -54t63.5 -128v-329h-96v223z" />
    <glyph glyph-name="uni1EB2" unicode="&#x1eb2;" horiz-adv-x="770" 
d="M390 985l-42 56l44 30q33 19 33 50q0 20 -13 32t-33 12q-37 0 -45 -36l-65 19q11 41 41 64t71 23q51 0 83.5 -32t32.5 -82q0 -36 -18.5 -61.5t-58.5 -53.5zM385 784q-72 0 -122 47t-51 114h78q0 -39 27 -64.5t69 -25.5q43 0 72.5 26.5t29.5 63.5h78q0 -65 -54 -113
t-127 -48zM181 270h407v-89h-407v89zM139 0h-109l293 700h124l293 -700h-108l-246 601z" />
    <glyph glyph-name="uni1EB3" unicode="&#x1eb3;" horiz-adv-x="505" 
d="M245 759l-42 56l44 30q33 19 33 50q0 20 -13 32t-33 12q-37 0 -45 -36l-65 19q11 41 41 64t71 23q51 0 83.5 -32t32.5 -82q0 -36 -18.5 -61.5t-58.5 -53.5zM239 575q-72 0 -122 47t-51 114h78q0 -39 27 -64.5t69 -25.5q43 0 72.5 26.5t29.5 63.5h78q0 -65 -54 -113
t-127 -48zM354 223l-132 -16q-91 -11 -91 -68q0 -30 25 -47.5t68 -17.5q59 0 94.5 34t35.5 90h36q0 -90 -55 -149.5t-137 -59.5q-71 0 -116.5 40.5t-45.5 104.5q0 63 44 104.5t120 49.5l154 18v16q0 41 -33 71t-81 30q-43 0 -76.5 -23t-42.5 -59l-89 29q20 63 76.5 102
t127.5 39q87 0 150.5 -54t63.5 -128v-329h-96v223z" />
    <glyph glyph-name="uni1EB4" unicode="&#x1eb4;" horiz-adv-x="770" 
d="M311 1148q-44 0 -73 -33t-39 -92l67 -18q12 72 48 72q12 0 23 -7t30 -26q27 -25 48.5 -35t46.5 -10q43 0 72 33t39 92l-67 18q-13 -69 -52 -69q-14 0 -25.5 7t-28.5 25q-26 24 -45.5 33.5t-43.5 9.5zM385 784q-72 0 -122 47t-51 114h78q0 -39 27 -64.5t69 -25.5
q43 0 72.5 26.5t29.5 63.5h78q0 -65 -54 -113t-127 -48zM181 270h407v-89h-407v89zM139 0h-109l293 700h124l293 -700h-108l-246 601z" />
    <glyph glyph-name="uni1EB5" unicode="&#x1eb5;" horiz-adv-x="505" 
d="M165 922q-44 0 -73 -33t-39 -92l67 -18q12 72 48 72q12 0 23 -7t30 -26q27 -25 48.5 -35t46.5 -10q43 0 72 33t39 92l-67 18q-13 -69 -52 -69q-14 0 -25.5 7t-28.5 25q-26 24 -45.5 33.5t-43.5 9.5zM239 575q-72 0 -122 47t-51 114h78q0 -39 27 -64.5t69 -25.5
q43 0 72.5 26.5t29.5 63.5h78q0 -65 -54 -113t-127 -48zM354 223l-132 -16q-91 -11 -91 -68q0 -30 25 -47.5t68 -17.5q59 0 94.5 34t35.5 90h36q0 -90 -55 -149.5t-137 -59.5q-71 0 -116.5 40.5t-45.5 104.5q0 63 44 104.5t120 49.5l154 18v16q0 41 -33 71t-81 30
q-43 0 -76.5 -23t-42.5 -59l-89 29q20 63 76.5 102t127.5 39q87 0 150.5 -54t63.5 -128v-329h-96v223z" />
    <glyph glyph-name="uni1EB6" unicode="&#x1eb6;" horiz-adv-x="770" 
d="M381 783q-72 0 -122 47t-51 114h78q0 -39 27 -64.5t69 -25.5q43 0 72.5 26.5t29.5 63.5h78q0 -65 -54 -113t-127 -48zM334 -141q0 26 17.5 43.5t43.5 17.5t43.5 -17.5t17.5 -43.5t-17.5 -44t-43.5 -18t-43.5 18t-17.5 44zM181 270h407v-89h-407v89zM139 0h-109l293 700
h124l293 -700h-108l-246 601z" />
    <glyph glyph-name="uni1EB7" unicode="&#x1eb7;" horiz-adv-x="505" 
d="M237 583q-72 0 -122 47t-51 114h78q0 -39 27 -64.5t69 -25.5q43 0 72.5 26.5t29.5 63.5h78q0 -65 -54 -113t-127 -48zM190 -141q0 26 17.5 43.5t43.5 17.5t43.5 -17.5t17.5 -43.5t-17.5 -44t-43.5 -18t-43.5 18t-17.5 44zM354 223l-132 -16q-91 -11 -91 -68
q0 -30 25 -47.5t68 -17.5q59 0 94.5 34t35.5 90h36q0 -90 -55 -149.5t-137 -59.5q-71 0 -116.5 40.5t-45.5 104.5q0 63 44 104.5t120 49.5l154 18v16q0 41 -33 71t-81 30q-43 0 -76.5 -23t-42.5 -59l-89 29q20 63 76.5 102t127.5 39q87 0 150.5 -54t63.5 -128v-329h-96v223z
" />
    <glyph glyph-name="uni1EB8" unicode="&#x1eb8;" horiz-adv-x="566" 
d="M244 -141q0 26 17.5 43.5t43.5 17.5t43.5 -17.5t17.5 -43.5t-17.5 -44t-43.5 -18t-43.5 18t-17.5 44zM151 398h354v-94h-354v-211h378v-93h-473v700h473v-93h-378v-209z" />
    <glyph glyph-name="uni1EB9" unicode="&#x1eb9;" horiz-adv-x="595" 
d="M236 -141q0 26 17.5 43.5t43.5 17.5t43.5 -17.5t17.5 -43.5t-17.5 -44t-43.5 -18t-43.5 18t-17.5 44zM463 294q-7 63 -53.5 100t-111.5 37q-63 0 -108 -37t-54 -100h327zM136 208q9 -63 55 -100t111 -37q49 0 89 23t60 62l87 -34q-32 -64 -95.5 -102t-140.5 -38
q-112 0 -189 76.5t-77 192.5t75 192.5t185 76.5t187 -75.5t77 -188.5q0 -20 -6 -48h-418z" />
    <glyph glyph-name="uni1EBA" unicode="&#x1eba;" horiz-adv-x="566" 
d="M300 763l-42 56l44 30q33 19 33 50q0 20 -13 32t-33 12q-37 0 -45 -36l-65 19q11 41 41 64t71 23q51 0 83.5 -32t32.5 -82q0 -36 -18.5 -61.5t-58.5 -53.5zM151 398h354v-94h-354v-211h378v-93h-473v700h473v-93h-378v-209z" />
    <glyph glyph-name="uni1EBB" unicode="&#x1ebb;" horiz-adv-x="595" 
d="M298 554l-42 56l44 30q33 19 33 50q0 20 -13 32t-33 12q-37 0 -45 -36l-65 19q11 41 41 64t71 23q51 0 83.5 -32t32.5 -82q0 -36 -18.5 -61.5t-58.5 -53.5zM463 294q-7 63 -53.5 100t-111.5 37q-63 0 -108 -37t-54 -100h327zM136 208q9 -63 55 -100t111 -37q49 0 89 23
t60 62l87 -34q-32 -64 -95.5 -102t-140.5 -38q-112 0 -189 76.5t-77 192.5t75 192.5t185 76.5t187 -75.5t77 -188.5q0 -20 -6 -48h-418z" />
    <glyph glyph-name="uni1EBC" unicode="&#x1ebc;" horiz-adv-x="566" 
d="M221 926q-44 0 -73 -33t-39 -92l67 -18q12 72 48 72q12 0 23 -7t30 -26q27 -25 48.5 -35t46.5 -10q43 0 72 33t39 92l-67 18q-13 -69 -52 -69q-14 0 -25.5 7t-28.5 25q-26 24 -45.5 33.5t-43.5 9.5zM151 398h354v-94h-354v-211h378v-93h-473v700h473v-93h-378v-209z" />
    <glyph glyph-name="uni1EBD" unicode="&#x1ebd;" horiz-adv-x="595" 
d="M219 717q-44 0 -73 -33t-39 -92l67 -18q12 72 48 72q12 0 23 -7t30 -26q27 -25 48.5 -35t46.5 -10q43 0 72 33t39 92l-67 18q-13 -69 -52 -69q-14 0 -25.5 7t-28.5 25q-26 24 -45.5 33.5t-43.5 9.5zM463 294q-7 63 -53.5 100t-111.5 37q-63 0 -108 -37t-54 -100h327z
M136 208q9 -63 55 -100t111 -37q49 0 89 23t60 62l87 -34q-32 -64 -95.5 -102t-140.5 -38q-112 0 -189 76.5t-77 192.5t75 192.5t185 76.5t187 -75.5t77 -188.5q0 -20 -6 -48h-418z" />
    <glyph glyph-name="uni1EBE" unicode="&#x1ebe;" horiz-adv-x="566" 
d="M637 1091l-65 64l-158 -164l53 -56zM282 977l-165 -148l49 -56l130 119l130 -119l49 56l-165 148h-28zM151 398h354v-94h-354v-211h378v-93h-473v700h473v-93h-378v-209z" />
    <glyph glyph-name="uni1EBF" unicode="&#x1ebf;" horiz-adv-x="595" 
d="M633 888l-65 64l-158 -164l53 -56zM280 768l-165 -148l49 -56l130 119l130 -119l49 56l-165 148h-28zM463 294q-7 63 -53.5 100t-111.5 37q-63 0 -108 -37t-54 -100h327zM136 208q9 -63 55 -100t111 -37q49 0 89 23t60 62l87 -34q-32 -64 -95.5 -102t-140.5 -38
q-112 0 -189 76.5t-77 192.5t75 192.5t185 76.5t187 -75.5t77 -188.5q0 -20 -6 -48h-418z" />
    <glyph glyph-name="uni1EC0" unicode="&#x1ec0;" horiz-adv-x="566" 
d="M352 1091l65 60l163 -160l-61 -56zM282 977l-165 -148l49 -56l130 119l130 -119l49 56l-165 148h-28zM151 398h354v-94h-354v-211h378v-93h-473v700h473v-93h-378v-209z" />
    <glyph glyph-name="uni1EC1" unicode="&#x1ec1;" horiz-adv-x="595" 
d="M348 888l65 60l163 -160l-61 -56zM280 768l-165 -148l49 -56l130 119l130 -119l49 56l-165 148h-28zM463 294q-7 63 -53.5 100t-111.5 37q-63 0 -108 -37t-54 -100h327zM136 208q9 -63 55 -100t111 -37q49 0 89 23t60 62l87 -34q-32 -64 -95.5 -102t-140.5 -38
q-112 0 -189 76.5t-77 192.5t75 192.5t185 76.5t187 -75.5t77 -188.5q0 -20 -6 -48h-418z" />
    <glyph glyph-name="uni1EC2" unicode="&#x1ec2;" horiz-adv-x="566" 
d="M501 921l-42 56l44 30q33 19 33 50q0 20 -13 32t-33 12q-37 0 -45 -36l-65 19q11 41 41 64t71 23q51 0 83.5 -32t32.5 -82q0 -36 -18.5 -61.5t-58.5 -53.5zM282 977l-165 -148l49 -56l130 119l130 -119l49 56l-165 148h-28zM151 398h354v-94h-354v-211h378v-93h-473v700
h473v-93h-378v-209z" />
    <glyph glyph-name="uni1EC3" unicode="&#x1ec3;" horiz-adv-x="595" 
d="M497 718l-42 56l44 30q33 19 33 50q0 20 -13 32t-33 12q-37 0 -45 -36l-65 19q11 41 41 64t71 23q51 0 83.5 -32t32.5 -82q0 -36 -18.5 -61.5t-58.5 -53.5zM280 768l-165 -148l49 -56l130 119l130 -119l49 56l-165 148h-28zM463 294q-7 63 -53.5 100t-111.5 37
q-63 0 -108 -37t-54 -100h327zM136 208q9 -63 55 -100t111 -37q49 0 89 23t60 62l87 -34q-32 -64 -95.5 -102t-140.5 -38q-112 0 -189 76.5t-77 192.5t75 192.5t185 76.5t187 -75.5t77 -188.5q0 -20 -6 -48h-418z" />
    <glyph glyph-name="uni1EC4" unicode="&#x1ec4;" horiz-adv-x="566" 
d="M210 1176q-44 0 -73 -33t-39 -92l67 -18q12 72 48 72q12 0 23 -7t30 -26q27 -25 48.5 -35t46.5 -10q43 0 72 33t39 92l-67 18q-13 -69 -52 -69q-14 0 -25.5 7t-28.5 25q-26 24 -45.5 33.5t-43.5 9.5zM282 977l-165 -148l49 -56l130 119l130 -119l49 56l-165 148h-28z
M151 398h354v-94h-354v-211h378v-93h-473v700h473v-93h-378v-209z" />
    <glyph glyph-name="uni1EC5" unicode="&#x1ec5;" horiz-adv-x="595" 
d="M223 977q-44 0 -73 -33t-39 -92l67 -18q12 72 48 72q12 0 23 -7t30 -26q27 -25 48.5 -35t46.5 -10q43 0 72 33t39 92l-67 18q-13 -69 -52 -69q-14 0 -25.5 7t-28.5 25q-26 24 -45.5 33.5t-43.5 9.5zM280 768l-165 -148l49 -56l130 119l130 -119l49 56l-165 148h-28z
M463 294q-7 63 -53.5 100t-111.5 37q-63 0 -108 -37t-54 -100h327zM136 208q9 -63 55 -100t111 -37q49 0 89 23t60 62l87 -34q-32 -64 -95.5 -102t-140.5 -38q-112 0 -189 76.5t-77 192.5t75 192.5t185 76.5t187 -75.5t77 -188.5q0 -20 -6 -48h-418z" />
    <glyph glyph-name="uni1EC6" unicode="&#x1ec6;" horiz-adv-x="566" 
d="M282 979l-165 -148l49 -56l130 119l130 -119l49 56l-165 148h-28zM244 -141q0 26 17.5 43.5t43.5 17.5t43.5 -17.5t17.5 -43.5t-17.5 -44t-43.5 -18t-43.5 18t-17.5 44zM151 398h354v-94h-354v-211h378v-93h-473v700h473v-93h-378v-209z" />
    <glyph glyph-name="uni1EC7" unicode="&#x1ec7;" horiz-adv-x="595" 
d="M279 776l-165 -148l49 -56l130 119l130 -119l49 56l-165 148h-28zM236 -141q0 26 17.5 43.5t43.5 17.5t43.5 -17.5t17.5 -43.5t-17.5 -44t-43.5 -18t-43.5 18t-17.5 44zM463 294q-7 63 -53.5 100t-111.5 37q-63 0 -108 -37t-54 -100h327zM136 208q9 -63 55 -100t111 -37
q49 0 89 23t60 62l87 -34q-32 -64 -95.5 -102t-140.5 -38q-112 0 -189 76.5t-77 192.5t75 192.5t185 76.5t187 -75.5t77 -188.5q0 -20 -6 -48h-418z" />
    <glyph glyph-name="uni1EC8" unicode="&#x1ec8;" 
d="M108 763l-42 56l44 30q33 19 33 50q0 20 -13 32t-33 12q-37 0 -45 -36l-65 19q11 41 41 64t71 23q51 0 83.5 -32t32.5 -82q0 -36 -18.5 -61.5t-58.5 -53.5zM151 0h-95v700h95v-700z" />
    <glyph glyph-name="uni1EC9" unicode="&#x1ec9;" 
d="M108 554l-42 56l44 30q33 19 33 50q0 20 -13 32t-33 12q-37 0 -45 -36l-65 19q11 41 41 64t71 23q51 0 83.5 -32t32.5 -82q0 -36 -18.5 -61.5t-58.5 -53.5zM56 0v500h95v-500h-95z" />
    <glyph glyph-name="uni1ECA" unicode="&#x1eca;" 
d="M43 -141q0 26 17.5 43.5t43.5 17.5t43.5 -17.5t17.5 -43.5t-17.5 -44t-43.5 -18t-43.5 18t-17.5 44zM151 0h-95v700h95v-700z" />
    <glyph glyph-name="uni1ECB" unicode="&#x1ecb;" horiz-adv-x="204" 
d="M41 -141q0 26 17.5 43.5t43.5 17.5t43.5 -17.5t17.5 -43.5t-17.5 -44t-43.5 -18t-43.5 18t-17.5 44zM41 638.5q0 26.5 17.5 44t43.5 17.5t44 -17.5t18 -44t-18 -44t-44 -17.5t-43.5 17.5t-17.5 44zM55 0v500h95v-500h-95z" />
    <glyph glyph-name="uni1ECC" unicode="&#x1ecc;" horiz-adv-x="788" 
d="M333 -141q0 26 17.5 43.5t43.5 17.5t43.5 -17.5t17.5 -43.5t-17.5 -44t-43.5 -18t-43.5 18t-17.5 44zM131 353q0 -121 76.5 -198.5t186.5 -77.5t186.5 77.5t76.5 198.5q0 119 -76.5 195.5t-186.5 76.5t-186.5 -76.5t-76.5 -195.5zM36 353q0 79 28.5 148t76.5 116.5
t114 75t139 27.5t139 -27.5t114 -75t76.5 -116.5t28.5 -148q0 -80 -28.5 -149.5t-76.5 -118t-114 -76t-139 -27.5t-139 27.5t-114 76t-76.5 118t-28.5 149.5z" />
    <glyph glyph-name="uni1ECD" unicode="&#x1ecd;" horiz-adv-x="618" 
d="M246 -141q0 26 17.5 43.5t43.5 17.5t43.5 -17.5t17.5 -43.5t-17.5 -44t-43.5 -18t-43.5 18t-17.5 44zM131 251q0 -78 51.5 -128t126.5 -50t126.5 50t51.5 128t-51.5 128t-126.5 50t-126.5 -50t-51.5 -128zM36 251q0 117 79.5 193t193.5 76t193.5 -76t79.5 -193
t-79.5 -193t-193.5 -76t-193.5 76t-79.5 193z" />
    <glyph glyph-name="uni1ECE" unicode="&#x1ece;" horiz-adv-x="788" 
d="M398 763l-42 56l44 30q33 19 33 50q0 20 -13 32t-33 12q-37 0 -45 -36l-65 19q11 41 41 64t71 23q51 0 83.5 -32t32.5 -82q0 -36 -18.5 -61.5t-58.5 -53.5zM131 353q0 -121 76.5 -198.5t186.5 -77.5t186.5 77.5t76.5 198.5q0 119 -76.5 195.5t-186.5 76.5t-186.5 -76.5
t-76.5 -195.5zM36 353q0 79 28.5 148t76.5 116.5t114 75t139 27.5t139 -27.5t114 -75t76.5 -116.5t28.5 -148q0 -80 -28.5 -149.5t-76.5 -118t-114 -76t-139 -27.5t-139 27.5t-114 76t-76.5 118t-28.5 149.5z" />
    <glyph glyph-name="uni1ECF" unicode="&#x1ecf;" horiz-adv-x="618" 
d="M312 554l-42 56l44 30q33 19 33 50q0 20 -13 32t-33 12q-37 0 -45 -36l-65 19q11 41 41 64t71 23q51 0 83.5 -32t32.5 -82q0 -36 -18.5 -61.5t-58.5 -53.5zM131 251q0 -78 51.5 -128t126.5 -50t126.5 50t51.5 128t-51.5 128t-126.5 50t-126.5 -50t-51.5 -128zM36 251
q0 117 79.5 193t193.5 76t193.5 -76t79.5 -193t-79.5 -193t-193.5 -76t-193.5 76t-79.5 193z" />
    <glyph glyph-name="uni1ED0" unicode="&#x1ed0;" horiz-adv-x="788" 
d="M753 1088l-65 64l-158 -164l53 -56zM380 977l-165 -148l49 -56l130 119l130 -119l49 56l-165 148h-28zM131 353q0 -121 76.5 -198.5t186.5 -77.5t186.5 77.5t76.5 198.5q0 119 -76.5 195.5t-186.5 76.5t-186.5 -76.5t-76.5 -195.5zM36 353q0 79 28.5 148t76.5 116.5
t114 75t139 27.5t139 -27.5t114 -75t76.5 -116.5t28.5 -148q0 -80 -28.5 -149.5t-76.5 -118t-114 -76t-139 -27.5t-139 27.5t-114 76t-76.5 118t-28.5 149.5z" />
    <glyph glyph-name="uni1ED1" unicode="&#x1ed1;" horiz-adv-x="618" 
d="M646 884l-65 64l-158 -164l53 -56zM294 768l-165 -148l49 -56l130 119l130 -119l49 56l-165 148h-28zM131 251q0 -78 51.5 -128t126.5 -50t126.5 50t51.5 128t-51.5 128t-126.5 50t-126.5 -50t-51.5 -128zM36 251q0 117 79.5 193t193.5 76t193.5 -76t79.5 -193
t-79.5 -193t-193.5 -76t-193.5 76t-79.5 193z" />
    <glyph glyph-name="uni1ED2" unicode="&#x1ed2;" horiz-adv-x="788" 
d="M468 1088l65 60l163 -160l-61 -56zM380 977l-165 -148l49 -56l130 119l130 -119l49 56l-165 148h-28zM131 353q0 -121 76.5 -198.5t186.5 -77.5t186.5 77.5t76.5 198.5q0 119 -76.5 195.5t-186.5 76.5t-186.5 -76.5t-76.5 -195.5zM36 353q0 79 28.5 148t76.5 116.5
t114 75t139 27.5t139 -27.5t114 -75t76.5 -116.5t28.5 -148q0 -80 -28.5 -149.5t-76.5 -118t-114 -76t-139 -27.5t-139 27.5t-114 76t-76.5 118t-28.5 149.5z" />
    <glyph glyph-name="uni1ED3" unicode="&#x1ed3;" horiz-adv-x="618" 
d="M361 884l65 60l163 -160l-61 -56zM294 768l-165 -148l49 -56l130 119l130 -119l49 56l-165 148h-28zM131 251q0 -78 51.5 -128t126.5 -50t126.5 50t51.5 128t-51.5 128t-126.5 50t-126.5 -50t-51.5 -128zM36 251q0 117 79.5 193t193.5 76t193.5 -76t79.5 -193t-79.5 -193
t-193.5 -76t-193.5 76t-79.5 193z" />
    <glyph glyph-name="uni1ED4" unicode="&#x1ed4;" horiz-adv-x="788" 
d="M617 918l-42 56l44 30q33 19 33 50q0 20 -13 32t-33 12q-37 0 -45 -36l-65 19q11 41 41 64t71 23q51 0 83.5 -32t32.5 -82q0 -36 -18.5 -61.5t-58.5 -53.5zM380 977l-165 -148l49 -56l130 119l130 -119l49 56l-165 148h-28zM131 353q0 -121 76.5 -198.5t186.5 -77.5
t186.5 77.5t76.5 198.5q0 119 -76.5 195.5t-186.5 76.5t-186.5 -76.5t-76.5 -195.5zM36 353q0 79 28.5 148t76.5 116.5t114 75t139 27.5t139 -27.5t114 -75t76.5 -116.5t28.5 -148q0 -80 -28.5 -149.5t-76.5 -118t-114 -76t-139 -27.5t-139 27.5t-114 76t-76.5 118
t-28.5 149.5z" />
    <glyph glyph-name="uni1ED5" unicode="&#x1ed5;" horiz-adv-x="618" 
d="M510 714l-42 56l44 30q33 19 33 50q0 20 -13 32t-33 12q-37 0 -45 -36l-65 19q11 41 41 64t71 23q51 0 83.5 -32t32.5 -82q0 -36 -18.5 -61.5t-58.5 -53.5zM294 768l-165 -148l49 -56l130 119l130 -119l49 56l-165 148h-28zM131 251q0 -78 51.5 -128t126.5 -50t126.5 50
t51.5 128t-51.5 128t-126.5 50t-126.5 -50t-51.5 -128zM36 251q0 117 79.5 193t193.5 76t193.5 -76t79.5 -193t-79.5 -193t-193.5 -76t-193.5 76t-79.5 193z" />
    <glyph glyph-name="uni1ED6" unicode="&#x1ed6;" horiz-adv-x="788" 
d="M319 1176q-44 0 -73 -33t-39 -92l67 -18q12 72 48 72q12 0 23 -7t30 -26q27 -25 48.5 -35t46.5 -10q43 0 72 33t39 92l-67 18q-13 -69 -52 -69q-14 0 -25.5 7t-28.5 25q-26 24 -45.5 33.5t-43.5 9.5zM380 977l-165 -148l49 -56l130 119l130 -119l49 56l-165 148h-28z
M131 353q0 -121 76.5 -198.5t186.5 -77.5t186.5 77.5t76.5 198.5q0 119 -76.5 195.5t-186.5 76.5t-186.5 -76.5t-76.5 -195.5zM36 353q0 79 28.5 148t76.5 116.5t114 75t139 27.5t139 -27.5t114 -75t76.5 -116.5t28.5 -148q0 -80 -28.5 -149.5t-76.5 -118t-114 -76
t-139 -27.5t-139 27.5t-114 76t-76.5 118t-28.5 149.5z" />
    <glyph glyph-name="uni1ED7" unicode="&#x1ed7;" horiz-adv-x="618" 
d="M233 977q-44 0 -73 -33t-39 -92l67 -18q12 72 48 72q12 0 23 -7t30 -26q27 -25 48.5 -35t46.5 -10q43 0 72 33t39 92l-67 18q-13 -69 -52 -69q-14 0 -25.5 7t-28.5 25q-26 24 -45.5 33.5t-43.5 9.5zM294 768l-165 -148l49 -56l130 119l130 -119l49 56l-165 148h-28z
M131 251q0 -78 51.5 -128t126.5 -50t126.5 50t51.5 128t-51.5 128t-126.5 50t-126.5 -50t-51.5 -128zM36 251q0 117 79.5 193t193.5 76t193.5 -76t79.5 -193t-79.5 -193t-193.5 -76t-193.5 76t-79.5 193z" />
    <glyph glyph-name="uni1ED8" unicode="&#x1ed8;" horiz-adv-x="788" 
d="M380 979l-165 -148l49 -56l130 119l130 -119l49 56l-165 148h-28zM333 -141q0 26 17.5 43.5t43.5 17.5t43.5 -17.5t17.5 -43.5t-17.5 -44t-43.5 -18t-43.5 18t-17.5 44zM131 353q0 -121 76.5 -198.5t186.5 -77.5t186.5 77.5t76.5 198.5q0 119 -76.5 195.5t-186.5 76.5
t-186.5 -76.5t-76.5 -195.5zM36 353q0 79 28.5 148t76.5 116.5t114 75t139 27.5t139 -27.5t114 -75t76.5 -116.5t28.5 -148q0 -80 -28.5 -149.5t-76.5 -118t-114 -76t-139 -27.5t-139 27.5t-114 76t-76.5 118t-28.5 149.5z" />
    <glyph glyph-name="uni1ED9" unicode="&#x1ed9;" horiz-adv-x="618" 
d="M295 776l-165 -148l49 -56l130 119l130 -119l49 56l-165 148h-28zM246 -141q0 26 17.5 43.5t43.5 17.5t43.5 -17.5t17.5 -43.5t-17.5 -44t-43.5 -18t-43.5 18t-17.5 44zM131 251q0 -78 51.5 -128t126.5 -50t126.5 50t51.5 128t-51.5 128t-126.5 50t-126.5 -50t-51.5 -128
zM36 251q0 117 79.5 193t193.5 76t193.5 -76t79.5 -193t-79.5 -193t-193.5 -76t-193.5 76t-79.5 193z" />
    <glyph glyph-name="uni1EDA" unicode="&#x1eda;" horiz-adv-x="797" 
d="M534 933l-65 64l-158 -164l53 -56zM569 596v65h60q25 0 38.5 12t13.5 34q0 26 -26 45l55 48q45 -28 45 -89q0 -48 -32 -81.5t-77 -33.5h-77zM131 353q0 -121 76.5 -198.5t186.5 -77.5t186.5 77.5t76.5 198.5q0 119 -76.5 195.5t-186.5 76.5t-186.5 -76.5t-76.5 -195.5z
M36 353q0 79 28.5 148t76.5 116.5t114 75t139 27.5t139 -27.5t114 -75t76.5 -116.5t28.5 -148q0 -80 -28.5 -149.5t-76.5 -118t-114 -76t-139 -27.5t-139 27.5t-114 76t-76.5 118t-28.5 149.5z" />
    <glyph glyph-name="uni1EDB" unicode="&#x1edb;" horiz-adv-x="651" 
d="M448 724l-65 64l-158 -164l53 -56zM468 388v65h60q25 0 38.5 12t13.5 34q0 26 -26 45l55 48q45 -28 45 -89q0 -48 -32 -81.5t-77 -33.5h-77zM131 251q0 -78 51.5 -128t126.5 -50t126.5 50t51.5 128t-51.5 128t-126.5 50t-126.5 -50t-51.5 -128zM36 251q0 117 79.5 193
t193.5 76t193.5 -76t79.5 -193t-79.5 -193t-193.5 -76t-193.5 76t-79.5 193z" />
    <glyph glyph-name="uni1EDC" unicode="&#x1edc;" horiz-adv-x="797" 
d="M249 933l65 60l163 -160l-61 -56zM569 596v65h60q25 0 38.5 12t13.5 34q0 26 -26 45l55 48q45 -28 45 -89q0 -48 -32 -81.5t-77 -33.5h-77zM131 353q0 -121 76.5 -198.5t186.5 -77.5t186.5 77.5t76.5 198.5q0 119 -76.5 195.5t-186.5 76.5t-186.5 -76.5t-76.5 -195.5z
M36 353q0 79 28.5 148t76.5 116.5t114 75t139 27.5t139 -27.5t114 -75t76.5 -116.5t28.5 -148q0 -80 -28.5 -149.5t-76.5 -118t-114 -76t-139 -27.5t-139 27.5t-114 76t-76.5 118t-28.5 149.5z" />
    <glyph glyph-name="uni1EDD" unicode="&#x1edd;" horiz-adv-x="651" 
d="M163 724l65 60l163 -160l-61 -56zM468 388v65h60q25 0 38.5 12t13.5 34q0 26 -26 45l55 48q45 -28 45 -89q0 -48 -32 -81.5t-77 -33.5h-77zM131 251q0 -78 51.5 -128t126.5 -50t126.5 50t51.5 128t-51.5 128t-126.5 50t-126.5 -50t-51.5 -128zM36 251q0 117 79.5 193
t193.5 76t193.5 -76t79.5 -193t-79.5 -193t-193.5 -76t-193.5 76t-79.5 193z" />
    <glyph glyph-name="uni1EDE" unicode="&#x1ede;" horiz-adv-x="797" 
d="M398 763l-42 56l44 30q33 19 33 50q0 20 -13 32t-33 12q-37 0 -45 -36l-65 19q11 41 41 64t71 23q51 0 83.5 -32t32.5 -82q0 -36 -18.5 -61.5t-58.5 -53.5zM569 596v65h60q25 0 38.5 12t13.5 34q0 26 -26 45l55 48q45 -28 45 -89q0 -48 -32 -81.5t-77 -33.5h-77zM131 353
q0 -121 76.5 -198.5t186.5 -77.5t186.5 77.5t76.5 198.5q0 119 -76.5 195.5t-186.5 76.5t-186.5 -76.5t-76.5 -195.5zM36 353q0 79 28.5 148t76.5 116.5t114 75t139 27.5t139 -27.5t114 -75t76.5 -116.5t28.5 -148q0 -80 -28.5 -149.5t-76.5 -118t-114 -76t-139 -27.5
t-139 27.5t-114 76t-76.5 118t-28.5 149.5z" />
    <glyph glyph-name="uni1EDF" unicode="&#x1edf;" horiz-adv-x="651" 
d="M312 554l-42 56l44 30q33 19 33 50q0 20 -13 32t-33 12q-37 0 -45 -36l-65 19q11 41 41 64t71 23q51 0 83.5 -32t32.5 -82q0 -36 -18.5 -61.5t-58.5 -53.5zM468 388v65h60q25 0 38.5 12t13.5 34q0 26 -26 45l55 48q45 -28 45 -89q0 -48 -32 -81.5t-77 -33.5h-77zM131 251
q0 -78 51.5 -128t126.5 -50t126.5 50t51.5 128t-51.5 128t-126.5 50t-126.5 -50t-51.5 -128zM36 251q0 117 79.5 193t193.5 76t193.5 -76t79.5 -193t-79.5 -193t-193.5 -76t-193.5 76t-79.5 193z" />
    <glyph glyph-name="uni1EE0" unicode="&#x1ee0;" horiz-adv-x="797" 
d="M319 926q-44 0 -73 -33t-39 -92l67 -18q12 72 48 72q12 0 23 -7t30 -26q27 -25 48.5 -35t46.5 -10q43 0 72 33t39 92l-67 18q-13 -69 -52 -69q-14 0 -25.5 7t-28.5 25q-26 24 -45.5 33.5t-43.5 9.5zM569 596v65h60q25 0 38.5 12t13.5 34q0 26 -26 45l55 48q45 -28 45 -89
q0 -48 -32 -81.5t-77 -33.5h-77zM131 353q0 -121 76.5 -198.5t186.5 -77.5t186.5 77.5t76.5 198.5q0 119 -76.5 195.5t-186.5 76.5t-186.5 -76.5t-76.5 -195.5zM36 353q0 79 28.5 148t76.5 116.5t114 75t139 27.5t139 -27.5t114 -75t76.5 -116.5t28.5 -148
q0 -80 -28.5 -149.5t-76.5 -118t-114 -76t-139 -27.5t-139 27.5t-114 76t-76.5 118t-28.5 149.5z" />
    <glyph glyph-name="uni1EE1" unicode="&#x1ee1;" horiz-adv-x="651" 
d="M233 717q-44 0 -73 -33t-39 -92l67 -18q12 72 48 72q12 0 23 -7t30 -26q27 -25 48.5 -35t46.5 -10q43 0 72 33t39 92l-67 18q-13 -69 -52 -69q-14 0 -25.5 7t-28.5 25q-26 24 -45.5 33.5t-43.5 9.5zM468 388v65h60q25 0 38.5 12t13.5 34q0 26 -26 45l55 48q45 -28 45 -89
q0 -48 -32 -81.5t-77 -33.5h-77zM131 251q0 -78 51.5 -128t126.5 -50t126.5 50t51.5 128t-51.5 128t-126.5 50t-126.5 -50t-51.5 -128zM36 251q0 117 79.5 193t193.5 76t193.5 -76t79.5 -193t-79.5 -193t-193.5 -76t-193.5 76t-79.5 193z" />
    <glyph glyph-name="uni1EE2" unicode="&#x1ee2;" horiz-adv-x="797" 
d="M333 -141q0 26 17.5 43.5t43.5 17.5t43.5 -17.5t17.5 -43.5t-17.5 -44t-43.5 -18t-43.5 18t-17.5 44zM569 596v65h60q25 0 38.5 12t13.5 34q0 26 -26 45l55 48q45 -28 45 -89q0 -48 -32 -81.5t-77 -33.5h-77zM131 353q0 -121 76.5 -198.5t186.5 -77.5t186.5 77.5
t76.5 198.5q0 119 -76.5 195.5t-186.5 76.5t-186.5 -76.5t-76.5 -195.5zM36 353q0 79 28.5 148t76.5 116.5t114 75t139 27.5t139 -27.5t114 -75t76.5 -116.5t28.5 -148q0 -80 -28.5 -149.5t-76.5 -118t-114 -76t-139 -27.5t-139 27.5t-114 76t-76.5 118t-28.5 149.5z" />
    <glyph glyph-name="uni1EE3" unicode="&#x1ee3;" horiz-adv-x="651" 
d="M246 -141q0 26 17.5 43.5t43.5 17.5t43.5 -17.5t17.5 -43.5t-17.5 -44t-43.5 -18t-43.5 18t-17.5 44zM468 388v65h60q25 0 38.5 12t13.5 34q0 26 -26 45l55 48q45 -28 45 -89q0 -48 -32 -81.5t-77 -33.5h-77zM131 251q0 -78 51.5 -128t126.5 -50t126.5 50t51.5 128
t-51.5 128t-126.5 50t-126.5 -50t-51.5 -128zM36 251q0 117 79.5 193t193.5 76t193.5 -76t79.5 -193t-79.5 -193t-193.5 -76t-193.5 76t-79.5 193z" />
    <glyph glyph-name="uni1EE4" unicode="&#x1ee4;" horiz-adv-x="690" 
d="M283 -141q0 26 17.5 43.5t43.5 17.5t43.5 -17.5t17.5 -43.5t-17.5 -44t-43.5 -18t-43.5 18t-17.5 44zM345 -11q-123 0 -206 81t-83 204v426h95v-416q0 -94 54.5 -147t139.5 -53t139.5 53t54.5 147v416h95v-426q0 -123 -83 -204t-206 -81z" />
    <glyph glyph-name="uni1EE5" unicode="&#x1ee5;" horiz-adv-x="530" 
d="M207 -141q0 26 17.5 43.5t43.5 17.5t43.5 -17.5t17.5 -43.5t-17.5 -44t-43.5 -18t-43.5 18t-17.5 44zM474 500v-500h-95v500h95zM151 500v-308q0 -52 30.5 -82t77.5 -30q50 0 85 32t35 76h46q0 -83 -56 -141t-138 -58q-75 0 -125 50t-50 132v329h95z" />
    <glyph glyph-name="uni1EE6" unicode="&#x1ee6;" horiz-adv-x="690" 
d="M349 763l-42 56l44 30q33 19 33 50q0 20 -13 32t-33 12q-37 0 -45 -36l-65 19q11 41 41 64t71 23q51 0 83.5 -32t32.5 -82q0 -36 -18.5 -61.5t-58.5 -53.5zM345 -11q-123 0 -206 81t-83 204v426h95v-416q0 -94 54.5 -147t139.5 -53t139.5 53t54.5 147v416h95v-426
q0 -123 -83 -204t-206 -81z" />
    <glyph glyph-name="uni1EE7" unicode="&#x1ee7;" horiz-adv-x="530" 
d="M267 554l-42 56l44 30q33 19 33 50q0 20 -13 32t-33 12q-37 0 -45 -36l-65 19q11 41 41 64t71 23q51 0 83.5 -32t32.5 -82q0 -36 -18.5 -61.5t-58.5 -53.5zM474 500v-500h-95v500h95zM151 500v-308q0 -52 30.5 -82t77.5 -30q50 0 85 32t35 76h46q0 -83 -56 -141t-138 -58
q-75 0 -125 50t-50 132v329h95z" />
    <glyph glyph-name="uni1EE8" unicode="&#x1ee8;" horiz-adv-x="742" 
d="M485 933l-65 64l-158 -164l53 -56zM589 596v65h60q25 0 38.5 12t13.5 34q0 26 -26 45l55 48q45 -28 45 -89q0 -48 -32 -81.5t-77 -33.5h-77zM345 -11q-123 0 -206 81t-83 204v426h95v-416q0 -94 54.5 -147t139.5 -53t139.5 53t54.5 147v416h95v-426q0 -123 -83 -204
t-206 -81z" />
    <glyph glyph-name="uni1EE9" unicode="&#x1ee9;" horiz-adv-x="619" 
d="M403 724l-65 64l-158 -164l53 -56zM440 388v65h60q25 0 38.5 12t13.5 34q0 26 -26 45l55 48q45 -28 45 -89q0 -48 -32 -81.5t-77 -33.5h-77zM474 500v-500h-95v500h95zM151 500v-308q0 -52 30.5 -82t77.5 -30q50 0 85 32t35 76h46q0 -83 -56 -141t-138 -58q-75 0 -125 50
t-50 132v329h95z" />
    <glyph glyph-name="uni1EEA" unicode="&#x1eea;" horiz-adv-x="742" 
d="M200 933l65 60l163 -160l-61 -56zM589 596v65h60q25 0 38.5 12t13.5 34q0 26 -26 45l55 48q45 -28 45 -89q0 -48 -32 -81.5t-77 -33.5h-77zM345 -11q-123 0 -206 81t-83 204v426h95v-416q0 -94 54.5 -147t139.5 -53t139.5 53t54.5 147v416h95v-426q0 -123 -83 -204
t-206 -81z" />
    <glyph glyph-name="uni1EEB" unicode="&#x1eeb;" horiz-adv-x="619" 
d="M118 724l65 60l163 -160l-61 -56zM440 388v65h60q25 0 38.5 12t13.5 34q0 26 -26 45l55 48q45 -28 45 -89q0 -48 -32 -81.5t-77 -33.5h-77zM474 500v-500h-95v500h95zM151 500v-308q0 -52 30.5 -82t77.5 -30q50 0 85 32t35 76h46q0 -83 -56 -141t-138 -58q-75 0 -125 50
t-50 132v329h95z" />
    <glyph glyph-name="uni1EEC" unicode="&#x1eec;" horiz-adv-x="742" 
d="M349 763l-42 56l44 30q33 19 33 50q0 20 -13 32t-33 12q-37 0 -45 -36l-65 19q11 41 41 64t71 23q51 0 83.5 -32t32.5 -82q0 -36 -18.5 -61.5t-58.5 -53.5zM589 596v65h60q25 0 38.5 12t13.5 34q0 26 -26 45l55 48q45 -28 45 -89q0 -48 -32 -81.5t-77 -33.5h-77zM345 -11
q-123 0 -206 81t-83 204v426h95v-416q0 -94 54.5 -147t139.5 -53t139.5 53t54.5 147v416h95v-426q0 -123 -83 -204t-206 -81z" />
    <glyph glyph-name="uni1EED" unicode="&#x1eed;" horiz-adv-x="619" 
d="M267 554l-42 56l44 30q33 19 33 50q0 20 -13 32t-33 12q-37 0 -45 -36l-65 19q11 41 41 64t71 23q51 0 83.5 -32t32.5 -82q0 -36 -18.5 -61.5t-58.5 -53.5zM440 388v65h60q25 0 38.5 12t13.5 34q0 26 -26 45l55 48q45 -28 45 -89q0 -48 -32 -81.5t-77 -33.5h-77zM474 500
v-500h-95v500h95zM151 500v-308q0 -52 30.5 -82t77.5 -30q50 0 85 32t35 76h46q0 -83 -56 -141t-138 -58q-75 0 -125 50t-50 132v329h95z" />
    <glyph glyph-name="uni1EEE" unicode="&#x1eee;" horiz-adv-x="742" 
d="M270 926q-44 0 -73 -33t-39 -92l67 -18q12 72 48 72q12 0 23 -7t30 -26q27 -25 48.5 -35t46.5 -10q43 0 72 33t39 92l-67 18q-13 -69 -52 -69q-14 0 -25.5 7t-28.5 25q-26 24 -45.5 33.5t-43.5 9.5zM589 596v65h60q25 0 38.5 12t13.5 34q0 26 -26 45l55 48q45 -28 45 -89
q0 -48 -32 -81.5t-77 -33.5h-77zM345 -11q-123 0 -206 81t-83 204v426h95v-416q0 -94 54.5 -147t139.5 -53t139.5 53t54.5 147v416h95v-426q0 -123 -83 -204t-206 -81z" />
    <glyph glyph-name="uni1EEF" unicode="&#x1eef;" horiz-adv-x="619" 
d="M189 717q-44 0 -73 -33t-39 -92l67 -18q12 72 48 72q12 0 23 -7t30 -26q27 -25 48.5 -35t46.5 -10q43 0 72 33t39 92l-67 18q-13 -69 -52 -69q-14 0 -25.5 7t-28.5 25q-26 24 -45.5 33.5t-43.5 9.5zM440 388v65h60q25 0 38.5 12t13.5 34q0 26 -26 45l55 48q45 -28 45 -89
q0 -48 -32 -81.5t-77 -33.5h-77zM474 500v-500h-95v500h95zM151 500v-308q0 -52 30.5 -82t77.5 -30q50 0 85 32t35 76h46q0 -83 -56 -141t-138 -58q-75 0 -125 50t-50 132v329h95z" />
    <glyph glyph-name="uni1EF0" unicode="&#x1ef0;" horiz-adv-x="742" 
d="M283 -141q0 26 17.5 43.5t43.5 17.5t43.5 -17.5t17.5 -43.5t-17.5 -44t-43.5 -18t-43.5 18t-17.5 44zM589 596v65h60q25 0 38.5 12t13.5 34q0 26 -26 45l55 48q45 -28 45 -89q0 -48 -32 -81.5t-77 -33.5h-77zM345 -11q-123 0 -206 81t-83 204v426h95v-416
q0 -94 54.5 -147t139.5 -53t139.5 53t54.5 147v416h95v-426q0 -123 -83 -204t-206 -81z" />
    <glyph glyph-name="uni1EF1" unicode="&#x1ef1;" horiz-adv-x="619" 
d="M207 -141q0 26 17.5 43.5t43.5 17.5t43.5 -17.5t17.5 -43.5t-17.5 -44t-43.5 -18t-43.5 18t-17.5 44zM440 388v65h60q25 0 38.5 12t13.5 34q0 26 -26 45l55 48q45 -28 45 -89q0 -48 -32 -81.5t-77 -33.5h-77zM474 500v-500h-95v500h95zM151 500v-308q0 -52 30.5 -82
t77.5 -30q50 0 85 32t35 76h46q0 -83 -56 -141t-138 -58q-75 0 -125 50t-50 132v329h95z" />
    <glyph glyph-name="Ygrave" unicode="&#x1ef2;" horiz-adv-x="671" 
d="M198 933l65 60l163 -160l-61 -56zM298 0h95v232l250 468h-111l-186 -353l-205 353h-112l269 -468v-232z" />
    <glyph glyph-name="ygrave" unicode="&#x1ef3;" horiz-adv-x="567" 
d="M138 724l65 60l163 -160l-61 -56zM434 500l-150 -379l-150 379h-104l198 -484l-83 -216h104l289 700h-104z" />
    <glyph glyph-name="uni1EF4" unicode="&#x1ef4;" horiz-adv-x="671" 
d="M286 -141q0 26 17.5 43.5t43.5 17.5t43.5 -17.5t17.5 -43.5t-17.5 -44t-43.5 -18t-43.5 18t-17.5 44zM298 0h95v232l250 468h-111l-186 -353l-205 353h-112l269 -468v-232z" />
    <glyph glyph-name="uni1EF5" unicode="&#x1ef5;" horiz-adv-x="567" 
d="M370 -141q0 26 17.5 43.5t43.5 17.5t43.5 -17.5t17.5 -43.5t-17.5 -44t-43.5 -18t-43.5 18t-17.5 44zM434 500l-150 -379l-150 379h-104l198 -484l-83 -216h104l289 700h-104z" />
    <glyph glyph-name="uni1EF6" unicode="&#x1ef6;" horiz-adv-x="671" 
d="M347 763l-42 56l44 30q33 19 33 50q0 20 -13 32t-33 12q-37 0 -45 -36l-65 19q11 41 41 64t71 23q51 0 83.5 -32t32.5 -82q0 -36 -18.5 -61.5t-58.5 -53.5zM298 0h95v232l250 468h-111l-186 -353l-205 353h-112l269 -468v-232z" />
    <glyph glyph-name="uni1EF7" unicode="&#x1ef7;" horiz-adv-x="567" 
d="M287 554l-42 56l44 30q33 19 33 50q0 20 -13 32t-33 12q-37 0 -45 -36l-65 19q11 41 41 64t71 23q51 0 83.5 -32t32.5 -82q0 -36 -18.5 -61.5t-58.5 -53.5zM434 500l-150 -379l-150 379h-104l198 -484l-83 -216h104l289 700h-104z" />
    <glyph glyph-name="uni1EF8" unicode="&#x1ef8;" horiz-adv-x="671" 
d="M268 926q-44 0 -73 -33t-39 -92l67 -18q12 72 48 72q12 0 23 -7t30 -26q27 -25 48.5 -35t46.5 -10q43 0 72 33t39 92l-67 18q-13 -69 -52 -69q-14 0 -25.5 7t-28.5 25q-26 24 -45.5 33.5t-43.5 9.5zM298 0h95v232l250 468h-111l-186 -353l-205 353h-112l269 -468v-232z
" />
    <glyph glyph-name="uni1EF9" unicode="&#x1ef9;" horiz-adv-x="567" 
d="M208 717q-44 0 -73 -33t-39 -92l67 -18q12 72 48 72q12 0 23 -7t30 -26q27 -25 48.5 -35t46.5 -10q43 0 72 33t39 92l-67 18q-13 -69 -52 -69q-14 0 -25.5 7t-28.5 25q-26 24 -45.5 33.5t-43.5 9.5zM434 500l-150 -379l-150 379h-104l198 -484l-83 -216h104l289 700h-104
z" />
    <glyph glyph-name="uni2010" unicode="&#x2010;" horiz-adv-x="335" 
d="M308 309v-85h-280v85h280z" />
    <glyph glyph-name="endash" unicode="&#x2013;" horiz-adv-x="528" 
d="M500 309v-85h-472v85h472z" />
    <glyph glyph-name="emdash" unicode="&#x2014;" horiz-adv-x="842" 
d="M815 309v-85h-787v85h787z" />
    <glyph glyph-name="quoteleft" unicode="&#x2018;" horiz-adv-x="231" 
d="M191 724q-44 -10 -73 -43t-29 -75q12 16 41 16q31 0 52 -22t21 -53.5t-22.5 -52.5t-57.5 -21q-46 0 -73 43q-20 32 -20 78q0 58 39.5 113t94.5 72z" />
    <glyph glyph-name="quoteright" unicode="&#x2019;" horiz-adv-x="231" 
d="M42 528q44 10 73 43t29 75q-12 -16 -41 -16q-31 0 -52 21.5t-21 53t23 53t57 21.5q46 0 73 -43q20 -32 20 -79q0 -58 -39.5 -112.5t-94.5 -71.5z" />
    <glyph glyph-name="quotesinglbase" unicode="&#x201a;" horiz-adv-x="231" 
d="M42 -106q44 10 73 43.5t29 74.5q-12 -16 -41 -16q-31 0 -52 21.5t-21 53.5t23 53t57 21q46 0 73 -43q20 -32 20 -79q0 -58 -39.5 -112.5t-94.5 -70.5z" />
    <glyph glyph-name="quotereversed" unicode="&#x201b;" horiz-adv-x="231" 
d="M191 528l-27 -55q-55 17 -94.5 72t-39.5 113q0 46 20 78q27 43 73 43q35 0 57.5 -21t22.5 -52.5t-21 -53.5t-52 -22q-29 0 -41 16q0 -42 29 -75t73 -43z" />
    <glyph glyph-name="quotedblleft" unicode="&#x201c;" horiz-adv-x="436" 
d="M396 724q-44 -10 -73 -43t-29 -75q12 16 41 16q31 0 52 -22t21 -53.5t-22.5 -52.5t-57.5 -21q-46 0 -73 43q-20 32 -20 78q0 58 39.5 113t94.5 72zM191 724q-44 -10 -73 -43t-29 -75q12 16 41 16q31 0 52 -22t21 -53.5t-22.5 -52.5t-57.5 -21q-46 0 -73 43q-20 32 -20 78
q0 58 39.5 113t94.5 72z" />
    <glyph glyph-name="quotedblright" unicode="&#x201d;" horiz-adv-x="436" 
d="M42 528q44 10 73 43t29 75q-12 -16 -41 -16q-31 0 -52 22t-21 53.5t23 52.5t57 21q46 0 73 -43q20 -32 20 -78q0 -58 -39.5 -113t-94.5 -72zM247 528q44 10 73.5 43t29.5 75q-13 -16 -42 -16q-31 0 -52 22t-21 53.5t23 52.5t57 21q46 0 73 -43q20 -32 20 -78
q0 -58 -39.5 -113t-94.5 -72z" />
    <glyph glyph-name="quotedblbase" unicode="&#x201e;" horiz-adv-x="436" 
d="M42 -106q44 10 73 43.5t29 74.5q-12 -16 -41 -16q-31 0 -52 22t-21 53.5t23 52.5t57 21q46 0 73 -43q20 -32 20 -78q0 -58 -39.5 -113t-94.5 -71zM247 -106q44 10 73.5 43.5t29.5 74.5q-13 -16 -42 -16q-31 0 -52 22t-21 53.5t23 52.5t57 21q46 0 73 -43q20 -32 20 -78
q0 -58 -39.5 -113t-94.5 -71z" />
    <glyph glyph-name="uni201F" unicode="&#x201f;" horiz-adv-x="436" 
d="M396 528l-27 -55q-55 17 -94.5 72t-39.5 113q0 46 20 78q27 43 73 43q35 0 57.5 -21t22.5 -52.5t-21 -53.5t-52 -22q-29 0 -41 16q0 -42 29 -75t73 -43zM191 528l-27 -55q-55 17 -94.5 72t-39.5 113q0 46 20 78q27 43 73 43q35 0 57.5 -21t22.5 -52.5t-21 -53.5t-52 -22
q-29 0 -41 16q0 -42 29 -75t73 -43z" />
    <glyph glyph-name="dagger" unicode="&#x2020;" horiz-adv-x="374" 
d="M127 633h123l-14 -133h108v-89h-108v-411h-95v411h-111v89h111z" />
    <glyph glyph-name="daggerdbl" unicode="&#x2021;" horiz-adv-x="374" 
d="M126 633h122l-14 -133h109v-89h-109v-189h110v-89h-110l14 -133h-123l14 133h-109v89h109v189h-110v89h110z" />
    <glyph glyph-name="bullet" unicode="&#x2022;" horiz-adv-x="210" 
d="M34 285q0 31 20 52t50 21q31 0 52 -21t21 -52q0 -30 -20.5 -50.5t-51 -20.5t-51 20.5t-20.5 50.5z" />
    <glyph glyph-name="uni2023" unicode="&#x2023;" horiz-adv-x="210" 
d="M45 378l132 -93l-132 -91v184z" />
    <glyph glyph-name="ellipsis" unicode="&#x2026;" horiz-adv-x="631" 
d="M455 58q0 31 20 51.5t50 20.5q31 0 52 -20.5t21 -51.5t-20.5 -51.5t-51 -20.5t-51 20.5t-20.5 51.5zM244 58q0 31 20 51.5t50 20.5q31 0 52 -20.5t21 -51.5t-20.5 -51.5t-51 -20.5t-51 20.5t-20.5 51.5zM34 58q0 31 20 51.5t50 20.5q31 0 52 -20.5t21 -51.5t-20.5 -51.5
t-51 -20.5t-51 20.5t-20.5 51.5z" />
    <glyph glyph-name="perthousand" unicode="&#x2030;" horiz-adv-x="1330" 
d="M1015 178q0 -44 29 -72t71 -28t71 28t29 72t-29 72t-71 28t-71 -28t-29 -72zM927 177.5q0 81.5 54.5 135t133.5 53.5t133.5 -53.5t54.5 -135t-54.5 -134.5t-133.5 -53t-133.5 53t-54.5 134.5zM598 178q0 -44 29.5 -72t71.5 -28t71 28t29 72t-29 72t-71 28t-71.5 -28
t-29.5 -72zM511 177.5q0 81.5 54.5 135t133 53.5t133 -53.5t54.5 -135t-54.5 -134.5t-133 -53t-133 53t-54.5 134.5zM116 522q0 -44 29 -72t71 -28t71 28t29 72t-29 72t-71 28t-71 -28t-29 -72zM28 522.5q0 81.5 54.5 134.5t133.5 53t133.5 -53t54.5 -134.5t-54.5 -135
t-133.5 -53.5t-133.5 53.5t-54.5 135zM367 0h-106l287 700h106z" />
    <glyph glyph-name="minute" unicode="&#x2032;" horiz-adv-x="202" 
d="M84 761l88 -24l-59 -232l-83 22z" />
    <glyph glyph-name="second" unicode="&#x2033;" horiz-adv-x="359" 
d="M242 761l87 -24l-59 -232l-82 22zM84 761l88 -24l-59 -232l-83 22z" />
    <glyph glyph-name="uni2034" unicode="&#x2034;" horiz-adv-x="517" 
d="M399 761l88 -24l-59 -232l-83 22zM242 761l87 -24l-59 -232l-82 22zM84 761l88 -24l-59 -232l-83 22z" />
    <glyph glyph-name="uni2035" unicode="&#x2035;" horiz-adv-x="202" 
d="M118 761l54 -234l-83 -22l-59 232z" />
    <glyph glyph-name="uni2036" unicode="&#x2036;" horiz-adv-x="359" 
d="M118 761l54 -234l-83 -22l-59 232zM275 761l54 -234l-82 -22l-59 232z" />
    <glyph glyph-name="uni2037" unicode="&#x2037;" horiz-adv-x="517" 
d="M118 761l54 -234l-83 -22l-59 232zM275 761l54 -234l-82 -22l-59 232zM433 761l54 -234l-83 -22l-59 232z" />
    <glyph glyph-name="fractionslash" unicode="&#x2044;" horiz-adv-x="96" 
d="M-42 0h-106l287 700h106z" />
    <glyph glyph-name="uni2070" unicode="&#x2070;" horiz-adv-x="314" 
d="M107 642q0 -23 15 -38.5t36 -15.5t35 15.5t14 38.5v76q0 24 -14 39.5t-35 15.5t-36 -15.5t-15 -39.5v-76zM27 638v84q0 57 38 94t93 37q54 0 91.5 -37t37.5 -94v-84q0 -56 -37.5 -93t-91.5 -37q-55 0 -93 37t-38 93z" />
    <glyph glyph-name="uni2074" unicode="&#x2074;" horiz-adv-x="317" 
d="M103 651h69v97zM252 845v-194h39v-69h-39v-66h-80v66h-145v80l133 183h92z" />
    <glyph glyph-name="uni2075" unicode="&#x2075;" horiz-adv-x="314" 
d="M107 716v57h168v73h-248v-165l80 -26q25 28 54 28q21 0 33.5 -14.5t12.5 -36.5q0 -21 -13.5 -34t-36.5 -13q-20 0 -34 10.5t-18 29.5l-78 -21q13 -44 49 -69.5t83 -25.5q56 0 92 34.5t36 88.5q0 48 -29 81.5t-71 33.5q-46 0 -80 -31z" />
    <glyph glyph-name="uni2076" unicode="&#x2076;" horiz-adv-x="315" 
d="M233 749q-20 32 -58 32q-30 0 -49.5 -25t-22.5 -67q11 20 32 31.5t46 11.5q42 0 72 -32t30 -77q0 -49 -35.5 -82t-88.5 -33q-62 0 -97 46q-35 45 -35 118q0 81 40.5 131t105.5 50q39 0 69.5 -18t45.5 -50zM115 624q0 -18 13.5 -30.5t33.5 -12.5q19 0 32 11t13 29
t-13.5 30t-33.5 12t-32.5 -11t-12.5 -28z" />
    <glyph glyph-name="uni2077" unicode="&#x2077;" horiz-adv-x="298" 
d="M173 516l99 245v84h-245v-73h168l-109 -256h87z" />
    <glyph glyph-name="uni2078" unicode="&#x2078;" horiz-adv-x="311" 
d="M107 615.5q0 -14.5 14 -24.5t35 -10t35 10t14 24.5t-14 24.5t-35 10t-35 -10t-14 -24.5zM38 759q0 39 34.5 66.5t83.5 27.5t83.5 -27.5t34.5 -66.5q0 -52 -55 -75q31 -10 48.5 -30.5t17.5 -47.5q0 -41 -37.5 -69.5t-91.5 -28.5t-91.5 28.5t-37.5 69.5q0 27 17.5 47.5
t48.5 30.5q-55 23 -55 75zM156 716q16 0 27 10t11 24q0 13 -10.5 22t-27.5 9t-27.5 -9t-10.5 -22q0 -14 11 -24t27 -10z" />
    <glyph glyph-name="uni2079" unicode="&#x2079;" horiz-adv-x="315" 
d="M82 612q20 -32 59 -32q30 0 49 25t22 68q-10 -20 -31.5 -32t-46.5 -12q-42 0 -71.5 32t-29.5 78q0 49 35 81.5t89 32.5q61 0 97 -46q34 -45 34 -118q0 -81 -40 -131t-106 -50q-38 0 -69 18t-46 51zM201 737q0 19 -14 31.5t-33 12.5q-20 0 -32.5 -11.5t-12.5 -29.5
t13.5 -30t33.5 -12q19 0 32 11t13 28z" />
    <glyph glyph-name="uni2080" unicode="&#x2080;" horiz-adv-x="314" 
d="M107 -26q0 -23 15 -38.5t36 -15.5t35 15.5t14 38.5v76q0 24 -14 39.5t-35 15.5t-36 -15.5t-15 -39.5v-76zM27 -30v84q0 57 38 94t93 37q54 0 91.5 -37t37.5 -94v-84q0 -56 -37.5 -93t-91.5 -37q-55 0 -93 37t-38 93z" />
    <glyph glyph-name="uni2081" unicode="&#x2081;" horiz-adv-x="235" 
d="M209 178v-329h-80v235l-55 -43l-47 59l100 78h82z" />
    <glyph glyph-name="uni2082" unicode="&#x2082;" horiz-adv-x="304" 
d="M277 65q0 51 -36 84t-87 33q-50 0 -82 -27.5t-45 -70.5l75 -26q12 44 49 44q18 0 30 -12t12 -31q0 -28 -70 -64l-95 -53v-94h250v77h-149l51 28q97 47 97 112z" />
    <glyph glyph-name="uni2083" unicode="&#x2083;" horiz-adv-x="312" 
d="M200 38l79 51v90h-238v-73h159l-74 -56l24 -54q25 0 38.5 -10t13.5 -28q0 -15 -12 -25t-31 -10q-20 0 -33 12t-18 34l-81 -17q12 -50 48 -79.5t86 -29.5q54 0 89.5 30t35.5 77q0 37 -24 61.5t-62 26.5z" />
    <glyph glyph-name="uni2084" unicode="&#x2084;" horiz-adv-x="317" 
d="M103 -17h69v97zM252 178v-195h39v-69h-39v-65h-80v65h-145v81l133 183h92z" />
    <glyph glyph-name="uni2085" unicode="&#x2085;" horiz-adv-x="314" 
d="M107 48v57h168v73h-248v-165l80 -27q25 29 54 29q21 0 33.5 -14.5t12.5 -36.5q0 -21 -13.5 -34t-36.5 -13q-20 0 -34 10.5t-18 29.5l-78 -21q13 -44 49 -69.5t83 -25.5q56 0 92 34.5t36 88.5q0 48 -29 81.5t-71 33.5q-46 0 -80 -31z" />
    <glyph glyph-name="uni2086" unicode="&#x2086;" horiz-adv-x="315" 
d="M233 81q-20 32 -58 32q-30 0 -49.5 -25t-22.5 -67q11 19 32 31t46 12q42 0 72 -32t30 -77q0 -49 -35.5 -82t-88.5 -33q-62 0 -97 46q-35 45 -35 118q0 81 40.5 131t105.5 50q39 0 69.5 -18t45.5 -50zM115 -44q0 -18 13.5 -30.5t33.5 -12.5q19 0 32 11t13 29t-13.5 30
t-33.5 12t-32.5 -11t-12.5 -28z" />
    <glyph glyph-name="uni2087" unicode="&#x2087;" horiz-adv-x="298" 
d="M173 -151l99 244v85h-245v-73h168l-109 -256h87z" />
    <glyph glyph-name="uni2088" unicode="&#x2088;" horiz-adv-x="311" 
d="M107 -53q0 -15 14 -24.5t35 -9.5t35 9.5t14 24.5t-14 25t-35 10t-35 -10t-14 -25zM38 91q0 39 34.5 66.5t83.5 27.5t83.5 -27.5t34.5 -66.5q0 -52 -55 -75q31 -10 48.5 -30.5t17.5 -47.5q0 -41 -37.5 -69.5t-91.5 -28.5t-91.5 28.5t-37.5 69.5q0 27 17.5 47.5t48.5 30.5
q-55 23 -55 75zM156 48q16 0 27 10t11 24q0 13 -10.5 22t-27.5 9t-27.5 -9t-10.5 -22q0 -14 11 -24t27 -10z" />
    <glyph glyph-name="uni2089" unicode="&#x2089;" horiz-adv-x="315" 
d="M82 -56q20 -32 59 -32q30 0 49 25t22 68q-10 -20 -31.5 -32t-46.5 -12q-42 0 -71.5 32t-29.5 78q0 49 35 81.5t89 32.5q61 0 97 -46q34 -45 34 -118q0 -81 -40 -131t-106 -50q-38 0 -69 18t-46 51zM201 69q0 19 -14 31.5t-33 12.5q-20 0 -32.5 -11.5t-12.5 -29.5
t13.5 -30t33.5 -12q19 0 32 11t13 28z" />
    <glyph glyph-name="dong" unicode="&#x20ab;" horiz-adv-x="668" 
d="M644 -75v-77h-616v77h616zM527 251q0 -116 -69.5 -192.5t-171.5 -76.5q-105 0 -177.5 76.5t-72.5 192.5t72.5 192.5t177.5 76.5q102 0 171.5 -76.5t69.5 -192.5zM487 251q0 77 -51.5 127.5t-126.5 50.5t-126.5 -50.5t-51.5 -127.5t51.5 -127.5t126.5 -50.5t126.5 50.5
t51.5 127.5zM582 0h-95v594h-220v84h220v72h95v-72h86v-84h-86v-594z" />
    <glyph glyph-name="Euro" unicode="&#x20ac;" horiz-adv-x="845" 
d="M546 308v-62h-514v62h514zM546 471v-66h-514v66h514zM116 351q0 105 47.5 189.5t128.5 132t180 47.5q105 0 191 -53t130 -145l-81 -46q-33 69 -97.5 109t-143.5 40q-109 0 -184.5 -77.5t-75.5 -196.5t75.5 -196.5t184.5 -77.5q81 0 146.5 42.5t98.5 115.5l82 -45
q-43 -96 -130.5 -152t-195.5 -56q-99 0 -180 47.5t-128.5 132t-47.5 189.5z" />
    <glyph glyph-name="uni20B4" unicode="&#x20b4;" horiz-adv-x="581" 
d="M549 316v-62h-363q-35 -28 -35 -72q0 -45 36 -73t92 -28q59 0 105.5 33.5t70.5 92.5l90 -44q-32 -79 -105.5 -126.5t-163.5 -47.5q-97 0 -160.5 52.5t-63.5 132.5q0 45 26 80h-50v62h521zM500 454h49v-62h-521v62h364q30 27 30 68q0 45 -33 72t-86 27q-56 0 -101.5 -31
t-67.5 -85l-89 35q31 79 102 126t159 47q94 0 154 -52t60 -132q0 -43 -20 -75z" />
    <glyph glyph-name="uni20B8" unicode="&#x20b8;" horiz-adv-x="599" 
d="M27 611v89h545v-89h-545zM572 536v-93h-225v-443h-95v443h-225v93h545z" />
    <glyph glyph-name="uni20BD" unicode="&#x20bd;" horiz-adv-x="629" 
d="M389 310h-175v-80h147v-77h-147v-153h-95v153h-91v77h91v80h-91v85h91v305h280q86 0 143 -56t57 -141q0 -81 -61 -137t-149 -56zM389 607h-175v-212h175q49 0 82 31t33 77q0 45 -32.5 74.5t-82.5 29.5z" />
    <glyph glyph-name="uni2103" unicode="&#x2103;" horiz-adv-x="1184" 
d="M443 351q0 105 48.5 189.5t131 132t182.5 47.5q111 0 201.5 -59t137.5 -161l-93 -36q-34 75 -100 118t-147 43q-111 0 -188.5 -77.5t-77.5 -196.5t77.5 -196.5t188.5 -77.5q83 0 150.5 45.5t100.5 123.5l94 -34q-45 -106 -137.5 -168t-206.5 -62q-100 0 -182.5 47.5
t-131 132t-48.5 189.5zM116 534.5q0 -38.5 25.5 -63t62 -24.5t62 24.5t25.5 63t-25.5 63t-62 24.5t-62 -24.5t-25.5 -63zM28 535q0 76 51 125.5t124.5 49.5t124.5 -49.5t51 -125.5t-51 -125.5t-124.5 -49.5t-124.5 49.5t-51 125.5z" />
    <glyph glyph-name="uni2109" unicode="&#x2109;" horiz-adv-x="972" 
d="M558 398h354v-94h-354v-304h-95v700h473v-93h-378v-209zM116 534.5q0 -38.5 25.5 -63t62 -24.5t62 24.5t25.5 63t-25.5 63t-62 24.5t-62 -24.5t-25.5 -63zM28 535q0 76 51 125.5t124.5 49.5t124.5 -49.5t51 -125.5t-51 -125.5t-124.5 -49.5t-124.5 49.5t-51 125.5z" />
    <glyph glyph-name="trademark" unicode="&#x2122;" horiz-adv-x="485" 
d="M200 700v-44h-61v-174h-47v174h-58v44h166zM227 482v218h59l52 -117l53 117h60v-218h-47v140l-47 -105h-36l-47 105v-140h-47z" />
    <glyph glyph-name="estimated" unicode="&#x212e;" horiz-adv-x="598" 
d="M170 515v-136h259v138q-53 45 -130 45t-129 -47zM170 190q54 -50 134 -50q62 0 112.5 30t75.5 84l54 -24q-33 -68 -98 -108t-144 -40q-112 0 -190 76t-78 193t76.5 193t186.5 76t186.5 -73.5t76.5 -185.5q0 -12 -2 -37h-390v-134z" />
    <glyph glyph-name="arrowleft" unicode="&#x2190;" horiz-adv-x="759" 
d="M317 648l61 -60l-178 -177h517v-85h-516l177 -176l-61 -60l-275 279z" />
    <glyph glyph-name="arrowup" unicode="&#x2191;" horiz-adv-x="641" 
d="M599 431l-59 -60l-178 178v-517h-84v516l-176 -177l-60 60l279 275z" />
    <glyph glyph-name="arrowright" unicode="&#x2192;" horiz-adv-x="759" 
d="M442 80l-60 59l178 178h-518v84h517l-177 177l60 59l275 -279z" />
    <glyph glyph-name="arrowdown" unicode="&#x2193;" horiz-adv-x="641" 
d="M42 296l60 60l177 -178v518h85v-516l176 176l59 -60l-279 -274z" />
    <glyph glyph-name="arrowboth" unicode="&#x2194;" horiz-adv-x="908" 
d="M591 80l-60 59l177 177h-506l176 -176l-61 -59l-275 279l275 278l61 -59l-178 -177h507l-176 176l60 59l275 -279z" />
    <glyph glyph-name="arrowupdn" unicode="&#x2195;" horiz-adv-x="643" 
d="M42 222l60 60l177 -177v507l-176 -176l-59 60l278 275l279 -275l-59 -60l-178 177v-507l176 176l60 -60l-279 -275z" />
    <glyph glyph-name="uni2196" unicode="&#x2196;" horiz-adv-x="593" 
d="M436 610l1 -84h-252l366 -366l-59 -60l-365 365v-249h-85l3 391z" />
    <glyph glyph-name="uni2197" unicode="&#x2197;" horiz-adv-x="593" 
d="M551 216h-83v250l-367 -365l-59 59l365 365h-250l1 85l391 -3z" />
    <glyph glyph-name="uni2198" unicode="&#x2198;" horiz-adv-x="593" 
d="M157 117v85h251l-366 365l60 60l365 -365v249h84l-2 -391z" />
    <glyph glyph-name="uni2199" unicode="&#x2199;" horiz-adv-x="593" 
d="M42 512h84v-252l367 367l58 -61l-364 -364h250l-1 -84l-391 3z" />
    <glyph glyph-name="approxequal" unicode="&#x2248;" horiz-adv-x="471" 
d="M160 262q-43 0 -72 -33t-39 -92l66 -18q13 69 49 69q12 0 23 -6t29 -24q28 -25 49.5 -35t46.5 -10q43 0 72 33t39 92l-67 18q-13 -67 -53 -67q-13 0 -24.5 6t-28.5 23q-26 25 -45.5 34.5t-44.5 9.5zM160 437q-43 0 -72 -33t-39 -92l66 -18q13 69 49 69q12 0 23 -6t29 -24
q28 -25 49.5 -35t46.5 -10q43 0 72 33t39 92l-67 18q-13 -67 -53 -67q-13 0 -24.5 6t-28.5 23q-26 25 -45.5 34.5t-44.5 9.5z" />
    <glyph glyph-name="notequal" unicode="&#x2260;" horiz-adv-x="389" 
d="M147 6h-99l198 521h98zM361 220v-84h-333v84h333zM361 409v-85h-333v85h333z" />
    <glyph glyph-name="lessequal" unicode="&#x2264;" horiz-adv-x="503" 
d="M468 14v-77h-440v77h440zM468 157v-101l-432 162v124l432 162v-102l-345 -121z" />
    <glyph glyph-name="greaterequal" unicode="&#x2265;" horiz-adv-x="503" 
d="M468 14v-77h-440v77h440zM36 402v102l432 -162v-124l-432 -162v101l345 122z" />
    <glyph glyph-name="filledbox" unicode="&#x25a0;" horiz-adv-x="820" 
d="M60 700h700v-700h-700v700z" />
    <glyph glyph-name="H22073" unicode="&#x25a1;" horiz-adv-x="820" 
d="M155 605v-510h510v510h-510zM60 700h700v-700h-700v700z" />
    <glyph glyph-name="H18543" unicode="&#x25aa;" horiz-adv-x="520" 
d="M60 570h400v-400h-400v400z" />
    <glyph glyph-name="H18551" unicode="&#x25ab;" horiz-adv-x="520" 
d="M148 482v-224h224v224h-224zM56 574h408v-408h-408v408z" />
    <glyph glyph-name="triagup" unicode="&#x25b2;" horiz-adv-x="820" 
d="M410 700l350 -700h-700z" />
    <glyph glyph-name="uni25B3" unicode="&#x25b3;" horiz-adv-x="820" 
d="M410 700l350 -700h-700zM410 523l-218 -443h436z" />
    <glyph glyph-name="uni25B6" unicode="&#x25b6;" horiz-adv-x="820" 
d="M760 350l-700 -350v700z" />
    <glyph glyph-name="uni25B7" unicode="&#x25b7;" horiz-adv-x="820" 
d="M760 350l-700 -350v700zM583 350l-443 218v-436z" />
    <glyph glyph-name="triagdn" unicode="&#x25bc;" horiz-adv-x="820" 
d="M410 0l-350 700h700z" />
    <glyph glyph-name="uni25BD" unicode="&#x25bd;" horiz-adv-x="820" 
d="M410 0l-350 700h700zM410 177l218 443h-436z" />
    <glyph glyph-name="uni25C0" unicode="&#x25c0;" horiz-adv-x="820" 
d="M60 350l700 350v-700z" />
    <glyph glyph-name="uni25C1" unicode="&#x25c1;" horiz-adv-x="820" 
d="M60 350l700 350v-700zM237 350l443 -218v436z" />
    <glyph glyph-name="uni25C6" unicode="&#x25c6;" horiz-adv-x="820" 
d="M53 350l357 357l357 -357l-357 -357z" />
    <glyph glyph-name="uni25C7" unicode="&#x25c7;" horiz-adv-x="820" 
d="M178 350l232 -232l232 232l-232 232zM53 350l357 357l357 -357l-357 -357z" />
    <glyph glyph-name="lozenge" unicode="&#x25ca;" horiz-adv-x="620" 
d="M160 350l150 -238l150 238l-150 238zM53 350l225 357h64l225 -357l-225 -357h-64z" />
    <glyph glyph-name="circle" unicode="&#x25cb;" horiz-adv-x="820" 
d="M168 350q0 -100 71 -171t171 -71t171 71t71 171t-71 171t-171 71t-171 -71t-71 -171zM53 350q0 148 104.5 252.5t252.5 104.5t252.5 -104.5t104.5 -252.5t-104.5 -252.5t-252.5 -104.5t-252.5 104.5t-104.5 252.5z" />
    <glyph glyph-name="H18533" unicode="&#x25cf;" horiz-adv-x="820" 
d="M53 350q0 148 104.5 252.5t252.5 104.5t252.5 -104.5t104.5 -252.5t-104.5 -252.5t-252.5 -104.5t-252.5 104.5t-104.5 252.5z" />
    <glyph glyph-name="zero.dnom" horiz-adv-x="314" 
d="M107 124q0 -23 15 -38.5t36 -15.5t35 15.5t14 38.5v76q0 24 -14 39.5t-35 15.5t-36 -15.5t-15 -39.5v-76zM27 120v84q0 57 38 94t93 37q54 0 91.5 -37t37.5 -94v-84q0 -56 -37.5 -93t-91.5 -37q-55 0 -93 37t-38 93z" />
    <glyph glyph-name="one.dnom" horiz-adv-x="235" 
d="M209 328v-329h-80v235l-55 -43l-47 59l100 78h82z" />
    <glyph glyph-name="two.dnom" horiz-adv-x="304" 
d="M277 215q0 51 -36 84t-87 33q-50 0 -82 -27.5t-45 -70.5l75 -26q12 44 49 44q18 0 30 -12t12 -31q0 -28 -70 -64l-95 -53v-94h250v77h-149l51 28q97 47 97 112z" />
    <glyph glyph-name="three.dnom" horiz-adv-x="312" 
d="M200 188l79 51v90h-238v-73h159l-74 -56l24 -54q25 0 38.5 -10t13.5 -28q0 -15 -12 -25t-31 -10q-20 0 -33 12t-18 34l-81 -17q12 -50 48 -79.5t86 -29.5q54 0 89.5 30t35.5 77q0 37 -24 61.5t-62 26.5z" />
    <glyph glyph-name="four.dnom" horiz-adv-x="317" 
d="M103 133h69v97zM252 328v-195h39v-69h-39v-65h-80v65h-145v81l133 183h92z" />
    <glyph glyph-name="five.dnom" horiz-adv-x="314" 
d="M107 198v57h168v73h-248v-165l80 -27q25 29 54 29q21 0 33.5 -14.5t12.5 -36.5q0 -21 -13.5 -34t-36.5 -13q-20 0 -34 10.5t-18 29.5l-78 -21q13 -44 49 -69.5t83 -25.5q56 0 92 34.5t36 88.5q0 48 -29 81.5t-71 33.5q-46 0 -80 -31z" />
    <glyph glyph-name="six.dnom" horiz-adv-x="315" 
d="M233 231q-20 32 -58 32q-30 0 -49.5 -25t-22.5 -67q11 19 32 31t46 12q42 0 72 -32t30 -77q0 -49 -35.5 -82t-88.5 -33q-62 0 -97 46q-35 45 -35 118q0 81 40.5 131t105.5 50q39 0 69.5 -18t45.5 -50zM115 106q0 -18 13.5 -30.5t33.5 -12.5q19 0 32 11t13 29t-13.5 30
t-33.5 12t-32.5 -11t-12.5 -28z" />
    <glyph glyph-name="seven.dnom" horiz-adv-x="298" 
d="M173 -1l99 244v85h-245v-73h168l-109 -256h87z" />
    <glyph glyph-name="eight.dnom" horiz-adv-x="311" 
d="M107 97q0 -15 14 -24.5t35 -9.5t35 9.5t14 24.5t-14 25t-35 10t-35 -10t-14 -25zM38 241q0 39 34.5 66.5t83.5 27.5t83.5 -27.5t34.5 -66.5q0 -52 -55 -75q31 -10 48.5 -30.5t17.5 -47.5q0 -41 -37.5 -69.5t-91.5 -28.5t-91.5 28.5t-37.5 69.5q0 27 17.5 47.5t48.5 30.5
q-55 23 -55 75zM156 198q16 0 27 10t11 24q0 13 -10.5 22t-27.5 9t-27.5 -9t-10.5 -22q0 -14 11 -24t27 -10z" />
    <glyph glyph-name="nine.dnom" horiz-adv-x="315" 
d="M82 94q20 -32 59 -32q30 0 49 25t22 68q-10 -20 -31.5 -32t-46.5 -12q-42 0 -71.5 32t-29.5 78q0 49 35 81.5t89 32.5q61 0 97 -46q34 -45 34 -118q0 -81 -40 -131t-106 -50q-38 0 -69 18t-46 51zM201 219q0 19 -14 31.5t-33 12.5q-20 0 -32.5 -11.5t-12.5 -29.5
t13.5 -30t33.5 -12q19 0 32 11t13 28z" />
    <glyph glyph-name="zero.numr" horiz-adv-x="314" 
d="M107 492q0 -23 15 -38.5t36 -15.5t35 15.5t14 38.5v76q0 24 -14 39.5t-35 15.5t-36 -15.5t-15 -39.5v-76zM27 488v84q0 57 38 94t93 37q54 0 91.5 -37t37.5 -94v-84q0 -56 -37.5 -93t-91.5 -37q-55 0 -93 37t-38 93z" />
    <glyph glyph-name="one.numr" horiz-adv-x="235" 
d="M209 695v-329h-80v235l-55 -43l-47 59l100 78h82z" />
    <glyph glyph-name="two.numr" horiz-adv-x="304" 
d="M277 582q0 51 -36 84.5t-87 33.5q-50 0 -82 -27.5t-45 -70.5l75 -27q12 45 49 45q18 0 30 -12t12 -31q0 -28 -70 -64l-95 -53v-94h250v77h-149l51 27q97 48 97 112z" />
    <glyph glyph-name="three.numr" horiz-adv-x="312" 
d="M200 555l79 51v90h-238v-73h159l-74 -56l24 -54q25 0 38.5 -10t13.5 -28q0 -15 -12 -25t-31 -10q-20 0 -33 12t-18 34l-81 -17q12 -50 48 -79.5t86 -29.5q54 0 89.5 30t35.5 77q0 37 -24 61t-62 27z" />
    <glyph glyph-name="four.numr" horiz-adv-x="317" 
d="M103 501h69v97zM252 695v-194h39v-69h-39v-66h-80v66h-145v80l133 183h92z" />
    <glyph glyph-name="five.numr" horiz-adv-x="314" 
d="M107 566v57h168v73h-248v-165l80 -26q25 28 54 28q21 0 33.5 -14.5t12.5 -36.5q0 -21 -13.5 -34t-36.5 -13q-20 0 -34 10.5t-18 29.5l-78 -21q13 -44 49 -69.5t83 -25.5q56 0 92 34.5t36 88.5q0 48 -29 81.5t-71 33.5q-46 0 -80 -31z" />
    <glyph glyph-name="six.numr" horiz-adv-x="315" 
d="M233 599q-20 32 -58 32q-30 0 -49.5 -25t-22.5 -67q11 20 32 31.5t46 11.5q42 0 72 -32t30 -77q0 -49 -35.5 -82t-88.5 -33q-62 0 -97 46q-35 45 -35 118q0 81 40.5 131t105.5 50q39 0 69.5 -18t45.5 -50zM115 474q0 -18 13.5 -30.5t33.5 -12.5q19 0 32 11t13 29
t-13.5 30t-33.5 12t-32.5 -11t-12.5 -28z" />
    <glyph glyph-name="seven.numr" horiz-adv-x="298" 
d="M173 366l99 245v84h-245v-73h168l-109 -256h87z" />
    <glyph glyph-name="eight.numr" horiz-adv-x="311" 
d="M107 465.5q0 -14.5 14 -24.5t35 -10t35 10t14 24.5t-14 24.5t-35 10t-35 -10t-14 -24.5zM38 609q0 39 34.5 66.5t83.5 27.5t83.5 -27.5t34.5 -66.5q0 -52 -55 -75q31 -10 48.5 -30.5t17.5 -47.5q0 -41 -37.5 -69.5t-91.5 -28.5t-91.5 28.5t-37.5 69.5q0 27 17.5 47.5
t48.5 30.5q-55 23 -55 75zM156 566q16 0 27 10t11 24q0 13 -10.5 22t-27.5 9t-27.5 -9t-10.5 -22q0 -14 11 -24t27 -10z" />
    <glyph glyph-name="nine.numr" horiz-adv-x="315" 
d="M82 462q20 -32 59 -32q30 0 49 25t22 68q-10 -20 -31.5 -32t-46.5 -12q-42 0 -71.5 32t-29.5 78q0 49 35 81.5t89 32.5q61 0 97 -46q34 -45 34 -118q0 -81 -40 -131t-106 -50q-38 0 -69 18t-46 51zM201 587q0 19 -14 31.5t-33 12.5q-20 0 -32.5 -11.5t-12.5 -29.5
t13.5 -30t33.5 -12q19 0 32 11t13 28z" />
    <glyph glyph-name="zero.tabl" horiz-adv-x="610" 
d="M132 303q0 -99 50 -162.5t122.5 -63.5t122.5 63.5t50 162.5v93q0 99 -50 162.5t-122.5 63.5t-122.5 -63.5t-50 -162.5v-93zM37 303v93q0 139 77.5 230t190 91t190 -91t77.5 -230v-93q0 -139 -77.5 -230t-190 -91t-190 91t-77.5 230z" />
    <glyph glyph-name="one.tabl" horiz-adv-x="610" 
d="M566 92v-92h-522v92h222v498l-174 -136l-56 74l225 172h100v-608h205z" />
    <glyph glyph-name="two.tabl" horiz-adv-x="610" 
d="M568 466q0 106 -75.5 175.5t-184.5 69.5q-103 0 -170 -58t-96 -151l94 -28q44 142 172 142q69 0 117 -42.5t48 -107.5q0 -25 -12 -48t-38 -46.5t-45 -37.5t-55 -38l-9 -6l-263 -179v-111h517v92h-390l210 142q180 119 180 232z" />
    <glyph glyph-name="three.tabl" horiz-adv-x="610" 
d="M360 426l208 163v111h-517v-92h409l-217 -180l26 -66q97 0 150.5 -41t53.5 -111q0 -55 -47 -90.5t-122 -35.5q-67 0 -112.5 32t-59.5 90l-90 -30q26 -85 95.5 -136t166.5 -51q116 0 190 62t74 159q0 88 -56.5 146t-151.5 70z" />
    <glyph glyph-name="four.tabl" horiz-adv-x="610" 
d="M136 292h233v284zM464 700v-408h102v-92h-102v-200h-95v200h-332v106l319 394h108z" />
    <glyph glyph-name="five.tabl" horiz-adv-x="610" 
d="M154 413v195h384v92h-479v-352l95 -28q33 37 76 57t85 20q64 0 106 -44.5t42 -112.5q0 -70 -44.5 -113t-116.5 -43q-62 0 -104.5 31.5t-55.5 86.5l-93 -30q25 -85 93 -134t162 -49q111 0 182.5 69.5t71.5 178.5q0 104 -64.5 176.5t-156.5 72.5q-48 0 -96.5 -19.5
t-86.5 -53.5z" />
    <glyph glyph-name="six.tabl" horiz-adv-x="610" 
d="M504 546q-55 76 -163 76q-89 0 -145.5 -70.5t-64.5 -187.5q28 53 83 84.5t121 31.5q101 0 170 -71.5t69 -175.5q0 -108 -74 -179.5t-186 -71.5q-76 0 -139 34.5t-97 96.5q-42 78 -42 201q0 182 86.5 292.5t224.5 110.5q69 0 126.5 -28t90.5 -77zM141 237q0 -66 51.5 -113
t124.5 -47q70 0 116 44t46 111t-47 110t-120.5 43t-122 -42t-48.5 -106z" />
    <glyph glyph-name="seven.tabl" horiz-adv-x="610" 
d="M295 0l279 598v102h-539v-92h443l-288 -608h105z" />
    <glyph glyph-name="eight.tabl" horiz-adv-x="610" 
d="M137 193q0 -50 48.5 -83t119.5 -33t119.5 33t48.5 83q0 53 -48.5 88t-119.5 35t-119.5 -35t-48.5 -88zM62 523q0 84 70.5 139.5t172.5 55.5t172.5 -55.5t70.5 -139.5q0 -52 -30.5 -95t-83.5 -67q61 -25 97.5 -72t36.5 -106q0 -87 -76 -144t-187 -57t-187 57t-76 144
q0 59 36.5 106t97.5 72q-53 24 -83.5 67t-30.5 95zM305 404q62 0 105 31t43 78q0 48 -43 79t-105 31t-105 -31t-43 -79q0 -47 43 -78t105 -31z" />
    <glyph glyph-name="nine.tabl" horiz-adv-x="610" 
d="M106 154q55 -77 163 -77q89 0 145.5 70.5t64.5 187.5q-28 -53 -83 -84.5t-121 -31.5q-101 0 -170 71.5t-69 175.5q0 108 74 179.5t186 71.5q76 0 139 -34.5t97 -96.5q42 -78 42 -201q0 -182 -86.5 -292.5t-224.5 -110.5q-69 0 -126.5 28t-90.5 77zM469 462
q0 66 -51.5 113t-124.5 47q-70 0 -116 -44t-46 -111t47 -110t120.5 -43t122 42t48.5 106z" />
    <glyph glyph-name="zero.slsh" horiz-adv-x="648" 
d="M79 158l444 444l52 -78l-438 -439zM131 323q0 -108 56 -177t137 -69t137 69t56 177v53q0 108 -56 177t-137 69t-137 -69t-56 -177v-53zM36 323v53q0 148 83.5 244.5t204.5 96.5t204.5 -96.5t83.5 -244.5v-53q0 -148 -83.5 -244.5t-204.5 -96.5t-204.5 96.5t-83.5 244.5z
" />
    <glyph glyph-name="a.ss01" horiz-adv-x="638" 
d="M582 0h-95v500h95v-500zM487 251q0 77 -51.5 127.5t-126.5 50.5t-126.5 -50.5t-51.5 -127.5t51.5 -127.5t126.5 -50.5t126.5 50.5t51.5 127.5zM527 251q0 -116 -69.5 -192.5t-171.5 -76.5q-105 0 -177.5 76.5t-72.5 192.5t72.5 192.5t177.5 76.5q102 0 171.5 -76.5
t69.5 -192.5z" />
    <glyph glyph-name="agrave.ss01" horiz-adv-x="638" 
d="M158 724l65 60l163 -160l-61 -56zM582 0h-95v500h95v-500zM487 251q0 77 -51.5 127.5t-126.5 50.5t-126.5 -50.5t-51.5 -127.5t51.5 -127.5t126.5 -50.5t126.5 50.5t51.5 127.5zM527 251q0 -116 -69.5 -192.5t-171.5 -76.5q-105 0 -177.5 76.5t-72.5 192.5t72.5 192.5
t177.5 76.5q102 0 171.5 -76.5t69.5 -192.5z" />
    <glyph glyph-name="aacute.ss01" horiz-adv-x="638" 
d="M443 724l-65 64l-158 -164l53 -56zM582 0h-95v500h95v-500zM487 251q0 77 -51.5 127.5t-126.5 50.5t-126.5 -50.5t-51.5 -127.5t51.5 -127.5t126.5 -50.5t126.5 50.5t51.5 127.5zM527 251q0 -116 -69.5 -192.5t-171.5 -76.5q-105 0 -177.5 76.5t-72.5 192.5t72.5 192.5
t177.5 76.5q102 0 171.5 -76.5t69.5 -192.5z" />
    <glyph glyph-name="acircumflex.ss01" horiz-adv-x="638" 
d="M289 768l-165 -148l49 -56l130 119l130 -119l49 56l-165 148h-28zM582 0h-95v500h95v-500zM487 251q0 77 -51.5 127.5t-126.5 50.5t-126.5 -50.5t-51.5 -127.5t51.5 -127.5t126.5 -50.5t126.5 50.5t51.5 127.5zM527 251q0 -116 -69.5 -192.5t-171.5 -76.5
q-105 0 -177.5 76.5t-72.5 192.5t72.5 192.5t177.5 76.5q102 0 171.5 -76.5t69.5 -192.5z" />
    <glyph glyph-name="atilde.ss01" horiz-adv-x="638" 
d="M228 717q-44 0 -73 -33t-39 -92l67 -18q12 72 48 72q12 0 23 -7t30 -26q27 -25 48.5 -35t46.5 -10q43 0 72 33t39 92l-67 18q-13 -69 -52 -69q-14 0 -25.5 7t-28.5 25q-26 24 -45.5 33.5t-43.5 9.5zM582 0h-95v500h95v-500zM487 251q0 77 -51.5 127.5t-126.5 50.5
t-126.5 -50.5t-51.5 -127.5t51.5 -127.5t126.5 -50.5t126.5 50.5t51.5 127.5zM527 251q0 -116 -69.5 -192.5t-171.5 -76.5q-105 0 -177.5 76.5t-72.5 192.5t72.5 192.5t177.5 76.5q102 0 171.5 -76.5t69.5 -192.5z" />
    <glyph glyph-name="adieresis.ss01" horiz-adv-x="638" 
d="M345 629.5q0 26.5 18 44t44 17.5t44 -17.5t18 -44t-18 -44t-44 -17.5t-44 17.5t-18 44zM135 629.5q0 26.5 18 44t44 17.5t44 -17.5t18 -44t-18 -44t-44 -17.5t-44 17.5t-18 44zM582 0h-95v500h95v-500zM487 251q0 77 -51.5 127.5t-126.5 50.5t-126.5 -50.5t-51.5 -127.5
t51.5 -127.5t126.5 -50.5t126.5 50.5t51.5 127.5zM527 251q0 -116 -69.5 -192.5t-171.5 -76.5q-105 0 -177.5 76.5t-72.5 192.5t72.5 192.5t177.5 76.5q102 0 171.5 -76.5t69.5 -192.5z" />
    <glyph glyph-name="aring.ss01" horiz-adv-x="638" 
d="M252 687.5q0 -22.5 15 -37t36 -14.5t36 14.5t15 37t-15 37t-36 14.5t-36 -14.5t-15 -37zM184 687.5q0 51.5 34.5 85.5t84.5 34t84.5 -34t34.5 -85.5t-34.5 -85.5t-84.5 -34t-84.5 34t-34.5 85.5zM582 0h-95v500h95v-500zM487 251q0 77 -51.5 127.5t-126.5 50.5
t-126.5 -50.5t-51.5 -127.5t51.5 -127.5t126.5 -50.5t126.5 50.5t51.5 127.5zM527 251q0 -116 -69.5 -192.5t-171.5 -76.5q-105 0 -177.5 76.5t-72.5 192.5t72.5 192.5t177.5 76.5q102 0 171.5 -76.5t69.5 -192.5z" />
    <glyph glyph-name="ae.ss01" horiz-adv-x="1068" 
d="M936 287q-7 61 -53 100.5t-111 39.5q-64 0 -109 -39t-54 -101h327zM609 208q9 -62 55.5 -101t110.5 -39q49 0 89 22.5t60 62.5l87 -34q-31 -65 -91 -103t-131 -38q-105 0 -174 77t-69 193t68 192t171 76q104 0 175.5 -76.5t71.5 -187.5q0 -15 -3 -44h-420zM582 0h-95v500
h95v-500zM487 251q0 76 -51 127t-127 51t-127 -51t-51 -127t51 -127t127 -51t127 51t51 127zM527 251q0 -115 -69.5 -192t-173.5 -77q-105 0 -176.5 77.5t-71.5 191.5t71.5 191.5t176.5 77.5q104 0 173.5 -77t69.5 -192z" />
    <glyph glyph-name="amacron.ss01" horiz-adv-x="638" 
d="M464 655v-77h-314v77h314zM582 0h-95v500h95v-500zM487 251q0 77 -51.5 127.5t-126.5 50.5t-126.5 -50.5t-51.5 -127.5t51.5 -127.5t126.5 -50.5t126.5 50.5t51.5 127.5zM527 251q0 -116 -69.5 -192.5t-171.5 -76.5q-105 0 -177.5 76.5t-72.5 192.5t72.5 192.5
t177.5 76.5q102 0 171.5 -76.5t69.5 -192.5z" />
    <glyph glyph-name="abreve.ss01" horiz-adv-x="638" 
d="M302 575q-72 0 -122 47t-51 114h78q0 -39 27 -64.5t69 -25.5q43 0 72.5 26.5t29.5 63.5h78q0 -65 -54 -113t-127 -48zM582 0h-95v500h95v-500zM487 251q0 77 -51.5 127.5t-126.5 50.5t-126.5 -50.5t-51.5 -127.5t51.5 -127.5t126.5 -50.5t126.5 50.5t51.5 127.5zM527 251
q0 -116 -69.5 -192.5t-171.5 -76.5q-105 0 -177.5 76.5t-72.5 192.5t72.5 192.5t177.5 76.5q102 0 171.5 -76.5t69.5 -192.5z" />
    <glyph glyph-name="aogonek.ss01" horiz-adv-x="638" 
d="M468 -22v26h69v-48l-59 -38q-37 -25 -37 -59q0 -20 13 -33t32 -13q37 0 46 38l66 -16q-11 -42 -41 -66.5t-71 -24.5q-51 0 -83.5 30t-32.5 78q0 33 17 57.5t58 52.5zM582 0h-95v500h95v-500zM487 251q0 77 -51.5 127.5t-126.5 50.5t-126.5 -50.5t-51.5 -127.5
t51.5 -127.5t126.5 -50.5t126.5 50.5t51.5 127.5zM527 251q0 -116 -69.5 -192.5t-171.5 -76.5q-105 0 -177.5 76.5t-72.5 192.5t72.5 192.5t177.5 76.5q102 0 171.5 -76.5t69.5 -192.5z" />
    <glyph glyph-name="uni1EA1.ss01" horiz-adv-x="638" 
d="M253 -141q0 26 17.5 43.5t43.5 17.5t43.5 -17.5t17.5 -43.5t-17.5 -44t-43.5 -18t-43.5 18t-17.5 44zM582 0h-95v500h95v-500zM487 251q0 77 -51.5 127.5t-126.5 50.5t-126.5 -50.5t-51.5 -127.5t51.5 -127.5t126.5 -50.5t126.5 50.5t51.5 127.5zM527 251
q0 -116 -69.5 -192.5t-171.5 -76.5q-105 0 -177.5 76.5t-72.5 192.5t72.5 192.5t177.5 76.5q102 0 171.5 -76.5t69.5 -192.5z" />
    <glyph glyph-name="uni1EA3.ss01" horiz-adv-x="638" 
d="M307 554l-42 56l44 30q33 19 33 50q0 20 -13 32t-33 12q-37 0 -45 -36l-65 19q11 41 41 64t71 23q51 0 83.5 -32t32.5 -82q0 -36 -18.5 -61.5t-58.5 -53.5zM582 0h-95v500h95v-500zM487 251q0 77 -51.5 127.5t-126.5 50.5t-126.5 -50.5t-51.5 -127.5t51.5 -127.5
t126.5 -50.5t126.5 50.5t51.5 127.5zM527 251q0 -116 -69.5 -192.5t-171.5 -76.5q-105 0 -177.5 76.5t-72.5 192.5t72.5 192.5t177.5 76.5q102 0 171.5 -76.5t69.5 -192.5z" />
    <glyph glyph-name="uni1EA5.ss01" horiz-adv-x="638" 
d="M639 872l-65 64l-158 -164l53 -56zM289 768l-165 -148l49 -56l130 119l130 -119l49 56l-165 148h-28zM582 0h-95v500h95v-500zM487 251q0 77 -51.5 127.5t-126.5 50.5t-126.5 -50.5t-51.5 -127.5t51.5 -127.5t126.5 -50.5t126.5 50.5t51.5 127.5zM527 251
q0 -116 -69.5 -192.5t-171.5 -76.5q-105 0 -177.5 76.5t-72.5 192.5t72.5 192.5t177.5 76.5q102 0 171.5 -76.5t69.5 -192.5z" />
    <glyph glyph-name="uni1EA7.ss01" horiz-adv-x="638" 
d="M354 872l65 60l163 -160l-61 -56zM289 768l-165 -148l49 -56l130 119l130 -119l49 56l-165 148h-28zM582 0h-95v500h95v-500zM487 251q0 77 -51.5 127.5t-126.5 50.5t-126.5 -50.5t-51.5 -127.5t51.5 -127.5t126.5 -50.5t126.5 50.5t51.5 127.5zM527 251
q0 -116 -69.5 -192.5t-171.5 -76.5q-105 0 -177.5 76.5t-72.5 192.5t72.5 192.5t177.5 76.5q102 0 171.5 -76.5t69.5 -192.5z" />
    <glyph glyph-name="uni1EA9.ss01" horiz-adv-x="638" 
d="M503 702l-42 56l44 30q33 19 33 50q0 20 -13 32t-33 12q-37 0 -45 -36l-65 19q11 41 41 64t71 23q51 0 83.5 -32t32.5 -82q0 -36 -18.5 -61.5t-58.5 -53.5zM289 768l-165 -148l49 -56l130 119l130 -119l49 56l-165 148h-28zM582 0h-95v500h95v-500zM487 251
q0 77 -51.5 127.5t-126.5 50.5t-126.5 -50.5t-51.5 -127.5t51.5 -127.5t126.5 -50.5t126.5 50.5t51.5 127.5zM527 251q0 -116 -69.5 -192.5t-171.5 -76.5q-105 0 -177.5 76.5t-72.5 192.5t72.5 192.5t177.5 76.5q102 0 171.5 -76.5t69.5 -192.5z" />
    <glyph glyph-name="uni1EAB.ss01" horiz-adv-x="638" 
d="M228 989q-44 0 -73 -33t-39 -92l67 -18q12 72 48 72q12 0 23 -7t30 -26q27 -25 48.5 -35t46.5 -10q43 0 72 33t39 92l-67 18q-13 -69 -52 -69q-14 0 -25.5 7t-28.5 25q-26 24 -45.5 33.5t-43.5 9.5zM289 768l-165 -148l49 -56l130 119l130 -119l49 56l-165 148h-28z
M582 0h-95v500h95v-500zM487 251q0 77 -51.5 127.5t-126.5 50.5t-126.5 -50.5t-51.5 -127.5t51.5 -127.5t126.5 -50.5t126.5 50.5t51.5 127.5zM527 251q0 -116 -69.5 -192.5t-171.5 -76.5q-105 0 -177.5 76.5t-72.5 192.5t72.5 192.5t177.5 76.5q102 0 171.5 -76.5
t69.5 -192.5z" />
    <glyph glyph-name="uni1EAD.ss01" horiz-adv-x="638" 
d="M289 768l-165 -148l49 -56l130 119l130 -119l49 56l-165 148h-28zM253 -141q0 26 17.5 43.5t43.5 17.5t43.5 -17.5t17.5 -43.5t-17.5 -44t-43.5 -18t-43.5 18t-17.5 44zM582 0h-95v500h95v-500zM487 251q0 77 -51.5 127.5t-126.5 50.5t-126.5 -50.5t-51.5 -127.5
t51.5 -127.5t126.5 -50.5t126.5 50.5t51.5 127.5zM527 251q0 -116 -69.5 -192.5t-171.5 -76.5q-105 0 -177.5 76.5t-72.5 192.5t72.5 192.5t177.5 76.5q102 0 171.5 -76.5t69.5 -192.5z" />
    <glyph glyph-name="uni1EAF.ss01" horiz-adv-x="638" 
d="M470 933l-65 64l-158 -164l53 -56zM302 575q-72 0 -122 47t-51 114h78q0 -39 27 -64.5t69 -25.5q43 0 72.5 26.5t29.5 63.5h78q0 -65 -54 -113t-127 -48zM582 0h-95v500h95v-500zM487 251q0 77 -51.5 127.5t-126.5 50.5t-126.5 -50.5t-51.5 -127.5t51.5 -127.5
t126.5 -50.5t126.5 50.5t51.5 127.5zM527 251q0 -116 -69.5 -192.5t-171.5 -76.5q-105 0 -177.5 76.5t-72.5 192.5t72.5 192.5t177.5 76.5q102 0 171.5 -76.5t69.5 -192.5z" />
    <glyph glyph-name="uni1EB1.ss01" horiz-adv-x="638" 
d="M135 933l65 60l163 -160l-61 -56zM302 575q-72 0 -122 47t-51 114h78q0 -39 27 -64.5t69 -25.5q43 0 72.5 26.5t29.5 63.5h78q0 -65 -54 -113t-127 -48zM582 0h-95v500h95v-500zM487 251q0 77 -51.5 127.5t-126.5 50.5t-126.5 -50.5t-51.5 -127.5t51.5 -127.5
t126.5 -50.5t126.5 50.5t51.5 127.5zM527 251q0 -116 -69.5 -192.5t-171.5 -76.5q-105 0 -177.5 76.5t-72.5 192.5t72.5 192.5t177.5 76.5q102 0 171.5 -76.5t69.5 -192.5z" />
    <glyph glyph-name="uni1EB3.ss01" horiz-adv-x="638" 
d="M309 769l-42 56l44 30q33 19 33 50q0 20 -13 32t-33 12q-37 0 -45 -36l-65 19q11 41 41 64t71 23q51 0 83.5 -32t32.5 -82q0 -36 -18.5 -61.5t-58.5 -53.5zM302 575q-72 0 -122 47t-51 114h78q0 -39 27 -64.5t69 -25.5q43 0 72.5 26.5t29.5 63.5h78q0 -65 -54 -113
t-127 -48zM582 0h-95v500h95v-500zM487 251q0 77 -51.5 127.5t-126.5 50.5t-126.5 -50.5t-51.5 -127.5t51.5 -127.5t126.5 -50.5t126.5 50.5t51.5 127.5zM527 251q0 -116 -69.5 -192.5t-171.5 -76.5q-105 0 -177.5 76.5t-72.5 192.5t72.5 192.5t177.5 76.5
q102 0 171.5 -76.5t69.5 -192.5z" />
    <glyph glyph-name="uni1EB5.ss01" horiz-adv-x="638" 
d="M230 926q-44 0 -73 -33t-39 -92l67 -18q12 72 48 72q12 0 23 -7t30 -26q27 -25 48.5 -35t46.5 -10q43 0 72 33t39 92l-67 18q-13 -69 -52 -69q-14 0 -25.5 7t-28.5 25q-26 24 -45.5 33.5t-43.5 9.5zM302 575q-72 0 -122 47t-51 114h78q0 -39 27 -64.5t69 -25.5
q43 0 72.5 26.5t29.5 63.5h78q0 -65 -54 -113t-127 -48zM582 0h-95v500h95v-500zM487 251q0 77 -51.5 127.5t-126.5 50.5t-126.5 -50.5t-51.5 -127.5t51.5 -127.5t126.5 -50.5t126.5 50.5t51.5 127.5zM527 251q0 -116 -69.5 -192.5t-171.5 -76.5q-105 0 -177.5 76.5
t-72.5 192.5t72.5 192.5t177.5 76.5q102 0 171.5 -76.5t69.5 -192.5z" />
    <glyph glyph-name="uni1EB7.ss01" horiz-adv-x="638" 
d="M302 575q-72 0 -122 47t-51 114h78q0 -39 27 -64.5t69 -25.5q43 0 72.5 26.5t29.5 63.5h78q0 -65 -54 -113t-127 -48zM253 -141q0 26 17.5 43.5t43.5 17.5t43.5 -17.5t17.5 -43.5t-17.5 -44t-43.5 -18t-43.5 18t-17.5 44zM582 0h-95v500h95v-500zM487 251
q0 77 -51.5 127.5t-126.5 50.5t-126.5 -50.5t-51.5 -127.5t51.5 -127.5t126.5 -50.5t126.5 50.5t51.5 127.5zM527 251q0 -116 -69.5 -192.5t-171.5 -76.5q-105 0 -177.5 76.5t-72.5 192.5t72.5 192.5t177.5 76.5q102 0 171.5 -76.5t69.5 -192.5z" />
    <glyph glyph-name="G.ss02" horiz-adv-x="797" 
d="M131 351q0 -119 76 -196.5t187 -77.5q100 0 172.5 61.5t82.5 159.5h-284v88h386v-386h-95v131q-44 -69 -116 -109t-157 -40q-96 0 -175 47t-125.5 132t-46.5 190t48 190t129.5 132t180.5 47q104 0 190 -55.5t130 -150.5l-86 -42q-32 71 -95 112t-139 41
q-111 0 -187 -77.5t-76 -196.5z" />
    <glyph glyph-name="Gcircumflex.ss02" horiz-adv-x="797" 
d="M380 977l-165 -148l49 -56l130 119l130 -119l49 56l-165 148h-28zM131 351q0 -119 76 -196.5t187 -77.5q100 0 172.5 61.5t82.5 159.5h-284v88h386v-386h-95v131q-44 -69 -116 -109t-157 -40q-96 0 -175 47t-125.5 132t-46.5 190t48 190t129.5 132t180.5 47
q104 0 190 -55.5t130 -150.5l-86 -42q-32 71 -95 112t-139 41q-111 0 -187 -77.5t-76 -196.5z" />
    <glyph glyph-name="Gbreve.ss02" horiz-adv-x="797" 
d="M393 784q-72 0 -122 47t-51 114h78q0 -39 27 -64.5t69 -25.5q43 0 72.5 26.5t29.5 63.5h78q0 -65 -54 -113t-127 -48zM131 351q0 -119 76 -196.5t187 -77.5q100 0 172.5 61.5t82.5 159.5h-284v88h386v-386h-95v131q-44 -69 -116 -109t-157 -40q-96 0 -175 47t-125.5 132
t-46.5 190t48 190t129.5 132t180.5 47q104 0 190 -55.5t130 -150.5l-86 -42q-32 71 -95 112t-139 41q-111 0 -187 -77.5t-76 -196.5z" />
    <glyph glyph-name="Gdotaccent.ss02" horiz-adv-x="797" 
d="M333 838.5q0 26.5 17.5 44t43.5 17.5t43.5 -17.5t17.5 -44t-17.5 -44t-43.5 -17.5t-43.5 17.5t-17.5 44zM131 351q0 -119 76 -196.5t187 -77.5q100 0 172.5 61.5t82.5 159.5h-284v88h386v-386h-95v131q-44 -69 -116 -109t-157 -40q-96 0 -175 47t-125.5 132t-46.5 190
t48 190t129.5 132t180.5 47q104 0 190 -55.5t130 -150.5l-86 -42q-32 71 -95 112t-139 41q-111 0 -187 -77.5t-76 -196.5z" />
    <glyph glyph-name="uni0122.ss02" horiz-adv-x="797" 
d="M432 -227q0 -25 -17.5 -44t-45 -19t-46.5 18t-19 44q0 24 14 42l97 139l40 -30l-64 -90q19 -7 30 -23.5t11 -36.5zM131 351q0 -119 76 -196.5t187 -77.5q100 0 172.5 61.5t82.5 159.5h-284v88h386v-386h-95v131q-44 -69 -116 -109t-157 -40q-96 0 -175 47t-125.5 132
t-46.5 190t48 190t129.5 132t180.5 47q104 0 190 -55.5t130 -150.5l-86 -42q-32 71 -95 112t-139 41q-111 0 -187 -77.5t-76 -196.5z" />
    </font>
</defs>
</svg>
